<svg id="Layer_1" enable-background="new 0 0 500 500" viewBox="0 0 500 500" xmlns="http://www.w3.org/2000/svg"><path clip-rule="evenodd" d="m367.099 52.093c.082-2.391.843-6.087 1.532-8.25l.379-1.001c0-.796.693-.572.837-.865.153-.317.294-.639.565-.905.001-.001 1.051-2.309 2.386-3.184.719-.471.424-2.09 1.227-1.844.864.266 1.076-1.799 2.499-1.736 1.295.057 1.278-.073 1.142 1.142.466 0 .464.425.775.684.242.202 1.112-.534.78 1.787-.383 2.68.807 6.089.441 8.471l-.277 2.89c.229.541-.224.428-.102.611.076.212.103 5.319 2.629 10.213.028.057.04.119.102.153.373.243.464.628.707.933l.848.752c.063.411.417.452 1.108 1.25.164.187.679.831 1.103 1.318.215.243.515.413.713.667l3.715 5.237c1.936 3.442 3.309 7.953 3.325 11.943.014 3.381-.659 6.249-1.453 9.223-.459 1.505-2.435 5.433-3.993 5.961-.818.277-2.627 2.087-5.514 2.358-1.503.141-2.706-.95-3.913-1.137-.252-.99-.522-.825-.379-1.063.2-.333-.469-.651-.294-1.091.379-.953-.911-1.385.045-2.358.455-.463-.076-1.24.305-1.883.662-1.117.026-1.647.119-1.923.204-.601-.132-.418-.051-.537.226-.249-.125-.679-.283-1.018l.124-.735c-.44-1.466.042-2.435-.073-3.116-.051-.362.017-.729.124-1.097l-.696-4.422-2.533-5.016c-.324-1.335-6.345-3.903-7.747-16.908l-.141-2.058c-.211-1.139-.024-2.309-.081-3.446zm-35.207 0c.037-2.243.882-6.268 1.527-8.25l.379-1.001c0-.79.694-.574.837-.865.153-.317.294-.639.565-.905 0 0 1.064-2.317 2.386-3.184.714-.468.434-2.087 1.227-1.844.864.266 1.077-1.798 2.499-1.736 1.296.057 1.278-.072 1.142 1.142.479 0 .441.406.78.684.249.204 1.096-.54.775 1.787-.377 2.733.842 6.155.441 8.471l-.277 2.89c.225.534-.213.427-.102.611.103.17.124 2.426.492 3.828.263 1.004 1.506 6.099 2.239 6.537.373.243.464.628.707.933l.848.752c.069.421.428.455 1.114 1.25.159.187.673.831 1.097 1.318.215.243.52.413.718.667l3.71 5.237c1.947 3.446 3.297 7.948 3.331 11.943.028 3.29-.682 6.317-1.459 9.223-.446 1.462-2.41 5.417-3.992 5.961-.823.283-2.638 2.089-5.508 2.358-1.508.142-2.709-.949-3.919-1.137-.236-1.005-.519-.804-.379-1.063.191-.354-.47-.648-.294-1.091.396-.995-.924-1.356.045-2.358.452-.467-.074-1.243.306-1.883.665-1.122.025-1.632.124-1.923.045-.141.181-.249-.034-.481-.017-.017-.028-.045-.017-.057.221-.249-.13-.679-.288-1.018l.125-.735c-.422-1.276.006-2.651-.074-3.116-.051-.362.017-.729.124-1.097l-.695-4.422-2.534-5.016c.011-.537-.633-.594-.803-.995-.147-.303-2.399-2.325-3.613-4.462-1.824-3.211-2.958-7.737-3.331-11.451l-.142-2.058c-.213-1.137-.026-2.307-.077-3.444zm-35.672 0c.079-2.354.908-6.857 1.815-8.822.207-.448-.102-.96.707-1.137.386-.084 1.718-3.295 3.178-4.247.722-.47.43-2.093 1.233-1.844.844.262 1.087-1.797 2.488-1.736 1.191.052 1.327-.108 1.142 1.142.471 0 .447.398.78.684.258.221 1.091-.578.781 1.787-.366 2.789.84 6.13.435 8.471l-.277 2.89c.234.571-.233.414-.091.611.047.126.094 5.313 2.624 10.213.028.057.045.119.102.153.373.243.469.628.713.933l.843.752c.051.413.435.459 1.108 1.25.158.187.679.831 1.103 1.318.215.243.515.413.712.667l3.71 5.237c2.502 4.962 3.756 9.201 3.223 14.759l-1.351 6.407c-.456 1.51-2.424 5.427-3.981 5.961-.838.287-2.634 2.085-5.519 2.358-1.492.141-2.706-.949-3.919-1.137-.234-.997-.523-.815-.373-1.063.201-.333-.471-.671-.294-1.091.404-.961-.911-1.378.04-2.358.472-.487-.073-1.256.306-1.883.681-1.129.019-1.647.124-1.923.057-.141.181-.249-.034-.481-.017-.017-.028-.045-.017-.057.226-.249-.124-.679-.277-1.018l.124-.735c-.433-1.306-.001-2.691-.073-3.116-.051-.362.011-.729.119-1.097l-.69-4.422-2.533-5.016c0-.537-.645-.594-.814-.995-.155-.354-2.24-2.095-3.602-4.462-1.165-2.024-3.033-7.365-3.104-9.84l-.368-3.67c-.218-1.136-.037-2.306-.093-3.443zm122.476 202.211c-.036 1.357-.024 7.058-.447 8.098-.668 1.642.208 14.176-.062 18.249-.481 7.282-.887 40.618-1.137 41.807-.672 3.199-.296 6.876-.322 10.241-.017 1.646-.096 3.285-.108 4.92l-.322 53.214c-.024 2.21-.508 3.978-2.352 5.576-2.308 1.999-5.153 1.528-8.16 1.504l-36.068-.215c-.051-1.638-.462-13.954-.826-15.427-.14-.331.303-.158.017-1.182-.242-.864-.089-6.423-.973-8.963l-1.855-4.948c2.31 0 5.06-.28 7.052-.113l5.768-.294c2.024-.062 4.043.017 6.068-.198l1.612-.011c3.416-.017 6.181-2.799 6.158-6.226-.02-6.086.354-12.109-1.482-18.006-2.252-7.237-7.369-13.334-13.928-17.033-5.149-2.904-11.073-4.005-16.92-3.732-1.572.079-3.156-.107-4.722.176-.633.12-.964-.267-3.014-.017l-14.171.396c-11.391.298-21.107 2.614-32.199 4.332-7.639 1.183-3.831 1.338-3.551 1.725-.543.894-.967.67-.108 1.029-.776.161-2.16.287-2.624.679 3.143 2.536 10.545.796 11.604 1.889.785.809 4.733-.343 7.159.068l10.394.764c1.106.051 5.371.035 6.006.368 1.363.714 2.521.279 4.015.328l21.104.368c5.805.15 9.592 1.013 14.019 5.287 3.606 3.483 4.827 8.519 4.745 13.447l-15.766.17c-1.448.034-2.907.107-4.366.045-2.415-.091-4.812.311-7.244.045l-21.087-.011c-1.934.028-3.874.141-5.813.164l-42.345.108c-.135-1.543-.772-2.841-.385-4.128.094-.313-.332-.088.125-1.878.483-1.895-.354-.939.707-3.512 1.131-2.742 2.35-4.023 4.015-6.345 1.692-2.359 4.501-3.044 5.423-4.134 1.921-2.27 3.691-1.806 4.411-2.754.623-.821 1.521-.484 1.719-.775.351-.503.944-.639 1.561-.893-1.443-.544-1.506-1.051-1.883-1.233-2.704-1.302-.741-1.063-3.359-1.572-3.974-.773-10.634 1.395-13.826 3.676-1.414 1.01-5.224 3.942-6.288 5.214-6.479 7.741-6.42 16.393-6.452 25.775.011 4.077 3.325 7.391 7.408 7.38l18.034.43-.616 3.659c-.023.215-.053 2.121-.367 2.364-.706.547-.28.953-.322 1.583-.017.249-.096.509-.108.758l-.266 7.561-.486 10.988c-.09.554-.141 1.12-.175 1.679l-40.026.17c-3.715.04-7.436.102-11.14.045-6.164-.096-12.288.305-18.48.045-4.893-.205-12.237-.034-17.547-.034-.048-1.464-.474-13.993-.803-14.72-.153-.335.311-.193.011-1.182-.206-.681-.104-6.458-.967-8.963l-1.86-4.948c2.312 0 5.054-.28 7.057-.113l5.768-.294c2.013-.062 4.043.017 6.056-.198l1.612-.011c3.427-.017 6.181-2.799 6.175-6.226-.022-6.042.316-12.161-1.499-18.006-2.25-7.244-7.359-13.339-13.928-17.033-5.166-2.905-11.056-4.006-16.914-3.732-1.578.079-3.161-.107-4.728.176-.614.12-.958-.263-3.003-.017l-14.183.396c-11.371.298-21.113 2.613-32.194 4.332-7.641 1.186-3.827 1.335-3.551 1.725-.58.904-.923.687-.108 1.029-.671.138-2.145.275-2.624.679 3.294 2.56 10.541.785 11.615 1.889.788.811 4.72-.344 7.154.068l10.388.764c1.107.051 5.375.037 6 .368 1.343.711 2.545.28 4.021.328l21.104.368c5.815.15 9.574.997 14.019 5.287 3.558 3.435 4.876 8.558 4.739 13.447l-15.755.17c-1.459.034-2.912.107-4.366.045-2.426-.091-4.818.311-7.244.045l-21.087-.011c-1.939.028-3.885.141-5.825.164l-42.333.108c-.054-1.263-.795-2.738-.39-4.128.079-.271-.291-.093.119-1.878.489-2.131-.346-.948.718-3.512 1.211-2.916 2.292-3.915 4.009-6.345 1.653-2.339 4.524-3.054 5.423-4.134 1.851-2.223 3.697-1.822 4.411-2.754.627-.818 1.532-.487 1.725-.775.339-.503.939-.639 1.555-.893-1.449-.543-1.421-1.006-1.889-1.233-2.672-1.299-.752-1.065-3.353-1.572-3.96-.772-10.654 1.398-13.832 3.676-1.399 1.003-5.238 3.966-6.277 5.214-6.367 7.647-6.459 16.416-6.452 25.775.006 4.077 3.32 7.391 7.408 7.38l18.034.43-.616 3.659c-.026.221-.063 2.117-.368 2.364-.731.592-.273.924-.328 1.583l-.854 19.306c-.125.707-.17 1.414-.204 2.126l-39.811-.045c-3.141-.456-4.612-2.792-4.824-5.74l-.023-5.174c-.13-10.1.124-20.211-.198-30.305l-.385-15.704c-.04-2.352.079-4.716-.074-7.058-.26-3.936-.713-7.792-.571-11.892 0-.198-.011-.418-.034-.605-.465-3.498.032-6.945-.52-10.931-.279-2.013-.384-16.508-.379-18.147.026-7.677-.774-14.928-.65-22.133.04-2.331.084-10.025-.317-12.203-.633-3.444-.922-7.137-1.018-10.954-.108-4.514-.91-3.789-.91-7.679 1.278.096 2.567.186 3.874.232 29.176 1.078 59.832 1.313 89.061 1.323.667 0 1.351-.006 2.013.017 9.78.368 20.355.158 30.249.254l55.295.311 102.186-.464 60.316-.475c-.391 3.276-.485 9.796-.288 12.927.03.486.013 1.023-.004 1.532zm-73.493 143.054c3.681.04 7.368.068 11.055.113l.481-6.735.594-14.957c.053-.624-.391-1.029.328-1.583.316-.243.444-3.478.656-4.422l.554-2.539c-19.034.731-38.278.915-57.325 1.058l1.402 3.834c.868 2.521.762 8.288.967 8.963.3.989-.164.847-.011 1.182l.808 14.63zm-177.3-.345 22.807-.04c.034-.628.079-1.261.187-1.889l.486-10.988.266-7.561c.006-.249.091-.509.107-.758.043-.631-.384-1.036.322-1.583.322-.25.459-3.583.65-4.422l.56-2.539c-19.08.732-38.239.915-57.33 1.058l1.402 3.834c.898 2.609.741 8.196.978 8.963.294.952-.166.882-.017 1.182l.814 14.924zm193.225-209.172-55.719.226c-.271-.976-2.054-5.047-1.623-5.825.523-.942-1.767-4.002-2.132-6.288l-2.471-9.37c-.181-.605-.503-1.176-.616-1.798-.225-1.188-.989-3.007-.888-3.574.253-1.424-.477-2.25-.922-3.636-.187-.571-.3-1.159-.492-1.725-.612-1.789-5.827-16.821-5.745-17.57.155-1.427 1.222-1.354 2.703-1.295l21.613.645 17.338.481 11.129-.187c1.351-.045 2.714-.108 4.066-.045 2.234.091 4.473-.317 6.724-.057l19.583.023c1.798-.028 3.608-.147 5.406-.175h17.638c.65.129.183 1.001.057 1.374-1.182 3.484-2.709 6.848-3.693 10.405l-1.668 5.48c-.266.826-.679 1.583-.837 2.437-.26 1.436-.322 2.912-.984 4.258-.028.062-.045.142-.045.221.005 1.308-.947 2.348-.922 3.902.012.769-1.767 5.77-1.979 6.322-1.094 2.847-1.249 5.511-2.217 7.776-2.29 5.359-.505 3.741-1.629 7.962zm101.931 33.364-.158-11.898c-.043-5.767.441-9.573-3.484-14.782-3.781-5.019-9.015-7.096-15.003-7.024l-54.904.3c1.598-2.271 3.442-4.83 4.745-7.21.769-1.414 1.521-2.85 2.534-4.111 1.254-1.562 3.987-7.48 4.801-9.404l4.27.718 3.398.871c.596.069 2.292-.483 2.488-.283l5.983-.3c.469.185 1.9.113 2.426-.503l.407-.079c.175-.26.322-.724.498-.582.042.052-.032-.238.266-.249.156-.006.234-.708.956-.673.529.026.205-.65 1.306-.724.14-.009.206-1.05.566-1.261l.565-1.872-.645-3.766c-.667-1.811-1.63-3.11-1.73-3.415-.527-1.599-3.012-1.635-3.031-1.674l-2.709-.554-5.225.939c-.108 0-.209.125-.305.142l-1.154.13c-.468.281-.322-.073-.571.079-.815.496-1.584.491-2.539.537l2.805-6.837c2.069-5.251 3.973-8.944 1.77-15.031-2.276-6.289-8.334-10.569-15.037-10.512l-27.834.458c-6.398.196-11.092.49-17.678.475-.893 0-1.798.136-2.692.153l-15.206.204c-1.368.091-2.748.215-4.128.26-9.934.329-20.226.253-30.192.322-2.252.019-7.829.031-10.236.645-7.384 1.881-12.259 10.529-9.223 18.181.565 1.352.876 2.799 1.623 4.077.336.591-.018.79.91 2.646l1.227 3.178-2.737.441-1.9.452c-.096 0-.198.125-.294.142l-1.12.13c-.459.28-.308-.071-.554.079-1.508.919-2.325.124-5.259.973l-1.459.385c-.095.151-.055-.313-.311-.006-.139.167-1.676.108-2.324.973-4.061 5.414-2.618 5.626-2.794 6.503-.587 1.029.168 2.12.17 2.121.276.17.684-.22.752.447.084.814.471-.353.73.062.511.822 1.599.721 1.674 1.137.125.7.259.285.413.323 1.433.432 3.029.471 4.518.735 3.228.625 1.993 1.369 6.221.713.24.253 5.353-.373 5.813-.3 1.977.314 1.706-.373 2.765-.583.158-.26.311-.724.475-.582.044.057-.041-.238.254-.249l.255-.384c3.077 6.954 8.175 15.09 11.87 21.8l-33.449.277c-4.705.028-9.416.034-14.109.107-5.242.091-10.518-.096-15.726.187-.645.028-1.38.04-2.008-.006-3.583-.262-8.88.033-12.865.051l-49.979.379c-11.183.137-21.922.583-33.036 1.018.079-.958-.271-4.706.407-5.225.814-.623-.357-3.635.068-5.615l.769-8.149c.023-.537-.085-1.091.006-1.612.205-1.167.063-2.675.356-3.105.694-1.015.287-1.975.322-3.15.431-11.535.409-23.091.735-34.631l1.018-27.681c.024-3.075-.756-15.892.413-18.186.264-.518 1.036-4.095 2.754-6.792 2.867-4.5 5.62-7.869 10.53-10.298 3.042-1.566 6.379-2.505 9.789-2.771.633-.028 1.278-.192 1.917-.164 5.524.546 5.794.596 10.716 2.285 3.965 1.36 4.227 2.164 4.965 2.449 1.097.423 1.777.504 2.63 1.453.193.215.242-.222 1.323.944 1.134 1.224 1.346-.143 5.09 5.717 1.403 2.196 1.636 1.722 2.562 4.733.923 3.003.834 1.163 1.77 3.105.559 1.159.52 2.055 1.148 2.539.686.528.336 1.256.633 1.414.515.288.645.769.882 1.261.563-1.155.999-1.078 1.261-1.482 1.205-1.855 1.542-.821 2.115-3.591.566-2.736.505-7.457-.294-10.1-.931-3.079-1.289-5.423-2.935-8.194-4.047-6.813-9.845-11.493-17.152-14.454l-2.731-1.21c-5.006-1.641-11.45-2.494-16.62-1.894-5.916.686-10.645 2.162-15.868 5.293-6.022 3.61-8.99 6.713-13.25 12.644-1.069 1.488-2.784 5.248-3.518 7.041-2.953 7.212-3.24 14.221-2.878 21.817l.079 4.275c.091 1.165.215 2.318.26 3.483.349 8.959.306 18.544.384 27.551l-2.596-.39c-1.544-.313-3.042-1.174-4.654-.967l-1.657.26c-.476-.2-5.232.345-6.741.254l-.707-3.653c-.161-.131.314-.045.006-.424-.158-.194-.115-2.342-.967-3.229-.914-.952-3.701-3.509-4.677-3.97l-1.832.096c-.676-.533-.583-.429-1.612-.074-1.192.412-.003 1.225-.956 1.351-.817.108.361.661-.062 1.012-.783.649-.731 2.212-1.137 2.33-.714.208-.286.317-.322.571-.017.085-.096.175-.108.266l-.752 6.684-.865 4.586.283 3.348.43 10.637.379.865c.04.136-.085.271.079.396.26.226.712.441.571.662-.05.077.213-.077.249.356.017.211.721.337.673 1.301-.035.709.653.244.724 1.764.008.164 1.026.246 1.261.758.125.272.867.189.916.413.006.028.006.079.13.091 1.073.115.107.417 2.155-.023 3.118-.67 1.31-.04 4.072-1.533.97-.524.875-.953 1.781-1.38 1.611-.758 1.63-4.013 1.674-4.1l.554-3.704c1.647 0 6.787-1.461 7.035-1.261 1.951-.976 3.807-.218 6.458-1.216.158-.079.322.108.481-.181l.447 8.601c.147.641-.294.423-.006 2.369l.435 12.916c.629 8.448 2.712 15.385 4.287 23.468.079.413.158.82.249 1.233l-61.888 3.082c-2.218.105-16.669.674-15.647 1.267 1.108.26 2.935.079 3.817.458-1.963.947-3.032.687-.356 1.029-1.946.105-7.229.294-8.742.667 5.998 1.418 19.63 1.741 26.075 1.453 1.928-.085 11.35.062 12.582.447 2.079.649 18.87-.184 23.841.068 9.491.48 52.851.846 54.593 1.131 4.299.703 8.898.267 13.374.328l30.684.147 60.961.328c11.587 0 23.157.17 34.727.119 20.429-.045 41.275.356 61.758.515l75.449.656c1.547.143 2.858 1.6 2.805 3.014l-.045 17.445c-.433 1.512-1.524 2.613-2.997 2.613l-10.716.028c-8.041-.096-16.043.305-24.13.045-4.767-.153-9.659-.028-14.488-.04l-108.255.216-56.188.057c-3.5.011-7.007.113-10.49.068-6.86-.091-13.713-.13-20.584-.068-13.187.124-26.397-.125-39.585.203l-20.499.379c-3.076.034-6.164-.085-9.223.068-5.146.26-10.179.718-15.529.582-.249-.011-.549.011-.786.028-4.838.436-9.353-.016-14.279.515-3.174.342-20.94.386-23.689.379-8.403-.022-16.122.462-24.379.65-4.586.105-7.233-2.237-7.578-6.86-.045-.582-.108-1.154-.187-1.674-.469-3.221-1.462-13.154-.78-17.281.688-4.167 2.304-3.687 3.201-4.948.707-1.018 2.454-1.765 4.355-1.985-6.692-.597-7.068 1.255-10.592 3.461-.974.579-2.237 4.12-2.505 6.023-.653 4.636-.981 11.402-1.34 16.264-.609 8.227 5.292 15.354 13.821 16.14 7.407.512 15.034.51 22.716 1.154-.713 3.158-1.107 2.702-1.317 3.896-1.474 8.37-1.71 14.654-2.562 22.903-.849 8.222-.867 17.142-1.781 24.814-.153 1.267-.272 2.584-.334 3.908-1.089 22.349-1.302 45.788-1.323 68.188 0 .52.011 1.046-.017 1.549-.427 7.83-.147 18.056-.322 26.397l.17 4.332c1.692 10.741 10.066 17.82 20.799 18.17l2.138.006 36.26-.04c.04.571.102 1.131.045 1.697-.096.961.306 1.906.045 2.862l-.011 8.307c.023.769.147 1.527.164 2.296l.277 18.927.385 2.426c.034.367-.079.735.074 1.091.254.611.713 1.21.571 1.843 0 .028.006.062.034.091.468.483-.066 1.045.52 1.691.426.47.101 2.904.786 4.795.536 1.479-.053 2.8.554 3.32 1.425 1.22.641 1.903 1.493 2.307.692.328.272.697.577.797.492.159.599.413.814.667l2.833-1.476c1.913-1.849 1.283-1.587 2.567-3.534 1.041-1.577.879-2.661 1.781-3.834.931-1.209 1.51-6.514 1.629-8.364l.045-3.014.56-10.128-.48-12.288-.645-10.535 50.324-.419.142 5.033-.017 8.307c.028.769.147 1.527.17 2.296l.277 18.927.385 2.426c.04.367-.085.735.074 1.091.26.611.718 1.21.571 1.843-.006.028.011.062.034.091.461.538-.048 1.083.515 1.691.448.485.084 2.828.797 4.795.534 1.475-.073 2.789.554 3.32 1.405 1.19.624 1.895 1.493 2.307.67.318.282.703.56.797.503.159.611.413.826.667l2.827-1.476c2.025-1.957 1.276-1.62 2.579-3.534.978-1.436.891-2.678 1.776-3.834 1.684-2.201 1.522-10.627 1.674-11.378l.565-10.128-.481-12.288c-.221-3.163-.477-3.737-.458-7.306 0-.373-.136-.758-.153-1.142l-.045-2.72 25.759-.147c2.465 0 4.937-.124 7.402-.141l27.862-.125c3.506-.091 6.99-.17 10.49-.057 3.774.127 10.232-.225 14.324-.283l.238 6-.023 8.307c.028.769.147 1.527.17 2.296l.153 11.808c-.228 2.128-.095 6.992.492 9.071l.091 1.566c.26.611.718 1.21.571 1.843-.006.028.011.062.04.091.438.466-.037 1.088.509 1.691.449.496.085 2.829.797 4.795.543 1.499-.076 2.778.554 3.32 1.429 1.228.627 1.9 1.493 2.307.679.32.272.7.565.797.498.159.605.413.82.667l2.827-1.476c2.038-1.97 1.274-1.619 2.579-3.534.972-1.426.86-2.614 1.781-3.834 1.364-1.805 1.644-8.783 1.651-11.14l.226-2.2c.465-6.029.36-14.022-.13-20.454-.242-3.172-.47-3.859-.452-7.306 0-.373-.136-.758-.153-1.142l-.074-3.636 50.233-.141c0 .841.332 2.264.215 3.444-.096.961.305 1.906.045 2.862l-.006 8.307c.023.769.141 1.527.158 2.296l.153 11.808.136 7.119.373 2.426c.034.367-.079.735.074 1.091.26.611.724 1.21.582 1.843-.011.028.006.062.034.091.454.478-.076 1.046.509 1.691.441.487.11 2.969.786 4.795.572 1.546-.077 2.767.565 3.32 1.418 1.219.622 1.894 1.493 2.307.661.314.281.7.565.797.497.159.599.413.814.667 2.408-1.255 3.308-1.344 4.699-3.806l1.572-3.025c.671-2.055 1.031-1.95 1.244-2.612 1.064-3.308 1.313-7.097 1.323-10.541l.232-2.2c.846-9.275-.284-23.085-.825-32.697l34.049-.305c5.752-.092 10.446.311 15.857-3.393 5.53-3.787 8.306-9.658 8.25-16.281l-.062-4.049c-.085-4.009.102-8.053-.181-12.045-.04-.492-.045-1.046 0-1.527.253-2.659-.033-6.822-.057-9.851-.208-23.586-.252-45.698-1.691-69.245l-2.969-45.291c-.181-3.026-.356-6.062-.667-8.997l18.916-.158c5.181-.019 8.839.103 13.634-3.308 5.167-3.68 7.605-8.982 7.605-15.159z" fill-rule="evenodd"/></svg>