<svg id="Layer_1" enable-background="new 0 0 512 512" viewBox="0 0 512 512" xmlns="http://www.w3.org/2000/svg"><path d="m487.47 453.56h-20.83v-358.28c0-13.79-11.22-25-25-25h-278.35c-8.88-31.85-38.12-55.28-72.75-55.28-41.65 0-75.54 33.88-75.54 75.54 0 24.73 11.94 46.72 30.37 60.51v302.52h-20.84c-5.26 0-9.53 4.28-9.53 9.53v24.37c0 5.26 4.28 9.53 9.53 9.53h462.94c5.26 0 9.53-4.28 9.53-9.53v-24.37c0-5.26-4.28-9.54-9.53-9.54zm-399.24-287.55c.77.02 1.53.06 2.3.06 33.78 0 62.45-22.29 72.08-52.93h71.95v309.56h-146.33zm-61.23-75.47c0-35.04 28.5-63.54 63.54-63.54 35.03 0 63.54 28.5 63.54 63.54s-28.5 63.54-63.54 63.54c-35.04-.01-63.54-28.51-63.54-63.54zm30.37 67.84c5.9 2.9 12.23 5.04 18.87 6.32v264c0 3.31 2.69 6 6 6h158.33c3.31 0 6-2.69 6-6v-321.56c0-3.31-2.69-6-6-6h-75.25c.49-3.47.76-7 .76-10.6 0-2.79-.16-5.55-.46-8.26h276.02c7.17 0 13 5.83 13 13v358.29h-397.27zm427.63 326.62h-458v-19.44h458zm-55.23-383.86h-158.34c-3.31 0-6 2.69-6 6v321.56c0 3.31 2.69 6 6 6h158.33c3.31 0 6-2.69 6-6v-321.56c.01-3.31-2.68-6-5.99-6zm-117.67 287.19v-240.82l111.67-32.38v305.58zm-34.67-275.19h110.1l-83.11 24.1c-2.56.74-4.33 3.09-4.33 5.76v249.83c0 2.67 1.76 5.02 4.33 5.76l83.11 24.1h-110.1zm133.49 19.09c-1.51-1.13-3.46-1.49-5.27-.97l-78.76 22.84c-2.56.74-4.33 3.09-4.33 5.76v216.09c0 2.67 1.76 5.02 4.33 5.76l78.76 22.84c.55.16 1.11.24 1.67.24 1.29 0 2.55-.41 3.6-1.2 1.51-1.13 2.4-2.91 2.4-4.8v-261.76c-.01-1.89-.9-3.66-2.4-4.8zm-9.61 258.59-66.76-19.36v-207.08l66.76-19.36zm-344.45-292.15c-2.34-2.34-2.34-6.14 0-8.49 2.34-2.34 6.14-2.34 8.49 0l12.78 12.79 37.6-37.6c2.34-2.34 6.14-2.34 8.49 0 2.34 2.34 2.34 6.14 0 8.48l-41.85 41.85c-1.13 1.13-2.65 1.76-4.24 1.76s-3.12-.63-4.24-1.76z"/></svg>