<?xml version="1.0" encoding="UTF-8"?>
<svg xmlns="http://www.w3.org/2000/svg" id="Layer_1" data-name="Layer 1" viewBox="0 0 512 512" width="512" height="512"><path d="M489.8,93H22.2A11.206,11.206,0,0,0,11,104.186V407.814A11.206,11.206,0,0,0,22.2,419H489.8A11.206,11.206,0,0,0,501,407.814V104.186A11.206,11.206,0,0,0,489.8,93Zm-108.23,28.69h90.7v13.761h-90.7Zm0,23.761h90.7V161.2h-90.7Zm0,25.752h90.7v15.751h-90.7Zm0,25.751h90.7v15.751h-90.7Zm0,25.751h90.7v15.752h-90.7Zm0,25.752h90.7v15.751h-90.7Zm0,25.751h90.7v15.751h-90.7Zm0,25.751h90.7v15.752h-90.7Zm0,25.752h90.7v15.751h-90.7Zm0,25.751h90.7v15.752h-90.7Zm0,25.752h90.7v13.1h-90.7Zm-249,13.1H40.714a.974.974,0,0,1-.98-.966v-12.13H132.57Zm0-23.1H39.734V351.462H132.57Zm0-25.752H39.734V325.711H132.57Zm0-25.751H39.734V299.959H132.57Zm0-25.752H39.734V274.208H132.57Zm0-25.751H39.734V248.457H132.57Zm0-25.751H39.734V222.705H132.57Zm0-25.752H39.734V196.954H132.57Zm0-25.751H39.734V171.2H132.57Zm0-25.751H39.734V145.451H132.57Zm0-25.752H39.734V122.656a.974.974,0,0,1,.98-.966H132.57Zm0-23.761H40.714a10.986,10.986,0,0,0-10.98,10.966V389.344a10.986,10.986,0,0,0,10.98,10.966H132.57V409H22.2a1.2,1.2,0,0,1-1.2-1.186V104.186A1.2,1.2,0,0,1,22.2,103H132.57Zm239,297.31h-229V103h229ZM491,407.814A1.2,1.2,0,0,1,489.8,409H381.569v-8.69h90.91a9.793,9.793,0,0,0,9.787-9.776V121.466a9.793,9.793,0,0,0-9.787-9.776h-90.91V103H489.8a1.2,1.2,0,0,1,1.2,1.186Z"/><path d="M156.85,402.32H357.289a7.57,7.57,0,0,0,7.561-7.561V117.241a7.57,7.57,0,0,0-7.561-7.561H156.85a7.57,7.57,0,0,0-7.561,7.561V394.759A7.57,7.57,0,0,0,156.85,402.32ZM312.018,119.68H354.85V163.6H312.018Zm0,53.922H354.85v48.381H312.018Zm0,58.381H354.85v48.38H312.018Zm0,58.38H354.85v48.381H312.018Zm0,58.381H354.85V392.32H312.018ZM260.606,119.68h41.412V163.6H260.606Zm0,53.922h41.412v48.381H260.606Zm0,58.381h41.412v48.38H260.606Zm0,58.38h41.412v48.381H260.606Zm0,58.381h41.412V392.32H260.606ZM209.194,119.68h41.412V163.6H209.194Zm0,53.922h41.412v48.381H209.194Zm0,58.381h41.412v48.38H209.194Zm0,58.38h41.412v48.381H209.194Zm0,58.381h41.412V392.32H209.194Zm-49.9-229.064h39.905V163.6h-39.9Zm0,53.922h39.905v48.381h-39.9Zm0,58.381h39.905v48.38h-39.9Zm0,58.38h39.905v48.381h-39.9Zm0,58.381h39.905V392.32h-39.9Z"/></svg>
