<svg id="Layer_1" enable-background="new 0 0 512 512" height="512" viewBox="0 0 512 512" width="512" xmlns="http://www.w3.org/2000/svg"><path d="m199.06 233.44v10.55h-6.31c-5.75 0-10.43 4.68-10.43 10.43v46.69c0 5.75 4.68 10.43 10.43 10.43h70.66c5.75 0 10.43-4.68 10.43-10.43v-46.69c0-5.75-4.68-10.43-10.43-10.43h-6.31v-10.55c0-16-13.02-29.02-29.02-29.02s-29.02 13.02-29.02 29.02zm62.77 66.1h-67.52v-43.55h67.52zm-16.74-66.1v10.55h-34.04v-10.55c0-9.38 7.63-17.02 17.02-17.02s17.02 7.64 17.02 17.02zm-28.89 38.89c0-6.55 5.33-11.87 11.87-11.87s11.87 5.33 11.87 11.87c0 4.36-2.37 8.16-5.87 10.23v5.65c0 3.31-2.69 6-6 6s-6-2.69-6-6v-5.65c-3.5-2.07-5.87-5.87-5.87-10.23zm278.84 48.11-42.66-77.1v-68.67c0-13.27-10.79-24.06-24.06-24.06h-13.15l-169.65-131.93c-10.44-8.12-24.46-8.12-34.9 0l-187.11 145.51c-15.26 11.87-18.03 33.94-6.16 49.21 6.9 8.88 17.26 13.53 27.72 13.53 6.86 0 13.76-2.01 19.76-6.12v174.82c-14.73.63-26.52 12.81-26.52 27.69 0 15.29 12.44 27.72 27.72 27.72h324.07c6.84 0 13.11-2.5 17.95-6.62 1.76 5.63 5.28 10.64 10.14 14.19 5.06 3.69 7.73 8.96 7.73 15.22v19.53c0 3.31 2.69 6 6 6h64.08c3.31 0 6-2.69 6-6v-145.96c0-9.81-2.21-18.37-6.96-26.96zm-54.67-145.78v70.22 123.82l-33.27-33.27c-12.01-12.01-31.56-12.01-43.58 0-5.8 5.8-9 13.54-9 21.79s3.19 15.99 9 21.79c5.28 5.28 10.79 10.68 16.11 15.9 2.03 1.99 4.08 4 6.13 6.02h-76.8c-6.65 0-12.06-5.41-12.06-12.06v-214.21c0-6.65 5.41-12.06 12.06-12.06h119.34c6.66 0 12.07 5.41 12.07 12.06zm-155.46 148.95c-12.31 13.69-29.12 24.48-50.06 32.06l-6.78 2.46-6.78-2.46c-58.93-21.35-83.51-65.76-75.15-135.77l1.33-11.14 10.9-4.01c22.04-8.1 41.66-18.16 58.32-29.91l11.37-8.02 11.37 8.02c13.36 9.42 28.65 17.75 45.47 24.83v123.94zm0-148.95v11.95c-14.18-6.29-27.13-13.52-38.55-21.57l-14.83-10.46c-2.07-1.46-4.84-1.46-6.92 0l-14.83 10.46c-15.81 11.14-34.5 20.72-55.55 28.45l-14.35 5.27c-2.12.78-3.62 2.68-3.89 4.92l-1.77 14.79c-9 75.31 18.92 125.27 82.97 148.48l8.83 3.2c.66.24 1.35.36 2.04.36s1.38-.12 2.04-.36l8.82-3.2c18.17-6.58 33.56-15.46 45.97-26.47v48.38c0 2.34.34 4.59.96 6.73h-209.01v-184.02l141.15-109.77c6.03-4.69 14.13-4.69 20.17 0l64.02 49.79c-9.97 2.93-17.27 12.16-17.27 23.07zm-258.08 31.38c-7.81-10.04-5.99-24.56 4.05-32.37l187.11-145.52c6.03-4.69 14.13-4.69 20.17 0l157.46 122.45h-75.15l-74.94-58.28c-10.44-8.12-24.46-8.12-34.9 0l-151.43 117.77c-10.04 7.8-24.57 5.99-32.37-4.05zm363.28 233.01h-324.07c-8.67 0-15.72-7.05-15.72-15.72s7.05-15.72 15.72-15.72h227.86c4.13 3.33 9.37 5.33 15.08 5.33h88.88c1.31 1.32 2.63 2.64 3.93 3.96 1.78 1.81 3.12 3.79 4.03 5.92.01.17.02.34.02.52-.01 8.65-7.06 15.71-15.73 15.71zm99.89 48.32h-52.08v-13.53c0-10.1-4.5-18.95-12.66-24.91-4.06-2.96-6.48-7.72-6.48-12.73 0-.69.05-1.39.13-2.08 1.26-9.62-1.79-18.72-8.59-25.64-7.31-7.43-14.93-14.91-22.3-22.14-5.3-5.2-10.79-10.58-16.03-15.82-3.53-3.53-5.48-8.26-5.48-13.3s1.95-9.77 5.48-13.3c7.33-7.33 19.27-7.33 26.61 0l36.44 36.44c2.91 2.91 7.25 3.78 11.05 2.2s6.26-5.25 6.26-9.37v-105.07l32.16 58.13c3.78 6.83 5.46 13.35 5.46 21.15v139.97zm-180.39-257.43c15.75-15.73 36.69-24.4 58.95-24.4 22.31 0 43.27 8.7 59.04 24.48 2.34 2.35 2.34 6.14-.01 8.49-1.17 1.17-2.71 1.75-4.24 1.75-1.54 0-3.07-.59-4.25-1.76-13.5-13.52-31.45-20.96-50.55-20.96-19.06 0-36.98 7.42-50.47 20.89-2.35 2.34-6.14 2.34-8.49-.01-2.33-2.34-2.32-6.13.02-8.48zm100.34 17.75c2.34 2.35 2.34 6.15-.01 8.49-1.17 1.17-2.7 1.75-4.24 1.75s-3.08-.59-4.25-1.76c-8.78-8.8-20.46-13.65-32.89-13.65-12.39 0-24.05 4.82-32.82 13.58-2.35 2.34-6.15 2.34-8.49-.01s-2.34-6.14.01-8.49c11.04-11.01 25.7-17.08 41.3-17.08 15.64-.01 30.34 6.09 41.39 17.17zm-17.65 17.66c2.34 2.35 2.33 6.15-.02 8.49-1.17 1.17-2.7 1.75-4.23 1.75-1.54 0-3.08-.59-4.25-1.77-4.06-4.08-9.47-6.33-15.23-6.33-5.72 0-11.11 2.23-15.17 6.27-2.35 2.34-6.15 2.33-8.49-.02s-2.33-6.15.02-8.49c6.32-6.3 14.72-9.76 23.64-9.76 8.97-.01 17.4 3.49 23.73 9.86zm-23.66 10.42c-8.02 0-14.54 6.52-14.54 14.54s6.52 14.54 14.54 14.54 14.54-6.52 14.54-14.54-6.52-14.54-14.54-14.54zm0 17.07c-1.4 0-2.54-1.14-2.54-2.54s1.14-2.54 2.54-2.54 2.54 1.14 2.54 2.54-1.14 2.54-2.54 2.54z"/></svg>