<svg id="Capa_1" enable-background="new 0 0 512 512" height="512" viewBox="0 0 512 512" width="512" xmlns="http://www.w3.org/2000/svg"><g><path d="m350.847 437.25c-3.774-1.697-8.217-.015-9.916 3.764l-4.12 9.161c-12.794 28.445-41.214 46.825-72.406 46.825h-8.089c-36.489 0-69.685-21.388-84.573-54.487l-36.769-81.75c-2.013-4.475-6.487-7.367-11.397-7.367h-45.71c-1.378 0-2.5-1.122-2.5-2.5v-51.033c0-4.142-3.358-7.5-7.5-7.5s-7.5 3.358-7.5 7.5v51.033c0 9.649 7.851 17.5 17.5 17.5h44.094l36.103 80.269c17.304 38.475 55.871 63.335 98.252 63.335h8.089c37.084 0 70.875-21.853 86.085-55.674l4.12-9.161c1.7-3.777.015-8.217-3.763-9.915z"/><path d="m401.074 66.67c-35.328-43.616-85.493-66.67-145.074-66.67s-109.747 23.054-145.074 66.67c-32.603 40.252-50.559 96.707-50.559 158.962v41.541c0 4.142 3.358 7.5 7.5 7.5s7.5-3.358 7.5-7.5v-41.541c0-58.83 16.768-111.931 47.215-149.521 32.382-39.979 78.518-61.111 133.418-61.111s101.036 21.132 133.418 61.111c30.447 37.59 47.215 90.691 47.215 149.521v125.263c0 1.378-1.121 2.5-2.5 2.5h-45.711c-4.912 0-9.387 2.895-11.399 7.372l-22.667 50.397c-1.699 3.777-.015 8.217 3.764 9.916.999.449 2.043.662 3.071.662 2.862-.001 5.595-1.647 6.845-4.426l22.004-48.922h44.094c9.649 0 17.5-7.851 17.5-17.5v-125.261c-.001-62.256-17.956-118.71-50.56-158.963z"/><path d="m117 304.833c-4.142 0-7.5 3.358-7.5 7.5s3.358 7.5 7.5 7.5h67.715l7.639 59.668c.364 2.844.577 5.781.78 8.792 2.226 32.918 29.84 58.704 62.866 58.704 33.027 0 60.642-25.786 62.865-58.703.205-3.014.418-5.955.781-8.792l7.639-59.668h67.715c4.143 0 7.5-3.358 7.5-7.5s-3.357-7.5-7.5-7.5h-65.794l3.201-25h62.593c4.143 0 7.5-3.358 7.5-7.5s-3.357-7.5-7.5-7.5h-60.673l3.201-25h57.472c4.143 0 7.5-3.358 7.5-7.5s-3.357-7.5-7.5-7.5h-55.552l3.2-25h52.352c4.143 0 7.5-3.358 7.5-7.5s-3.357-7.5-7.5-7.5h-50.431l4.129-32.249c2.457-19.161-.84-38.334-9.532-55.446-1.876-3.693-6.392-5.168-10.083-3.29-3.693 1.876-5.166 6.39-3.29 10.083 7.323 14.417 10.1 30.582 8.026 46.745l-29.051 226.92c-.416 3.248-.647 6.434-.868 9.684-1.694 25.074-22.734 44.716-47.899 44.716s-46.205-19.642-47.9-44.716c-.219-3.246-.451-6.429-.867-9.684l-29.051-226.92c-3.922-30.593 9.964-60.809 35.377-76.979 12.67-8.061 27.346-12.322 42.441-12.322 15.096 0 29.771 4.261 42.44 12.321 2.551 1.623 5.026 3.413 7.358 5.321 3.205 2.621 7.932 2.15 10.554-1.058 2.622-3.206 2.148-7.931-1.058-10.554-2.789-2.281-5.75-4.422-8.801-6.364-15.081-9.594-32.541-14.666-50.494-14.666s-35.413 5.071-50.493 14.667c-30.296 19.276-46.862 55.208-42.204 91.541l4.129 32.249h-50.432c-4.142 0-7.5 3.358-7.5 7.5s3.358 7.5 7.5 7.5h52.352l3.201 25h-55.553c-4.142 0-7.5 3.358-7.5 7.5s3.358 7.5 7.5 7.5h57.473l3.201 25h-60.674c-4.142 0-7.5 3.358-7.5 7.5s3.358 7.5 7.5 7.5h62.594l3.201 25z"/><path d="m222.5 125.666c0 18.472 15.028 33.5 33.5 33.5s33.5-15.028 33.5-33.5-15.028-33.5-33.5-33.5-33.5 15.028-33.5 33.5zm52 0c0 10.201-8.299 18.5-18.5 18.5s-18.5-8.299-18.5-18.5 8.299-18.5 18.5-18.5 18.5 8.3 18.5 18.5z"/></g></svg>