<svg id="Layer_1" enable-background="new 0 0 258 407.005" height="512" viewBox="0 0 258 407.005" width="512" xmlns="http://www.w3.org/2000/svg"><g><path d="m132.998 4.663 29.1 8.256c3.118-2.234 7.149-4.279 10.569-3.253 5.294 1.588 5.763 5.482 8.9 7.521h76.433v-17.187h-258v17.188h130.841c.041-3.143.42-6.403 1.338-9.638z"/><path d="m130.875 19.766h-130.875v2.9h131.101c-.101-.948-.181-1.913-.226-2.9z"/><path d="m258 22.667v-2.9h-96.781c-.407.997-.855 1.962-1.335 2.9z"/><path d="m142.826 39.329c.148-.523.14-1.05.028-1.547 3.881-2.902 13.503-11.037 16.742-22.453l-12.266-3.48-12.266-3.48c-3.239 11.416.678 23.392 2.457 27.9-.357.365-.64.809-.788 1.332l-.518 1.827c-1.12-.036-2.24.158-3.284.583-1.223.498-2.341 1.302-3.224 2.406l-16.749 20.936c5.192-1.799 10.224-2.817 14.177-2.817 4.624 0 6.98 1.375 8.177 2.89.533-.401.95-.962 1.145-1.649l.961-3.387 4.783-5.978c.019-.023.033-.048.052-.072 1.341-1.715 1.877-3.808 1.651-5.818-.176-1.568-.818-3.081-1.891-4.326z"/><path d="m137.762 263.83h-20.425l-.707 5h22.286l10.527 45.625h-39.261l-.706 5h41.121l10.528 45.625h-58.097l-.707 5h59.958l8.092 35.071h8.999l-42.396-183.738h-9z"/><path d="m81.474 245.051-3.03 15.779h5.26z"/><path d="m90.858 311.455-5.6-39.625h-8.889l5.6 39.625z"/><path d="m83.523 322.455 5.29 37.432 4.445-31.453-.845-5.979z"/><path d="m104.362 407.005-3.63-25.681-3.558 25.182z"/><path d="m80.478 218.414h6.747l.778-4.695-6.345 4.027c-.384.243-.779.461-1.18.668z"/><path d="m113.086 245.866c-.71 4.28-3.162 7.857-6.555 10.086l-1.114 7.878h-23.16-4.39l-.96 5h5.35 22.453l-6.448 45.625h-8.005-50.155l2.252-9.761c-1.276-2.753-1.746-5.908-1.132-9.108l11.352-59.121-1.865-6.979-40.535 175.665h9l8.092-35.07h63.136l-5.218 36.925 8.978-.624 26.564-187.968h16.478v-7.333h-18.353zm-21.978 119.214h-62.688l10.528-45.625h51.31 7.298z"/><path d="m77.401 98.303c-.044-.109-.082-.219-.124-.328l-10.858 9.223-5.144 4.369c-.681.578-1.235 1.249-1.672 1.975-.525.766-.925 1.636-1.15 2.594l-15.357 65.407c-.743 2.174-.873 4.584-.235 6.97l12.789 47.842-11.481 59.797c-1.249 6.509 3.014 12.798 9.522 14.048.765.146 1.525.217 2.276.217 5.64 0 10.668-3.995 11.771-9.739l12-62.5c.341-1.779.275-3.612-.192-5.361l-4.238-15.851c1.638-.232 3.254-.807 4.741-1.751l21.818-13.847 1.704 2.472-12.17 7.724-4.954 29.89c-1.083 6.538 3.339 12.717 9.877 13.801.664.109 1.324.163 1.977.163 5.764 0 10.851-4.166 11.824-10.04l10-60.333c.013-.079.015-.157.027-.236.031-.209.052-.419.072-.63.017-.188.035-.376.043-.563.009-.199.008-.398.008-.597-.001-.197-.001-.394-.011-.589-.01-.19-.031-.379-.05-.568-.02-.201-.04-.401-.07-.599-.028-.186-.068-.37-.105-.556-.04-.197-.079-.395-.128-.589-.047-.183-.104-.363-.159-.545-.059-.193-.118-.387-.187-.576-.063-.174-.136-.345-.207-.516-.081-.195-.163-.388-.254-.578-.077-.16-.161-.317-.246-.474-.105-.196-.212-.389-.327-.579-.039-.065-.07-.132-.111-.196-.056-.089-.122-.168-.18-.254-.119-.177-.241-.352-.37-.523-.117-.156-.237-.307-.361-.456-.122-.147-.248-.291-.377-.432-.14-.153-.282-.303-.429-.447-.129-.127-.26-.249-.395-.37-.156-.14-.313-.277-.474-.408-.143-.116-.29-.227-.439-.337-.161-.118-.322-.234-.487-.343s-.334-.212-.505-.314c-.159-.094-.319-.186-.482-.273-.184-.098-.373-.19-.563-.279-.162-.075-.324-.148-.489-.216-.194-.08-.39-.154-.59-.224-.175-.062-.352-.119-.53-.173-.192-.058-.385-.111-.581-.159-.197-.049-.395-.091-.594-.13-.109-.021-.214-.052-.324-.071-.079-.013-.158-.015-.237-.027-.212-.031-.424-.053-.637-.072-.181-.016-.361-.033-.54-.042-.216-.01-.433-.009-.65-.008-.175.001-.35.001-.524.01-.223.011-.445.035-.668.059-.163.018-.327.033-.488.057-.233.035-.463.083-.695.131-.148.031-.296.059-.441.096-.237.059-.471.132-.706.207-.137.044-.274.084-.408.133-.229.082-.455.176-.68.273-.137.059-.274.116-.408.179-.212.1-.421.212-.629.326-.142.078-.283.155-.421.238-.085.051-.174.093-.258.146l-1.387.88 7.869-33.516 2.646 1.857 15.372 10.791c1.372.963 2.981 1.452 4.598 1.452 1.256 0 2.518-.295 3.675-.894l29-15c2.859-1.479 4.442-4.444 4.31-7.462l8.707 3.262 1.053-2.81-10.8-4.046c-1.924-3.387-5.982-4.86-9.588-3.592l-6.313-2.365-1.407-2.392 10.847 3.841 1.891-5.342-20.417-7.229c-3.119.147-5.514 1.478-9.356-.509-3.298-1.706-4.251-3.39-4.508-4.4l-2.169-.768-1.892 5.342 21.402 7.578-.116.068 3.677 6.248 4.658 1.745-22.025 11.393-17.439-12.241-5.134-3.604c-.978-.966-2.219-1.69-3.656-2.027l-22.222-5.218 2.843-2.415 1.516-1.288c-4.439-2.773-8.015-6.897-10.094-11.987z"/><path d="m109.378 82.977c2.166-.602 4.435-1.368 6.75-2.313 10.992-4.49 18.691-11.102 17.194-14.765-1.497-3.665-11.623-2.995-22.615 1.495-.376.154-.738.315-1.106.474-5.282-2.184-11.392-2.371-17.103-.038-11.503 4.699-17.019 17.835-12.32 29.338 4.7 11.505 17.835 17.019 29.338 12.32 11.054-4.516 16.573-16.816 12.819-27.978-5.095 1.352-9.698 1.853-12.957 1.467z"/><path d="m142.128 109.62.31-.855-15.919-5.785-.405 1.116 1.848.672 14.071 5.113z"/></g></svg>