<?xml version="1.0"?>
<svg xmlns="http://www.w3.org/2000/svg" id="Layer_1" data-name="Layer 1" viewBox="0 0 64 64"><path d="M56.43,2H7.57a1,1,0,0,0-1,1V48.32a1,1,0,0,0,1,1h2.7l-.43.36a1.039,1.039,0,0,0-.36.67,1,1,0,0,0,.23.73l6.81,8.19,1.97,2.37a1.039,1.039,0,0,0,.77.36,1.025,1.025,0,0,0,.64-.23L34.86,49.32H56.43a1,1,0,0,0,1-1V3A1,1,0,0,0,56.43,2ZM17.42,57.22l-5.53-6.65,1.83-1.52,2.61,3.13a.99.99,0,0,0,.77.36,1.047,1.047,0,0,0,.64-.23,1.01,1.01,0,0,0,.13-1.41l-2.61-3.13,1.12-.94,1.38,1.65a1,1,0,0,0,1.41.13,1.009,1.009,0,0,0,.13-1.41l-1.38-1.65,1.76-1.46,2.6,3.13a.99.99,0,0,0,.77.36.97.97,0,0,0,.64-.23,1,1,0,0,0,.13-1.41l-2.61-3.13,1.26-1.05,1.38,1.65a1,1,0,0,0,1.41.13,1.009,1.009,0,0,0,.13-1.41l-1.38-1.65,1.62-1.34,2.61,3.13a.97.97,0,0,0,.76.36,1,1,0,0,0,.64-.23.991.991,0,0,0,.13-1.41l-2.6-3.13,1.4-1.17,1.37,1.66a1.023,1.023,0,0,0,.77.36.981.981,0,0,0,.64-.24,1,1,0,0,0,.13-1.4L30.1,35.41l1.48-1.23,2.61,3.13a1,1,0,0,0,1.54-1.27L33.12,32.9l1.54-1.27,1.37,1.65a1.023,1.023,0,0,0,.77.36,1.047,1.047,0,0,0,.64-.23A1.01,1.01,0,0,0,37.57,32l-1.38-1.65,1.34-1.12,2.61,3.13a.99.99,0,0,0,.77.36,1.047,1.047,0,0,0,.64-.23,1.009,1.009,0,0,0,.13-1.41l-2.61-3.13,1.84-1.53,5.53,6.65Zm-4.78-14.1V8.2H29.15V33.61l-7.19,5.98-2.79,2.32v.01h-.01l-1.45,1.2Zm37.82-6.78a1.007,1.007,0,0,0,.35-.68.955.955,0,0,0-.22-.73L41.8,24.38a.98.98,0,0,0-1.4-.13l-5.55,4.61V8.2H51.36V43.12H42.3Zm4.97,10.98H37.26l2.64-2.2H52.36a1,1,0,0,0,1-1V7.2a1,1,0,0,0-1-1H33.85a1,1,0,0,0-1,1V30.52l-1.7,1.42V7.2a1,1,0,0,0-1-1H11.64a1,1,0,0,0-1,1V44.12a1,1,0,0,0,1,1h3.67l-2.1,1.75-.54.45H8.57V4H55.43Z"/><path d="M18.035,18.978l2.337-2.337a1,1,0,0,0-1.414-1.414l-2.337,2.336a1,1,0,1,0,1.414,1.415Z"/><path d="M24.641,15.964a1,1,0,0,0-1.414,0l-6.08,6.079a1,1,0,0,0,1.415,1.414l6.079-6.079A1,1,0,0,0,24.641,15.964Z"/><path d="M40.284,18.978l2.337-2.337a1,1,0,0,0-1.414-1.414L38.87,17.563a1,1,0,1,0,1.414,1.415Z"/><path d="M45.476,15.964,39.4,22.043a1,1,0,0,0,1.415,1.414l6.079-6.079a1,1,0,1,0-1.414-1.414Z"/></svg>
