<svg height="512" viewBox="0 0 64 64" width="512" xmlns="http://www.w3.org/2000/svg"><g id="four_panel_door" data-name="four panel door"><path d="m50 0h-36a1 1 0 0 0 -1 1v62a1 1 0 0 0 1 1h36a1 1 0 0 0 1-1v-62a1 1 0 0 0 -1-1zm-1 62h-34v-60h34z"/><path d="m44 35a2 2 0 1 0 3-1.722v-4.556a2 2 0 1 0 -2 0v4.556a1.993 1.993 0 0 0 -1 1.722z"/><path d="m22 30h8a1 1 0 0 0 1-1v-22a1 1 0 0 0 -1-1h-8a1 1 0 0 0 -1 1v22a1 1 0 0 0 1 1zm1-22h6v20h-6z"/><path d="m34 30h8a1 1 0 0 0 1-1v-22a1 1 0 0 0 -1-1h-8a1 1 0 0 0 -1 1v22a1 1 0 0 0 1 1zm1-22h6v20h-6z"/><path d="m22 58h8a1 1 0 0 0 1-1v-22a1 1 0 0 0 -1-1h-8a1 1 0 0 0 -1 1v22a1 1 0 0 0 1 1zm1-22h6v20h-6z"/><path d="m34 58h8a1 1 0 0 0 1-1v-22a1 1 0 0 0 -1-1h-8a1 1 0 0 0 -1 1v22a1 1 0 0 0 1 1zm1-22h6v20h-6z"/></g></svg>