<svg id="Icon" viewBox="0 0 512 512" xmlns="http://www.w3.org/2000/svg"><path d="m315.0791 385.3115h-119.4785c-2.7617 0-5 2.2383-5 5v82.3262c0 2.7617 2.2383 5 5 5h119.4785c2.7617 0 5-2.2383 5-5v-82.3262c0-2.7617-2.2383-5-5-5zm-5 82.3262h-109.4785v-72.3262h109.4785z"/><path d="m217.0547 333.1174c-3.2172 0-5.8252 2.6079-5.8252 5.825.2663 7.7111 11.3852 7.7092 11.6504 0 0-3.2169-2.6082-5.8249-5.8252-5.8249z"/><path d="m242.8933 333.1174c-3.217 0-5.8251 2.6079-5.8251 5.825.2663 7.7112 11.3852 7.7091 11.6503 0 0-3.2169-2.6079-5.8249-5.8252-5.8249z"/><path d="m267.9832 333.1174c-3.217 0-5.8252 2.6079-5.8252 5.825.2664 7.7111 11.3852 7.7092 11.6504 0 0-3.2169-2.608-5.8249-5.8252-5.8249z"/><path d="m294.9453 333.1174c-3.217 0-5.8252 2.6079-5.8252 5.825.2664 7.7111 11.3852 7.7092 11.6504 0 0-3.2169-2.608-5.8249-5.8252-5.8249z"/><path d="m502 5c-100.9478.0059-221.3047-.0043-322.1632 0-2.7616 0-4.9999 2.2383-4.9999 5v76.7393c0 2.7617 2.2383 5 5 5s5-2.2383 5-5v-71.7393h66.1631v87.4805h-89.9995l2.6665-30.6748c.1211-1.3955-.3486-2.7783-1.2959-3.8115s-2.2842-1.6211-3.6855-1.6211h-29.8174c-1.4014 0-2.7383.5879-3.6855 1.6211s-1.417 2.416-1.2959 3.8115l2.6665 30.6748h-15.2471l2.6665-30.6748c.1211-1.3955-.3486-2.7783-1.2959-3.8115s-2.2842-1.6211-3.6855-1.6211h-29.8184c-1.4014 0-2.7383.5879-3.6855 1.6211s-1.417 2.416-1.2959 3.8115l2.6665 30.6748h-15.1055l2.6665-30.6748c.1211-1.3955-.3486-2.7783-1.2959-3.8115s-2.2842-1.6211-3.6855-1.6211h-29.8174c-1.4014 0-2.7383.5879-3.6855 1.6211s-1.417 2.416-1.2959 3.8115l2.6665 30.6748h-17.3053c-2.7617 0-5 2.2383-5 5v31.6367c0 2.7617 2.2383 5 5 5 76.4973-.0265 235.8565.0191 311.5098 0l14.5869 23.4141h-161.7246l3.0576-4.9082c1.46-2.3438.7432-5.4277-1.6006-6.8877-2.3418-1.4609-5.4268-.7432-6.8877 1.6006l-7.8193 12.5518c-2.0984 3.1625.4321 7.7642 4.2443 7.6435-.0002 0 179.7362 0 179.7362 0 1.8164 0 3.4902-.9854 4.3711-2.5732.8818-1.5879.833-3.5293-.127-5.0703l-16.0547-25.7705c42.052-.0161 126.6482.0116 168.7083 0 2.7615 0 4.9997-2.2382 4.9997-5v-129.1173c0-2.7617-2.2383-5-5-5zm-241 10h66.1631v87.4805h-66.1631zm-126.6787 61.373h18.9111l-2.2695 26.1074h-14.3721zm-49.6953 0h18.9121l-2.2695 26.1074h-14.373l-2.2695-26.1074zm-49.5528 0h18.9111l-2.2695 26.1074h-14.3721zm151.1084 57.7442h-171.1816v-21.6367h312.1631v21.6367h-140.9814zm150.9815-26.6367v-92.4805h74.918v119.1172h-74.918zm159.8369 26.6367h-74.9189v-119.1172h74.9189z"/><path d="m502 292.0107h-75.3193v-26.6504h4.7021c2.7617 0 5-2.2383 5-5s-2.2383-5-5-5h-4.7021v-22.127c0-9.752-7.9336-17.6855-17.6855-17.6855h-8.7295c-7.4229 0-14.1064 4.6895-16.6318 11.6709l-3.5938 9.9385c-.9385 2.5967.4053 5.4629 3.002 6.4023 2.5977.9385 5.4629-.4053 6.4023-3.002l3.5938-9.9375c1.0977-3.0342 4.002-5.0723 7.2275-5.0723h8.7295c4.2383 0 7.6855 3.4473 7.6855 7.6855v22.127h-4.7012c-2.7617 0-5 2.2383-5 5s2.2383 5 5 5h4.7012v26.6504h-104.0205v-10.2148h3.5723c1.4971 0 2.916-.6709 3.8652-1.8281l9.1396-11.1396c4.0338-5.2348-3.3781-11.3239-7.7305-6.3437 0 0-7.6396 9.3114-7.6396 9.3114h-52.8672v-9.7969c0-2.7617-2.2383-5-5-5s-5 2.2383-5 5v9.7969h-52.8672l-7.6396-9.3115c-4.3467-4.9784-11.7667 1.1034-7.7304 6.3438 0 0 9.1396 11.1396 9.1396 11.1396.9492 1.1572 2.3682 1.8281 3.8652 1.8281h3.5381v10.2148h-189.3057c-2.7617 0-5 2.2383-5 5v21.0693c0 2.7617 2.2383 5 5 5h154.7998v85.9492h-135.7998v-69.2295c0-2.7617-2.2383-5-5-5s-5 2.2383-5 5v162.2002c0 2.7617 2.2383 5 5 5 137.381-.0107 326.957.0077 464.34 0 2.7616 0 4.9999-2.2383 4.9999-5-.2289-44.5954.165-134.4805 0-178.9199h8.6602c2.7617 0 5-2.2383 5-5v-21.0693c0-2.7617-2.2383-5-5-5zm-292.6943-10.2148h93.3545v10.2148h-93.3545zm-180.3057 137.2334h135.7998v77.9707h-135.7998zm145.7998-5v-51.0098h144.0459c2.7617 0 5-2.2383 5-5s-2.2383-5-5-5h-144.0459v-29.9395h161.5107v173.9199h-161.5107v-82.9707zm308.54-5.0293v88h-137.0293v-83h120.0557c2.7617 0 5-2.2383 5-5s-2.2383-5-5-5h-120.0557v-80.9199h137.0293zm13.6602-95.9199h-482v-11.0693h482z"/><path d="m106.8457 353.627c6.6037-.2013 6.6125-9.796-.0001-10h-19.6171c-2.7617 0-5 2.2383-5 5s2.2383 5 5 5z"/><path d="m106.8457 438.0664h-19.6172c-2.7617 0-5 2.2383-5 5s2.2383 5 5 5h19.6172c6.6037-.2013 6.6125-9.796 0-10z"/><path d="m405.4922 353.627h19.6172c2.7617 0 5-2.2383 5-5s-2.2383-5-5-5h-19.6172c-6.6037.2013-6.6125 9.796 0 10z"/><path d="m425.1094 438.0664h-19.6172c-2.7617 0-5 2.2383-5 5s2.2383 5 5 5h19.6172c6.6037-.2013 6.6125-9.796 0-10z"/><path d="m394.8945 76.4424c-2.7617 0-5 2.2383-5 5v10.3789c.2024 6.6063 9.7966 6.6102 10-.0001v-10.3788c0-2.7617-2.2383-5-5-5z"/><path d="m439.2686 96.8213c2.7617 0 5-2.2383 5-5v-10.3789c-.2024-6.6063-9.7966-6.6102-10 .0001 0-.0001 0 10.3788 0 10.3788 0 2.7617 2.2383 5 5 5z"/><path d="m238.8135 72.0078v-10.3779c0-2.7617-2.2383-5-5-5s-5 2.2383-5 5v10.3779c.2024 6.6063 9.7966 6.6102 10 0z"/><path d="m278.1865 56.6299c-2.7617 0-5 2.2383-5 5v10.3779c.2024 6.6063 9.7966 6.6102 10-.0001v-10.3778c0-2.7617-2.2383-5-5-5z"/></svg>