<svg id="Layer_3" height="512" viewBox="0 0 64 64" width="512" xmlns="http://www.w3.org/2000/svg" data-name="Layer 3"><path d="m62 37h-6.556a3.959 3.959 0 0 0 .556-2v-1a1 1 0 0 0 -1-1h-8a1 1 0 0 0 -1 1v1a3.959 3.959 0 0 0 .556 2h-9.556v-2h2v-2h-2v-1a1 1 0 0 0 -1-1h-8a1 1 0 0 0 -1 1v1h-2v2h2v2h-7v-2a1 1 0 0 0 -1-1h-5a1 1 0 0 0 -1 1v2h-2v-4a2 2 0 0 0 -2-2v-2h-2v2a2 2 0 0 0 -2 2v4h-3a1 1 0 0 0 -1 1v3a1 1 0 0 0 1 1h1v20a1 1 0 0 0 1 1h56a1 1 0 0 0 1-1v-20h1a1 1 0 0 0 1-1v-3a1 1 0 0 0 -1-1zm-14-2h6a2 2 0 0 1 -2 2h-2a2 2 0 0 1 -2-2zm-5 23v-16h7v16zm-22-16v16h-7v-16zm2 3h2v8a1 1 0 0 0 1 1h12a1 1 0 0 0 1-1v-8h2v10h-18zm4 0h10v7h-10zm2-12h6v4h-6zm-4 6v2h2v-2h2v2h2v-2h2v2h2v-2h2v2h2v-2h2v4h-18v-4zm-10-3h3v1h-3zm-8-3h2v4h-2zm-4 6h18v1h-18zm9 3v16h-7v-16zm-7 18h16v1h-16zm18 1v-4h18v4zm20 0v-1h16v1zm16-3h-7v-16h7zm2-18h-18v-1h18z"/><path d="m26 58h12v2h-12z"/><path d="m53 44h2v4h-2z"/><path d="m9 44h2v4h-2z"/><path d="m47 44h2v4h-2z"/><path d="m22 19h20a1 1 0 0 0 1-1v-3a.982.982 0 0 0 -.455-.817l.01-.015-5.555-3.703v-8.465a1 1 0 0 0 -1-1h-8a1 1 0 0 0 -1 1v8.465l-5.555 3.7.01.015a.982.982 0 0 0 -.455.82v3a1 1 0 0 0 1 1zm19-2h-18v-1h18zm-5.3-5 3 2h-13.4l3-2zm-.7-9v7h-6v-7z"/><path d="m15 44h2v4h-2z"/><path d="m32 24.1a1 1 0 0 0 -.288-.806l-3-3-1.414 1.414 2.138 2.138-1.986 1.323a1 1 0 0 0 -.152 1.539l3 3 1.414-1.414-2.138-2.138 1.986-1.323a1 1 0 0 0 .44-.733z"/><path d="m36.995 24.1a1 1 0 0 0 -.288-.806l-3-3-1.414 1.414 2.138 2.138-1.986 1.323a1 1 0 0 0 -.152 1.539l3 3 1.414-1.414-2.138-2.138 1.986-1.323a1 1 0 0 0 .44-.733z"/></svg>