<svg id="Layer_1" enable-background="new 0 0 512 512" viewBox="0 0 512 512" xmlns="http://www.w3.org/2000/svg"><path d="m70.955 133.634v-35.323c0-4.418 3.582-8 8-8s8 3.582 8 8v35.323c0 4.418-3.582 8-8 8s-8-3.582-8-8zm126.343 268.619c0 40.052-32.585 72.637-72.637 72.637s-72.637-32.585-72.637-72.637 32.585-72.637 72.637-72.637 72.637 32.585 72.637 72.637zm-18.925 17.926c-6.061 1.374-11.583 1.973-16.661 1.973-17.176 0-29.326-6.773-40.485-12.993-14.915-8.313-27.919-15.55-53.194-6.575.18 31.077 25.51 56.306 56.628 56.306 24.965 0 46.194-16.243 53.712-38.711zm2.925-17.926c0-31.229-25.407-56.637-56.637-56.637-25.225 0-46.643 16.58-53.95 39.412 27.212-7.155 43.612 1.966 58.306 10.155 14.756 8.225 27.625 15.394 52.266 7.651.002-.194.015-.386.015-.581zm322.702-63.063v156.81c0 4.418-3.582 8-8 8h-459.111c-15.93 0-28.889-12.959-28.889-28.889v-197.339c0-15.75 12.67-28.587 28.353-28.875v-29.465-23.202-164.23c0-13.233 10.767-24 24-24h219.044c13.233 0 24 10.766 24 24v164.23 23.202 111.758h32.875v-64.594c0-19.324 11.587-36.016 28.253-43.681-17.051-11.771-28.253-31.438-28.253-53.679v-56.812h-12c-4.418 0-8-3.582-8-8s3.582-8 8-8h12.509c3.959-32.187 31.449-57.196 64.688-57.196s60.729 25.01 64.688 57.196h23.487c4.418 0 8 3.582 8 8v29.812c0 19.512-13.051 36.233-31.294 41.373-1.91 19.598-12.535 36.673-27.937 47.306 16.666 7.665 28.253 24.357 28.253 43.681v64.594h29.334c4.418 0 8 3.582 8 8zm-151.729-65.19v14.211h98.393v-14.211zm129.371-161.575h-14.979v45.992c8.946-4.447 14.979-13.667 14.979-24.179zm-128.71-16h97.071c-3.833-23.334-24.133-41.196-48.536-41.196s-44.702 17.862-48.535 41.196zm48.535 122.009c27.127 0 49.196-22.069 49.196-49.196v-56.812h-98.393v56.812c.001 27.126 22.07 49.196 49.197 49.196zm-47.945 39.566h95.891c-3.941-13.417-16.772-23.566-31.51-23.566h-32.872c-14.738 0-27.569 10.149-31.509 23.566zm-1.251 73.19h98.393v-26.979h-98.393zm-64.875 0v-103.758h-235.043v21.452h160.083c15.93 0 28.889 12.959 28.889 28.889v197.339c0 4.63-1.101 9.006-3.046 12.889h13.131v-148.811c0-4.418 3.582-8 8-8zm-193.994-66.306v25.739h131.922v-12.851c0-7.106-5.782-12.889-12.889-12.889h-119.033zm-41.049-53.452h235.043v-7.202h-235.043zm0-179.432v156.23h235.043v-156.23c0-4.411-3.588-8-8-8h-219.043c-4.412 0-8 3.588-8 8zm-28.353 245.772v12.851h53.402v-25.739h-40.513c-7.107 0-12.889 5.782-12.889 12.888zm188.435 210.228c7.107 0 12.889-5.782 12.889-12.889v-168.488h-201.324v168.488c0 7.107 5.782 12.889 12.889 12.889zm275.565-140.81h-220.59v140.81h11.986 208.604zm-206.59 118.81v-96.81c0-4.418 3.582-8 8-8h133.27c4.418 0 8 3.582 8 8v96.81c0 4.418-3.582 8-8 8h-133.27c-4.419 0-8-3.582-8-8zm16-8h117.27v-80.81h-117.27zm138.514-68.394c0-12.911 10.504-23.416 23.416-23.416s23.416 10.505 23.416 23.416-10.504 23.416-23.416 23.416-23.416-10.504-23.416-23.416zm16 0c0 4.089 3.327 7.416 7.416 7.416s7.416-3.327 7.416-7.416-3.327-7.416-7.416-7.416-7.416 3.328-7.416 7.416zm-16 55.978c0-12.911 10.504-23.416 23.416-23.416s23.416 10.505 23.416 23.416-10.505 23.416-23.416 23.416-23.416-10.505-23.416-23.416zm16 0c0 4.089 3.327 7.416 7.416 7.416s7.416-3.327 7.416-7.416-3.327-7.416-7.416-7.416-7.416 3.327-7.416 7.416zm-67.702-56.166c-3.124-3.123-8.189-3.123-11.313 0l-45.041 45.042c-3.124 3.124-3.124 8.189 0 11.313 1.562 1.562 3.609 2.343 5.657 2.343s4.095-.781 5.657-2.344l45.04-45.04c3.124-3.125 3.124-8.189 0-11.314zm-49.099 28.417 21.163-21.163c3.124-3.124 3.124-8.189 0-11.313-3.125-3.123-8.19-3.124-11.314.001l-21.163 21.163c-3.124 3.124-3.124 8.189 0 11.313 1.562 1.562 3.609 2.343 5.657 2.343s4.095-.782 5.657-2.344zm41.844-.481-21.163 21.163c-3.125 3.125-3.124 8.19 0 11.314 1.562 1.562 3.609 2.343 5.657 2.343s4.095-.781 5.657-2.343l21.163-21.163c3.125-3.125 3.124-8.19 0-11.314-3.124-3.123-8.19-3.123-11.314 0z"/></svg>