<svg id="outline" height="512" viewBox="0 0 48 48" width="512" xmlns="http://www.w3.org/2000/svg"><path d="m47.644 15.3-9.57-5.9v-6.649a.75.75 0 0 0 -.75-.75h-4.849a.75.75 0 0 0 -.75.75v2.726l-7.075-4.363a.747.747 0 0 0 -.781 0l-23.506 14.178a.75.75 0 1 0 .774 1.284l2.135-1.289v26.387a.75.75 0 0 0 .75.75h26.3a.75.75 0 0 0 0-1.5h-25.55v-26.541l19.48-11.753 5.47 3.37 3.042 4.913a.751.751 0 0 0 1.276-.791l-1.463-2.357 10.651 6.569v26.59h-2.219a.75.75 0 0 0 0 1.5h2.969a.75.75 0 0 0 .75-.75v-26.415l2.128 1.313a.75.75 0 0 0 .788-1.277zm-11.07-6.832-3.349-2.068v-2.9h3.349z"/><path d="m29.014 36.579 6.344 10.069a.747.747 0 0 0 .469.331.717.717 0 0 0 .166.019.761.761 0 0 0 .4-.115l3.466-2.183a.749.749 0 0 0 .235-1.034l-6.344-10.066a.752.752 0 0 0 -1.035-.235l-1.052.663-2.2-3.551a2.226 2.226 0 0 0 -3.078-.711l-11.32 7.133a.73.73 0 0 1 -.992-.215l-2.656-4.034a.725.725 0 0 1 .219-1.012l.978-.616.936 1.484a2.234 2.234 0 0 0 1.409 1 2.269 2.269 0 0 0 .5.057 2.235 2.235 0 0 0 1.2-.348l19.9-12.538a2.257 2.257 0 0 0 .705-3.11l-.936-1.485.91-.573a.75.75 0 1 0 -.8-1.27l-.91.573-.936-1.485a2.257 2.257 0 0 0 -3.11-.706l-19.9 12.537a2.259 2.259 0 0 0 -.706 3.111l.936 1.485-.978.617a2.224 2.224 0 0 0 -.671 3.105l2.658 4.024a2.233 2.233 0 0 0 1.867 1 2.206 2.206 0 0 0 1.178-.338l11.32-7.133a.724.724 0 0 1 1 .232l2.206 3.56-1.145.722a.75.75 0 0 0 -.233 1.036zm-16.629-10.158 19.9-12.537a.745.745 0 0 1 .4-.116.753.753 0 0 1 .64.352l2.672 4.24a.754.754 0 0 1 -.236 1.041l-19.9 12.537a.755.755 0 0 1 -1.041-.238l-1.335-2.119-1.336-2.119a.756.756 0 0 1 .236-1.041zm20.5 8.608 5.545 8.8-2.2 1.385-5.545-8.8z"/><path d="m5.843 20.566a.751.751 0 0 0 -.243 1.034l2.667 4.306a.749.749 0 0 0 .638.355.739.739 0 0 0 .394-.113.75.75 0 0 0 .243-1.032l-2.667-4.307a.751.751 0 0 0 -1.032-.243z"/><path d="m12.858 14.178a.75.75 0 1 0 1.275-.79l-1.215-1.963a.75.75 0 0 0 -1.275.79z"/></svg>