<?xml version="1.0" encoding="iso-8859-1"?>
<!-- Generator: Adobe Illustrator 19.0.0, SVG Export Plug-In . SVG Version: 6.00 Build 0)  -->
<svg version="1.1" id="Capa_1" xmlns="http://www.w3.org/2000/svg" xmlns:xlink="http://www.w3.org/1999/xlink" x="0px" y="0px"
	 viewBox="0 0 512 512" style="enable-background:new 0 0 512 512;" xml:space="preserve">
<g>
	<g>
		<path d="M381.578,0H130.422c-10.527,0-19.092,8.564-19.092,19.092v99.575c0,4.143,3.358,7.5,7.5,7.5c4.142,0,7.5-3.357,7.5-7.5
			V85.034h188.84c4.142,0,7.5-3.357,7.5-7.5s-3.358-7.5-7.5-7.5H126.33V19.092c0-2.256,1.835-4.092,4.092-4.092h251.156
			c2.256,0,4.092,1.836,4.092,4.092v50.942h-40.5c-4.142,0-7.5,3.357-7.5,7.5s3.358,7.5,7.5,7.5h40.5v248.133
			c0,4.143,3.358,7.5,7.5,7.5c4.142,0,7.5-3.357,7.5-7.5V19.092C400.67,8.564,392.105,0,381.578,0z"/>
	</g>
</g>
<g>
	<g>
		<path d="M393.17,355.668c-4.142,0-7.5,3.357-7.5,7.5v27.573H126.33v-58.889h21.945c15.43,0,27.983-12.554,27.983-27.983v-48.378
			c0-15.43-12.553-27.983-27.983-27.983H126.33v-78.841c0-4.143-3.358-7.5-7.5-7.5c-4.142,0-7.5,3.357-7.5,7.5v86.341v89.345v151.65
			c0,10.527,8.564,19.092,19.092,19.092h15.069v9.405c0,4.143,3.358,7.5,7.5,7.5c4.142,0,7.5-3.357,7.5-7.5v-9.405h191.018v9.405
			c0,4.143,3.358,7.5,7.5,7.5c4.142,0,7.5-3.357,7.5-7.5v-9.405h15.069c10.527,0,19.092-8.564,19.092-19.092V363.168
			C400.67,359.025,397.312,355.668,393.17,355.668z M126.33,242.507h21.945v0.001c7.159,0,12.983,5.824,12.983,12.983v48.378
			c0,7.159-5.824,12.983-12.983,12.983H126.33V242.507z M385.67,476.003c0,2.256-1.836,4.092-4.092,4.092H130.422
			c-2.256,0-4.092-1.836-4.092-4.092v-70.262h259.34V476.003z"/>
	</g>
</g>
<g>
	<g>
		<path d="M348.251,421.083H163.749c-4.142,0-7.5,3.357-7.5,7.5s3.358,7.5,7.5,7.5h184.503c4.142,0,7.5-3.357,7.5-7.5
			S352.394,421.083,348.251,421.083z"/>
	</g>
</g>
<g>
	<g>
		<path d="M348.251,449.753H163.749c-4.142,0-7.5,3.357-7.5,7.5s3.358,7.5,7.5,7.5h184.503c4.142,0,7.5-3.357,7.5-7.5
			S352.394,449.753,348.251,449.753z"/>
	</g>
</g>
<g>
	<g>
		<path d="M305.106,187.89l-12.706,5.927l-21.826-12.601l21.826-12.601l12.706,5.927c1.025,0.479,2.104,0.705,3.166,0.705
			c2.824,0,5.529-1.604,6.802-4.331c1.751-3.754,0.127-8.217-3.626-9.968l-11.487-5.358l1.103-12.628
			c0.36-4.126-2.693-7.764-6.819-8.124c-4.119-0.352-7.763,2.692-8.124,6.819l-1.22,13.967l-21.826,12.601v-24.223l11.486-8.041
			c3.393-2.376,4.218-7.053,1.843-10.445c-2.376-3.396-7.053-4.219-10.445-1.844l-10.384,7.27l-10.384-7.27
			c-3.394-2.375-8.07-1.551-10.445,1.844c-2.375,3.393-1.55,8.069,1.843,10.445l11.486,8.041v24.222l-20.978-12.112l-1.22-13.967
			c-0.361-4.126-4.008-7.19-8.124-6.819c-4.126,0.36-7.18,3.998-6.819,8.124l1.103,12.628l-11.487,5.358
			c-3.754,1.751-5.377,6.214-3.626,9.968c1.273,2.728,3.978,4.331,6.802,4.331c1.062,0,2.14-0.227,3.166-0.705l12.706-5.927
			l20.978,12.112l-20.978,12.113l-12.706-5.927c-3.752-1.751-8.216-0.128-9.967,3.626c-1.751,3.754-0.127,8.217,3.626,9.968
			l11.487,5.358l-1.103,12.628c-0.36,4.126,2.693,7.764,6.819,8.124c0.222,0.02,0.442,0.028,0.661,0.028
			c3.847,0,7.122-2.943,7.463-6.848l1.22-13.967l20.978-12.112v25.202l-11.486,8.04c-3.394,2.376-4.219,7.052-1.844,10.445
			c2.376,3.395,7.052,4.218,10.445,1.844l10.384-7.269l10.384,7.269c1.309,0.916,2.809,1.356,4.294,1.356
			c2.364,0,4.692-1.116,6.151-3.2c2.375-3.394,1.55-8.069-1.844-10.445l-11.486-8.04v-25.202l21.826,12.601l1.22,13.967
			c0.341,3.904,3.616,6.848,7.463,6.848c0.219,0,0.439-0.009,0.661-0.028c4.126-0.36,7.18-3.998,6.819-8.124l-1.103-12.628
			l11.487-5.358c3.754-1.751,5.377-6.214,3.626-9.968C313.322,187.763,308.859,186.139,305.106,187.89z"/>
	</g>
</g>
<g>
	<g>
		<path d="M143.794,254.282c-4.142,0-7.5,3.357-7.5,7.5v35.796c0,4.143,3.358,7.5,7.5,7.5s7.5-3.357,7.5-7.5v-35.796
			C151.294,257.639,147.936,254.282,143.794,254.282z"/>
	</g>
</g>
<g>
</g>
<g>
</g>
<g>
</g>
<g>
</g>
<g>
</g>
<g>
</g>
<g>
</g>
<g>
</g>
<g>
</g>
<g>
</g>
<g>
</g>
<g>
</g>
<g>
</g>
<g>
</g>
<g>
</g>
</svg>
