<svg id="_x33_0" enable-background="new 0 0 64 64" height="512" viewBox="0 0 64 64" width="512" xmlns="http://www.w3.org/2000/svg"><g><path d="m60 13h-1v-10c0-1.103-.897-2-2-2h-8c-1.103 0-2 .897-2 2v10h-2.184c.112-.314.184-.648.184-1 0-.771-.301-1.468-.78-2 .479-.532.78-1.229.78-2v-4c0-1.654-1.346-3-3-3h-18c-1.654 0-3 1.346-3 3v4c0 .771.301 1.468.78 2-.48.532-.78 1.229-.78 2 0 .352.072.686.184 1h-1.184c-1.654 0-3 1.346-3 3v9.051c-.332-.022-.662-.051-1-.051-6.525 0-12.348 4.299-14.3 10.492-.425.368-.7.904-.7 1.508v6c0 .604.275 1.141.701 1.508 1.952 6.193 7.774 10.492 14.299 10.492.338 0 .668-.029 1-.051v5.051c0 1.654 1.346 3 3 3h40c1.654 0 3-1.346 3-3v-44c0-1.654-1.346-3-3-3zm-11-10h8v10h-1.586l-3.707-3.707-1.414 1.414 2.293 2.293h-3.586zm-26 1c0-.551.448-1 1-1h18c.552 0 1 .449 1 1v4c0 .551-.448 1-1 1h-18c-.552 0-1-.449-1-1zm0 8c0-.551.448-1 1-1h18c.552 0 1 .449 1 1s-.448 1-1 1h-18c-.552 0-1-.449-1-1zm-3 3h40c.552 0 1 .449 1 1v5h-42v-5c0-.551.448-1 1-1zm-14.999 25.019.001 2.981h-2.002v-6h2l.001 2.981c0 .006-.001.013-.001.019 0 .007.001.013.001.019zm-.993 4.981h.992c.392 0 .755-.117 1.063-.313 1.765 3.725 5.549 6.313 9.937 6.313 6.065 0 11-4.935 11-11s-4.935-11-11-11c-4.388 0-8.172 2.588-9.937 6.313-.308-.196-.671-.313-1.063-.313h-.992c1.996-4.772 6.729-8 11.992-8 7.168 0 13 5.832 13 13s-5.832 13-13 13c-5.263 0-9.996-3.228-11.992-8zm11.992-14c4.963 0 9 4.037 9 9s-4.037 9-9 9-9-4.037-9-9 4.037-9 9-9zm29.974 24.712-.98-8.822-1.988.221.933 8.395-2.107 1.405c-.331.221-.832-.045-.832-.446v-11.465h-2v9.387c-1.565-.563-3.291-.576-4.872-.01l.729-9.477c.072-.938.479-1.821 1.144-2.486.535-.533 1.465-.533 2 0l.049.049-1.442.618.787 1.838 5.849-2.506c.637-.274 1.315-.413 2.01-.413.334 0 .668.079.967.229.579.289.994.817 1.14 1.447l2.604 11.284c.023.103.035.207.035.312 0 .602-.384 1.135-.955 1.325l-.969.322c-.713.243-1.548-.1-1.89-.785zm2.792-13.739c-.401-.643-.954-1.185-1.65-1.534-.576-.287-1.22-.439-1.862-.439-.968 0-1.91.193-2.8.575l-2.425 1.039-.615-.614c-1.289-1.289-3.539-1.289-4.828 0-1.002 1.002-1.614 2.333-1.724 3.746l-.051.662c-1.164-1.545-1.811-3.431-1.811-5.408 0-4.963 4.037-9 9-9s9 4.037 9 9c0 .667-.089 1.327-.234 1.973zm-16.163 6.147-.187 2.431c-1.277-.92-2.365-2.075-3.238-3.391.391-.717.712-1.476.983-2.257.599 1.202 1.425 2.29 2.442 3.217zm17.134-3.04c.816-1.563 1.263-3.305 1.263-5.08 0-6.065-4.935-11-11-11-4.306 0-8.031 2.493-9.836 6.105-.272-.785-.594-1.547-.987-2.266 2.418-3.657 6.412-5.839 10.823-5.839 7.168 0 13 5.832 13 13 0 2.867-.932 5.577-2.631 7.819zm10.263 15.92h-40c-.552 0-1-.448-1-1v-5.302c3.665-.747 6.835-2.844 9-5.736 1.154 1.543 2.593 2.844 4.242 3.845l-.375 4.879 2.356-1.18c1.519-.76 3.309-.715 4.788.077.064 1.342 1.167 2.417 2.524 2.417.502 0 .988-.147 1.406-.426l1.697-1.132c.658.972 1.749 1.558 2.946 1.558.386 0 .766-.062 1.127-.184l.967-.322c1.388-.463 2.322-1.758 2.322-3.222 0-.257-.029-.515-.087-.763l-.984-4.262c2.621-2.789 4.071-6.398 4.071-10.247 0-8.271-6.729-15-15-15-4.802 0-9.187 2.229-12.011 6.023-2.165-2.884-5.33-4.975-8.989-5.721v-2.302h42v37c0 .552-.448 1-1 1z"/><path d="m28 5h13v2h-13z"/><path d="m52.5 3.964h2v7.071h-2z" transform="matrix(.707 -.707 .707 .707 10.367 40.027)"/><path d="m23 17h2v2h-2z"/><path d="m27 17h2v2h-2z"/><path d="m31 17h2v2h-2z"/><path d="m39 17h6v2h-6z"/><path d="m47 17h8v2h-8z"/></g></svg>