<svg id="Layer_1" enable-background="new 0 0 500 500" viewBox="0 0 500 500" xmlns="http://www.w3.org/2000/svg"><g fill="#141515"><path d="m369.629 53.412h-30.392c-2.255 0-4.082 1.827-4.082 4.083 0 2.255 1.827 4.082 4.082 4.082h26.31v358.721h-9.78v-344.681c0-1.738-1.103-3.286-2.746-3.859l-4.143-1.432c-43.391-15.032-86.788-30.063-130.027-45.1-.138-.047-.281-.008-.421-.04-.305-.072-.594-.185-.921-.185h-12.932c-2.255 0-4.083 1.827-4.083 4.082v441.835c0 2.255 1.827 4.083 4.083 4.083h12.932c.452 0 .902-.073 1.343-.228 43.295-15.054 86.754-30.108 130.205-45.162l3.32-1.147h17.253c2.255 0 4.082-1.827 4.082-4.083v-366.886c0-2.256-1.827-4.083-4.083-4.083zm-160.97-20.247h4.768v433.671h-4.768zm12.932 432.011v-430.355c41.447 14.408 83.034 28.816 124.62 43.218l1.392.484v342.949l-1.22.424c-41.642 14.425-83.289 28.85-124.792 43.28z"/><path d="m190.186 71.534h-42.032c-2.255 0-4.082 1.827-4.082 4.082v344.681h-9.619v-358.72h54.602c2.255 0 4.083-1.827 4.083-4.082 0-2.256-1.827-4.083-4.083-4.083h-58.684c-2.256 0-4.083 1.827-4.083 4.083v366.885c0 2.255 1.826 4.083 4.083 4.083h57.715c2.255 0 4.082-1.827 4.082-4.083s-1.827-4.082-4.082-4.082h-35.851v-340.599h37.95c2.255 0 4.083-1.826 4.083-4.083 0-2.255-1.827-4.082-4.082-4.082z"/><path d="m284.402 236.761c-5.152-.156-10.46-.318-16.564-.646-4.942-.136-10.152-.295-15.533-.525v-26.247c0-1.787-1.164-3.369-2.874-3.898l-1.504-.462c-1.599-.484-3.275-.996-5.029-1.632-2.451-.824-4.896-1.643-7.507-2.472-1.237-.396-2.59-.162-3.642.601-1.053.769-1.671 1.988-1.671 3.292v90.457c0 1.303.617 2.523 1.671 3.292.707.523 1.553.791 2.411.791.412 0 .83-.062 1.231-.189 2.612-.83 5.056-1.649 7.586-2.501 1.693-.607 3.386-1.125 5.007-1.621l1.448-.445c1.71-.529 2.874-2.111 2.874-3.898v-26.229c2.514-.079 5.038-.159 7.457-.254 2.885-.111 5.703-.223 8.455-.295 3.119-.09 6.143-.223 9.1-.351 2.568-.117 5.085-.228 7.441-.301 2.974 0 5.781-1.181 8.103-3.536 1.86-2.155 2.93-4.913 2.93-7.569v-4.243c0-2.657-1.07-5.414-3.319-7.959-2.296-2.03-5.036-3.15-8.071-3.16zm-40.261 50.875c-1.287.401-2.59.819-3.849 1.27-.685.234-1.364.462-2.049.691v-79.197c.663.223 1.314.44 1.96.658 1.326.479 2.646.902 3.938 1.303zm43.486-35.516c0 .691-.373 1.571-.752 2.028-.585.59-1.336.913-2.239.913-2.517.078-5.073.189-7.68.306-2.913.129-5.893.262-8.962.346-2.779.078-5.63.189-8.548.301-2.316.092-4.736.166-7.14.242v-12.497c5.311.223 10.482.382 15.572.52 5.681.318 11.055.485 16.273.641.045 0 .568.016.607.016.668 0 1.531.412 1.921.707.574.663.947 1.543.947 2.234v4.243z"/></g></svg>