<svg id="Capa_1" enable-background="new 0 0 512 512" height="512" viewBox="0 0 512 512" width="512" xmlns="http://www.w3.org/2000/svg"><g><path d="m497 467v-444.5c0-12.406-10.094-22.5-22.5-22.5h-437c-12.406 0-22.5 10.094-22.5 22.5v444.5h-15v45h429.5v-15h-414.5v-15h482v15h-22.5v15h37.5v-45zm-15-444.5v444.5h-106.001v-452h98.501c4.136 0 7.5 3.364 7.5 7.5zm-452 0c0-4.136 3.364-7.5 7.5-7.5h323.499v452h-270.999v-121.001h15v15h15v-45h-15v15h-15v-44.999h15v15h15v-45h-15v15h-15v-188.5c0-4.065 3.435-7.5 7.499-7.5h97.499c4.065 0 7.5 3.435 7.5 7.5v8.136c-21.254 3.582-37.5 22.106-37.5 44.363v7.5h52.5v-15h-36.551c3.339-12.925 15.098-22.5 29.051-22.5h30c13.953 0 25.712 9.575 29.051 22.5h-36.551v15h52.5v-7.5c0-22.257-16.246-40.781-37.5-44.363v-8.136c0-28.948-23.552-52.5-52.5-52.5h-97.499c-28.948 0-52.499 23.552-52.499 52.5v384.5h-15zm202.498 67.499h-15v-7.499c0-12.406-10.094-22.5-22.5-22.5h-97.499c-12.406 0-22.499 10.094-22.499 22.5v384.5h-15v-384.5c0-20.678 16.822-37.5 37.499-37.5h97.499c20.678 0 37.5 16.822 37.5 37.5z"/><path d="m444.5 497h15v15h-15z"/><path d="m323.499 353.499c12.406 0 22.5-10.094 22.5-22.5v-45c0-12.406-10.094-22.5-22.5-22.5s-22.5 10.094-22.5 22.5v45c0 12.406 10.094 22.5 22.5 22.5zm-7.5-67.5c0-4.136 3.364-7.5 7.5-7.5s7.5 3.364 7.5 7.5v45c0 4.136-3.364 7.5-7.5 7.5s-7.5-3.364-7.5-7.5z"/><path d="m413.498 353.499c12.406 0 22.5-10.094 22.5-22.5v-45c0-12.406-10.094-22.5-22.5-22.5s-22.5 10.094-22.5 22.5v45c0 12.406 10.094 22.5 22.5 22.5zm-7.5-67.5c0-4.136 3.364-7.5 7.5-7.5s7.5 3.364 7.5 7.5v45c0 4.136-3.364 7.5-7.5 7.5s-7.5-3.364-7.5-7.5z"/><path d="m452 30h15v15h-15z"/><path d="m452 60h15v15h-15z"/><path d="m187.498 247.499h15v15h-15z"/><path d="m217.498 307.498h15v15h-15z"/><path d="m187.498 187.499h15v45h-15z"/><path d="m247.498 187.499h15v45h-15z"/><path d="m217.498 157.499h15v45h-15z"/><path d="m247.498 247.499h15v15h-15z"/><path d="m217.498 247.498h15v45h-15z"/><path d="m217.498 217.499h15v15h-15z"/></g></svg>