<?xml version="1.0"?>
<svg xmlns="http://www.w3.org/2000/svg" viewBox="0 0 72 72"><g id="Layer_25" data-name="Layer 25"><path d="M61,40a5.00588,5.00588,0,0,0,5-5V4a1,1,0,0,0-1-1H7A1,1,0,0,0,6,4V68a1,1,0,0,0,1,1H65a1,1,0,0,0,1-1V43a1,1,0,0,0-2,0v3H59V40Zm3,20H59V55h5Zm-7,0H45V55H57ZM38,55h5v5H38Zm12-2H38V48H50Zm-7-7H38V40h5Zm-9-8a4.00458,4.00458,0,0,1-4-4,3.00328,3.00328,0,0,1,3-3H53.02557A4.95129,4.95129,0,0,0,52,34a5.96877,5.96877,0,0,0,1.54047,4ZM8,5H64V35a3.00328,3.00328,0,0,1-3,3H58a4.00458,4.00458,0,0,1-4-4,3,3,0,0,1,6,0H58a1,1,0,0,0,0,2h2a2.002,2.002,0,0,0,2-2,5.00588,5.00588,0,0,0-5-5H33a5.00588,5.00588,0,0,0-5,5,6.00657,6.00657,0,0,0,6,6h2V67H8ZM38,67V62H50v5Zm26,0H52V62H64Zm0-14H52V48H64ZM45,46V40H57v6Z"/></g></svg>
