<svg id="Слой_1" enable-background="new 0 0 300 300" height="512" viewBox="0 0 300 300" width="512" xmlns="http://www.w3.org/2000/svg"><g><path d="m9.638 206.404v2.641c0 12.762 6.263 24.062 15.849 31.077v21.071c0 3.753 3.048 6.805 6.794 6.805h33.959c3.746 0 6.794-3.053 6.794-6.805v-21.072c9.585-7.016 15.848-18.315 15.848-31.077v-2.317c4.993-.007 9.053-4.07 9.053-9.083 0-4.925-3.953-8.926-8.85-9.044l6.348-55.786c.143-.296.237-.619.237-.97 0-.175-.062-.33-.1-.494.488-5.61-1.339-11.196-5.093-15.401-3.854-4.318-9.377-6.795-15.153-6.795h-49.865c-5.777 0-11.299 2.476-15.153 6.793-3.753 4.204-5.58 9.787-5.095 15.396-.039.166-.101.324-.101.501 0 .352.096.676.24.973l6.349 55.783c-4.899.117-8.853 4.119-8.853 9.06 0 4.211 2.896 7.727 6.792 8.744zm58.862 54.789c0 1.253-1.014 2.272-2.261 2.272h-33.959c-1.247 0-2.261-1.02-2.261-2.272v-18.178c5.413 2.904 11.59 4.561 18.151 4.561h2.177c6.561 0 12.739-1.657 18.152-4.561v18.178zm15.847-52.148c0 18.747-15.252 33.998-34 33.998h-2.177c-18.748 0-34-15.251-34-33.998v-2.315h70.177zm-68.088-20.465-6.199-54.468h80.663l-6.198 54.468zm-2.571-69.612c2.995-3.355 7.285-5.279 11.771-5.279h49.864c4.486 0 8.777 1.925 11.771 5.28 2.614 2.929 4.035 6.717 4.035 10.61h-81.477c0-3.894 1.422-7.683 4.036-10.611zm-1.774 74.145h76.955c2.499 0 4.532 2.033 4.532 4.549 0 2.5-2.033 4.534-4.532 4.534h-76.955c-2.5 0-4.535-2.034-4.535-4.551 0-2.499 2.035-4.532 4.535-4.532z"/><path d="m208.857 45.754c-10.172 1.143-18.109 9.789-18.109 20.262v6.827c0 1.252 1.015 2.267 2.267 2.267h49.804c1.252 0 2.267-1.015 2.267-2.267v-6.827c0-10.473-7.937-19.12-18.111-20.263v-6.948c0-10.011 8.124-18.157 18.109-18.157s18.108 8.145 18.108 18.157v127.081h-47.535v-.003c0-6.255-5.079-11.343-11.321-11.343h-61.126c-6.242 0-11.321 5.089-11.321 11.343v.004h-21.504c-6.867 0-12.455 5.598-12.455 12.478 0 5.699 3.838 10.506 9.056 11.993v11.833c0 21.545 14.343 39.787 33.958 45.661v9.936c0 5.629 4.571 10.21 10.191 10.21 5.619 0 10.189-4.58 10.189-10.21v-7.943h72.438v7.943c0 5.629 4.571 10.21 10.191 10.21 5.619 0 10.189-4.58 10.189-10.21v-9.936c19.615-5.875 33.958-24.116 33.958-45.661v-11.834c5.218-1.487 9.054-6.294 9.054-11.993 0-6.881-5.586-12.479-12.453-12.479h-3.393v-127.079c0-20.019-16.25-36.306-36.225-36.306s-36.225 16.287-36.225 36.306v6.948zm31.695 20.263v4.561h-45.271v-4.561c0-8.749 7.117-15.867 15.865-15.867h13.539c8.749 0 15.867 7.118 15.867 15.867zm-36.217 93.056c3.743 0 6.788 3.055 6.788 6.81v.003h-13.578v-.003c0-3.755 3.046-6.81 6.79-6.81zm-67.914 54.463h56.591v4.542c0 3.757-3.046 6.812-6.791 6.812h-43.013c-3.743 0-6.788-3.056-6.788-6.812v-4.542zm0-47.652c0-3.756 3.045-6.81 6.788-6.81h52.077c-1.427 1.897-2.273 4.257-2.273 6.81v2.265c0 .002-.001.003-.001.005s.001.003.001.005v40.844h-56.591v-43.119zm-33.959 12.482c0-4.381 3.553-7.945 7.922-7.945h21.504v15.889h-21.504c-4.369 0-7.922-3.564-7.922-7.944zm54.328 79.423c0 3.13-2.537 5.677-5.656 5.677-3.12 0-5.658-2.546-5.658-5.677v-8.82c2.933.569 5.957.877 9.052.877h2.262zm92.818 0c0 3.13-2.537 5.677-5.656 5.677-3.12 0-5.658-2.546-5.658-5.677v-7.943h2.26c3.096 0 6.121-.308 9.054-.877zm33.958-55.597c0 23.776-19.295 43.121-43.012 43.121h-86.026c-23.716 0-43.01-19.344-43.01-43.121v-11.349h20.369v27.235c0 6.256 5.079 11.345 11.321 11.345h43.013c6.244 0 11.324-5.09 11.324-11.345v-27.235h86.021zm9.054-23.826c0 4.38-3.552 7.944-7.92 7.944h-87.156v-15.89h87.156c4.368 0 7.92 3.564 7.92 7.946zm-47.538-171.333c17.474 0 31.692 14.253 31.692 31.773v127.081h-9.05v-127.081c0-12.512-10.157-22.69-22.641-22.69-12.485 0-22.642 10.178-22.642 22.69v6.811h-9.051v-6.811c0-17.52 14.217-31.773 31.692-31.773z"/><path d="m202.949 118.157c.454.046.917.07 1.386.07.466 0 .928-.024 1.385-.07 4.122-.42 7.614-2.82 9.581-6.585 2.066-3.954 2.018-8.626-.129-12.5l-8.855-15.979c-.4-.72-1.158-1.168-1.983-1.168-.824 0-1.583.447-1.983 1.167l-8.857 15.98c-2.148 3.872-2.197 8.545-.132 12.499 1.968 3.766 5.462 6.166 9.587 6.586zm-5.489-16.886 6.875-12.404 6.872 12.403c1.407 2.537 1.435 5.604.077 8.203-1.249 2.39-3.444 3.912-6.021 4.175-.612.061-1.253.061-1.856 0-2.58-.263-4.775-1.785-6.025-4.176-1.359-2.599-1.329-5.666.078-8.201z"/><path d="m232.488 140.85c.455.046.917.07 1.384.07.468 0 .931-.024 1.387-.07 4.122-.42 7.614-2.82 9.581-6.585 2.066-3.954 2.018-8.626-.129-12.5l-8.857-15.98c-.4-.721-1.159-1.168-1.983-1.168s-1.583.447-1.983 1.167l-8.858 15.98c-2.147 3.873-2.195 8.546-.129 12.5 1.969 3.766 5.462 6.166 9.587 6.586zm-5.491-16.887 6.875-12.404 6.874 12.403c1.407 2.537 1.435 5.604.077 8.203-1.249 2.39-3.444 3.912-6.021 4.175-.611.061-1.252.061-1.856 0-2.58-.263-4.775-1.785-6.025-4.175-1.359-2.599-1.331-5.665.076-8.202z"/><path d="m111.517 88.736v-45.397c0-3.75-3.05-6.8-6.8-6.8h-95.071c-3.749 0-6.798 3.05-6.798 6.8v45.397c0 3.75 3.049 6.8 6.798 6.8h47.532c.002 0 .003.001.005.001s.003-.001.005-.001h47.53c3.749-.001 6.799-3.051 6.799-6.8zm-4.533-45.397v45.397c0 1.25-1.017 2.267-2.267 2.267h-45.268v-49.93h45.269c1.249-.001 2.266 1.016 2.266 2.266zm-99.603 45.397v-45.397c0-1.25 1.016-2.267 2.265-2.267h45.271v49.93h-45.271c-1.249 0-2.265-1.017-2.265-2.266z"/><path d="m153.863 54.694h-9.988c-2.068 0-5.196 1.755-5.196 4.402v16.304c-4.671 3.242-9.056 9.407-9.056 16.734v48.791h-13.58c-1.252 0-2.267 1.015-2.267 2.267s1.015 2.267 2.267 2.267h79.235c1.252 0 2.267-1.015 2.267-2.267s-1.015-2.267-2.267-2.267h-15.844v-27.261c0-6.717-4.905-12.296-11.319-13.38v-8.15c0-7.327-4.384-13.491-9.054-16.734v-16.305c-.001-2.646-3.129-4.401-5.198-4.401zm21.037 58.97v27.261h-18.106v-27.261c0-4.99 4.062-9.051 9.054-9.051 4.991-.001 9.052 4.06 9.052 9.051zm-11.319-21.53v8.15c-6.415 1.084-11.32 6.663-11.32 13.379v27.261h-18.106v-48.79c0-6.088 4.117-11.288 7.941-13.545.691-.407 1.115-1.15 1.115-1.952v-17.112c.2-.139.509-.283.663-.298l9.964-.001c.171.017.486.16.688.3v17.11c0 .802.424 1.544 1.114 1.952 3.826 2.258 7.941 7.459 7.941 13.546z"/><path d="m290.354 272.545h-280.706c-3.75 0-6.801 3.05-6.801 6.8v11.355c0 3.75 3.051 6.8 6.801 6.8h280.707c3.75 0 6.8-3.05 6.8-6.8v-11.356c-.001-3.749-3.051-6.799-6.801-6.799zm2.267 18.155c0 1.25-1.017 2.267-2.267 2.267h-280.706c-1.251 0-2.268-1.017-2.268-2.267v-11.356c0-1.25 1.017-2.267 2.268-2.267h280.707c1.25 0 2.267 1.017 2.267 2.267v11.356z"/><path d="m9.643 27.457h192.239c1.252 0 2.267-1.015 2.267-2.267s-1.015-2.267-2.267-2.267h-192.239c-1.248 0-2.263-1.02-2.263-2.272v-11.346c0-1.253 1.015-2.272 2.263-2.272h206.01c1.252 0 2.267-1.015 2.267-2.267s-1.016-2.266-2.267-2.266h-206.01c-3.747 0-6.796 3.053-6.796 6.805v11.346c0 3.753 3.049 6.806 6.796 6.806z"/></g></svg>