<svg id="Capa_1" enable-background="new 0 0 512 512" height="512" viewBox="0 0 512 512" width="512" xmlns="http://www.w3.org/2000/svg"><path d="m497.463 410.354c4.143 0 7.5-3.357 7.5-7.5v-208.457c0-19.511-15.873-35.385-35.385-35.385h-.015v-20.277c0-13.79-11.219-25.009-25.009-25.009h-5.999v-37.368c0-5.672-1.965-11.041-5.566-15.336-.007-.008-.014-.016-.021-.025-.449-.534-.919-1.054-1.417-1.553l-52.439-52.44c-.504-.504-1.029-.979-1.569-1.431-.001 0-.001-.001-.002-.002-4.297-3.604-9.668-5.571-15.344-5.571h-170.299c-13.188 0-23.918 10.73-23.918 23.919v29.018c0 4.143 3.357 7.5 7.5 7.5s7.5-3.357 7.5-7.5v-29.018c0-4.918 4.001-8.919 8.918-8.919h169.6v43.308c0 10.339 8.411 18.75 18.75 18.75h43.308v81.955h-240.576v-71.014c0-4.143-3.357-7.5-7.5-7.5s-7.5 3.357-7.5 7.5v25.728h-6c-13.79 0-25.009 11.219-25.009 25.009v20.277h-12.181c-3.288-18.188-19.226-32.031-38.347-32.031h-40.426c-21.493 0-38.979 17.486-38.979 38.979v307.06c-.001 21.493 17.485 38.979 38.979 38.979h40.427c13.703 0 25.769-7.114 32.721-17.837h350.413c19.511 0 35.385-15.874 35.385-35.385v-20.862c0-4.143-3.357-7.5-7.5-7.5s-7.5 3.357-7.5 7.5v20.862c0 11.24-9.145 20.385-20.385 20.385h-344.643c.318-2.002.488-4.052.488-6.143v-299.007h344.155c11.24 0 20.385 9.145 20.385 20.385v208.456c0 4.142 3.357 7.5 7.5 7.5zm-120.965-352.046v-32.701l36.45 36.451h-32.7c-2.067 0-3.75-1.683-3.75-3.75zm62.058 70.419h5.999c5.519 0 10.009 4.49 10.009 10.009v20.277h-16.008zm-286.584 10.008c0-5.519 4.49-10.009 10.009-10.009h6v30.286h-16.009zm-65.529 358.265h-40.426c-13.223 0-23.979-10.757-23.979-23.979v-307.06c0-13.223 10.757-23.979 23.979-23.979h40.427c13.223 0 23.979 10.757 23.979 23.979v307.06c0 13.222-10.757 23.979-23.98 23.979z"/><path d="m430.129 211.811c0-8.361-6.803-15.164-15.164-15.164h-224.806c-8.361 0-15.164 6.803-15.164 15.164v28.639c0 8.361 6.803 15.164 15.164 15.164h224.806c8.361 0 15.164-6.803 15.164-15.164zm-15 28.638c0 .091-.073.164-.164.164h-224.806c-.091 0-.164-.073-.164-.164v-28.639c0-.092.072-.164.164-.164h224.806c.091 0 .164.073.164.164z"/><path d="m239.502 285.294c0-8.963-7.292-16.255-16.256-16.255h-31.996c-8.963 0-16.255 7.292-16.255 16.255v23.839c0 8.964 7.292 16.256 16.255 16.256h31.996c8.964 0 16.256-7.292 16.256-16.256zm-15 23.839c0 .692-.563 1.256-1.256 1.256h-31.996c-.692 0-1.255-.563-1.255-1.256v-23.839c0-.692.563-1.255 1.255-1.255h31.996c.692 0 1.256.563 1.256 1.255z"/><path d="m334.815 285.294c0-8.963-7.292-16.255-16.256-16.255h-31.996c-8.963 0-16.255 7.292-16.255 16.255v23.839c0 8.964 7.292 16.256 16.255 16.256h31.996c8.964 0 16.256-7.292 16.256-16.256zm-15 23.839c0 .692-.563 1.256-1.256 1.256h-31.996c-.692 0-1.255-.563-1.255-1.256v-23.839c0-.692.563-1.255 1.255-1.255h31.996c.692 0 1.256.563 1.256 1.255z"/><path d="m430.129 285.294c0-8.963-7.292-16.255-16.256-16.255h-31.996c-8.963 0-16.255 7.292-16.255 16.255v23.839c0 8.964 7.292 16.256 16.255 16.256h31.996c8.964 0 16.256-7.292 16.256-16.256zm-15 23.839c0 .692-.563 1.256-1.256 1.256h-31.996c-.692 0-1.255-.563-1.255-1.256v-23.839c0-.692.563-1.255 1.255-1.255h31.996c.692 0 1.256.563 1.256 1.255z"/><path d="m239.502 346.88c0-8.964-7.292-16.256-16.256-16.256h-31.996c-8.963 0-16.255 7.292-16.255 16.256v23.839c0 8.964 7.292 16.256 16.255 16.256h31.996c8.964 0 16.256-7.292 16.256-16.256zm-15 23.839c0 .692-.563 1.256-1.256 1.256h-31.996c-.692 0-1.255-.563-1.255-1.256v-23.839c0-.692.563-1.256 1.255-1.256h31.996c.692 0 1.256.563 1.256 1.256z"/><path d="m334.815 346.88c0-8.964-7.292-16.256-16.256-16.256h-31.996c-8.963 0-16.255 7.292-16.255 16.256v23.839c0 8.964 7.292 16.256 16.255 16.256h31.996c8.964 0 16.256-7.292 16.256-16.256zm-15 23.839c0 .692-.563 1.256-1.256 1.256h-31.996c-.692 0-1.255-.563-1.255-1.256v-23.839c0-.692.563-1.256 1.255-1.256h31.996c.692 0 1.256.563 1.256 1.256z"/><path d="m430.129 346.88c0-8.964-7.292-16.256-16.256-16.256h-31.996c-8.963 0-16.255 7.292-16.255 16.256v23.839c0 8.964 7.292 16.256 16.255 16.256h31.996c8.964 0 16.256-7.292 16.256-16.256zm-15 23.839c0 .692-.563 1.256-1.256 1.256h-31.996c-.692 0-1.255-.563-1.255-1.256v-23.839c0-.692.563-1.256 1.255-1.256h31.996c.692 0 1.256.563 1.256 1.256z"/><path d="m223.246 392.21h-31.996c-8.963 0-16.255 7.292-16.255 16.256v23.839c0 8.964 7.292 16.256 16.255 16.256h31.996c8.964 0 16.256-7.292 16.256-16.256v-23.839c0-8.964-7.292-16.256-16.256-16.256zm1.256 40.095c0 .692-.563 1.256-1.256 1.256h-31.996c-.692 0-1.255-.563-1.255-1.256v-23.839c0-.692.563-1.256 1.255-1.256h31.996c.692 0 1.256.563 1.256 1.256z"/><path d="m318.56 392.21h-31.996c-8.963 0-16.255 7.292-16.255 16.256v23.839c0 8.964 7.292 16.256 16.255 16.256h31.996c8.964 0 16.256-7.292 16.256-16.256v-23.839c-.001-8.964-7.293-16.256-16.256-16.256zm1.255 40.095c0 .692-.563 1.256-1.256 1.256h-31.996c-.692 0-1.255-.563-1.255-1.256v-23.839c0-.692.563-1.256 1.255-1.256h31.996c.692 0 1.256.563 1.256 1.256z"/><path d="m413.873 392.21h-31.996c-8.963 0-16.255 7.292-16.255 16.256v23.839c0 8.964 7.292 16.256 16.255 16.256h31.996c8.964 0 16.256-7.292 16.256-16.256v-23.839c0-8.964-7.292-16.256-16.256-16.256zm1.256 40.095c0 .692-.563 1.256-1.256 1.256h-31.996c-.692 0-1.255-.563-1.255-1.256v-23.839c0-.692.563-1.256 1.255-1.256h31.996c.692 0 1.256.563 1.256 1.256z"/></svg>