<svg id="Layer_1" enable-background="new 0 0 512 512" viewBox="0 0 512 512" xmlns="http://www.w3.org/2000/svg"><path d="m485.519 66.771h-459.037c-14.05 0-25.482 11.431-25.482 25.481v327.495c0 14.051 11.432 25.482 25.482 25.482h459.036c14.051 0 25.481-11.431 25.481-25.482v-327.495c.001-14.05-11.43-25.481-25.48-25.481zm9.481 352.976c0 5.229-4.253 9.482-9.481 9.482h-459.037c-5.229 0-9.482-4.253-9.482-9.482v-327.495c0-5.228 4.254-9.481 9.482-9.481h459.036c5.229 0 9.481 4.253 9.481 9.481v327.495zm-129.015-322.976h-326.985c-4.418 0-8 3.582-8 8v227.879c0 4.418 3.582 8 8 8h326.985c4.418 0 8-3.582 8-8v-227.879c0-4.418-3.582-8-8-8zm-8 227.879h-310.985v-211.879h310.985zm-232.219-13.353h153.454c4.418 0 8-3.582 8-8 0-36.054-22.646-66.901-54.453-79.114 11.666-9.058 19.194-23.203 19.194-39.081 0-27.277-22.191-49.468-49.469-49.468-27.276 0-49.468 22.191-49.468 49.468 0 15.878 7.528 30.023 19.193 39.081-31.807 12.213-54.452 43.06-54.452 79.114.001 4.418 3.583 8 8.001 8zm43.258-126.195c0-18.455 15.014-33.468 33.468-33.468 18.455 0 33.469 15.014 33.469 33.468s-15.014 33.468-33.469 33.468c-18.454 0-33.468-15.014-33.468-33.468zm33.468 49.468c35.19 0 64.288 26.586 68.265 60.727h-136.528c3.976-34.141 33.074-60.727 68.263-60.727zm.001 114.976c-19.516 0-35.394 15.877-35.394 35.393s15.878 35.393 35.394 35.393 35.393-15.877 35.393-35.393-15.877-35.393-35.393-35.393zm0 54.787c-10.693 0-19.394-8.7-19.394-19.393s8.7-19.393 19.394-19.393 19.393 8.7 19.393 19.393-8.699 19.393-19.393 19.393zm133.935-41.819h-47.326c-12.365 0-22.426 10.06-22.426 22.426s10.061 22.426 22.426 22.426h47.326c12.365 0 22.426-10.06 22.426-22.426s-10.061-22.426-22.426-22.426zm0 28.851h-47.326c-3.543 0-6.426-2.882-6.426-6.426s2.883-6.426 6.426-6.426h47.326c3.543 0 6.426 2.882 6.426 6.426s-2.883 6.426-6.426 6.426zm-220.544-28.851h-47.326c-12.365 0-22.426 10.06-22.426 22.426s10.061 22.426 22.426 22.426h47.326c12.365 0 22.426-10.06 22.426-22.426s-10.061-22.426-22.426-22.426zm0 28.851h-47.326c-3.543 0-6.426-2.882-6.426-6.426s2.883-6.426 6.426-6.426h47.326c3.543 0 6.426 2.882 6.426 6.426s-2.883 6.426-6.426 6.426zm269.987-238.072c0-4.418 3.582-8 8-8h10.162c4.418 0 8 3.582 8 8s-3.582 8-8 8h-10.162c-4.418 0-8-3.582-8-8zm0 30.942c0-4.418 3.582-8 8-8h10.162c4.418 0 8 3.582 8 8s-3.582 8-8 8h-10.162c-4.418 0-8-3.581-8-8zm0-61.884c0-4.418 3.582-8 8-8h10.162c4.418 0 8 3.582 8 8s-3.582 8-8 8h-10.162c-4.418 0-8-3.581-8-8zm97.243 30.942c0 4.418-3.582 8-8 8h-10.161c-4.418 0-8-3.582-8-8s3.582-8 8-8h10.161c4.418 0 8 3.582 8 8zm-97.243 61.885c0-4.418 3.582-8 8-8h10.162c4.418 0 8 3.582 8 8s-3.582 8-8 8h-10.162c-4.418 0-8-3.582-8-8zm97.243-30.943c0 4.418-3.582 8-8 8h-10.161c-4.418 0-8-3.582-8-8s3.582-8 8-8h10.161c4.418 0 8 3.582 8 8zm0-61.884c0 4.418-3.582 8-8 8h-10.161c-4.418 0-8-3.582-8-8s3.582-8 8-8h10.161c4.418 0 8 3.582 8 8zm0 92.827c0 4.418-3.582 8-8 8h-10.161c-4.418 0-8-3.582-8-8s3.582-8 8-8h10.161c4.418 0 8 3.581 8 8zm-61.702-61.885c0-4.418 3.582-8 8-8h10.161c4.418 0 8 3.582 8 8s-3.582 8-8 8h-10.161c-4.418 0-8-3.582-8-8zm0-30.942c0-4.418 3.582-8 8-8h10.161c4.418 0 8 3.582 8 8s-3.582 8-8 8h-10.161c-4.418 0-8-3.581-8-8zm0 61.884c0-4.418 3.582-8 8-8h10.161c4.418 0 8 3.582 8 8s-3.582 8-8 8h-10.161c-4.418 0-8-3.581-8-8zm0 30.943c0-4.418 3.582-8 8-8h10.161c4.418 0 8 3.582 8 8s-3.582 8-8 8h-10.161c-4.418 0-8-3.582-8-8zm51.588 32h-77.015c-4.418 0-8 3.582-8 8v57.472c0 4.418 3.582 8 8 8h77.015c4.418 0 8-3.582 8-8v-57.472c0-4.419-3.582-8-8-8zm-8 57.472h-61.015v-41.472h61.015z"/></svg>