<svg enable-background="new 0 0 512 512" viewBox="0 0 512 512" xmlns="http://www.w3.org/2000/svg"><g id="_x31_4_Double-glazed"><g><path d="m56.748 395.277c.005 1.723.924 3.316 2.413 4.184l41.054 23.857c.004.003.01.003.014.006.002.001.003.003.005.004 1.467.844 3.323.882 4.85-.002l92.679-53.508.298 105.059c.005 1.723.924 3.316 2.413 4.184l41.054 23.859c.004.003.01.003.014.006.002.001.003.003.005.004 1.34.771 3.223.94 4.85-.002l207.173-119.612c1.508-.87 2.432-2.479 2.427-4.219l-.744-262.368c-.005-1.517-.875-3.287-2.413-4.184l-41.058-23.857c-1.503-.875-3.361-.877-4.864-.007l-92.679 53.508-.299-105.062c-.005-1.517-.875-3.287-2.413-4.184l-41.059-23.856c-1.503-.875-3.361-.877-4.864-.007l-207.173 119.609c-1.579.911-2.423 2.695-2.427 4.198 0 .004.001.007.001.011s-.001.007-.001.011zm8.988-253.933 31.334 18.208.708 251.117-31.33-18.204zm188.121 30.399-13.454-13.454c-1.896-1.896-4.968-1.896-6.864 0s-1.896 4.968 0 6.864l13.454 13.454c.611.611 1.358.952 2.134 1.169l-8.473 4.892-31.349-31.347c-1.896-1.896-4.968-1.896-6.864 0s-1.896 4.968 0 6.864l29.51 29.508-32.207 18.595c-1.579.911-2.423 2.695-2.427 4.198 0 .004.001.007.001.011s-.001.007-.001.011l.072 25.247-2.646-2.646c-1.896-1.896-4.968-1.896-6.864 0s-1.896 4.968 0 6.864l9.549 9.549.035 12.433-33.819-33.815c-1.896-1.896-4.968-1.896-6.864 0s-1.896 4.968 0 6.864l40.722 40.718.124 43.596-57.935 33.449-.498-176.563 132.86-76.708.183 64.939-17.186 9.922c.405-1.602.062-3.358-1.193-4.614zm-46.808 49.202 31.329 18.208.712 251.118-31.33-18.206zm41.75 269.383-.711-251.177 197.479-114.015.711 251.176zm160.536-391.834 31.378 18.232-197.48 114.016-31.376-18.235zm-127.407 62.346-.192-67.752c-.005-1.73-.934-3.33-2.432-4.193-1.503-.868-3.356-.863-4.85.002l-142.554 82.306c-1.508.87-2.432 2.479-2.427 4.219l.531 187.754c.005 1.73.934 3.33 2.432 4.193s3.355.863 4.85-.002l60.371-34.855.074 26.113-90.244 52.102c-.206-73.32-.489-174.037-.706-251.174l197.474-114.016.289 102.246zm-13.906-141.945 31.378 18.232-197.475 114.016-31.382-18.234z"/><path d="m423.049 172.689c-.005-1.73-.934-3.33-2.432-4.193-1.498-.865-3.352-.863-4.85.002l-142.554 82.304c-1.508.87-2.432 2.479-2.427 4.219l.531 187.754c.005 1.73.934 3.33 2.432 4.193s3.355.863 4.85-.002l142.554-82.304c1.508-.87 2.432-2.479 2.427-4.219zm-142.047 261.679-.498-176.563 132.86-76.708.498 176.563z"/><path d="m388.305 258.207c1.896 1.896 4.968 1.896 6.864 0s1.896-4.971 0-6.864l-13.459-13.454c-1.896-1.896-4.968-1.896-6.864 0s-1.896 4.971 0 6.864z"/><path d="m350.613 232.921c-1.896-1.896-4.968-1.896-6.864 0s-1.896 4.968 0 6.864l49.525 49.52c1.896 1.896 4.968 1.896 6.864 0s1.896-4.968 0-6.864z"/><path d="m342.644 335.029c1.896 1.896 4.968 1.896 6.864 0 1.896-1.894 1.896-4.968 0-6.864l-13.454-13.456c-1.896-1.896-4.968-1.896-6.864 0-1.896 1.894-1.896 4.968 0 6.864z"/><path d="m304.956 309.74c-1.896-1.896-4.968-1.896-6.864 0s-1.896 4.968 0 6.864l49.52 49.52c1.896 1.896 4.968 1.896 6.864 0s1.896-4.968 0-6.864z"/></g></g><g id="Layer_1"/></svg>