<svg id="Layer_1" viewBox="0 0 64 64" xmlns="http://www.w3.org/2000/svg" data-name="Layer 1"><path d="m3.25 56.02h1.78v4.97c0 .552.447 1 1 1h51.94c.553 0 1-.448 1-1v-4.97h1.78c.553 0 1-.448 1-1v-4.99c0-.552-.447-1-1-1h-1.78v-16.02h.32c.553 0 1-.448 1-1v-21.43h.46c.553 0 1-.448 1-1v-6.58c0-.552-.447-1-1-1h-57.5c-.553 0-1 .448-1 1v6.58c0 .552.447 1 1 1h.56v21.43c0 .552.447 1 1 1h.221v16.02h-1.78c-.553 0-1 .448-1 1v4.99c0 .552.447 1 1 1zm53.72-6.99h-2.04v-16.02h2.04zm-51.16-24.99h52.48v2.48h-52.48zm52.48-2h-52.48v-2.49h52.48zm-52.48 8.97v-2.49h52.48v2.49zm5.261 2h19.929v16.02h-19.93v-16.02zm21.93 0h19.93v16.02h-19.93zm-28.751-29.01h55.5v4.58h-55.5zm54.04 6.58v2.485h-41.677c-.553 0-1 .448-1 1s.447 1 1 1h41.677v2.485h-52.48v-2.485h3.255c.553 0 1-.448 1-1s-.447-1-1-1h-3.255v-2.485zm-51.26 22.43h2.04v16.02h-2.04zm-2.78 18.02h55.5v2.99h-40.524c-.553 0-1 .448-1 1s.447 1 1 1h37.744v3.97h-49.94v-3.97h4.26c.553 0 1-.448 1-1s-.447-1-1-1h-7.04z"/><path d="m24.049 35.306c-.391-.391-1.023-.391-1.414 0l-6.252 6.252c-.391.391-.391 1.023 0 1.414.195.195.451.293.707.293s.512-.098.707-.293l6.252-6.252c.391-.391.391-1.023 0-1.414z"/><path d="m24.364 39.535c-.391-.391-1.023-.391-1.414 0l-2.34 2.339c-.391.39-.391 1.023 0 1.414.195.195.451.293.707.293s.512-.098.707-.293l2.34-2.339c.391-.39.391-1.023 0-1.414z"/><path d="m14.968 56.02h.839c.553 0 1-.448 1-1s-.447-1-1-1h-.839c-.553 0-1 .448-1 1s.447 1 1 1z"/><path d="m12.419 15.065h.874c.553 0 1-.448 1-1s-.447-1-1-1h-.874c-.553 0-1 .448-1 1s.447 1 1 1z"/></svg>