<svg id="Capa_1" enable-background="new 0 0 512 512" height="512" viewBox="0 0 512 512" width="512" xmlns="http://www.w3.org/2000/svg"><g><path d="m504.5 0h-36.506c-4.142 0-7.5 3.358-7.5 7.5v32.416h-187.494c-4.142 0-7.5 3.358-7.5 7.5s3.358 7.5 7.5 7.5h187.494v17.413h-408.988v-17.413h186.494c4.142 0 7.5-3.358 7.5-7.5s-3.358-7.5-7.5-7.5h-186.494v-32.416c0-4.142-3.358-7.5-7.5-7.5h-36.506c-4.142 0-7.5 3.358-7.5 7.5v497c0 4.142 3.358 7.5 7.5 7.5h36.506c4.142 0 7.5-3.358 7.5-7.5v-32.416h408.988v32.416c0 4.142 3.358 7.5 7.5 7.5h36.506c4.142 0 7.5-3.358 7.5-7.5v-497c0-4.142-3.358-7.5-7.5-7.5zm-44.006 87.329v145.265h-27.456v-99.97c0-4.142-3.358-7.5-7.5-7.5h-8.564v-18.773c0-4.142-3.358-7.5-7.5-7.5h-26c-4.142 0-7.5 3.358-7.5 7.5v18.773h-8.564c-4.142 0-7.5 3.358-7.5 7.5v99.97h-20v-99.97c0-4.142-3.358-7.5-7.5-7.5h-8.564v-18.773c0-4.142-3.358-7.5-7.5-7.5h-26c-4.142 0-7.5 3.358-7.5 7.5v18.773h-8.564c-4.142 0-7.5 3.358-7.5 7.5v99.97h-20v-99.97c0-4.142-3.358-7.5-7.5-7.5h-8.564v-18.773c0-4.142-3.358-7.5-7.5-7.5h-26c-4.142 0-7.5 3.358-7.5 7.5v18.773h-8.564c-4.142 0-7.5 3.358-7.5 7.5v99.97h-20v-34.594c0-4.142-3.358-7.5-7.5-7.5s-7.5 3.358-7.5 7.5v34.594h-43.128v-92.47h43.128v22.876c0 4.142 3.358 7.5 7.5 7.5s7.5-3.358 7.5-7.5v-30.376c0-4.142-3.358-7.5-7.5-7.5h-8.564v-18.773c0-4.142-3.358-7.5-7.5-7.5h-26c-4.142 0-7.5 3.358-7.5 7.5v18.773h-8.564c-4.142 0-7.5 3.358-7.5 7.5v99.97h-29.02v-145.265zm-85.583 145.265v-92.47h43.128v92.47zm27.064-107.47h-11v-11.273h11zm-120.193 107.47v-92.47h43.128v92.47zm27.064-107.47h-11v-11.273h11zm-120.192 107.47v-92.47h43.128v92.47zm27.064-107.47h-11v-11.273h11zm-93.128 0h-11v-11.273h11zm-86.084 371.876h-21.506v-482h21.506v328c0 4.142 3.358 7.5 7.5 7.5s7.5-3.358 7.5-7.5v-62.993h320.494c4.142 0 7.5-3.358 7.5-7.5s-3.358-7.5-7.5-7.5h-320.494v-17.413h408.988v17.413h-53.494c-4.142 0-7.5 3.358-7.5 7.5s3.358 7.5 7.5 7.5h53.494v144.664h-36.096l.036-51.47c-.043-2.617-.458-5.237-2.33-9.227l-8.926-15.702c-.936-3.89-2.591-21.681-3.635-36.556-.275-3.929-3.543-6.975-7.481-6.975h-24.472c-3.938 0-7.206 3.046-7.481 6.975-1.044 14.875-2.7 32.667-3.636 36.556l-8.926 15.703c-.97 1.955-2.251 5.117-2.33 9.232l.036 51.465h-20.072l.036-51.47c-.042-2.617-.458-5.237-2.329-9.227l-8.926-15.703c-.936-3.89-2.592-21.681-3.636-36.556-.275-3.929-3.543-6.975-7.481-6.975h-24.472c-3.938 0-7.206 3.046-7.481 6.975-1.044 14.875-2.7 32.667-3.636 36.556l-8.926 15.703c-.969 1.956-2.252 5.118-2.329 9.232l.036 51.465h-20.072l.036-51.47c-.043-2.617-.459-5.238-2.329-9.227l-8.926-15.703c-.936-3.89-2.592-21.681-3.636-36.556-.275-3.929-3.543-6.975-7.481-6.975h-24.472c-3.938 0-7.206 3.046-7.481 6.975-1.044 14.875-2.7 32.667-3.636 36.556l-8.926 15.703c-.969 1.955-2.252 5.117-2.329 9.232l.036 51.465h-20.072l.036-51.47c-.043-2.617-.458-5.237-2.33-9.227l-8.926-15.703c-.936-3.89-2.592-21.681-3.636-36.556-.275-3.929-3.543-6.975-7.481-6.975h-24.472c-3.938 0-7.206 3.046-7.481 6.975-1.044 14.875-2.7 32.667-3.635 36.556l-8.926 15.703c-.969 1.955-2.251 5.117-2.33 9.232l.036 51.465h-36.098v-46.672c0-4.142-3.358-7.5-7.5-7.5s-7.5 3.358-7.5 7.5zm333.747-72.329-.031-44.671h39.208l-.031 44.671zm3.964-59.671 5.617-9.881c.784-1.378 2.36-4.146 4.728-35.378h10.526c2.369 31.232 3.944 34 4.727 35.376l5.618 9.883zm-93.181 59.671-.031-44.671h39.207l-.031 44.671zm3.964-59.671 5.617-9.881c.784-1.378 2.36-4.146 4.729-35.378h10.525c2.369 31.232 3.944 34 4.728 35.376l5.618 9.883zm-93.181 59.671-.031-44.671h39.207l-.031 44.671zm3.965-59.671 5.617-9.881c.784-1.378 2.36-4.146 4.729-35.378h10.525c2.369 31.232 3.944 34 4.728 35.376l5.617 9.883zm-93.182 59.671-.031-44.671h39.208l-.031 44.671zm3.965-59.671 5.617-9.882c.784-1.378 2.359-4.146 4.728-35.377h10.526c2.369 31.232 3.944 34 4.728 35.376l5.618 9.883zm-55.061 92.084v-17.413h408.988v17.413zm445.494 39.916h-21.506v-482h21.506z"/><path d="m117.09 163.859c-4.142 0-7.5 3.358-7.5 7.5v30c0 4.142 3.358 7.5 7.5 7.5s7.5-3.358 7.5-7.5v-30c0-4.142-3.358-7.5-7.5-7.5z"/><path d="m210.218 163.859c-4.142 0-7.5 3.358-7.5 7.5v30c0 4.142 3.358 7.5 7.5 7.5s7.5-3.358 7.5-7.5v-30c0-4.142-3.358-7.5-7.5-7.5z"/><path d="m303.346 163.859c-4.142 0-7.5 3.358-7.5 7.5v30c0 4.142 3.358 7.5 7.5 7.5s7.5-3.358 7.5-7.5v-30c0-4.142-3.358-7.5-7.5-7.5z"/><path d="m396.475 163.859c-4.142 0-7.5 3.358-7.5 7.5v30c0 4.142 3.358 7.5 7.5 7.5s7.5-3.358 7.5-7.5v-30c0-4.142-3.358-7.5-7.5-7.5z"/></g></svg>