<svg id="Layer_1" enable-background="new 0 0 512 512" viewBox="0 0 512 512" xmlns="http://www.w3.org/2000/svg"><path d="m511.53 292.55c-.96-3.58-3.26-6.56-6.44-8.38l-77.19-44.59c-6.79-3.92-15.28-3.04-21.1 2.18-8.63 7.71-22.46 12.31-36.99 12.31-9.22 0-18.15-1.86-25.67-5.2v-159.96c0-16.48-13.41-29.89-29.89-29.89h-284.37c-16.48 0-29.89 13.41-29.89 29.89v306.25c0 16.48 13.41 29.89 29.89 29.89h258.87v14.1c0 7.62 6.2 13.82 13.82 13.82h134.48c7.63 0 13.85-6.2 13.85-13.82v-100.41l16.99 9.81c2.13 1.24 4.51 1.88 6.91 1.88 1.2 0 2.41-.16 3.6-.48 3.56-.95 6.54-3.23 8.41-6.44l23.31-40.42c1.88-3.22 2.37-6.96 1.41-10.54zm-111.03-28.38c-2.77 14.41-15.47 25.33-30.69 25.33-15.2 0-27.89-10.92-30.66-25.33 9.18 3.83 19.7 5.91 30.66 5.91 10.97.01 21.5-2.08 30.69-5.91zm-384.49-175.26c0-7.65 6.22-13.88 13.88-13.88h284.37c7.65 0 13.88 6.22 13.88 13.88v41.2h-312.13zm13.87 320.13c-7.65 0-13.88-6.22-13.88-13.88v-249.03h312.12v92.59c-5.19-2.31-11.27-2.08-16.38.86l-23.69 13.68c-5.08-24.35-17.75-46.56-36.42-63.49-21.83-19.79-50.09-30.69-79.58-30.69-65.34 0-118.5 53.16-118.5 118.5 0 65.36 53.16 118.53 118.5 118.53 36.53 0 71.1-17.01 93.5-45.73 2.11-.11 4.23-.7 6.17-1.83l17.02-9.82v70.31zm204.71-124.89c-6.61 3.78-8.92 12.24-5.12 18.89l6.56 11.37c-13.19 22.91-37.33 36.97-63.98 36.97-40.69 0-73.8-33.11-73.8-73.8s33.11-73.8 73.8-73.8 73.8 33.11 73.8 73.8v.06zm26.85-15.5c-4.5-45.34-42.86-80.88-89.37-80.88-49.53 0-89.82 40.29-89.82 89.82 0 49.52 40.29 89.82 89.82 89.82 29.38 0 56.24-14.04 72.97-37.41l6.86 11.87c-19.39 24.04-48.8 38.23-79.83 38.23-56.51 0-102.49-45.99-102.49-102.52 0-56.51 45.98-102.49 102.49-102.49 50.95 0 93.62 36.91 101.28 86.67zm212.6 64.95-23.14-13.36v-13.38c0-4.42-3.58-8.01-8.01-8.01s-8.01 3.58-8.01 8.01v130.1h-130.11v-130.1c0-4.42-3.58-8.01-8.01-8.01s-8.01 3.58-8.01 8.01v13.38l-23.14 13.36-13.23-22.9c-.16-.32-.33-.63-.54-.93l-7.4-12.81 75.31-43.5c.83-.48 1.7-.39 2.42.26.19.17.39.32.58.49-.12 1.36-.19 2.73-.19 4.09 0 26.05 21.19 47.24 47.24 47.24 26.06 0 47.27-21.19 47.27-47.24 0-1.36-.07-2.73-.19-4.09.19-.17.4-.33.59-.5.71-.63 1.59-.72 2.41-.25l75.29 43.49zm-327.42-58.98c3.16 8.99 7.08 20.19-2.26 40.05-1.36 2.9-4.25 4.6-7.25 4.6-1.14 0-2.3-.25-3.4-.76-4-1.88-5.72-6.65-3.84-10.65 6.55-13.93 4.38-20.11 1.64-27.93-3.14-8.95-7.05-20.1 2.8-39.6 2-3.95 6.81-5.53 10.76-3.54s5.53 6.81 3.54 10.76c-6.78 13.41-4.77 19.14-1.99 27.07zm-35.27-191.56h-55.28c-10.76 0-19.52 8.75-19.52 19.52 0 10.76 8.75 19.52 19.52 19.52h55.28c10.76 0 19.52-8.75 19.52-19.52s-8.76-19.52-19.52-19.52zm0 23.02h-55.28c-1.93 0-3.5-1.57-3.5-3.5 0-1.9 1.6-3.5 3.5-3.5h55.28c1.9 0 3.5 1.6 3.5 3.5 0 1.89-1.6 3.5-3.5 3.5zm119.37-26.99c-12.95 0-23.49 10.54-23.49 23.49 0 12.97 10.54 23.51 23.49 23.51 12.97 0 23.51-10.55 23.51-23.51 0-12.95-10.55-23.49-23.51-23.49zm0 30.98c-4.12 0-7.47-3.36-7.47-7.5 0-4.12 3.35-7.47 7.47-7.47 4.13 0 7.5 3.35 7.5 7.47-.01 4.14-3.37 7.5-7.5 7.5zm-18.17 164.55c3.15 9 7.08 20.19-2.28 40.06-1.37 2.9-4.25 4.6-7.25 4.6-1.14 0-2.3-.25-3.41-.77-4-1.88-5.72-6.66-3.83-10.66 6.56-13.93 4.4-20.11 1.66-27.93-3.14-8.95-7.04-20.09 2.81-39.59 1.99-3.95 6.81-5.53 10.76-3.54s5.53 6.81 3.54 10.76c-6.79 13.41-4.78 19.14-2 27.07zm-32.97 0c3.15 9 7.08 20.19-2.28 40.06-1.37 2.9-4.25 4.6-7.25 4.6-1.14 0-2.3-.25-3.41-.77-4-1.88-5.72-6.66-3.83-10.66 6.56-13.93 4.4-20.11 1.66-27.93-3.14-8.95-7.04-20.09 2.81-39.59 2-3.95 6.81-5.53 10.76-3.54s5.53 6.81 3.54 10.76c-6.79 13.41-4.78 19.14-2 27.07zm104.51-195.53c-12.96 0-23.51 10.54-23.51 23.49 0 12.97 10.55 23.51 23.51 23.51 12.95 0 23.49-10.55 23.49-23.51 0-12.95-10.54-23.49-23.49-23.49zm0 30.98c-4.13 0-7.5-3.36-7.5-7.5 0-4.12 3.36-7.47 7.5-7.47 4.12 0 7.47 3.35 7.47 7.47 0 4.14-3.35 7.5-7.47 7.5z"/></svg>