<svg id="Layer_1" enable-background="new 0 0 96 96" height="96" viewBox="0 0 96 96" width="96" xmlns="http://www.w3.org/2000/svg"><g><g fill="none" stroke="#000" stroke-miterlimit="10"><g><g><g><path d="m21.333 48h13.333v29.091h-13.333z"/><path d="m21.333 77.091h13.333v10.909h-13.333z"/></g><g><path d="m34.667 58.909h13.333v29.091h-13.333z"/><path d="m34.667 48h13.333v10.909h-13.333z"/></g><g><path d="m8 58.909h13.333v29.091h-13.333z"/><path d="m8 48h13.333v10.909h-13.333z"/></g></g><g><g><path d="m21.333 8h13.333v29.091h-13.333z"/><path d="m21.333 37.091h13.333v10.909h-13.333z"/></g><g><path d="m34.667 18.909h13.333v29.091h-13.333z"/><path d="m34.667 8h13.333v10.909h-13.333z"/></g><g><path d="m8 18.909h13.333v29.091h-13.333z"/><path d="m8 8h13.333v10.909h-13.333z"/></g></g></g><g><g><g><path d="m61.333 48h13.334v29.091h-13.334z"/><path d="m61.333 77.091h13.334v10.909h-13.334z"/></g><g><path d="m74.667 58.909h13.333v29.091h-13.333z"/><path d="m74.667 48h13.333v10.909h-13.333z"/></g><g><path d="m48 58.909h13.333v29.091h-13.333z"/><path d="m48 48h13.333v10.909h-13.333z"/></g></g><g><g><path d="m61.333 8h13.334v29.091h-13.334z"/><path d="m61.333 37.091h13.334v10.909h-13.334z"/></g><g><path d="m74.667 18.909h13.333v29.091h-13.333z"/><path d="m74.667 8h13.333v10.909h-13.333z"/></g><g><path d="m48 18.909h13.333v29.091h-13.333z"/><path d="m48 8h13.333v10.909h-13.333z"/></g></g></g></g></g></svg>