<svg clip-rule="evenodd" fill-rule="evenodd" height="512" image-rendering="optimizeQuality" shape-rendering="geometricPrecision" text-rendering="geometricPrecision" viewBox="0 0 43.3492 43.3492" width="512" xmlns="http://www.w3.org/2000/svg"><g id="Layer_x0020_1"><g id="_325973104"><path id="_326049168" d="m2.2465 42.4028h38.8563v-17.3634h-38.8563v17.3634zm39.3296.9465h-39.8029c-.2613 0-.4732-.212-.4732-.4733v-18.3098c0-.2613.2119-.4732.4732-.4732h39.8029c.2613 0 .4731.2119.4731.4732v18.3098c0 .2613-.2119.4733-.4731.4733z"/><path id="_326049384" d="m13.7142 43.3493c-.2614 0-.4734-.212-.4734-.4733v-18.3098c0-.2613.212-.4732.4734-.4732.2613 0 .4732.2119.4732.4732v18.3098c0 .2613-.2119.4733-.4732.4733z"/><path id="_326049240" d="m29.6351 43.3493c-.2613 0-.4732-.212-.4732-.4733v-18.3098c0-.2613.2119-.4732.4732-.4732.2614 0 .4733.2119.4733.4732v18.3098c0 .2613-.2119.4733-.4733.4733z"/><path id="_326048640" d="m41.5761 31.0464h-39.8029c-.2614 0-.4732-.2119-.4732-.4732s.2118-.4732.4732-.4732h39.8029c.2613 0 .4732.2119.4732.4732s-.212.4732-.4732.4732z"/><path id="_326049096" d="m18.5627 26.813c-.4174 0-.7569.3392-.7569.7572 0 .417.3395.7562.7569.7562s.7569-.3392.7569-.7562c0-.418-.3395-.7572-.7569-.7572zm0 2.4598c-.9392 0-1.7034-.764-1.7034-1.7026 0-.9395.7642-1.7036 1.7034-1.7036.9393 0 1.7034.7641 1.7034 1.7036 0 .9386-.7641 1.7026-1.7034 1.7026z"/><path id="_326048904" d="m24.7865 26.813c-.4175 0-.7569.3392-.7569.7572 0 .417.3394.7562.7569.7562.4174 0 .7569-.3392.7569-.7562 0-.418-.3395-.7572-.7569-.7572zm0 2.4598c-.9393 0-1.7035-.764-1.7035-1.7026 0-.9395.7642-1.7036 1.7035-1.7036.9392 0 1.7034.7641 1.7034 1.7036 0 .9386-.7642 1.7026-1.7034 1.7026z"/><path id="_326048808" d="m27.1858 25.0394c-.2614 0-.4732-.2119-.4732-.4732v-2.7329c0-.5048-.4106-.9158-.9154-.9158h-8.2452c-.5048 0-.9154.4111-.9154.9158v2.7329c0 .2613-.2118.4732-.4732.4732-.2613 0-.4732-.2119-.4732-.4732v-2.7329c0-1.0263.8352-1.8623 1.8618-1.8623h8.2452c1.0266 0 1.8618.836 1.8618 1.8623v2.7329c0 .2613-.2119.4732-.4732.4732z"/><path id="_326048352" d="m21.6746 25.0394c-.2614 0-.4732-.2119-.4732-.4732v-4.122c0-.2612.2118-.4732.4732-.4732s.4732.212.4732.4732v4.122c0 .2613-.2118.4732-.4732.4732z"/><path id="_326048160" d="m36.4379 28.0434h-1.6645c-.2614 0-.4732-.2119-.4732-.4732 0-.2623.2118-.4732.4732-.4732h1.6645c.2613 0 .4732.2109.4732.4732 0 .2613-.2119.4732-.4732.4732z"/><path id="_326048088" d="m8.576 28.0434h-1.6646c-.2613 0-.4732-.2119-.4732-.4732 0-.2623.2119-.4732.4732-.4732h1.6646c.2613 0 .4732.2109.4732.4732 0 .2613-.2119.4732-.4732.4732z"/><path id="_326048304" d="m11.1811 37.3985c-.2613 0-.4732-.212-.4732-.4733v-2.0989c0-.2613.2119-.4732.4732-.4732.2614 0 .4734.2119.4734.4732v2.0989c0 .2613-.212.4733-.4734.4733z"/><path id="_326048208" d="m32.1681 37.3985c-.2614 0-.4732-.212-.4732-.4733v-2.0989c0-.2613.2118-.4732.4732-.4732.2613 0 .4732.2119.4732.4732v2.0989c0 .2613-.2119.4733-.4732.4733z"/><path id="_326048400" d="m16.3105 11.9223c-.1001 0-.2008-.0316-.2865-.0967-.2079-.1587-.2481-.4555-.0896-.6635l2.2437-2.9448c.1584-.2081.4552-.2484.6633-.0897.2078.1587.2479.4555.0895.6635l-2.2437 2.9448c-.0931.1222-.2342.1864-.3767.1864zm10.7283 0c-.1426 0-.2836-.0642-.3767-.1864l-2.2438-2.9448c-.1584-.208-.1183-.5048.0896-.6635s.5049-.1183.6632.0897l2.2437 2.9448c.1585.208.1183.5048-.0895.6635-.0857.0651-.1865.0967-.2865.0967z"/><path id="_326048232" d="m16.784 13.6396h9.7813v-1.7173h-9.7813zm10.2545.9465h-10.7277c-.2614 0-.4732-.211-.4732-.4732v-2.6639c0-.2613.2118-.4732.4732-.4732h10.7277c.2613 0 .4731.2119.4731.4732v2.6639c0 .2622-.2118.4732-.4731.4732z"/><path id="_326047944" d="m13.7142 25.0394c-.2614 0-.4733-.2119-.4733-.4732v-23.6198h-10.9945v23.6198c0 .2613-.2119.4732-.4732.4732-.2614 0-.4733-.2119-.4733-.4732v-24.093c0-.2613.2119-.4733.4733-.4733h11.941c.2613 0 .4732.212.4732.4733v24.093c0 .2613-.2119.4732-.4732.4732z"/><path id="_326047872" d="m13.7142 17.0084h-11.941c-.2614 0-.4733-.2119-.4733-.4732s.2119-.4732.4733-.4732h11.941c.2613 0 .4732.2119.4732.4732s-.2119.4732-.4732.4732z"/><path id="_326048592" d="m13.7142 8.9774h-11.941c-.2614 0-.4733-.212-.4733-.4732 0-.2613.2119-.4732.4733-.4732l11.941-.0001c.2613 0 .4732.212.4732.4733 0 .2612-.2119.4732-.4732.4732z"/><path id="_325981720" d="m40.0167 8.9774h-26.3025c-.2614 0-.4733-.212-.4733-.4732 0-.2613.2119-.4732.4733-.4732l25.8293-.0001v-7.0845h-25.8293c-.2614 0-.4733-.212-.4733-.4732 0-.2613.2119-.4733.4733-.4733h26.3025c.2614 0 .4732.212.4732.4733v8.031c0 .2612-.2118.4732-.4732.4732z"/><path id="_325977952" d="m28.0758 8.9774c-.2614 0-.4733-.212-.4733-.4732v-8.031c0-.2613.2119-.4733.4732-.4733s.4732.212.4732.4733v8.031c0 .2612-.2119.4732-.4731.4732z"/><path id="_325995832" d="m8.5513 25.0394c-.2614 0-.4732-.2119-.4732-.4732s.2118-.4732.4732-.4732c.85 0 1.5415-.6911 1.5415-1.541v-1.5419h-4.6983v1.5419c0 .8499.6915 1.541 1.5416 1.541.2613 0 .4732.2119.4732.4732s-.2119.4732-.4732.4732c-1.3719 0-2.488-1.116-2.488-2.4874v-2.0151c0-.2613.2118-.4732.4732-.4732h5.6447c.2614 0 .4732.2119.4732.4732v2.0151c0 1.3714-1.1161 2.4874-2.4879 2.4874z"/><path id="_325987696" d="m6.2972 17.0084c-.2613 0-.4732-.2119-.4732-.4732v-3.5561h-1.5032v3.5561c0 .2613-.2119.4732-.4733.4732-.2613 0-.4732-.2119-.4732-.4732v-4.0293c0-.2613.2119-.4732.4732-.4732h2.4497c.2614 0 .4732.2119.4732.4732v4.0293c0 .2613-.2118.4732-.4732.4732z"/><path id="_325978480" d="m11.6398 17.0084c-.2614 0-.4734-.2119-.4734-.4732v-3.5561h-1.5031v3.5561c0 .2613-.2119.4732-.4732.4732-.2614 0-.4733-.2119-.4733-.4732v-4.0293c0-.2613.2119-.4732.4733-.4732h2.4497c.2613 0 .4731.2119.4731.4732v4.0293c0 .2613-.2118.4732-.4731.4732z"/></g></g></svg>