<svg id="Capa_1" enable-background="new 0 0 512 512" height="512" viewBox="0 0 512 512" width="512" xmlns="http://www.w3.org/2000/svg"><g><path d="m512 422.001v-422.001h-248.5v15h56.821l-64.321 64.32-64.321-64.32h56.821v-15h-248.5v74.999h15v-49.393l78.302 78.302v.001c83.746 83.745 83.862 219.937.352 303.831-.119.118-.234.232-.352.351l.001.001-78.303 78.302v-144.86l85.533-85.534-85.533-85.534v-80.467h-15v422.001h248.5v-15h-56.821l64.321-64.32 64.321 64.32h-56.821v15h248.5v-74.999h-15v49.393l-78.302-78.302.001-.001c-40.451-40.45-62.729-94.464-62.729-152.091 0-57.465 22.151-111.336 62.387-151.75.113-.112.229-.228.342-.341l-.001-.001 78.302-78.302v144.86l-85.533 85.534 85.533 85.534v80.467zm-432.68-166.001-64.32 64.321v-128.642zm407.074 241h-144.861l-85.533-85.533-85.533 85.533h-144.861l78.302-78.301.001.001c38.542-38.542 89.981-60.771 144.843-62.593l-.498-14.992c-30.364 1.009-59.741 7.89-86.746 19.986l56.817-56.817c25.013-3.989 50.337-3.989 75.352-.001l56.821 56.821c-27.006-12.097-56.383-18.979-86.749-19.989l-.499 14.992c54.703 1.819 105.999 23.92 144.501 62.25.113.113.228.229.342.343l.001-.001zm-145.424-241c0 33.1 6.883 65.088 19.954 94.318l-56.647-56.647c-1.597-10.03-2.569-20.243-2.877-30.399l-14.993.455c.249 8.21.902 16.455 1.947 24.623-21.514-2.764-43.195-2.763-64.707.001 1.044-8.167 1.697-16.413 1.947-24.624l-14.993-.455c-.309 10.159-1.281 20.372-2.877 30.399l-56.649 56.649c13.072-29.23 19.956-61.218 19.956-94.319s-6.883-65.089-19.955-94.319l56.647 56.647c1.597 10.031 2.57 20.244 2.877 30.401l14.993-.455c-.249-8.21-.902-16.456-1.947-24.625 21.513 2.764 43.195 2.764 64.708 0-1.045 8.169-1.698 16.415-1.947 24.625l14.993.455c.308-10.157 1.281-20.37 2.877-30.4l56.648-56.648c-13.071 29.229-19.955 61.218-19.955 94.318zm67.122-162.699c-38.54 38.539-89.979 60.769-144.843 62.593l.499 14.992c30.366-1.01 59.743-7.892 86.749-19.988l-56.82 56.82c-25.014 3.989-50.338 3.989-75.353 0l-56.817-56.817c27.005 12.096 56.382 18.977 86.746 19.985l.498-14.992c-54.7-1.816-105.997-23.919-144.502-62.251l-.154-.154c-.062-.062-.124-.125-.186-.186l-78.303-78.303h144.861l85.533 85.533 85.533-85.533h144.861zm24.588 162.699 64.32-64.321v128.642z"/><path d="m426.413 30h15v15h-15z"/><path d="m70.633 467h15v15h-15z"/><path d="m467 71.306h15v15h-15z"/><path d="m30 426.338h15v15h-15z"/><path d="m30 366.338h15v45h-15z"/><path d="m467 101.306h15v45h-15z"/><path d="m248.5 37.5h15v15h-15z" transform="matrix(.707 -.707 .707 .707 43.154 194.19)"/><path d="m459.501 248.5h14.999v15.001h-14.999z" transform="matrix(.707 -.707 .707 .707 -44.245 405.176)"/><path d="m37.5 248.5h14.999v15.001h-14.999z" transform="matrix(.707 -.707 .707 .707 -167.832 106.791)"/><path d="m248.5 459.501h15v15h-15z" transform="matrix(.707 -.707 .707 .707 -255.232 317.777)"/></g></svg>