<?xml version="1.0" encoding="UTF-8"?>
<svg xmlns="http://www.w3.org/2000/svg" id="Layer_3" data-name="Layer 3" viewBox="0 0 64 64" width="512" height="512"><path d="M50.6,42.2l-1.2,1.6a4.012,4.012,0,1,1-3.4-.658V49h2V38H46v3.09a5.99,5.99,0,1,0,4.6,1.11Z"/><path d="M18,45.96A6.96,6.96,0,0,0,24.96,39v-.584a7.006,7.006,0,0,0-.734-3.112l-.367-.734a.984.984,0,0,0-.927-.528.96.96,0,0,0-.843.654l-.577,1.733A10.582,10.582,0,0,1,18.553,32.3l-.661-1.652a.961.961,0,0,0-1.691-.176,12.815,12.815,0,0,0-2.128,6.212l-1.769-.59A.96.96,0,0,0,11.04,37v2A6.96,6.96,0,0,0,18,45.96Zm-5.04-7.628,1.736.579A.96.96,0,0,0,15.96,38v-.4a10.919,10.919,0,0,1,.906-4.363,12.513,12.513,0,0,0,4.6,5.557.961.961,0,0,0,1.444-.495l.109-.328c.013.146.02.293.02.44V39a5.04,5.04,0,0,1-10.08,0Z"/><path d="M51,31.527V29h2a1,1,0,0,0,1-1V22a1,1,0,0,0-1-1H51V1H49V21H45V1H43V21H41a1,1,0,0,0-1,1v6a1,1,0,0,0,1,1h2v2.527a16.025,16.025,0,0,0-9.04,6.235V28.253a2.96,2.96,0,0,0,0-4.506V22A9.976,9.976,0,0,0,27,12.5V9a1,1,0,0,0-1-1H19V7h7a1,1,0,0,0,1-1V5a4.005,4.005,0,0,0-4-4H13A4,4,0,0,0,9,5v7.5A9.976,9.976,0,0,0,2.04,22v1.747a2.96,2.96,0,0,0,0,4.506V47.747a2.96,2.96,0,0,0,.013,4.517A6.961,6.961,0,0,0,8,58.88V59a4,4,0,0,0,4,4H24a4,4,0,0,0,4-4v-.12A6.97,6.97,0,0,0,33.227,55.1,15.987,15.987,0,1,0,51,31.527ZM42,23H52v4H42Zm3,6h4v2.139a14.458,14.458,0,0,0-4,0ZM3,50a1,1,0,0,1,1-1H31.139a15.741,15.741,0,0,0,.388,2H4A1,1,0,0,1,3,50ZM3,26a1,1,0,0,1,1-1H32a1,1,0,0,1,0,2H4A1,1,0,0,1,3,26ZM11,5a2,2,0,0,1,2-2H23a2,2,0,0,1,2,2H18a1,1,0,0,0-1,1V9a1,1,0,0,0,1,1h7v2.091c-.329-.033-.663-.051-1-.051H12a10.007,10.007,0,0,0-1,.051ZM3.96,22A8.049,8.049,0,0,1,12,13.96H24A8.049,8.049,0,0,1,32.04,22v1c-.014,0-.026,0-.04,0H4c-.014,0-.026,0-.04,0Zm0,7c.014,0,.026,0,.04,0H32c.014,0,.026,0,.04,0v12.38A15.9,15.9,0,0,0,31,47H4c-.014,0-.026,0-.04,0ZM24,61H12a2,2,0,0,1-2-2v-.04H26V59A2,2,0,0,1,24,61Zm3-3.96H9A5.047,5.047,0,0,1,4.061,53h27.86A5.032,5.032,0,0,1,27,57.04ZM47,61A14,14,0,1,1,61,47,14.015,14.015,0,0,1,47,61Z"/><path d="M50.636,56.068l.728,1.864c.338-.132.668-.279.99-.436l-.877-1.8Q51.066,55.9,50.636,56.068Z"/><path d="M56.815,45.075l1.963-.383a12.094,12.094,0,0,0-.617-2.109l-1.861.734A10.077,10.077,0,0,1,56.815,45.075Z"/><path d="M57.166,40.621a12.046,12.046,0,0,0-1.334-1.745L54.36,40.229a10.19,10.19,0,0,1,1.113,1.457Z"/><path d="M50.285,35.454a11.907,11.907,0,0,0-2.162-.4l-.184,1.992a9.859,9.859,0,0,1,1.8.335Z"/><path d="M52.334,36.248l-.891,1.791A10.071,10.071,0,0,1,53,39l1.2-1.6A12.042,12.042,0,0,0,52.334,36.248Z"/><path d="M53.049,54.748l1.182,1.613a12.008,12.008,0,0,0,1.647-1.454l-1.455-1.371A10.056,10.056,0,0,1,53.049,54.748Z"/><path d="M59,46.874,57,46.9V47a9.916,9.916,0,0,1-.149,1.719l1.969.349A11.877,11.877,0,0,0,59,47Z"/><path d="M55.542,52.1l1.689,1.07a11.312,11.312,0,0,0,.995-1.971l-1.864-.722A9.466,9.466,0,0,1,55.542,52.1Z"/><path d="M38.085,54.869a12.165,12.165,0,0,0,1.641,1.461l1.19-1.607A10.092,10.092,0,0,1,39.547,53.5Z"/><path d="M42.594,38.02l-.882-1.8a11.927,11.927,0,0,0-1.876,1.148l1.2,1.6A9.78,9.78,0,0,1,42.594,38.02Z"/><path d="M39.67,40.2,38.2,38.839a12.027,12.027,0,0,0-1.341,1.738l1.687,1.072A10.22,10.22,0,0,1,39.67,40.2Z"/><path d="M37.715,43.277l-1.856-.744a11.869,11.869,0,0,0-.627,2.107l1.961.392A9.942,9.942,0,0,1,37.715,43.277Z"/><path d="M37.623,50.432l-1.869.714a11.351,11.351,0,0,0,.986,1.976l1.7-1.062A9.3,9.3,0,0,1,37.623,50.432Z"/><path d="M37,47v-.144l-2-.037V47a11.961,11.961,0,0,0,.171,2.016l1.971-.34A9.916,9.916,0,0,1,37,47Z"/><path d="M46.106,37.039l-.178-1.992a12.16,12.16,0,0,0-2.16.392l.536,1.928A9.991,9.991,0,0,1,46.106,37.039Z"/><path d="M41.646,57.5c.322.157.652.3.99.436l.728-1.864q-.431-.168-.841-.369Z"/></svg>
