<svg id="ICONS" enable-background="new 0 0 64 64" height="64" viewBox="0 0 64 64" width="64" xmlns="http://www.w3.org/2000/svg"><g fill="#424242"><path d="m55 5h3v6h-3z"/><path d="m9.414 16h45.172l2-3h-49.172z"/><path d="m51 18h3v41h-3z"/><path d="m15 50h34v2h-34z"/><path d="m15 46h34v2h-34z"/><path d="m15 42h34v2h-34z"/><path d="m15 38h34v2h-34z"/><path d="m15 34h34v2h-34z"/><path d="m15 30h34v2h-34z"/><path d="m15 26h34v2h-34z"/><path d="m15 18h34v2h-34z"/><path d="m10 18h3v41h-3z"/><path d="m53 5h-42v6h42zm-33 4h-5v-2h5z"/><path d="m6 5h3v6h-3z"/><path d="m15 22h34v2h-34z"/></g></svg>