<svg id="Capa_1" enable-background="new 0 0 512 512" height="512" viewBox="0 0 512 512" width="512" xmlns="http://www.w3.org/2000/svg"><path d="m436 0h-120c-4.143 0-7.5 3.358-7.5 7.5v82.5h-105v-82.5c0-4.142-3.357-7.5-7.5-7.5h-120c-4.143 0-7.5 3.358-7.5 7.5v407c0 4.142 3.357 7.5 7.5 7.5h112.5v82.5c0 4.142 3.357 7.5 7.5 7.5h120c4.143 0 7.5-3.358 7.5-7.5v-82.5h112.5c4.143 0 7.5-3.358 7.5-7.5v-407c0-4.142-3.357-7.5-7.5-7.5zm-52.5 15h15v67.5c0 4.136-3.364 7.5-7.5 7.5s-7.5-3.364-7.5-7.5zm-45 0v67.5c0 18.03 7.021 34.981 19.77 47.729l24.854 24.853c9.916 9.916 15.377 23.1 15.377 37.123v55.295c0 4.142 3.357 7.5 7.5 7.5s7.5-3.358 7.5-7.5v-55.294c0-18.03-7.021-34.981-19.77-47.729l-24.854-24.853c-9.916-9.916-15.377-23.1-15.377-37.123v-67.501h15v67.5c0 12.407 10.094 22.5 22.5 22.5s22.5-10.093 22.5-22.5v-67.5h15v362h-15v-99.5c0-4.142-3.357-7.5-7.5-7.5s-7.5 3.358-7.5 7.5v99.5h-15v-142.5c0-12.407-10.094-22.5-22.5-22.5s-22.5 10.093-22.5 22.5v142.5h-15v-362zm30 362h-15v-142.5c0-4.136 3.364-7.5 7.5-7.5s7.5 3.364 7.5 7.5zm-90 90h-15v-52.5c0-4.136 3.364-7.5 7.5-7.5s7.5 3.364 7.5 7.5zm-7.5-75c-12.406 0-22.5 10.093-22.5 22.5v52.5h-45v-52.5c0-14.023 5.461-27.207 15.377-37.123l24.854-24.853c12.748-12.749 19.77-29.699 19.77-47.729v-199.795h45v362h-15v-52.5c-.001-12.407-10.095-22.5-22.501-22.5zm-37.5-144.5v-142.5h15v199.794c0 14.023-5.461 27.207-15.377 37.123l-24.854 24.853c-1.695 1.695-3.28 3.469-4.77 5.304v-103.364c2.347.833 4.871 1.29 7.5 1.29 12.407 0 22.501-10.093 22.501-22.5zm-15-142.5v142.5c0 4.136-3.364 7.5-7.5 7.5s-7.5-3.364-7.5-7.5v-142.5zm-120-90v67.5c0 18.03 7.021 34.981 19.77 47.729l24.854 24.853c9.916 9.916 15.377 23.1 15.377 37.123v55.295c0 4.142 3.357 7.5 7.5 7.5s7.5-3.358 7.5-7.5v-55.294c0-18.03-7.021-34.981-19.77-47.729l-24.854-24.853c-9.916-9.916-15.377-23.1-15.377-37.123v-67.501h75v362h-15v-99.5c0-4.142-3.357-7.5-7.5-7.5s-7.5 3.358-7.5 7.5v99.5h-15v-142.5c0-12.407-10.094-22.5-22.5-22.5s-22.5 10.093-22.5 22.5v142.5h-15v-362zm30 362h-15v-142.5c0-4.136 3.364-7.5 7.5-7.5s7.5 3.364 7.5 7.5zm-45 30v-15h105v15zm120 90v-15h105v15zm120-90v-15h105v15z"/></svg>