<svg id="Layer_3" enable-background="new 0 0 100 100" viewBox="0 0 100 100" xmlns="http://www.w3.org/2000/svg"><path d="m89.846 13.516c-.319-.304-.757-.487-1.193-.487h-36.972v-1.681c0-.471-.197-.921-.544-1.239s-.817-.482-1.281-.435l-38.653 3.361c-.869.076-1.536.803-1.536 1.674v67.222c0 .818.588 1.517 1.393 1.656l38.653 6.722c.096.016.192.025.288.025.393 0 .776-.138 1.081-.394.38-.32.599-.791.599-1.286v-5.042h36.973c.436 0 .874-.169 1.193-.487.319-.32.487-.74.487-1.194v-47.055c0-.924-.756-1.681-1.68-1.681-.925 0-1.681.757-1.681 1.681v45.375h-35.292v-3.361h5.042 3.361 21.846c.928 0 1.681-.752 1.681-1.681v-53.778c0-.929-.752-1.68-1.681-1.68h-21.847-3.361-5.042v-3.361h35.292v5.041c0 .924.756 1.681 1.681 1.681.924 0 1.68-.757 1.68-1.681v-6.722c0-.454-.185-.874-.487-1.193zm-33.124 17.999c.928 0 1.681-.752 1.681-1.681v-6.722h1.68 1.681 18.486v50.417h-18.486-1.681-1.68v-11.764c0-.929-.753-1.681-1.681-1.681s-1.681.752-1.681 1.681v11.764h-3.361v-50.417h3.361v6.722c.001.929.753 1.681 1.681 1.681zm-8.403-10.084v1.681 50.417 1.68 1.681 5.041 4.725l-35.291-6.138v-64.268l35.291-3.069v1.528 5.042zm42.014 6.723c0 .923-.756 1.68-1.68 1.68-.925 0-1.681-.757-1.681-1.68 0-.924.756-1.681 1.681-1.681.924 0 1.68.757 1.68 1.681zm-47.166-10.081-25.209 1.681c-.883.059-1.569.793-1.569 1.677v53.778c0 .801.565 1.491 1.351 1.648l25.208 5.042c.11.021.22.032.33.032.384 0 .762-.132 1.065-.381.39-.32.615-.796.615-1.3v-5.042-53.777-1.68c0-.465-.193-.909-.532-1.228-.34-.318-.797-.471-1.259-.45zm-1.57 60.128-21.847-4.369v-50.828l21.847-1.456zm35.926-15.415c-.52.769-1.562.975-2.334.451-2.247-1.516-5.15-1.516-7.397 0l-.756.514c-.289.196-.617.289-.942.289-.539 0-1.068-.257-1.393-.738-.52-.768-.319-1.813.449-2.334l.758-.513c3.391-2.291 7.771-2.291 11.163 0 .77.517.972 1.562.452 2.331zm-.451-10.735c.769.519.971 1.564.452 2.332-.52.77-1.562.973-2.334.452-2.247-1.517-5.15-1.517-7.397 0l-.756.513c-1.462.988-3.053 1.39-4.625 1.39-.217 0-.432-.016-.647-.031-.568-.039-1.129-.127-1.681-.256-.576-.134-1.137-.312-1.68-.525-.588-.231-1.151-.5-1.681-.799-.326-.184-.644-.373-.941-.575-.769-.519-.971-1.564-.451-2.332.325-.479.854-.739 1.393-.739.325-.001.652.092.941.288.232.156.48.307.74.45.519.288 1.087.541 1.68.738.546.18 1.112.313 1.681.371 1.177.119 2.363-.07 3.388-.763l.757-.514c3.389-2.292 7.769-2.292 11.161 0zm-21.742-8.234c.325-.479.854-.738 1.393-.739.325-.001.652.092.941.288.232.156.48.307.74.451.519.287 1.087.541 1.68.736.546.18 1.112.313 1.681.371 1.177.119 2.363-.07 3.388-.762.772-.522 1.814-.317 2.334.452.52.768.318 1.813-.451 2.332-1.462.988-3.051 1.39-4.623 1.39-.217 0-.432-.016-.647-.031-.568-.039-1.129-.127-1.681-.256-.576-.135-1.137-.312-1.68-.526-.588-.231-1.151-.5-1.681-.799-.326-.184-.644-.373-.941-.575-.771-.518-.972-1.564-.453-2.332zm0-8.403c.325-.48.854-.738 1.393-.739.325-.001.652.092.941.287.232.156.48.307.74.451.519.288 1.087.541 1.68.737.546.18 1.112.312 1.681.37 1.177.119 2.363-.07 3.388-.762l.757-.514c1.66-1.121 3.589-1.712 5.583-1.712.928 0 1.68.752 1.68 1.681 0 .928-.752 1.68-1.68 1.68-1.321 0-2.6.392-3.699 1.136l-.756.512c-1.462.988-3.053 1.39-4.625 1.39-.217 0-.432-.016-.647-.031-.568-.039-1.129-.126-1.681-.256-.576-.135-1.137-.312-1.68-.526-.588-.231-1.151-.499-1.681-.799-.326-.183-.644-.374-.941-.575-.771-.516-.972-1.562-.453-2.33z"/></svg>