<svg id="Capa_1" enable-background="new 0 0 512 512" height="512" viewBox="0 0 512 512" width="512" xmlns="http://www.w3.org/2000/svg"><g><path d="m240 47h-240v112.5h15v-26.893l70.607-70.607h68.786l70.607 70.607v68.786l-70.607 70.607h-68.786l-70.607-70.607v-26.893h-15v337.5h337.5v-15h-26.893l-70.607-70.607v-68.786l70.607-70.607h68.786l70.607 70.607v68.786l-70.607 70.607h-26.893v15h112.5v-240h-225zm-225 310.607 70.607-70.607h68.786l70.607 70.607v68.786l-70.607 70.607h-68.786l-70.607-70.607zm0-21.214v-49.393h49.393zm210 0-49.393-49.393h49.393zm-210-225v-49.393h49.393zm160.607-49.393h49.393v49.393zm49.393 160.607v49.393h-49.393zm-160.607 49.393h-49.393v-49.393zm-49.393 175.607 49.393 49.393h-49.393zm160.607 49.393 49.393-49.393v49.393zm113.786 0h-49.393v-49.393zm111.214 0 49.393-49.393v49.393zm49.393-160.607-49.393-49.393h49.393zm-160.607-49.393-49.393 49.393v-49.393z"/><path d="m272 0v240h240v-240zm15 85.607 70.607-70.607h68.786l70.607 70.607v68.786l-70.607 70.607h-68.786l-70.607-70.607zm210-21.214-49.393-49.393h49.393zm-160.607-49.393-49.393 49.393v-49.393zm-49.393 160.607 49.393 49.393h-49.393zm160.607 49.393 49.393-49.393v49.393z"/><path d="m384.5 179.998h15c0-28.947 23.552-52.497 52.5-52.497v-15c-28.948 0-52.5-23.55-52.5-52.498h-15c0 28.947-23.552 52.498-52.5 52.498v15c28.948-.001 52.5 23.55 52.5 52.497zm7.5-89.09c6.439 12.45 16.644 22.653 29.094 29.093-12.45 6.439-22.654 16.643-29.094 29.092-6.439-12.449-16.644-22.653-29.094-29.092 12.45-6.44 22.655-16.644 29.094-29.093z"/><path d="m405 399.5v-15c-28.948 0-52.5-23.55-52.5-52.498h-15c0 28.947-23.552 52.498-52.5 52.498v15c28.948 0 52.5 23.55 52.5 52.498h15c0-28.948 23.552-52.498 52.5-52.498zm-89.094-7.5c12.45-6.439 22.654-16.643 29.094-29.093 6.439 12.45 16.644 22.653 29.094 29.093-12.45 6.439-22.654 16.643-29.094 29.093-6.439-12.45-16.644-22.654-29.094-29.093z"/><path d="m112.5 451.998h15c0-28.947 23.552-52.498 52.5-52.498v-15c-28.948 0-52.5-23.55-52.5-52.498h-15c0 28.947-23.552 52.498-52.5 52.498v15c28.948 0 52.5 23.55 52.5 52.498zm7.5-89.091c6.439 12.45 16.644 22.653 29.094 29.093-12.45 6.439-22.654 16.643-29.094 29.093-6.439-12.45-16.644-22.653-29.094-29.093 12.45-6.439 22.655-16.643 29.094-29.093z"/><path d="m127.5 226.998c0-28.947 23.552-52.498 52.5-52.498v-15c-28.948 0-52.5-23.55-52.5-52.498h-15c0 28.947-23.552 52.498-52.5 52.498v15c28.948 0 52.5 23.55 52.5 52.498zm-36.594-59.998c12.45-6.439 22.654-16.643 29.094-29.093 6.439 12.45 16.644 22.653 29.094 29.093-12.45 6.439-22.654 16.643-29.094 29.093-6.439-12.45-16.644-22.654-29.094-29.093z"/><path d="m369.5 30h15v15h-15z"/><path d="m399.5 30h15v15h-15z"/></g></svg>