<svg height="512" viewBox="0 0 22.401 22.4" width="512" xmlns="http://www.w3.org/2000/svg"><g id="Layer_2" data-name="Layer 2"><g id="Layer_1-2" data-name="Layer 1"><path id="fireplace" d="m22.4.34a.341.341 0 0 0 -.341-.34h-21.72a.339.339 0 0 0 -.339.34v2.173a.319.319 0 0 0 .1.216c.358.571 1.5 2.064 1.483 2.071v14.749c-.324.045-1.125-.178-1.131.339v2.173a.339.339 0 0 0 .34.339h5.608c.5 0 .3-.786.339-1.086h8.92c.04.3-.167 1.088.339 1.086h5.609a.338.338 0 0 0 .339-.339v-2.173c-.005-.516-.8-.3-1.13-.339v-14.749l1.519-2.083c.015-.023.026-.05.04-.075a.351.351 0 0 0 .023-.114c.002-.017.002-2.175.002-2.188zm-21.721.339h21.042v1.494h-21.042zm5.382 21.043h-4.93v-1.494h4.93zm10.683-3.569h-2.366a3.267 3.267 0 0 0 .758-2.208 5.742 5.742 0 0 0 -2.756-4.516.343.343 0 0 0 -.295.008.334.334 0 0 0 -.178.238 3.867 3.867 0 0 1 -1.315 2.28c-.469-.447-1.126-1.2-1.408-.517a2.84 2.84 0 0 1 -.984 1.683c-.791.589-1.385 2.135-.641 3.032h-1.9v-4.417a5.544 5.544 0 0 1 11.087 0zm-8.806-1.426c.339-1.18 1.4-1.331 1.786-2.666a3.972 3.972 0 0 1 .393.38 2.721 2.721 0 0 0 -.173 3.712h-1.367a1.216 1.216 0 0 1 -.639-1.426zm3.1-2.258a4.635 4.635 0 0 0 1.42-2.184c1.136.748 2.863 3.534 1.519 5.3.313-1.457-1.245-3.335-1.908-3.117a.34.34 0 0 0 -.176.236 2.118 2.118 0 0 1 -.742 1.252 2.069 2.069 0 0 0 -.74 1.7c-.933-.974-.284-2.446.627-3.187zm.414 3.684c-1.171-1.041.623-1.752.966-2.818.615.447 1.418 2.059.513 2.818zm-4.713 2.482v-.747c0-.505-.78-.3-1.082-.339v-.717h11.043v.717h-.7c-.507 0-.3.782-.339 1.086zm14.529 1.087h-4.931v-1.494h4.931zm-3.846-2.173v-5.813a6.223 6.223 0 0 0 -12.445 0v5.813h-2.714v-14.524h17.873v14.524zm2.878-15.202h-18.2l-1.088-1.5h20.381z"/></g></g></svg>