<svg id="&#x421;&#x43B;&#x43E;&#x439;_1" enable-background="new 0 0 16 16" viewBox="0 0 16 16" xmlns="http://www.w3.org/2000/svg"><g fill="rgb(0,0,0)"><path d="m8 2.625c-4.4160156 0-7.875 1.7021484-7.875 3.875s3.4589844 3.875 7.875 3.875 7.875-1.7021484 7.875-3.875-3.4589844-3.875-7.875-3.875zm0 7c-3.8623047 0-7.125-1.4311523-7.125-3.125s3.2626953-3.125 7.125-3.125 7.125 1.4311523 7.125 3.125-3.2626953 3.125-7.125 3.125z"/><path d="m3.125 6.5c0 1.230957 2.4526367 1.875 4.875 1.875s4.875-.644043 4.875-1.875c0-2.4619141-9.75-2.4619141-9.75 0zm6.4074097-1.0286865c-.3953858.4118652-.9454956.6536865-1.5324097.6536865s-1.1370239-.2418213-1.5324097-.6536865c.4577027-.057251.9612427-.0963135 1.5324097-.0963135s1.074707.0390625 1.5324097.0963135zm-1.5324097 2.1536865c-2.6689453 0-4.125-.7431641-4.125-1.125 0-.2469482.6178589-.6425781 1.7703857-.8930054.532959.7785034 1.3990479 1.2680054 2.3546143 1.2680054s1.8216553-.489502 2.3546143-1.2680054c1.1525268.2504273 1.7703857.6460572 1.7703857.8930054 0 .3818359-1.4560547 1.125-4.125 1.125z"/><path d="m8 11.125c-.2070313 0-.375.1679688-.375.375v1.5c0 .2070313.1679688.375.375.375s.375-.1679687.375-.375v-1.5c0-.2070312-.1679687-.375-.375-.375z"/><path d="m5.9174805 11.1645508c-.184082-.0913086-.409668-.0175781-.5029297.1679688l-.75 1.5c-.0927734.1850586-.0175781.4101563.1679688.5029297.0537109.0268554.1108398.0395507.1669921.0395507.1376953 0 .2700195-.0756836.3359375-.2075195l.75-1.5c.0927735-.1850586.0175781-.4101563-.1679687-.5029297z"/><path d="m10.5854492 11.3325195c-.0927734-.1855469-.3168945-.2602539-.5029297-.1679688-.1855469.0927734-.2607422.3178711-.1679688.5029297l.75 1.5c.0659181.131836.1982423.2075196.3359376.2075196.0561523 0 .1132813-.0126953.1669922-.0395508.1855469-.0927734.2607422-.3178711.1679688-.5029297z"/></g></svg>