<svg id="&#x421;&#x43B;&#x43E;&#x439;_1" enable-background="new 0 0 16 16" viewBox="0 0 16 16" xmlns="http://www.w3.org/2000/svg"><g fill="rgb(0,0,0)"><path d="m11.5.125h-7c-.7578125 0-1.375.6166992-1.375 1.375v11c0 .6395264.440918 1.173584 1.03302 1.3267212.1610718 1.1540527 1.1442871 2.0482788 2.34198 2.0482788h3c1.1976929 0 2.1809082-.8942261 2.34198-2.0482788.592102-.1531372 1.03302-.6871948 1.03302-1.3267212v-11c0-.7583008-.6171875-1.375-1.375-1.375zm-2 15h-3c-.7667847 0-1.4067993-.5349121-1.5770264-1.25h6.1540527c-.170227.7150879-.8102416 1.25-1.5770263 1.25zm2.625-2.625c0 .3447266-.2802734.625-.625.625h-7c-.3447266 0-.625-.2802734-.625-.625v-11c0-.3447266.2802734-.625.625-.625h7c.3447266 0 .625.2802734.625.625z"/><path d="m8 3.125c-1.0341797 0-1.875.8413086-1.875 1.875s.8408203 1.875 1.875 1.875 1.875-.8413086 1.875-1.875-.8408203-1.875-1.875-1.875zm0 3c-.6201172 0-1.125-.5048828-1.125-1.125 0-.4871826.3156738-.8930664.75-1.0490723v.5490723c0 .2070313.1679688.375.375.375s.375-.1679687.375-.375v-.5490723c.4343262.1560059.75.5618897.75 1.0490723 0 .6201172-.5048828 1.125-1.125 1.125z"/></g></svg>