<svg id="Layer_1" enable-background="new 0 0 64 64" height="64" viewBox="0 0 64 64" width="64" xmlns="http://www.w3.org/2000/svg"><path d="m62.5 6.643h-61c-.829 0-1.5.671-1.5 1.5v5.964 41.751c0 .828.671 1.5 1.5 1.5s1.5-.672 1.5-1.5v-32.931h9.569c.829 0 1.5-.671 1.5-1.5s-.671-1.5-1.5-1.5h-9.569v-4.32h34.82v4.32h-10.067c-.829 0-1.5.671-1.5 1.5s.671 1.5 1.5 1.5h10.067v32.931c0 .02.005.038.006.058.002.054.008.106.016.159.007.046.014.092.024.136.012.049.028.096.045.143.016.047.032.092.053.136.02.043.044.084.067.125.026.045.054.089.085.13.012.017.02.035.032.051.018.021.039.038.058.059.034.038.068.074.106.108.037.034.074.065.114.095.037.028.075.054.115.078.044.026.088.051.134.072.042.021.084.038.127.054.049.019.098.033.146.046.044.011.088.021.133.027.055.009.108.014.164.017.024.002.049.008.074.008.019 0 .036-.005.056-.006.055-.002.11-.008.165-.017.044-.007.088-.013.131-.023.049-.012.098-.028.146-.045.046-.017.09-.032.134-.053.043-.02.084-.044.125-.068.045-.026.089-.053.131-.084.016-.012.034-.02.05-.032l4.861-3.887 4.861 3.887c.548.438 1.326.438 1.874-.001l4.856-3.886 4.853 3.886c.01.008.022.01.032.018.117.09.246.162.387.214.026.01.053.017.079.024.139.043.284.073.437.073h.002.001c.108 0 .214-.013.315-.035.026-.005.052-.017.078-.023.075-.021.148-.043.219-.075.035-.015.066-.036.101-.054.059-.032.115-.065.169-.104.034-.024.064-.052.097-.08.051-.044.099-.092.144-.143.016-.018.034-.029.049-.048.013-.016.021-.033.032-.05.031-.042.06-.087.086-.133.024-.041.047-.081.066-.122.021-.045.038-.092.055-.139.016-.046.031-.093.043-.14.012-.046.019-.092.025-.139.007-.053.014-.104.016-.156 0-.023.005-.041.005-.062v-41.751-5.963c0-.829-.672-1.5-1.5-1.5zm-59.5 3h58v2.964h-21.68-36.32zm47.916 44.294-4.861-3.887c-.547-.438-1.326-.438-1.873 0l-3.361 2.688v-37.132h2.798v11.244c0 .829.672 1.5 1.5 1.5s1.5-.671 1.5-1.5v-11.244h14.381v37.129l-2.79-2.234v-12.266c0-.828-.672-1.5-1.5-1.5s-1.5.672-1.5 1.5v12.266z"/><path d="m31.433 28.455c-.007-.002-.013-.006-.02-.008l-9.502-2.792v-.815c1.669-.615 2.869-2.208 2.869-4.088 0-2.409-1.96-4.369-4.369-4.369-2.41 0-4.37 1.96-4.37 4.369 0 .829.671 1.5 1.5 1.5s1.5-.671 1.5-1.5c0-.755.615-1.369 1.37-1.369s1.369.614 1.369 1.369-.614 1.37-1.369 1.37c-.829 0-1.5.671-1.5 1.5v2.033l-9.504 2.792c-.007.002-.013.006-.02.008-1.647.432-3.567 1.641-3.567 4.942v1.496c0 1.335 1.188 2.421 2.647 2.421h23.887c1.46 0 2.647-1.086 2.647-2.421v-1.496c0-3.302-1.921-4.51-3.568-4.942zm.568 5.859h-23.182v-.917c0-1.449.462-1.83 1.372-2.056.013-.003.024-.01.037-.013.008-.002.016-.001.024-.003l10.158-2.985 10.157 2.984c.008.002.016.001.024.003.013.003.024.01.037.013.911.227 1.374.607 1.374 2.056v.918z"/></svg>