<svg enable-background="new 0 0 512 512" height="512" viewBox="0 0 512 512" width="512" xmlns="http://www.w3.org/2000/svg"><g id="_x31_6_Fire_Alarm"><g><path d="m449.923 11.216h-387.846c-4.217 0-7.637 3.416-7.637 7.637v60.056c0 25.475 20.728 46.207 46.211 46.207h5.724v25.08c0 22.462 18.271 40.733 40.733 40.733h217.784c22.459 0 40.73-18.271 40.73-40.733v-25.08h5.724c25.483 0 46.215-20.732 46.215-46.207v-60.056c-.001-4.221-3.42-7.637-7.638-7.637zm-59.574 138.98c0 14.035-11.421 25.46-25.456 25.46h-217.785c-14.039 0-25.46-11.425-25.46-25.46v-25.08h268.701zm51.938-71.287c0 17.056-13.879 30.934-30.942 30.934-229.1 0-164.787 0-310.694 0-17.059 0-30.938-13.879-30.938-30.934v-52.42h372.574z"/><path d="m172.031 381.575c-16.44 29.763-12.518 68.23 9.546 93.541 17.135 19.663 63.984 32.324 105.506 21.963 32.023-7.995 53.344-28.324 60.041-57.244 9.444-40.681-4.603-75.092-28.492-107.292-2.025-2.729-5.619-3.811-8.83-2.595-3.192 1.201-5.198 4.378-4.915 7.778 1.32 15.795-3.982 32.157-13.591 44.76 4.613-21.597 3.856-44.507-2.468-65.768-9.262-30.845-27.608-54.314-53.057-67.872-2.554-1.35-5.668-1.156-8.036.529-2.36 1.693-3.557 4.572-3.095 7.435 11.292 69.606-37.829 97.629-52.609 124.765zm69.393-110.864c15.187 11.984 26.396 29.144 32.772 50.384 7.842 26.355 5.776 56.842-5.519 81.541-1.361 2.976-.679 6.481 1.697 8.725 2.379 2.245 5.918 2.729 8.807 1.208 19.561-10.314 34.107-30.725 39.197-52.986 14.086 23.837 20.188 49.51 13.867 76.806-6.842 29.54-30.345 41.248-48.862 45.872-35.405 8.815-76.873-1.782-90.293-17.182-17.928-20.561-21.09-51.868-7.666-76.157 11.818-21.731 58.905-52.811 56-118.211z"/><path d="m407.102 281.972c0 4.221 3.419 7.637 7.637 7.637 44.552 0 80.796-36.244 80.796-80.796 0-4.221-3.419-7.637-7.637-7.637-4.217 0-7.637 3.416-7.637 7.637 0 36.132-29.394 65.522-65.522 65.522-4.218 0-7.637 3.416-7.637 7.637z"/><path d="m457.351 201.176c-4.217 0-7.637 3.416-7.637 7.637 0 19.285-15.691 34.976-34.976 34.976-4.217 0-7.637 3.416-7.637 7.637s3.419 7.637 7.637 7.637c27.709 0 50.249-22.544 50.249-50.249.001-4.222-3.418-7.638-7.636-7.638z"/><path d="m414.739 228.523c10.866 0 19.703-8.837 19.703-19.703 0-4.221-3.419-7.637-7.637-7.637-4.217 0-7.637 3.416-7.637 7.637 0 2.446-1.987 4.43-4.43 4.43-4.217 0-7.637 3.416-7.637 7.637s3.42 7.636 7.638 7.636z"/><path d="m24.102 201.176c-4.217 0-7.637 3.416-7.637 7.637 0 44.552 36.244 80.796 80.796 80.796 4.217 0 7.637-3.416 7.637-7.637s-3.419-7.637-7.637-7.637c-36.128 0-65.522-29.39-65.522-65.522 0-4.221-3.419-7.637-7.637-7.637z"/><path d="m47.012 208.813c0 27.705 22.541 50.249 50.249 50.249 4.217 0 7.637-3.416 7.637-7.637s-3.419-7.637-7.637-7.637c-19.285 0-34.976-15.691-34.976-34.976 0-4.221-3.419-7.637-7.637-7.637s-7.636 3.417-7.636 7.638z"/><path d="m92.832 208.82c0-4.221-3.419-7.637-7.637-7.637-4.217 0-7.637 3.416-7.637 7.637 0 10.866 8.837 19.703 19.699 19.703 4.217 0 7.637-3.416 7.637-7.637s-3.419-7.637-7.637-7.637c-2.442.001-4.425-1.983-4.425-4.429z"/><path d="m187.949 75.806h8.431c4.217 0 7.637-3.416 7.637-7.637s-3.419-7.637-7.637-7.637h-8.431c-4.217 0-7.637 3.416-7.637 7.637.001 4.222 3.42 7.637 7.637 7.637z"/><path d="m251.783 75.806h8.431c4.217 0 7.637-3.416 7.637-7.637s-3.419-7.637-7.637-7.637h-8.431c-4.217 0-7.637 3.416-7.637 7.637 0 4.222 3.419 7.637 7.637 7.637z"/><path d="m315.616 75.806h8.431c4.217 0 7.637-3.416 7.637-7.637s-3.419-7.637-7.637-7.637h-8.431c-4.217 0-7.637 3.416-7.637 7.637 0 4.222 3.42 7.637 7.637 7.637z"/></g></g></svg>