<svg id="Capa_1" enable-background="new 0 0 512 512" viewBox="0 0 512 512" xmlns="http://www.w3.org/2000/svg"><g><path d="m90.734 84.657h22.128c4.143 0 7.5-3.358 7.5-7.5s-3.357-7.5-7.5-7.5h-22.128c-4.143 0-7.5 3.358-7.5 7.5s3.358 7.5 7.5 7.5z"/><path d="m154.272 84.657h22.129c4.143 0 7.5-3.358 7.5-7.5s-3.357-7.5-7.5-7.5h-22.129c-4.143 0-7.5 3.358-7.5 7.5s3.358 7.5 7.5 7.5z"/><path d="m217.812 84.657h22.128c4.143 0 7.5-3.358 7.5-7.5s-3.357-7.5-7.5-7.5h-22.128c-4.143 0-7.5 3.358-7.5 7.5s3.357 7.5 7.5 7.5z"/><path d="m281.35 84.657h22.129c4.143 0 7.5-3.358 7.5-7.5s-3.357-7.5-7.5-7.5h-22.129c-4.143 0-7.5 3.358-7.5 7.5s3.357 7.5 7.5 7.5z"/><path d="m394.213 215.086v-160.84c0-10.804-8.79-19.593-19.594-19.593h-20.814c-2.562-16.656-16.992-29.453-34.355-29.453h-20.37c-4.143 0-7.5 3.358-7.5 7.5s3.357 7.5 7.5 7.5h20.37c9.055 0 16.688 6.13 19.015 14.453h-104.27c2.327-8.323 9.96-14.453 19.015-14.453h10.87c4.143 0 7.5-3.358 7.5-7.5s-3.357-7.5-7.5-7.5h-10.87c-17.363 0-31.792 12.796-34.355 29.453h-42.851c-2.563-16.655-16.992-29.45-34.354-29.45h-66.236c-17.361 0-31.789 12.795-34.353 29.45h-21.468c-10.804 0-19.593 8.789-19.593 19.593v402.891c0 10.804 8.789 19.593 19.593 19.593h18.524l7.639 20.478c2.141 5.737 7.692 9.592 13.815 9.592h31.081c6.123 0 11.675-3.854 13.816-9.592l7.639-20.478h169.997l7.639 20.476c2.139 5.739 7.691 9.594 13.816 9.594h31.08c6.125 0 11.678-3.855 13.816-9.592l7.639-20.478h18.523c10.804 0 19.594-8.789 19.594-19.593v-4.165c20.962-.206 41.475-5.909 59.396-16.552 3.562-2.115 4.734-6.717 2.619-10.278s-6.72-4.733-10.277-2.619c-15.939 9.465-34.236 14.469-52.911 14.469-57.323 0-103.96-46.636-103.96-103.96s46.637-103.96 103.96-103.96 103.962 46.636 103.962 103.959c0 25.3-9.194 49.678-25.89 68.645-2.736 3.109-2.435 7.848.675 10.585 3.107 2.738 7.848 2.435 10.585-.674 19.108-21.707 29.63-49.605 29.63-78.556 0-65.202-52.731-118.312-117.787-118.945zm-318.799-194.883h66.236c9.054 0 16.686 6.129 19.013 14.45h-104.261c2.327-8.321 9.959-14.45 19.012-14.45zm15.062 471.597h-30.728l-5.621-15.07h41.97zm243.988 0h-30.727l-5.622-15.07h41.97zm44.749-39.616v4.954c0 2.533-2.061 4.593-4.594 4.593h-355.026c-2.532 0-4.593-2.06-4.593-4.593v-50.416h44.31c4.143 0 7.5-3.358 7.5-7.5s-3.357-7.5-7.5-7.5h-44.31v-272.061h41.74c4.143 0 7.5-3.358 7.5-7.5s-3.357-7.5-7.5-7.5h-41.74v-50.415c0-2.533 2.061-4.593 4.593-4.593h355.026c2.533 0 4.594 2.06 4.594 4.593v50.415h-287.473c-4.143 0-7.5 3.358-7.5 7.5s3.357 7.5 7.5 7.5h287.473v96.218c-11.215 1.304-21.96 4.17-32.009 8.381v-41.52h5.338c6.434 0 11.667-5.234 11.667-11.667v-20.742c0-6.434-5.233-11.667-11.667-11.667h-310.871c-6.434 0-11.668 5.234-11.668 11.667v20.742c0 6.434 5.234 11.667 11.668 11.667h5.338v170.107c0 10.958 8.915 19.873 19.872 19.873h213.663c2.282 6.617 5.134 12.969 8.494 19.002h-194.728c-4.143 0-7.5 3.358-7.5 7.5s3.357 7.5 7.5 7.5h204.63c19.114 24.686 47.707 41.674 80.273 45.462zm-317.204-118.893h212.081c-.073 8.33.768 16.548 2.363 24.429h-209.572c-2.687 0-4.872-2.186-4.872-4.873zm213.114-15h-213.114v-15.003h216.107c-1.308 4.885-2.314 9.892-2.993 15.003zm-230.12-150.551v-14.077h304.206v14.077zm238.229 120.548h-221.223v-105.548h270.195v49.103c-21.791 13.022-39.089 32.81-48.972 56.445z"/><path d="m455.722 285.326c-4.087-.679-7.951 2.078-8.632 6.164l-1.646 9.864-10.567 1.763-10.917-10.918 1.763-10.566 9.865-1.646c4.086-.682 6.845-4.546 6.163-8.632-.681-4.086-4.545-6.841-8.632-6.164l-15.147 2.527c-3.16.527-5.636 3.004-6.163 6.164l-3.279 19.657c-.399 2.39.381 4.825 2.094 6.538l2.885 2.886-10.106 10.106-4.797-4.797c-2.582-2.582-6.014-4.003-9.665-4.003-3.65 0-7.082 1.421-9.664 4.003l-.695.695-8.219-8.219 1.597-1.597c2.929-2.929 2.929-7.678 0-10.606-2.93-2.929-7.678-2.929-10.607 0l-1.597 1.597-19.051-19.051c-2.93-2.929-7.678-2.929-10.607 0s-2.929 7.678 0 10.606l19.051 19.051-1.597 1.597c-2.929 2.929-2.929 7.678 0 10.606 1.465 1.464 3.385 2.197 5.304 2.197s3.839-.732 5.304-2.197l1.597-1.597 8.219 8.219-.696.696c-5.328 5.328-5.328 13.999 0 19.328l4.797 4.797-10.109 10.106-2.885-2.885c-1.714-1.713-4.151-2.492-6.538-2.095l-19.657 3.28c-3.16.527-5.637 3.004-6.163 6.164l-2.526 15.147c-.682 4.086 2.078 7.95 6.163 8.632 4.083.678 7.95-2.079 8.632-6.164l1.646-9.864 10.567-1.763 10.918 10.918-1.764 10.567-9.864 1.646c-4.086.682-6.845 4.547-6.163 8.632.662 4.108 4.64 6.858 8.632 6.164l15.146-2.527c3.16-.527 5.636-3.003 6.163-6.164l3.28-19.657c.399-2.39-.381-4.825-2.094-6.538l-2.885-2.885 10.106-10.106 34.173 34.173c4.318 4.318 9.991 6.478 15.663 6.478 5.673 0 11.346-2.159 15.664-6.478 8.637-8.637 8.637-22.689 0-31.326l-34.173-34.174 10.106-10.106 2.885 2.885c1.711 1.717 4.173 2.493 6.538 2.095l19.657-3.28c3.16-.527 5.636-3.003 6.163-6.164l2.527-15.146c.681-4.086-2.077-7.951-6.163-8.633zm-18.148 93.242c-2.786 2.788-7.324 2.79-10.112 0l-48.635-48.635 10.113-10.114 48.634 48.635c2.789 2.789 2.789 7.326 0 10.114z"/></g><g/><g/><g/><g/><g/><g/><g/><g/><g/><g/><g/><g/><g/><g/><g/></svg>