<svg clip-rule="evenodd" fill-rule="evenodd" stroke-linejoin="round" stroke-miterlimit="2" viewBox="0 0 510 510" xmlns="http://www.w3.org/2000/svg"><path d="m26.062 332.122h-3.572c-7.748 0-14.084-6.338-14.084-14.085v-15.384c0-7.747 6.336-14.085 14.084-14.085h3.572v-22.552c0-3.866 3.134-7 7-7h26.566v-223.43c0-14.762 11.948-26.822 26.71-26.964l65.186-.62c7.471-.071 13.926 2.549 19.234 7.806 5.308 5.258 7.989 11.687 7.989 19.158v23.428h7.93c3.866 0 7 3.134 7 7v17.886c16.801 8.149 28.384 25.368 28.384 45.294 0 3.866-3.134 7-7 7h-86.628c-3.866 0-7-3.134-7-7 0-19.925 11.584-37.144 28.383-45.293v-17.887c0-3.866 3.134-7 7-7h7.931v-23.428c0-3.592-1.289-6.683-3.841-9.211s-5.656-3.788-9.249-3.754l-65.185.62c-7.099.069-12.844 5.867-12.844 12.965v223.43h24.878c3.866 0 7 3.134 7 7v22.552h188.019c5.251-5.251 8.538-8.538 8.538-8.538l-11.352-25.051-19.126 19.125c-9.143 9.143-24.105 9.144-33.249 0-9.143-9.144-9.143-24.106 0-33.25l37.964-37.964-8.614-8.615c-2.734-2.733-2.734-7.166 0-9.899l23.35-23.351c2.734-2.733 7.166-2.733 9.9 0l3.012 3.013 20.582-20.582c1.313-1.313 3.093-2.05 4.95-2.05 1.856 0 3.637.737 4.95 2.05.217.218.435.435.652.652l49.535-49.535c9.871-9.87 25.973-9.87 35.842 0l67.424 67.423c9.871 9.871 9.869 25.974 0 35.844l-10.379 10.378c-2.734 2.734-7.166 2.734-9.9 0l-62.232-62.232c-1.565-1.565-4.102-1.566-5.667-.001l-31.373 31.373c3.652 3.653 7.261 7.261 10.856 10.856l18.4-18.401c2.734-2.733 7.166-2.733 9.9 0l49.261 49.261c2.733 2.734 2.733 7.166 0 9.9l-23.351 23.35-36.244 36.244h90.356c7.745 0 14.084 6.338 14.084 14.085v15.384c0 7.747-6.339 14.085-14.084 14.085h-3.573v87.483c0 26.882-21.082 48.997-47.556 50.658v10.039c0 11.933-9.765 21.698-21.699 21.698-11.932 0-21.698-9.765-21.698-21.698v-9.939h-277.429v9.939c0 11.933-9.762 21.698-21.697 21.698-11.934 0-21.698-9.765-21.698-21.698v-10.151c-25.786-2.366-46.098-24.161-46.098-50.546zm253.463-29.554h-257.035c-.047 0-.084.039-.084.085v15.384c0 .046.037.085.084.085h241.481c5.369-5.369 10.679-10.679 15.554-15.554zm-188.019-14v-15.552h-51.444v15.552zm88.171-209.685c0-3.413 0-6.489 0-6.489h-15.861v6.489c2.584-.41 5.233-.623 7.931-.623 2.699 0 5.347.213 7.93.623zm121.611 165.519 15.526 34.263c1.203 2.655.635 5.778-1.426 7.839l-84.551 84.551c-8.805 8.805-8.805 23.212 0 32.016 8.804 8.804 23.211 8.804 32.015 0l155.697-155.697c-32.219-32.219-56.85-56.85-89.069-89.069l-15.632 15.633 38.6 38.599c1.312 1.312 2.05 3.093 2.05 4.949 0 1.857-.738 3.637-2.05 4.95l-23.351 23.351c-2.734 2.733-7.166 2.733-9.9 0l-9.647-9.647zm43.693-90.394c4.613 4.612 9.08 9.079 13.452 13.451l31.372-31.372c7.03-7.033 18.433-7.034 25.466-.001l57.283 57.283 5.429-5.429c4.418-4.418 4.418-11.626 0-16.044l-67.423-67.423c-4.418-4.418-11.626-4.418-16.044 0zm44.106 44.105c12.514 12.514 25.205 25.206 39.362 39.362l13.45-13.451-39.361-39.361zm-5.933 104.455-15.553 15.554h119.909c.047 0 .084-.039.084-.085v-15.384c0-.046-.037-.085-.084-.085zm-29.554 29.554-80.848 80.848c-14.249 14.249-37.565 14.249-51.815 0-14.249-14.249-14.249-37.565 0-51.814 0 0 13.247-13.247 29.034-29.034h-209.909v87.483c0 20.245 16.513 36.758 36.759 36.758h356.358c20.246 0 36.758-16.512 36.758-36.758v-87.483zm-67.4-119.333-37.965 37.965c-3.698 3.699-3.698 9.751.001 13.451 3.699 3.698 9.752 3.698 13.45 0l37.965-37.965zm17.057-29.643c-4.325-4.325-7.271-7.271-7.271-7.271l-13.451 13.451s41.612 41.611 41.612 41.611 13.451-13.451 13.451-13.451-2.946-2.946-7.271-7.27l-6.725 6.725c-2.731 2.732-7.167 2.732-9.899 0s-2.732-7.167 0-9.899l6.725-6.726c-2.402-2.401-4.87-4.87-7.271-7.271l-6.726 6.726c-2.732 2.731-7.168 2.731-9.9-.001s-2.732-7.167 0-9.899zm119.124 287.217h-15.397v9.939c0 4.234 3.465 7.698 7.698 7.698 4.234 0 7.699-3.464 7.699-7.698zm-320.826 0h-15.395v9.939c0 4.234 3.464 7.698 7.698 7.698s7.697-3.464 7.697-7.698zm70.192-378.103c-4.399 0-8.616.781-12.518 2.214-11.764 4.32-20.672 14.554-23.122 27.1h71.28c-2.449-12.546-11.358-22.781-23.122-27.101-3.902-1.433-8.119-2.213-12.518-2.213zm225.821 144.08c6.563 6.565 6.563 17.306-.001 23.871l-109.884 109.884c-6.565 6.565-17.307 6.565-23.872 0-6.564-6.564-6.564-17.306 0-23.871l109.885-109.884c6.565-6.564 17.305-6.564 23.87-.001zm-9.9 9.9c-1.121-1.12-2.953-1.12-4.073 0l-109.884 109.883c-1.12 1.12-1.12 2.953 0 4.073 1.12 1.119 2.952 1.12 4.072 0l109.884-109.884c1.12-1.12 1.12-2.952.001-4.072zm-128.483 128.482c6.42 6.42 6.42 16.828 0 23.247-6.419 6.419-16.827 6.419-23.246 0-6.42-6.419-6.42-16.827 0-23.247 6.419-6.419 16.827-6.419 23.246 0zm-9.9 9.9c-.951-.952-2.495-.952-3.447 0s-.952 2.496 0 3.448 2.496.952 3.447 0c.953-.952.953-2.496 0-3.448zm-84.538-231.853c0-3.864 3.137-7 7-7 3.864 0 7 3.136 7 7v15.843c0 3.864-3.136 7-7 7-3.863 0-7-3.136-7-7zm31.378 0c0-3.864 3.137-7 7-7 3.864 0 7 3.136 7 7v15.843c0 3.864-3.136 7-7 7-3.863 0-7-3.136-7-7zm0 79.004c0-3.863 3.137-7 7-7 3.864 0 7 3.137 7 7v15.844c0 3.863-3.136 7-7 7-3.863 0-7-3.137-7-7zm0-39.502c0-3.864 3.137-7 7-7 3.864 0 7 3.136 7 7v15.843c0 3.864-3.136 7-7 7-3.863 0-7-3.136-7-7zm-62.756-39.502c0-3.864 3.137-7 7-7 3.864 0 7 3.136 7 7v15.843c0 3.864-3.136 7-7 7-3.863 0-7-3.136-7-7zm0 79.004c0-3.863 3.137-7 7-7 3.864 0 7 3.137 7 7v15.844c0 3.863-3.136 7-7 7-3.863 0-7-3.137-7-7zm0-39.502c0-3.864 3.137-7 7-7 3.864 0 7 3.136 7 7v15.843c0 3.864-3.136 7-7 7-3.863 0-7-3.136-7-7zm31.378 39.502c0-3.863 3.137-7 7-7 3.864 0 7 3.137 7 7v15.844c0 3.863-3.136 7-7 7-3.863 0-7-3.137-7-7zm0-39.502c0-3.864 3.137-7 7-7 3.864 0 7 3.136 7 7v15.843c0 3.864-3.136 7-7 7-3.863 0-7-3.136-7-7z"/></svg>