<svg id="Capa_1" enable-background="new 0 0 512 512" height="512" viewBox="0 0 512 512" width="512" xmlns="http://www.w3.org/2000/svg"><g><path d="m133.508 15h20.844v22.32c0 4.142 3.358 7.5 7.5 7.5s7.5-3.358 7.5-7.5v-29.82c0-4.142-3.358-7.5-7.5-7.5h-28.344c-4.142 0-7.5 3.358-7.5 7.5s3.358 7.5 7.5 7.5z"/><path d="m42.602 44.82c4.142 0 7.5-3.358 7.5-7.5v-22.32h20.843c4.142 0 7.5-3.358 7.5-7.5s-3.358-7.5-7.5-7.5h-28.343c-4.142 0-7.5 3.358-7.5 7.5v29.82c0 4.142 3.357 7.5 7.5 7.5z"/><path d="m32.886 353.897v-51.198c0-13.276 6.289-26.023 16.822-34.1.48-.484 15.155-9.682 16.155-10.353v94.963c0 4.142 3.358 7.5 7.5 7.5s7.5-3.358 7.5-7.5v-148.449c0-4.142-3.358-7.5-7.5-7.5s-7.5 3.358-7.5 7.5v35.839c-2.956 1.637-22.845 14.301-25.282 16.097-14.211 10.896-22.695 28.093-22.695 46.003v51.198c0 23.194 8.627 45.389 24.293 62.495 16.156 17.641 25.053 40.53 25.053 64.451v23.657c0 4.142 3.358 7.5 7.5 7.5s7.5-3.358 7.5-7.5v-23.658c0-27.681-10.296-54.167-28.991-74.582-13.126-14.332-20.355-32.928-20.355-52.363z"/><path d="m388.544 356.6h-143.65c-1.688 0-3.06-1.373-3.06-3.06v-20.64c0-4.142-3.358-7.5-7.5-7.5s-7.5 3.358-7.5 7.5v20.64c0 9.958 8.102 18.06 18.06 18.06h51.565c-2.476 16.493-8.045 32.131-16.611 46.555-13.289 22.376-20.261 47.96-20.164 73.956v12.389c0 4.142 3.358 7.5 7.5 7.5s7.5-3.358 7.5-7.5v-12.417c-.087-23.311 6.158-46.226 18.062-66.269 9.95-16.755 16.29-34.975 18.873-54.214h76.925c4.142 0 7.5-3.358 7.5-7.5s-3.358-7.5-7.5-7.5z"/><path d="m476.054 75.9h-231.16c-9.958 0-18.06 8.102-18.06 18.06v67.788c-2.237-.416-4.519-.638-6.84-.638-8.899 0-17.075 3.149-23.478 8.388-4.334-15.7-18.735-27.267-35.795-27.267-8.289 0-15.952 2.731-22.138 7.339v-22.337h23.268c4.142 0 7.5-3.358 7.5-7.5v-29.82c0-4.142-3.358-7.5-7.5-7.5s-7.5 3.358-7.5 7.5v22.32h-15.768v-31.313c0-20.049-16.311-36.36-36.36-36.36-9.703 0-18.833 3.779-25.719 10.651-6.862 6.876-10.642 16.006-10.642 25.708v31.313h-15.76v-22.32c0-4.142-3.358-7.5-7.5-7.5s-7.5 3.358-7.5 7.5v29.82c0 4.142 3.358 7.5 7.5 7.5h23.262v42.526c0 4.142 3.358 7.5 7.5 7.5s7.5-3.358 7.5-7.5v-88.838c0-5.701 2.223-11.068 6.249-15.102 4.043-4.036 9.41-6.258 15.112-6.258 11.778 0 21.36 9.582 21.36 21.36v180.87c0 4.142 3.358 7.5 7.5 7.5s7.5-3.358 7.5-7.5c.001-.008-.003-82.411.001-82.423 0-12.206 9.93-22.136 22.136-22.136s22.136 9.93 22.136 22.136v101.299c0 4.142 3.358 7.5 7.5 7.5s7.5-3.358 7.5-7.5v-82.42c0-12.206 9.93-22.137 22.136-22.137 2.357 0 4.647.368 6.84 1.081v120.71c0 4.142 3.358 7.5 7.5 7.5s7.5-3.358 7.5-7.5v-203.94c0-1.688 1.373-3.06 3.06-3.06h231.16c1.688 0 3.06 1.373 3.06 3.06v20.77c0 4.142 3.358 7.5 7.5 7.5s7.5-3.358 7.5-7.5v-20.77c0-9.959-8.102-18.06-18.06-18.06z"/><path d="m486.614 142.23c-4.142 0-7.5 3.358-7.5 7.5v203.81c0 1.688-1.373 3.06-3.06 3.06h-52.51c-4.142 0-7.5 3.358-7.5 7.5s3.358 7.5 7.5 7.5h52.51c9.958 0 18.06-8.102 18.06-18.06v-203.81c0-4.142-3.358-7.5-7.5-7.5z"/><path d="m284.273 295.482c-2.929-2.929-7.678-2.929-10.606 0-2.929 2.929-2.929 7.678 0 10.606 13.627 13.627 31.52 20.442 49.402 20.442 17.834 0 35.659-6.781 49.223-20.345 26.267-26.267 27.307-68.449 2.368-96.032-2.777-3.073-7.521-3.312-10.593-.533-3.073 2.778-3.312 7.521-.533 10.593 19.575 21.65 18.763 54.755-1.848 75.366-21.316 21.317-56.042 21.274-77.413-.097z"/><path d="m433.806 314.247c.987.437 2.016.643 3.03.643 2.878 0 5.624-1.667 6.863-4.468 10.658-24.092 13.829-50.596 9.169-76.648-4.767-26.656-17.462-50.922-36.713-70.172-13.21-13.211-30.762-20.491-49.403-20.49-18.591 0-36.07 7.241-49.221 20.392-27.164 27.164-27.121 71.407.097 98.625 2.928 2.929 7.677 2.929 10.606 0s2.929-7.678 0-10.606c-21.369-21.37-21.413-56.097-.097-77.412 10.318-10.318 24.03-15.999 38.615-15.999 14.635-.001 28.419 5.718 38.796 16.096 34.539 34.539 44.129 85.624 24.433 130.146-1.675 3.788.037 8.217 3.825 9.893z"/><path d="m383.498 335.514c1.721 0 3.45-.589 4.862-1.792 19.455-16.504 32.102-40.334 34.847-65.647.452-4.117-2.52-7.821-6.637-8.273-4.109-.455-7.821 2.52-8.273 6.637-2.327 21.777-12.958 41.647-29.667 55.867-3.152 2.687-3.53 7.421-.843 10.573 1.484 1.741 3.59 2.635 5.711 2.635z"/><path d="m295.501 141.475c-39.284 39.284-39.218 103.27.146 142.634 7.545 7.545 17.451 11.318 27.353 11.317 9.877 0 19.75-3.756 27.263-11.269 7.294-7.294 11.306-16.992 11.294-27.306-.012-10.308-4.04-20.007-11.343-27.31-4.475-4.475-6.943-10.413-6.95-16.72-.007-6.301 2.444-12.226 6.901-16.683 4.451-4.451 10.365-6.901 16.656-6.901 6.316 0 12.266 2.469 16.747 6.95 9.886 9.886 17.281 22.107 21.384 35.341 1.227 3.957 5.426 6.168 9.385 4.942 3.957-1.227 6.169-5.429 4.942-9.385-4.822-15.552-13.503-29.904-25.105-41.505-7.313-7.314-17.032-11.344-27.354-11.343-10.297 0-19.978 4.01-27.262 11.294-7.295 7.294-11.306 16.992-11.294 27.306.011 10.308 4.04 20.006 11.343 27.31 4.475 4.475 6.942 10.412 6.95 16.72.007 6.301-2.444 12.226-6.901 16.683-9.196 9.195-24.181 9.173-33.403-.048-33.516-33.517-33.582-87.986-.146-121.421 33.436-33.436 87.905-33.37 121.421.146 2.929 2.929 7.678 2.929 10.606 0 2.929-2.929 2.929-7.678 0-10.606-39.363-39.365-103.349-39.431-142.633-.146z"/></g></svg>