<svg id="Layer_1" enable-background="new 0 0 64 64" height="512" viewBox="0 0 64 64" width="512" xmlns="http://www.w3.org/2000/svg"><g><g><path d="m58.44 64h-52.88c-.27 0-.49-.22-.49-.49s.22-.49.49-.49h52.89c.27 0 .49.22.49.49s-.22.49-.5.49z"/></g><g><g><path d="m18.04 45.24h-9.75c-.17 0-.33-.09-.42-.24l-1.4-2.31c-.05-.08-.07-.16-.07-.25v-3.59c0-.27.22-.49.49-.49s.49.22.49.49v3.46l1.19 1.96h9.19l1.19-1.96v-3.46c0-.27.22-.49.49-.49s.49.22.49.49v3.59c0 .09-.02.18-.07.25l-1.4 2.31c-.09.15-.25.24-.42.24z"/></g><g><g><path d="m16.9 29.2c-.02 0-.05 0-.07 0-2.43-.34-4.89-.34-7.33 0-.19.03-.38-.06-.48-.22l-1.14-1.77c-.05-.08-.08-.17-.08-.27v-1.95c0-.23.16-.43.39-.48 3.3-.72 6.65-.72 9.96 0 .23.05.39.25.39.48v1.95c0 .09-.03.19-.08.27l-1.14 1.77c-.1.14-.26.22-.42.22zm-8.12-2.4.89 1.38c2.32-.29 4.66-.29 6.97 0l.89-1.38v-1.4c-2.91-.58-5.85-.58-8.76 0v1.4z"/></g><g><path d="m18.04 27.44c-.03 0-.07 0-.1-.01-3.16-.69-6.37-.69-9.54 0-.26.06-.53-.11-.59-.38s.11-.53.38-.59c3.3-.72 6.65-.72 9.96 0 .27.06.43.32.38.59-.06.23-.26.39-.49.39z"/></g></g><g><path d="m19.44 39.88h-12.55c-.27 0-.49-.22-.49-.49s.22-.49.49-.49h12.55c.27 0 .49.22.49.49s-.22.49-.49.49z"/></g><g><path d="m19.44 42.92h-12.55c-.27 0-.49-.22-.49-.49s.22-.49.49-.49h12.55c.27 0 .49.22.49.49s-.22.49-.49.49z"/></g><g><g><path d="m8.29 64c-.27 0-.49-.22-.49-.49v-18.76c0-.27.22-.49.49-.49s.49.22.49.49v18.76c0 .27-.22.49-.49.49z"/></g><g><path d="m18.04 64c-.27 0-.49-.22-.49-.49v-18.76c0-.27.22-.49.49-.49s.49.22.49.49v18.76c0 .27-.22.49-.49.49z"/></g></g><g><g><path d="m16.41 17.66c-.02 0-.05 0-.07 0-2.11-.29-4.24-.29-6.35 0-.19.03-.38-.06-.48-.22l-.99-1.54c-.05-.08-.08-.17-.08-.27v-1.69c0-.23.16-.43.39-.48 2.88-.63 5.8-.63 8.67 0 .23.05.39.25.39.48v1.69c0 .09-.03.19-.08.27l-.99 1.53c-.09.15-.25.23-.41.23zm-6.98-2.17.74 1.15c1.99-.25 4-.25 5.99 0l.74-1.15v-1.15c-2.48-.49-5-.49-7.48 0v1.15z"/></g><g><path d="m17.4 16.13c-.03 0-.07 0-.1-.01-2.74-.6-5.52-.6-8.25 0-.26.06-.53-.11-.59-.38s.11-.53.38-.59c2.88-.63 5.8-.63 8.67 0 .27.06.43.32.38.59-.06.23-.27.39-.49.39z"/></g></g><g><path d="m15.6 14.14c-.27 0-.49-.22-.49-.49v-4.12c0-.52-.2-1.01-.57-1.39-.37-.36-.86-.56-1.37-.56-1.08 0-1.95.88-1.95 1.95v4.11c0 .27-.22.49-.49.49s-.49-.22-.49-.49v-4.11c0-1.62 1.32-2.94 2.94-2.94.77 0 1.51.3 2.07.85.56.57.86 1.31.86 2.09v4.11c-.01.28-.23.5-.51.5z"/></g><g><path d="m14.34 7.88c-.27 0-.49-.22-.49-.49v-1.25c0-.37-.3-.68-.68-.68s-.69.3-.69.68v1.25c0 .27-.22.49-.49.49s-.49-.22-.49-.49v-1.25c0-.92.75-1.66 1.67-1.66s1.66.75 1.66 1.66v1.25c0 .27-.22.49-.49.49z"/></g><g><path d="m13.17 5.46c-.27 0-.49-.22-.49-.49v-4.48c0-.27.22-.49.49-.49s.49.22.49.49v4.48c0 .27-.22.49-.49.49z"/></g><g><path d="m16.9 39.88c-.27 0-.49-.22-.49-.49v-10.68c0-.27.22-.49.49-.49s.49.22.49.49v10.68c0 .27-.22.49-.49.49z"/></g><g><path d="m9.43 39.88c-.27 0-.49-.22-.49-.49v-10.68c0-.27.22-.49.49-.49s.49.22.49.49v10.68c.01.27-.21.49-.49.49z"/></g><g><path d="m16.41 25.17c-.27 0-.49-.22-.49-.49v-7.51c0-.27.22-.49.49-.49s.49.22.49.49v7.51c0 .27-.22.49-.49.49z"/></g><g><path d="m9.93 25.19c-.27 0-.49-.22-.49-.49v-7.53c0-.27.22-.49.49-.49s.49.22.49.49v7.53c0 .27-.22.49-.49.49z"/></g><g><path d="m53.09 53.77h-32.48c-.27 0-.49-.22-.49-.49s.22-.49.49-.49h32.48c.27 0 .49.22.49.49s-.22.49-.49.49z"/></g><g><path d="m54.11 58.81h-34.52c-.27 0-.49-.22-.49-.49s.22-.49.49-.49h34.52c.27 0 .49.22.49.49s-.22.49-.49.49z"/></g><g><g><g><path d="m55.66 64c-.27 0-.49-.22-.49-.49v-3.97l-1.31-.8c-.15-.09-.24-.25-.24-.42v-3.79l-.88-.9c-.09-.09-.14-.21-.14-.34l-.03-3.25c.03-10.21-8.95-15.11-12.78-17.21-.98-.54-1.47-.81-1.69-1.06-.18-.2-.33-.46-.49-.72-.2-.34-.42-.73-.76-1.07-.34.34-.56.72-.76 1.07-.15.27-.3.52-.49.72-.23.25-.71.52-1.69 1.06-3.83 2.09-12.8 7-12.78 17.2l-.03 3.25c0 .13-.05.25-.14.34l-.88.9v3.79c0 .17-.09.33-.23.42l-1.55.97c-.23.14-.53.08-.68-.16-.14-.23-.07-.53.16-.68l1.32-.82v-3.72c0-.13.05-.25.14-.34l.88-.91.03-3.05c-.03-10.78 9.3-15.89 13.29-18.06.64-.35 1.31-.72 1.44-.86.11-.13.23-.32.36-.56.28-.49.64-1.1 1.31-1.62.18-.14.42-.14.6 0 .67.52 1.03 1.13 1.31 1.62.13.23.25.43.36.55.13.14.79.5 1.44.86 3.98 2.18 13.32 7.28 13.29 18.07l.03 3.04.88.91c.09.09.14.22.14.34v3.71l1.31.8c.15.09.24.25.24.42v4.25c0 .29-.22.51-.49.51z"/></g></g><g><path d="m36.9 32.28c-.62 0-1.25-.09-1.88-.27-.26-.07-.41-.35-.34-.61s.35-.41.61-.34c1.07.31 2.13.31 3.15.01.26-.08.53.07.61.33s-.07.53-.33.61c-.61.18-1.21.27-1.82.27z"/></g><g><path d="m36.85 29.81c-.27 0-.49-.22-.49-.49v-4.6c0-.27.22-.49.49-.49s.49.22.49.49v4.6c0 .27-.22.49-.49.49z"/></g></g><g><g><path d="m18.04 48.7c-.09 0-.17-.02-.25-.07l-1.37-.82-1.37.82c-.16.09-.35.09-.51 0l-1.37-.82-1.37.82c-.16.09-.35.09-.51 0l-1.37-.83-1.38.82c-.23.14-.54.06-.68-.17s-.06-.54.17-.67l1.63-.98c.16-.09.35-.09.51 0l1.37.82 1.37-.82c.16-.09.35-.09.51 0l1.37.82 1.37-.82c.16-.09.35-.09.51 0l1.62.98c.23.14.31.44.17.68-.09.15-.26.24-.42.24z"/></g></g><g><g><path d="m18.04 51.7c-.09 0-.17-.02-.25-.07l-1.37-.82-1.37.82c-.16.09-.35.09-.51 0l-1.37-.82-1.37.82c-.16.09-.35.09-.51 0l-1.37-.82-1.38.82c-.23.14-.54.06-.68-.17s-.06-.54.17-.68l1.63-.97c.16-.09.35-.09.51 0l1.37.82 1.37-.82c.16-.09.35-.09.51 0l1.37.82 1.37-.82c.16-.09.35-.09.51 0l1.62.97c.23.14.31.44.17.68-.09.16-.26.24-.42.24z"/></g></g><g><g><path d="m18.04 54.71c-.09 0-.17-.02-.25-.07l-1.37-.82-1.37.82c-.16.09-.35.09-.51 0l-1.37-.82-1.37.82c-.16.09-.35.09-.51 0l-1.37-.82-1.38.82c-.23.14-.54.07-.68-.17-.14-.23-.06-.54.17-.67l1.63-.97c.16-.09.35-.09.51 0l1.37.82 1.37-.82c.16-.09.35-.09.51 0l1.37.82 1.37-.82c.16-.09.35-.09.51 0l1.62.97c.23.14.31.44.17.68-.09.14-.26.23-.42.23z"/></g></g><g><g><path d="m8.29 57.72c-.17 0-.33-.09-.42-.24-.14-.23-.06-.54.17-.68l1.63-.97c.16-.09.35-.09.51 0l1.37.82 1.37-.82c.16-.09.35-.09.51 0l1.37.82 1.37-.82c.16-.09.35-.09.51 0l1.62.97c.23.14.31.44.17.68-.14.23-.44.31-.68.17l-1.37-.82-1.37.82c-.16.09-.35.09-.51 0l-1.37-.82-1.37.82c-.16.09-.35.09-.51 0l-1.37-.82-1.38.82c-.07.04-.16.07-.25.07z"/></g></g><g><g><path d="m8.29 60.72c-.17 0-.33-.09-.42-.24-.14-.23-.06-.54.17-.68l1.63-.97c.16-.09.35-.09.51 0l1.37.82 1.37-.82c.16-.09.35-.09.51 0l1.37.82 1.37-.82c.16-.09.35-.09.51 0l1.62.97c.23.14.31.44.17.68-.14.23-.44.31-.68.17l-1.37-.82-1.37.82c-.16.09-.35.09-.51 0l-1.37-.82-1.37.82c-.16.09-.35.09-.51 0l-1.37-.82-1.38.82c-.07.05-.16.07-.25.07z"/></g></g></g><g><g><path d="m23.57 64c-.27 0-.49-.22-.49-.49v-1.96c0-.58-.41-1.05-.91-1.05s-.91.47-.91 1.05v1.96c0 .27-.22.49-.49.49s-.49-.22-.49-.49v-1.96c0-1.12.85-2.03 1.89-2.03s1.89.91 1.89 2.03v1.96c0 .27-.22.49-.49.49z"/></g><g><path d="m29.46 64c-.27 0-.49-.22-.49-.49v-1.96c0-.58-.41-1.05-.91-1.05s-.91.47-.91 1.05v1.96c0 .27-.22.49-.49.49s-.49-.22-.49-.49v-1.96c0-1.12.85-2.03 1.89-2.03s1.89.91 1.89 2.03v1.96c.01.27-.21.49-.49.49z"/></g><g><path d="m35.36 64c-.27 0-.49-.22-.49-.49v-1.96c0-.58-.41-1.05-.91-1.05s-.91.47-.91 1.05v1.96c0 .27-.22.49-.49.49s-.49-.22-.49-.49v-1.96c0-1.12.85-2.03 1.89-2.03s1.89.91 1.89 2.03v1.96c0 .27-.22.49-.49.49z"/></g><g><path d="m41.26 64c-.27 0-.49-.22-.49-.49v-1.96c0-.58-.41-1.05-.91-1.05s-.91.47-.91 1.05v1.96c0 .27-.22.49-.49.49s-.49-.22-.49-.49v-1.96c0-1.12.85-2.03 1.89-2.03s1.89.91 1.89 2.03v1.96c0 .27-.22.49-.49.49z"/></g><g><path d="m47.16 64c-.27 0-.49-.22-.49-.49v-1.96c0-.58-.41-1.05-.91-1.05s-.91.47-.91 1.05v1.96c0 .27-.22.49-.49.49s-.49-.22-.49-.49v-1.96c0-1.12.85-2.03 1.89-2.03s1.89.91 1.89 2.03v1.96c0 .27-.22.49-.49.49z"/></g><g><path d="m53.05 64c-.27 0-.49-.22-.49-.49v-1.96c0-.58-.41-1.05-.91-1.05s-.91.47-.91 1.05v1.96c0 .27-.22.49-.49.49s-.49-.22-.49-.49v-1.96c0-1.12.85-2.03 1.89-2.03s1.89.91 1.89 2.03v1.96c.01.27-.21.49-.49.49z"/></g></g><g><g><path d="m26.04 58.81c-.27 0-.49-.22-.49-.49v-2.1c0-.51-.4-.93-.89-.93s-.89.42-.89.93v2.1c0 .27-.22.49-.49.49s-.49-.22-.49-.49v-2.1c0-1.06.84-1.92 1.88-1.92s1.88.86 1.88 1.92v2.1c-.02.27-.24.49-.51.49z"/></g><g><path d="m31.88 58.81c-.27 0-.49-.22-.49-.49v-2.1c0-.51-.4-.93-.89-.93s-.89.42-.89.93v2.1c0 .27-.22.49-.49.49s-.49-.22-.49-.49v-2.1c0-1.06.84-1.92 1.88-1.92s1.88.86 1.88 1.92v2.1c-.02.27-.24.49-.51.49z"/></g><g><path d="m37.72 58.81c-.27 0-.49-.22-.49-.49v-2.1c0-.51-.4-.93-.89-.93s-.89.42-.89.93v2.1c0 .27-.22.49-.49.49s-.49-.22-.49-.49v-2.1c0-1.06.84-1.92 1.88-1.92s1.88.86 1.88 1.92v2.1c-.02.27-.24.49-.51.49z"/></g><g><path d="m43.56 58.81c-.27 0-.49-.22-.49-.49v-2.1c0-.51-.4-.93-.89-.93s-.89.42-.89.93v2.1c0 .27-.22.49-.49.49s-.49-.22-.49-.49v-2.1c0-1.06.84-1.92 1.88-1.92s1.88.86 1.88 1.92v2.1c-.02.27-.24.49-.51.49z"/></g><g><path d="m49.4 58.81c-.27 0-.49-.22-.49-.49v-2.1c0-.51-.4-.93-.89-.93s-.89.42-.89.93v2.1c0 .27-.22.49-.49.49s-.49-.22-.49-.49v-2.1c0-1.06.84-1.92 1.88-1.92s1.88.86 1.88 1.92v2.1c-.02.27-.24.49-.51.49z"/></g></g></g></svg>