<svg id="Layer_1" viewBox="0 0 64 64" xmlns="http://www.w3.org/2000/svg" data-name="Layer 1"><path d="m18.34 35.26v.69h-4.41c-.55 0-1 .45-1 1v5.18c0 .55.45 1 1 1h1.53v17.87c0 .55.45 1 1 1h31.08c.55 0 1-.45 1-1v-17.87h1.53c.55 0 1-.45 1-1v-5.18c0-.55-.45-1-1-1h-4.41v-.69c0-6.56-4.69-12.16-11.03-13.39v-3.51c1.56-.32 3.01-1.09 4.16-2.24 1.56-1.57 2.42-3.65 2.42-5.84 0-.46-.32-.86-.77-.97s-.91.1-1.12.51c-.23.44-.51.84-.85 1.18-1.73 1.73-4.53 1.73-6.26 0-.84-.83-1.3-1.94-1.3-3.12s.46-2.29 1.31-3.14c.34-.35.73-.63 1.17-.84.42-.2.65-.66.55-1.12-.11-.45-.51-.78-.97-.78h-.05c-2.19 0-4.26.86-5.84 2.42-3.22 3.23-3.22 8.48.01 11.7.66.66 1.4 1.18 2.22 1.58v4.18c-6.31 1.26-10.97 6.86-10.97 13.38zm28.2 24.74h-8.71v-8.67c0-3.21-2.61-5.83-5.83-5.83s-5.83 2.62-5.83 5.83v8.67h-8.71v-16.87h29.08zm2.53-22.05v3.18h-34.14v-3.18zm-18.62-14.24c.57-.08 1.16-.1 1.76-.09.43.01.85.02 1.29.08 5.79.74 10.16 5.71 10.16 11.56v.69h-23.32v-.69c0-5.82 4.34-10.79 10.11-11.55z"/></svg>