<?xml version="1.0" encoding="UTF-8"?>
<svg xmlns="http://www.w3.org/2000/svg" id="Icons" viewBox="0 0 60 60" width="512" height="512"><path d="M53,10H40.56L41.8,8.639c3.66-4.7-1.686-10.159-6.5-6.393L31.27,5.9,16.58,3.176a1.973,1.973,0,0,0-1.786.549l-.835.835a1.994,1.994,0,0,0,.473,3.181L18.7,10H7a7.008,7.008,0,0,0-7,7V56a4,4,0,0,0,4,4H56a4,4,0,0,0,4-4V17A7.008,7.008,0,0,0,53,10ZM36.59,3.776A3.641,3.641,0,0,1,38.682,3a2.326,2.326,0,0,1,2.289,2.691,3.747,3.747,0,0,1-.7,1.659l-5.383,5.9c-.773.993-.2.426-15.065,11.877a.682.682,0,0,1-.957-.955C30.547,8.966,29.726,9.863,30.779,9.036ZM13.133,18c.293.318.038.118,5.346,3.395l-1.2,1.561a2.682,2.682,0,0,0,3.764,3.757L22.621,25.5l3.008,4.915a1.988,1.988,0,0,0,1.708.955A2.161,2.161,0,0,0,29.4,28.8l-1.7-7.2,3.073-2.366,5.461,10.312A1.978,1.978,0,0,0,38,30.606c1.03,0,1.514-.692,2.2-1.383a2.009,2.009,0,0,0,.552-1.77L39.037,18H51a3,3,0,0,1,3,3v9a3,3,0,0,1-3,3H9a3,3,0,0,1-3-3V21a3,3,0,0,1,3-3Zm7.89.078L19.7,19.8,14.6,16.649l.12-.123Zm4.935,4.853,1.5,6.318-.119.124-3.121-5.1ZM36.382,14.58l2.411,13.229-.792.8L32.378,17.989C34.657,16.234,35.542,15.655,36.382,14.58ZM16.2,5.14,29.4,7.586c-1.045.837-1.26,1.206-3.412,4.013L15.373,5.974ZM6,47h9v4H6Zm9-2H6V41a1,1,0,0,1,1-1h7a1,1,0,0,1,1,1ZM6,53h9v5H6ZM38,40a1,1,0,0,1,1,1V58H31V51h1a1,1,0,0,0,0-2H31V40Zm-9,9H28a1,1,0,0,0,0,2h1v7H21V41a1,1,0,0,1,1-1h7Zm16-2h9v4H45Zm9-2H45V41a1,1,0,0,1,1-1h7a1,1,0,0,1,1,1Zm-9,8h9v5H45Zm13,3a2,2,0,0,1-2,2V41a3,3,0,0,0-3-3H46a3,3,0,0,0-3,3V58H41V41a3,3,0,0,0-3-3H22a3,3,0,0,0-3,3V58H17V41a3,3,0,0,0-3-3H7a3,3,0,0,0-3,3V58a2,2,0,0,1-2-2V17a5.006,5.006,0,0,1,5-5H22.474l2.283,1.209L22.616,16H20.949L15.2,14.584A2.175,2.175,0,0,0,12.705,16H9a5.006,5.006,0,0,0-5,5v9a5.006,5.006,0,0,0,5,5H51a5.006,5.006,0,0,0,5-5V21a5.006,5.006,0,0,0-5-5H38.673l-.6-3.277L38.735,12H53a5.006,5.006,0,0,1,5,5Z"/><path d="M51.293,23.707a1,1,0,0,0,1.414-1.414l-3-3a1,1,0,0,0-1.414,1.414Z"/><path d="M50.293,28.707a1,1,0,0,0,1.414-1.414l-7-7a1,1,0,0,0-1.414,1.414Z"/></svg>
