<svg id="Outline" viewBox="0 0 64 64" xmlns="http://www.w3.org/2000/svg"><g fill="#333"><path d="m61 34h-15v-22.37l5.3-1.63a1 1 0 0 0 0-1.9l-19-6a.88.88 0 0 0 -.6 0l-19 6a1 1 0 0 0 -.7.9v13.38l-1.45.73a1 1 0 0 0 -.55.89v5a1 1 0 0 0 1 1h4a1 1 0 0 0 1-1v-5a1 1 0 0 0 -.55-.89l-1.45-.73v-12l4 1.27v22.35h-15a1 1 0 0 0 -1 1v26a1 1 0 0 0 1 1h58a1 1 0 0 0 1-1v-26a1 1 0 0 0 -1-1zm-47-6h-2v-3.38l1-.5 1 .5zm18-23.95 15.68 4.95-15.68 5-15.68-5zm-.3 11.95a.92.92 0 0 0 .6 0l11.7-3.74v8l-12 3.74-12-3.74v-8zm-27.7 20h14v24h-14zm16-1v-12.65l11.71 3.65a1.07 1.07 0 0 0 .58 0l11.71-3.65v37.65h-3v-13a1 1 0 0 0 -1-1h-16a1 1 0 0 0 -1 1v13h-3zm5 13h6v12h-6zm8 12v-12h6v12zm27 0h-14v-24h14z"/><path d="m31 18h2v2h-2z"/><path d="m35 18h2v2h-2z"/><path d="m27 18h2v2h-2z"/><path d="m24 36h6a1 1 0 0 0 1-1v-4a1 1 0 0 0 -1-1h-6a1 1 0 0 0 -1 1v4a1 1 0 0 0 1 1zm1-4h4v2h-4z"/><path d="m34 36h6a1 1 0 0 0 1-1v-4a1 1 0 0 0 -1-1h-6a1 1 0 0 0 -1 1v4a1 1 0 0 0 1 1zm1-4h4v2h-4z"/><path d="m24 44h6a1 1 0 0 0 1-1v-4a1 1 0 0 0 -1-1h-6a1 1 0 0 0 -1 1v4a1 1 0 0 0 1 1zm1-4h4v2h-4z"/><path d="m34 44h6a1 1 0 0 0 1-1v-4a1 1 0 0 0 -1-1h-6a1 1 0 0 0 -1 1v4a1 1 0 0 0 1 1zm1-4h4v2h-4z"/><path d="m14 38h-6a1 1 0 0 0 -1 1v4a1 1 0 0 0 1 1h6a1 1 0 0 0 1-1v-4a1 1 0 0 0 -1-1zm-1 4h-4v-2h4z"/><path d="m14 46h-6a1 1 0 0 0 -1 1v4a1 1 0 0 0 1 1h6a1 1 0 0 0 1-1v-4a1 1 0 0 0 -1-1zm-1 4h-4v-2h4z"/><path d="m51 44h6a1 1 0 0 0 1-1v-4a1 1 0 0 0 -1-1h-6a1 1 0 0 0 -1 1v4a1 1 0 0 0 1 1zm1-4h4v2h-4z"/><path d="m51 52h6a1 1 0 0 0 1-1v-4a1 1 0 0 0 -1-1h-6a1 1 0 0 0 -1 1v4a1 1 0 0 0 1 1zm1-4h4v2h-4z"/><path d="m7 54h8v2h-8z"/><path d="m50 54h8v2h-8z"/></g></svg>