<svg id="Layer_1" height="512" viewBox="0 0 512 512" width="512" xmlns="http://www.w3.org/2000/svg"><g fill="#2c3639"><path d="m160.34 203.01c3.87 0 7-3.13 7-7v-1.68c0-24.77 20.15-44.92 44.92-44.92h13.2c10.04 0 19.42-2.9 27.35-7.9-3.92 6.57-6.17 14.24-6.17 22.43 0 14.63 7.19 27.6 18.22 35.59-16.39 7.58-29.02 22.24-33.6 40.68-.93 3.75 1.35 7.55 5.1 8.48 3.75.94 7.55-1.35 8.48-5.1 5.23-21.03 24.04-35.71 45.74-35.71 25.99 0 47.13 21.14 47.13 47.13v45c0 3.87 3.13 7 7 7s7-3.13 7-7v-45c0-24.54-14.54-45.73-35.45-55.45 11.05-7.99 18.26-20.97 18.26-35.62 0-8.19-2.26-15.86-6.17-22.43 7.93 5 17.3 7.9 27.35 7.9h.08 13.12c18.09 0 34.33 10.77 41.39 27.44 0 .02.02.04.02.05 2.33 5.52 3.51 11.38 3.51 17.43v105.68c0 3.87 3.13 7 7 7s7-3.13 7-7v-105.68c0-7.43-1.38-14.66-4.07-21.5v-81.81c0-18.18-7.08-35.27-19.93-48.12-12.84-12.85-29.93-19.93-48.11-19.93-37.52 0-68.05 30.53-68.05 68.05v29.08c-6.89.46-13.35 2.51-19.01 5.79 5.22-8.05 8.27-17.63 8.27-27.91 0-28.36-23.07-51.43-51.43-51.43s-51.43 23.07-51.43 51.43c0 16.4 7.72 31.01 19.71 40.44-23.43 7.79-40.38 29.9-40.38 55.91v1.68c0 3.87 3.13 7 7 7zm195.42-67.6h-.08s-.02 0-.03 0c-18.24-.01-33.47-13.13-36.75-30.43h.11c13.92.21 23.97-3.37 29.86-10.65 1.11-1.37 2-2.78 2.7-4.19 6.61 5.15 13.32 8.43 19.09 10.52 9.08 3.28 17.13 4.13 21.81 4.31-3.28 17.28-18.48 30.4-36.69 30.44zm-54.13-44.39c0-29.8 24.25-54.05 54.05-54.05 14.44 0 28.01 5.62 38.21 15.83 10.21 10.21 15.83 23.78 15.83 38.22v60.82c-6.32-6.08-13.94-10.67-22.3-13.44 11.97-9.43 19.69-24.04 19.69-40.42 0-3.87-3.13-7-7-7h-3.9c-.16 0-.32 0-.48.02-.37.03-36.99 2.09-53.47-35.6-1.55-3.54-5.68-5.16-9.22-3.61s-5.16 5.68-3.61 9.22c3.06 7 6.71 12.87 10.65 17.79.02 1.75-.3 4.54-2.19 6.82-3.04 3.65-9.52 5.51-18.72 5.36-.04 0-.08 0-.11 0h-7.82c-3.87 0-7 3.13-7 7 0 10.29 3.05 19.87 8.27 27.91-3.37-1.95-7.02-3.48-10.88-4.48zm-11.07 42.97c16.51 0 29.94 13.43 29.94 29.94s-13.43 29.94-29.94 29.94-29.94-13.43-29.94-29.94 13.43-29.94 29.94-29.94zm-102.55-36.02c0-20.64 16.79-37.43 37.43-37.43s37.43 16.79 37.43 37.43-16.79 37.43-37.43 37.43-37.43-16.79-37.43-37.43z"/><path d="m429.19 380.66c-4.38-5.87-10.36-9.78-16.85-11.01-6.93-1.31-14.59.06-23.33 4.15l-62.45 28.18c.05-.54.1-1.06.15-1.56.31-3.37-.09-7.03-1.18-10.89-2.33-8.26-7.65-15.06-14.58-18.66-.13-.07-.18-.09-.31-.15-.72-.33-20.67-9.74-28.27-13.32l-46.49-22.21c-3.1-1.53-6.53-2.3-10.18-2.3-13.53 0-26.67 6.19-36.08 16.99-2.32 2.67-4.45 5.65-6.21 8.7l-34.93 25.1c-3.14 2.26-3.86 6.63-1.6 9.77s6.63 3.85 9.77 1.6l36.19-26.01c.87-.62 1.58-1.44 2.08-2.38 1.42-2.65 3.23-5.27 5.25-7.58 6.74-7.74 16.04-12.18 25.52-12.18 1.49 0 2.84.29 4.07.9l46.59 22.26c22.67 10.7 27.25 12.85 28.23 13.31 3.47 1.85 6.18 5.48 7.46 9.99.62 2.2.86 4.15.71 5.81-.19 2.06-.4 4.39-1 6.03-2.14 5.97-6.94 9.83-12.24 9.83-1.64 0-3.26-.37-4.81-1.11l-39.55-18.8c-3.49-1.66-7.67-.17-9.33 3.32s-.17 7.67 3.32 9.33l39.55 18.8c3.44 1.64 7.08 2.47 10.82 2.47 6.94 0 13.38-2.85 18.28-7.72l77.06-34.77c6.07-2.84 10.94-3.86 14.89-3.12 2.98.56 5.98 2.61 8.21 5.61 3.77 5.06 4.69 12.25 2.25 17.48-1.05 2.24-2.52 3.7-5.42 5.4l-95.56 55.75c-.21.12-.42.26-.62.41-10.14 7.46-19.68 8.91-29.14 4.42l-17.58-8.37-.59-.28c-26.26-12.36-56.02-26.36-85.38-18.34l-24.7 6.75c-3.73 1.02-5.93 4.87-4.91 8.6s4.87 5.93 8.6 4.91l24.7-6.75c24.37-6.66 51.65 6.18 75.71 17.5l18.14 8.63c5.48 2.59 11.08 3.88 16.72 3.88 8.84 0 17.76-3.17 26.41-9.45l95.25-55.58c3.62-2.11 8.14-5.33 11.05-11.57 4.6-9.85 3.11-22.62-3.71-31.77z"/></g><path d="m148.47 345.93c-1.65 0-3.3-.58-4.63-1.75-.44-.39-53.93-49.39-55.53-51.1-8.08-8.65-12.28-19.9-11.83-31.68.46-11.79 5.53-22.7 14.27-30.71 16.26-14.89 40.84-15.44 57.71-2.26 7.75-6.04 17.42-9.42 27.38-9.43h.12c12.88 0 25.11 5.53 33.57 15.16 7.8 8.89 11.64 20.26 10.81 32.02-.82 11.67-6.14 22.33-14.99 30.04-9.46 9.66-49.16 45.22-52.25 47.95-1.32 1.17-2.98 1.75-4.63 1.75zm-50.01-62.5c2.36 2.27 37.18 34.31 50.05 46.08 11.46-10.28 39.92-35.93 47.02-43.25.15-.15.3-.3.46-.43 6.14-5.28 9.83-12.6 10.4-20.62.56-8-2.05-15.74-7.37-21.81-5.77-6.58-14.13-10.36-22.94-10.39-.04 0-.08 0-.12 0h-.05c-8.46 0-16.59 3.52-22.32 9.67-1.32 1.42-3.18 2.22-5.12 2.23-1.94 0-3.79-.8-5.11-2.22-11.43-12.23-30.78-12.97-43.14-1.65-5.96 5.46-9.42 12.9-9.73 20.93-.31 7.98 2.52 15.6 7.97 21.48z" fill="#a27b5c"/></svg>