<?xml version="1.0"?>
<svg xmlns="http://www.w3.org/2000/svg" viewBox="0 0 64 64"><title/><path d="M55.74,23.65V5.2a2,2,0,0,0-2-2H42.13a2,2,0,0,0-2,2V7.53L33.44.61A2,2,0,0,0,32,0,2,2,0,0,0,30.6.57L23.81,7.18a9,9,0,1,0-13,9.79H8a8,8,0,0,0-8,8V39a5,5,0,0,0,5,5,4.71,4.71,0,0,0,1-.1V58.5A5.51,5.51,0,0,0,11.5,64,5.45,5.45,0,0,0,15,62.74,5.45,5.45,0,0,0,18.5,64H55a2,2,0,0,0,2-2V35h5a2,2,0,0,0,1.44-3.39ZM15,4a5,5,0,1,1-5,5A5,5,0,0,1,15,4ZM11.5,60A1.5,1.5,0,0,1,10,58.5V29a2,2,0,0,0-4,0V39a1,1,0,1,1-2,0V25a4,4,0,0,1,4-4H22l.35,0h.11A4,4,0,0,1,26,25V39a1,1,0,1,1-2,0V29a2,2,0,0,0-4,0V58.5a1.5,1.5,0,0,1-3,0V40a2,2,0,0,0-4,0V58.5A1.5,1.5,0,0,1,11.5,60ZM55,31a2,2,0,0,0-2,2V60H23.79A5.72,5.72,0,0,0,24,58.5V43.9a4.78,4.78,0,0,0,1,.1,5,5,0,0,0,5-5V25A8,8,0,0,0,23,17l-.3,0c-.22,0-.46,0-.69,0H19.5l.52-.5a9,9,0,0,0,2.29-2.24L32,4.83l8.73,9a2,2,0,0,0,3.44-1.39V7.2h7.61V24.46a2,2,0,0,0,.56,1.39l5,5.15Z"/></svg>
