<svg clip-rule="evenodd" fill-rule="evenodd" height="6.827in" image-rendering="optimizeQuality" shape-rendering="geometricPrecision" text-rendering="geometricPrecision" viewBox="0 0 6.82666 6.82666" width="6.827in" xmlns="http://www.w3.org/2000/svg"><g id="Layer_x0020_1"><g id="_381965744"><path id="_381966416" d="m5.10499 5.50846h-3.38333c-.0361102 0-.0666654-.0291654-.0666654-.0666654l-.00000394-4.08056c0-.0361102.0291654-.0666654.0666654-.0666654h3.38333c.0361102 0 .0666654.0291654.0666654.0666654v4.08194c.00000394.0361102-.0305551.0652756-.0666654.0652756zm-3.31666-.131945h3.25139v-3.95h-3.25139z"/><path id="_381966680" d="m4.41749 3.39596h-2.00556c-.0361102 0-.0666654-.0291654-.0666654-.0666654v-1.68194c0-.0361102.0291654-.0666654.0666654-.0666654h2.00556c.0361102 0 .0666654.0291654.0666654.0666654v1.68333c-.00138583.0361102-.0305512.0652756-.0666654.0652756zm-1.94028-.131941h1.87361v-1.55139h-1.87361z"/><path id="_381966512" d="m4.21611 2.6918c-.0361102 0-.0666654-.0291654-.0666654-.0666654v-.483335c0-.0361102.0291654-.0666654.0666654-.0666654s.0666654.0291654.0666654.0666654v.483335c-.00138976.0375-.0305551.0666654-.0666654.0666654z"/><path id="_381966536" d="m2.41194 2.20846h-.308327c-.0361102 0-.0666654-.0291654-.0666654-.0666654s.0291654-.0666654.0666654-.0666654h.308327c.0361102 0 .0666654.0291654.0666654.0666654s-.0305551.0666654-.0666654.0666654z"/><path id="_381966656" d="m2.41194 2.62096h-.308327c-.0361102 0-.0666654-.0291654-.0666654-.0666654s.0291654-.0666654.0666654-.0666654h.308327c.0361102 0 .0666654.0291654.0666654.0666654s-.0305551.0666654-.0666654.0666654z"/><path id="_381966632" d="m2.41194 3.03346h-.308327c-.0361102 0-.0666654-.0291654-.0666654-.0666654s.0291654-.0666654.0666654-.0666654h.308327c.0361102 0 .0666654.0291654.0666654.0666654s-.0305551.0666654-.0666654.0666654z"/><path id="_381965912" d="m4.95083 5.98624h-2.30972c-.0361102 0-.0666654-.0291654-.0666654-.0666654v-.47778c0-.0361102.0291654-.0666654.0666654-.0666654h2.30972c.0361102 0 .0666654.0291654.0666654.0666654v.47778c-.00138583.0375-.0305551.0666654-.0666654.0666654zm-2.24444-.131945h2.17778v-.345835h-2.17778z"/><path id="_381965816" d="m4.62861 5.74735h-.948614c-.0361102 0-.0666654-.0291654-.0666654-.0666654s.0291654-.0666654.0666654-.0666654l.948614-.00000394c.0361102 0 .0666654.0291654.0666654.0666654s-.0305551.0666693-.0666654.0666693z"/><path id="_381966320" d="m1.90639 1.42652c-.0361102 0-.0666654-.0291654-.0666654-.0666654v-.45278c0-.0361102.0291654-.0666654.0666654-.0666654s.0666654.0291654.0666654.0666654v.45278c0 .0374961-.0305551.0666654-.0666654.0666654z"/><path id="_381966104" d="m2.25778 1.42652c-.0361102 0-.0666654-.0291654-.0666654-.0666654v-.45278c0-.0361102.0291654-.0666654.0666654-.0666654.0374961 0 .0666614.0291654.0666614.0666654v.45278c-.00138976.0374961-.0305512.0666654-.0666614.0666654z"/><path id="_381965648" d="m4.41749 5.30152h-2.00556c-.0361102 0-.0666654-.0291654-.0666654-.0666654v-1.68194c0-.0361102.0291654-.0666654.0666654-.0666654h2.00556c.0361102 0 .0666654.0291654.0666654.0666654v1.68333c-.00138583.0361102-.0305512.0652756-.0666654.0652756zm-1.94028-.131941h1.87361v-1.55139h-1.87361z"/><path id="_381965672" d="m2.41194 4.04874h-.308327c-.0361102 0-.0666654-.0291654-.0666654-.0666654s.0291654-.0666654.0666654-.0666654l.308327-.00000394c.0361102 0 .0666654.0291654.0666654.0666654s-.0305551.0666693-.0666654.0666693z"/><path id="_381966200" d="m2.41194 4.45985h-.308327c-.0361102 0-.0666654-.0291654-.0666654-.0666654s.0291654-.0666654.0666654-.0666654h.308327c.0361102 0 .0666654.0291654.0666654.0666654s-.0305551.0666654-.0666654.0666654z"/><path id="_381965840" d="m2.41194 4.87235h-.308327c-.0361102 0-.0666654-.0291654-.0666654-.0666654s.0291654-.0666654.0666654-.0666654h.308327c.0361102 0 .0666654.0291654.0666654.0666654s-.0305551.0666654-.0666654.0666654z"/><path id="_381966176" d="m3.42444 5.07791c-.0708346 0-.1375-.0125-.2-.0361102-.10278-.0388898-.18611-.108335-.25139-.208335-.0527795-.0833346-.0847205-.175-.0944449-.27222-.00833465-.0888898.00138976-.169445.0291654-.245835.0166654-.0458346.0402795-.0861102.0680551-.12361 0-.00138976.00138976-.00138976.00138976-.00277953.0166654-.0194449.0416654-.0291654.0666654-.0236102.0472205.00833465.0638898.0513898.0875.11528.00138976.00138976.00138976.00416535.00277953.00694488v-.00138976c-.00694488-.0430551-.0125-.0930551-.00138976-.14722.0194449-.0875.0666654-.158335.13889-.20972.0180551-.0125.0375-.025.0555551-.0375s.0180551-.0208346.0180551-.0291654c0-.00972047-.00138976-.0194449-.00416535-.0333346-.00138976-.00416535-.00138976-.00833465-.00277953-.0138898v-.00138976c-.00416535-.0277795.00972047-.0555551.0347205-.0722205.0333346-.0222205.0902795-.0236102.12778-.00138976.00138976 0 .00138976.00138976.00277953.00138976.05.0319449.0847205.0736102.1.125.0125.0375.0152795.0777795.00833465.119445-.00555512.0361102-.0125.0722205-.0194449.106945-.00555512.0361102-.00416535.0611102.00555512.0833346.00277953.00694488.00833465.0166654.025.025.00277953.00138976.00416535.00138976.00416535.00138976s.00138976-.00138976.00277953-.00416535c0-.00138976.00138976-.00138976.00138976-.00277953.00555512-.00833465.00972047-.0208346.0111102-.0375v-.00138976c.00277953-.0305551 0-.0638898-.00416535-.0958346 0-.00138976 0-.00277953 0-.00416535-.00277953-.0333346.0208346-.0638898.0527795-.0708346.0333346-.00694488.0611102.00416535.131945.0902795.0333346.0402795.0763898.0986102.0958346.155555.0194449.0569449.0430551.131945.0513898.21111.0111102.10139-.00416535.204165-.05.305555-.0416654.0930551-.10278.169445-.181945.229165-.0680551.05-.145835.0805551-.231945.0930551-.0263937.00555118-.0555591.00694094-.0819488.00694094zm-.39861-.704165c-.0180551.0527795-.0222205.10972-.0166654.17361.00833465.0777795.0319449.14722.075.21389.05.0763898.1125.12778.18889.156945.0666654.0263898.1375.0333346.219445.0236102.0638898-.00833465.12222-.0319449.170835-.0680551.0597205-.0444449.106945-.104165.13889-.17639.0347205-.0805551.0486102-.158335.0388898-.2375-.00555512-.0527795-.0194449-.108335-.0444449-.183335-.00555512-.0180551-.0166654-.0375-.0291654-.0569449-.00555512.0194449-.0138898.0361102-.025.0513898-.0388898.0583346-.108335.0777795-.17361.0486102-.00138976 0-.00138976 0-.00277953-.00138976-.0402795-.0194449-.0694449-.0513898-.0875-.0902795-.0277795-.0597205-.0222205-.120835-.0152795-.15972 0-.00138976 0-.00138976 0-.00277953.00694488-.0361102.0138898-.0680551.0180551-.10139v-.00138976c.00416535-.0222205.00277953-.0388898-.00416535-.0583346-.00138976-.00416535-.00277953-.00833465-.00555512-.0125-.00833465.0416654-.0319449.0763898-.0722205.104165 0 0-.00138976 0-.00138976.00138976-.0180551.0111102-.0361102.025-.0527795.0361102-.0458346.0319449-.0736102.075-.0861102.130555-.00694488.0291654-.00416535.0597205.00277953.0972205v.00138976l.00138976.0125c.00277953.0180551.00555512.0388898.00555512.0611102 0 .0333346-.0111102.0819449-.0597205.12361-.0347205.0291654-.0833346.0305551-.119445.00277953-.0125-.00972047-.0236102-.0194449-.0319449-.0305551-.00138976-.00138976-.00138976-.00138976-.00277953-.00277953-.00972835-.013878-.0194528-.0333228-.0291732-.0555433z"/></g></g></svg>