<svg height="490pt" viewBox="0 -58 490.04093 490" width="490pt" xmlns="http://www.w3.org/2000/svg"><path d="m438.398438 38.019531h15.203124c2.039063 9.183594 10.660157 15.355469 20.011719 14.332031 9.347657-1.027343 16.425781-8.925781 16.425781-18.332031s-7.078124-17.300781-16.425781-18.328125c-9.351562-1.027344-17.972656 5.148438-20.011719 14.328125h-11.203124v-26c0-2.207031-1.789063-3.9999998-4-3.9999998h-434.398438c-2.210938 0-4 1.7929688-4 3.9999998v30c0 2.210938 1.789062 4 4 4h23.160156v10.082031h-14.679687c-2.210938 0-4 1.789063-4 4 0 2.207032 1.789062 4 4 4h14.679687v8.71875h-14.679687c-2.210938 0-4 1.789063-4 4 0 2.210938 1.789062 4 4 4h14.679687v10.921876h-16.679687c-5.792969.019531-10.480469 4.722656-10.480469 10.519531v269.796875c0 5.796875 4.6875 10.5 10.480469 10.523437h41.320312c2.488281-.011719 4.886719-.921875 6.757813-2.5625 2 1.632813 4.5 2.539063 7.082031 2.5625h39.597656c2.585938-.019531 5.085938-.921875 7.082031-2.5625 1.878907 1.628907 4.273438 2.535157 6.757813 2.5625h41.320313c2.488281-.011719 4.890624-.921875 6.761718-2.5625 2 1.632813 4.496094 2.539063 7.078125 2.5625h39.601563c2.582031-.019531 5.082031-.921875 7.082031-2.5625 1.875 1.628907 4.273437 2.535157 6.757813 2.5625h41.320312c2.488281-.011719 4.890625-.921875 6.761719-2.5625 2 1.632813 4.496093 2.539063 7.078125 2.5625h39.601562c2.582032-.019531 5.082032-.921875 7.078125-2.5625 1.878907 1.628907 4.273438 2.535157 6.761719 2.5625h41.320312c2.488282-.011719 4.886719-.921875 6.757813-2.5625 2 1.632813 4.5 2.539063 7.082031 2.5625h39.597656c6.273438 0 11.359376-5.085937 11.359376-11.363281v-23.71875h11.203124c2.039063 9.183594 10.660157 15.355469 20.011719 14.332031 9.347657-1.027343 16.425781-8.925781 16.425781-18.332031s-7.078124-17.304688-16.425781-18.328125c-9.351562-1.027344-17.972656 5.148437-20.011719 14.328125h-11.203124v-236.199219c0-6.273437-5.085938-11.359375-11.359376-11.359375h-16v-11.121094h14.679688c2.210938 0 4-1.789062 4-4 0-2.210937-1.789062-4-4-4h-14.679688v-8.71875h14.679688c2.210938 0 4-1.792968 4-4 0-2.210937-1.789062-4-4-4h-14.679688v-10.082031zm33.160156-14.4375c4.226562-.019531 8.046875 2.515625 9.675781 6.414063 1.628906 3.902344.746094 8.398437-2.238281 11.390625-2.980469 2.996093-7.476563 3.894531-11.382813 2.28125s-6.453125-5.421875-6.453125-9.648438c0-5.75 4.648438-10.417969 10.398438-10.4375zm0 301.476563c4.226562-.015625 8.046875 2.519531 9.675781 6.417968 1.628906 3.902344.746094 8.398438-2.238281 11.390626-2.980469 2.996093-7.476563 3.894531-11.382813 2.28125-3.90625-1.613282-6.453125-5.421876-6.453125-9.648438 0-5.75 4.648438-10.417969 10.398438-10.441406zm-137.757813-317.039063h46.320313v22h-46.320313zm-54.320312 0h46.320312v22h-46.320312zm-54.28125 0h46.28125v22h-46.28125zm-54.277344 0h46.277344v22h-46.277344zm-54.320313 0h46.320313v22h-46.320313zm-54.28125 0h46.28125v22h-46.28125zm-54.320312 22v-22h46.320312v22zm46.320312 334.039063c0 1.394531-1.128906 2.523437-2.519531 2.523437h-41.320312c-1.375-.023437-2.480469-1.144531-2.480469-2.523437v-269.796875c0-1.378907 1.105469-2.5 2.480469-2.519531h41.320312c1.390625 0 2.519531 1.125 2.519531 2.519531zm4.238282-277.757813c-1.871094-1.640625-4.269532-2.550781-6.757813-2.558593h-16.640625v-10.921876h14.640625c2.207031 0 4-1.789062 4-4 0-2.210937-1.792969-4-4-4h-14.640625v-8.71875h14.640625c2.207031 0 4-1.792968 4-4 0-2.210937-1.792969-4-4-4h-14.640625v-10.082031h46.28125v10.082031h-14.640625c-2.210937 0-4 1.789063-4 4 0 2.207032 1.789063 4 4 4h14.640625v8.71875h-14.640625c-2.210937 0-4 1.789063-4 4 0 2.210938 1.789063 4 4 4h14.640625v10.921876h-15.800781c-2.582031.023437-5.082031.925781-7.082031 2.558593zm50.042968 277c0 1.855469-1.507812 3.359375-3.363281 3.359375h-39.597656c-1.839844-.023437-3.320313-1.519531-3.320313-3.359375v-268c0-1.839843 1.480469-3.339843 3.320313-3.359375h39.597656c1.855469 0 3.363281 1.503906 3.363281 3.359375zm-3.363281-279.480469h-15.796875v-11h14.679688c2.207031 0 4-1.789062 4-4 0-2.210937-1.792969-4-4-4h-14.679688v-8.71875h14.679688c2.207031 0 4-1.792968 4-4 0-2.210937-1.792969-4-4-4h-14.679688v-10.082031h46.320313v10.082031h-14.761719c-2.210938 0-4 1.789063-4 4 0 2.207032 1.789062 4 4 4h14.679688v8.71875h-14.679688c-2.210938 0-4 1.789063-4 4 0 2.210938 1.789062 4 4 4h14.679688v10.921876h-16.601563c-2.484375.023437-4.878906.929687-6.757813 2.558593-1.996093-1.640625-4.496093-2.542969-7.082031-2.558593zm57.683594 280.320313c0 1.390625-1.128906 2.519531-2.523437 2.519531h-41.320313c-1.375-.023437-2.476563-1.144531-2.476563-2.519531v-269.878906c0-1.378907 1.101563-2.5 2.476563-2.519531h41.320313c1.394531 0 2.523437 1.125 2.523437 2.519531zm-2.523437-280.320313h-16.636719v-11h14.636719c2.210937 0 4-1.789062 4-4 0-2.210937-1.789063-4-4-4h-14.636719v-8.71875h14.636719c2.210937 0 4-1.792968 4-4 0-2.210937-1.789063-4-4-4h-14.636719v-10.082031h46.277343v10.082031h-14.640624c-2.207032 0-4 1.789063-4 4 0 2.207032 1.792968 4 4 4h14.640624v8.71875h-14.640624c-2.207032 0-4 1.789063-4 4 0 2.210938 1.792968 4 4 4h14.640624v10.921876h-15.800781c-2.582031.023437-5.078125.925781-7.078125 2.558593-1.871094-1.640625-4.273437-2.550781-6.761718-2.558593zm56.800781 279.480469c0 1.855469-1.503907 3.359375-3.359375 3.359375h-39.601563c-1.839843-.023437-3.320312-1.519531-3.316406-3.359375v-268c-.003906-1.839843 1.476563-3.339843 3.316406-3.359375h39.601563c1.855468 0 3.359375 1.503906 3.359375 3.359375zm-3.359375-279.480469h-16v-11h14.679687c2.210938 0 4-1.789062 4-4 0-2.210937-1.789062-4-4-4h-14.480469v-8.71875h14.679688c2.210938 0 4-1.792968 4-4 0-2.210937-1.789062-4-4-4h-14.679688v-10.082031h46.320313v10.082031h-14.679687c-2.207032 0-4 1.789063-4 4 0 2.207032 1.792968 4 4 4h14.679687v8.71875h-14.679687c-2.207032 0-4 1.789063-4 4 0 2.210938 1.792968 4 4 4h14.679687v10.921876h-16.679687c-2.484376.023437-4.882813.929687-6.757813 2.558593-1.996094-1.644531-4.496094-2.550781-7.082031-2.558593zm57.640625 280.320313c.011719.664063-.246094 1.304687-.710938 1.78125-.46875.472656-1.105469.738281-1.769531.738281h-41.320312c-1.375-.023437-2.480469-1.144531-2.480469-2.519531v-269.878906c0-1.378907 1.105469-2.5 2.480469-2.519531h41.320312c.664062 0 1.300781.265624 1.769531.738281.464844.472656.722657 1.117187.710938 1.78125zm4.28125-277.761719c-1.859375-1.667968-4.261719-2.605468-6.761719-2.636718h-16.640625v-10.921876h14.640625c2.210938 0 4-1.789062 4-4 0-2.210937-1.789062-4-4-4h-14.640625v-8.71875h14.640625c2.210938 0 4-1.792968 4-4 0-2.210937-1.789062-4-4-4h-14.640625v-10.082031h46.28125v10.082031h-14.640625c-2.210938 0-4 1.789063-4 4 0 2.207032 1.789062 4 4 4h14.640625v8.71875h-14.640625c-2.210938 0-4 1.789063-4 4 0 2.210938 1.789062 4 4 4h14.640625v10.921876h-16c-2.515625.066406-4.933594.96875-6.878906 2.558593zm50.039062 276.921875c0 1.855469-1.503906 3.359375-3.359375 3.359375h-39.601562c-1.847656-.019531-3.339844-1.511718-3.359375-3.359375v-268c.019531-1.847656 1.511719-3.339843 3.359375-3.359375h39.601562c1.855469 0 3.359375 1.503906 3.359375 3.359375zm-3.359375-279.480469h-16v-11h14.679688c2.207031 0 4-1.789062 4-4 0-2.210937-1.792969-4-4-4h-14.480469v-8.71875h14.679687c2.207032 0 4-1.792968 4-4 0-2.210937-1.792968-4-4-4h-14.679687v-10.082031h46.359375v10.082031h-14.71875c-2.210938 0-4 1.789063-4 4 0 2.207032 1.789062 4 4 4h14.71875v8.71875h-14.71875c-2.210938 0-4 1.789063-4 4 0 2.210938 1.789062 4 4 4h14.71875v10.921876h-16.71875c-2.488281.023437-4.882812.929687-6.761719 2.558593-1.996093-1.640625-4.496093-2.542969-7.078125-2.558593zm57.679688 280.320313c0 1.390625-1.128906 2.519531-2.519532 2.519531h-41.320312c-1.378906-.023437-2.480469-1.144531-2.480469-2.519531v-269.878906c0-1.378907 1.101563-2.5 2.480469-2.519531h41.320312c1.390626 0 2.519532 1.125 2.519532 2.519531zm4.238281-277.761719c-1.871094-1.640625-4.269531-2.546875-6.757813-2.558594h-16.601562v-11h14.640625c2.207031 0 4-1.789062 4-4 0-2.210937-1.792969-4-4-4h-14.640625v-8.71875h14.640625c2.207031 0 4-1.792968 4-4 0-2.210937-1.792969-4-4-4h-14.640625v-10.082031h46.28125v10.082031h-14.679688c-2.210937 0-4 1.789063-4 4 0 2.207032 1.789063 4 4 4h14.636719v8.71875h-14.636719c-2.210937 0-4 1.789063-4 4 0 2.210938 1.789063 4 4 4h14.636719v10.921876h-16c-2.511719.066406-4.929687.96875-6.878906 2.558593zm46.679687 5.441406c1.855469 0 3.359376 1.503907 3.359376 3.359376v268c0 1.855468-1.503907 3.359374-3.359376 3.359374h-39.597656c-1.839844-.019531-3.320312-1.519531-3.320312-3.359374v-267.878907c0-1.839843 1.480468-3.339843 3.320312-3.359375zm-42.917968-61.800781v-22h46.277344v22zm0 0"/></svg>