<svg id="Layer_1" enable-background="new 0 0 512 512" viewBox="0 0 512 512" xmlns="http://www.w3.org/2000/svg"><g><path d="m318.125 449.875c4.143 0 7.5-3.358 7.5-7.5v-69.891c0-16.981-13.815-30.797-30.797-30.797s-30.797 13.815-30.797 30.797v69.891c0 4.142 3.358 7.5 7.5 7.5s7.5-3.358 7.5-7.5v-39.094h31.594v39.094c0 4.142 3.357 7.5 7.5 7.5zm-39.094-61.594v-15.797c0-8.71 7.087-15.797 15.797-15.797s15.797 7.086 15.797 15.797v15.797z"/><path d="m372.484 449.875c5.777 0 11.187-1.599 15.812-4.378l2.181 2.181c2.93 2.929 7.678 2.929 10.607 0s2.929-7.678 0-10.606l-2.182-2.182c2.778-4.625 4.378-10.035 4.378-15.812v-46.594c0-16.981-13.815-30.797-30.797-30.797s-30.797 13.815-30.797 30.797v46.594c.002 16.982 13.817 30.797 30.798 30.797zm-15.796-77.391c0-8.71 7.087-15.797 15.797-15.797s15.797 7.086 15.797 15.797v46.594c0 1.573-.231 3.093-.661 4.528l-4.009-4.009c-2.93-2.929-7.678-2.929-10.607 0s-2.929 7.678 0 10.606l4.01 4.01c-1.435.43-2.955.661-4.528.661-8.71 0-15.797-7.086-15.797-15.797v-46.593z"/><path d="m419.344 349.188v93.188c0 4.142 3.357 7.5 7.5 7.5s7.5-3.358 7.5-7.5v-93.188c0-4.142-3.357-7.5-7.5-7.5s-7.5 3.357-7.5 7.5z"/><path d="m479.5 124.25h-87.668c-1.399-13.011-6.356-20.709-10.808-27.624-4.725-7.339-8.806-13.677-8.806-27.003 0-13.325 4.081-19.663 8.806-27.001 5.247-8.149 11.194-17.385 11.194-35.122 0-4.142-3.357-7.5-7.5-7.5s-7.5 3.358-7.5 7.5c0 13.325-4.081 19.663-8.806 27.001-5.247 8.149-11.194 17.385-11.194 35.122s5.947 26.974 11.194 35.123c3.739 5.808 7.075 10.99 8.304 19.504h-62.539c-.388-3.61-1.071-6.995-2.061-10.227-1.212-3.961-5.408-6.188-9.367-4.976-3.96 1.213-6.188 5.407-4.975 9.367.564 1.842.992 3.778 1.288 5.835h-62.542c-1.399-13.011-6.355-20.709-10.807-27.624-4.726-7.339-8.806-13.677-8.806-27.003 0-13.325 4.081-19.663 8.806-27.001 5.247-8.149 11.194-17.385 11.194-35.122 0-4.142-3.358-7.5-7.5-7.5s-7.5 3.358-7.5 7.5c0 13.325-4.081 19.663-8.806 27.001-5.247 8.149-11.194 17.385-11.194 35.122s5.947 26.974 11.194 35.123c3.74 5.808 7.076 10.99 8.305 19.504h-62.541c-1.399-13.011-6.355-20.709-10.807-27.624-4.726-7.339-8.806-13.677-8.806-27.003 0-4.142-3.358-7.5-7.5-7.5s-7.5 3.358-7.5 7.5c0 17.737 5.947 26.974 11.194 35.123 3.74 5.808 7.076 10.99 8.305 19.504h-18.104c-4.142 0-7.5 3.358-7.5 7.5s3.358 7.5 7.5 7.5h18.104c-.983 6.811-3.315 11.49-6.124 16.062h-21.406c-4.142 0-7.5 3.358-7.5 7.5s3.358 7.5 7.5 7.5h12.661c-1.963 4.408-3.546 9.574-4.244 16.062h-8.418c-4.142 0-7.5 3.358-7.5 7.5s3.358 7.5 7.5 7.5h46.594c4.142 0 7.5-3.358 7.5-7.5s-3.358-7.5-7.5-7.5h-23.061c.983-6.811 3.315-11.49 6.123-16.062h16.938c4.142 0 7.5-3.358 7.5-7.5s-3.358-7.5-7.5-7.5h-8.193c1.963-4.408 3.546-9.574 4.244-16.062h62.541c-.983 6.811-3.315 11.49-6.123 16.062h-21.406c-4.142 0-7.5 3.358-7.5 7.5s3.358 7.5 7.5 7.5h25.414c.037.001.073.001.11.001.021 0 .042-.001.064-.001h64.73c-1.963 4.408-3.546 9.574-4.244 16.062h-86.074c-4.142 0-7.5 3.358-7.5 7.5s3.358 7.5 7.5 7.5h124.25c4.143 0 7.5-3.358 7.5-7.5s-3.357-7.5-7.5-7.5h-23.061c.983-6.811 3.315-11.49 6.123-16.062h16.938c4.143 0 7.5-3.358 7.5-7.5s-3.357-7.5-7.5-7.5h-8.193c1.964-4.408 3.546-9.574 4.244-16.062h62.541c-.983 6.811-3.315 11.49-6.123 16.062h-21.406c-4.143 0-7.5 3.358-7.5 7.5s3.357 7.5 7.5 7.5h46.594c4.143 0 7.5-3.358 7.5-7.5s-3.357-7.5-7.5-7.5h-8.193c1.963-4.408 3.546-9.575 4.244-16.062h87.665c9.649 0 17.5 7.851 17.5 17.5v322.751c0 9.649-7.851 17.5-17.5 17.5h-447c-9.649 0-17.5-7.851-17.5-17.5v-322.75c0-9.649 7.851-17.5 17.5-17.5h58.145c4.142 0 7.5-3.358 7.5-7.5s-3.358-7.5-7.5-7.5h-58.145c-17.92 0-32.5 14.58-32.5 32.5v322.75c0 17.92 14.58 32.5 32.5 32.5h447c17.921 0 32.5-14.58 32.5-32.5v-322.75c0-17.92-14.579-32.5-32.5-32.5zm-186.563 31.062h-60.661c1.964-4.407 3.546-9.575 4.244-16.062h62.541c-.984 6.811-3.316 11.49-6.124 16.062z"/><path d="m31.062 234.938v228.5c0 9.649 7.851 17.5 17.5 17.5h414.875c9.649 0 17.5-7.851 17.5-17.5v-228.5c0-9.649-7.851-17.5-17.5-17.5h-50.156c-4.143 0-7.5 3.358-7.5 7.5s3.357 7.5 7.5 7.5h50.156c1.379 0 2.5 1.122 2.5 2.5v228.5c0 1.378-1.121 2.5-2.5 2.5h-414.875c-1.378 0-2.5-1.122-2.5-2.5v-228.5c0-1.378 1.122-2.5 2.5-2.5h329.719c4.143 0 7.5-3.358 7.5-7.5s-3.357-7.5-7.5-7.5h-329.719c-9.649 0-17.5 7.85-17.5 17.5z"/><path d="m297.594 325.625c6.893 0 12.5-5.607 12.5-12.5v-21.062c0-6.893-5.607-12.5-12.5-12.5h-21.062c-6.893 0-12.5 5.607-12.5 12.5v21.062c0 6.893 5.607 12.5 12.5 12.5zm-18.563-31.063h16.062v16.062h-16.062z"/><path d="m372.219 313.125v-36.594c0-6.893-5.607-12.5-12.5-12.5h-21.062c-6.893 0-12.5 5.607-12.5 12.5v36.594c0 6.893 5.607 12.5 12.5 12.5h21.062c6.892 0 12.5-5.607 12.5-12.5zm-15-2.5h-16.062v-31.594h16.062z"/><path d="m434.344 261c0-6.893-5.607-12.5-12.5-12.5h-21.062c-6.893 0-12.5 5.607-12.5 12.5v52.125c0 6.893 5.607 12.5 12.5 12.5h21.062c6.893 0 12.5-5.607 12.5-12.5zm-15 49.625h-16.062v-47.125h16.062z"/><path d="m210.909 291.573c-6.302-25.201-28.912-43.073-55.306-43.073-16.985 0-32.945 7.541-43.73 20.423-1.888-.408-3.823-.614-5.794-.614-13.945 0-25.482 10.506-27.113 24.019-12.151 6.339-20.007 19.016-20.007 33.005 0 20.521 16.694 37.215 37.214 37.215h50.576c4.142 0 7.5-3.358 7.5-7.5s-3.358-7.5-7.5-7.5h-50.575c-12.249 0-22.214-9.965-22.214-22.215 0-9.426 5.972-17.854 14.861-20.97 3.225-1.131 5.277-4.297 4.993-7.702-.029-.348-.044-.698-.044-1.042 0-6.788 5.522-12.31 12.31-12.31 1.856 0 3.638.401 5.295 1.192 3.344 1.598 7.354.512 9.437-2.554 7.846-11.552 20.853-18.448 34.793-18.448 20.522 0 37.938 14.651 41.413 34.838.472 2.745 2.426 5.001 5.075 5.861 9.179 2.98 15.347 11.474 15.347 21.135 0 12.25-9.965 22.215-22.215 22.215h-13.475c-4.142 0-7.5 3.358-7.5 7.5s3.358 7.5 7.5 7.5h13.473c20.521 0 37.215-16.694 37.215-37.215-.001-14.664-8.488-27.723-21.529-33.76z"/><path d="m205.651 431.727c-3.585 2.074-4.811 6.662-2.737 10.248 2.071 3.58 6.656 4.814 10.248 2.737 11.89-6.877 19.276-19.675 19.276-33.398 0-21.264-17.299-38.562-38.562-38.562s-38.563 17.299-38.563 38.562c0 13.723 7.386 26.521 19.276 33.398 3.585 2.073 8.173.849 10.248-2.737 2.074-3.585.849-8.173-2.737-10.248-7.271-4.205-11.787-12.027-11.787-20.414 0-12.992 10.57-23.562 23.563-23.562s23.562 10.57 23.562 23.562c-.001 8.386-4.517 16.208-11.787 20.414z"/><path d="m100.687 387.75c2.073 0 4.128.269 6.107.798 4.001 1.07 8.113-1.305 9.184-5.307s-1.305-8.113-5.307-9.184c-3.243-.868-6.602-1.308-9.984-1.308-21.264 0-38.562 17.299-38.562 38.562s17.299 38.562 38.562 38.562c21.264 0 38.563-17.299 38.563-38.562 0-3.382-.44-6.741-1.308-9.984-1.071-4.002-5.187-6.379-9.184-5.307-4.001 1.07-6.377 5.182-5.307 9.184.529 1.979.798 4.034.798 6.107 0 12.992-10.57 23.562-23.563 23.562-12.992 0-23.562-10.57-23.562-23.562s10.571-23.561 23.563-23.561z"/><path d="m395.781 186.375h-46.594c-4.143 0-7.5 3.358-7.5 7.5s3.357 7.5 7.5 7.5h46.594c4.143 0 7.5-3.358 7.5-7.5s-3.357-7.5-7.5-7.5z"/><path d="m137.69 44.867c1.256.809 2.663 1.195 4.053 1.195 2.465 0 4.879-1.214 6.313-3.441 5.247-8.149 11.194-17.385 11.194-35.122 0-4.142-3.358-7.5-7.5-7.5s-7.5 3.358-7.5 7.5c0 13.325-4.081 19.663-8.806 27.001-2.242 3.484-1.236 8.125 2.246 10.367z"/><path d="m289.178 92.658c.728 0 1.467-.106 2.199-.331 3.96-1.213 6.188-5.407 4.975-9.367-1.204-3.933-1.789-8.295-1.789-13.337 0-13.325 4.081-19.663 8.806-27.001 5.247-8.149 11.194-17.385 11.194-35.122 0-4.142-3.357-7.5-7.5-7.5s-7.5 3.358-7.5 7.5c0 13.325-4.081 19.663-8.806 27.001-5.247 8.149-11.194 17.385-11.194 35.122 0 6.553.8 12.352 2.447 17.729.988 3.229 3.958 5.306 7.168 5.306z"/><path d="m48.589 104.661c1.879 2.505 4.87 4 8 4s6.122-1.496 8-4l31.551-42.068c2.287-3.049 2.649-7.062.944-10.472s-5.132-5.528-8.944-5.528h-8.52v-36.593c0-5.514-4.486-10-10-10h-26.062c-5.514 0-10 4.486-10 10v36.594h-8.52c-3.812 0-7.24 2.118-8.945 5.528s-1.342 7.423.945 10.472zm-10.031-43.067c5.514 0 10-4.486 10-10v-36.594h16.062v36.594c0 5.514 4.486 10 10 10h3.52l-21.551 28.734-21.55-28.734z"/><path d="m447.411 104.661c1.878 2.505 4.869 4 8 4s6.122-1.496 8-4l31.552-42.069c2.286-3.05 2.647-7.062.942-10.472s-5.132-5.527-8.943-5.527h-8.52v-36.593c0-5.514-4.486-10-10-10h-26.062c-5.514 0-10 4.486-10 10v36.594h-8.52c-3.812 0-7.24 2.118-8.944 5.528-1.705 3.41-1.343 7.423.944 10.472zm-10.031-43.067c5.514 0 10-4.486 10-10v-36.594h16.062v36.594c0 5.514 4.486 10 10 10h3.52l-21.551 28.734-21.551-28.734z"/></g><g/><g/><g/><g/><g/><g/><g/><g/><g/><g/><g/><g/><g/><g/><g/></svg>