<svg height="512" viewBox="0 0 64 64" width="512" xmlns="http://www.w3.org/2000/svg"><g id="outline"><path d="m24 12a3 3 0 1 0 3 3 3 3 0 0 0 -3-3zm0 4a1 1 0 1 1 1-1 1 1 0 0 1 -1 1z"/><path d="m58 30a4 4 0 0 0 -2.262-3.588 3.938 3.938 0 0 0 .262-1.412 4 4 0 0 0 -6.8-2.853 4.927 4.927 0 0 0 -1.2-.147 5.007 5.007 0 0 0 -4.9 4h-.1a4 4 0 0 0 -4 4 3.959 3.959 0 0 0 .556 2h-2.556v-17h3a1 1 0 0 0 1-1v-4a1 1 0 0 0 -1-1h-2.748l-12.778-6.88a1 1 0 0 0 -.948 0l-12.778 6.88h-2.748a1 1 0 0 0 -1 1v4a1 1 0 0 0 1 1h3v17h-9v30h60v-30h-4.556a3.959 3.959 0 0 0 .556-2zm-15-2a1.97 1.97 0 0 1 .68.13 1 1 0 0 0 1.338-1c0-.026-.014-.1-.018-.128a3 3 0 0 1 3-3c.045 0 .089.011.133.013a4.027 4.027 0 0 0 -.133.985v1h2v-1a1.99 1.99 0 0 1 .346-1.122l.007-.007a1.995 1.995 0 1 1 3.115 2.473 1 1 0 0 0 .668 1.674 1.993 1.993 0 0 1 -.136 3.982h-11a2 2 0 0 1 0-4zm-34-15v-2h2a1 1 0 0 0 .474-.12l12.526-6.744 12.526 6.744a1 1 0 0 0 .474.12h2v2h-2.764l-11.789-5.895a1 1 0 0 0 -.894 0l-11.789 5.895zm20 7h-10a1 1 0 0 0 -1 1v11h-5v-17.382l11-5.5 11 5.5v17.382h-5v-11a1 1 0 0 0 -1-1zm-1 8v4h-8v-10h8v4h-2v2zm1 20h-.149l2.149-1.719 2.149 1.719h-.149a1 1 0 0 0 -1 1v7h-16v-22h2v19a1 1 0 0 0 1 1h10a1 1 0 0 0 1-1v-4a1 1 0 0 0 -1-1zm31-14v26h-56v-26h10v23a1 1 0 0 0 1 1h18a1 1 0 0 0 1-1v-7h2a1 1 0 0 0 .625-1.781l-5-4a1 1 0 0 0 -1.25 0l-5 4a1 1 0 0 0 .625 1.781h2v2h-8v-18z"/><path d="m48 28h2v2h-2z"/><path d="m31.625 34.219a1 1 0 0 0 -1.25 0l-5 4a1 1 0 0 0 .625 1.781h2v3a1 1 0 0 0 1 1h4a1 1 0 0 0 1-1v-3h2a1 1 0 0 0 .625-1.781zm1.375 3.781a1 1 0 0 0 -1 1v3h-2v-3a1 1 0 0 0 -1-1h-.149l2.149-1.719 2.149 1.719z"/><path d="m58 5h-.311c-.909-2.017-2.778-3-5.689-3-2.73 0-4.878 1.153-5.712 3h-.288a3.913 3.913 0 0 0 -4 4v1a1 1 0 0 0 1 1h18a1 1 0 0 0 1-1v-1a3.748 3.748 0 0 0 -4-4zm-14 4a1.913 1.913 0 0 1 2-2h1a1 1 0 0 0 .974-.773c.383-1.644 2.409-2.227 4.026-2.227 2.927 0 3.674 1.1 4.045 2.3a1 1 0 0 0 .955.7h1a1.793 1.793 0 0 1 2 2z"/><path d="m47.586 17h2.828v2h-2.828z" transform="matrix(.707 -.707 .707 .707 1.624 39.92)"/><path d="m4.586 18h2.828v2h-2.828z" transform="matrix(.707 -.707 .707 .707 -11.678 9.808)"/><path d="m53.586 14h2.828v2h-2.828z" transform="matrix(.707 -.707 .707 .707 5.503 43.284)"/><path d="m40.379 19.5h4.243v2h-4.243z" transform="matrix(.707 -.707 .707 .707 -2.048 36.056)"/><path d="m2.379 25.5h4.243v2h-4.243z" transform="matrix(.707 -.707 .707 .707 -17.42 10.944)"/><path d="m56.379 18.5h4.243v2h-4.243z" transform="matrix(.707 -.707 .707 .707 3.346 47.077)"/><path d="m43.379 13.5h4.243v2h-4.243z" transform="matrix(.707 -.707 .707 .707 3.074 36.42)"/><path d="m3.379 5.5h4.243v2h-4.243z" transform="matrix(.707 -.707 .707 .707 -2.985 5.793)"/><path d="m9 39h2v2h-2z"/><path d="m6 43h2v2h-2z"/><path d="m9 50h2v2h-2z"/><path d="m23 43h2v2h-2z"/><path d="m40 36h2v2h-2z"/><path d="m40 42h2v2h-2z"/><path d="m44 45h2v2h-2z"/><path d="m42 52h2v2h-2z"/><path d="m52 40h2v2h-2z"/><path d="m49 53h2v2h-2z"/><path d="m55 48h2v2h-2z"/><path d="m56 56h2v2h-2z"/></g></svg>