<svg id="Capa_1" enable-background="new 0 0 457.07 457.07" height="512" viewBox="0 0 457.07 457.07" width="512" xmlns="http://www.w3.org/2000/svg"><g><path d="m67.969 282.17h55.23c-1.044 4.225 1.535 8.496 5.76 9.54s8.496-1.535 9.54-5.76c.307-1.241.307-2.539 0-3.78h67.44c-.73 7.486-7.018 13.199-14.54 13.21h-39.41c-28.26 0-51.17 22.91-51.17 51.17s22.91 51.17 51.17 51.17h128.88c6.74.18 6.85 10.07 0 10.29h-107c-3.314 0-6 2.686-6 6s2.686 6 6 6h107c9.469.229 17.33-7.262 17.559-16.731s-7.262-17.33-16.731-17.559c-.276-.007-.552-.007-.828 0h-128.88c-21.633 0-39.17-17.537-39.17-39.17s17.537-39.17 39.17-39.17h39.41c14.143-.022 25.806-11.088 26.57-25.21h22c-.783 26.288-22.3 47.203-48.6 47.24h-39.38c-9.466 0-17.14 7.674-17.14 17.14s7.674 17.14 17.14 17.14h128.88c21.636-.346 39.455 16.914 39.801 38.549.346 21.636-16.914 39.455-38.549 39.801-.417.007-.834.007-1.251 0h-87c-3.314 0-6 2.686-6 6s2.686 6 6 6h87c28.263.395 51.495-22.197 51.89-50.46s-22.197-51.495-50.46-51.89c-.477-.007-.954-.007-1.43 0h-128.88c-6.75-.18-6.83-10.06 0-10.28h39.41c32.922-.05 59.808-26.327 60.61-59.24h44.68c-1.044 4.225 1.535 8.496 5.76 9.54s8.496-1.535 9.54-5.76c.307-1.241.307-2.539 0-3.78h61.53c3.314 0 6-2.686 6-6s-2.686-6-6-6h-34.37v-9.64c43.35 11.23 74.25-41 43.61-73.58v-139.42c-1.76-42.6-62.47-42.6-64.23 0v49l-93.58-94.8c-1.141-1.083-2.647-1.701-4.22-1.73-1.574.028-3.079.654-4.21 1.75 0 0-69.59 70.44-69.62 70.46l-.95-28.26c-.113-3.231-2.767-5.792-6-5.79h-25c-3.264-.001-5.929 2.607-6 5.87l-1.37 68-37 37.4c-11.93 11.67-3.32 32.46 13.37 32.26 1.589.001 3.114-.628 4.24-1.75l14.11-14.07v104.3h-34.33c-3.314 0-6 2.686-6 6s2.686 6 5.999 6zm282.681-254.81c12.19 0 21.19 10.66 20.11 22.62h-3.78c-3.314 0-6 2.686-6 6s2.686 6 6 6h3.78v10.11h-3.78c-3.314 0-6 2.686-6 6s2.686 6 6 6h3.78v10.12h-3.78c-3.314.004-5.997 2.693-5.993 6.007.004 3.308 2.685 5.99 5.993 5.993h3.78v10.11h-3.78c-3.314 0-6 2.686-6 6s2.686 6 6 6h3.78v10.12h-3.78c-3.314 0-6 2.686-6 6s2.686 6 6 6h3.78v10.09h-3.78c-3.314 0-6 2.686-6 6s2.686 6 6 6h3.78v16.85c0 1.67.696 3.264 1.92 4.4 21.55 19.79 7.22 56.25-22 56.2-17.898-.028-32.398-14.532-32.42-32.43-.035-9.032 3.737-17.661 10.39-23.77 1.224-1.136 1.92-2.73 1.92-4.4 0-29.82 0-111.07 0-141.93.027-11.08 8.999-20.057 20.08-20.09zm-229.851 22.8h13.32l1.13 33.81-15.449 15.64zm-39 119.2c-3.627-1.187-5.605-5.089-4.418-8.716.343-1.048.932-1.999 1.718-2.774l141.63-143.34 97.79 99v14.8l-93.55-93.33c-2.343-2.34-6.137-2.34-8.48 0zm32.51-15.48 106.42-106.16 97.79 97.56v41.63c-19.6 20-14.79 54.28 8.62 68.35v14.91h-212.83z"/><path d="m189.519 121.98c-.14 0-4.49 2.66-4.75 2.81l-3-6.26c-1.416-2.996-4.993-4.276-7.989-2.859-1.207.571-2.189 1.528-2.791 2.719l-19.76 39.14c-1.497 2.956-.314 6.566 2.642 8.064.45.228.926.398 1.418.506l42.81 9.43c3.235.718 6.439-1.323 7.157-4.558.289-1.303.135-2.666-.437-3.872l-3.3-6.91c6.766-4.044 14.565-6.025 22.44-5.7 2.71 2.7 9.23 11.38 1.9 27.2l-5.65 11.15c-6.584 12.937-10.527 27.054-11.6 41.53l-1.93 25.5c-.249 3.304 2.229 6.185 5.533 6.433.155.012.311.017.467.017h31.59c3.314.012 6.01-2.664 6.023-5.977.001-.181-.007-.362-.023-.543l-.46-5.29c-1.587-17.889 1.772-35.87 9.71-51.98 11.46-25.89 10.35-48.77-3.34-65.47-16.088-19.789-43.62-26.017-66.66-15.08zm6.2 27.67c-.09 0-5 3.42-5.2 3.57-2.579 1.8-3.356 5.272-1.79 8l-23.3-5.16 10.77-21.29c1.34 3.87 5.37 5.87 9.06 3.74l9.65-5.78c21.1-10.22 48.45-.53 57.54 21.23-15.58-13.97-38.27-14.96-56.73-4.31zm42 104.67h-18.57l1.43-19.05c.965-12.896 4.48-25.472 10.34-37l5.7-11.24c5.11-10.79 5.42-20.19 3.53-27.36 13.82 9.28 16 20.85 8.53 37.72-8.674 17.657-12.458 37.315-10.96 56.93z"/><path d="m275.729 310.43c0 4.358 3.532 7.89 7.89 7.89 10.45-.39 10.44-15.39 0-15.77-4.352-.006-7.884 3.518-7.89 7.87z"/><path d="m332.379 358.9c0 4.352 3.528 7.88 7.88 7.88 10.45-.39 10.45-15.38 0-15.77-4.352 0-7.88 3.528-7.88 7.88z"/><path d="m348.15 428.02c4.352 0 7.88-3.528 7.88-7.88-.38-10.45-15.38-10.45-15.77 0 0 4.352 3.528 7.88 7.88 7.88z"/><path d="m312.22 330.84c0 4.358 3.532 7.89 7.89 7.89 10.45-.39 10.44-15.39 0-15.77-4.352-.006-7.884 3.518-7.89 7.87z"/><path d="m81.049 424.11c4.352 0 7.88-3.528 7.88-7.88 0-.003 0-.007 0-.01-.38-10.45-15.38-10.44-15.77 0 0 4.357 3.533 7.89 7.89 7.89z"/><path d="m96.819 389.37c4.354-.006 7.88-3.536 7.88-7.89-.38-10.45-15.38-10.45-15.77 0 0 4.357 3.533 7.89 7.89 7.89z"/><path d="m353.15 305.65c0-4.352-3.528-7.88-7.88-7.88-.003 0-.007 0-.01 0-10.45.38-10.44 15.38 0 15.77 4.357 0 7.89-3.532 7.89-7.89z"/><path d="m251.66 333.46c0 4.352 3.528 7.88 7.88 7.88h.01c10.44-.38 10.44-15.38 0-15.77-4.352-.006-7.885 3.518-7.89 7.87z"/><path d="m130.849 414.01c0-4.352-3.528-7.88-7.88-7.88-.003 0-.007 0-.01 0-10.44.4-10.44 15.4 0 15.77 4.358 0 7.89-3.532 7.89-7.89z"/><path d="m130.849 457.07c4.352 0 7.88-3.528 7.88-7.88 0-.003 0-.007 0-.01-.38-10.45-15.38-10.45-15.77 0 0 4.358 3.533 7.89 7.89 7.89z"/><path d="m94.689 310.43c4.352.006 7.884-3.518 7.89-7.87 0-.003 0-.007 0-.01-.39-10.45-15.39-10.45-15.77 0 0 4.352 3.528 7.88 7.88 7.88z"/><path d="m86.809 347.39c-.017-4.346-3.544-7.86-7.89-7.86-10.45.39-10.44 15.39 0 15.77 4.352.006 7.884-3.518 7.89-7.87.001-.013.001-.027 0-.04z"/><path d="m350.65 233.91c18.31-.32 22.49-25.23 5.6-31.65.29-1.08 0-111.88.1-113 0-3.314-2.686-6-6-6s-6 2.686-6 6v112c-.001.41.039.818.12 1.22-16.341 6.88-11.801 31.15 6.18 31.43z"/></g></svg>