<svg id="Layer_1" enable-background="new 0 0 32 32" viewBox="0 0 32 32" xmlns="http://www.w3.org/2000/svg"><g fill="none" stroke="#414042" stroke-linecap="round" stroke-linejoin="round" stroke-miterlimit="10"><path d="m.5 3.5h2v25h-2z"/><path d="m2.5 6.5h2v17h-2z"/><path d="m6.5 25.5h-1c-.55 0-1-.45-1-1v-19c0-.55.45-1 1-1h1c.55 0 1 .45 1 1v19c0 .55-.45 1-1 1z"/><path d="m7.5 6.5h2v17h-2z"/><path d="m11.5 25.5h-1c-.55 0-1-.45-1-1v-19c0-.55.45-1 1-1h1c.55 0 1 .45 1 1v19c0 .55-.45 1-1 1z"/><path d="m12.5 6.5h2v17h-2z"/><path d="m16.5 25.5h-1c-.55 0-1-.45-1-1v-19c0-.55.45-1 1-1h1c.55 0 1 .45 1 1v19c0 .55-.45 1-1 1z"/><path d="m17.5 6.5h2v17h-2z"/><path d="m21.5 25.5h-1c-.55 0-1-.45-1-1v-19c0-.55.45-1 1-1h1c.55 0 1 .45 1 1v19c0 .55-.45 1-1 1z"/><path d="m22.5 6.5h2v17h-2z"/><path d="m26.5 25.5h-1c-.55 0-1-.45-1-1v-19c0-.55.45-1 1-1h1c.55 0 1 .45 1 1v19c0 .55-.45 1-1 1z"/><path d="m27.5 6.5h2v17h-2z"/><path d="m29.5 3.5h2v25h-2z"/></g></svg>