<svg id="Layer_1" viewBox="0 0 64 64" xmlns="http://www.w3.org/2000/svg" data-name="Layer 1"><path d="m50 2h-36c-2.52 0-4.57 2.05-4.57 4.57v50.86c0 2.52 2.05 4.57 4.57 4.57h36c2.52 0 4.57-2.05 4.57-4.57v-50.86c0-2.52-2.05-4.57-4.57-4.57zm-6.84 58h-22.32v-23.68c0-.67.55-1.22 1.22-1.22h19.88c.67 0 1.22.55 1.22 1.22zm9.41-2.57c0 1.42-1.15 2.57-2.57 2.57h-4.84v-23.68c0-1.78-1.44-3.22-3.22-3.22h-19.88c-1.78 0-3.22 1.44-3.22 3.22v23.68h-4.84c-1.42 0-2.57-1.15-2.57-2.57v-50.86c0-1.42 1.15-2.57 2.57-2.57h36c1.42 0 2.57 1.15 2.57 2.57z"/><circle cx="32" cy="43.29" r="5.03"/><path d="m39.419 50.807h-14.839c-.552 0-1 .447-1 1v4.451c0 .553.448 1 1 1h14.839c.552 0 1-.447 1-1v-4.451c0-.553-.448-1-1-1zm-1 4.451h-12.839v-2.451h12.839z"/><path d="m38.85 15.84h-4.16v-8.55c0-.44-.29-.83-.71-.96-.42-.12-.88.04-1.12.41l-8.55 13.06c-.2.31-.22.7-.04 1.03.17.32.51.52.88.52h4.16v8.55c0 .44.29.83.71.96.09.03.19.04.29.04.33 0 .64-.16.83-.45l8.55-13.06c.2-.31.22-.7.04-1.03-.17-.32-.51-.52-.88-.52z"/></svg>