<svg enable-background="new 0 0 512 512" viewBox="0 0 512 512" xmlns="http://www.w3.org/2000/svg"><g id="_x32_4_Boiler"><g><path d="m140.561 441.434v24.655c0 7.947 5.902 14.484 13.544 15.608v12.699c0 6.306 5.129 11.437 11.434 11.437h20.237c6.306 0 11.439-5.131 11.439-11.437v-12.699c7.642-1.124 13.544-7.661 13.544-15.608v-18.624c31.758 1.441 56.369 1.424 90.487-.32v18.944c0 7.947 5.902 14.484 13.544 15.608v12.699c0 6.306 5.129 11.437 11.434 11.437h20.237c6.306 0 11.434-5.131 11.434-11.437v-12.699c7.643-1.124 13.549-7.661 13.549-15.608v-25.006c18.919-3.309 32.944-19.756 32.944-39.187 0-73.048 0-257.001 0-333.297 0-16.154-9.616-30.578-24.495-36.749-82.816-34.374-165.61-34.113-247.781 0-14.883 6.172-24.5 20.596-24.5 36.749v333.654c0 19.307 14.029 35.77 32.949 39.181zm46.856 52.963c0 .904-.737 1.639-1.641 1.639h-20.237c-.904 0-1.636-.734-1.636-1.639v-12.467h23.514zm13.544-28.308c0 3.332-2.713 6.042-6.042 6.042-1.575 0-40.908 0-38.517 0-3.33 0-6.042-2.71-6.042-6.042v-23.451c16.666 1.935 33.531 3.417 50.602 4.38v19.071zm147.136 28.308c0 .904-.732 1.639-1.636 1.639h-20.237c-.904 0-1.636-.734-1.636-1.639v-12.467h23.509zm7.502-22.265c-1.575 0-40.897 0-38.512 0-3.33 0-6.042-2.71-6.042-6.042v-19.413c21.963-1.341 34.208-2.614 50.602-4.438v23.851c-.001 3.332-2.714 6.042-6.048 6.042zm-219.731-431.234c80.246-33.309 160.344-33.177 240.27.002 11.209 4.648 18.452 15.52 18.452 27.698v234.475c-91.979 49.29-185.201 49.295-277.179 0v-234.475c-.001-12.178 7.243-23.05 18.457-27.7zm-18.458 273.285c92.004 47.688 185.185 47.684 277.179 0v87.713c0 15.209-11.381 28.028-26.475 29.817-77.494 9.202-152.944 9.322-224.247.361-15.084-1.911-26.456-14.733-26.456-29.822v-88.069z"/><path d="m256.002 178.715c38.792 0 70.538-31.569 70.538-70.54 0-38.791-31.566-70.54-70.538-70.54-38.717 0-70.542 31.483-70.542 70.54 0 38.719 31.488 70.54 70.542 70.54zm-58.022-75.439h-2.474c1.051-13.067 6.231-24.969 14.265-34.403l1.739 1.74c1.914 1.914 5.014 1.914 6.927 0 1.914-1.911 1.914-5.014 0-6.927l-1.739-1.739c9.435-8.033 21.337-13.214 34.405-14.264v2.474c0 2.705 2.191 4.899 4.899 4.899s4.899-2.194 4.899-4.899v-2.474c13.067 1.051 24.968 6.231 34.402 14.264l-1.741 1.74c-1.914 1.911-1.914 5.014 0 6.927 1.914 1.914 5.014 1.914 6.927 0l1.741-1.74c8.033 9.434 13.212 21.336 14.263 34.404h-2.474c-2.708 0-4.899 2.194-4.899 4.899s2.191 4.899 4.899 4.899h2.474c-1.051 13.067-6.23 24.969-14.263 34.404l-1.741-1.74c-1.914-1.914-5.014-1.914-6.927 0-1.914 1.914-1.914 5.016 0 6.927l1.741 1.74c-9.434 8.033-21.335 13.213-34.402 14.264v-2.474c0-2.705-2.191-4.899-4.899-4.899s-4.899 2.194-4.899 4.899v2.474c-13.068-1.051-24.97-6.231-34.405-14.264l1.739-1.739c1.914-1.914 1.914-5.016 0-6.927-1.914-1.914-5.014-1.914-6.927 0l-1.739 1.74c-8.033-9.434-13.214-21.336-14.265-34.403h2.474c2.708 0 4.899-2.194 4.899-4.899 0-2.709-2.191-4.903-4.899-4.903z"/><path d="m255.993 126.46c10.09 0 18.295-8.207 18.295-18.295 0-8.372-5.695-15.371-13.396-17.526v-17.981c0-2.705-2.191-4.899-4.899-4.899s-4.899 2.194-4.899 4.899v17.984c-7.688 2.157-13.376 9.154-13.376 17.524-.001 10.087 8.199 18.294 18.275 18.294zm0-26.772c4.684 0 8.497 3.803 8.497 8.478 0 4.686-3.813 8.497-8.497 8.497-4.674 0-8.478-3.811-8.478-8.497 0-4.674 3.804-8.478 8.478-8.478z"/><path d="m287.243 227.877c-1.631.309-2.995 1.421-3.626 2.959-3.889 9.518-8.387 16.809-13.664 22.122-7.415-13.231-9.611-30.712-6.712-53.205.225-1.746-.502-3.476-1.909-4.535-1.407-1.067-3.282-1.289-4.88-.593-27.389 11.733-40.574 34.63-39.302 68.145-2.861-3.057-5.44-6.454-7.712-10.164-1.139-1.861-3.368-2.739-5.473-2.167-2.1.576-3.569 2.473-3.602 4.655-.526 37.288 12.688 58.491 40.397 64.825 8.273 1.894 16.946 1.95 25.04.024 24.828-5.91 39.801-29.372 41.483-49.767 1.23-14.991-4.014-28.741-15.587-40.869-1.143-1.2-2.831-1.746-4.453-1.43zm10.271 41.495c-1.284 15.677-12.717 35.975-33.982 41.041-6.535 1.555-13.659 1.54-20.591-.043-19.29-4.411-29.523-16.96-32.126-40.043 2.894 2.988 6.038 5.691 9.406 8.09 1.588 1.134 3.689 1.213 5.363.211 1.67-1.002 2.588-2.902 2.335-4.832-4.181-32.161 3.899-53.936 24.681-66.268-1.737 23.399 2.311 41.691 12.29 55.731.775 1.084 1.952 1.808 3.268 2.005 1.311.199 2.65-.146 3.708-.957 6.884-5.284 12.668-12.692 17.558-22.521 6.263 8.517 8.913 17.6 8.09 27.586z"/><path d="m147.766 415.523h48.349c7.736 0 14.027-6.294 14.027-14.032v-14.819c0-7.738-6.291-14.032-14.027-14.032h-48.349c-7.736 0-14.027 6.294-14.027 14.032v14.819c0 7.739 6.291 14.032 14.027 14.032zm-4.229-28.85c0-2.335 1.899-4.234 4.229-4.234h48.349c2.33 0 4.229 1.899 4.229 4.234v14.819c0 2.335-1.899 4.234-4.229 4.234h-48.349c-2.33 0-4.229-1.899-4.229-4.234z"/><path d="m278.163 416.243c12.242-12.242 12.246-32.077 0-44.323-12.245-12.25-32.079-12.251-44.325 0-5.918 5.918-9.181 13.788-9.181 22.163 0 8.372 3.263 16.242 9.181 22.16 12.244 12.25 32.078 12.252 44.325 0zm-37.398-37.395c7.018-7.022 17.934-8.411 26.572-3.03l-14.799 14.799c-1.914 1.914-1.914 5.014 0 6.927 1.914 1.914 5.014 1.914 6.927 0l14.799-14.799c5.153 8.308 4.175 19.366-3.03 26.571-8.415 8.42-22.055 8.42-30.47 0-8.4-8.401-8.4-22.067.001-30.468z"/><path d="m358.685 416.243c12.2-12.2 12.296-32.027 0-44.323-12.245-12.25-32.079-12.251-44.325 0-5.918 5.918-9.176 13.788-9.176 22.163 0 8.372 3.258 16.242 9.176 22.16 12.245 12.25 32.078 12.252 44.325 0zm-37.398-37.395c7.015-7.019 17.934-8.412 26.572-3.03l-14.803 14.799c-1.914 1.911-1.914 5.014 0 6.927 1.914 1.914 5.014 1.914 6.927 0l14.804-14.8c5.154 8.308 4.175 19.366-3.03 26.571-8.416 8.421-22.056 8.419-30.47 0-8.401-8.4-8.401-22.066 0-30.467z"/></g></g><g id="Layer_1"/></svg>