<svg id="Capa_1" enable-background="new 0 0 512.087 512.087" height="512" viewBox="0 0 512.087 512.087" width="512" xmlns="http://www.w3.org/2000/svg"><g><g id="Page-1_65_"><g id="_x30_66---Temperature-Timer" transform="translate(-1)"><path id="Shape_420_" d="m2.205 408.747c7.384 54.186 50.618 96.439 104.959 102.58 54.341 6.14 105.913-25.401 125.202-76.573s1.37-108.908-43.503-140.166v-226.321c0-37.703-30.564-68.267-68.266-68.267s-68.267 30.564-68.267 68.267v226.321c-36.928 25.531-56.319 69.693-50.125 114.159zm63.266-102.4c2.45-1.572 3.929-4.283 3.925-7.194v-230.886c0-28.277 22.923-51.2 51.2-51.2s51.2 22.923 51.2 51.2v230.886c.002 2.904 1.481 5.608 3.925 7.177 38.34 24.491 55.924 71.341 43.166 115.01-12.757 43.669-52.797 73.685-98.292 73.685s-85.534-30.016-98.292-73.685c-12.757-43.669 4.826-90.519 43.166-115.01v.017z"/><path id="Shape_419_" d="m105.237 467.832c5.012.987 10.107 1.49 15.215 1.502 37.446.119 69.513-26.8 75.882-63.701s-14.818-73.012-50.137-85.453v-251.913c0-14.138-11.462-25.6-25.6-25.6s-25.6 11.462-25.6 25.6v251.913c-32.508 11.52-53.35 43.297-50.963 77.703s27.416 63.002 61.203 69.923zm.426-133.069c3.767-.973 6.399-4.37 6.4-8.26v-258.236c0-4.713 3.821-8.533 8.533-8.533 4.713 0 8.533 3.821 8.533 8.533v258.236c.001 3.89 2.633 7.288 6.4 8.26 21.759 5.599 38.53 22.943 43.395 44.878 4.864 21.935-3.002 44.743-20.355 59.015-13.987 11.434-32.364 15.994-50.074 12.425-27.19-5.643-46.905-29.28-47.577-57.041s17.876-52.324 44.761-59.277z"/><path id="Shape_418_" d="m111.748 434.347c.539.108 1.088.163 1.638.162 4.386-.013 8.048-3.349 8.468-7.714.421-4.366-2.536-8.339-6.839-9.19-9.914-2.199-17.591-10.05-19.567-20.011-.893-4.568-5.281-7.578-9.864-6.765-4.583.812-7.67 5.147-6.938 9.744 3.192 16.913 16.255 30.242 33.102 33.774z"/><path id="Shape_417_" d="m325.397 0c-43.111.017-84.905 14.855-118.374 42.027-3.655 2.979-4.203 8.356-1.225 12.011 2.979 3.655 8.356 4.203 12.011 1.225 64.358-52.187 156.906-50.59 219.426 3.785s76.935 145.808 34.178 216.781-130.326 100.965-207.618 71.111c-2.852-1.14-6.096-.661-8.495 1.257-2.399 1.917-3.583 4.976-3.1 8.009s2.559 5.572 5.435 6.649c70.306 27.159 150.039 9.639 202.482-44.492s67.43-134.379 38.058-203.79c-29.373-69.411-97.409-114.527-172.778-114.573z"/><path id="Shape_416_" d="m325.397 42.667c-4.713 0-8.533 3.821-8.533 8.533v136.533c0 2.263.9 4.433 2.5 6.033l85.333 85.333c3.348 3.234 8.671 3.188 11.962-.104 3.292-3.292 3.338-8.614.104-11.962l-82.833-82.833v-133c0-4.713-3.82-8.533-8.533-8.533z"/></g></g></g></svg>