<svg id="ICONS" enable-background="new 0 0 64 64" height="64" viewBox="0 0 64 64" width="64" xmlns="http://www.w3.org/2000/svg"><g style="fill:none;stroke:#202020;stroke-width:2;stroke-linecap:round;stroke-linejoin:round;stroke-miterlimit:10"><path d="m47 44c1.916-.125 2.834-3.542 1-6 0 2.083-2 1.719-2 3-1.958-1.958 1.063-1.938-2-5 0 3-1.916 2-1.916 5 0 0-1.084-3-3.084-3 2.063 2.063-1.542 3.458 1 6"/><path d="m16.521 41.771c.492.805.406 1.904-.268 2.619-.393.407-.899.61-1.406.61-.004 0-.008 0-.013 0s-.009 0-.013 0c-.507 0-1.014-.203-1.406-.609-.674-.715-.76-1.814-.268-2.619l.003-.004 1.684-2.768 1.684 2.768z"/><path d="m52 31c0-1.104-.896-2-2-2h-12c-1.104 0-2 .896-2 2v25h16z"/><path d="m8 27c0-1.104.896-2 2-2h10c1.104 0 2 .896 2 2v32h-14z"/><path d="m20 25v-20"/><path d="m17 25v-20"/><path d="m13 25v-20"/><path d="m10 25v-20"/><path d="m8 30h-3v22"/><path d="m5 34h3"/><path d="m22 34h1"/><path d="m50 29v-24"/><path d="m47 29v-24"/><path d="m51 56v3h-4v-3"/><path d="m41 56v3h-4v-3"/><path d="m22 56h10v-11h4"/><path d="m22 49h2c1.104 0 2-.896 2-2v-21c0-1.104.896-2 2-2h1"/><path d="m35 24h12"/><path d="m35 24c0 1.104-.896 2-2 2h-2c-1.104 0-2-.896-2-2v-1c0-1.104.896-2 2-2h2c1.104 0 2 .896 2 2z"/><path d="m59 44c0 1.104-.896 2-2 2-1.104 0-2-.896-2-2v-2c0-1.104.896-2 2-2 1.104 0 2 .896 2 2z"/><path d="m37 11c0 1.104-.896 2-2 2h-2c-1.104 0-2-.896-2-2v-4c0-1.104.896-2 2-2h2c1.104 0 2 .896 2 2z"/><path d="m32 26v6c0 1.104-.896 2-2 2h-1"/><path d="m34 13v2c0 1.104.896 2 2 2h11"/><path d="m52 51h3c1.104 0 2-.896 2-2v-3"/><path d="m57 40v-35"/><path d="m57 20h2"/><path d="m52 34h5"/><path d="m41 47h6"/></g></svg>