<?xml version="1.0" encoding="iso-8859-1"?>
<!-- Generator: Adobe Illustrator 19.0.0, SVG Export Plug-In . SVG Version: 6.00 Build 0)  -->
<svg version="1.1" id="Capa_1" xmlns="http://www.w3.org/2000/svg" xmlns:xlink="http://www.w3.org/1999/xlink" x="0px" y="0px"
	 viewBox="0 0 512 512" style="enable-background:new 0 0 512 512;" xml:space="preserve">
<g>
	<g>
		<path d="M450.257,0h-52.891H114.634H61.743C27.698,0,0,27.698,0,61.743v53.4v282.733v52.381C0,484.302,27.698,512,61.743,512
			h79.704c4.218,0,7.637-3.419,7.637-7.637c0-4.218-3.419-7.637-7.637-7.637H122.27V463.69c0-13.177,10.72-23.897,23.898-23.897
			h219.663c13.178,0,23.898,10.72,23.898,23.897v33.036H175.05c-4.218,0-7.637,3.419-7.637,7.637c0,4.218,3.419,7.637,7.637,7.637
			h275.207C484.302,512,512,484.302,512,450.257v-52.381V115.143v-53.4C512,27.698,484.302,0,450.257,0z M122.27,15.274h267.46
			v33.985c0,13.215-10.752,23.967-23.967,23.967H146.237c-13.215,0-23.967-10.751-23.967-23.967V15.274z M15.274,122.78h33.51
			c13.196,0,23.932,10.736,23.932,23.932v219.595c0,13.196-10.736,23.932-23.932,23.932h-33.51V122.78z M496.727,107.506h-33.51
			c-21.618,0-39.206,17.588-39.206,39.206v219.595c0,21.618,17.588,39.206,39.206,39.206h33.51v44.745
			c-0.001,25.622-20.847,46.468-46.47,46.468h-45.254V463.69c0-21.599-17.572-39.171-39.172-39.171H146.168
			c-21.599,0-39.172,17.572-39.172,39.171v33.036H61.743c-25.623,0-46.469-20.846-46.469-46.469v-44.745h33.51
			c21.618,0,39.206-17.588,39.206-39.206V146.712c0-21.618-17.588-39.206-39.206-39.206h-33.51V61.743
			c0-25.623,20.846-46.469,46.469-46.469h45.254v33.985c0,21.637,17.604,39.24,39.241,39.24h219.525
			c21.637,0,39.241-17.603,39.241-39.24V15.274h45.254c25.623,0,46.469,20.846,46.469,46.469V107.506z M496.726,122.78v267.459
			h-33.51c-13.196,0-23.932-10.736-23.932-23.932V146.712c0-13.196,10.736-23.932,23.932-23.932H496.726z"/>
	</g>
</g>
<g>
	<g>
		<path d="M369.683,105.809H209.33c-4.218,0-7.637,3.419-7.637,7.637s3.419,7.637,7.637,7.637h160.353
			c11.709,0,21.234,9.526,21.234,21.234v227.366c0,11.709-9.526,21.234-21.234,21.234H142.317c-11.709,0-21.234-9.526-21.234-21.234
			V142.317c0-11.709,9.526-21.234,21.234-21.234h32.223c4.218,0,7.637-3.419,7.637-7.637s-3.419-7.637-7.637-7.637h-32.223
			c-20.131,0-36.508,16.377-36.508,36.508v227.366c0,20.131,16.377,36.508,36.508,36.508h227.366
			c20.131,0,36.508-16.377,36.508-36.508V142.317C406.191,122.186,389.814,105.809,369.683,105.809z"/>
	</g>
</g>
<g>
	<g>
		<path d="M367.05,131.265h-222.1c-7.546,0-13.685,6.139-13.685,13.685v222.1c0,7.546,6.139,13.685,13.685,13.685h222.1
			c7.546,0,13.685-6.139,13.685-13.685v-222.1C380.735,137.404,374.596,131.265,367.05,131.265z M146.538,146.539h62.792v11.123
			h-62.792V146.539z M146.538,172.936h62.792v10.701h-62.792V172.936z M146.538,198.91h62.792v10.702h-62.792V198.91z
			 M146.538,224.885h62.792v10.701h-62.792V224.885z M146.538,250.86h62.792v10.702h-62.792V250.86z M146.538,276.835h62.792v10.701
			h-62.792V276.835z M146.538,302.81h62.792v10.702h-62.792V302.81z M209.331,365.462h-62.792V354.76h62.792V365.462z
			 M209.331,339.486h-62.792v-10.701h62.792V339.486z M287.396,365.462h-62.792V354.76h62.792V365.462z M287.396,339.486h-62.792
			v-10.701h62.792V339.486z M287.396,313.512h-62.792V302.81h62.792V313.512z M287.396,287.536h-62.792v-10.701h62.792V287.536z
			 M287.396,261.562h-62.792V250.86h62.792V261.562z M287.396,235.586h-62.792v-10.701h62.792V235.586z M287.396,209.612h-62.792
			V198.91h62.792V209.612z M287.396,183.637h-62.792v-10.701h62.792V183.637z M287.396,157.662h-62.792v-11.123h62.792V157.662z
			 M365.462,365.462H302.67v-0.001V354.76h62.792V365.462z M365.462,339.486H302.67v-10.701h62.792V339.486z M365.462,287.536
			h-20.874c-4.218,0-7.637,3.419-7.637,7.637c-0.001,4.218,3.419,7.637,7.636,7.637h20.874v10.702H302.67V302.81h10.352
			c4.218,0,7.637-3.419,7.637-7.637c0-4.218-3.419-7.637-7.637-7.637H302.67v-10.701h62.792V287.536z M365.462,261.562H302.67
			V250.86h62.792V261.562z M365.462,235.586H302.67v-10.701h62.792V235.586z M365.462,209.612H302.67V198.91h62.792V209.612z
			 M365.462,183.637h-0.001H302.67v-10.701h62.792V183.637z M365.462,157.662h-0.001H302.67v-11.123h62.792V157.662z"/>
	</g>
</g>
<g>
	<g>
		<path d="M42.932,145.52c-4.218,0-7.637,3.419-7.637,7.637v202.97c0,4.218,3.419,7.637,7.637,7.637s7.637-3.419,7.637-7.637
			v-202.97C50.569,148.939,47.15,145.52,42.932,145.52z"/>
	</g>
</g>
<g>
	<g>
		<path d="M357.485,33.979h-202.97c-4.218,0-7.637,3.419-7.637,7.637c0,4.218,3.419,7.637,7.637,7.637h202.97
			c4.218,0,7.637-3.419,7.637-7.637C365.122,37.398,361.703,33.979,357.485,33.979z"/>
	</g>
</g>
<g>
	<g>
		<path d="M357.485,460.623h-202.97c-4.218,0-7.637,3.419-7.637,7.637c0,4.218,3.419,7.637,7.637,7.637h202.97
			c4.218,0,7.637-3.42,7.637-7.637C365.122,464.042,361.703,460.623,357.485,460.623z"/>
	</g>
</g>
<g>
	<g>
		<path d="M468.005,145.52c-4.217,0-7.637,3.42-7.637,7.637v202.97c0,4.218,3.419,7.637,7.637,7.637
			c4.218,0,7.637-3.419,7.637-7.637v-202.97C475.642,148.939,472.223,145.52,468.005,145.52z"/>
	</g>
</g>
<g>
</g>
<g>
</g>
<g>
</g>
<g>
</g>
<g>
</g>
<g>
</g>
<g>
</g>
<g>
</g>
<g>
</g>
<g>
</g>
<g>
</g>
<g>
</g>
<g>
</g>
<g>
</g>
<g>
</g>
</svg>
