<svg id="Layer_1" enable-background="new 0 0 500 500" viewBox="0 0 500 500" xmlns="http://www.w3.org/2000/svg"><g id="_x33_6"><path d="m468.571 28.214h-228.359-208.783c-3.553 0-6.429 2.875-6.429 6.429v205.714 225c0 3.553 2.875 6.429 6.429 6.429h437.143c3.553 0 6.429-2.876 6.429-6.429v-430.714c-.001-3.553-2.877-6.429-6.43-6.429zm-6.428 421.624-57.857-57.857v-312.338c0-3.553-2.876-6.429-6.429-6.429h-102.857c-3.553 0-6.429 2.876-6.429 6.429v196.624l-40.455-40.454c-.435-.436-.962-.695-1.475-.98v-193.762h215.502zm-81.161-81.161v-263.32c0-3.553-2.875-6.428-6.428-6.428h-60.268c-3.553 0-6.429 2.875-6.429 6.428v190.195l-6.428-6.429v-203.052h90v293.052zm-12.857-12.857-47.411-47.411v-196.623h47.411zm-330.268-314.749h195.927v192.857h-195.927zm0 354.419h237.424c6.805 0 13.228 2.982 17.785 8.369l3.221 3.516h-258.43zm0 24.742h273.019c2.549 0 4.853-1.507 5.883-3.836 1.029-2.336.584-5.053-1.137-6.931l-12.901-14.094c-6.843-8.092-16.844-12.738-27.441-12.738h-237.423v-12.857h237.424c14.396 0 27.975 6.303 37.411 17.465l14.263 15.708c4.652 5.512 5.663 12.995 2.624 19.537-3.038 6.541-9.404 10.603-16.611 10.603h-275.111zm0-121.17h166.709c5.512 0 10.767 1.952 14.904 5.456h-181.613zm0 18.313h195.877c2.505 0 4.778-1.45 5.833-3.723 1.054-2.267.69-4.941-.923-6.855l-6.636-7.854c-6.843-8.092-16.844-12.738-27.441-12.738h-166.71v-12.857h166.709c14.396 0 27.975 6.303 37.259 17.296l7.986 9.448c4.652 5.512 5.663 12.995 2.624 19.537-3.038 6.541-9.404 10.603-16.611 10.603h-197.967zm0 128.571h275.11c12.267 0 23.103-6.912 28.276-18.049 5.167-11.131 3.453-23.869-4.621-33.418l-14.263-15.707c-11.728-13.887-28.891-21.854-47.078-21.854h-237.424v-13.83h197.967c12.267 0 23.103-6.912 28.276-18.049 5.167-11.131 3.453-23.869-4.47-33.248l-7.985-9.448c-11.728-13.887-28.891-21.854-47.078-21.854h-166.71v-13.704h202.355c.206 0 .379-.098.58-.117l68.94 68.939.017.017 83.555 83.555.017.017 59.732 59.732h-415.196z"/><path d="m85.387 177.421c11.149-12.725 11.149-28.546.006-41.271l-5.041-5.763c-6.868-7.854-6.868-16.492 0-24.346 2.341-2.668 2.071-6.729-.603-9.065-2.668-2.354-6.736-2.078-9.066.602-11.149 12.725-11.149 28.546-.006 41.271l5.041 5.763c6.868 7.854 6.868 16.492-.006 24.346l-3.635 4.155c-12.034 13.755-10.942 31.095 2.782 44.166 1.243 1.186 2.838 1.776 4.432 1.776 1.695 0 3.391-.665 4.652-1.996 2.449-2.568 2.355-6.636-.219-9.084-8.808-8.4-9.511-17.773-1.965-26.399z"/><path d="m123.959 177.421c11.149-12.725 11.149-28.546.006-41.271l-5.041-5.763c-6.868-7.854-6.868-16.492 0-24.346 2.341-2.668 2.071-6.729-.603-9.065-2.662-2.354-6.736-2.078-9.066.602-11.149 12.725-11.149 28.546-.006 41.271l5.041 5.763c6.868 7.854 6.868 16.492-.006 24.346l-3.635 4.155c-12.034 13.755-10.942 31.095 2.782 44.166 1.243 1.186 2.838 1.776 4.432 1.776 1.695 0 3.39-.665 4.652-1.996 2.449-2.568 2.355-6.636-.219-9.084-8.809-8.4-9.511-17.773-1.965-26.399z"/><path d="m162.53 177.421c11.149-12.725 11.149-28.546.006-41.271l-5.041-5.763c-6.868-7.854-6.868-16.492 0-24.346 2.341-2.668 2.071-6.729-.603-9.065-2.668-2.354-6.73-2.078-9.066.602-11.149 12.725-11.149 28.546-.006 41.271l5.041 5.763c6.868 7.854 6.868 16.492-.006 24.346l-3.635 4.155c-12.034 13.755-10.942 31.095 2.782 44.166 1.243 1.186 2.838 1.776 4.432 1.776 1.695 0 3.39-.665 4.652-1.996 2.449-2.568 2.355-6.636-.219-9.084-8.808-8.4-9.511-17.773-1.965-26.399z"/><path d="m201.102 177.421c11.149-12.725 11.149-28.546.006-41.271l-5.041-5.763c-6.868-7.854-6.868-16.492 0-24.346 2.341-2.668 2.071-6.729-.603-9.065-2.668-2.354-6.736-2.078-9.066.602-11.149 12.725-11.149 28.546-.006 41.271l5.041 5.763c6.868 7.854 6.868 16.492-.006 24.346l-3.635 4.155c-12.034 13.755-10.942 31.095 2.782 44.166 1.243 1.186 2.838 1.776 4.432 1.776 1.695 0 3.39-.665 4.652-1.996 2.449-2.568 2.355-6.636-.219-9.084-8.808-8.4-9.511-17.773-1.965-26.399z"/></g></svg>