<svg id="Capa_1" enable-background="new 0 0 512 512" height="512" viewBox="0 0 512 512" width="512" xmlns="http://www.w3.org/2000/svg"><g><path d="m492.162 41.849h-4.005v-8.565c0-10.938-8.899-19.838-19.838-19.838h-424.638c-10.938 0-19.838 8.899-19.838 19.838v8.565h-4.005c-10.939 0-19.838 8.899-19.838 19.838v39.071c0 10.938 8.899 19.838 19.838 19.838h4.005v8.565c0 9.71 7.018 17.797 16.244 19.495v306.838c-9.227 1.698-16.244 9.786-16.244 19.496v11.477c0 6.665 5.423 12.088 12.088 12.088h440.139c6.665 0 12.088-5.423 12.088-12.088v-11.477c0-9.711-7.018-17.798-16.244-19.496v-131.374c0-4.143-3.357-7.5-7.5-7.5s-7.5 3.357-7.5 7.5v131.031h-35.924v-177.153c0-53.641-43.64-97.28-97.28-97.28h-50.21c-4.143 0-7.5 3.357-7.5 7.5s3.357 7.5 7.5 7.5h50.21c45.369 0 82.28 36.911 82.28 82.28v177.153h-15.846v-177.153c0-36.632-29.803-66.435-66.435-66.435h-135.419c-36.632 0-66.435 29.803-66.435 66.435v177.153h-15.845v-177.153c0-45.369 36.911-82.28 82.28-82.28h50.21c4.143 0 7.5-3.357 7.5-7.5s-3.357-7.5-7.5-7.5h-50.21c-53.641 0-97.28 43.64-97.28 97.28v177.153h-35.923v-306.152h401.826v140.121c0 4.143 3.357 7.5 7.5 7.5s7.5-3.357 7.5-7.5v-140.464c9.227-1.698 16.244-9.785 16.244-19.495v-8.565h4.005c10.938 0 19.838-8.899 19.838-19.838v-39.071c0-10.939-8.899-19.838-19.838-19.838zm-453.319-8.566c0-2.622 2.216-4.838 4.838-4.838h424.639c2.622 0 4.838 2.216 4.838 4.838v8.565h-434.315zm98.012 244.715c0-28.361 23.073-51.435 51.435-51.435h135.42c28.361 0 51.435 23.073 51.435 51.435v177.153h-18.768c2.14-3.987 3.357-8.539 3.357-13.372 0-12.567-8.216-23.245-19.557-26.963 13.329-50.542-10.975-88.165-22.549-102.482-6.134-7.592-18.249-3.597-18.836 6.335-.942 15.975-4.815 26.527-8.932 33.37-2.182-18.144-13.794-36.758-32.714-52.04-8.437-6.813-10.583-16.11-6.38-27.63 3.682-10.093-7.429-18.988-15.985-12.976-57.916 40.693-23.616 106.174-29.252 117.246-2.627 1.181-4.129.846-5.034.488-2.928-1.163-6.03-5.382-8.511-11.576-3.835-9.575-17.232-8.737-20.062 1.063-5.262 18.219-5.325 34.758-.248 49.32-9.83 4.462-16.688 14.364-16.688 25.844 0 4.833 1.218 9.385 3.357 13.372h-21.489v-177.152zm33.132 163.781c0-6.891 5.296-12.815 12.479-13.319 8.099-.536 14.245 5.94 14.263 13.286 0 .016.002.031.002.046-.007 7.367-6.003 13.359-13.371 13.359-7.374 0-13.373-5.999-13.373-13.372zm63.826-162.184c-1.151 12.622 3.591 23.74 13.909 32.075 17.814 14.388 27.84 31.63 27.507 47.305-.253 11.884 13.797 17.62 21.496 8.982 5.845-6.557 12.864-18.044 15.837-37.026 10.547 16.435 23.037 45.652 12.449 82.477h-44.263c-1.33-20.153-8.697-38.77-21.986-55.429h-.001c-6.666-8.359-20.029-6.475-23.927 3.652-4.181 10.861-10.313 30.726-9.343 51.786-8.367-.111-15.972 3.424-21.259 9.169-4.649-5.052-10.882-8.169-17.413-8.969-3.84-9.326-4.838-19.943-2.988-31.706 7.59 10.472 18 12.978 28.149 8.274 26.845-12.442-20.018-69.594 21.833-110.59zm12.164 142.986c-1.397-1.517-3.194-3.09-5.055-4.344-2.311-19.146 3.174-38.415 7.248-49.455 10.402 13.547 16.289 28.527 17.554 44.648-7.774.308-14.83 3.793-19.747 9.151zm-34.245 19.198s.001-.011.001-.017l.001-.014c.019-7.356 6.016-13.341 13.37-13.341 7.316 0 13.372 6.024 13.372 13.372 0 7.373-5.999 13.372-13.372 13.372s-13.372-5.999-13.372-13.372zm41.745 0c0-7.373 5.999-13.372 13.373-13.372 7.373 0 13.372 5.999 13.372 13.372s-5.999 13.372-13.372 13.372c-7.374 0-13.373-5.999-13.373-13.372zm38.391-13.372h38.648.845c7.374 0 13.373 5.999 13.373 13.372s-5.999 13.372-13.373 13.372h-39.493c4.568-8.53 4.356-18.641 0-26.744zm176.451 41.744c2.622 0 4.838 2.216 4.838 4.839v8.564h-434.314v-8.564c0-2.623 2.216-4.839 4.838-4.839zm4.838-340.99c0 2.622-2.216 4.838-4.838 4.838-3.293 0-420.72 0-424.639 0-2.622 0-4.838-2.216-4.838-4.838v-8.565h434.314v8.565zm23.843-28.403c0 2.622-2.216 4.838-4.838 4.838-6.266 0-465.758 0-472.324 0-2.622 0-4.838-2.216-4.838-4.838v-39.071c0-2.622 2.216-4.838 4.838-4.838h472.324c2.622 0 4.838 2.216 4.838 4.838z"/></g></svg>