<svg id="Icons" height="512" viewBox="0 0 60 60" width="512" xmlns="http://www.w3.org/2000/svg"><path d="m53 0h-46a7.008 7.008 0 0 0 -7 7v46a7.009 7.009 0 0 0 7 7h46a7.009 7.009 0 0 0 7-7v-46a7.008 7.008 0 0 0 -7-7zm5 53a5.006 5.006 0 0 1 -5 5h-46a5.006 5.006 0 0 1 -5-5v-46a5.006 5.006 0 0 1 5-5h46a5.006 5.006 0 0 1 5 5z"/><path d="m53 4h-46a3 3 0 0 0 -3 3v46a3 3 0 0 0 3 3h46a3 3 0 0 0 3-3v-46a3 3 0 0 0 -3-3zm1 49a1 1 0 0 1 -1 1h-46a1 1 0 0 1 -1-1v-46a1 1 0 0 1 1-1h46a1 1 0 0 1 1 1z"/><path d="m49 9h-5a2 2 0 0 0 -2 2v10a2 2 0 0 0 2 2h5a2 2 0 0 0 2-2v-10a2 2 0 0 0 -2-2zm0 2v2h-5v-2zm-5 10v-6h5v6z"/><path d="m34 19a2 2 0 0 0 -2-2h-4a2 2 0 0 0 -2 2v10a2 2 0 0 0 2 2h4a2 2 0 0 0 2-2zm-6 10v-10h4v10z"/><path d="m24 35h-10a2 2 0 0 0 -2 2v4a2 2 0 0 0 2 2h10a2 2 0 0 0 2-2v-4a2 2 0 0 0 -2-2zm0 6h-10v-4h10z"/><path d="m46 35h-10a2 2 0 0 0 -2 2v4a2 2 0 0 0 2 2h10a2 2 0 0 0 2-2v-4a2 2 0 0 0 -2-2zm0 6h-10v-4h10z"/></svg>