<svg id="Layer_1" height="512" viewBox="0 0 253.6206 255.0334" width="512" xmlns="http://www.w3.org/2000/svg"><g><path d="m106.1977 127.592-13.1779-8.2411c-4.8154-3.0117-6.2822-9.3789-3.2715-14.1943 1.8955-3.0308 5.1631-4.8403 8.7402-4.8403 1.9268 0 3.8135.5425 5.4551 1.5688l15.2596 9.543-6.6069-14.2949c-.6056-1.3101-1.5239-2.3733-2.6213-3.154-1.4792-1.353-3.33-2.4052-5.533-3.0667-8.7101-2.6129-21.9402 1.1118-28.3223 15.0439-4.6223 10.2553-7.4895 18.6582-9.026 27.5761h37.1099c.5969-2.1344 1.2749-4.0956 1.9941-5.9405z"/><path d="m134.4248 183.3029 11.7314 44.8823c1.4102 5.395 6.2754 8.9688 11.6025 8.9683 1.0039 0 2.0254-.127 3.043-.3931 6.4111-1.6758 10.251-8.2324 8.5752-14.6445l-14.0752-53.8477c-1.3809-5.2813-6.1514-8.9653-11.6104-8.9653h-22.8478v24z"/><path d="m126.7029 193.8021 10.5898 41.4775c1.0957 4.293 3.8037 7.8906 7.625 10.1328 2.5625 1.5029 5.4131 2.2715 8.3047 2.2715 1.4209 0 2.8516-.1855 4.2617-.5605l21.6406-5.752c1.6016-.4258 2.5547-2.0684 2.1289-3.6699s-2.0703-2.5537-3.6699-2.1289l-21.6406 5.752c-2.7236.7217-5.5605.3379-7.9893-1.0879-2.4297-1.4248-4.1514-3.7129-4.8477-6.4414l-11.166-43.7354c-.3398-1.3281-1.5361-2.2578-2.9072-2.2578h-8.1893v6z"/><path d="m118.4699 200.1172v-56.2997c0-4.3621-3.5486-7.9114-7.9108-7.9114h-56.1298c-4.3622 0-7.9109 3.5493-7.9109 7.9114v1.7626l-1.9684-4.5929-6.1538-14.3585c-2.5107-5.8579-9.0264-8.9678-15.2012-7.2207l-15.4863 4.6104 1.7129 5.751 15.4473-4.5991c3.2344-.9175 6.6846.7251 8.0117 3.8218l11.2643 26.2828 1.0675 2.491c.4646-.0131.9287-.0451 1.3933-.0451 21.7506 0 40.9019 14.0732 47.5508 34.5565h21.2173v7.84 6.008h-18.7837c.0349 1.0335.0437 2.0659.0143 3.0962h18.7694v2.3736 14.9753c-1.1647-.3113-2.3826-.493-3.6454-.493-7.7899 0-14.1049 6.315-14.1049 14.105 0 7.7899 6.3149 14.105 14.1049 14.105s14.105-6.3151 14.105-14.105c0-4.332-1.9569-8.2035-5.0304-10.7909-.0739 1.5717-.3528 3.1099-.8435 4.5833 1.3059 1.7288 2.0896 3.8741 2.0896 6.2076 0 5.7-4.6206 10.3207-10.3207 10.3207-5.7 0-10.3207-4.6207-10.3207-10.3207s4.6207-10.3207 10.3207-10.3207c1.2256 0 2.3959.2247 3.4865.6168-.2786 1.6931-.9254 3.304-1.9182 4.7336l-.647.9312c-.2974-.0679-.6038-.1113-.9216-.1113-2.2888 0-4.1504 1.8616-4.1504 4.1505s1.8616 4.1505 4.1504 4.1505c2.2889 0 4.1515-1.8616 4.1515-4.1505 0-.8405-.2549-1.6208-.686-2.275l.645-.9285c1.7214-2.4779 2.6315-5.3826 2.6315-8.3997v-13.5489-3.4352-2.3736-9.1044zm-68.8553-48.8008v-7.4988c0-1.7606.9598-3.2873 2.3737-4.1271.7184-.4268 1.5465-.6881 2.441-.6881h11.8933c-.3468 3.163-.548 6.447-.6134 9.9407h36.2815c.0994-3.7206.4486-6.9954.9691-9.9407h7.5994c.8945 0 1.7227.2614 2.441.6882 1.4138.8398 2.3735 2.3665 2.3735 4.127v7.4988z"/><path d="m91.6811 195.9003c-6.519-24.8508-32.0437-39.7644-56.8939-33.2424-12.0381 3.1582-22.125 10.8156-28.4041 21.5616-6.2781 10.7455-7.9965 23.2931-4.8378 35.3312 5.4839 20.9025 24.4119 34.7734 45.0756 34.7734 3.9034 0 7.8684-.4949 11.8174-1.531 12.0381-3.1582 22.126-10.8156 28.405-21.5611 6.278-10.746 7.9965-23.2936 4.8378-35.3317zm-5.2654.348-5.2546 1.3787c-3.4033-11.6224-12.5168-20.8259-24.089-24.3466l1.431-5.2314c13.0625 3.9385 23.889 14.2316 27.9126 28.1993zm-6.8027 11.4777c0 8.8005-3.4696 16.801-9.1042 22.7235l-17.7421-17.9275c1.2494-1.6055 1.861-3.6767 1.5858-5.7939l24.4128-6.4056c.5484 2.3818.8477 4.8576.8477 7.4035zm-66 0c0-8.8008 3.4698-16.8015 9.1047-22.724l17.7416 17.9271c-1.2495 1.6054-1.8611 3.6767-1.5859 5.7938l-24.4128 6.4056c-.5482-2.3816-.8476-4.857-.8476-7.4025zm40.7368-32.0752-6.6577 24.339c-.9937-.139-2.0303-.0894-3.0613.1812-1.0313.2706-1.9587.7362-2.7561 1.3452l-17.7372-17.9225c5.8969-5.4958 13.7979-8.8677 22.4755-8.8677 2.6647 0 5.2534.3258 7.7368.9248zm-2.9806 30.8267c.6893 2.6268-.8815 5.315-3.5083 6.0042-2.6268.6893-5.3149-.8815-6.0042-3.5082-.6892-2.6268.8815-5.315 3.5082-6.0043 2.6269-.6892 5.3151.8815 6.0043 3.5083zm-11.9884 4.1791c.7997 1.9794 2.3493 3.4834 4.2258 4.2686l-6.6616 24.353c-10.5438-3.2372-18.8487-11.6258-21.9786-22.2156zm6.1531 4.8046c.9937.139 2.0303.0894 3.0613-.1812 1.0311-.2706 1.9587-.7363 2.7561-1.3453l17.7378 17.9229c-5.897 5.4961-13.7982 8.8682-22.4761 8.8682-2.6648 0-5.2536-.3258-7.737-.9249zm8.3113-10.6668c-.7998-1.9794-2.3494-3.4833-4.2258-4.2686l6.6614-24.3522c10.5435 3.2371 18.8484 11.6252 21.9785 22.2147zm-17.7478-37.1455c3.5115-.9212 7.0361-1.3611 10.5082-1.3611 3.3978 0 6.7422.4244 9.9689 1.2297l-1.4327 5.238c-2.7361-.6674-5.5903-1.0294-8.5288-1.0294-9.4991 0-18.1447 3.7045-24.5846 9.7366l-3.8493-3.8895c4.9852-4.7143 11.0971-8.1344 17.9183-9.9243zm-25.2584 19.1734c1.6802-2.8754 3.6723-5.4966 5.9208-7.8405l3.8483 3.8885c-6.1842 6.4673-9.9951 15.2221-9.9951 24.8557 0 2.8085.3338 5.539.9451 8.1641l-5.2521 1.3781c-2.4698-10.4064-.8819-21.1791 4.533-30.4459zm-4.0256 32.3795 5.2513-1.3779c3.4031 11.6227 12.5165 20.8266 24.0889 24.3474l-1.4365 5.2514c-3.1096-.9379-6.1318-2.2433-9.007-3.9233-9.2668-5.4144-15.9393-14.0194-18.8967-24.2976zm50.3145 28.6003c-6.821 1.7892-13.8247 1.8103-20.4819.1513l1.438-5.257c2.736.6674 5.5904 1.0295 8.529 1.0295 9.4994 0 18.145-3.7047 24.5851-9.7371l3.849 3.8891c-4.9854 4.7142-11.0974 8.1343-17.9192 9.9242zm25.2595-19.1739c-1.6803 2.8756-3.6724 5.4969-5.9211 7.8409l-3.8479-3.8881c6.184-6.4673 9.9946-15.2218 9.9946-24.8551 0-2.8089-.3337-5.5397-.9453-8.165l5.2526-1.3782c2.4699 10.4064.8819 21.1792-4.5329 30.4455z"/><ellipse cx="123.816" cy="69.235" rx="22.5" ry="22.5" transform="matrix(.451 -.893 .893 .451 6.197 148.543)"/><path d="m253.6206 163.9167v-1.1667-4.5h-9.4464l1.8221-4.8386-2.8076-1.0573-2.2202 5.8959h-6.8176-.8339c.2145-.4696.3477-1.1198.3477-1.8391 0-1.4316-.526-2.592-1.175-2.592s-1.175 1.1605-1.175 2.592c0 .7193.1332 1.3695.3477 1.8391h-.834-2.8961-.8339c.2145-.4696.3477-1.1198.3477-1.8391 0-1.4316-.526-2.592-1.175-2.592s-1.175 1.1605-1.175 2.592c0 .7193.1332 1.3695.3477 1.8391h-.834-2.8961-.8339c.2145-.4696.3477-1.1198.3477-1.8391 0-1.4316-.526-2.592-1.175-2.592s-1.175 1.1605-1.175 2.592c0 .7193.1332 1.3695.3477 1.8391h-.834-2.8961-.8339c.2145-.4696.3477-1.1198.3477-1.8391 0-1.4316-.526-2.592-1.175-2.592s-1.175 1.1605-1.175 2.592c0 .7193.1332 1.3695.3477 1.8391h-.834-2.8961-.8339c.2145-.4696.3477-1.1198.3477-1.8391 0-1.4316-.526-2.592-1.175-2.592s-1.175 1.1605-1.175 2.592c0 .7193.1332 1.3695.3477 1.8391h-.834-6.651l-2.2201-5.8959-2.8075 1.0573 1.822 4.8386h-17.8093v5.6667h7.8367v91.1168h67.4966v-91.1168z"/><path d="m207.6146 150.501c.8903 0 1.6525 1.1 2.0098 2.6793.6927.1402 1.4028.2644 2.1244.3762.3142-1.7798 1.125-3.0555 2.0846-3.0555 1.043 0 1.9115 1.5054 2.1549 3.5303.6243.0439 1.2568.075 1.8945.0974.2261-2.0754 1.1093-3.6276 2.1693-3.6276 1.0573 0 1.9379 1.5444 2.1669 3.6115.6411-.0277 1.2751-.0665 1.9021-.1159.2493-2.007 1.1129-3.4955 2.1498-3.4955.9471 0 1.7511 1.2413 2.0741 2.9849.7358-.121 1.4565-.2568 2.1613-.4075.3671-1.5228 1.1129-2.5774 1.9834-2.5774.6722 0 1.2679.636 1.6766 1.6212 7.1827-2.2493 11.9338-6.1368 11.9338-10.5589 0-3.4196-12.6815-5.158-25.584-5.2177l4.5913-7.3357-16.8501-10.5468-3.4833 5.5653-20.8173-13.0294c-.3839 1.257-.9998 2.4096-1.8091 3.4169l20.5806 12.8811-3.4834 5.5657 6.698 4.1924c-4.8667.5512-8.8353 1.4231-10.8801 2.6148h-17.9644c-1.0889-3.8475-4.9063-6.3589-8.9521-5.7136l-20.0969 3.2108-7.5206 4.88c-1.6729 1.0859-3.6113 1.6597-5.6064 1.6597-1.9336 0-3.8213-.5415-5.4619-1.5669l-19.2529-12.0403 1.6273 3.5207c5.0701.6313 9.0089 4.9587 9.0089 10.1973v9.0941c1.4744 2.2648 4.0009 3.6331 6.6991 3.6331.418 0 .8418-.0332 1.2646-.1006l41.8623-6.688c3.2777-.5238 5.7695-2.9689 6.5112-6.0026h16.7808c1.307 3.5761 5.7522 6.6321 11.928 8.491.4086-1.0555 1.0253-1.7438 1.7249-1.7438zm2.5265-27.5531 10.4175 6.5191-1.1516 1.8382-10.416-6.5198zm-2.4452 3.9059 10.417 6.5185-1.1503 1.8392-10.4165-6.5204zm-3.5953 5.7442 1.1506-1.8385 10.4167 6.5195-1.15 1.8382zm-6.425 8.9607c0-1.0624 4.6578-1.9868 11.526-2.4636l6.8933 4.3146 2.9139-4.6558c.2726-.0013.545-.0026.8202-.0026 12.2349 0 22.1533 1.257 22.1533 2.8074 0 1.5505-9.9185 2.8075-22.1533 2.8075-12.2349-.0001-22.1534-1.257-22.1534-2.8075z"/><path d="m159.8725 95.9249-2.0461 3.2687 5.5487 3.4728 3.5687-2.3156z"/><path d="m214.3452 82.6296c.9678-.9278.0371-3.0879-.9414-2.1485-2.4406 2.3438-4.2832 5.6836-4.6807 9.7032-.4297 4.332 2.7686 7.1132 3.1289 11.1796.2422 2.7383-1.0371 5.7364-2.502 7.5606-.8829 1.0957.4404 2.8516 1.3184 1.7578 2.4551-3.0527 3.5273-7.4707 2.7168-11.8047-.8066-4.3144-3.8828-6.3906-2.2197-11.3105.6465-1.9141 1.9033-3.711 3.1797-4.9375z"/><path d="m225.2778 82.6296c.9668-.9278.0371-3.0879-.9414-2.1485-2.4396 2.3438-4.2832 5.6836-4.6818 9.7032-.4276 4.332 2.7697 7.1132 3.1299 11.1796.2423 2.7383-1.037 5.7364-2.5018 7.5606-.882 1.0957.4404 2.8516 1.3182 1.7578 2.4552-3.0527 3.5275-7.4707 2.7168-11.8047-.8055-4.3144-3.8827-6.3906-2.2196-11.3105.6465-1.9141 1.9032-3.711 3.1797-4.9375z"/><path d="m236.2093 82.6296c.9679-.9278.0382-3.0879-.9403-2.1485-2.4404 2.3438-4.2832 5.6836-4.6816 9.7032-.4287 4.332 2.7686 7.1132 3.1289 11.1796.243 2.7383-1.0371 5.7364-2.502 7.5606-.8818 1.0957.4413 2.8516 1.3193 1.7578 2.4541-3.0527 3.5264-7.4707 2.7168-11.8047-.8057-4.3144-3.8838-6.3906-2.2198-11.3105.6466-1.9141 1.9033-3.711 3.1787-4.9375z"/><path d="m253.6206 0h-81l9.6667 20h71.3333zm-67.256 9.9167c-1.4498 0-2.625-1.1752-2.625-2.625s1.1752-2.625 2.625-2.625c1.4497 0 2.625 1.1752 2.625 2.625s-1.1753 2.625-2.625 2.625zm8.625 0c-1.4498 0-2.625-1.1752-2.625-2.625s1.1752-2.625 2.625-2.625c1.4497 0 2.625 1.1752 2.625 2.625s-1.1753 2.625-2.625 2.625z"/><path d="m181.954 23.333h71.667v4h-71.667z"/><path d="m102.724 103.8353c-3.749-2.3447-8.6826-1.2051-11.0254 2.541s-1.2051 8.6816 2.541 11.0244l36.4404 22.7891c1.2988.812 2.7705 1.2173 4.2422 1.2173 1.5156 0 3.0313-.4302 4.3545-1.2891l39.1924-25.4312c3.7061-2.4048 4.7617-7.3594 2.3564-11.0654-2.4043-3.7061-7.3594-4.7627-11.0654-2.3564l-34.917 22.6567z"/></g></svg>