<svg id="Layer_1" enable-background="new 0 0 512 512" height="512" viewBox="0 0 512 512" width="512" xmlns="http://www.w3.org/2000/svg"><g><path d="m504.5 52.525c4.143 0 7.5-3.358 7.5-7.5v-37.525c0-4.142-3.357-7.5-7.5-7.5h-166.333c-4.143 0-7.5 3.358-7.5 7.5v194.833c0 4.142 3.357 7.5 7.5 7.5h75.666v287.167h-166.493c11.704-8.485 20.999-20.099 26.647-33.603h99.073c9.849 0 17.86-8.012 17.86-17.86v-16.576c0-9.417-7.325-17.154-16.577-17.814v-32.631c0-38.176-25.902-65.373-59.862-77.824l-128.642-46.915-58.604-74.8c-19.225-24.538-48.129-38.611-79.302-38.611h-40.433c-4.143 0-7.5 3.358-7.5 7.5s3.357 7.5 7.5 7.5h40.434c26.531 0 51.132 11.978 67.494 32.862l59.926 76.486c.863 1.102 2.019 1.941 3.334 2.42l125.746 45.858v34.442c0 21.273 17.308 38.581 38.581 38.581h16.328v25.085h-82.371c-11.668-43.712-63.538-69.733-106.238-51.021-3.823 1.592-5.632 5.983-4.04 9.807 1.593 3.824 5.984 5.632 9.808 4.04 41.102-17.824 89.236 14.23 88.562 59.089 0 35.281-28.704 63.985-63.985 63.985-51.598.437-82.493-59.953-51.858-101.445 2.428-3.356 1.677-8.044-1.679-10.473-3.354-2.428-8.045-1.678-10.474 1.679-5.401 7.463-9.397 15.673-11.897 24.34h-117.671c-4.143 0-7.5 3.358-7.5 7.5s3.357 7.5 7.5 7.5h114.892c-.645 7.461-.243 14.893 1.206 22.297h-116.098c-4.143 0-7.5 3.358-7.5 7.5s3.357 7.5 7.5 7.5h120.671c5.648 13.504 14.943 25.117 26.647 33.603h-147.318c-4.143 0-7.5 3.358-7.5 7.5s3.357 7.5 7.5 7.5h497c4.143 0 7.5-3.358 7.5-7.5s-3.357-7.5-7.5-7.5h-75.667v-287.168h75.667c4.143 0 7.5-3.358 7.5-7.5v-117.347c-.293-9.88-14.686-9.941-15 0v109.847h-151.333v-179.833h151.333v30.025c0 4.142 3.357 7.5 7.5 7.5zm-161.485 318.491c-13.003 0-23.581-10.578-23.581-23.581v-28.895c21.377 8.946 36.895 29.491 39.472 52.476zm30.045 55.085c1.577 0 2.86 1.283 2.86 2.86v16.576c0 1.577-1.283 2.86-2.86 2.86h-94.499c1.432-7.149 1.859-14.916 1.204-22.297h93.295z"/><path d="m369.874 129.484c.439 48.661 65.255 63.596 87.041 20.856l1.725 3.315c2.932 3.927 6.304 4.991 10.115 3.192 3.674-1.912 5.104-6.44 3.191-10.115l-18.953-36.43c-1.291-2.482-3.855-4.039-6.653-4.039h-22.806v-7.975h22.806c4.143 0 7.5-3.358 7.5-7.5s-3.357-7.5-7.5-7.5h-22.806v-8.406c21.417-8.546 15.871-40.311-7.5-40.729-23.375.42-28.914 32.187-7.5 40.729v8.995c-21.888 3.54-38.66 22.644-38.66 45.607zm71.913-8.22 5.054 9.715c-.778 16.51-14.369 29.7-30.966 29.7-36.738-.88-42.435-52.169-7.341-61.506v14.591c0 4.142 3.357 7.5 7.5 7.5zm-25.753-72.11c7.917.253 7.915 11.866 0 12.118-7.917-.253-7.915-11.866 0-12.118z"/><path d="m7.541 275.453c-9.888.261-10.011 14.631-.082 15l140.783.56c6.975-1.548 8.962-5.565 5.963-12.049l-56.317-73.819c-10.854-15.365-28.551-24.532-47.369-24.532h-43.019c-4.143 0-7.5 3.358-7.5 7.5s3.357 7.5 7.5 7.5h43.019c13.989 0 27.142 6.833 35.184 18.28.057.08.114.16.174.238l47.211 61.883z"/><path d="m236.552 433.014c0-19.56-15.913-35.473-35.473-35.473-46.995 1.784-46.982 69.169 0 70.945 19.56.001 35.473-15.912 35.473-35.472zm-55.946 0c0-11.289 9.184-20.473 20.473-20.473 27.122 1.029 27.115 39.92 0 40.945-11.289.001-20.473-9.183-20.473-20.472z"/></g></svg>