<?xml version="1.0" encoding="UTF-8"?>
<svg xmlns="http://www.w3.org/2000/svg" viewBox="0 0 64 64" width="512" height="512"><g id="Layer_8" data-name="Layer 8"><path d="M32,37a4,4,0,1,0-4,4A4,4,0,0,0,32,37Zm-4,2a2,2,0,1,1,2-2A2,2,0,0,1,28,39Z"/><path d="M62,1H2A1,1,0,0,0,1,2V62a1,1,0,0,0,1,1H62a1,1,0,0,0,1-1V2A1,1,0,0,0,62,1ZM57,61H55V18a1,1,0,0,0-1-1H10a1,1,0,0,0-1,1V61H7V15H57ZM53,19V61H49V19ZM15,19V61H11V19Zm7,34a7.939,7.939,0,0,1,3-6.226V54a1,1,0,0,0,1,1h9.586l1.557,1.557A7.986,7.986,0,0,1,22,53Zm8-2h7.586l4,4L40,56.586l-3.293-3.293A1,1,0,0,0,36,53H27V43h2v7A1,1,0,0,0,30,51Zm8.635,7.049.658.658a1,1,0,0,0,1.414,0l3-3a1,1,0,0,0,0-1.414l-5-5A1,1,0,0,0,38,49H31V42a1,1,0,0,0-1-1H26a1,1,0,0,0-1,1v2.365A9.959,9.959,0,0,0,24.026,61H17V19H47V61H36.007A9.962,9.962,0,0,0,38.635,58.049ZM61,61H59V14a1,1,0,0,0-1-1H6a1,1,0,0,0-1,1V61H3V3H61Z"/><path d="M23,11h6a1,1,0,0,0,.8-1.6l-3-4a1.036,1.036,0,0,0-1.6,0l-3,4A1,1,0,0,0,23,11Zm3-3.333L27,9H25Z"/><path d="M37.2,10.6a1,1,0,0,0,1.6,0l3-4A1,1,0,0,0,41,5H35a1,1,0,0,0-.8,1.6ZM39,7,38,8.333,37,7Z"/></g></svg>
