<svg id="Solid_line" height="512" viewBox="0 0 64 64" width="512" xmlns="http://www.w3.org/2000/svg"><circle cx="43" cy="7" r="2"/><path d="m58.5 19c-1.558 0-2.923.797-3.728 2h-23.544c-.805-1.203-2.17-2-3.728-2-2.49 0-4.5 2.01-4.5 4.5s2.01 4.5 4.5 4.5c1.558 0 2.923-.797 3.728-2h23.544c.805 1.203 2.17 2 3.728 2 2.49 0 4.5-2.01 4.5-4.5s-2.01-4.5-4.5-4.5zm-29.5 4.5c0-.276.224-.5.5-.5h27c.276 0 .5.224.5.5s-.224.5-.5.5h-27c-.276 0-.5-.224-.5-.5z"/><path d="m8.078 55.33c.603.87.922 1.886.922 2.94v4.73c0 .552.448 1 1 1h23c.308 0 .599-.142.789-.385.189-.243.256-.56.181-.859l-.619-2.467c-.737-2.972.366-6.077 2.814-7.913 1.187-.901 2.162-2.073 2.817-3.386.666-1.319 1.018-2.802 1.018-4.29v-3.7c0-.552-.448-1-1-1v-2c0-.55-.45-1-1-1h-19c-.55 0-1 .45-1 1v2h-3v-16.278c.595-.347 1-.985 1-1.722v-2c0-1.103-.897-2-2-2h-3.253c-.488-1.027-1.611-2-2.747-2s-2.259.973-2.747 2h-3.253c-1.103 0-2 .897-2 2v2c0 .737.405 1.375 1 1.722v17.278 5.73c0 2.973 1.869 5.668 4.649 6.707.988.37 1.828 1.024 2.429 1.893zm-6.078-35.33h12v2h-5c-.552 0-1 .448-1 1s.448 1 1 1h4v16h-10v-16h2c.552 0 1-.448 1-1s-.448-1-1-1h-3zm1 26.73v-4.73h11 24v2.7c0 1.176-.278 2.348-.805 3.393-.529 1.059-1.283 1.964-2.235 2.688-3.087 2.315-4.481 6.236-3.55 9.993l.308 1.226h-8.718v-3.73c0-1.462-.442-2.874-1.278-4.08-.834-1.204-2-2.113-3.372-2.627-2.004-.748-3.35-2.69-3.35-4.833 0-.552-.448-1-1-1s-1 .448-1 1c0 2.973 1.869 5.668 4.649 6.707.988.37 1.828 1.025 2.429 1.893.603.87.922 1.886.922 2.94v3.73h-10v-3.73c0-1.462-.442-2.874-1.278-4.08-.834-1.204-2-2.113-3.372-2.627-2.004-.748-3.35-2.69-3.35-4.833z"/><path d="m47 14c1.103 0 2-.897 2-2v-10c0-1.103-.897-2-2-2h-8c-1.103 0-2 .897-2 2v10c0 1.103.897 2 2 2zm-8-12h8l-.003 10h-7.997z"/></svg>