<svg id="_x2014_&#x43B;&#x43E;&#x439;_x5F_1" enable-background="new 0 0 3500 3500" viewBox="0 0 3500 3500" xmlns="http://www.w3.org/2000/svg"><g style="fill:none;stroke:#000;stroke-width:65;stroke-linecap:round;stroke-linejoin:round;stroke-miterlimit:10"><g><path d="m2180.7 1937.9 76.7-329.1c7.6-32.6 36.6-55.6 70.1-55.6h19.7 103.4"/><path d="m1252.8 2565.5-202.6-53.9"/><path d="m1996.7 2106.7 61.8 401.6"/><path d="m2200.3 2179.6-341.9 268.9"/><path d="m1826.9 2228.6 386.4 161.1"/><path d="m2058.3 1620.5-12.4 151.5-260.4 188.2c-37.5 38.5-11.4 68.5-11.4 68.5 11 13.5 37.2 27.8 61.2 12.7l297.5-192c14.1-9.1 23.4-24.1 25.3-40.8"/><path d="m1407.4 2589.6v-1.9"/><path d="m1188.6 2129v-1140.5"/><path d="m1349.4 1062.5s27.3 199.6-160.7 190"/><path d="m1005.8 1252.5s.3 194.2 182.9 199.4"/><path d="m2727.8 2725.6h-1967.2"/><path d="m749.8 2598.4h523.2"/><path d=""/><path d="m2047.3 1756.6h-294.7c-34.5 0-65 22.4-75.5 55.3l-74.7 236.1"/><path d="m2747.9 2595.3h-419.5"/><path d="m2361.2 2083c64.5-10.2 174.9-5.2 202.6 139 0 0 70.4-122.3 186.4-42.3"/><path d="m1273 2595.3h-365.5s-153.1-113.1 0-217.2c0 0-45.9-175.7 142.7-165.3 0 0 117.5-164.9 222.1-32.7 0 0 46.3-19.6 89.6-15.6"/><path d="m1716.7 2595.3h-174.9"/><path d="m1551.1 2054-7.3 24.1-113 370"/><path d="m1313.5 2305.2 48.4-140.6 73.8-212.4c14-40.4 52.1-67.5 95-67.5h283.5"/><path d="m2177.1 1310.7c-2.8 8.2-7.2 27.9-.8 58.2"/><path d="m2005.7 1160.1c-24 50.3-23 125.2-15.9 148 3.7 12 12.8 21.7 24.5 26.2 14.3 5.6 55.2 6.9 55.2 7 7.2 16.4 2.7 36.4-1.8 49"/><path d="m2103.8 1218.7s24.5-8.1 29.2 14.6-9.4 32.8-9.4 32.8 7.7 33.2 53.6 44.7c0 0 63.8-12.4 73-109.5s-58.6-98.7-58.6-98.7-35.4-49.5-114.1-27c-34.4 9.9-57.7 24.9-73 38.8-13 11.8-15.5 42 1.6 45.8"/><path d="m1921.1 1612.4c44.8-82 101.8-166.5 148-219.9l9.5-2.1 97.8-21.5 6.8-1.5s100.7 124.4 39 386.8c-22.8 97.1-38.4 151.1-49 180.7"/><path d="m1854.2 1910.6c-15.9-6.5-30.2-13.7-42.5-21.8 0 0 .9-1.4 2.4-4.3 8-14.3 18.1-63.1 41.3-128"/><path d="m1782.3 2047.4-231.1 6.5v24.2 50.3c0 23 18.6 41.5 41.5 41.5h59"/><path d="m1810.6 2312.7c0-120.1 97.4-217.4 217.4-217.4 120.1 0 217.4 97.4 217.4 217.4 0 120.1-97.4 217.4-217.4 217.4-120 .1-217.4-97.3-217.4-217.4z"/><path d="m1357.4 2452.7-76.1-27c-2.8.3-125.3 13.2-167.3 103l158.7 42.2"/><circle cx="1407.4" cy="2581.2" r="135.1"/><path d="m905.6 985.9c-41.6 76.9-66.1 163.6-66.1 239.9 0 370.4 349.2 457.5 349.2 457.5s349.2-49 349.2-457.5c0-192.8-156.3-451.4-349.2-451.4-89.8 0-171.7 56.1-233.6 135.5z"/></g><path d="m1626.6 2321.2c0 222.4 180.3 402.8 402.8 402.8s402.8-180.3 402.8-402.8c0-128.6-60.3-243.2-154.2-316.9"/></g></svg>