<svg id="Layer_1" enable-background="new 0 0 75 75" viewBox="0 0 75 75" xmlns="http://www.w3.org/2000/svg"><g id="Bathroom_Candles"><path d="m9.5463867 25.0636692c0 .4140625.3359375.75.75.75h26.6728516c.4140625 0 .75-.3359375.75-.75s-.3359375-.75-.75-.75h-6.640625v-6.7744141c0-.6884766-.5595703-1.2480469-1.2470703-1.2480469h-5.8476563c-.6875 0-1.2470703.5595703-1.2470703 1.2480469v6.7744141h-1.0419922v-10.9609375c0-.6875-.5595703-1.2470703-1.2470703-1.2470703h-3.7285156c-.6875 0-1.2470703.5595703-1.2470703 1.2470703v10.9609375h-4.4257813c-.4140625 0-.75.3359375-.75.75zm13.9404297-7.2724609h5.3417969v6.5224609h-5.3417969zm-7.2646484-4.1855469h3.2226563v10.7080078h-3.2226563z"/><path d="m8.0532227 48.0519485h.1699219c-.0754395.1673584-.0942383.361145-.0302734.5488281l3.3027344 9.6992188c1.0634766 3.1259766 3.9970703 5.2265625 7.3007813 5.2265625h34.3447266c3.390625 0 6.3476563-2.1738281 7.3603516-5.4101563l6.2744141-20.0537109c.0546875-.1738892.032959-.3494263-.0317383-.5058594h.2026367c1.7265625 0 3.1318359-1.4052734 3.1318359-3.1591797 0-1.7275391-1.4052734-3.1328106-3.1318359-3.1328106-7.1963081.0277061-7.1253777-.0649471-7.9052734.0869141-.4072266.0800781-.671875.4736328-.5927734.8798809.0791016.4072266.4785156.6650391.8798828.5927734.5513535-.1092033.4875374-.0407906 7.6181641-.0595703.8994141 0 1.6318359.7324219 1.6318359 1.6591797 0 .9003906-.7324219 1.6328125-1.6318359 1.6328125h-4.5595707c-.4140625 0-.8173828.0800781-1.1982422.2392578l-23.9707031 9.9326172c-1.1798019.4906578-1.9895172.2666664-3.5976563.3232422-.4140625 0-.75.3359375-.75.75s.3359375.75.75.75h1.9716797c.7607422 0 1.5019531-.1474609 2.2011719-.4384766l23.9707031-9.9326172c.1982422-.0820313.4082031-.1240234.6230469-.1240234h2.9892578c-.0087891.0210571-.0252686.036438-.0322266.0585938l-6.274414 20.0537109c-.8154297 2.6064453-3.1982422 4.3574219-5.9287109 4.3574219h-34.3447266c-2.6611328 0-5.0244141-1.6914063-5.8808594-4.2099609l-3.3027592-9.7001953c-.008337-.0245361-.0269527-.0413818-.0375729-.0644531h11.5668945c.4140625 0 .75-.3359375.75-.75s-.3359375-.75-.75-.75h-13.088867c-.8994141 0-1.6318359-.7324219-1.6318359-1.6367188 0-.9587936.8191166-1.6690636 1.6474609-1.6328125l26.5791016.2470703c.8710938.0107422 1.7001953-.1757813 2.4677734-.5322266l10.1630859-4.703125c.375-.1738281.5390625-.6201172.3652344-.9960938-.1748047-.3759766-.6191406-.5400391-.9960938-.3652344l-10.1630859 4.703125c-.5673828.2636719-1.1875.3974609-1.8232422.3935547-1.7080154-.0158653-28.306797-.2628441-26.6074219-.2470703-1.7254491 0-3.1328125 1.393856-3.1328125 3.1376953 0 1.7265626 1.4052735 3.131836 3.131836 3.131836z"/><path d="m36.1733398 32.559761c.2209091.3795624.7304688.4974365 1.0957031.2255859.7300606-.5430717 1.675148-.7235603 2.5703125-.4853516.4082031.1103516.8125-.1308594.9189453-.5302715.1074219-.3994141-.1298828-.8115234-.5302734-.9189453-1.0797844-.2906342-2.2212639-.1642208-3.1884766.3212891-2.1826096-2.7770233-6.3594952-2.8197937-8.6005859-.1230469-.9316406 1.1210918-1.375 2.5361309-1.2539063 3.9873028-2.5019531.3925781-4.3056641 2.6767578-4.0683594 5.2333984.0372295.4004669.3880863.7134285.8164063.6777344.4121094-.0390625.7158203-.4042969.6777344-.8164063-.1866856-2.0055313 1.4336796-3.7106285 3.4189453-3.6513672.5395527-.0021133.8523808-.4714737.7548828-.9130859-.3096867-1.3832703.0245247-2.6162071.8076172-3.5585938 1.7963906-2.162319 5.186081-1.8448256 6.5810547.5517579z"/><path d="m8.2543945 39.2042923c-.1376953.390625.0664063.8193359.4570313.9570313.3909254.1379738.8197479-.0674438.9570313-.4570313.6950808-1.9644547 2.9891043-2.7572708 4.6181641-1.8759766.4308548.2316895.9785795-.0079498 1.0878906-.5019531.7953072-3.7360954 5.5171967-4.3807793 7.3828125-1.3613281.2167969.3515625.6767578.4628906 1.0322266.2431641.3515625-.2167969.4609375-.6796875.2431641-1.0322266-2.4227962-3.9239922-8.29041-3.3152695-9.8876953.9921875-1.1347656-.3291016-2.3349609-.2294922-3.4111328.2822266-1.1679689.5566406-2.0488283 1.5341796-2.4794924 2.7539062z"/><path d="m44.1958008 31.809763h3.9833984c.1865234 0 .3652344-.0693359.5039063-.1943359l4.3525391-3.9423828c.4580078-.4130859 1.0498047-.6416016 1.6660156-.6416016h4.0087891c1.3601952 0 2.4824219 1.0993347 2.4824219 2.4824219 0 .4140625.3359375.75.75.75s.75-.3359375.75-.75c0-2.2221851-1.8055611-3.9824219-3.9824219-3.9824219h-4.0087891c-.9892578 0-1.9384766.3652344-2.6728516 1.0302734l-4.1386719 3.7480469h-3.6943359c-1.6308594 0-2.9580078 1.3261719-2.9580078 2.9638653 0 1.6308594 1.3271484 2.9570313 2.9580078 2.9570313h6.9052734c.3427734 0 .6806641-.0908203.9765625-.2617188.072525-.0421104 1.5134964-1.1764374 4.8486328-3.7822266.3261719-.2548809.3837891-.7265606.1289063-1.0527325-.2539063-.3261719-.7275391-.3867188-1.0527344-.1289063l-4.7099609 3.6835918c-.0595703.0273438-.125.0419922-.1914063.0419922h-6.9052734c-.8037109 0-1.4580078-.6533203-1.4580078-1.4638672 0-.8037108.6542968-1.4570292 1.4580078-1.4570292z"/><path d="m63.3081055 15.4328098c0-3.2304688-2.6289063-5.859375-5.859375-5.859375h-.1269531c-3.2314453 0-5.8603516 2.6289063-5.8603516 5.859375v3.15625c0 3.2304688 2.6289063 5.859375 5.8603516 5.859375h.1269531c3.2304688 0 5.859375-2.6289063 5.859375-5.859375zm-10.3466797 3.15625c.0042686-.991148-.0114708-2.5584717.0159912-3.3145752.5372314.416687 1.2498779.9017944 2.088501 1.2930908 1.2783203.5976563 2.2021484 1.7021484 2.5351563 3.0302734.3132324 1.2510376.7874756 2.2681274 1.4067383 3.0496826-2.8992082 1.1184426-6.0463868-.9492129-6.0463868-4.0584716zm8.8466797 0c0 1.3048706-.5883789 2.4643555-1.5002441 3.2640381-.5407715-.623291-.9726563-1.5072632-1.251709-2.6204834-.4423828-1.7675781-1.6660156-3.234375-3.3554688-4.0244141-1.0566406-.4934082-1.902832-1.1741333-2.3442383-1.5657959.6856689-1.5107422 2.2008057-2.5689697 3.965332-2.5689697h.1269531c2.4033203 0 4.359375 1.9560547 4.359375 4.359375v3.15625z"/><path d="m64.1264648 13.5460911c-.3955078.1240234-.6142578.5458984-.4892578.9404297.1259422.4010534.5559616.6140842.9404297.4892578 1.7363281-.5478516 2.9023438-2.140625 2.9023438-3.9628906 0-2.2910156-1.8642578-4.1552739-4.1552734-4.1552739-1.3496094 0-2.6201172.6591797-3.3984375 1.7626958-.2382813.3388672-.1572266.8066406.1806641 1.0458984.3398438.2392578.8066406.1572266 1.0458984-.1806641.4970703-.7060547 1.3095703-1.1279297 2.171875-1.1279297 1.4638672 0 2.6552734 1.1914063 2.6552734 2.6552734 0 1.1650391-.7451172 2.1826172-1.8535157 2.5332032z"/><path d="m18.5043945 11.4699192c.2226563 0 .4423828-.0986328.5908203-.2861328.7041016-.8955078.9101563-2.1787109.5507813-3.4306645-.3388672-1.1796875-1.1015625-2.1337891-1.6464844-2.7490234-.535347-.6022654-1.516964-.0479431-1.2773438.7197266.1757813.5683594.0458984 1.2333984-.3310547 1.6933594-.2013893.2436161-.5050011.4954228-.7207031.9033208-.4589844.8681641-.1826172 1.8525391-.0166016 2.4404297.1113281.3974609.5253906.6337891.9248047.5185547.3984375-.1123047.6308594-.5263672.5185547-.9248047-.5272751-1.872735.2268696-1.1965466.9072266-2.7216802.5054817 1.0942197.3436661 2.0736976-.0888672 2.6230474-.3881835.4948605-.0300464 1.213867.5888672 1.213867z"/><path d="m25.2612305 10.0656223c.1767578.5693359.0458984 1.2353516-.3300781 1.6943359-.0605469.0732422-.1259766.1435547-.1914063.2128906-.7072868.7580853-1.0399151 1.3863192-.5458984 3.1328125.1132813.3984375.5263672.6328125.9257813.5175781.3984375-.1132813.6298828-.5273438.5175781-.9257813-.5257874-1.8638248.2217045-1.197669.9072266-2.7216797.5043049 1.0976038.3431435 2.0742121-.0888672 2.625-.3895741.4951458-.0269203 1.2128906.5888672 1.2128906.2226563 0 .4423828-.0986328.5908203-.2871094.7041016-.8964844.9101563-2.1787109.5507813-3.4296875-.3378906-1.1777344-1.1015625-2.1337891-1.6464844-2.75-.5336705-.6003788-1.516121-.0502155-1.2783204.7187502z"/><path d="m24.1040039 64.9757767-.9550781 3.5927734c-.0283203.1074219-.1259766.1826172-.2373047.1826172h-1.0996094c-.1103516 0-.2080078-.0751953-.2363281-.1816406l-.9550781-3.59375c-.1054688-.3994141-.5136719-.640625-.9169922-.5322266-.4003906.1064453-.6386719.5166016-.5322266.9169922l.9550781 3.5947266c.203125.7626953.8964844 1.2958984 1.6855469 1.2958984h1.0996094c.7890625 0 1.4833984-.5332031 1.6865234-1.296875l.9550781-3.59375c.1064453-.4003906-.1318359-.8105469-.5322266-.9169922-.3984374-.1083984-.8105468.1328125-.9169921.5322266z"/><path d="m50.6772461 64.9757767-.9550781 3.5927734c-.0283203.1074219-.1259766.1826172-.2373047.1826172h-1.0986328c-.1113281 0-.2089844-.0751953-.2373047-.1816406l-.9550781-3.59375c-.1054688-.3994141-.5146484-.640625-.9169922-.5322266-.4003906.1064453-.6386719.5166016-.5322266.9169922l.9550781 3.5947266c.203125.7626953.8974609 1.2958984 1.6865234 1.2958984h1.0986328c.7890625 0 1.4833984-.5332031 1.6865234-1.296875l.9550781-3.59375c.1064453-.4003906-.1318359-.8105469-.5322266-.9169922-.4003904-.1083984-.8105467.1328125-.916992.5322266z"/><path d="m48.4731445 55.550972c0-1.7207031-1.3994141-3.1201172-3.1201172-3.1201172s-3.1210938 1.3994141-3.1210938 3.1201172 1.4003906 3.1210938 3.1210938 3.1210938 3.1201172-1.4003907 3.1201172-3.1210938zm-4.7412109 0c0-.8935547.7275391-1.6201172 1.6210938-1.6201172s1.6201172.7265625 1.6201172 1.6201172-.7265625 1.6210938-1.6201172 1.6210938-1.6210938-.7275391-1.6210938-1.6210938z"/><path d="m17.7836914 57.2277298c0 1.3378906 1.0888672 2.4257813 2.4267578 2.4257813s2.4257813-1.0878906 2.4257813-2.4257813-1.0878906-2.4267578-2.4257813-2.4267578-2.4267578 1.0888672-2.4267578 2.4267578zm3.3525391 0c0 .5107422-.4150391.9257813-.9257813.9257813s-.9267578-.4150391-.9267578-.9257813.4160156-.9267578.9267578-.9267578.9257813.4160156.9257813.9267578z"/><path d="m23.5073242 49.0480423c0 2.2216797 1.8066406 4.0283203 4.0273438 4.0283203s4.0273438-1.8066406 4.0273438-4.0283203c0-2.2207031-1.8066406-4.0273438-4.0273438-4.0273438s-4.0273438 1.8066407-4.0273438 4.0273438zm6.5546875 0c0 1.3945313-1.1337891 2.5283203-2.5273438 2.5283203s-2.5273438-1.1337891-2.5273438-2.5283203c0-1.3935547 1.1337891-2.5273438 2.5273438-2.5273438s2.5273438 1.1337891 2.5273438 2.5273438z"/></g></svg>