<svg id="Capa_1" enable-background="new 0 0 512 512" height="512" viewBox="0 0 512 512" width="512" xmlns="http://www.w3.org/2000/svg"><g><path d="m499.196 66.196-104.649 104.65c-2.929 2.93-2.929 7.678 0 10.607 1.465 1.464 3.385 2.196 5.304 2.196s3.839-.732 5.304-2.196l104.649-104.649c2.929-2.93 2.929-7.678 0-10.607-2.93-2.928-7.678-2.928-10.608-.001z"/><path d="m312.766 386h-20.266c-9.649 0-17.5 7.851-17.5 17.5v101c0 4.143 3.357 7.5 7.5 7.5s7.5-3.357 7.5-7.5v-101c0-1.379 1.121-2.5 2.5-2.5h20.266c4.143 0 7.5-3.357 7.5-7.5s-3.358-7.5-7.5-7.5z"/><path d="m504.5 275h-101c-9.649 0-17.5 7.851-17.5 17.5v91c0 1.379-1.121 2.5-2.5 2.5h-35.734c-4.143 0-7.5 3.357-7.5 7.5s3.357 7.5 7.5 7.5h35.734c9.649 0 17.5-7.851 17.5-17.5v-91c0-1.379 1.121-2.5 2.5-2.5h101c4.143 0 7.5-3.357 7.5-7.5s-3.357-7.5-7.5-7.5z"/><path d="m230.693 385.027h-8.09v-21.023l157.7-157.7c2.929-2.93 2.929-7.678 0-10.607-2.93-2.928-7.678-2.928-10.607 0l-147.313 147.312c-.899-10.48-4.708-20.14-10.625-28.16l41.634-41.634h9.784c10.379 0 18.823-8.444 18.823-18.823v-9.784l227.805-227.804c2.929-2.93 2.929-7.678 0-10.607-2.93-2.928-7.678-2.928-10.607 0l-217.377 217.376c-1.214-9.215-9.101-16.358-18.643-16.358h-6.677v-51.793h6.634c10.403 0 18.866-8.463 18.866-18.866v-11.24c0-10.403-8.463-18.867-18.866-18.867h-21.862v-76.311c-.001-16.618-13.52-30.138-30.138-30.138h-75.134c-4.143 0-7.5 3.357-7.5 7.5s3.357 7.5 7.5 7.5h75.134c8.347 0 15.138 6.791 15.138 15.138v76.311h-21.405c-10.403 0-18.866 8.464-18.866 18.867v11.24c0 10.403 8.463 18.866 18.866 18.866h6.634v9.913h-141v-9.913h6.634c10.403 0 18.866-8.463 18.866-18.866v-11.24c0-10.403-8.463-18.867-18.866-18.867h-21.406v-76.311c0-8.347 6.791-15.138 15.137-15.138h30.134c4.143 0 7.5-3.357 7.5-7.5s-3.357-7.5-7.5-7.5h-30.134c-16.618 0-30.137 13.52-30.137 30.138v76.311h-21.863c-10.403-.001-18.866 8.463-18.866 18.867v11.24c0 10.403 8.463 18.866 18.866 18.866h6.634v51.793h-6.677c-10.379 0-18.823 8.444-18.823 18.823v28.354c0 10.379 8.444 18.823 18.823 18.823h94.878v18.987c-30.063.711-54.305 25.37-54.305 55.601v37.225h-8.09c-7.704 0-13.972 6.268-13.972 13.972v21.029c0 7.704 6.268 13.972 13.972 13.972h20.086l-65.196 65.195c-2.929 2.93-2.929 7.678 0 10.607 1.465 1.465 3.385 2.197 5.304 2.197s3.839-.732 5.304-2.196l75.803-75.804h38.785l-65.196 65.196c-2.929 2.93-2.929 7.678 0 10.607 1.465 1.465 3.385 2.197 5.304 2.197s3.839-.732 5.304-2.196l75.803-75.804h78.086c7.704 0 13.972-6.268 13.972-13.972v-21.029c0-7.704-6.268-13.972-13.972-13.972zm-62.394 0v-77.826c21.792.706 39.305 18.641 39.305 40.601v37.225zm33.012-80.945c-9.14-7.195-20.574-11.585-33.012-11.88v-18.987h63.879zm-.311-167.526v-11.24c0-2.133 1.734-3.867 3.866-3.867h58.268c2.132 0 3.866 1.734 3.866 3.867v11.24c0 2.132-1.734 3.866-3.866 3.866h-58.268c-2.132 0-3.866-1.734-3.866-3.866zm40.5 18.866v51.793h-15v-51.793zm-30 51.793h-43.201v-26.88h43.201zm-82.799 0v-26.88h24.598v26.88zm-15-26.88v26.88h-43.201v-26.88zm-98.701-43.779v-11.24c0-2.133 1.734-3.867 3.866-3.867h58.268c2.132 0 3.866 1.734 3.866 3.867v11.24c0 2.132-1.734 3.866-3.866 3.866h-58.268c-2.132 0-3.866-1.734-3.866-3.866zm25.5 18.866h15v51.793h-15zm-25.5 98.97v-28.354c0-2.108 1.715-3.823 3.823-3.823h244.354c2.108 0 3.823 1.715 3.823 3.823v28.354c0 2.108-1.715 3.823-3.823 3.823h-244.354c-2.108 0-3.823-1.715-3.823-3.823zm59.396 93.411c0-21.96 17.513-39.895 39.305-40.601v24.331c0 4.143 3.357 7.5 7.5 7.5s7.5-3.357 7.5-7.5v-58.317h24.598v111.812h-24.598v-18.495c0-4.143-3.357-7.5-7.5-7.5s-7.5 3.357-7.5 7.5v18.495h-39.305zm155.269 71.197h-177.33v-18.973h177.33z"/></g></svg>