<svg id="Layer_2" height="512" viewBox="0 0 64 64" width="512" xmlns="http://www.w3.org/2000/svg" data-name="Layer 2"><path d="m45 18.41 14.71-14.7c.39-.39.39-1.02 0-1.41s-1.02-.39-1.41 0l-14.71 14.71h-23.18l-14.7-14.72c-.39-.39-1.02-.39-1.41 0s-.39 1.02 0 1.41l14.71 14.71v29.17l-12.71 12.71c-.39.39-.39 1.02 0 1.41.2.2.45.29.71.29s.51-.1.71-.29l12.71-12.71h23.17l3.71 3.71s7 7 7 7 2 2 2 2c.2.2.45.29.71.29s.51-.1.71-.29c.39-.39.39-1.02 0-1.41l-1.71-1.71v-38.58c0-.39-.23-.75-.58-.91-.36-.16-.77-.11-1.07.15l-7 6c-.22.19-.35.47-.35.76v23.59l-2-2v-29.18zm-24 .59h22v28h-4v-22c0-.55-.45-1-1-1h-12c-.55 0-1 .45-1 1v22h-4zm6 28v-21h10v21zm22-20.54 5-4.29v34.42l-5-5z"/><circle cx="35" cy="37" r="1"/><path d="m6.61 56.95c.25 0 .49-.09.68-.26l8.48-7.82c.21-.19.32-.46.32-.74v-4.97c0-.35-.18-.67-.48-.85s-.67-.19-.98-.04l-8.48 4.36c-.33.17-.54.51-.54.89v8.43c0 .4.24.76.6.92.13.06.27.08.4.08zm1-8.82 6.48-3.33v2.89l-6.48 5.98z"/><path d="m32 12c1.65 0 3-1.35 3-3 0-1.3-.84-2.4-2-2.82v-2.18c0-.55-.45-1-1-1s-1 .45-1 1v2.18c-1.16.41-2 1.51-2 2.82 0 1.65 1.35 3 3 3zm0-4c.55 0 1 .45 1 1s-.45 1-1 1-1-.45-1-1 .45-1 1-1z"/></svg>