<svg id="Layer_1" enable-background="new 0 0 512 512" viewBox="0 0 512 512" xmlns="http://www.w3.org/2000/svg"><path d="m279.525 436.221c2.876-4.645 4.541-10.114 4.541-15.966 0-14.042-9.549-25.889-22.493-29.405v-39.913c0-26.209-21.323-47.533-47.532-47.533h-1.952v-17.795c0-20.328-9.977-38.91-26.222-50.221 14.554-13.038 23.732-31.96 23.732-52.992 0-39.236-31.921-71.156-71.156-71.156s-71.157 31.921-71.157 71.156c0 17.382 6.274 33.321 16.664 45.692-3.569 2.637-6.557 6.02-8.775 9.976-4.078-6.431-11.249-10.711-19.404-10.711h-31.292c-12.684 0-23.002 10.319-23.002 23.003v133.627c0 11.988 9.219 21.858 20.94 22.905 1.321 56.818 47.949 102.632 105.077 102.632 25.14 0 48.243-8.876 66.35-23.654h77.123c14.088 0 25.548-11.461 25.548-25.548 0-11.099-7.1-20.566-16.99-24.097zm-11.416-15.966c0 7.988-6.511 14.485-14.514 14.485h-25.461c2.778-9.202 4.325-18.932 4.451-28.999h21.01c8.003 0 14.514 6.51 14.514 14.514zm-54.067-100.894c17.41 0 31.575 14.165 31.575 31.575v38.846h-14.038c-2.471-17.671-9.35-33.947-19.49-47.678v-22.743zm-17.91-33.753v39.264c-18.429-15.925-42.428-25.57-68.639-25.57-3.604 0-7.203.194-10.783.56l15.088-32.958c1.957-4.251 2.909-8.849 2.874-13.453 1.249.065 2.505.101 3.77.101 11.949 0 23.211-2.974 33.108-8.2 15.047 7.756 24.582 23.176 24.582 40.256zm-57.689-158.412c30.437 0 55.199 24.762 55.199 55.199s-24.762 55.199-55.199 55.199-55.2-24.762-55.2-55.199 24.763-55.199 55.2-55.199zm-49.958 119.838c1.547-3.371 4.176-6.024 7.444-7.613 6.69 5 14.293 8.836 22.499 11.246.622 3.224.25 6.576-1.132 9.581l-21.249 46.415c-.138.262-.261.53-.369.807l-1.864 4.072c-1.358 2.965-.774 6.458 1.475 8.821l36.876 38.743c2.901 3.037 4.443 7.047 4.343 11.292-.1 4.258-1.84 8.205-4.888 11.109-6.349 6.025-16.405 5.775-22.427-.567l-17.581-18.453c-.008-.008-.016-.017-.024-.025l-28.566-29.982c-.179-.209-.37-.411-.573-.604-.003-.003-.007-.006-.01-.009l-.009-.01c-5.345-5.62-5.306-16.407-2.206-23.176zm-1.897 133.314 11.041 11.589c6.236 6.569 14.634 9.881 23.054 9.88 7.878 0 15.775-2.9 21.933-8.746 6.147-5.854 9.643-13.772 9.844-22.295.058-2.436-.165-4.832-.636-7.158 13.956 8.327 23.145 23.573 23.145 40.792 0 26.178-21.298 47.476-47.476 47.476-26.162 0-47.447-21.298-47.447-47.476 0-8.529 2.288-16.824 6.542-24.062zm-69.154 3.634v-133.627c0-3.885 3.161-7.045 7.045-7.045h31.291c3.869 0 7.017 3.16 7.017 7.045v14.442l-17.072 37.238c-4.593 10.028-5.29 24.304.968 35.195-12.826 15.379-20.898 33.931-23.432 53.682-3.3-.583-5.817-3.465-5.817-6.93zm20.908 20.428c0-20.066 6.659-39.253 18.898-54.865l18.023 18.918c-7.239 10.518-11.175 23.033-11.175 35.948 0 34.977 28.443 63.434 63.405 63.434 34.977 0 63.433-28.457 63.433-63.434 0-31.26-22.67-57.67-53.202-62.606l-24.222-25.448c4.622-.727 9.303-1.095 13.991-1.095 49.158 0 89.151 39.992 89.151 89.15 0 49.159-39.993 89.152-89.151 89.152s-89.151-39.995-89.151-89.154zm232.625 65.498h-61.331c4.728-5.917 8.83-12.354 12.207-19.21h49.124c5.289 0 9.591 4.315 9.591 9.62 0 5.287-4.302 9.59-9.591 9.59zm82.841-141.152c15.57 0 28.237-12.667 28.237-28.238 0-15.554-12.667-28.208-28.237-28.208-15.554 0-28.208 12.655-28.208 28.208.001 15.57 12.654 28.238 28.208 28.238zm0-40.488c6.771 0 12.28 5.495 12.28 12.25 0 6.771-5.509 12.28-12.28 12.28-6.755 0-12.251-5.508-12.251-12.28.001-6.755 5.496-12.25 12.251-12.25zm148.737-287.768h-191.317c-4.406 0-7.979 3.572-7.979 7.979v40.261 57.01c0 4.407 3.572 7.979 7.979 7.979s7.979-3.572 7.979-7.979v-49.032h175.36v398.534h-175.36v-239.047c0-4.407-3.572-7.979-7.979-7.979s-7.979 3.572-7.979 7.979v247.026 40.29c0 4.407 3.572 7.979 7.979 7.979h191.317c4.406 0 7.979-3.572 7.979-7.979v-40.29-414.492-40.26c-.001-4.407-3.573-7.979-7.979-7.979zm-183.339 40.261v-24.304h175.36v24.304zm175.36 454.781h-175.36v-24.332h175.36zm-156.403-57.661h137.447c4.406 0 7.979-3.572 7.979-7.979v-67.989c0-4.407-3.572-7.979-7.979-7.979h-137.447c-4.406 0-7.979 3.572-7.979 7.979v67.989c0 4.407 3.573 7.979 7.979 7.979zm7.978-67.988h121.49v52.031h-121.49zm-106.495-170.663h107.938v17.626c0 3.065 1.755 5.858 4.516 7.188 1.101.531 2.284.791 3.462.791 1.774 0 3.533-.592 4.974-1.74l70.11-55.879c1.899-1.514 3.006-3.81 3.006-6.239s-1.106-4.725-3.006-6.239l-70.11-55.878c-2.397-1.91-5.675-2.278-8.436-.949-2.761 1.33-4.516 4.124-4.516 7.188v17.626h-107.938c-4.407 0-7.979 3.572-7.979 7.979v60.547c.001 4.407 3.573 7.979 7.979 7.979zm7.979-60.547h107.938c4.407 0 7.979-3.572 7.979-7.979v-9.043l49.33 39.316-49.33 39.317v-9.043c0-4.406-3.572-7.979-7.979-7.979h-107.938z"/></svg>