<svg id="Capa_1" enable-background="new 0 0 512 512" height="512" viewBox="0 0 512 512" width="512" xmlns="http://www.w3.org/2000/svg"><g><path d="m240.211 426.875c-4.139 0-7.484-3.345-7.484-7.483 0-4.139 3.345-7.512 7.484-7.512h144.937c2.296 0 4.479-.454 6.435-1.276 2.069-.85 3.94-2.126 5.527-3.713 1.588-1.587 2.863-3.458 3.714-5.528.822-1.956 1.275-4.139 1.275-6.435v-21.855h-13.691c-4.139 0-7.512-3.345-7.512-7.512v-58.678c0-4.139 3.373-7.512 7.512-7.512h13.691v-14.372c-5.726-.255-10.885-2.693-14.684-6.491-4.025-3.997-6.519-9.553-6.519-15.648 0-6.123 2.495-11.679 6.519-15.676 3.799-3.798 8.958-6.236 14.684-6.491v-129.97c0-7.399 1.502-14.486 4.196-21.005 2.806-6.718 6.888-12.784 11.934-17.83 5.046-5.045 11.112-9.128 17.858-11.934 6.491-2.693 13.579-4.195 20.977-4.195s14.485 1.502 20.977 4.195c6.746 2.806 12.785 6.889 17.858 11.934 5.046 5.046 9.128 11.112 11.934 17.83 2.693 6.52 4.167 13.606 4.167 21.005v18.198c0 4.139-3.345 7.483-7.483 7.483h-29.368c-4.139 0-7.483-3.345-7.483-7.483v-18.198c0-5.812-4.79-10.603-10.601-10.603s-10.602 4.791-10.602 10.603v43.398c0 4.139-3.373 7.484-7.512 7.484s-7.483-3.345-7.483-7.484v-43.398c0-14.117 11.622-25.598 25.597-25.598 14.116 0 25.597 11.622 25.597 25.598v10.687h14.344v-10.687c0-5.415-1.077-10.574-3.004-15.251-2.041-4.876-5.018-9.27-8.731-12.983-3.685-3.713-8.107-6.69-12.983-8.702-4.677-1.956-9.808-3.033-15.222-3.033s-10.574 1.077-15.251 3.033c-4.876 2.013-9.269 4.989-12.983 8.702-3.713 3.713-6.69 8.107-8.702 12.983-1.956 4.677-3.033 9.836-3.033 15.251v129.941h14.372v-52.583c0-4.139 3.345-7.483 7.483-7.483s7.512 3.345 7.512 7.483v52.612c5.726.255 10.885 2.693 14.712 6.491 3.997 3.997 6.491 9.553 6.491 15.676 0 6.095-2.495 11.65-6.491 15.648-3.827 3.798-8.986 6.236-14.712 6.491v14.372h13.72c4.139 0 7.483 3.373 7.483 7.512v21.855h14.854v-7.427c0-4.139 3.345-7.512 7.484-7.512s7.512 3.373 7.512 7.512v14.911 14.911c0 4.167-3.373 7.512-7.512 7.512s-7.484-3.345-7.484-7.512v-7.398h-14.854v21.827c0 4.167-3.345 7.512-7.483 7.512h-13.72v21.855c0 8.249-1.672 16.158-4.677 23.415-3.118 7.512-7.682 14.258-13.323 19.899s-12.388 10.205-19.899 13.323c-7.257 3.005-15.165 4.677-23.415 4.677h-323.836c-8.249 0-16.157-1.672-23.414-4.677-7.512-3.118-14.258-7.682-19.9-13.323-5.641-5.641-10.205-12.387-13.323-19.899-3.004-7.259-4.677-15.168-4.677-23.416v-210.362c0-16.243 6.52-31.805 18-43.314 11.481-11.48 27.072-17.972 43.314-17.972h7.172v-45.354c0-6.095 2.495-11.65 6.52-15.648 3.997-4.025 9.553-6.52 15.647-6.52h116.647c4.139 0 7.512 3.373 7.512 7.512s-3.373 7.484-7.512 7.484h-116.647c-1.956 0-3.742.822-5.046 2.126s-2.126 3.09-2.126 5.046v96.208h18.312v-19.474c0-6.747 2.75-12.87 7.172-17.32 4.451-4.422 10.573-7.172 17.291-7.172 6.747 0 12.869 2.749 17.32 7.172 4.422 4.45 7.172 10.573 7.172 17.32v19.474h49.068v-19.474c0-6.747 2.749-12.87 7.172-17.32 4.45-4.422 10.573-7.172 17.319-7.172 6.718 0 12.841 2.749 17.292 7.172 4.422 4.45 7.171 10.573 7.171 17.32v19.474h49.068v-19.474c0-6.747 2.75-12.87 7.172-17.32 4.45-4.422 10.573-7.172 17.32-7.172s12.87 2.749 17.292 7.172c4.45 4.45 7.2 10.573 7.2 17.32v19.474h18.284v-96.208c0-1.956-.822-3.742-2.126-5.046s-3.09-2.126-5.046-2.126h-116.646c-4.139 0-7.512-3.345-7.512-7.484s3.374-7.512 7.512-7.512h116.646c6.095 0 11.651 2.495 15.648 6.52 4.025 3.998 6.52 9.553 6.52 15.648v103.72c0 4.139-3.345 7.484-7.483 7.484h-7.2v120.304c0 11.849-4.848 22.621-12.643 30.445-7.824 7.795-18.595 12.642-30.444 12.642-11.877 0-22.649-4.847-30.444-12.642-7.824-7.824-12.671-18.596-12.671-30.445v-120.304h-11.821v120.304c0 11.849-4.848 22.621-12.643 30.445-7.824 7.795-18.596 12.642-30.445 12.642-11.877 0-22.649-4.847-30.472-12.642-7.796-7.824-12.643-18.596-12.643-30.445v-120.304h-11.821v120.304c0 11.849-4.847 22.621-12.643 30.445-7.823 7.795-18.595 12.642-30.473 12.642-11.849 0-22.621-4.847-30.444-12.642-7.795-7.824-12.643-18.596-12.643-30.445v-120.304h-7.172c-4.139 0-7.512-3.345-7.512-7.484v-14.031h-7.172c-9.269 0-16.951 7.597-16.951 16.951v210.362c0 2.296.454 4.479 1.276 6.435.85 2.069 2.126 3.94 3.713 5.528 1.587 1.587 3.458 2.863 5.527 3.713 1.956.822 4.139 1.276 6.435 1.276h144.937c4.139 0 7.483 3.373 7.483 7.512s-3.345 7.483-7.483 7.483h-144.936c-4.28 0-8.391-.851-12.189-2.438-3.912-1.644-7.455-4.025-10.375-6.945-2.948-2.92-5.301-6.463-6.945-10.375-1.587-3.799-2.438-7.909-2.438-12.189v-210.362c0-8.447 3.401-16.583 9.383-22.564 2.919-2.92 6.463-5.301 10.375-6.945 3.798-1.559 7.909-2.438 12.189-2.438h7.172v-14.344h-7.172c-12.359 0-23.981 4.847-32.712 13.578-8.731 8.759-13.606 20.353-13.606 32.712v210.362c0 6.264 1.247 12.246 3.515 17.66 2.353 5.641 5.783 10.743 10.091 15.052 4.281 4.28 9.411 7.739 15.052 10.091 5.414 2.268 11.395 3.515 17.66 3.515h323.834c6.265 0 12.246-1.248 17.66-3.515 5.642-2.353 10.772-5.811 15.053-10.091 4.309-4.309 7.738-9.411 10.091-15.052 2.267-5.415 3.515-11.396 3.515-17.66v-21.855h-14.372v21.855c0 4.28-.85 8.39-2.438 12.189-1.644 3.912-3.997 7.455-6.945 10.375-2.92 2.92-6.463 5.301-10.375 6.945-3.77 1.587-7.909 2.438-12.189 2.438h-144.937zm54-164.752h56.212v-25.257h-56.212zm0-40.281h56.212v-32.712c-18.737 0-37.474 0-56.212 0zm56.212 55.305h-56.212v32.287c0 7.71 3.175 14.741 8.277 19.843 5.103 5.074 12.104 8.249 19.843 8.249 7.711 0 14.74-3.175 19.843-8.249 5.102-5.103 8.249-12.133 8.249-19.843zm-154.235-15.024h56.212v-25.257h-56.211v25.257zm0-40.281h56.212v-32.712c-18.737 0-37.475 0-56.211 0v32.712zm56.212 55.305h-56.211v32.287c0 7.71 3.175 14.741 8.277 19.843 5.074 5.074 12.104 8.249 19.842 8.249 7.711 0 14.741-3.175 19.843-8.249 5.074-5.103 8.249-12.133 8.249-19.843zm-98.023-40.281h-56.212v25.257h56.212zm0 40.281h-56.212v32.287c0 7.71 3.175 14.741 8.249 19.843 5.103 5.074 12.132 8.249 19.843 8.249 7.739 0 14.769-3.175 19.842-8.249 5.103-5.103 8.278-12.133 8.278-19.843zm-56.212-55.305h56.212v-32.712c-18.737 0-37.475 0-56.212 0zm11.594-105.79c-4.139 0-7.484-3.373-7.484-7.512s3.345-7.512 7.484-7.512h33.023c4.139 0 7.484 3.374 7.484 7.512 0 4.139-3.345 7.512-7.484 7.512zm196.074 0c-4.167 0-7.512-3.373-7.512-7.512s3.345-7.512 7.512-7.512h32.996c4.139 0 7.484 3.374 7.484 7.512 0 4.139-3.345 7.512-7.484 7.512zm-98.051 0c-4.139 0-7.483-3.373-7.483-7.512s3.345-7.512 7.483-7.512h33.024c4.139 0 7.484 3.374 7.484 7.512 0 4.139-3.345 7.512-7.484 7.512zm105.053 58.082h18.964v-19.474c0-2.608-1.049-4.99-2.778-6.69-1.729-1.729-4.082-2.806-6.69-2.806s-4.989 1.077-6.69 2.806c-1.729 1.701-2.807 4.083-2.807 6.69v19.474zm-98.023 0h18.964v-19.474c0-2.608-1.049-4.99-2.778-6.69-1.729-1.729-4.11-2.806-6.69-2.806-2.608 0-4.989 1.077-6.718 2.806-1.701 1.701-2.778 4.083-2.778 6.69zm-98.023 0h18.964v-19.474c0-2.608-1.077-4.99-2.778-6.69-1.729-1.729-4.11-2.806-6.718-2.806-2.58 0-4.96 1.077-6.69 2.806-1.729 1.701-2.778 4.083-2.778 6.69zm300.306 110.893v14.343h14.372v-14.343zm28.403-29.367c-14.145 0-28.29 0-42.435 0-1.956 0-3.742.822-5.046 2.126s-2.126 3.09-2.126 5.074c0 1.956.822 3.742 2.126 5.046s3.09 2.126 5.046 2.126h42.435c1.956 0 3.742-.822 5.046-2.126s2.126-3.09 2.126-5.046c0-1.984-.822-3.77-2.126-5.074s-3.09-2.126-5.046-2.126zm7.172 102.417v-21.855-21.855c-18.936 0-37.843 0-56.779 0v43.711c18.936-.001 37.843-.001 56.779-.001z"/></g></svg>