<svg id="Layer_1" enable-background="new 0 0 512 512" viewBox="0 0 512 512" xmlns="http://www.w3.org/2000/svg"><path d="m103.975 8h-87.975c-4.418 0-8 3.582-8 8v480c0 4.418 3.582 8 8 8h87.975c4.418 0 8-3.582 8-8v-480c0-4.418-3.582-8-8-8zm-8 480h-71.975v-44h15.763c4.418 0 8-3.582 8-8s-3.582-8-8-8h-15.763v-44h25.166c4.418 0 8-3.582 8-8s-3.582-8-8-8h-25.166v-44h15.763c4.418 0 8-3.582 8-8s-3.582-8-8-8h-15.763v-44h25.166c4.418 0 8-3.582 8-8s-3.582-8-8-8h-25.166v-44h15.763c4.418 0 8-3.582 8-8s-3.582-8-8-8h-15.763v-44h25.166c4.418 0 8-3.582 8-8s-3.582-8-8-8h-25.166v-44h15.763c4.418 0 8-3.582 8-8s-3.582-8-8-8h-15.763v-44h71.975zm348.022-9.629c0 2.463-1.135 4.789-3.076 6.305l-22.574 17.629c-1.462 1.142-3.197 1.695-4.918 1.695-2.379 0-4.733-1.056-6.311-3.077-2.719-3.482-2.101-8.509 1.381-11.229l4.257-3.324h-249.147l4.257 3.324c3.482 2.72 4.101 7.747 1.381 11.229-2.72 3.483-7.748 4.1-11.229 1.381l-22.574-17.629c-1.941-1.516-3.076-3.842-3.076-6.305s1.135-4.789 3.076-6.305l22.575-17.629c3.481-2.72 8.509-2.101 11.229 1.381 2.719 3.482 2.101 8.51-1.381 11.229l-4.256 3.324h249.145l-4.256-3.324c-3.482-2.719-4.101-7.747-1.381-11.229s7.747-4.101 11.229-1.381l22.575 17.629c1.939 1.517 3.074 3.842 3.074 6.306zm-303.631-34.373h283.746c4.418 0 8-3.582 8-8v-284.181c0-4.418-3.582-8-8-8h-36.384c5.444-11.651 8.791-23.34 8.791-34.748 0-44.957-36.575-81.531-81.531-81.531s-81.532 36.575-81.532 81.531c0 11.408 3.346 23.096 8.791 34.748h-101.88c-4.418 0-8 3.582-8 8v284.181c-.001 4.418 3.581 8 7.999 8zm8-188.548 31.469-31.469 167.57 204.017h-199.039zm219.744 172.548-34.825-42.399 82.827-82.827v125.227h-48.002zm-53.122-384.46c36.134 0 65.531 29.397 65.531 65.531 0 30.893-34.16 69.823-59.103 98.248-2.209 2.519-4.359 4.968-6.429 7.346-2.07-2.378-4.219-4.827-6.428-7.345-24.943-28.426-59.104-67.356-59.104-98.249.001-36.134 29.399-65.531 65.533-65.531zm-18.455 174.334c4.431 5.049 8.616 9.818 12.346 14.229 1.52 1.797 3.754 2.834 6.108 2.834s4.588-1.037 6.108-2.834c3.73-4.411 7.916-9.181 12.347-14.231 1.27-1.448 2.558-2.917 3.853-4.395 32.226 2.752 46.25 10.348 48.525 13.473-1.231 1.602-6.501 5.52-20.194 8.988-13.861 3.511-31.845 5.445-50.639 5.445s-36.777-1.934-50.639-5.445c-13.693-3.468-18.963-7.387-20.194-8.988 2.274-3.125 16.299-10.721 48.525-13.473 1.295 1.479 2.584 2.949 3.854 4.397zm-16.505-19.067c-21.335 2.919-52.061 10.237-52.061 28.154 0 24.014 54.699 30.421 87.02 30.421s87.02-6.407 87.02-30.421c0-17.917-30.726-25.235-52.061-28.154 10.476-12.418 20.799-25.58 29.062-38.989h37.104v120.327l-93.031 93.031-131.878-160.561 52.796-52.796h6.968c8.262 13.408 18.586 26.57 29.061 38.988zm-58.656-38.988-73.005 73.006v-73.006zm280.933 258.526-17.629 22.575c-1.516 1.941-3.842 3.076-6.305 3.076s-4.789-1.135-6.305-3.076l-17.629-22.574c-2.719-3.482-2.101-8.509 1.381-11.229 3.481-2.719 8.509-2.102 11.229 1.381l3.324 4.257v-229.147l-3.325 4.257c-2.72 3.483-7.748 4.1-11.229 1.381-3.482-2.72-4.101-7.747-1.381-11.229l17.63-22.574c1.516-1.941 3.842-3.076 6.305-3.076s4.789 1.135 6.305 3.076l17.628 22.574c2.719 3.482 2.101 8.51-1.381 11.229-3.483 2.718-8.51 2.1-11.229-1.381l-3.323-4.256v229.144l3.324-4.256c2.72-3.483 7.747-4.101 11.229-1.381 3.482 2.719 4.1 7.747 1.381 11.229zm-131.796-309.274c0-30.614-24.907-55.521-55.521-55.521s-55.521 24.906-55.521 55.521 24.907 55.521 55.521 55.521 55.521-24.906 55.521-55.521zm-95.042 0c0-21.792 17.729-39.521 39.521-39.521s39.521 17.729 39.521 39.521-17.729 39.521-39.521 39.521-39.521-17.729-39.521-39.521z"/></svg>