<svg id="Layer_1" enable-background="new 0 0 48 48" viewBox="0 0 48 48" xmlns="http://www.w3.org/2000/svg"><g fill="#010101"><g><path d="m24 0c-13.23 0-24 10.77-24 24s10.77 24 24 24 24-10.77 24-24-10.77-24-24-24zm0 46c-12.13 0-22-9.87-22-22s9.87-22 22-22 22 9.87 22 22-9.87 22-22 22z"/><path d="m37 11.58v-.08h-.08c-3.27-3.38-7.85-5.5-12.92-5.5-9.93 0-18 8.08-18 18s8.07 18 18 18 18-8.08 18-18c0-4.81-1.91-9.18-5-12.42zm3 12.42c0 3.47-1.12 6.67-3 9.29v-18.58c1.88 2.62 3 5.82 3 9.29zm-27-11.59c1.18-1.12 2.53-2.05 4-2.78v28.73c-1.47-.72-2.82-1.66-4-2.78zm6-3.6c1.27-.42 2.61-.67 4-.76v31.9c-1.39-.09-2.73-.34-4-.76zm6-.76c1.39.09 2.73.34 4 .76v30.38c-1.27.42-2.61.67-4 .76zm6 1.58c1.47.72 2.82 1.66 4 2.78v23.18c-1.18 1.12-2.53 2.05-4 2.78zm-20 5.08v18.58c-1.88-2.62-3-5.82-3-9.29s1.12-6.67 3-9.29z"/></g><circle cx="24" cy="4" r="1"/><circle cx="38.14" cy="9.86" r="1"/><circle cx="44" cy="24" r="1"/><circle cx="38.14" cy="38.14" r="1"/><circle cx="24" cy="44" r="1"/><circle cx="9.86" cy="38.14" r="1"/><circle cx="4" cy="24" r="1"/><circle cx="9.86" cy="9.86" r="1"/></g></svg>