<svg id="Layer_1" height="512" viewBox="0 0 1000 1000" width="512" xmlns="http://www.w3.org/2000/svg" data-name="Layer 1"><path d="m461.69 448.92h-316.49a16 16 0 0 1 -15.88-18l28.77-233.28a16 16 0 0 1 15.88-14h291.13a16 16 0 0 1 16 16.23l-3.41 233.28a16 16 0 0 1 -16 15.77zm-298.4-32h282.64l2.94-201.28h-260.76z"/><path d="m863.31 448.91h-48.76a16 16 0 0 1 0-32h30.66l-24.82-201.27h-260.75l2.94 201.27h28a16 16 0 0 1 0 32h-43.76a16 16 0 0 1 -16-15.76l-3.42-233.28a16 16 0 0 1 16-16.23h291.14a16 16 0 0 1 15.88 14l28.77 233.36a16 16 0 0 1 -15.88 18z"/><path d="m900 816.36h-356.34a16 16 0 0 1 -16-15.77l-4.28-292.74a16 16 0 0 1 16-16.23h30.11a16 16 0 0 1 0 32h-13.87l3.8 260.74h322.49l-32.16-260.74h-14.14a16 16 0 0 1 0-32h28.29a16 16 0 0 1 15.88 14l36.1 292.74a16 16 0 0 1 -15.88 18z"/><path d="m456.34 815.46h-356.34a16 16 0 0 1 -15.88-18l36.1-292.75a16 16 0 0 1 15.88-14.01h324.52a16 16 0 0 1 16 16.24l-4.28 292.75a16 16 0 0 1 -16 15.77zm-338.25-32h322.48l3.81-260.76h-294.13z"/><path d="m702.55 761.12a16 16 0 0 1 -12.5-6c-1.38-1.73-34.14-42.86-67.45-93.77-45.9-70.15-69.17-122.79-69.17-156.45 0-82.22 66.89-149.12 149.12-149.12s149.13 66.9 149.13 149.12c0 33.66-23.28 86.3-69.18 156.45-33.31 50.91-66.07 92-67.44 93.77a16 16 0 0 1 -12.51 6zm0-373.35a117.25 117.25 0 0 0 -117.12 117.12c0 50.07 75.65 159.74 117.12 214.18 41.45-54.44 117.13-164.07 117.13-214.18a117.26 117.26 0 0 0 -117.13-117.12z"/><path d="m702.55 574a73.12 73.12 0 1 1 73.12-73.12 73.21 73.21 0 0 1 -73.12 73.12zm0-114.24a41.12 41.12 0 1 0 41.12 41.12 41.16 41.16 0 0 0 -41.12-41.11z"/></svg>