<?xml version="1.0" encoding="UTF-8"?>
<svg xmlns="http://www.w3.org/2000/svg" id="Layer_3" data-name="Layer 3" viewBox="0 0 64 64" width="512" height="512"><path d="M62.9,57.553l-10-20A1,1,0,0,0,52,37H41.026L46.75,26.828a17.452,17.452,0,0,0,.077-17.023A16.7,16.7,0,0,0,33.1,1.032a18.64,18.64,0,0,0-2.192,0A16.7,16.7,0,0,0,17.173,9.805a17.452,17.452,0,0,0,.077,17.023L22.974,37H12a1,1,0,0,0-.895.553l-10,20A1,1,0,0,0,1,58v4a1,1,0,0,0,1,1H62a1,1,0,0,0,1-1V58A1,1,0,0,0,62.9,57.553ZM31,53v4H18.281l2-8h9.446l1.4,2.49a1,1,0,0,0,1.744,0l1.4-2.49h9.445l2,8H33V53ZM3.618,57l4-8h10.6l-2,8ZM47.78,57l-2-8h10.6l4,8Zm7.6-10H45.28l-2-8h8.1ZM41.218,39l2,8H35.4l1.508-2.68.387.387a1,1,0,0,0,1.414,0l2-2-1.414-1.414L38,42.586l-.075-.075L39.9,39ZM18.928,10.765A14.716,14.716,0,0,1,31.022,3.028Q31.508,3,32,3t.979.028a14.716,14.716,0,0,1,12.093,7.737,15.459,15.459,0,0,1-.066,15.083L32,48.961,18.994,25.848A15.459,15.459,0,0,1,18.928,10.765Zm7.147,31.746L26,42.586l-1.293-1.293-1.414,1.414,2,2a1,1,0,0,0,1.414,0l.387-.387L28.6,47H20.781l2-8H24.1ZM12.618,39h8.1l-2,8H8.618ZM3,61V59H61v2Z"/><path d="M25,52.586l-1.293-1.293-1.414,1.414,2,2a1,1,0,0,0,1.414,0l2-2-1.414-1.414Z"/><path d="M38,55a1,1,0,0,0,.707-.293l2-2-1.414-1.414L38,52.586l-1.293-1.293-1.414,1.414,2,2A1,1,0,0,0,38,55Z"/><path d="M48.293,44.707a1,1,0,0,0,1.414,0l2-2-1.414-1.414L49,42.586l-1.293-1.293-1.414,1.414Z"/><path d="M53.293,51.293,52,52.586l-1.293-1.293-1.414,1.414,2,2a1,1,0,0,0,1.414,0l2-2Z"/><path d="M13.293,51.293,12,52.586l-1.293-1.293L9.293,52.707l2,2a1,1,0,0,0,1.414,0l2-2Z"/><path d="M14.293,44.707a1,1,0,0,0,1.414,0l2-2-1.414-1.414L15,42.586l-1.293-1.293-1.414,1.414Z"/><path d="M45,18A13,13,0,1,0,32,31,13.015,13.015,0,0,0,45,18ZM21,18A11,11,0,1,1,32,29,11.013,11.013,0,0,1,21,18Z"/><path d="M38,25V19h1a1,1,0,0,0,.707-1.707l-7-7a1,1,0,0,0-1.414,0l-7,7A1,1,0,0,0,25,19h1v6a1,1,0,0,0,1,1H37A1,1,0,0,0,38,25ZM32,12.414,36.586,17H27.414ZM33,24H31V22h2Zm2,0V21a1,1,0,0,0-1-1H30a1,1,0,0,0-1,1v3H28V19h8v5Z"/></svg>
