<svg id="Layer_1" enable-background="new 0 0 66 66" viewBox="0 0 66 66" xmlns="http://www.w3.org/2000/svg"><g fill="rgb(0,0,0)"><path d="m55.72 44.52c.1.22.32.34.54.34.09 0 .17-.02.25-.06.3-.14.43-.5.29-.79-.31-.66-.66-1.31-1.03-1.93-.17-.28-.54-.37-.82-.2s-.37.54-.2.82c.35.58.67 1.2.97 1.82z"/><path d="m45.43 34.43c3.1 1.39 5.85 3.55 7.93 6.26.12.15.29.23.47.23.13 0 .26-.04.36-.12.26-.2.31-.58.11-.84-2.21-2.86-5.11-5.14-8.39-6.61-.3-.13-.65 0-.79.3-.12.29.01.64.31.78z"/><path d="m41.26 36.78c1.44.87 2.79 1.9 4.01 3.08.12.11.27.17.41.17.16 0 .31-.06.43-.18.23-.24.22-.61-.01-.84-1.28-1.24-2.7-2.33-4.22-3.24-.28-.17-.65-.08-.82.2-.18.27-.08.64.2.81z"/><path d="m47.48 40.46c-.22-.25-.59-.27-.84-.06-.25.22-.27.59-.06.84.7.8 1.34 1.66 1.92 2.55.11.18.31.27.5.27.11 0 .22-.03.32-.1.28-.18.36-.55.18-.82-.6-.93-1.28-1.83-2.02-2.68z"/><path d="m63.56 52.82c-.77 0-1.36-.17-1.86-.44-.46-12.9-10.77-23.23-23.62-23.78v-.9c0-.85-.7-1.55-1.55-1.55h-3.07c-.85 0-1.55.7-1.55 1.55v.34h-5.87v-.72c0-1.24-1.01-2.26-2.26-2.26h-.9v-.66c0-1.38-1.12-2.5-2.5-2.5h-.65v-10.38h1.67c.85 0 1.55-.7 1.55-1.55v-4.33c0-.85-.7-1.55-1.55-1.55h-18.01c-.85 0-1.55.7-1.55 1.55v4.32c0 .85.7 1.55 1.55 1.55h1.67v10.39h-.65c-1.38 0-2.5 1.12-2.5 2.5v18.95c0 1.38 1.12 2.5 2.5 2.5h.65v6.05c-.6.48-1.33.91-2.56.91-.33 0-.6.27-.6.6v12.33c0 .33.27.6.6.6 2.15 0 3.25-1.06 4.23-2 .93-.89 1.74-1.67 3.4-1.67s2.47.77 3.4 1.67c.98.94 2.08 2 4.23 2s3.25-1.06 4.23-2c.93-.89 1.74-1.67 3.41-1.67s2.47.77 3.4 1.67c.98.94 2.08 2 4.23 2s3.25-1.06 4.22-2c.93-.89 1.73-1.67 3.4-1.67s2.47.77 3.4 1.67c.98.94 2.08 2 4.23 2s3.25-1.06 4.23-2c.93-.89 1.74-1.67 3.4-1.67 1.67 0 2.47.77 3.4 1.67.98.94 2.08 2 4.23 2 .33 0 .6-.27.6-.6v-12.32c.02-.33-.25-.6-.58-.6zm-3.1-1.38c-.1-.09-.2-.19-.3-.28-.98-.94-2.08-2-4.23-2-.52 0-.99.06-1.43.18-1.26.34-2.04 1.09-2.8 1.82-.54.52-1.04.99-1.69 1.3-1.24-6.61-5.74-12.28-11.92-14.99v-7.67c11.87.53 21.46 9.84 22.37 21.64zm-40.08-5.58c1.38 0 2.5-1.12 2.5-2.5v-.66h.9c1.24 0 2.26-1.01 2.26-2.26v-.72h5.87v.34c0 .85.7 1.55 1.55 1.55h3.07c.85 0 1.55-.7 1.55-1.55v-1.3c5.61 2.65 9.66 7.91 10.77 14.02-.18.02-.36.03-.56.03-1.67 0-2.47-.77-3.4-1.67-.98-.94-2.08-2-4.23-2-.21 0-.42.01-.61.03-1.75.18-2.74 1.13-3.61 1.97-.93.89-1.73 1.67-3.4 1.67s-2.47-.77-3.4-1.67c-.49-.47-.99-.95-1.64-1.33-.77-.45-1.61-.67-2.59-.67-2.15 0-3.25 1.06-4.23 2-.47.45-.91.87-1.45 1.18v-6.47h.65zm12.73-18.16c0-.2.16-.36.36-.36h3.07c.2 0 .36.16.36.36v10.14.03 2.2c0 .2-.16.36-.36.36h-3.07c-.2 0-.36-.16-.36-.36zm-1.19 1.53v9.31h-5.87v-9.31zm-8.13-2.98c.59 0 1.06.48 1.06 1.06v13.13c0 .59-.48 1.06-1.06 1.06h-.9v-15.25zm-20.76-16.28v-4.33c0-.2.16-.36.36-.36h18.01c.2 0 .36.16.36.36v4.32c0 .2-.16.36-.36.36h-18.01c-.2 0-.36-.16-.36-.35zm3.23 1.55h12.28v10.38h-12.28zm-3.16 31.84v-18.95c0-.72.59-1.31 1.31-1.31h15.97c.72 0 1.31.59 1.31 1.31v18.95c0 .72-.59 1.31-1.31 1.31h-15.97c-.72 0-1.31-.59-1.31-1.31zm15.44 2.5v6.89c-.24.04-.49.07-.77.07-1.67 0-2.47-.77-3.4-1.67-.98-.94-2.08-2-4.23-2-1.9 0-2.98.83-3.88 1.67v-4.96zm44.43 19.25c-1.28-.16-1.99-.85-2.81-1.63-.98-.94-2.08-2-4.23-2s-3.25 1.06-4.23 2c-.93.89-1.74 1.67-3.4 1.67s-2.47-.77-3.4-1.67c-.98-.94-2.08-2-4.23-2s-3.25 1.06-4.23 2c-.93.89-1.73 1.66-3.4 1.66s-2.47-.77-3.4-1.67c-.98-.94-2.08-2-4.23-2s-3.26 1.06-4.23 2c-.93.89-1.74 1.66-3.4 1.66-1.67 0-2.47-.77-3.4-1.67-.98-.94-2.08-2-4.23-2s-3.25 1.06-4.23 2c-.81.78-1.53 1.47-2.81 1.63v-11.11c1.36-.14 2.23-.73 2.85-1.26.04-.03.08-.07.12-.11 0 0 .01-.01.01-.01.23-.2.44-.4.65-.6.93-.89 1.73-1.66 3.4-1.66s2.47.77 3.4 1.67c.98.94 2.08 2 4.23 2 .6 0 1.11-.09 1.57-.23.01 0 .02-.01.04-.01 1.16-.36 1.93-1.09 2.63-1.76.93-.89 1.74-1.66 3.4-1.66.77 0 1.4.16 1.99.51.52.31.96.72 1.41 1.16.98.94 2.08 2 4.23 2s3.26-1.06 4.23-2c.84-.81 1.57-1.5 2.91-1.64.15-.02.31-.03.48-.03 1.67 0 2.47.77 3.4 1.67.98.94 2.08 2 4.23 2 .5 0 .94-.06 1.34-.16h.01.01c1.3-.33 2.13-1.12 2.87-1.83.68-.65 1.32-1.26 2.29-1.53.34-.09.7-.14 1.12-.14 1.67 0 2.47.77 3.4 1.67.88.85 1.87 1.79 3.63 1.97v11.11z"/></g></svg>