<svg id="_x30_1" enable-background="new 0 0 62 62.47" height="512" viewBox="0 0 62 62.47" width="512" xmlns="http://www.w3.org/2000/svg"><g><path d="m14 26.47h10c1.103 0 2-.897 2-2h5c.551 0 1 .448 1 1v1c-1.103 0-2 .897-2 2v2c0 1.103.897 2 2 2h10c1.103 0 2-.897 2-2v-2c0-1.103-.897-2-2-2v-1c0-3.344-1.505-6.34-3.868-8.359 2.911-5.954 7.981-11.994 9.868-14.142 2.71 3.087 12 14.202 12 21.501 0 6.617-5.383 12-12 12-1.262 0-2.504-.194-3.692-.578l-.615 1.902c1.387.448 2.836.676 4.307.676 7.72 0 14-6.28 14-14 0-9.286-12.726-23.097-13.267-23.681l-.733-.789-.733.789c-.298.32-7.027 7.619-10.788 15.156-1.615-.933-3.483-1.475-5.479-1.475h-5c0-1.103-.897-2-2-2v-2c0-1.103-.897-2-2-2v-2h4c1.103 0 2-.897 2-2v-2c0-1.103-.897-2-2-2h-14c-1.103 0-2 .897-2 2v2c0 1.103.897 2 2 2h4v2c-1.103 0-2 .897-2 2v2c-1.103 0-2 .897-2 2h-12v10h12c0 1.102.897 2 2 2zm28.001 4h-10.001v-2h10zm-16.001-14h5c4.962 0 9 4.037 9 9v1h-6v-1c0-1.654-1.346-3-3-3h-5zm-4.184-14h4.184l.001 2h-4.186c.113-.315.185-.648.185-1s-.072-.686-.184-1zm-2.816 0c.551 0 1 .448 1 1s-.449 1-1 1-1-.448-1-1 .449-1 1-1zm-1 4h2v2h-2zm-6-2v-2h4.184c-.112.314-.184.647-.184 1s.072.686.184 1zm4 6h6v2h-6zm-2 4h10l.001 10h-10.001zm-12 2h10v6h-10z"/><path d="m4 18.47h6v2h-6z"/><path d="m32 34.47h2v4h-2z"/><path d="m57.022 20.108-1.865.723c.261.672.463 1.303.603 1.876l1.943-.475c-.16-.656-.39-1.371-.681-2.124z"/><path d="m48 32.47v2c5.514 0 10-4.486 10-10h-2c0 4.411-3.589 8-8 8z"/><path d="m53.138 42.47c-2.6 0-3.929 1.199-5.101 2.258-1.079.974-1.93 1.742-3.761 1.742-.978 0-1.674-.224-2.276-.577v-11.423h-2v9.799c-.565-.488-1.199-.961-2-1.301v-8.498h-2v8.034c-.19-.014-.374-.034-.58-.034-2.599 0-3.928 1.199-5.1 2.258-1.078.974-1.929 1.742-3.759 1.742-1.829 0-2.68-.769-3.757-1.742-1.171-1.059-2.5-2.258-5.098-2.258s-3.926 1.199-5.097 2.258c-1.077.974-1.928 1.742-3.756 1.742s-2.679-.769-3.756-1.742c-1.171-1.059-2.499-2.258-5.097-2.258v2c1.829 0 2.679.769 3.756 1.742 1.171 1.059 2.499 2.258 5.097 2.258s3.926-1.199 5.097-2.258c1.077-.974 1.928-1.742 3.756-1.742 1.829 0 2.68.769 3.757 1.742 1.112 1.005 2.379 2.124 4.727 2.236-.116.32-.19.661-.19 1.022 0 1.654 1.346 3 3 3s3-1.346 3-3c0-1.012-.507-1.905-1.277-2.449.335-.264.642-.541.939-.809 1.078-.974 1.929-1.742 3.759-1.742.206 0 .396.013.58.031v3.969h2v-3.235c.403.277.775.613 1.178.977.261.236.533.478.822.713v7.545h2v-6.38c.64.231 1.379.38 2.276.38.054 0 .099-.008.152-.009-.272.616-.429 1.293-.429 2.009 0 2.757 2.243 5 5 5s5-2.243 5-5c0-2.384-1.68-4.377-3.917-4.874.804-.661 1.635-1.126 3.055-1.126 1.831 0 2.682.769 3.761 1.742 1.172 1.059 2.501 2.258 5.101 2.258v-2c-1.831 0-2.683-.769-3.761-1.742-1.172-1.059-2.501-2.258-5.101-2.258zm-24.138 8c-.551 0-1-.448-1-1s.449-1 1-1 1 .448 1 1-.449 1-1 1zm23 0c0 1.654-1.346 3-3 3s-3-1.346-3-3 1.346-3 3-3 3 1.345 3 3z"/><path d="m37 56.47c-1.654 0-3 1.346-3 3s1.346 3 3 3 3-1.346 3-3-1.346-3-3-3zm0 4c-.551 0-1-.448-1-1s.449-1 1-1 1 .448 1 1-.449 1-1 1z"/></g></svg>