<svg id="Layer_1" enable-background="new 0 0 468 468" height="512" viewBox="0 0 468 468" width="512" xmlns="http://www.w3.org/2000/svg"><g><g><g><path d="m392 241.887h-63.585c-3.313 0-6-2.687-6-6s2.687-6 6-6h63.585c35.29 0 64-28.71 64-64v-121.594c0-3.313 2.687-6 6-6 3.314 0 6 2.687 6 6v121.594c0 41.906-34.093 76-76 76z"/></g><g><path d="m266.715 468h-260.715c-3.313 0-6-2.687-6-6s2.687-6 6-6h260.715c42.283 0 76.682-34.399 76.682-76.682s-34.399-76.683-76.682-76.683h-45.711c-20.057 0-36.374-16.317-36.374-36.374 0-20.058 16.317-36.375 36.374-36.375h70.064c3.313 0 6 2.687 6 6s-2.687 6-6 6h-70.064c-13.44 0-24.374 10.935-24.374 24.375 0 13.439 10.934 24.374 24.374 24.374h45.711c48.899 0 88.682 39.782 88.682 88.682s-39.782 88.683-88.682 88.683z"/></g></g><path d="m108.61 261.184c0-15.278-6.241-43.751-14.518-66.229-11.746-31.9-25.132-48.075-39.788-48.075s-28.042 16.175-39.788 48.075c-8.275 22.478-14.516 50.95-14.516 66.229 0 27.916 21.175 50.97 48.305 53.967v25.999c0 3.313 2.687 6 6 6s6-2.687 6-6v-26c27.13-2.996 48.305-26.05 48.305-53.966zm-48.305 41.872v-21.461l15.737-18.313c2.16-2.513 1.873-6.301-.64-8.461-2.514-2.158-6.301-1.873-8.461.641l-6.636 7.722v-34.373c0-3.313-2.687-6-6-6s-6 2.687-6 6v34.373l-6.636-7.722c-2.16-2.515-5.948-2.8-8.461-.641-2.513 2.16-2.8 5.948-.64 8.461l15.737 18.313v21.461c-20.494-2.923-36.305-20.582-36.305-41.872 0-12.122 5.154-38.659 13.779-62.083 9.135-24.81 20.065-40.222 28.526-40.222s19.392 15.412 28.526 40.222c8.625 23.424 13.779 49.961 13.779 62.083 0 21.29-15.81 38.949-36.305 41.872z"/><path d="m410.274 38.293c-3.314 0-6 2.687-6 6v119.743c0 7.72-6.28 14-14 14h-110.274v-38.779c24.197-2.749 43-21.877 43-45.008 0-12.614-5.601-36.051-13.028-54.515-7.291-18.127-19.451-39.734-35.972-39.734s-28.681 21.607-35.972 39.734c-7.427 18.464-13.028 41.901-13.028 54.515 0 23.13 18.803 42.259 43 45.008v38.779h-46.872c-48.095 0-88.225 40.131-88.224 88.226 0 48.647 39.578 88.225 88.226 88.225h45.71c13.692 0 24.832 11.14 24.832 24.832 0 13.691-11.139 24.831-24.832 24.831h-260.84c-3.313 0-6 2.687-6 6s2.687 6 6 6h260.84c20.309 0 36.832-16.522 36.832-36.832 0-20.309-16.522-36.831-36.832-36.831h-45.71c-42.03 0-76.225-34.194-76.226-76.225-.001-41.545 34.672-76.226 76.224-76.226h169.146c14.336 0 26-11.663 26-26v-119.743c0-3.314-2.686-6-6-6zm-173.274 55.956c0-23.232 20.152-82.249 37-82.249s37 59.017 37 82.249c0 16.552-13.443 30.322-31 32.915v-15.92l12.214-14.626c2.124-2.543 1.784-6.327-.76-8.451-2.544-2.126-6.328-1.784-8.451.76l-3.003 3.596v-24.652c0-3.313-2.687-6-6-6s-6 2.687-6 6v24.652l-3.003-3.596c-2.124-2.543-5.908-2.885-8.451-.76-2.543 2.124-2.884 5.908-.76 8.451l12.214 14.626v15.92c-17.557-2.593-31-16.363-31-32.915z"/><path d="m468 372.213c0-12.557-5.067-35.915-11.786-54.332-9.663-26.487-20.838-39.917-33.214-39.917s-23.551 13.43-33.214 39.917c-6.719 18.417-11.786 41.775-11.786 54.332 0 22.96 17.015 41.978 39 44.945v44.842c0 3.313 2.687 6 6 6s6-2.687 6-6v-44.842c21.985-2.968 39-21.985 39-44.945zm-39 32.798v-15.803l12.214-14.626c2.124-2.543 1.784-6.327-.76-8.451-2.545-2.126-6.328-1.783-8.451.76l-3.003 3.596v-24.652c0-3.313-2.687-6-6-6s-6 2.687-6 6v24.652l-3.003-3.596c-2.124-2.543-5.908-2.885-8.451-.76-2.543 2.124-2.884 5.908-.76 8.451l12.214 14.626v15.803c-15.34-2.862-27-16.475-27-32.798 0-9.784 4.137-31.244 11.06-50.22 8.625-23.641 17.209-32.029 21.94-32.029s13.315 8.389 21.94 32.029c6.923 18.976 11.06 40.436 11.06 50.22 0 16.323-11.66 29.936-27 32.798z"/><g><path d="m118.342 72.841h-80.73c-11.286 0-19.96-9.671-19.564-20.708.981-14.593 12.081-26.464 26.082-28.737 5.318-13.969 18.68-23.396 33.847-23.396s28.529 9.427 33.847 23.396c14.002 2.272 25.101 14.144 26.081 28.723.395 11.066-8.273 20.722-19.563 20.722zm-40.365-60.841c-11.114 0-20.783 7.594-23.514 18.467-.662 2.635-3.013 4.497-5.73 4.537-9.827.147-18.046 8.018-18.712 17.919-.108 4.2 3.284 7.918 7.591 7.918h80.73c4.441 0 7.565-3.725 7.589-7.933-.665-9.887-8.884-17.757-18.711-17.904-2.717-.04-5.068-1.902-5.73-4.538-2.73-10.872-12.399-18.466-23.513-18.466z"/></g><g><ellipse cx="54.305" cy="373.884" rx="7.984" ry="8"/></g></g></svg>