<svg id="Layer_1" enable-background="new 0 0 53 53" height="512" viewBox="0 0 53 53" width="512" xmlns="http://www.w3.org/2000/svg"><g><circle cx="12.25" cy="34.375" r="5.458"/><path d="m12.25 24.25c-5.5918579 0-10.125 4.5330811-10.125 10.125 0 5.0355835 8.2072144 13.7364502 9.8408203 15.4185791-.1755371.0775146-.2988281.2519531-.2988281.4564209 0 .2763672.2236328.5.5.5h1c.2763672 0 .5-.2236328.5-.5s-.2236328-.5-.5-.5h-.5906372c1.7232055-1.7785034 9.798645-10.3793335 9.798645-15.375 0-5.5919189-4.5331421-10.125-10.125-10.125zm0 16.5834961c-3.5605469 0-6.4580078-2.8974609-6.4580078-6.4584961s2.8974609-6.4584961 6.4580078-6.4584961 6.4580078 2.8974609 6.4580078 6.4584961-2.8974609 6.4584961-6.4580078 6.4584961z"/><circle cx="40.75" cy="12.375" r="5.458"/><path d="m39.2929688 31.565918c-.4453125.3745117-.984375.6054688-1.5605469.6669922-.2753906.0292969-.4736328.2758789-.4443359.550293.0273438.2563477.2441406.4467773.4960938.4467773.0185547 0 .0361328-.0009766.0537109-.0029297.7753906-.0830078 1.5009766-.3925781 2.0995903-.8964844.2109566-.1777344.2383003-.4931641.0605659-.7041016-.178711-.2114257-.4941406-.2373046-.7050781-.0605468z"/><path d="m38.4023438 40.0834961h-2.0205078c-.2763672 0-.5.2236328-.5.5s.2236328.5.5.5h2.0205078c.2763672 0 .5-.2236328.5-.5s-.2236329-.5-.5-.5z"/><path d="m24.1777344 37.4741211c.0136719 0 .0263672-.0004883.0390625-.0014648.2753906-.0209961.4814453-.2617188.4599609-.5371094-.0068359-.0888672-.0097656-.1782227-.0097656-.269043 0-.5053711.1074219-.9921875.3203125-1.4462891.1171875-.2504883.0087891-.5478516-.2412109-.6650391-.2480469-.1157227-.5478516-.0097656-.6650391.2412109-.2744141.5878906-.4140625 1.2172852-.4140625 1.8701172 0 .1162109.0048828.2319336.0136719.3461914.0195312.2622071.2382812.4614259.4970703.4614259z"/><path d="m17.2695313 49.75h-2.0205078c-.2763672 0-.5.2236328-.5.5s.2236328.5.5.5h2.0205078c.2763672 0 .5-.2236328.5-.5s-.2236329-.5-.5-.5z"/><path d="m21.3105469 49.75h-2.0205078c-.2763672 0-.5.2236328-.5.5s.2236328.5.5.5h2.0205078c.2763672 0 .5-.2236328.5-.5s-.2236328-.5-.5-.5z"/><path d="m46.5800781 40.1928711c-.3544922-.0727539-.7177734-.109375-1.0800781-.109375h-1.0351563c-.2763672 0-.5.2236328-.5.5s.2236328.5.5.5h1.0351563c.2949219 0 .5908203.0297852.8789063.0888672.0341797.0068359.0683594.0102539.1015625.0102539.2324219 0 .4404297-.1630859.4892578-.3999023.0546875-.2705079-.1191407-.534668-.3896485-.5898438z"/><path d="m48.6054688 41.081543c-.2226563-.1611328-.5351563-.1113281-.6972656.1147461-.1611328.2246094-.109375.5366211.1152344.6977539.4882813.3505859.9082031.8100586 1.2128906 1.328125.0927734.1586914.2597656.246582.4306641.246582.0869141 0 .1738281-.0219727.2529297-.0688477.2382813-.1401367.3183594-.4462891.1777344-.6845703-.3740236-.637207-.8906251-1.2021484-1.4921876-1.633789z"/><path d="m48.75 48.2817383c-.4052734.4589844-.8896484.8203125-1.4423828 1.0732422-.2509766.1152344-.3603516.4121094-.2451363.6630859.0840034.1835938.2646675.2915039.4541206.2915039.0703125 0 .140625-.0146484.2089844-.0454102.6787109-.3120117 1.2763672-.7563477 1.7744141-1.3203125.1826172-.2070313.1630859-.5229492-.0439453-.7060547-.2080078-.1831054-.5234375-.1630859-.7060547.0439454z"/><path d="m50.2460938 44.3740234c-.2744141.03125-.4716797.2792969-.4404297.5532227.0185547.159668.0283203.3222656.0273438.4892578 0 .4448242-.0664063.8823242-.1982422 1.3012695-.0820313.2631836.0644531.5439453.328125.6264648.0498047.015625.0995903.0229492.1494141.0229492.2128906 0 .4101563-.1367188.4775391-.3505859.1611328-.515625.2431641-1.0541992.2431641-1.5976563.0009766-.2045898-.0107422-.40625-.0332031-.6049805-.0312502-.2753905-.2841799-.4765624-.5537111-.4399413z"/><path d="m40.3330078 28.2705078v1.0629883c0 .2753906-.0380859.5463867-.1132813.8056641-.0761719.265625.0761719.5424805.3417969.6196289.0458984.0131836.0927734.0195313.1386719.0195313.2167969 0 .4169922-.1420898.4804688-.3608398.1005859-.3496094.1523438-.7143555.1523438-1.0839844v-1.0629883c0-.210022-.1296387-.3881226-.3129272-.4622803 1.6027831-1.6491089 9.8549193-10.3842774 9.8549193-15.4332276 0-5.5919189-4.5331421-10.125-10.125-10.125s-10.125 4.5330811-10.125 10.125c0 5.1238403 8.4956665 14.0408325 9.9186401 15.4985352-.1244506.0908813-.2106323.2308349-.2106323.3969726zm-6.0410156-15.8955078c0-3.5610352 2.8974609-6.4584961 6.4580078-6.4584961s6.4580078 2.8974609 6.4580078 6.4584961-2.8974609 6.4584961-6.4580078 6.4584961-6.4580078-2.8974609-6.4580078-6.4584961z"/><path d="m45.5 49.75h-1.9609375c-.2763672 0-.5.2236328-.5.5s.2236328.5.5.5h1.9726563l.0478516-.5004883v.5c.2763672 0 .4707031-.2236328.4707031-.5-.0000001-.2758789-.2539063-.4995117-.5302735-.4995117z"/><path d="m33.4355469 49.75h-2.0205078c-.2763672 0-.5.2236328-.5.5s.2236328.5.5.5h2.0205078c.2763672 0 .5-.2236328.5-.5s-.2236328-.5-.5-.5z"/><path d="m29.3935547 49.75h-2.0205078c-.2763672 0-.5.2236328-.5.5s.2236328.5.5.5h2.0205078c.2763672 0 .5-.2236328.5-.5s-.2236328-.5-.5-.5z"/><path d="m37.4765625 49.75h-2.0205078c-.2763672 0-.5.2236328-.5.5s.2236328.5.5.5h2.0205078c.2763672 0 .5-.2236328.5-.5s-.2236328-.5-.5-.5z"/><path d="m34.3613281 40.0834961h-2.0214844c-.2763672 0-.5.2236328-.5.5s.2236328.5.5.5h2.0214844c.2763672 0 .5-.2236328.5-.5s-.2236328-.5-.5-.5z"/><path d="m30.3193359 40.0834961h-2.0205078c-.2763672 0-.5.2236328-.5.5s.2236328.5.5.5h2.0205078c.2763672 0 .5-.2236328.5-.5s-.2236328-.5-.5-.5z"/><path d="m26.5644531 39.7280273c-.5273438-.2612305-.9814453-.6582031-1.3125-1.1479492-.1552734-.2299805-.4658203-.2880859-.6943359-.1337891-.2285156.1547852-.2880859.4658203-.1337891.6943359.4287109.6323242 1.0146484 1.1450195 1.6953125 1.4829102.0722656.0356445.1474609.0522461.2226563.0522461.1835938 0 .3603516-.1020508.4482422-.277832.1220703-.2475586.0214843-.5473633-.225586-.6699219z"/><path d="m41.5185547 49.75h-2.0214844c-.2763672 0-.5.2236328-.5.5s.2236328.5.5.5h2.0214844c.2763672 0 .5-.2236328.5-.5s-.2236328-.5-.5-.5z"/><path d="m25.3525391 49.75h-2.0205078c-.2763672 0-.5.2236328-.5.5s.2236328.5.5.5h2.0205078c.2763672 0 .5-.2236328.5-.5s-.2236328-.5-.5-.5z"/><path d="m42.4443359 40.0834961h-2.0214844c-.2763672 0-.5.2236328-.5.5s.2236328.5.5.5h2.0214844c.2763672 0 .5-.2236328.5-.5s-.2236328-.5-.5-.5z"/><path d="m30.666687 38c3.1755981 0 5.75-2.5744019 5.75-5.75 0-3.1756592-2.5744019-5.75-5.75-5.75-3.1756592 0-5.75 2.5743408-5.75 5.75 0 3.1755981 2.5743408 5.75 5.75 5.75zm-2.2096557-7.2524414c-.1953125-.1953125-.1953125-.5117188 0-.7070313s.5117188-.1953125.7070313 0l1.5024414 1.5024414 1.5024414-1.5024414c.1953125-.1953125.5117188-.1953125.7070313 0s.1953125.5117188 0 .7070313l-1.5024415 1.5024414 1.5024414 1.5024414c.1953125.1953125.1953125.5117188 0 .7070313-.0976563.0976563-.2255859.1464844-.3535156.1464844s-.2558594-.0488281-.3535156-.1464844l-1.5024414-1.5024414-1.5024414 1.5024414c-.0976563.0976563-.2255859.1464844-.3535156.1464844s-.2558594-.0488281-.3535156-.1464844c-.1953125-.1953125-.1953125-.5117188 0-.7070313l1.5024413-1.5024414z"/></g></svg>