<svg id="Layer_5" enable-background="new 0 0 62 62" height="512" viewBox="0 0 62 62" width="512" xmlns="http://www.w3.org/2000/svg"><g><path d="m14 13v5h34v-18h-34v5h-6v-5h-8v62h8v-49zm2-11h30v14h-30zm-2 5v4h-6v-4zm-8 53h-4v-58h4z"/><path d="m35.293 8.293 1.414 1.414 2.293-2.293v6.586h2v-6.586l2.293 2.293 1.414-1.414-4.707-4.707z"/><path d="m18 14h10v-10h-10zm2-8h6v6h-6z"/><path d="m30 4h4v2h-4z"/><path d="m30 8h4v2h-4z"/><path d="m30 12h4v2h-4z"/><path d="m56 29.899v4.101h2v-4.101c2.279-.465 4-2.484 4-4.899 0-2.403-1.947-7-5-7s-5 4.597-5 7c0 2.414 1.721 4.434 4 4.899zm1-9.899c1.391 0 3 3.025 3 5 0 1.302-.839 2.402-2 2.816v-3.816h-2v3.816c-1.161-.414-2-1.514-2-2.816 0-1.975 1.609-5 3-5z"/><path d="m16.02 36v-4.101c2.279-.465 4-2.484 4-4.899 0-2.403-1.947-7-5-7s-5 4.597-5 7c0 2.414 1.721 4.434 4 4.899v4.101zm-4-9c0-1.975 1.609-5 3-5s3 3.025 3 5c0 1.302-.839 2.402-2 2.816v-3.816h-2v3.816c-1.162-.414-2-1.514-2-2.816z"/><path d="m47.966 19.74-1.932.52 10.671 39.74h-41.41l10.671-39.74-1.932-.52-10.81 40.26h-3.224v2h52v-2h-3.224z"/><path d="m33 58h6v-12h-6zm2-10h2v8h-2z"/><path d="m39 32h-6v12h6zm-2 10h-2v-8h2z"/><path d="m39 20h-2v8h-2v-8h-2v10h6z"/></g></svg>