<svg id="Capa_1" enable-background="new 0 0 511.998 511.998" height="512" viewBox="0 0 511.998 511.998" width="512" xmlns="http://www.w3.org/2000/svg"><g><g id="Page-1_12_"><g id="_x30_13---Tunnel-Road"><path id="Shape_109_" d="m502.127 502.773c2.945-5.666 2.467-12.505-1.237-17.707l-125.986-177.868h9.097c9.426 0 17.067-7.641 17.067-17.067v-141.09c1.143-78.411-59.458-143.916-137.72-148.864-39.685-1.958-78.44 12.425-107.238 39.801s-45.124 65.353-45.176 105.086v145.067c0 9.426 7.641 17.067 17.067 17.067h9.097l-126.004 177.868c-3.69 5.209-4.164 12.042-1.229 17.711s8.789 9.226 15.172 9.22h461.926c6.386.016 12.242-3.546 15.164-9.224zm-78.719-7.842-136.534-273.067h7.347l57.173 81.732 135.569 191.334h-63.555zm-201.541-290.133v-51.2c0-18.851 15.282-34.133 34.133-34.133s34.133 15.282 34.133 34.133v51.2zm-17.066-51.2v57.045l-42.667 60.954v-126.533c0-51.841 42.026-93.867 93.867-93.867s93.867 42.026 93.867 93.867v126.532l-42.667-60.954v-57.045c0-28.277-22.923-51.2-51.2-51.2s-51.2 22.924-51.2 51.201zm-76.8-8.534c.048-35.061 14.457-68.572 39.871-92.726s59.613-36.843 94.631-35.111c69.171 4.506 122.632 62.506 121.498 131.814v141.09h-17.067v-145.067c0-61.267-49.667-110.933-110.933-110.933s-110.934 49.666-110.934 110.933v145.067h-17.067v-145.067zm32.588 158.49 57.19-81.69h7.347l-136.532 273.067h-63.557zm-52.915 191.377 136.533-273.067h23.586l136.533 273.067z"/><path id="Shape_108_" d="m252.195 264.531c-8.887.044-16.269 6.87-17.007 15.727l-4.036 51.2c-.374 4.745 1.251 9.43 4.482 12.925s7.774 5.482 12.534 5.482h15.667c4.759 0 9.303-1.987 12.534-5.482s4.855-8.18 4.482-12.925l-4.036-51.2c-.738-8.857-8.12-15.682-17.007-15.727zm-4.028 68.267 4.028-51.2h7.603l4.053 51.2z"/><path id="Shape_107_" d="m265.327 366.931h-18.654c-8.796-.025-16.16 6.662-16.981 15.42l-7.467 76.8c-.464 4.789 1.115 9.552 4.348 13.116 3.234 3.563 7.821 5.596 12.633 5.598h33.587c4.812-.002 9.399-2.034 12.633-5.598 3.234-3.563 4.813-8.326 4.348-13.116l-7.467-76.8c-.819-8.758-8.183-15.445-16.98-15.42zm-26.12 93.867 7.467-76.8h18.654l7.484 76.8z"/></g></g></g></svg>