<svg id="Capa_1" enable-background="new 0 0 512.007 512.007" height="512" viewBox="0 0 512.007 512.007" width="512" xmlns="http://www.w3.org/2000/svg"><g><g id="Page-1_34_"><g id="_x30_35---City-Route"><path id="Shape_359_" d="m256.004 264.537c4.713 0 8.533-3.82 8.533-8.533v-17.067c0-4.713-3.821-8.533-8.533-8.533-4.713 0-8.533 3.821-8.533 8.533v17.067c0 4.712 3.82 8.533 8.533 8.533z"/><path id="Shape_358_" d="m247.471 315.737c0 4.713 3.821 8.533 8.533 8.533 4.713 0 8.533-3.82 8.533-8.533v-25.6c0-4.713-3.821-8.533-8.533-8.533-4.713 0-8.533 3.82-8.533 8.533z"/><path id="Shape_357_" d="m247.471 384.004c0 4.713 3.821 8.533 8.533 8.533 4.713 0 8.533-3.82 8.533-8.533v-34.134c0-4.713-3.821-8.533-8.533-8.533-4.713 0-8.533 3.82-8.533 8.533z"/><path id="Shape_356_" d="m247.471 469.337c0 4.713 3.821 8.533 8.533 8.533 4.713 0 8.533-3.82 8.533-8.533v-42.667c0-4.713-3.821-8.533-8.533-8.533-4.713 0-8.533 3.821-8.533 8.533z"/><path id="Shape_355_" d="m102.404 315.737c4.713 0 8.533-3.821 8.533-8.533 0-4.713-3.821-8.533-8.533-8.533h-25.6c-4.713 0-8.533 3.821-8.533 8.533 0 4.713 3.821 8.533 8.533 8.533z"/><path id="Shape_354_" d="m42.671 315.737c4.713 0 8.533-3.821 8.533-8.533 0-4.713-3.821-8.533-8.533-8.533h-25.6c-4.713 0-8.533 3.821-8.533 8.533 0 4.713 3.821 8.533 8.533 8.533z"/><path id="Shape_353_" d="m136.537 315.737h25.6c4.713 0 8.533-3.821 8.533-8.533 0-4.713-3.821-8.533-8.533-8.533h-25.6c-4.713 0-8.533 3.821-8.533 8.533s3.821 8.533 8.533 8.533z"/><path id="Shape_352_" d="m375.471 315.737c4.713 0 8.533-3.821 8.533-8.533 0-4.713-3.821-8.533-8.533-8.533h-25.6c-4.713 0-8.533 3.821-8.533 8.533 0 4.713 3.821 8.533 8.533 8.533z"/><path id="Shape_351_" d="m435.204 315.737c4.713 0 8.533-3.821 8.533-8.533 0-4.713-3.82-8.533-8.533-8.533h-25.6c-4.713 0-8.533 3.821-8.533 8.533 0 4.713 3.82 8.533 8.533 8.533z"/><path id="Shape_350_" d="m494.937 315.737c4.713 0 8.533-3.821 8.533-8.533 0-4.713-3.82-8.533-8.533-8.533h-25.6c-4.713 0-8.533 3.821-8.533 8.533 0 4.713 3.82 8.533 8.533 8.533z"/><path id="Shape_349_" d="m68.271 187.737c9.426 0 17.067-7.641 17.067-17.067v-17.067c0-9.426-7.641-17.067-17.067-17.067h-17.067c-9.426 0-17.067 7.641-17.067 17.067v17.067c0 9.426 7.641 17.067 17.067 17.067zm-17.067-34.133h17.067v17.067h-17.067z"/><path id="Shape_348_" d="m119.471 187.737h17.067c9.426 0 17.067-7.641 17.067-17.067v-17.067c0-9.426-7.641-17.067-17.067-17.067h-17.067c-9.426 0-17.067 7.641-17.067 17.067v17.067c0 9.426 7.641 17.067 17.067 17.067zm0-34.133h17.067v17.067h-17.067z"/><path id="Shape_347_" d="m392.537 136.537h-17.067c-9.426 0-17.067 7.641-17.067 17.067v17.067c0 9.426 7.641 17.067 17.067 17.067h17.067c9.426 0 17.067-7.641 17.067-17.067v-17.067c0-9.426-7.641-17.067-17.067-17.067zm-17.066 34.133v-17.067h17.067v17.067z"/><path id="Shape_346_" d="m460.804 136.537h-17.067c-9.426 0-17.067 7.641-17.067 17.067v17.067c0 9.426 7.641 17.067 17.067 17.067h17.067c9.426 0 17.067-7.641 17.067-17.067v-17.067c0-9.426-7.641-17.067-17.067-17.067zm-17.067 34.133v-17.067h17.067v17.067z"/><path id="Shape_345_" d="m51.204 119.47h17.067c9.426 0 17.067-7.641 17.067-17.067v-17.066c0-9.426-7.641-17.067-17.067-17.067h-17.067c-9.426 0-17.067 7.641-17.067 17.067v17.067c0 9.425 7.641 17.066 17.067 17.066zm0-34.133h17.067v17.067h-17.067z"/><path id="Shape_344_" d="m119.471 119.47h17.067c9.426 0 17.067-7.641 17.067-17.067v-17.066c0-9.426-7.641-17.067-17.067-17.067h-17.067c-9.426 0-17.067 7.641-17.067 17.067v17.067c0 9.425 7.641 17.066 17.067 17.066zm0-34.133h17.067v17.067h-17.067z"/><path id="Shape_343_" d="m392.537 68.27h-17.067c-9.426 0-17.067 7.641-17.067 17.067v17.067c0 9.426 7.641 17.067 17.067 17.067h17.067c9.426 0 17.067-7.641 17.067-17.067v-17.067c0-9.426-7.641-17.067-17.067-17.067zm-17.066 34.134v-17.067h17.067v17.067z"/><path id="Shape_342_" d="m460.804 68.27h-17.067c-9.426 0-17.067 7.641-17.067 17.067v17.067c0 9.426 7.641 17.067 17.067 17.067h17.067c9.426 0 17.067-7.641 17.067-17.067v-17.067c0-9.426-7.641-17.067-17.067-17.067zm-17.067 34.134v-17.067h17.067v17.067z"/><path id="Shape_341_" d="m508.207 35.57-49.05-32.7c-2.796-1.869-6.083-2.866-9.446-2.867h-151.04c-4.713 0-8.533 3.821-8.533 8.533v187.734h-68.267v-187.733c0-4.713-3.82-8.533-8.533-8.533h-151.041c-3.371-.001-6.667.996-9.472 2.867l-49.024 32.699c-2.373 1.583-3.798 4.247-3.797 7.1v221.867c0 4.713 3.821 8.533 8.533 8.533h170.667c3.055.006 5.88-1.621 7.407-4.267l31.676-55.467h75.435l31.676 55.467c1.527 2.645 4.352 4.273 7.407 4.267h170.667c4.713 0 8.533-3.82 8.533-8.533v-221.867c0-2.852-1.425-5.516-3.798-7.1zm-32.896-1.433h-138.974l-17.067-17.067h130.441zm-287.574 12.066 17.067-17.067v173.397l-17.067 29.867zm-125.44-29.133h130.441l-17.067 17.067h-138.974zm-45.226 34.134h153.6v204.8h-51.2v-42.667c0-9.426-7.641-17.067-17.067-17.067h-17.067c-9.426 0-17.067 7.641-17.067 17.067v42.667h-51.2v-204.8zm68.266 204.8v-42.667h17.067v42.667zm221.867-226.868 17.067 17.067v186.206l-17.067-29.867zm102.4 226.868v-42.667h17.067v42.667zm34.133 0v-42.667c0-9.426-7.641-17.067-17.067-17.067h-17.067c-9.426 0-17.067 7.641-17.067 17.067v42.667h-51.2v-204.8h153.6v204.8z"/><path id="Shape_340_" d="m512.004 384.004c0-4.713-3.82-8.533-8.533-8.533h-59.733c-3.115-.001-5.984 1.695-7.483 4.426-1.5 2.731-1.392 6.062.281 8.69l59.733 93.867c1.637 2.573 4.523 4.077 7.57 3.946s5.792-1.878 7.202-4.582 1.27-5.955-.367-8.528l-51.396-80.751h44.194c4.712-.002 8.532-3.823 8.532-8.535z"/><path id="Shape_339_" d="m503.471 341.337h-121.942c-3.052-.006-5.874 1.618-7.403 4.259-1.528 2.641-1.53 5.898-.004 8.541l80.503 140.8h-397.243l80.503-140.8c1.526-2.643 1.524-5.899-.004-8.541-1.528-2.641-4.351-4.265-7.403-4.259h-121.941c-4.713 0-8.533 3.82-8.533 8.533s3.821 8.533 8.533 8.533h107.23l-73.207 128.06c-3.022 5.283-3.002 11.776.054 17.04 3.055 5.264 8.682 8.503 14.769 8.5h397.244c6.084.001 11.708-3.237 14.763-8.498s3.077-11.751.06-17.034l-73.208-128.068h107.23c4.713 0 8.533-3.82 8.533-8.533s-3.821-8.533-8.534-8.533z"/><path id="Shape_338_" d="m75.746 379.899c-1.497-2.729-4.362-4.427-7.475-4.429h-59.734c-4.713 0-8.533 3.82-8.533 8.533s3.821 8.533 8.533 8.533h44.186l-51.388 80.752c-2.531 3.978-1.358 9.254 2.62 11.785s9.254 1.358 11.785-2.62l59.733-93.867c1.669-2.629 1.774-5.958.273-8.687z"/></g></g></g></svg>