<svg id="Capa_1" enable-background="new 0 0 511.976 511.976" height="512" viewBox="0 0 511.976 511.976" width="512" xmlns="http://www.w3.org/2000/svg"><g><path d="m370.025 126.068h36.24c.52 0 1.034.361 1.224.858l5.41 14.15c1.479 3.869 5.81 5.808 9.685 4.327 3.869-1.479 5.806-5.815 4.327-9.684l-5.41-14.15c-2.401-6.281-8.524-10.501-15.235-10.501h-36.24c-13.735 0-24.91 11.175-24.91 24.91v87.24c0 13.73 11.175 24.9 24.91 24.9h67.771c7.276 0 14.081-3.579 18.205-9.572 4.122-5.992 5.03-13.625 2.43-20.417l-20.86-54.54c-1.479-3.868-5.811-5.81-9.685-4.326-3.868 1.479-5.805 5.815-4.325 9.684l20.861 54.542c.848 2.214.563 4.603-.779 6.555-1.344 1.953-3.475 3.074-5.847 3.074h-67.771c-5.465 0-9.91-4.441-9.91-9.9v-87.24c-.001-5.464 4.445-9.91 9.909-9.91z"/><path d="m106.898 402.225c18.718 0 33.946-15.228 33.946-33.946s-15.229-33.946-33.946-33.946-33.945 15.228-33.945 33.946 15.228 33.946 33.945 33.946zm0-52.892c10.447 0 18.946 8.499 18.946 18.946s-8.499 18.946-18.946 18.946c-10.446 0-18.945-8.499-18.945-18.946s8.499-18.946 18.945-18.946z"/><path d="m378.95 334.333c-18.718 0-33.945 15.228-33.945 33.946s15.228 33.946 33.945 33.946 33.946-15.228 33.946-33.946-15.228-33.946-33.946-33.946zm0 52.892c-10.446 0-18.945-8.499-18.945-18.946s8.499-18.946 18.945-18.946c10.447 0 18.946 8.499 18.946 18.946s-8.499 18.946-18.946 18.946z"/><path d="m440.216 287.56v11.315c0 12.36 10.056 22.415 22.415 22.415s22.415-10.055 22.415-22.415v-11.315c0-12.359-10.056-22.415-22.415-22.415s-22.415 10.056-22.415 22.415zm15 0c0-4.088 3.326-7.415 7.415-7.415s7.415 3.326 7.415 7.415v11.315c0 4.089-3.326 7.415-7.415 7.415s-7.415-3.326-7.415-7.415z"/><path d="m361.521 259.184c-4.143 0-7.5 3.358-7.5 7.5s3.357 7.5 7.5 7.5h25.716c4.143 0 7.5-3.358 7.5-7.5s-3.357-7.5-7.5-7.5z"/><path d="m56.804 111.071c-13.732 0-24.905 11.172-24.905 24.905v87.244c0 13.733 11.173 24.905 24.905 24.905h43.046c13.732 0 24.905-11.172 24.905-24.905v-87.244c0-13.733-11.173-24.905-24.905-24.905zm52.951 24.906v87.244c0 5.462-4.443 9.905-9.905 9.905h-43.046c-5.462 0-9.905-4.443-9.905-9.905v-87.244c0-5.462 4.443-9.905 9.905-9.905h43.046c5.462-.001 9.905 4.443 9.905 9.905z"/><path d="m227.789 223.22v-87.244c0-13.733-11.173-24.905-24.905-24.905h-42.285c-13.732 0-24.905 11.172-24.905 24.905v87.244c0 13.733 11.173 24.905 24.905 24.905h42.285c13.732 0 24.905-11.172 24.905-24.905zm-15 0c0 5.462-4.443 9.905-9.905 9.905h-42.285c-5.462 0-9.905-4.443-9.905-9.905v-87.244c0-5.462 4.443-9.905 9.905-9.905h42.285c5.462 0 9.905 4.443 9.905 9.905z"/><path d="m306.679 248.125c13.732 0 24.905-11.172 24.905-24.905v-87.244c0-13.733-11.173-24.905-24.905-24.905h-43.045c-13.732 0-24.905 11.172-24.905 24.905v87.244c0 13.733 11.173 24.905 24.905 24.905zm-52.95-24.905v-87.244c0-5.462 4.443-9.905 9.905-9.905h43.045c5.462 0 9.905 4.443 9.905 9.905v87.244c0 5.462-4.443 9.905-9.905 9.905h-43.045c-5.462 0-9.905-4.443-9.905-9.905z"/><path d="m509.711 265.615-59.317-155.104c-6.952-18.164-24.684-30.368-44.123-30.368h-364.683c-22.932 0-41.588 18.656-41.588 41.588v224.599c0 21.752 17.696 39.449 39.448 39.449h6.366c7.621 26.558 32.11 46.054 61.084 46.054s53.465-19.497 61.085-46.055h18.342c4.143 0 7.5-3.358 7.5-7.5s-3.357-7.5-7.5-7.5h-15.935c.032-.83.063-1.661.063-2.499 0-35.044-28.511-63.555-63.555-63.555s-63.554 28.511-63.554 63.555c0 .838.031 1.669.063 2.5h-3.96c-13.479 0-24.447-10.968-24.447-24.449v-20.979h7.587c10.838 0 19.655-8.817 19.655-19.655v-34.214c0-10.838-8.817-19.655-19.655-19.655h-7.587v-130.096c0-14.661 11.928-26.588 26.588-26.588h364.683c13.267 0 25.368 8.331 30.113 20.728l59.316 155.101c.847 2.213 1.275 4.542 1.275 6.921v72.736c0 11.11-9.038 20.149-20.148 20.149h-34.386c.032-.831.063-1.662.063-2.5 0-35.044-28.511-63.555-63.555-63.555s-63.554 28.511-63.554 63.555c0 .838.031 1.669.063 2.499h-99.135c-4.143 0-7.5 3.358-7.5 7.5s3.357 7.5 7.5 7.5h101.541c7.62 26.558 32.11 46.055 61.084 46.055s53.464-19.497 61.085-46.054h36.792c19.381 0 35.148-15.768 35.148-35.149v-72.736c.003-4.217-.759-8.348-2.262-12.278zm-402.813 54.109c26.773 0 48.555 21.782 48.555 48.555s-21.781 48.554-48.555 48.554c-26.772 0-48.554-21.781-48.554-48.554s21.782-48.555 48.554-48.555zm-84.311-52.897c2.567 0 4.655 2.088 4.655 4.655v34.214c0 2.567-2.088 4.655-4.655 4.655h-7.587v-43.524zm356.363 150.006c-26.772 0-48.554-21.781-48.554-48.554s21.781-48.555 48.554-48.555 48.555 21.782 48.555 48.555-21.781 48.554-48.555 48.554z"/></g></svg>