<svg id="Capa_1" enable-background="new 0 0 511.909 511.909" height="512" viewBox="0 0 511.909 511.909" width="512" xmlns="http://www.w3.org/2000/svg"><g><path d="m246.858 110.96 8.919 6.626c8.345 6.199 18.247 9.657 28.637 10l36.13 1.189c.559.018 1.116.027 1.674.027 4.373 0 8.725-.563 12.956-1.68l19.7-5.194-5.272 17.341c-1.249 4.109-.195 8.603 2.752 11.728 2.292 2.431 5.479 3.768 8.746 3.768.933 0 1.872-.109 2.8-.333l11.616-2.799c2.691-.65 5.092-2.224 6.763-4.435l30.897-40.908c.634 0 1.278-.072 1.92-.241l48.939-12.904c10.919-2.879 21.067-7.73 30.165-14.419l4.984-3.665c7.229-5.316 10.372-14.668 7.819-23.27-2.667-8.995-11.084-15.278-20.467-15.278h-9.054c-9.759 0-19.487 1.271-28.917 3.777l-125.133 33.261c-.187-.123-.378-.241-.58-.349l-46.399-24.821c-2.717-1.454-5.869-1.896-8.882-1.245l-10.84 2.345c-4.087.884-7.519 3.703-9.181 7.54-1.662 3.836-1.37 8.268.78 11.853l12.745 21.252-10.771 2.863c-3.803 1.011-6.625 4.04-7.366 7.903s.763 7.722 3.92 10.068zm124.096 26.342-5.479 1.32 10.58-34.801 25.205-6.646zm81.465-82.517c8.173-2.172 16.605-3.274 25.063-3.274h9.054c2.79 0 5.293 1.868 6.086 4.543.76 2.558-.175 5.339-2.325 6.919l-4.984 3.665c-7.57 5.567-16.017 9.604-25.103 12l-42.195 11.126c-.367-.983-.854-1.939-1.464-2.849-3.216-4.793-8.896-6.939-14.48-5.467l-30.733 8.104c-4.509 1.188-8.009 4.562-9.363 9.02l-1.973 6.49-28.653 7.555c-3.362.887-6.829 1.28-10.312 1.165l-36.129-1.189c-7.323-.241-14.304-2.679-20.186-7.048l-.858-.638zm-189.789 8.768 7.394-1.6 32.213 17.232-26.074 6.931z"/><path d="m497.589 261.751h-53.288c-5.477 0-11.032-.324-16.514-.961-4.113-.476-7.837 2.468-8.317 6.583-.479 4.115 2.469 7.838 6.583 8.317 6.056.705 12.194 1.062 18.248 1.062h52.607v20.267h-54.298c-37.522 0-74.11-12.283-105.808-35.522-26.107-19.142-61.987-20.31-89.285-2.901l-14.49 9.242c-28.407 18.117-61.23 27.9-94.885 28.291l-122.865.838-.269-20.265 122.832-.838c29.924-.347 59.07-9.031 84.29-25.114l14.49-9.242c17.019-10.855 36.678-16.22 56.84-15.526 20.17.695 39.409 7.403 55.638 19.4 12.983 9.599 27.408 17.176 42.871 22.521 3.919 1.355 8.186-.724 9.539-4.638 1.353-3.915-.724-8.186-4.639-9.539-14.023-4.847-27.096-11.712-38.854-20.405-18.679-13.809-40.823-21.531-64.038-22.33-23.2-.81-45.835 5.378-65.423 17.871l-14.489 9.241c-17.681 11.276-37.497 18.519-58.101 21.375v-43.25c0-4.142-3.357-7.5-7.5-7.5s-7.5 3.358-7.5 7.5v44.542c-1.087.037-2.173.082-3.262.095l-53.054.362v-74.499h95.918c8.009 0 15.013-5.689 16.653-13.527.022-.108.043-.217.061-.327l8.175-49.977c.985-4.979-.279-10.082-3.485-14.028-3.245-3.995-8.059-6.286-13.205-6.286h-22.822l1.406-24.375c.268-4.619-1.401-9.198-4.577-12.563s-7.652-5.295-12.279-5.295h-30.186v-40.175c0-4.142-3.357-7.5-7.5-7.5s-7.5 3.358-7.5 7.5v40.172h-30.186c-4.627 0-9.104 1.93-12.279 5.295-3.176 3.365-4.845 7.944-4.577 12.562l1.406 24.376h-22.822c-5.146 0-9.96 2.292-13.205 6.286-3.206 3.946-4.471 9.049-3.485 14.029l8.175 49.977c.018.109.038.218.061.327 1.642 7.838 8.645 13.527 16.653 13.527h24.602v74.601l-55.429.378c-3.842.026-7.439 1.553-10.13 4.297-2.689 2.744-4.142 6.372-4.09 10.212l.287 21.625c.104 7.812 6.518 14.13 14.318 14.129h.098l6.562-.045v167.22c0 11.076 9.012 20.087 20.088 20.087h441.439c11.076 0 20.087-9.011 20.087-20.087v-168.151c5.282-2.11 9.028-7.269 9.028-13.294v-21.627c.001-7.896-6.423-14.32-14.319-14.32zm-424.349-184.411c-.038-.67.257-1.132.511-1.401.255-.27.699-.591 1.371-.591h75.372c.672 0 1.116.321 1.371.591.254.27.55.731.511 1.403l-1.456 25.24h-76.224zm-30.14 92.887-8.161-49.893c-.018-.109-.038-.218-.061-.326-.162-.776.133-1.343.408-1.683s.771-.744 1.562-.744h151.917c.792 0 1.287.405 1.562.744s.57.907.408 1.683c-.022.108-.043.217-.061.326l-8.161 49.893c-.231.875-1.034 1.5-1.947 1.5h-135.519c-.913 0-1.716-.625-1.947-1.5zm354.881 136.384c-.234.726-.363 1.498-.363 2.302v175.321h-62.26v-205.448c19.548 13.078 40.669 22.438 62.623 27.825zm-77.623-37.771v215.394h-62.259v-214.506c19.177-11.004 42.947-11.2 62.259-.888zm-79.264 11.644 2.005-1.279v205.028h-62.259v-178.304c21.268-5.01 41.637-13.572 60.254-25.445zm-102.813 30.643c9.268-.107 18.475-.875 27.56-2.276v175.382h-62.259v-172.869zm-102.015 168.019v-167.323l52.315-.357v172.767h-47.227c-2.806 0-5.088-2.282-5.088-5.087zm446.527 5.087h-70.176v-174.64c9.888 1.607 19.907 2.424 29.993 2.424h45.27v167.128c0 2.806-2.282 5.088-5.087 5.088z"/></g></svg>