<?xml version="1.0" encoding="UTF-8"?>
<svg xmlns="http://www.w3.org/2000/svg" viewBox="0 0 48 48" width="512" height="512"><g id="Layer_37" data-name="Layer 37"><path d="M17,33a4.08,4.08,0,0,0-2.25.63,2.09,2.09,0,0,1-1.25.37,2.11,2.11,0,0,1-1.25-.37A4.05,4.05,0,0,0,10,33a4,4,0,0,0-2.24.63A2.13,2.13,0,0,1,6.5,34a2.14,2.14,0,0,1-1.26-.37A4,4,0,0,0,3,33a1,1,0,0,0,0,2,2.11,2.11,0,0,1,1.25.37A4.05,4.05,0,0,0,6.5,36a4,4,0,0,0,2.24-.63A2.13,2.13,0,0,1,10,35a2.14,2.14,0,0,1,1.26.37,4,4,0,0,0,2.24.63,4.08,4.08,0,0,0,2.25-.63A2.09,2.09,0,0,1,17,35a2.11,2.11,0,0,1,1.25.37,4.33,4.33,0,0,0,4.5,0A2.09,2.09,0,0,1,24,35a2.11,2.11,0,0,1,1.25.37,4.42,4.42,0,0,0,2.24.63,4,4,0,0,0,2.25-.63,2.31,2.31,0,0,1,2.51,0,4.32,4.32,0,0,0,4.49,0A2.14,2.14,0,0,1,38,35a2.11,2.11,0,0,1,1.25.37,4.6,4.6,0,0,0,2.25.63,4.05,4.05,0,0,0,2.25-.63A2.14,2.14,0,0,1,45,35a1,1,0,0,0,0-2,4.05,4.05,0,0,0-2.25.63l-.29.16L45,26.32a1,1,0,0,0-.58-1.25L43,24.52V17a1,1,0,0,0-1-1H40V14a1,1,0,0,0-1-1H37V9a1,1,0,0,0-1-1H32a1,1,0,0,0-1,1v4H29a1,1,0,0,0-1,1v2H26a1,1,0,0,0-1,1v7.52l-1.37.55a1,1,0,0,0-.58,1.25l2.3,6.89A4.17,4.17,0,0,0,24,33a4.08,4.08,0,0,0-2.25.63,2.11,2.11,0,0,1-1.25.37,2.09,2.09,0,0,1-1.25-.37L19,33.5V30h1a1,1,0,0,0,1-1V26a1,1,0,0,0-1-1H3a1,1,0,0,0,0,2H19v1H3a1,1,0,0,0,0,2H17v3Zm24-9.28-6-2.4V18h6ZM33,10h2v3H33Zm-3,5h8v1H30Zm-3,3h6v3.32l-6,2.4Zm7,5.08,8.75,3.5-2.37,7.13-.14-.08a4.33,4.33,0,0,0-4.5,0,2.11,2.11,0,0,1-1.25.37,2.14,2.14,0,0,1-1.26-.37,4.32,4.32,0,0,0-4.49,0,2.1,2.1,0,0,1-1,.35l-2.47-7.4Z"/><path d="M45,37a4.05,4.05,0,0,0-2.25.63,2.14,2.14,0,0,1-1.26.37,2.09,2.09,0,0,1-1.25-.37,4.33,4.33,0,0,0-4.5,0,2.11,2.11,0,0,1-1.25.37,2.14,2.14,0,0,1-1.26-.37,4.32,4.32,0,0,0-4.49,0,2.31,2.31,0,0,1-2.51,0A4,4,0,0,0,24,37a4.08,4.08,0,0,0-2.25.63,2.11,2.11,0,0,1-1.25.37,2.09,2.09,0,0,1-1.25-.37,4.33,4.33,0,0,0-4.5,0,2.09,2.09,0,0,1-1.25.37,2.11,2.11,0,0,1-1.25-.37A4.05,4.05,0,0,0,10,37a4,4,0,0,0-2.24.63A2.13,2.13,0,0,1,6.5,38a2.14,2.14,0,0,1-1.26-.37A4,4,0,0,0,3,37a1,1,0,0,0,0,2,2.11,2.11,0,0,1,1.25.37A4.05,4.05,0,0,0,6.5,40a4,4,0,0,0,2.24-.63A2.13,2.13,0,0,1,10,39a2.14,2.14,0,0,1,1.26.37,4,4,0,0,0,2.24.63,4.08,4.08,0,0,0,2.25-.63A2.09,2.09,0,0,1,17,39a2.11,2.11,0,0,1,1.25.37,4.33,4.33,0,0,0,4.5,0A2.09,2.09,0,0,1,24,39a2.11,2.11,0,0,1,1.25.37,4.32,4.32,0,0,0,4.49,0,2.31,2.31,0,0,1,2.51,0,4.32,4.32,0,0,0,4.49,0A2.14,2.14,0,0,1,38,39a2.11,2.11,0,0,1,1.25.37,4.33,4.33,0,0,0,4.5,0A2.14,2.14,0,0,1,45,39a1,1,0,0,0,0-2Z"/></g></svg>
