<svg id="Capa_1" enable-background="new 0 0 512 512" height="512" viewBox="0 0 512 512" width="512" xmlns="http://www.w3.org/2000/svg"><g><path d="m233.5 271.763h45c4.143 0 7.5-3.357 7.5-7.5s-3.357-7.5-7.5-7.5h-45c-4.142 0-7.5 3.357-7.5 7.5s3.358 7.5 7.5 7.5zm-102.399-186.448c0-25.982-21.138-47.12-47.12-47.12s-47.12 21.138-47.12 47.12 21.138 47.12 47.12 47.12 47.12-21.138 47.12-47.12zm-79.239 0c0-17.711 14.409-32.12 32.12-32.12s32.12 14.409 32.12 32.12-14.409 32.12-32.12 32.12-32.12-14.41-32.12-32.12zm151.638 186.448c4.136 0 7.5-3.364 7.5-7.5 0-4.135-3.364-7.5-7.5-7.5s-7.5 3.365-7.5 7.5c0 4.136 3.364 7.5 7.5 7.5zm224.519 72.501c-25.982 0-47.12 21.138-47.12 47.12s21.138 47.12 47.12 47.12 47.12-21.138 47.12-47.12-21.138-47.12-47.12-47.12zm0 79.24c-17.711 0-32.12-14.409-32.12-32.12s14.409-32.12 32.12-32.12 32.12 14.409 32.12 32.12-14.409 32.12-32.12 32.12zm0-117.432c-42.088 0-77.088 31.269-83.067 71.841h-120.352c-4.142 0-7.5 3.357-7.5 7.5s3.358 7.5 7.5 7.5h119.505c.207 4.83.961 9.832 2.26 15h-245.095c-47.569 0-86.27-38.701-86.27-86.271 0-47.574 38.701-86.279 86.27-86.279h57.23v15h-57.23c-39.298 0-71.27 31.972-71.27 71.27 0 39.304 31.972 71.28 71.27 71.28h88.33c4.142 0 7.5-3.357 7.5-7.5s-3.358-7.5-7.5-7.5h-88.33c-31.027 0-56.27-25.247-56.27-56.28 0-31.027 25.243-56.27 56.27-56.27h57.23v16.529c0 10.663 6.105 19.922 15 24.482v19.738c0 12.406 10.093 22.5 22.5 22.5s22.5-10.094 22.5-22.5v-16.721h75v16.721c0 12.406 10.094 22.5 22.5 22.5s22.5-10.094 22.5-22.5v-19.738c8.895-4.561 15-13.819 15-24.482v-16.529h57.23c55.84 0 101.27-45.43 101.27-101.271 0-55.846-45.43-101.28-101.27-101.28h-245.475c-9.408-36.091-42.277-62.81-81.273-62.81-11.348 0-22.354 2.227-32.713 6.618-3.813 1.617-5.595 6.019-3.978 9.833 1.617 3.812 6.02 5.597 9.833 3.978 8.497-3.603 17.534-5.429 26.858-5.429 38.036 0 68.981 30.945 68.981 68.981 0 33.074-35.447 76.485-68.985 106.443-33.589-29.955-69.057-73.358-68.978-106.424.04-16.633 6.046-32.692 16.913-45.22 2.714-3.129 2.378-7.865-.751-10.579s-7.865-2.378-10.58.751c-13.224 15.244-20.533 34.781-20.582 55.013-.05 21.117 10.679 45.659 31.89 72.944 16.755 21.555 35.748 39.09 43.136 45.628 2.552 2.259 5.752 3.389 8.952 3.389 3.203 0 6.407-1.132 8.96-3.396 7.377-6.538 26.342-24.072 43.087-45.626 13.645-17.563 22.951-33.987 27.855-49.094h246.851c31.027 0 56.27 25.247 56.27 56.28 0 31.027-25.242 56.271-56.27 56.271h-57.231v-57.471c0-15.163-12.337-27.5-27.5-27.5h-140c-15.164 0-27.5 12.337-27.5 27.5v57.471h-57.23c-55.84 0-101.27 45.434-101.27 101.28 0 55.841 45.43 101.271 101.27 101.271h250.194c5.321 12.559 13.484 25.945 24.463 40.068 16.756 21.554 35.749 39.089 43.136 45.626 2.552 2.26 5.752 3.39 8.953 3.39 3.203 0 6.406-1.132 8.96-3.396 7.377-6.537 26.341-24.071 43.087-45.626 21.192-27.279 31.937-51.814 31.937-72.922 0-46.308-37.674-83.982-83.981-83.982zm-74.519-70.709h57.23c39.298 0 71.27-31.972 71.27-71.271 0-39.304-31.972-71.28-71.27-71.28h-243.373c.399-3.005.606-5.949.606-8.828 0-2.078-.102-4.132-.251-6.172h243.019c47.569 0 86.27 38.705 86.27 86.28 0 47.569-38.7 86.271-86.27 86.271h-57.231zm-150 90.75c0 4.136-3.364 7.5-7.5 7.5s-7.5-3.364-7.5-7.5v-16.721h15zm120 0c0 4.136-3.364 7.5-7.5 7.5s-7.5-3.364-7.5-7.5v-16.721h15zm-150-163.22c0-6.893 5.607-12.5 12.5-12.5h140c6.893 0 12.5 5.607 12.5 12.5v56.241h-165zm0 71.241h165v47.759c0 6.893-5.607 12.5-12.5 12.5h-140c-6.893 0-12.5-5.607-12.5-12.5zm254.516 262.363c-33.589-29.956-69.057-73.358-68.978-106.426.091-38.046 31.035-68.999 68.98-68.999 38.036 0 68.981 30.945 68.981 68.981.001 33.076-35.445 76.487-68.983 106.444zm-119.516-224.734c4.136 0 7.5-3.364 7.5-7.5 0-4.135-3.364-7.5-7.5-7.5s-7.5 3.365-7.5 7.5c0 4.136 3.364 7.5 7.5 7.5z"/></g></svg>