<svg id="&#x421;&#x43B;&#x43E;&#x439;_1" enable-background="new 0 0 160 160" viewBox="0 0 160 160" xmlns="http://www.w3.org/2000/svg"><g fill="rgb(0,0,0)"><path d="m138 58.63h-5.438l-3.371-4.423c-.751-.987-1.941-1.577-3.182-1.577h-20.019c-1.241 0-2.431.589-3.182 1.576l-3.371 4.424h-5.437c-3.309 0-6 2.691-6 6v44.249c0 .97.352 1.905.99 2.634l5.908 6.751c.759.868 1.856 1.366 3.01 1.366h1.081l-6.831 16.224c-.429 1.019.049 2.191 1.067 2.62.253.107.516.157.775.157.781 0 1.522-.46 1.844-1.224l7.485-17.776h25.344l7.485 17.776c.322.764 1.063 1.224 1.844 1.224.259 0 .521-.05.775-.157 1.018-.429 1.496-1.601 1.067-2.62l-6.831-16.224h1.081c1.153 0 2.25-.498 3.01-1.366l5.908-6.752c.638-.729.989-1.665.989-2.633v-44.249c-.001-3.309-2.692-6-6.001-6zm2 50.248-5.907 6.751h-8.093v-4c0-1.104-.896-2-2-2s-2 .896-2 2v4h-4v-4c0-1.104-.896-2-2-2s-2 .896-2 2v4h-4v-4c0-1.104-.896-2-2-2s-2 .896-2 2v4h-8.092l-5.908-6.751v-44.248c0-1.103.897-2 2-2h5.438c1.24 0 2.43-.589 3.182-1.576l3.371-4.424h20.019l3.371 4.424c.752.987 1.941 1.576 3.182 1.576h5.437c1.103 0 2 .897 2 2z"/><path d="m132 66.63h-32c-2.206 0-4 1.794-4 4v20c0 2.206 1.794 4 4 4h32c2.206 0 4-1.794 4-4v-20c0-2.206-1.794-4-4-4zm-32 24v-20h32l.002 20z"/><path d="m126 126.63h-20c-1.104 0-2 .896-2 2s.896 2 2 2h20c1.104 0 2-.896 2-2 0-1.105-.896-2-2-2z"/><path d="m102 100.63h-4c-1.104 0-2 .896-2 2s.896 2 2 2h4c1.104 0 2-.896 2-2s-.896-2-2-2z"/><path d="m134 100.63h-4c-1.104 0-2 .896-2 2s.896 2 2 2h4c1.104 0 2-.896 2-2s-.896-2-2-2z"/><path d="m84 32.63h21.202c.929 4.559 4.969 8 9.798 8 5.514 0 10-4.486 10-10s-4.486-10-10-10c-4.829 0-8.869 3.441-9.798 8h-21.202c-6.617 0-12 5.383-12 12v10.202c-3.912.797-7.001 3.886-7.798 7.798h-8.202v-18.202c4.559-.929 8-4.969 8-9.798 0-5.514-4.486-10-10-10s-10 4.486-10 10c0 4.829 3.441 8.869 8 9.798v18.202h-16c-4.411 0-8-3.589-8-8v-10.202c4.559-.929 8-4.969 8-9.798 0-5.514-4.486-10-10-10s-10 4.486-10 10c0 4.829 3.441 8.869 8 9.798v10.202c0 6.617 5.383 12 12 12h16v18c0 4.411-3.589 8-8 8h-8.202c-.929-4.559-4.969-8-9.798-8-5.514 0-10 4.486-10 10s4.486 10 10 10c4.829 0 8.869-3.441 9.798-8h8.202c6.617 0 12-5.383 12-12v-18h8.202c.797 3.913 3.886 7.001 7.798 7.798v26.403c-4.559.929-8 4.969-8 9.798s3.441 8.869 8 9.798v2.202c0 4.411-3.589 8-8 8h-28.202c-.929-4.559-4.969-8-9.798-8-5.514 0-10 4.486-10 10s4.486 10 10 10c4.829 0 8.869-3.441 9.798-8h28.202c6.617 0 12-5.383 12-12v-2.202c4.559-.929 8-4.969 8-9.798s-3.441-8.869-8-9.798v-26.403c4.559-.929 8-4.969 8-9.798s-3.441-8.869-8-9.798v-10.202c0-4.411 3.589-8 8-8zm31-8c3.309 0 6 2.691 6 6s-2.691 6-6 6-6-2.691-6-6 2.691-6 6-6zm-67 6c0-3.309 2.691-6 6-6s6 2.691 6 6-2.691 6-6 6-6-2.692-6-6zm-28 0c0-3.309 2.691-6 6-6s6 2.691 6 6-2.691 6-6 6-6-2.692-6-6zm6 66c-3.309 0-6-2.691-6-6s2.691-6 6-6 6 2.691 6 6-2.691 6-6 6zm0 38c-3.309 0-6-2.691-6-6s2.691-6 6-6 6 2.691 6 6c0 3.308-2.691 6-6 6zm54-28c0 3.309-2.691 6-6 6s-6-2.691-6-6 2.691-6 6-6 6 2.691 6 6zm0-46c0 3.309-2.691 6-6 6s-6-2.691-6-6 2.691-6 6-6 6 2.691 6 6z"/></g></svg>