<svg id="Layer_1" height="512" viewBox="0 0 512 512" width="512" xmlns="http://www.w3.org/2000/svg" data-name="Layer 1"><path d="m185.327 386.585c2.761 0 5-2.238 5-5v-4.499c0-12.68-10.315-22.995-22.995-22.995h-64.38l-19.573-73.05c-1.259-4.7-3.997-8.866-7.771-11.912v-58.495c0-66.67 53.553-121.061 119.901-122.433 3.524 6.66 10.518 11.214 18.562 11.214h202.202c22.602 0 40.99-18.389 40.99-40.99v-5.247c0-2.762-2.239-5-5-5h-254.187c-43.221 0-83.97 16.946-114.741 47.718-30.771 30.771-47.717 71.52-47.717 114.739v206.068h-6.058c-12.991 0-23.56 10.569-23.56 23.561v18.56c0 2.762 2.239 5 5 5h89.226c2.761 0 5-2.238 5-5v-18.56c0-12.991-10.568-23.561-23.559-23.561h-6.059v-39.115l1.418 5.292c.586 2.186 2.566 3.706 4.83 3.706h51.234v72.237c0 2.762 2.239 5 5 5h19.494c2.761 0 5-2.238 5-5v-72.237h22.743zm17.749-328.408h244.187v.247c0 17.088-13.902 30.99-30.99 30.99h-202.202c-6.063 0-10.996-4.933-10.996-10.996v-20.241zm-107.85 382.086v13.56h-79.226v-13.56c0-7.478 6.083-13.561 13.56-13.561h52.107c7.477 0 13.559 6.083 13.559 13.561zm-49.608-23.561v-206.068c0-82.392 65.699-149.718 147.458-152.366v20.004c-33.349 1.245-64.625 14.914-88.538 38.825-25.104 25.104-38.93 58.323-38.93 93.537v206.068h-19.991zm29.991-77.751v-48.274l18.678 69.707c.586 2.186 2.566 3.706 4.83 3.706h68.216c6.998 0 12.722 5.56 12.986 12.494h-94.627l-10.084-37.634zm76.976 114.871h-9.494v-67.237h9.494zm149.032-80.097c0-2.762 2.239-5 5-5h72.355c2.761 0 5 2.238 5 5s-2.239 5-5 5h-72.355c-2.761 0-5-2.238-5-5zm73.357 19.403c0 2.762-2.239 5-5 5h-54.36c-2.761 0-5-2.238-5-5s2.239-5 5-5h54.36c2.761 0 5 2.238 5 5zm126.027 60.693h-61.176c.63-1.678.991-3.487.991-5.382v-24.095c9.324-1.6 16.448-9.72 16.448-19.494v-180.402h12.803c3.858 0 6.997 3.139 6.997 6.996v1.373h-.659c-5.961 0-10.811 4.85-10.811 10.812v40.991c0 5.961 4.85 10.811 10.811 10.811h11.318c5.961 0 10.811-4.85 10.811-10.811v-40.991c0-5.962-4.85-10.812-10.811-10.812h-.659v-1.373c0-9.372-7.625-16.996-16.997-16.996h-12.803v-22.93c0-10.918-8.882-19.801-19.8-19.801h-189.341c-10.918 0-19.8 8.883-19.8 19.801v22.93h-12.803c-9.372 0-16.997 7.624-16.997 16.996v1.373h-.659c-5.961 0-10.811 4.85-10.811 10.812v40.991c0 5.961 4.85 10.811 10.811 10.811h11.318c5.961 0 10.811-4.85 10.811-10.811v-40.991c0-5.962-4.85-10.812-10.811-10.812h-.659v-1.373c0-3.857 3.139-6.996 6.997-6.996h12.803v180.404c0 9.773 7.124 17.894 16.448 19.494v24.095c0 1.895.361 3.704.991 5.382h-61.176c-2.761 0-5 2.238-5 5s2.239 5 5 5h316.414c2.761 0 5-2.238 5-5s-2.239-5-5-5zm-12.467-210.194v40.991c0 .432-.379.811-.811.811h-11.318c-.432 0-.811-.379-.811-.811v-40.991c0-.433.379-.812.811-.812h11.318c.432 0 .811.379.811.812zm-278.541 0v40.991c0 .432-.379.811-.811.811h-11.318c-.432 0-.811-.379-.811-.811v-40.991c0-.433.379-.812.811-.812h11.318c.432 0 .811.379.811.812zm237.271 144.502h-38.825l5.43-9.404h33.395zm-21.994-101.252h-55.04c-1.786 0-3.437.953-4.33 2.5l-9.125 15.803h-8.982v-94.971h99.47v73.354c0 11.92-9.697 21.617-21.617 21.617h-57.324l4.794-8.303h52.153c2.761 0 5-2.238 5-5s-2.239-5-5-5zm-177.146-105.161h189.34c5.404 0 9.8 4.396 9.8 9.801v8.692h-208.942v-8.692c0-5.404 4.396-9.801 9.8-9.801zm-9.8 28.493h99.47v94.971h-69.193l4.794-8.303h52.153c2.761 0 5-2.238 5-5s-2.239-5-5-5h-55.04c-1.786 0-3.437.953-4.33 2.5l-9.017 15.618c-10.611-1.369-18.837-10.455-18.837-21.432zm0 168.516h33.396l5.43 9.404h-38.825v-9.404zm0 26.126v-6.722h47.485c1.786 0 3.437-.953 4.33-2.5s.893-3.453 0-5l-11.203-19.404c-.893-1.547-2.544-2.5-4.33-2.5h-36.282v-62.121c5.659 5.312 13.262 8.576 21.617 8.576h165.706c8.355 0 15.958-3.264 21.617-8.576v62.121h-36.282c-1.786 0-3.437.953-4.33 2.5l-11.203 19.404c-.893 1.547-.893 3.453 0 5s2.544 2.5 4.33 2.5h47.485v6.722c0 5.403-4.396 9.8-9.8 9.8h-189.341c-5.404 0-9.8-4.396-9.8-9.8zm56.934 19.8h95.073v23.789c0 1.895.361 3.704.991 5.382h-97.055c.63-1.678.991-3.487.991-5.382zm-35.104 29.171c-2.967 0-5.381-2.414-5.381-5.382v-23.789h30.486v23.789c0 2.968-2.414 5.382-5.381 5.382h-19.723zm145.559 0c-2.967 0-5.381-2.414-5.381-5.382v-23.789h30.486v23.789c0 2.968-2.414 5.382-5.381 5.382h-19.723z"/></svg>