<?xml version="1.0"?>
<svg xmlns="http://www.w3.org/2000/svg" data-name="Layer 1" id="Layer_1" viewBox="0 0 128 128"><title/><path d="M82,12h8a2,2,0,0,0,0-4H82a2,2,0,0,0,0,4Z"/><path d="M82,20h8a2,2,0,0,0,0-4H82a2,2,0,0,0,0,4Z"/><path d="M82,28h8a2,2,0,0,0,0-4H82a2,2,0,0,0,0,4Z"/><path d="M82,36h8a2,2,0,0,0,0-4H82a2,2,0,0,0,0,4Z"/><path d="M82,44h8a2,2,0,0,0,0-4H82a2,2,0,0,0,0,4Z"/><path d="M82,52h8a2,2,0,0,0,0-4H82a2,2,0,0,0,0,4Z"/><path d="M82,60h8a2,2,0,0,0,0-4H82a2,2,0,0,0,0,4Z"/><path d="M82,68h8a2,2,0,0,0,0-4H82a2,2,0,0,0,0,4Z"/><path d="M82,76h8a2,2,0,0,0,0-4H82a2,2,0,0,0,0,4Z"/><path d="M82,84h8a2,2,0,0,0,0-4H82a2,2,0,0,0,0,4Z"/><path d="M92,90a2.0001,2.0001,0,0,0-2-2H82a2,2,0,0,0,0,4h8A2.0001,2.0001,0,0,0,92,90Z"/><path d="M126,120a12.56606,12.56606,0,0,1-5.5459-1.15533,9.88877,9.88877,0,0,0-7.998,0,13.879,13.879,0,0,1-11.08893-.00049,9.88027,9.88027,0,0,0-7.99219,0,13.86909,13.86909,0,0,1-11.08594,0,9.87579,9.87579,0,0,0-7.9903,0,13.85958,13.85958,0,0,1-11.082,0,9.87565,9.87565,0,0,0-7.99023,0A12.53774,12.53774,0,0,1,49.68457,120a12.53774,12.53774,0,0,1-5.542-1.15582A8.66625,8.66625,0,0,0,40.14752,118a8.66925,8.66925,0,0,0-3.99615.84418A12.543,12.543,0,0,1,30.6084,120a12.538,12.538,0,0,1-5.542-1.15582A8.66654,8.66654,0,0,0,21.07129,118a8.65848,8.65848,0,0,0-3.99371.84418A12.537,12.537,0,0,1,11.53607,120a12.54336,12.54336,0,0,1-5.542-1.15582A8.66286,8.66286,0,0,0,2,118a2.0001,2.0001,0,0,1-2-2v8a2.0001,2.0001,0,0,0,2,2,8.66286,8.66286,0,0,1,3.99408.84418A12.54336,12.54336,0,0,0,11.53607,128a12.537,12.537,0,0,0,5.5415-1.15582A8.65848,8.65848,0,0,1,21.07129,126a8.66654,8.66654,0,0,1,3.99512.84418A12.538,12.538,0,0,0,30.6084,128a12.543,12.543,0,0,0,5.543-1.15582A8.66925,8.66925,0,0,1,40.14752,126a8.66625,8.66625,0,0,1,3.99506.84418A12.53774,12.53774,0,0,0,49.68457,128a12.53774,12.53774,0,0,0,5.542-1.15582,9.87565,9.87565,0,0,1,7.99023,0,13.85958,13.85958,0,0,0,11.082,0,9.87579,9.87579,0,0,1,7.9903,0,13.86909,13.86909,0,0,0,11.08594,0,9.88027,9.88027,0,0,1,7.99219,0,13.879,13.879,0,0,0,11.08893.00049,9.88877,9.88877,0,0,1,7.998,0A12.56606,12.56606,0,0,0,126,128a2.0001,2.0001,0,0,0,2-2v-8A2.0001,2.0001,0,0,1,126,120Z"/><path d="M126,108a8.67289,8.67289,0,0,1-3.999-.84473,13.8892,13.8892,0,0,0-11.0918,0,9.88394,9.88394,0,0,1-7.99512.00049,13.86991,13.86991,0,0,0-11.086,0,9.87962,9.87962,0,0,1-7.99219,0,13.86479,13.86479,0,0,0-11.08386,0,9.87052,9.87052,0,0,1-7.98834,0,13.86508,13.86508,0,0,0-11.084,0A8.66626,8.66626,0,0,1,49.68457,108a8.66578,8.66578,0,0,1-3.99506-.84424A12.53876,12.53876,0,0,0,40.14752,106a12.54341,12.54341,0,0,0-5.543,1.15576,8.73642,8.73642,0,0,1-2.7793.78564,29.8367,29.8367,0,0,1-2.57861-7.09375C26.69141,90.2334,27.29248,74.293,32.46967,61.21l-.019.16553a2.00023,2.00023,0,0,0,.24463,1.207l1.1983,2.12793-.566,2.49268a2.00087,2.00087,0,0,0,.48291,1.80231l.9483,1.02344a45.46182,45.46182,0,0,1-4.03131,11.60785,1.99993,1.99993,0,0,0,2.65729,2.688c.394-.189,9.6875-4.71143,13.02985-12.78271a17.03552,17.03552,0,0,0,.38226-11.21973l1.0498.144,1.84473,2.00879a1.9941,1.9941,0,0,0,1.645.64008l1.53815-.13281a48.18632,48.18632,0,0,1,7.61176,10.27393,2.01589,2.01589,0,0,0,3.71155-.64642c.07269-.42389,1.7309-10.4693-3.17682-17.96436-2.667-4.07574-7.59283-7.04785-12.90332-7.979a1.99083,1.99083,0,0,0,.6391-.64655l1.274-2.19769,2.45941-.8609A1.99967,1.99967,0,0,0,53.73969,41.667l.439-1.41461a45.65087,45.65087,0,0,1,12.0274-2.78461,2,2,0,0,0,.89838-3.6568c-.28027-.185-6.93988-4.54-14.43121-4.54a17.97813,17.97813,0,0,0-3.00391.24756c-5.11859.874-9.91547,4.59613-12.64209,9.53223a18.78034,18.78034,0,0,0-11.78851-13.0127A21.83652,21.83652,0,0,0,18.354,25,33.97028,33.97028,0,0,0,6.998,27.09961a2.00013,2.00013,0,0,0,.22711,3.791,49.87381,49.87381,0,0,1,11.74268,4.626l.19769,1.32568a2.00171,2.00171,0,0,0,1.05762,1.4809l2.35553,1.2207.90869,2.23389a1.96058,1.96058,0,0,0,.20172.33893,19.10276,19.10276,0,0,0-12.84924,5.272C4.53711,53.8042,4.021,64.063,4.002,64.49658A2.00009,2.00009,0,0,0,7.5127,65.89209,48.98157,48.98157,0,0,1,17.019,57.25726l1.4292.43311a2.0007,2.0007,0,0,0,1.76221-.30078l2.19879-1.61078,2.5791.17188a1.986,1.986,0,0,0,.37689-.03131C11.75488,72.85986,11.86328,95.09229,13.40967,107.84961A10.238,10.238,0,0,1,11.53607,108a8.66617,8.66617,0,0,1-3.99506-.84424A12.53333,12.53333,0,0,0,2,106a2.0001,2.0001,0,0,0-2,2v8a2.0001,2.0001,0,0,1,2-2,12.53333,12.53333,0,0,1,5.541,1.15576A8.66617,8.66617,0,0,0,11.53607,116a8.658,8.658,0,0,0,3.99371-.84424A12.53757,12.53757,0,0,1,21.07129,114a12.53811,12.53811,0,0,1,5.542,1.15576A8.66626,8.66626,0,0,0,30.6084,116a8.66927,8.66927,0,0,0,3.99609-.84424A12.54341,12.54341,0,0,1,40.14752,114a12.53876,12.53876,0,0,1,5.542,1.15576A8.66578,8.66578,0,0,0,49.68457,116a8.66626,8.66626,0,0,0,3.99512-.84424,13.86508,13.86508,0,0,1,11.084,0,9.87052,9.87052,0,0,0,7.98834,0,13.86479,13.86479,0,0,1,11.08386,0,9.87962,9.87962,0,0,0,7.99219,0,13.86991,13.86991,0,0,1,11.086,0,9.88394,9.88394,0,0,0,7.99512-.00049,13.8892,13.8892,0,0,1,11.0918,0A8.67289,8.67289,0,0,0,126,116a2.0001,2.0001,0,0,1,2,2v-8A2.0001,2.0001,0,0,0,126,108ZM57.67432,56.83636a19.19478,19.19478,0,0,1,2.751,8.91852,39.76748,39.76748,0,0,0-5.519-6.35449,2.00076,2.00076,0,0,0-1.30914-.48779c-.05719,0-.11481.00238-.17187.00726l-1.45258.12555-1.66705-1.81494a1.99939,1.99939,0,0,0-1.20117-.62891l-2.72711-.37445-4.4931-3.96252a7.98709,7.98709,0,0,0,.539-1.73242c.28809-.0415.5791-.09076.86194-.11719.4375-.04047.8891-.061,1.34265-.061C49.89362,50.354,55.13672,52.959,57.67432,56.83636ZM50.3418,33.46191a13.89606,13.89606,0,0,1,2.33148-.19092,20.617,20.617,0,0,1,6.7027,1.25049,37.466,37.466,0,0,0-7.71136,2.46143,2.00125,2.00125,0,0,0-1.03284,1.2041l-.41351,1.33154-2.20758.77295a2.00176,2.00176,0,0,0-1.06976.88477l-1.334,2.3017L41.65137,45.3623a7.96312,7.96312,0,0,0-2.01855-2.4585C41.47607,38.124,45.834,34.23138,50.3418,33.46191ZM37.01117,56.667c.0484-.01562.09869-.02051.147-.03711a7.99768,7.99768,0,0,0,2.25586-1.21051l.50684.44684c3.42291,3.89746,4.60791,9.76947,2.79791,14.14648a19.39952,19.39952,0,0,1-5.80573,7.25439,36.62069,36.62069,0,0,0,1.959-7.68213,2.00162,2.00162,0,0,0-.522-1.566l-.88818-.9585.50287-2.21631a1.99968,1.99968,0,0,0-.20752-1.42432L36.498,61.18359ZM22.9707,35.2417l-.18549-1.24414a1.99945,1.99945,0,0,0-.86584-1.36719,39.21176,39.21176,0,0,0-6.92719-3.40326A26.05308,26.05308,0,0,1,18.354,29a17.8719,17.8719,0,0,1,5.624.834,14.82876,14.82876,0,0,1,9.40625,11.3266,8.06443,8.06443,0,0,0-1.41211.335,7.95389,7.95389,0,0,0-1.34039.6084L26.958,39.69379,26.00629,37.354a2.00118,2.00118,0,0,0-.93207-1.02252Zm1.67236,16.67719-2.69525-.17963a2.00047,2.00047,0,0,0-1.315.38232l-1.98053,1.45123-1.34808-.40875a2.00628,2.00628,0,0,0-1.57178.17725,39.8796,39.8796,0,0,0-6.583,5.10107,19.87609,19.87609,0,0,1,4.544-8.25049A15.17151,15.17151,0,0,1,24.3916,46.0835,15.83529,15.83529,0,0,1,27.061,46.313a7.95937,7.95937,0,0,0-.31976,4.38281Zm1.97021,55.23688A12.53811,12.53811,0,0,0,21.07129,106a12.81959,12.81959,0,0,0-3.792.50537c-1.42529-12.74469-1.20648-34.4541,12.897-50.10352-6.7818,14.47266-7.74365,33.23242-4.81836,45.38184a37.52067,37.52067,0,0,0,1.80231,5.59619C26.98047,107.30811,26.7998,107.23389,26.61328,107.15576Z"/><path d="M2,102H8.87159c-.0737-1.2812-.1162-2.626-.1397-4H2a2,2,0,0,0,0,4Z"/><path d="M38.06489,9.4209a10.58355,10.58355,0,0,0-10.6357,10.4165,2.00015,2.00015,0,0,0,1.9844,2.0156h.0161a2.00009,2.00009,0,0,0,1.9995-1.9843,6.57837,6.57837,0,0,1,6.6372-6.4478h.0459a6.63853,6.63853,0,0,1,4.72071,1.978,6.37123,6.37123,0,0,1,1.85549,4.5484,2.00022,2.00022,0,0,0,1.9844,2.0156H46.689a1.99992,1.99992,0,0,0,1.99949-1.9844,10.94368,10.94368,0,0,0-3.0078-7.3882C42.84379,9.4209,38.08939,9.4209,38.06489,9.4209Z"/><path d="M38.06639,6.76318a2.00009,2.00009,0,0,0,2-2V2a2,2,0,1,0-4,0V4.76318A2.00009,2.00009,0,0,0,38.06639,6.76318Z"/><path d="M53.40769,18.0005A1.99991,1.99991,0,0,0,53.44239,22c.0117,0,2.5928-.0454,2.5928-.0454a1.99935,1.99935,0,0,0,1.9643-2.0347,1.96944,1.96944,0,0,0-2.0347-1.9643Z"/><path d="M50.32669,14.7749a2.025,2.025,0,0,0,2.5205,1.2832l2.6577-.8647a2,2,0,0,0-1.2373-3.8038l-2.6577.8648A2,2,0,0,0,50.32669,14.7749Z"/><path d="M43.80859,7.32568a2.0168,2.0168,0,0,0,2.5727-1.17431l.9566-2.5625a1.99977,1.99977,0,1,0-3.7471-1.39844l-.9565,2.5625A1.9993,1.9993,0,0,0,43.80859,7.32568Z"/><path d="M50.86909,10.4888l2.0044-1.80032a1.99987,1.99987,0,1,0-2.6728-2.97559l-2.0044,1.80029a1.99924,1.99924,0,0,0-.1514,2.82422A1.9511,1.9511,0,0,0,50.86909,10.4888Z"/><path d="M19.96479,21.9546S22.54589,22,22.55759,22a1.99991,1.99991,0,0,0,.0347-3.9995s-2.5811-.0454-2.5928-.0454a1.99991,1.99991,0,0,0-.0347,3.9995Z"/><path d="M20.49459,15.1934l2.6573.8647a2.00008,2.00008,0,1,0,1.2382-3.8037l-2.6572-.8648a2.00014,2.00014,0,0,0-1.2383,3.8038Z"/><path d="M29.61869,6.15137a2.02824,2.02824,0,0,0,2.5727,1.17431,1.99928,1.99928,0,0,0,1.1743-2.57275l-.9565-2.5625a1.99977,1.99977,0,1,0-3.7471,1.39844Z"/><path d="M25.13089,10.4888a1.99989,1.99989,0,0,0,2.6728-2.97562l-2.0044-1.80029a1.99987,1.99987,0,1,0-2.6728,2.97559Z"/><path d="M123.001,26H120V24a2,2,0,0,0-4,0v2h-4V24a2,2,0,0,0-4,0v2h-7.001a4.74218,4.74218,0,0,0-.999.11719V5.0708A5.0895,5.0895,0,0,0,94.90332,0H77.09772A5.09035,5.09035,0,0,0,72,5.0708V78H56a4.0045,4.0045,0,0,0-4,4V98H32.74316c.123.64838.24512,1.29877.39252,1.91156.17633.73395.37158,1.42291.57672,2.08844H126a2.0001,2.0001,0,0,0,2-2V31.06976A5.04032,5.04032,0,0,0,123.001,26ZM65,95H63a2,2,0,0,1,0-4h2a2,2,0,0,1,0,4Zm0-6H63a2,2,0,0,1,0-4h2a2,2,0,0,1,0,4Zm31,9H76V5.0708A1.08565,1.08565,0,0,1,77.09772,4h17.8056A1.08541,1.08541,0,0,1,96,5.0708Zm12-4h-2a2,2,0,0,1,0-4h2a2,2,0,0,1,0,4Zm0-8h-2a2,2,0,0,1,0-4h2a2,2,0,0,1,0,4Zm0-8h-2a2,2,0,0,1,0-4h2a2,2,0,0,1,0,4Zm0-8h-2a2,2,0,0,1,0-4h2a2,2,0,0,1,0,4Zm0-8h-2a2,2,0,0,1,0-4h2a2,2,0,0,1,0,4Zm0-8h-2a2,2,0,0,1,0-4h2a2,2,0,0,1,0,4Zm0-8h-2a2,2,0,0,1,0-4h2a2,2,0,0,1,0,4Zm0-8h-2a2,2,0,0,1,0-4h2a2,2,0,0,1,0,4Zm10,56h-2a2,2,0,0,1,0-4h2a2,2,0,0,1,0,4Zm0-8h-2a2,2,0,0,1,0-4h2a2,2,0,0,1,0,4Zm0-8h-2a2,2,0,0,1,0-4h2a2,2,0,0,1,0,4Zm0-8h-2a2,2,0,0,1,0-4h2a2,2,0,0,1,0,4Zm0-8h-2a2,2,0,0,1,0-4h2a2,2,0,0,1,0,4Zm0-8h-2a2,2,0,0,1,0-4h2a2,2,0,0,1,0,4Zm0-8h-2a2,2,0,0,1,0-4h2a2,2,0,0,1,0,4Zm0-8h-2a2,2,0,0,1,0-4h2a2,2,0,0,1,0,4Z"/></svg>
