<svg id="Capa_1" enable-background="new 0 0 512 512" height="512" viewBox="0 0 512 512" width="512" xmlns="http://www.w3.org/2000/svg"><g><g><path d="m504.5 32.325h-80.701c-3.144-9.381-12.011-16.163-22.437-16.163h-113.352c-7.262-9.797-18.906-16.162-32.01-16.162-13.103 0-24.746 6.364-32.008 16.16h-113.352c-10.418 0-19.285 6.781-22.437 16.165h-80.703c-4.142 0-7.5 3.358-7.5 7.5s3.358 7.5 7.5 7.5h80.685c1.146 3.441 3.08 6.597 5.721 9.237 4.466 4.467 10.41 6.928 16.734 6.928h32.59c4.142 0 7.5-3.358 7.5-7.5s-3.358-7.5-7.5-7.5h-32.59c-2.317 0-4.493-.9-6.127-2.534-1.618-1.617-2.514-3.758-2.538-6.026 0-.035.005-.069.005-.105 0-.03-.004-.059-.005-.089.061-4.738 3.924-8.576 8.665-8.576h106.495c-.622 2.792-.961 5.689-.961 8.665s.339 5.873.961 8.665h-38.905c-4.142 0-7.5 3.358-7.5 7.5s3.358 7.5 7.5 7.5h45.762c2.299 3.101 5.035 5.858 8.119 8.178l-14.534 69.755h-78.044c-12.182 0-22.809 7.812-26.442 19.44l-4.027 12.887h-19.584c-12.357 0-23.324 8.306-26.669 20.198l-39.785 141.344c-1.368 4.898-1.368 10.077.003 14.987l39.78 141.521c3.347 11.894 14.314 20.2 26.671 20.2h31.02c4.142 0 7.5-3.358 7.5-7.5s-3.358-7.5-7.5-7.5h-31.02c-5.667 0-10.697-3.808-12.23-9.259l-39.776-141.509c-.631-2.259-.631-4.646-.004-6.89l39.78-141.331c1.534-5.453 6.563-9.261 12.23-9.261h213.67c4.142 0 7.5-3.358 7.5-7.5s-3.358-7.5-7.5-7.5h-178.372l2.629-8.413c1.666-5.332 6.539-8.914 12.125-8.914h232.936c5.586 0 10.459 3.583 12.125 8.915l2.629 8.413h-49.072c-4.142 0-7.5 3.358-7.5 7.5s3.358 7.5 7.5 7.5h84.37c5.667 0 10.696 3.808 12.23 9.261l39.776 141.407c.632 2.262.632 4.647.004 6.892l-39.78 141.43c-1.534 5.453-6.563 9.261-12.23 9.261h-267.02c-4.142 0-7.5 3.358-7.5 7.5s3.358 7.5 7.5 7.5h267.02c12.357 0 23.324-8.306 26.67-20.199l39.782-141.438c1.371-4.895 1.372-10.075-.002-14.994l-39.78-141.42c-3.346-11.893-14.312-20.199-26.67-20.199h-19.583l-4.027-12.887c-3.634-11.628-14.26-19.44-26.442-19.44h-78.044l-14.534-69.755c3.085-2.32 5.822-5.078 8.121-8.18h113.352c6.323 0 12.264-2.459 16.728-6.924 2.64-2.64 4.574-5.796 5.72-9.238h80.69c4.142 0 7.5-3.358 7.5-7.5s-3.359-7.503-7.501-7.503zm-248.5-17.325c13.688 0 24.825 11.137 24.825 24.825s-11.137 24.825-24.825 24.825-24.825-11.137-24.825-24.825 11.137-24.825 24.825-24.825zm23.101 126.423h-46.203l13.134-63.036c3.187.824 6.527 1.263 9.967 1.263s6.781-.439 9.967-1.263zm122.261-92.935h-106.497c.622-2.791.96-5.687.96-8.663s-.338-5.872-.96-8.663h106.497c4.76 0 8.634 3.86 8.66 8.614 0 .016-.002.032-.002.048 0 .017.002.033.003.049-.013 2.297-.912 4.456-2.539 6.083-1.632 1.633-3.806 2.532-6.122 2.532z"/><path d="m310.549 479.675c9.706 0 17.602-7.896 17.602-17.602v-238.398c0-9.706-7.896-17.602-17.602-17.602h-109.098c-9.706 0-17.602 7.896-17.602 17.602v238.398c0 9.706 7.896 17.602 17.602 17.602zm-111.699-129.295h114.3v17.325h-114.3zm114.3-126.705v111.705h-49.65v-114.307h47.049c1.434 0 2.601 1.167 2.601 2.602zm-114.3 0c0-1.435 1.167-2.602 2.602-2.602h47.048v114.307h-49.65zm0 238.398v-79.368h114.3v79.368c0 1.435-1.167 2.602-2.602 2.602h-109.097c-1.434 0-2.601-1.167-2.601-2.602z"/><path d="m359.037 348.414h75.039c4.831 0 9.307-2.184 12.281-5.992s4.007-8.681 2.835-13.368l-27.795-111.177c-1.736-6.95-7.953-11.803-15.116-11.803h-47.244c-8.592 0-15.582 6.99-15.582 15.581v111.178c0 8.591 6.99 15.581 15.582 15.581zm-.582-126.76c0-.32.261-.581.582-.581h47.244c.267 0 .499.181.564.44l27.795 111.178c.019.075.069.275-.105.499s-.38.224-.458.224h-75.039c-.321 0-.582-.261-.582-.582v-111.178z"/><path d="m350.955 380.739h83.369c4.142 0 7.5-3.358 7.5-7.5s-3.358-7.5-7.5-7.5h-83.369c-4.142 0-7.5 3.358-7.5 7.5s3.358 7.5 7.5 7.5z"/><path d="m77.676 380.739h83.369c4.142 0 7.5-3.358 7.5-7.5s-3.358-7.5-7.5-7.5h-83.369c-4.142 0-7.5 3.358-7.5 7.5s3.358 7.5 7.5 7.5z"/><path d="m152.963 348.414c8.592 0 15.582-6.99 15.582-15.582v-111.178c0-8.591-6.99-15.581-15.582-15.581h-47.243c-7.164 0-13.38 4.854-15.116 11.802l-27.796 111.179c-1.171 4.688-.138 9.56 2.835 13.368s7.45 5.992 12.281 5.992zm-75.603-15.723 27.796-111.179c.064-.258.296-.439.563-.439h47.244c.321 0 .582.261.582.581v111.178c0 .321-.261.582-.582.582h-75.039c-.078 0-.283 0-.458-.224s-.124-.423-.106-.499z"/><circle cx="256" cy="39.825" r="8.081"/></g></g></svg>