<svg id="Capa_1" enable-background="new 0 0 512 512" height="512" viewBox="0 0 512 512" width="512" xmlns="http://www.w3.org/2000/svg"><g><path d="m189.522 143.845c-4.109-.338-7.712 2.73-8.044 6.841l-1.625 20.112c-.332 4.111 2.731 7.712 6.841 8.044.205.016.408.024.61.024 3.851 0 7.119-2.959 7.434-6.865l1.625-20.112c.332-4.11-2.73-7.711-6.841-8.044z"/><path d="m193.746 93.87c-4.109-.331-7.712 2.731-8.215 6.671l-.802 9.924c-.161 4.281 2.902 7.883 7.012 8.214.205.017.408.024.61.024 3.851 0 7.119-2.96 7.434-6.866l.802-9.924c.332-4.109-2.731-7.711-6.841-8.043z"/><path d="m330.522 150.686c-.333-4.11-3.911-7.178-8.044-6.841-4.111.333-7.173 3.934-6.841 8.044l1.626 20.112c.316 3.906 3.583 6.865 7.435 6.865.201 0 .404-.008.61-.024 4.11-.333 7.173-3.934 6.841-8.044z"/><path d="m320.43 118.508c4.11-.333 7.173-3.934 6.841-8.044l-.802-9.924c-.333-4.11-3.912-7.161-8.045-6.841-4.11.333-7.173 3.934-6.841 8.044l.802 9.924c.316 3.906 3.583 6.865 7.435 6.865.202.001.405-.007.61-.024z"/><path d="m157.267 452.529-.802 9.923c-.333 4.111 2.731 7.712 6.841 8.044.205.017.408.024.61.024 3.851 0 7.119-2.96 7.434-6.865l.802-9.923c.332-4.111-2.731-7.712-6.841-8.044-4.122-.322-7.711 2.73-8.044 6.841z"/><path d="m162.144 392.194-1.626 20.111c-.333 4.111 2.731 7.712 6.841 8.044.205.016.408.024.61.024 3.851 0 7.119-2.959 7.434-6.865l1.626-20.111c.332-4.111-2.731-7.712-6.841-8.044-4.116-.32-7.712 2.731-8.044 6.841z"/><path d="m172.845 360.04c3.851 0 7.119-2.959 7.434-6.865l1.626-20.111c.333-4.111-2.731-7.712-6.841-8.044-4.119-.321-7.712 2.73-8.044 6.841l-1.626 20.111c-.333 4.111 2.731 7.712 6.841 8.044.205.016.408.024.61.024z"/><path d="m355.075 452.529c-.333-4.11-3.905-7.161-8.044-6.841-4.111.333-7.173 3.934-6.841 8.044l.802 9.923c.316 3.906 3.583 6.865 7.435 6.865.201 0 .404-.008.609-.024 4.111-.333 7.173-3.934 6.841-8.044z"/><path d="m339.936 359.845c4.111-.333 7.173-3.934 6.841-8.044l-1.625-20.111c-.333-4.109-3.913-7.171-8.044-6.841-4.111.333-7.173 3.934-6.841 8.044l1.625 20.111c.316 3.906 3.583 6.865 7.435 6.865.201 0 .404-.008.609-.024z"/><path d="m344.983 420.35c4.111-.333 7.173-3.934 6.67-8.215l-1.626-20.111c-.162-3.938-3.742-7.005-7.874-6.67-4.111.333-7.173 3.934-6.841 8.044l1.626 20.111c.316 3.906 3.583 6.865 7.435 6.865.201 0 .405-.008.61-.024z"/><path d="m499.302 195.386h-106.783l-18.09-127.433h59.106c7.001 0 12.697-5.696 12.697-12.697v-41.565c0-7.001-5.696-12.697-12.697-12.697h-355.073c-7.001 0-12.697 5.695-12.697 12.697v41.565c0 7.001 5.696 12.697 12.697 12.697h59.11l-18.09 127.433h-106.785c-7.001 0-12.697 5.696-12.697 12.697v60.592c0 7.001 5.696 12.698 12.697 12.698h13.434v66.865c0 5.627 4.578 10.206 10.206 10.206h33.321c5.627 0 10.206-4.579 10.206-10.206v-66.865h27.411l-31.389 221.116c-.304 2.142.336 4.31 1.754 5.944s3.475 2.573 5.639 2.573h25.356c4.124 0 7.467-3.343 7.467-7.467 0-4.125-3.343-7.467-7.467-7.467h-16.754l30.478-214.698h48.557l-.816 10.093c-.333 4.111 2.731 7.712 6.841 8.045.205.016.408.024.61.024 3.851 0 7.119-2.959 7.434-6.865l.913-11.297h43.954v214.698h-87.031c-4.124 0-7.467 3.343-7.467 7.467s3.343 7.467 7.467 7.467h94.497c4.124 0 7.467-3.343 7.467-7.467v-222.166h22.428v222.166c0 4.124 3.343 7.467 7.467 7.467h154.041c2.163 0 4.22-.938 5.639-2.573 1.418-1.634 2.058-3.802 1.754-5.944l-31.389-221.116h27.411v66.865c0 5.627 4.578 10.206 10.206 10.206h33.321c5.627 0 10.206-4.579 10.206-10.206v-66.865h13.434c7.001 0 12.698-5.697 12.698-12.698v-60.592c-.001-7.001-5.698-12.697-12.699-12.697zm-121.867 0h-95.287v-48.031c0-4.124-3.343-7.467-7.467-7.467s-7.467 3.343-7.467 7.467v48.031h-22.428v-127.433h22.428v44.439c0 4.124 3.343 7.467 7.467 7.467s7.467-3.343 7.467-7.467v-44.439h77.197zm-296.737-142.367v-37.091h350.6v37.091zm71.957 14.934h77.197v127.433h-95.287zm267.465 428.119h-137.972v-214.699h43.954l.913 11.296c.315 3.906 3.583 6.866 7.435 6.866.201 0 .404-.008.609-.024 4.111-.332 7.174-3.934 6.842-8.044l-.815-10.094h48.557zm76.946-229.633h-18.665c-4.124 0-7.467 3.343-7.467 7.467v69.604h-23.864v-69.604c0-4.124-3.343-7.467-7.467-7.467h-367.206c-4.124 0-7.467 3.343-7.467 7.467v69.604h-23.865v-69.604c0-4.124-3.343-7.467-7.467-7.467h-18.664v-56.12h482.132z"/></g></svg>