<svg id="Capa_1" enable-background="new 0 0 512 512" height="512" viewBox="0 0 512 512" width="512" xmlns="http://www.w3.org/2000/svg"><path d="m39.391 252.911c0 14.824 12.061 26.885 26.885 26.885h65.366c14.824 0 26.885-12.061 26.885-26.885v-61.406c0-14.824-12.061-26.884-26.885-26.884h-65.367c-14.824 0-26.885 12.06-26.885 26.884v61.406zm15-61.406c0-6.553 5.331-11.884 11.885-11.884h65.366c6.554 0 11.885 5.331 11.885 11.884v61.406c0 6.553-5.331 11.885-11.885 11.885h-65.367c-6.554 0-11.885-5.332-11.885-11.885v-61.406z"/><path d="m170.105 191.505v61.406c0 14.824 12.061 26.885 26.885 26.885h65.366c14.824 0 26.885-12.061 26.885-26.885v-61.406c0-14.824-12.061-26.884-26.885-26.884h-65.366c-14.825 0-26.885 12.06-26.885 26.884zm104.135 0v61.406c0 6.553-5.331 11.885-11.885 11.885h-65.366c-6.554 0-11.885-5.332-11.885-11.885v-61.406c0-6.553 5.331-11.884 11.885-11.884h65.366c6.554 0 11.885 5.331 11.885 11.884z"/><path d="m39.71 342.522c0 16.866 13.722 30.587 30.588 30.587 16.865 0 30.587-13.722 30.587-30.587 0-16.866-13.722-30.588-30.587-30.588-16.866 0-30.588 13.722-30.588 30.588zm46.175 0c0 8.595-6.992 15.587-15.587 15.587s-15.588-6.993-15.588-15.587c0-8.595 6.993-15.588 15.588-15.588s15.587 6.993 15.587 15.588z"/><path d="m258.333 311.934c-16.865 0-30.587 13.722-30.587 30.588s13.722 30.587 30.587 30.587c16.866 0 30.588-13.722 30.588-30.587 0-16.866-13.722-30.588-30.588-30.588zm0 46.175c-8.595 0-15.587-6.993-15.587-15.587 0-8.595 6.992-15.588 15.587-15.588s15.588 6.993 15.588 15.588-6.993 15.587-15.588 15.587z"/><path d="m288.158 141.059c0-9.877-8.035-17.912-17.912-17.912s-17.912 8.035-17.912 17.912 8.035 17.912 17.912 17.912 17.912-8.035 17.912-17.912zm-20.824 0c0-1.606 1.307-2.912 2.912-2.912s2.912 1.306 2.912 2.912-1.307 2.912-2.912 2.912-2.912-1.306-2.912-2.912z"/><path d="m76.297 141.059c0-9.877-8.035-17.912-17.912-17.912s-17.912 8.035-17.912 17.912 8.035 17.912 17.912 17.912 17.912-8.035 17.912-17.912zm-20.824 0c0-1.606 1.307-2.912 2.912-2.912s2.912 1.306 2.912 2.912-1.307 2.912-2.912 2.912-2.912-1.306-2.912-2.912z"/><path d="m192.946 123.147h-57.262c-10.396 0-18.854 8.458-18.854 18.854s8.458 18.854 18.854 18.854h57.262c10.396 0 18.854-8.458 18.854-18.854s-8.458-18.854-18.854-18.854zm0 22.707h-57.262c-2.125 0-3.854-1.729-3.854-3.854s1.729-3.854 3.854-3.854h57.262c2.125 0 3.854 1.729 3.854 3.854s-1.729 3.854-3.854 3.854z"/><path d="m210.714 300.051h-92.803c-4.143 0-7.5 3.358-7.5 7.5s3.357 7.5 7.5 7.5h92.803c4.143 0 7.5-3.358 7.5-7.5s-3.358-7.5-7.5-7.5z"/><path d="m210.714 322.273h-92.803c-4.143 0-7.5 3.358-7.5 7.5s3.357 7.5 7.5 7.5h92.803c4.143 0 7.5-3.358 7.5-7.5s-3.358-7.5-7.5-7.5z"/><path d="m504.5 0h-150.8c-16.081 0-29.164 13.083-29.164 29.165v.566c0 16.082 13.083 29.165 29.164 29.165h22.095v48.465h-5.498c-14.204 0-25.761 11.557-25.761 25.761v29.986c0 14.205 11.557 25.761 25.761 25.761h80.532c14.204 0 25.761-11.557 25.761-25.761v-29.986c0-14.205-11.557-25.761-25.761-25.761h-5.498v-48.465h51.669v345.449h-122.066c-4.143 0-7.5 3.358-7.5 7.5s3.357 7.5 7.5 7.5h122.066v77.655h-168.369v-77.656h16.303c4.143 0 7.5-3.358 7.5-7.5s-3.357-7.5-7.5-7.5h-23.803c-4.143 0-7.5 3.358-7.5 7.5v67.202l-36.242-56.16c20.103-5.556 34.912-23.998 34.912-45.844v-227.498c0-26.228-21.338-47.566-47.566-47.566h-19.879l-1.894-13.971c-1.23-9.129-9.106-16.013-18.321-16.013h-120.649c-9.216 0-17.092 6.885-18.319 16.007l-1.896 13.977h-19.88c-26.229 0-47.566 21.338-47.566 47.566v50.243c0 4.142 3.357 7.5 7.5 7.5s7.5-3.358 7.5-7.5v-50.243c0-17.957 14.609-32.566 32.566-32.566h174.344c.018 0 .035.002.053.002.012 0 .024-.002.036-.002h26.404c17.957 0 32.566 14.609 32.566 32.566v227.498c0 17.957-14.609 32.566-32.566 32.566h-45.09l-4.001-23.508c-1.796-10.571-10.886-18.244-21.613-18.244h-59.429c-10.72 0-19.812 7.669-21.619 18.241l-4.002 23.511h-45.083c-17.957 0-32.566-14.609-32.566-32.566v-147.255c0-4.142-3.357-7.5-7.5-7.5s-7.5 3.358-7.5 7.5v147.255c0 21.846 14.809 40.288 34.912 45.844l-50.045 77.547c-1.489 2.308-1.598 5.244-.284 7.655 1.314 2.412 3.84 3.912 6.586 3.912h57.737c3.151 0 5.968-1.971 7.047-4.932l6.424-17.627h171.214l6.424 17.627c1.079 2.961 3.896 4.932 7.047 4.932h241.107c4.143 0 7.5-3.358 7.5-7.5v-92.656-360.448-43.896c0-4.142-3.357-7.5-7.5-7.5zm-403.963 90.01c.231-1.719 1.717-3.016 3.455-3.016h120.648c1.738 0 3.224 1.297 3.457 3.023l1.622 11.961h-130.805zm125.756 334.598 6.97 19.125h-137.896l6.97-19.125zm-98.524-35.988c.571-3.34 3.444-5.764 6.833-5.764h59.429c3.388 0 6.258 2.421 6.825 5.759l3.573 20.993h-80.233zm-67.781 108.38h-38.722l46.717-72.392h18.39zm24.187-22.559 5.725-15.708h148.83l5.725 15.708zm184.468 22.559-26.384-72.392h18.39l46.716 72.392zm70.893-467.269v-.566c0-7.811 6.354-14.165 14.164-14.165h143.3v28.896h-143.3c-7.81 0-14.164-6.354-14.164-14.165zm122.054 103.391v29.986c0 5.934-4.827 10.761-10.761 10.761h-80.532c-5.934 0-10.761-4.828-10.761-10.761v-29.986c0-5.934 4.827-10.761 10.761-10.761h80.532c5.934 0 10.761 4.827 10.761 10.761zm-31.259-25.761h-39.536v-48.465h39.536z"/></svg>