<svg id="Line" viewBox="0 0 96 96" xmlns="http://www.w3.org/2000/svg"><path d="m89 35c1.1 0 2-.9 2-2v-4c0-1.1-.9-2-2-2h-18v-3c1.1 0 2-.9 2-2v-4c0-1.1-.9-2-2-2h-.76l-21.79-10.9c-.28-.14-.61-.14-.89 0l-21.79 10.9h-.76c-1.1 0-2 .9-2 2v4c0 1.1.9 2 2 2v3h-18.01c-1.1 0-2 .9-2 2v4c0 1.1.9 2 2 2v29h-1c-.55 0-1 .45-1 1s.45 1 1 1h19.48c2.65 0 5.19.71 7.39 2h-2.87c-.55 0-1 .45-1 1v6c0 .55.45 1 1 1h9.93l.32.49c.59.91.63 2.03.11 2.98-.52.96-1.48 1.53-2.57 1.53h-31.79c-.55 0-1 .45-1 1s.45 1 1 1h2.1c.15.74.48 1.42.92 2h-2.03c-1.1 0-2 .9-2 2v2c0 1.1.9 2 2 2h82c1.1 0 2-.9 2-2v-2c0-1.1-.9-2-2-2h-52.03c.44-.59.77-1.26.93-2.01 1.79-.04 3.36-.99 4.21-2.56.59-1.08.74-2.29.48-3.43h45.41c.55 0 1-.45 1-1v-20.5c0-.55-.45-1-1-1s-1 .45-1 1v19.5h-16v-40h16v11.5c0 .55.45 1 1 1s1-.45 1-1v-11.5zm-68.82 48h5.63c-.41 1.16-1.51 2-2.82 2s-2.4-.84-2.82-2zm-1.16 2h-2.05c.44-.58.77-1.26.92-2h.2c.15.74.48 1.42.92 2zm8.87-2h.2c.15.74.48 1.42.92 2h-2.05c.44-.58.77-1.26.92-2zm-17.71 0h5.63c-.41 1.16-1.51 2-2.82 2s-2.4-.84-2.82-2zm78.82 6h-82v-2h82zm-58.82-6h5.63c-.41 1.16-1.51 2-2.82 2s-2.4-.84-2.82-2zm17.82-75.88 17.76 8.88h-35.53l17.76-8.88zm-23 10.88h46v4s-46 0-46 0zm44 6v51h-8v-27c0-.55-.45-1-1-1h-24c-.55 0-1 .45-1 1v18.98c-2.34-1.63-5.09-2.64-8-2.91v-40.07zm-62 5h18v4h-18zm2 6h16v29h-16zm22 39v-4h4.54c.84.8 1.6 1.7 2.24 2.69l.85 1.31zm8.47-2.39c-.71-1.1-1.55-2.1-2.47-2.98v-19.63h10v26h-5.34l-2.2-3.39zm9.53 3.39v-26h10v26zm22-42v-4h18v4zm18 17.1v1.8c0 .55-.45 1-1 1s-1-.45-1-1v-1.8c0-.55.45-1 1-1s1 .45 1 1zm-41-6.1c4.41 0 8-3.59 8-8s-3.59-8-8-8-8 3.59-8 8 3.59 8 8 8zm0-14c3.31 0 6 2.69 6 6s-2.69 6-6 6-6-2.69-6-6 2.69-6 6-6zm-1 6v-3c0-.55.45-1 1-1s1 .45 1 1v2h.7c.55 0 1 .45 1 1s-.45 1-1 1h-1.7c-.55 0-1-.45-1-1zm28.25 10h7.5c.55 0 1-.45 1-1v-6c0-.55-.45-1-1-1h-7.5c-.55 0-1 .45-1 1v6c0 .55.45 1 1 1zm1-6h5.5v4h-5.5zm-2 18c0 .55.45 1 1 1h7.5c.55 0 1-.45 1-1v-6c0-.55-.45-1-1-1h-7.5c-.55 0-1 .45-1 1zm2-5h5.5v4h-5.5zm-2.25 18.2c0 .55.45 1 1 1h8c.55 0 1-.45 1-1v-6.4c0-.55-.45-1-1-1h-8c-.55 0-1 .45-1 1zm2-5.4h6v4.4h-6zm-55.25-27.8h-7.5c-.55 0-1 .45-1 1v6c0 .55.45 1 1 1h7.5c.55 0 1-.45 1-1v-6c0-.55-.45-1-1-1zm-1 6h-5.5v-4h5.5zm1 7h-7.5c-.55 0-1 .45-1 1v6c0 .55.45 1 1 1h7.5c.55 0 1-.45 1-1v-6c0-.55-.45-1-1-1zm-1 6h-5.5v-4h5.5zm5.25 19c.55 0 1-.45 1-1v-6c0-.55-.45-1-1-1h-8c-.55 0-1 .45-1 1v6c0 .55.45 1 1 1zm-7-6h6v4h-6zm-7 4v-4h-5c-.55 0-1-.45-1-1s.45-1 1-1h6c.55 0 1 .45 1 1v6c0 .55-.45 1-1 1h-6c-.55 0-1-.45-1-1s.45-1 1-1z"/></svg>