<svg id="_x3C_Layer_x3E_" height="512" viewBox="0 0 32 32" width="512" xmlns="http://www.w3.org/2000/svg"><g id="trolleybus_x2C__transport"><g id="XMLID_2179_"><g id="XMLID_2180_"><path id="XMLID_1927_" d="m15 20h-5c-.561 0-1-.439-1-1v-5c0-.561.439-1 1-1h5c.561 0 1 .439 1 1v5c0 .561-.439 1-1 1zm-5-6v5h5v-5z" fill="rgb(0,0,0)"/></g><g id="XMLID_2181_"><path id="XMLID_1924_" d="m30.5 21h-4c-.827 0-1.5-.673-1.5-1.5v-5c0-.827.673-1.5 1.5-1.5h4c.276 0 .5.224.5.5v7c0 .276-.224.5-.5.5zm-4-7c-.275 0-.5.225-.5.5v5c0 .275.225.5.5.5h3.5v-6z" fill="rgb(0,0,0)"/></g><g id="XMLID_2182_"><path id="XMLID_1921_" d="m23 20h-5c-.561 0-1-.439-1-1v-5c0-.561.439-1 1-1h5c.561 0 1 .439 1 1v5c0 .561-.439 1-1 1zm-5-6v5h5v-5z" fill="rgb(0,0,0)"/></g><g id="XMLID_2183_"><path id="XMLID_1920_" d="m30.5 4h-29c-.276 0-.5-.224-.5-.5s.224-.5.5-.5h29c.276 0 .5.224.5.5s-.224.5-.5.5z" fill="rgb(0,0,0)"/></g><g id="XMLID_2184_"><path id="XMLID_1919_" d="m16.5 29h-15c-.276 0-.5-.224-.5-.5s.224-.5.5-.5h15c.276 0 .5.224.5.5s-.224.5-.5.5z" fill="rgb(0,0,0)"/></g><g id="XMLID_2185_"><path id="XMLID_1918_" d="m1.5 29c-.276 0-.5-.224-.5-.5v-14c0-.827.673-1.5 1.5-1.5h.501c.276 0 .5.224.5.5s-.224.5-.5.5h-.501c-.275 0-.5.225-.5.5v14c0 .276-.224.5-.5.5z" fill="rgb(0,0,0)"/></g><g id="XMLID_2186_"><path id="XMLID_1917_" d="m7.5 29c-.276 0-.5-.224-.5-.5v-14c0-.275-.225-.5-.5-.5h-2c-.276 0-.5-.224-.5-.5s.224-.5.5-.5h2c.827 0 1.5.673 1.5 1.5v14c0 .276-.224.5-.5.5z" fill="rgb(0,0,0)"/></g><g id="XMLID_2187_"><path id="XMLID_1916_" d="m7.5 21h-3c-.276 0-.5-.224-.5-.5s.224-.5.5-.5h3c.276 0 .5.224.5.5s-.224.5-.5.5z" fill="rgb(0,0,0)"/></g><g id="XMLID_2188_"><path id="XMLID_1914_" d="m3 21h-1c-.276 0-.5-.224-.5-.5s.224-.5.5-.5h1c.276 0 .5.224.5.5s-.224.5-.5.5z" fill="rgb(0,0,0)"/></g><g id="XMLID_2189_"><path id="XMLID_1913_" d="m4.5 29c-.276 0-.5-.224-.5-.5v-15c0-.276.224-.5.5-.5s.5.224.5.5v15c0 .276-.224.5-.5.5z" fill="rgb(0,0,0)"/></g><g id="XMLID_2190_"><path id="XMLID_1912_" d="m29.5 29h-6c-.276 0-.5-.224-.5-.5s.224-.5.5-.5h6c.275 0 .5-.225.5-.5v-14c0-1.379-1.121-2.5-2.5-2.5h-26c-.276 0-.5-.224-.5-.5s.224-.5.5-.5h26c1.93 0 3.5 1.57 3.5 3.5v14c0 .827-.673 1.5-1.5 1.5z" fill="rgb(0,0,0)"/></g><g id="bus_x2C__transport_1_"><g id="XMLID_2192_"><g id="XMLID_2193_"><path id="XMLID_1911_" d="m21 31h-10.5c-.276 0-.5-.224-.5-.5s.224-.5.5-.5h10.5c.276 0 .5.224.5.5s-.224.5-.5.5z" fill="rgb(0,0,0)"/></g><g id="XMLID_2194_"><path id="XMLID_1910_" d="m8.6 31h-.1c-.276 0-.5-.224-.5-.5s.224-.5.5-.5.55.224.55.5-.174.5-.45.5z" fill="rgb(0,0,0)"/></g><g id="XMLID_2195_"><path id="XMLID_1907_" d="m21 31c-1.654 0-3-1.346-3-3s1.346-3 3-3 3 1.346 3 3-1.346 3-3 3zm0-5c-1.103 0-2 .897-2 2s.897 2 2 2 2-.897 2-2-.897-2-2-2z" fill="rgb(0,0,0)"/></g><g id="XMLID_2196_"><circle id="XMLID_1906_" cx="21" cy="28" fill="rgb(0,0,0)" r="1"/></g><g id="XMLID_2197_"><path id="XMLID_1905_" d="m8.6 31h-.1c-.276 0-.5-.224-.5-.5s.224-.5.5-.5.55.224.55.5-.174.5-.45.5z" fill="rgb(0,0,0)"/></g></g></g><g id="XMLID_2191_"><path id="XMLID_1902_" d="m19 11c-.078 0-.157-.019-.231-.057l-10.45-5.451c-.245-.128-.34-.43-.212-.675s.431-.336.675-.212l10.449 5.451c.245.128.34.43.212.675-.089.171-.263.269-.443.269z" fill="rgb(0,0,0)"/></g><g id="XMLID_2198_"><path id="XMLID_1899_" d="m12.135 9.505c-.078 0-.157-.019-.231-.057l-7.62-3.974c-.245-.128-.34-.43-.212-.675s.432-.337.675-.212l7.619 3.975c.245.128.34.43.212.675-.089.17-.264.268-.443.268z" fill="rgb(0,0,0)"/></g><g id="XMLID_2199_"><path id="XMLID_1879_" d="m30.5 27h-2c-.276 0-.5-.224-.5-.5v-2c0-.276.224-.5.5-.5h2c.276 0 .5.224.5.5v2c0 .276-.224.5-.5.5zm-1.5-1h1v-1h-1z" fill="rgb(0,0,0)"/></g></g></g></svg>