<?xml version="1.0" encoding="UTF-8"?>
<svg xmlns="http://www.w3.org/2000/svg" id="_1" data-name="#1" viewBox="0 0 24 24" width="512" height="512"><path d="M21,10.75a.25.25,0,0,0,0,.5A1.7522,1.7522,0,0,1,22.75,13v3.75H22a2.2529,2.2529,0,0,0-1.5215.5913.7233.7233,0,0,1-.957,0,2.31,2.31,0,0,0-3.043,0,.7233.7233,0,0,1-.957,0A2.2529,2.2529,0,0,0,14,16.75a.25.25,0,0,0,0,.5,1.7553,1.7553,0,0,1,1.1846.46,1.2321,1.2321,0,0,0,1.6308,0,1.7984,1.7984,0,0,1,2.3692,0,1.2327,1.2327,0,0,0,1.6308,0A1.7553,1.7553,0,0,1,22,17.25h.75v1.5H22a2.2529,2.2529,0,0,0-1.5215.5913.7233.7233,0,0,1-.957,0,2.31,2.31,0,0,0-3.043,0,.7233.7233,0,0,1-.957,0,2.31,2.31,0,0,0-3.043,0,.7233.7233,0,0,1-.957,0,2.31,2.31,0,0,0-3.043,0,.7233.7233,0,0,1-.957,0,2.31,2.31,0,0,0-3.043,0,.7233.7233,0,0,1-.957,0A2.2529,2.2529,0,0,0,2,18.75H1.25v-1.5H2a1.7553,1.7553,0,0,1,1.1846.46,1.2321,1.2321,0,0,0,1.6308,0,1.7984,1.7984,0,0,1,2.3692,0,1.2327,1.2327,0,0,0,1.6308,0,1.7984,1.7984,0,0,1,2.3692,0,1.2321,1.2321,0,0,0,1.6308,0,1.8354,1.8354,0,0,1,.31-.2265.25.25,0,0,0-.25-.4326,2.27,2.27,0,0,0-.3965.29.7233.7233,0,0,1-.957,0,2.2183,2.2183,0,0,0-1.2715-.55V11.25H20a.25.25,0,0,0,0-.5H10.25V10a1.25,1.25,0,0,0-2.5,0v.75H6.25V10a1.25,1.25,0,0,0-2.5,0v.75H3A2.2525,2.2525,0,0,0,.75,13v8A2.2525,2.2525,0,0,0,3,23.25H6a.25.25,0,0,0,0-.5H3a1.7473,1.7473,0,0,1-1.7247-1.5H2a1.7553,1.7553,0,0,1,1.1846.46,1.2321,1.2321,0,0,0,1.6308,0,1.7984,1.7984,0,0,1,2.3692,0,1.2321,1.2321,0,0,0,1.6308,0,1.7984,1.7984,0,0,1,2.3692,0,1.2321,1.2321,0,0,0,1.6308,0,1.7984,1.7984,0,0,1,2.3692,0,1.2321,1.2321,0,0,0,1.6308,0,1.7984,1.7984,0,0,1,2.3692,0,1.2327,1.2327,0,0,0,1.6308,0A1.7553,1.7553,0,0,1,22,21.25h.7247A1.7473,1.7473,0,0,1,21,22.75H7a.25.25,0,0,0,0,.5H21A2.2525,2.2525,0,0,0,23.25,21V13A2.2525,2.2525,0,0,0,21,10.75Zm-11.25,4H6.25v-1.5h3.5ZM8.4785,17.3413a.7233.7233,0,0,1-.957,0,2.2183,2.2183,0,0,0-1.2715-.55V15.25h3.5v1.541A2.2183,2.2183,0,0,0,8.4785,17.3413ZM8.25,10a.75.75,0,0,1,1.5,0v.75H8.25Zm1.5,1.25v1.5H6.25v-1.5ZM4.25,10a.75.75,0,0,1,1.5,0v.75H4.25ZM3,11.25H5.75v5.541a2.2183,2.2183,0,0,0-1.2715.55.7233.7233,0,0,1-.957,0A2.2529,2.2529,0,0,0,2,16.75H1.25V13A1.7522,1.7522,0,0,1,3,11.25ZM20.4785,21.3413a.7233.7233,0,0,1-.957,0,2.31,2.31,0,0,0-3.043,0,.7233.7233,0,0,1-.957,0,2.31,2.31,0,0,0-3.043,0,.7233.7233,0,0,1-.957,0,2.31,2.31,0,0,0-3.043,0,.7233.7233,0,0,1-.957,0,2.31,2.31,0,0,0-3.043,0,.7233.7233,0,0,1-.957,0A2.2529,2.2529,0,0,0,2,20.75H1.25v-1.5H2a1.7553,1.7553,0,0,1,1.1846.46,1.2321,1.2321,0,0,0,1.6308,0,1.7984,1.7984,0,0,1,2.3692,0,1.2321,1.2321,0,0,0,1.6308,0,1.7984,1.7984,0,0,1,2.3692,0,1.2321,1.2321,0,0,0,1.6308,0,1.7984,1.7984,0,0,1,2.3692,0,1.2321,1.2321,0,0,0,1.6308,0,1.7984,1.7984,0,0,1,2.3692,0,1.2327,1.2327,0,0,0,1.6308,0A1.7553,1.7553,0,0,1,22,19.25h.75v1.5H22A2.2529,2.2529,0,0,0,20.4785,21.3413Z"/><path d="M16.8231,3.1766a.25.25,0,1,0,.3535-.3535l-1-1a.25.25,0,0,0-.3536.3536Z"/><path d="M16.8231,6.8234l-1,1a.25.25,0,0,0,.3536.3536l1-1a.25.25,0,1,0-.3535-.3535Z"/><path d="M20.8234,6.8234a.25.25,0,0,0,0,.3535l1,1a.25.25,0,0,0,.3536-.3536l-1-1A.25.25,0,0,0,20.8234,6.8234Z"/><path d="M21.1769,3.1766l1-1a.25.25,0,0,0-.3536-.3536l-1,1a.25.25,0,1,0,.3535.3535Z"/><path d="M15,5.25h1.7753A2.2384,2.2384,0,0,0,18.75,7.2247V9a.25.25,0,0,0,.5,0V7.2247A2.2384,2.2384,0,0,0,21.2247,5.25H23a.25.25,0,0,0,0-.5H21.2247A2.2384,2.2384,0,0,0,19.25,2.7753V1a.25.25,0,0,0-.5,0V2.7753A2.2384,2.2384,0,0,0,16.7753,4.75H15a.25.25,0,0,0,0,.5Zm4-2A1.75,1.75,0,1,1,17.25,5,1.7522,1.7522,0,0,1,19,3.25Z"/></svg>
