<svg enable-background="new 0 0 128 128" viewBox="0 0 128 128" xmlns="http://www.w3.org/2000/svg"><g id="Layer_1" display="none"><g id="XMLID_694_" display="inline" fill="none" stroke="#000" stroke-miterlimit="10" stroke-width=".1"><path id="XMLID_757_" d="m0 0h128v128h-128z"/><path id="XMLID_756_" d="m0 124h128"/><path id="XMLID_755_" d="m0 120h128"/><path id="XMLID_754_" d="m0 116h128"/><path id="XMLID_753_" d="m0 112h128"/><path id="XMLID_752_" d="m0 108h128"/><path id="XMLID_751_" d="m0 104h128"/><path id="XMLID_750_" d="m0 100h128"/><path id="XMLID_749_" d="m0 96h128"/><path id="XMLID_748_" d="m0 92h128"/><path id="XMLID_747_" d="m0 88h128"/><path id="XMLID_746_" d="m0 84h128"/><path id="XMLID_745_" d="m0 80h128"/><path id="XMLID_744_" d="m0 76h128"/><path id="XMLID_743_" d="m0 72h128"/><path id="XMLID_742_" d="m0 68h128"/><path id="XMLID_741_" d="m0 64h128"/><path id="XMLID_740_" d="m0 60h128"/><path id="XMLID_739_" d="m0 56h128"/><path id="XMLID_738_" d="m0 52h128"/><path id="XMLID_737_" d="m0 48h128"/><path id="XMLID_736_" d="m0 44h128"/><path id="XMLID_735_" d="m0 40h128"/><path id="XMLID_734_" d="m0 36h128"/><path id="XMLID_733_" d="m0 32h128"/><path id="XMLID_732_" d="m0 28h128"/><path id="XMLID_731_" d="m0 24h128"/><path id="XMLID_730_" d="m0 20h128"/><path id="XMLID_729_" d="m0 16h128"/><path id="XMLID_728_" d="m0 12h128"/><path id="XMLID_727_" d="m0 8h128"/><path id="XMLID_726_" d="m0 4h128"/><path id="XMLID_725_" d="m124 0v128"/><path id="XMLID_724_" d="m120 0v128"/><path id="XMLID_723_" d="m116 0v128"/><path id="XMLID_722_" d="m112 0v128"/><path id="XMLID_721_" d="m108 0v128"/><path id="XMLID_720_" d="m104 0v128"/><path id="XMLID_719_" d="m100 0v128"/><path id="XMLID_718_" d="m96 0v128"/><path id="XMLID_717_" d="m92 0v128"/><path id="XMLID_716_" d="m88 0v128"/><path id="XMLID_715_" d="m84 0v128"/><path id="XMLID_714_" d="m80 0v128"/><path id="XMLID_713_" d="m76 0v128"/><path id="XMLID_712_" d="m72 0v128"/><path id="XMLID_711_" d="m68 0v128"/><path id="XMLID_710_" d="m64 0v128"/><path id="XMLID_709_" d="m60 0v128"/><path id="XMLID_708_" d="m56 0v128"/><path id="XMLID_707_" d="m52 0v128"/><path id="XMLID_706_" d="m48 0v128"/><path id="XMLID_705_" d="m44 0v128"/><path id="XMLID_704_" d="m40 0v128"/><path id="XMLID_703_" d="m36 0v128"/><path id="XMLID_702_" d="m32 0v128"/><path id="XMLID_701_" d="m28 0v128"/><path id="XMLID_700_" d="m24 0v128"/><path id="XMLID_699_" d="m20 0v128"/><path id="XMLID_698_" d="m16 0v128"/><path id="XMLID_697_" d="m12 0v128"/><path id="XMLID_696_" d="m8 0v128"/><path id="XMLID_695_" d="m4 0v128"/></g></g><g id="Layer_2" display="none"/><g id="Layer_3"><g><path d="m22.1 113.5h41.2v-42h33.7v42h9.2v-42h3.4v-9.4h-1.9v-6h-16.2v-18.1l-16.8-9.8c-.1-.1-.2-.1-.3-.1l4-3.8-9.8-10.4-5 4.8c-.1 0-.3 0-.4 0-2.8-.1-5.5.9-7.5 2.9-.2.2-.4.4-.7.7l-.9 1 3.8 4c-.2.1-.3.1-.4.3-1 .9-1.5 2.1-1.5 3.4s.4 2.6 1.3 3.5c1 1 2.3 1.5 3.6 1.5 1.2 0 2.4-.4 3.4-1.3.1-.1.2-.3.3-.4l3.8 4 1.1-.8c.2-.2.5-.4.7-.6 1.7-1.6 2.8-3.7 3.2-6l15.3 8.9v16.4h-12.6v6h-57.8v9.4h3.8zm45.5-94.5 1-.9 5.7 6-1 .9-1.5-1.6c-.4-.6-.8-1.1-1.2-1.6-.5-.5-1-.9-1.5-1.3zm-5.4 13.4c-.8.7-2 .7-2.7-.1-.4-.3-.6-.8-.5-1.3 0-.5.2-1 .6-1.3.1-.1.2-.3.3-.4l2.7 2.9c-.2 0-.3.1-.4.2zm6.3 1.7-10.2-10.9c1.4-1.1 3.1-1.7 4.9-1.6 1.4 0 2.8.5 4 1.3l2.3 2.4c.7 1.2 1.1 2.6 1.1 4-.2 1.8-.9 3.5-2.1 4.8zm-8.1 62.2h-35.3v-10.6h35.2v10.6zm-35.3 14.2v-11.2h35.2v11.2zm35.3-27.8h-35.3v-11.2h35.2v11.2zm42.9 27.8h-3.3v-39h3.2v39zm-24.2-51.4h25.7v3h-25.7zm-57.8 9.4v-3.4h54.8 30.6v3.4h-.4-9.3-33.6-41.3z"/><path d="m39.2 77.7h7.1c.8 0 1.5-.7 1.5-1.5s-.7-1.5-1.5-1.5h-7.1c-.8 0-1.5.7-1.5 1.5s.7 1.5 1.5 1.5z"/><path d="m39.2 92.4h7.1c.8 0 1.5-.7 1.5-1.5s-.7-1.5-1.5-1.5h-7.1c-.8 0-1.5.7-1.5 1.5s.7 1.5 1.5 1.5z"/><path d="m46.3 103h-7.1c-.8 0-1.5.7-1.5 1.5s.7 1.5 1.5 1.5h7.1c.8 0 1.5-.7 1.5-1.5s-.7-1.5-1.5-1.5z"/></g></g></svg>