<svg enable-background="new 0 0 512 512" viewBox="0 0 512 512" xmlns="http://www.w3.org/2000/svg"><g id="_x32_9_Utility_Room"><g><path d="m55.248 317.293c-2.705 0-4.895-2.189-4.895-4.895v-46.121c0-2.705 2.189-4.895 4.895-4.895s4.895 2.189 4.895 4.895v46.121c0 2.706-2.19 4.895-4.895 4.895z"/><path d="m76.27 359.218c0 43.349 35.271 78.615 78.62 78.615s78.615-35.266 78.615-78.615-35.266-78.615-78.615-78.615-78.62 35.266-78.62 78.615zm147.446 0c0 37.953-30.874 68.826-68.826 68.826s-68.831-30.874-68.831-68.826 30.878-68.826 68.831-68.826 68.826 30.873 68.826 68.826z"/><path d="m100.662 359.218c0 29.898 24.325 54.224 54.228 54.224 29.898 0 54.223-24.325 54.223-54.224 0-29.903-24.325-54.228-54.223-54.228-29.903-.001-54.228 24.325-54.228 54.228zm98.662 0c0 24.502-19.932 44.434-44.434 44.434s-44.439-19.932-44.439-44.434 19.937-44.439 44.439-44.439 44.434 19.937 44.434 44.439z"/><path d="m61.247 210.949h-11.807c-2.705 0-4.895 2.189-4.895 4.895 0 2.705 2.189 4.895 4.895 4.895h11.806c2.705 0 4.895-2.189 4.895-4.895s-2.189-4.895-4.894-4.895z"/><path d="m89.573 210.949h-11.807c-2.705 0-4.895 2.189-4.895 4.895 0 2.705 2.189 4.895 4.895 4.895h11.806c2.705 0 4.895-2.189 4.895-4.895s-2.189-4.895-4.894-4.895z"/><path d="m117.898 210.949h-11.806c-2.705 0-4.895 2.189-4.895 4.895 0 2.705 2.189 4.895 4.895 4.895h11.806c2.705 0 4.895-2.189 4.895-4.895s-2.189-4.895-4.895-4.895z"/><path d="m500.732 471.732h-14.612v-135.3-24.033c0-149.081 0-96.229 0-263.293 0-10.272-8.355-18.627-18.627-18.627h-143.293c-10.272 0-18.627 8.355-18.627 18.627v422.627h-21.677c0-39.309 0-228.492 0-262.079 0-14.44-11.749-26.189-26.189-26.189-31.357 0-92.999 0-124.574 0 .686-1.743 1.094-3.627 1.094-5.612v-42.632c0-5.803-1.759-11.376-5.081-16.118l-10.073-14.388c2.324-1.573 3.854-4.233 3.854-7.246v-9.02c0-4.823-3.92-8.742-8.738-8.742h-26.686c-4.818 0-8.738 3.92-8.738 8.742v9.02c0 3.013 1.529 5.671 3.851 7.244l-10.07 14.385c-3.322 4.746-5.081 10.32-5.081 16.123v42.632c0 1.985.408 3.868 1.094 5.612h-16.49c-14.44 0-26.189 11.749-26.189 26.189v262.079h-14.612c-2.705 0-4.895 2.189-4.895 4.895 0 2.705 2.189 4.895 4.895 4.895h489.464c2.705 0 4.895-2.189 4.895-4.895s-2.189-4.896-4.895-4.896zm-412.178-382.236h24.583v6.926c-.677 0-25.364 0-24.583 0zm-11.299 45.725c0-3.781 1.142-7.414 3.312-10.506l12.949-18.503h14.655l12.954 18.508c2.17 3.088 3.312 6.721 3.312 10.501v42.632c0 3.093-2.519 5.612-5.612 5.612h-35.959c-3.093 0-5.612-2.519-5.612-5.612v-42.632zm-41.586 74.433c0-9.044 7.356-16.4 16.4-16.4h132.112v43.655h-148.512zm238.437 262.078h-238.437v-223.504h238.437zm0-234.823h-80.135v-43.655h63.736c9.044 0 16.4 7.356 16.4 16.4v27.255zm104.81 230.469c0 2.4-1.95 4.355-4.35 4.355h-31.648c-2.4 0-4.355-1.955-4.355-4.355v-37.518c0-3.203.97-6.286 2.811-8.91l11.223-16.037h12.289l11.223 16.041c1.835 2.615 2.806 5.698 2.806 8.905v37.519zm-30.405-72.253v-4.919h20.463v4.919c-.665 0-21.904 0-20.463 0zm104.618 72.253c0 2.4-1.955 4.355-4.355 4.355h-31.648c-2.4 0-4.35-1.955-4.35-4.355v-37.518c0-3.207.97-6.29 2.806-8.91l11.228-16.037h12.284l11.223 16.041c1.84 2.619 2.811 5.702 2.811 8.905v37.519zm-30.41-72.253v-4.919h20.463v4.919c-8.141 0-11.209 0-20.463 0zm53.612 76.607h-14.169c.451-1.38.756-2.826.756-4.355v-37.517c0-5.224-1.582-10.248-4.579-14.521l-8.556-12.225c1.926-1.518 3.188-3.843 3.188-6.479v-7.939c0-4.565-3.714-8.279-8.279-8.279h-23.484c-4.565 0-8.279 3.714-8.279 8.279v7.939c0 2.637 1.263 4.963 3.189 6.48l-8.557 12.219c-2.992 4.273-4.574 9.297-4.574 14.526v37.518c0 1.529.306 2.974.756 4.355h-15.795c.451-1.38.756-2.826.756-4.355v-37.518c0-5.229-1.582-10.253-4.574-14.521l-8.556-12.225c1.926-1.518 3.188-3.843 3.188-6.479v-7.939c0-4.565-3.714-8.279-8.279-8.279h-23.483c-4.565 0-8.279 3.714-8.279 8.279v7.939c0 2.636 1.262 4.962 3.188 6.479l-8.555 12.22c-2.997 4.278-4.579 9.302-4.579 14.526v37.518c0 1.529.306 2.974.756 4.355h-14.169v-130.407h160.969zm0-140.195h-160.969v-14.244h160.969zm-96.76-41.145h53.817c2.533 0 4.909 1.128 6.529 3.088 1.635 1.988 2.256 4.512 1.749 7.108-.755 3.848-4.56 6.749-8.852 6.749h-61.121c-12.041 0-21.839-9.799-21.839-21.844 0-12.041 9.799-21.84 21.839-21.84h60.963c4.842 0 8.958 3.595 9.173 8.016.115 2.366-.712 4.608-2.333 6.309-1.611 1.692-3.781 2.624-6.109 2.624h-53.817c-2.705 0-4.895 2.189-4.895 4.895s2.19 4.895 4.896 4.895zm96.76 17.112h-26.95c.859-1.559 1.54-3.231 1.894-5.038 0 0 0 0 0-.005 1.061-5.435-.325-10.975-3.8-15.205-.521-.626-1.075-1.214-1.659-1.764.263-.244.521-.502.77-.765 3.489-3.657 5.272-8.465 5.024-13.537-.478-9.718-8.8-17.327-18.952-17.327h-60.963c-17.442 0-31.629 14.192-31.629 31.634 0 8.552 3.424 16.308 8.957 22.007h-33.66v-127.041h160.969v127.041zm0-136.83h-160.969v-14.239h160.969zm-64.209-51.227h-53.817c-2.328 0-4.503-.932-6.114-2.624-1.616-1.702-2.443-3.939-2.328-6.305.215-4.421 4.331-8.016 9.173-8.016h60.963c12.041 0 21.839 9.799 21.839 21.839 0 12.045-9.799 21.844-21.839 21.844h-61.121c-4.292 0-8.097-2.901-8.852-6.749-.507-2.596.115-5.119 1.754-7.113 1.616-1.96 3.996-3.088 6.525-3.088h53.817c2.705 0 4.895-2.189 4.895-4.895s-2.19-4.893-4.895-4.893zm64.209 27.198h-33.927c5.696-5.724 9.224-13.608 9.224-22.303 0-17.442-14.187-31.629-31.629-31.629h-60.963c-10.153 0-18.474 7.61-18.952 17.327-.249 5.067 1.534 9.875 5.019 13.532.253.268.511.521.774.77-.583.545-1.138 1.133-1.654 1.764-3.48 4.225-4.866 9.77-3.805 15.205v.005c.376 1.917 1.099 3.694 2.041 5.33h-27.097v-97.54c0-4.876 3.963-8.838 8.838-8.838h143.293c4.876 0 8.838 3.963 8.838 8.838z"/></g></g><g id="Layer_1"/></svg>