<svg id="outline" height="512" viewBox="0 0 340 340" width="512" xmlns="http://www.w3.org/2000/svg"><path d="m15.889 248.059-.014.013a64.141 64.141 0 0 0 -5.654 8.213 15.909 15.909 0 0 0 1.213 17.769 14.718 14.718 0 0 0 5.216 4.112 15.858 15.858 0 0 0 -2.729 8.912v6.732a15.944 15.944 0 0 0 31.192 4.664 70.12 70.12 0 0 0 26.92 0 15.944 15.944 0 0 0 31.192-4.664v-6.732a15.858 15.858 0 0 0 -2.729-8.912 14.707 14.707 0 0 0 5.216-4.112 15.911 15.911 0 0 0 1.213-17.769 64.257 64.257 0 0 0 -5.654-8.213l-.011-.011a64.152 64.152 0 0 0 -18.271-15.561c7.455-5.7 12.155-13.949 12.155-23.12a26.687 26.687 0 0 0 -.2-3.226c5.183-.205 9.317-2.334 11.862-6.251a14.372 14.372 0 0 0 1.268-12.636 28.24 28.24 0 0 0 -12.113-14.758 14.778 14.778 0 0 0 -11.959-1.467 14.428 14.428 0 0 0 -8.874 7.73 24.127 24.127 0 0 0 -.973 2.492 42.364 42.364 0 0 0 -31.173 0 24.214 24.214 0 0 0 -.97-2.493 14.428 14.428 0 0 0 -8.874-7.73 14.777 14.777 0 0 0 -11.959 1.467 28.242 28.242 0 0 0 -12.11 14.76 14.374 14.374 0 0 0 1.268 12.637c2.532 3.9 6.678 6.035 11.863 6.246a26.58 26.58 0 0 0 -.2 3.231c0 9.172 4.7 17.426 12.157 23.121a64.136 64.136 0 0 0 -18.268 15.556zm.369 11.7c.886-1.541 1.82-2.958 2.637-4.123l8.508 8.7a53.432 53.432 0 0 0 -1.484 7.316 15.753 15.753 0 0 0 -3 1.1 8.268 8.268 0 0 1 -6.056-3.048 8.9 8.9 0 0 1 -.605-9.948zm22.59 34.054a8.982 8.982 0 1 1 -17.963 0v-6.732a8.982 8.982 0 1 1 17.963 0zm6.964-2.3v-4.431a15.966 15.966 0 0 0 -.188-2.318c4.38.319 8.719.483 12.949.483s8.569-.165 12.949-.484a15.968 15.968 0 0 0 -.188 2.319v4.432a62.657 62.657 0 0 1 -25.522-.005zm50.449 2.3a8.982 8.982 0 0 1 -17.964 0v-6.732a8.982 8.982 0 0 1 17.964 0zm4.018-24.112a8.271 8.271 0 0 1 -6.057 3.047 15.819 15.819 0 0 0 -3-1.1 53.464 53.464 0 0 0 -1.484-7.316l8.51-8.7c.815 1.162 1.746 2.578 2.636 4.124a8.9 8.9 0 0 1 -.605 9.944zm-18.823-88.014a7.357 7.357 0 0 1 4.595-3.986 7.8 7.8 0 0 1 6.315.772 21.344 21.344 0 0 1 9.158 11.153 7.38 7.38 0 0 1 -.555 6.485c-1.782 2.744-5 3.269-7.852 3.083a32.088 32.088 0 0 0 -12.661-14.7 17.382 17.382 0 0 1 1-2.807zm-65.279 14.424a7.376 7.376 0 0 1 -.555-6.485 21.344 21.344 0 0 1 9.158-11.153 7.8 7.8 0 0 1 6.32-.773 7.358 7.358 0 0 1 4.595 3.987 17.375 17.375 0 0 1 1 2.8 32.1 32.1 0 0 0 -12.654 14.692c-3.722.251-6.37-.769-7.864-3.068zm12.789 13.271c0-13.3 13.281-24.124 29.607-24.124s29.607 10.822 29.607 24.124c0 12.341-11.435 22.541-26.125 23.951v-4.489a17.3 17.3 0 0 0 6.9-3.907 8.57 8.57 0 0 0 2.138-9.474 8.755 8.755 0 0 0 -8.186-5.607h-8.66a8.755 8.755 0 0 0 -8.186 5.607 8.57 8.57 0 0 0 2.138 9.474 17.3 17.3 0 0 0 6.9 3.907v4.489c-14.699-1.409-26.133-11.61-26.133-23.951zm29.614 13.1a10.527 10.527 0 0 1 -5.651-2.655 1.58 1.58 0 0 1 -.389-1.825 1.809 1.809 0 0 1 1.7-1.186h8.66a1.809 1.809 0 0 1 1.7 1.186 1.583 1.583 0 0 1 -.389 1.826 10.542 10.542 0 0 1 -5.631 2.657zm-17.57 14.158a42.193 42.193 0 0 0 35.128 0 62.613 62.613 0 0 1 17.78 13.466l-7.02 7.176a21.1 21.1 0 0 0 -1.938-2.806 3.482 3.482 0 1 0 -5.375 4.427 16.74 16.74 0 0 1 2.841 5.416c.015.054.04.1.057.154.022.069.037.139.064.206a36.339 36.339 0 0 1 1.614 6.765 15.947 15.947 0 0 0 -9.611 6.072c-5.411.5-10.782.765-15.977.765s-10.566-.263-15.977-.765a15.957 15.957 0 0 0 -9.61-6.072 36.508 36.508 0 0 1 1.608-6.752c.032-.08.051-.162.077-.244.014-.044.036-.084.048-.129a16.777 16.777 0 0 1 2.842-5.416 3.482 3.482 0 0 0 -5.375-4.427 21.068 21.068 0 0 0 -1.938 2.806l-7.02-7.176a62.581 62.581 0 0 1 17.782-13.466z"/><path d="m320.175 161.572a11.749 11.749 0 1 0 0-23.5h-2.156v-13.248a94.687 94.687 0 0 0 -94.579-94.58h-3.777a13.786 13.786 0 0 0 -13.771 13.771v16.032c-21.127.8-32.579 8.8-38.523 15.571a36.078 36.078 0 0 0 -7.539 13.525 16.873 16.873 0 1 0 7.208.349c2.595-7.009 11.793-22.552 42.336-22.552 30.751 0 40.356 15.484 43.144 22.573a16.879 16.879 0 1 0 7.221-.381 37.329 37.329 0 0 0 -7.954-13.558c-6.135-6.753-17.807-14.73-38.929-15.527v-16.032a6.815 6.815 0 0 1 6.807-6.807h3.777a87.715 87.715 0 0 1 87.616 87.616v13.251h-9.006v-11.64a81.325 81.325 0 0 0 -79.338-81.3 3.482 3.482 0 0 0 -.167 6.962c40 .959 72.542 34.308 72.542 74.339v11.64h-164.671a11.749 11.749 0 0 0 0 23.5h2.157v94.989h-2.157a11.749 11.749 0 0 0 0 23.5h2.157v26.216a3.482 3.482 0 0 0 3.482 3.482h16.533a3.482 3.482 0 0 0 3.482-3.482v-13.019a13.218 13.218 0 0 1 13.2-13.2h112.049a13.218 13.218 0 0 1 13.2 13.2v13.012a3.482 3.482 0 0 0 3.481 3.482h16.533a3.482 3.482 0 0 0 3.482-3.482v-26.216h2.156a11.749 11.749 0 1 0 0-23.5h-2.156v-94.986zm-147.629-55.81a9.91 9.91 0 1 1 -9.909-9.909 9.92 9.92 0 0 1 9.909 9.909zm94.366 0a9.909 9.909 0 1 1 -9.912-9.909 9.92 9.92 0 0 1 9.912 9.909zm-141.28 44.062a4.79 4.79 0 0 1 4.784-4.785h189.759a4.785 4.785 0 1 1 0 9.569h-189.759a4.789 4.789 0 0 1 -4.784-4.784zm151.9 106.737v-94.989h16.99v94.989zm-104.472-94.989v94.989h-16.99v-94.989zm6.964 0h9.57v94.989h-9.57zm16.533 0h16.991v94.989h-16.991zm23.954 0h9.57v94.989h-9.57zm16.534 0h16.99v94.989h-16.99zm23.954 0h9.569v94.989h-9.568zm-121.462 0h9.569v94.989h-9.569zm9.569 131.69v9.53h-9.569v-22.734h14.528a20.064 20.064 0 0 0 -4.959 13.204zm161.95 9.53h-9.57v-9.53a20.064 20.064 0 0 0 -4.959-13.2h14.529zm13.905-34.482a4.791 4.791 0 0 1 -4.786 4.785h-189.759a4.785 4.785 0 0 1 0-9.57h189.759a4.791 4.791 0 0 1 4.786 4.785zm-13.905-11.749h-9.57v-94.989h9.57z"/><circle cx="44.28" cy="203.646" r="3.482"/><circle cx="72.866" cy="203.646" r="3.482"/><path d="m198.129 107.721 7.03 11.746a5.7 5.7 0 0 0 2.685 2.4 5.4 5.4 0 0 0 6.75-2.345l6.815-12.112a11.017 11.017 0 0 0 -.35-11.384l-7.023-10.863c-.265-.41-.712-1.115-1.226-1.932a3.987 3.987 0 0 0 -6.789.065l-7.848 13.038a10.988 10.988 0 0 0 -.044 11.387zm17.083-7.915a4.044 4.044 0 0 1 .128 4.188l-5.488 9.754-5.748-9.6a4.044 4.044 0 0 1 .016-4.19l5.427-8.91z"/></svg>