<svg id="Layer_1" enable-background="new 0 0 500 500" viewBox="0 0 500 500" xmlns="http://www.w3.org/2000/svg"><path clip-rule="evenodd" d="m389.864 396.688c.862 3.665-1.401 7.341-5.066 8.215-76.217 18.12-193.376 18.12-269.59 0-3.665-.873-5.928-4.55-5.066-8.215.874-3.665 4.544-5.928 8.215-5.055 74.147 17.618 189.147 17.631 263.293 0 3.664-.873 7.34 1.391 8.214 5.055zm-174.975-183.12c-.756-3.694 1.624-7.3 5.318-8.045 3.694-.751 7.294 1.642 8.051 5.33.615 3.057 5.05 3.046 5.664 0 .745-3.688 4.351-6.08 8.039-5.33 3.694.745 6.087 4.351 5.33 8.045-1.554 7.664-8.367 13.228-16.207 13.228-7.828.001-14.641-5.564-16.195-13.228zm38.148 0c-.75-3.694 1.642-7.3 5.324-8.045 3.688-.745 7.294 1.642 8.045 5.33.612 3.051 5.045 3.05 5.67 0 .75-3.688 4.345-6.08 8.039-5.33 3.694.745 6.087 4.351 5.33 8.045-1.554 7.664-8.379 13.228-16.207 13.228-7.833.001-14.641-5.564-16.201-13.228zm108.711-6.684v-80.847c0-3.765 3.055-6.819 6.819-6.819 3.77 0 6.825 3.055 6.825 6.819v80.847c0 3.764-3.055 6.819-6.825 6.819-3.764 0-6.819-3.055-6.819-6.819zm0-117.817v-27.7c0-3.77 3.055-6.825 6.819-6.825 3.77 0 6.825 3.055 6.825 6.825v27.7c0 3.776-3.055 6.819-6.825 6.819-3.764 0-6.819-3.043-6.819-6.819zm64.676 135.713v-80.841c0-3.77 3.055-6.825 6.819-6.825s6.819 3.055 6.819 6.825v80.841c0 3.764-3.055 6.819-6.819 6.819s-6.819-3.055-6.819-6.819zm0-117.812v-27.705c0-3.776 3.055-6.819 6.819-6.819s6.819 3.043 6.819 6.819v27.705c0 3.764-3.055 6.819-6.819 6.819-3.764.001-6.819-3.054-6.819-6.819zm-301.811 99.916v-80.847c0-3.765 3.055-6.819 6.819-6.819 3.765 0 6.825 3.055 6.825 6.819v80.847c0 3.764-3.061 6.819-6.825 6.819s-6.819-3.055-6.819-6.819zm0-117.817v-27.7c0-3.77 3.055-6.825 6.819-6.825 3.765 0 6.825 3.055 6.825 6.825v27.7c0 3.776-3.061 6.819-6.825 6.819s-6.819-3.043-6.819-6.819zm-64.676 135.713v-80.841c0-3.77 3.055-6.825 6.825-6.825 3.759 0 6.819 3.055 6.819 6.825v80.841c0 3.764-3.061 6.819-6.819 6.819-3.77 0-6.825-3.055-6.825-6.819zm0-117.812v-27.705c0-3.776 3.055-6.819 6.825-6.819 3.759 0 6.819 3.043 6.819 6.819v27.705c0 3.764-3.061 6.819-6.819 6.819-3.77.001-6.825-3.054-6.825-6.819zm342.851 310.02c43.297-10.156 58.665-22.27 58.665-29.552 0-5.488-8.637-12.407-23.114-18.529-14.8-6.256-35.516-11.751-60.336-16.037.909 4.315 1.636 8.872 2.181 13.727.387 3.336-1.724 6.45-4.955 7.341-79.088 21.832-171.358 21.794-250.451 0-3.243-.891-5.342-4.005-4.967-7.341.545-4.855 1.284-9.411 2.193-13.727-24.821 4.286-45.548 9.78-60.336 16.037-14.477 6.122-23.12 13.041-23.12 18.529 0 7.283 15.362 19.397 58.671 29.552 84.236 19.768 221.332 19.78 305.569 0zm-345.19-133.226c10.15 0 19.749 7.154 30.209 22.498 8.69 12.758 13.354 26.15 12.542 36.923-21.624 4.705-46.771 11.975-61.802 22.786v-63.157c0-10.501 8.549-19.05 19.051-19.05zm51.353-21.766c-3.682.399-10.531 4.527-22.598 21.127 6.192 5.864 10.513 12.208 12.73 15.462 9.575 14.067 14.975 29.195 15.005 41.848 3.905-.721 7.904-1.413 11.997-2.07 8.047-21.865 23.056-35.661 46.662-40.359l-10.39-19.631h-22.839c-3.109 0-4.486-1.653-6.338-3.518-8.878-8.931-14.372-13.932-24.229-12.859zm119.981 11.111c13.675 5.439 28.443 5.48 42.142.082.358 20.294 16.963 36.688 37.333 36.688 34.454 0 51.887 15.762 57.463 52.444-73.274 19.1-158.463 19.106-231.735 0 5.576-36.682 23.009-52.444 57.457-52.444 20.4.001 37.029-16.441 37.34-36.77zm-26.404-45.742c9.059 22.071 27.536 36.202 47.636 36.202 21.091 0 40.465-15.767 48.897-39.527-5.94-11.551-13.152-21.179-21.467-28.65-7.541-6.767-17.35-12.431-28.784-16.711-22.481 6.574-37.65 22.535-46.282 48.686zm-7.552-17.866c7.822-16.471 18.857-28.738 32.983-36.753-10.889-2.211-21.952-3.219-33.399-3.09-5.148 10.724-5.02 24.064.416 39.843zm1.583-67.402c-1.343 3.823-1.566 8.479-.663 13.908 33.575 0 68.66 9.324 90.815 29.23 6.954 6.256 13.222 13.768 18.699 22.428 2.381-8.221 2.99-16.271 1.865-24.369-2.539-18.306-12.882-34.982-27.659-44.622-14.336-9.352-31.487-15.029-45.877-15.193-12.811-.134-32.823 6.252-37.18 18.618zm63.104-46.111c15.752 0 27.788 14.24 25.079 29.793-14.952-9.212-32.402-14.993-47.788-15.832 4.245-8.332 12.94-13.961 22.709-13.961zm77.986 182.387-10.396 19.631c23.585 4.692 38.642 18.501 46.656 40.359 4.105.657 8.104 1.349 12.009 2.07.023-12.654 5.424-27.782 15.005-41.848 2.216-3.254 6.538-9.599 12.724-15.462-12.061-16.6-18.91-20.728-22.593-21.127-9.851-1.073-15.351 3.929-24.228 12.859-1.868 1.874-3.246 3.518-6.338 3.518zm123.804 24.439v63.157c-15.008-10.809-40.198-18.085-61.796-22.786-.806-10.782 3.852-24.165 12.542-36.923 10.461-15.345 20.053-22.498 30.203-22.498 10.508 0 19.051 8.549 19.051 19.05zm-19.051-32.695c-6.632 0-12.589 1.947-17.808 4.837-9.464-13.105-20.399-25.254-32.056-26.521-16.535-1.8-26.322 7.687-34.888 16.301h-24.111c-2.527 0-4.849 1.389-6.028 3.629l-14.8 27.958c-1.419-.059-2.849-.082-4.304-.082-13.07 0-23.701-10.631-23.701-23.701v-6.778c12.577-8.995 22.639-22.792 28.057-39.661 7.359-14.952 10.068-29.975 8.021-44.686-2.498-18.048-11.34-34.847-24.293-46.809 9.035-25.166-9.643-52.256-36.829-52.256-17.655 0-33.018 11.979-37.662 28.585-14.952 2.697-32.69 10.701-38.313 26.638-2.48 7.036-2.644 15.034-.516 24.357-9.693 18.154-7.728 41.145 5.875 68.416 5.647 14.929 14.917 27.066 26.251 35.252v6.942c0 13.07-10.637 23.701-23.706 23.701-1.454 0-2.891.023-4.298.082l-14.8-27.958c-1.185-2.24-3.501-3.629-6.028-3.629h-24.123c-8.555-8.614-18.353-18.101-34.877-16.301-11.663 1.267-22.593 13.416-32.056 26.521-24.698-13.666-50.509 3.722-50.509 27.858v84.623c0 17.649 23.284 32.062 69.196 42.845 86.248 20.237 225.558 20.236 311.808 0 45.912-10.783 69.191-25.196 69.191-42.845v-84.623c.002-18.024-14.668-32.695-32.693-32.695z" fill-rule="evenodd"/></svg>