<svg id="ICONS" enable-background="new 0 0 64 64" height="64" viewBox="0 0 64 64" width="64" xmlns="http://www.w3.org/2000/svg"><g style="fill:none;stroke:#202020;stroke-linecap:round;stroke-linejoin:round;stroke-miterlimit:10;stroke-width:2"><path d="m5 5h54v54h-54z"/><path d="m59 46h-54"/><path d="m16 5v41"/><path d="m27 5v54"/><path d="m43 46v13"/><path d="m47 50v4"/><path d="m39 50v4"/><path d="m20 52h-8"/><path d="m20 24v8"/><path d="m12 24v8"/><path d="m52 10v3c0 1.104.896 2 2 2s2-.896 2-2"/><path d="m32 10v3c0 1.104.896 2 2 2s2-.896 2-2"/><g><path d="m43 12c2.44 0 5.192 7.31 5.192 7.31s-.375 3.035-5.192 3.035-5.192-3.035-5.192-3.035 2.752-7.31 5.192-7.31z"/><path d="m50.945 33.845-2.753-14.53c2.366 0 5.727 7.797 6.742 11.618.141.531.053 1.096-.244 1.561-.295.465-.772.789-1.316.892l-2.429.459.501 4.173s-5.503 1.981-8.446 1.982c-2.943-.001-8.446-1.982-8.446-1.982l.5-4.173-2.428-.459c-.545-.103-1.021-.427-1.317-.892-.297-.465-.384-1.03-.244-1.561 1.016-3.821 4.377-11.618 6.743-11.618l-2.754 14.53"/><path d="m43 22.345v17.655"/></g></g></svg>