<?xml version="1.0" encoding="UTF-8"?>
<svg xmlns="http://www.w3.org/2000/svg" id="Artboard_30" data-name="Artboard 30" viewBox="0 0 64 64" width="512" height="512"><path d="M62,1H2A1,1,0,0,0,1,2V62a1,1,0,0,0,1,1H62a1,1,0,0,0,1-1V2A1,1,0,0,0,62,1ZM17,43H7V41H17Zm0,2v2H7V45Zm14,4V61H19V49ZM19,47V41a2,2,0,0,0-2-2H7a2,2,0,0,0-2,2v6H3V37H31V47ZM17,11H7V7H17Zm14,2v8H29V17a1,1,0,0,0-1-1H22a1,1,0,0,0-1,1v4H19V16a1,1,0,0,0-1-1H6a1,1,0,0,0-1,1v5H3V13Zm-4-2H23V8h4Zm23.5,7.132-1.481-.846L51,16.152l6,3.428V20H51V19A1,1,0,0,0,50.5,18.132ZM43,16.152l6,3.428V20H37v-.42Zm7-1.732-3,1.714L44,14.42V13h6ZM44,11V9h6v2Zm-2,0H33V9h9ZM27,21H23V18h4ZM17,21H7V17H17Zm14,2V35H27.816A2.966,2.966,0,0,0,28,34V33a2.981,2.981,0,0,0-.78-2A2.981,2.981,0,0,0,28,29V28a3,3,0,0,0-3-3H9a3,3,0,0,0-3,3v1a2.981,2.981,0,0,0,.78,2A2.981,2.981,0,0,0,6,33v1a2.966,2.966,0,0,0,.184,1H3V23ZM8,29V28a1,1,0,0,1,1-1H25a1,1,0,0,1,1,1v1a1,1,0,0,1-1,1H9A1,1,0,0,1,8,29Zm0,5V33a1,1,0,0,1,1-1H25a1,1,0,0,1,1,1v1a1,1,0,0,1-1,1H9A1,1,0,0,1,8,34ZM33,13h9v1.42l-6.5,3.712A1,1,0,0,0,35,19v2a1,1,0,0,0,1,1H58a1,1,0,0,0,1-1V19a1,1,0,0,0-.5-.868L52,14.42V13h9V47H33Zm28-2H52V9h9Zm0-4H33V3H61ZM31,3v8H29V7a1,1,0,0,0-1-1H22a1,1,0,0,0-1,1v4H19V6a1,1,0,0,0-1-1H6A1,1,0,0,0,5,6v5H3V3ZM3,49H17V61H3ZM33,61V49H61V61Z"/><rect x="43" y="51" width="8" height="2"/><rect x="6" y="51" width="7" height="2"/><rect x="21" y="51" width="7" height="2"/></svg>
