<?xml version="1.0" encoding="iso-8859-1"?>
<!-- Generator: Adobe Illustrator 17.1.0, SVG Export Plug-In . SVG Version: 6.00 Build 0)  -->
<!DOCTYPE svg PUBLIC "-//W3C//DTD SVG 1.1//EN" "http://www.w3.org/Graphics/SVG/1.1/DTD/svg11.dtd">
<svg version="1.1" id="Capa_1" xmlns="http://www.w3.org/2000/svg" xmlns:xlink="http://www.w3.org/1999/xlink" x="0px" y="0px"
	 viewBox="0 0 490.722 490.722" style="enable-background:new 0 0 490.722 490.722;" xml:space="preserve">
<path d="M330.387,398.222H160.334c-51.609,0-94.214-37.606-99.458-85.683H20.414c-5.522,0-10-4.478-10-10s4.478-10,10-10h9.545
	c-0.174-0.738-0.266-1.508-0.266-2.299V185.287H10c-4.157,0-7.881-2.572-9.353-6.46c-1.472-3.889-0.384-8.281,2.731-11.034
	c53.361-47.146,143.821-75.293,241.981-75.293s188.62,28.147,241.981,75.293c3.115,2.753,4.203,7.146,2.731,11.034
	c-1.472,3.888-5.195,6.46-9.353,6.46h-19.693v104.954c0,0.791-0.092,1.561-0.266,2.299h9.545c5.522,0,10,4.478,10,10
	s-4.478,10-10,10h-40.462C424.601,360.616,381.997,398.222,330.387,398.222z M160.334,226.858c-44.112,0-80,33.95-80,75.682
	s35.888,75.683,80,75.683h170.053c44.112,0,80-33.951,80-75.683s-35.888-75.682-80-75.682H160.334z M429.845,292.539h11.448
	c-0.174-0.738-0.266-1.508-0.266-2.299V185.287H49.694v104.954c0,0.791-0.092,1.561-0.266,2.299h11.448
	c5.244-48.075,47.849-85.682,99.458-85.682h170.053C381.997,206.858,424.601,244.464,429.845,292.539z M49.694,165.287h391.334
	v-5.484c0-0.237,0.008-0.472,0.024-0.705c-50.45-29.58-120.512-46.598-195.691-46.598S100.12,129.517,49.669,159.097
	c0.017,0.233,0.024,0.468,0.024,0.705V165.287z M209.103,343.034c-9.89,0-19.852-3.999-27.086-10.971
	c-4.011-3.866-9.705-6.029-14.839-5.665c-3.705,0.268-6.636,1.759-8.71,4.434c-3.385,4.364-9.669,5.159-14.03,1.774
	c-4.364-3.385-5.159-9.666-1.774-14.03c5.541-7.146,13.735-11.452,23.073-12.126c10.796-0.773,22.065,3.412,30.159,11.213
	c3.791,3.653,9.292,5.698,14.372,5.329c2.62-0.188,6.281-1.108,8.848-4.417c0.006-0.008,0.012-0.016,0.018-0.023
	c5.542-7.131,13.73-11.429,23.061-12.102c10.782-0.779,22.065,3.413,30.158,11.213c3.976,3.833,4.092,10.164,0.26,14.141
	c-3.834,3.974-10.164,4.092-14.141,0.26c-4.009-3.865-9.68-6.046-14.839-5.665c-3.707,0.267-6.639,1.759-8.714,4.435
	c-0.007,0.009-0.014,0.018-0.021,0.026c-5.527,7.111-13.762,11.4-23.189,12.081C210.841,343.002,209.972,343.034,209.103,343.034z
	 M285.722,299.929c-9.89,0-19.851-3.998-27.085-10.969c-4.012-3.867-9.707-6.032-14.839-5.667c-3.705,0.268-6.636,1.759-8.71,4.434
	c-0.006,0.007-0.011,0.015-0.017,0.021c-5.53,7.115-13.769,11.407-23.201,12.087c-10.721,0.781-21.819-3.293-29.688-10.875
	c-3.977-3.833-4.094-10.163-0.262-14.14c3.833-3.979,10.165-4.094,14.14-0.263c3.792,3.653,9.293,5.697,14.372,5.329
	c2.616-0.188,6.271-1.105,8.839-4.399c0.004-0.006,0.008-0.011,0.013-0.017c5.541-7.146,13.736-11.452,23.074-12.126
	c10.797-0.782,22.065,3.413,30.159,11.214c3.791,3.653,9.311,5.693,14.371,5.328c2.62-0.188,6.281-1.108,8.848-4.417
	c0.008-0.01,0.015-0.02,0.022-0.029c5.542-7.128,13.729-11.423,23.056-12.096c10.782-0.774,22.065,3.413,30.158,11.215
	c3.976,3.833,4.092,10.163,0.259,14.14c-3.833,3.975-10.164,4.092-14.14,0.259c-4.011-3.866-9.689-6.037-14.839-5.665
	c-3.706,0.267-6.639,1.759-8.714,4.435c-0.007,0.009-0.014,0.018-0.021,0.026c-5.527,7.11-13.762,11.4-23.189,12.081
	C287.462,299.898,286.591,299.929,285.722,299.929z"/>
<g>
</g>
<g>
</g>
<g>
</g>
<g>
</g>
<g>
</g>
<g>
</g>
<g>
</g>
<g>
</g>
<g>
</g>
<g>
</g>
<g>
</g>
<g>
</g>
<g>
</g>
<g>
</g>
<g>
</g>
</svg>
