<svg id="Layer_3" height="512" viewBox="0 0 64 64" width="512" xmlns="http://www.w3.org/2000/svg" data-name="Layer 3"><path d="m29 49h2v4h-2z"/><path d="m13.586 38h2.828v2h-2.828z" transform="matrix(.707 -.707 .707 .707 -23.184 22.029)"/><path d="m47.586 38h2.828v2h-2.828z" transform="matrix(.707 -.707 .707 .707 -13.225 46.071)"/><path d="m29.586 22h2.828v2h-2.828z" transform="matrix(.707 -.707 .707 .707 -7.184 28.657)"/><path d="m63 15a13.992 13.992 0 0 0 -27.469-3.771 28.9 28.9 0 0 0 -32.531 28.771v17h-1a1 1 0 0 0 -1 1v4a1 1 0 0 0 1 1h60a1 1 0 0 0 1-1v-4a1 1 0 0 0 -1-1h-1v-17a28.99 28.99 0 0 0 -3.543-13.869 13.97 13.97 0 0 0 5.543-11.131zm-10.988 13.665a22.879 22.879 0 0 1 1.152 2.335h-10.164v-3.37a13.786 13.786 0 0 0 9.012 1.035zm-13.012 28.335v-4h16v4zm4-24h4.586l-4.586 4.586zm-2 18h-2v-7a7 7 0 0 0 -14 0v7h-2v-18h18zm-4.1-8h-9.8a5 5 0 0 1 9.8 0zm-27.9-2.586 7.414-7.414h3.186c-.776.767-1.829 1.82-3.3 3.293l1.414 1.414 3.286-3.293v16.586h-12zm14-21.578a22.81 22.81 0 0 1 6.44-1.69l-6.44 6.44zm-2 12.164h-10.164a23.145 23.145 0 0 1 10.164-11.194zm-10.907 2h3.493l-4.44 4.44a22.76 22.76 0 0 1 .947-4.44zm-1.093 20h16v4h-16zm18-8h10v12h-10zm16 6v-10.586l7.414-7.414h3.2c-.648.625-1.661 1.638-3.316 3.293l1.414 1.414 2.728-2.729a23.026 23.026 0 0 1 .56 5.022v11zm-2-20h-18v-4.586l9.4-9.4a23.328 23.328 0 0 1 2.8.223c.007.043.013.087.02.131l-2.923 2.923 1.414 1.414 2.089-2.089a14.056 14.056 0 0 0 5.2 6.857zm-36 9a26.888 26.888 0 0 1 30.13-26.8 13.939 13.939 0 0 0 -.13 1.8c0 .068.009.134.01.2a25.428 25.428 0 0 0 -3.01-.2 25.028 25.028 0 0 0 -25 25v17h-2zm56 21h-58v-2h58zm-2-21v17h-2v-17a24.987 24.987 0 0 0 -3.038-11.925 13.971 13.971 0 0 0 1.821-.837 26.994 26.994 0 0 1 3.217 12.762zm-10-13a12 12 0 1 1 12-12 12.013 12.013 0 0 1 -12 12z"/><path d="m57.707 13.707-1.414-1.414-1.707 1.707h-3.172l2-2h2.586v-2h-2v-2h-2v2.586l-2 2v-3.172l1.707-1.707-1.414-1.414-1.293 1.293-1.293-1.293-1.414 1.414 1.707 1.707v3.172l-2-2v-2.586h-2v2h-2v2h2.586l2 2h-3.172l-1.707-1.707-1.414 1.414 1.293 1.293-1.293 1.293 1.414 1.414 1.707-1.707h3.172l-2 2h-2.586v2h2v2h2v-2.586l2-2v3.172l-1.707 1.707 1.414 1.414 1.293-1.293 1.293 1.293 1.414-1.414-1.707-1.707v-3.172l2 2v2.586h2v-2h2v-2h-2.586l-2-2h3.172l1.707 1.707 1.414-1.414-1.293-1.293z"/></svg>