<svg id="Layer_1" enable-background="new 0 0 512 512" viewBox="0 0 512 512" xmlns="http://www.w3.org/2000/svg"><g><g><g><path d="m234.345 121.209h-82.125c-6.075 0-11-4.925-11-11s4.925-11 11-11h82.125c6.075 0 11 4.925 11 11s-4.925 11-11 11z" fill="#3cc"/></g><g><path d="m204.478 343.048h-22.391c-6.075 0-11-4.925-11-11s4.925-11 11-11h22.391c6.075 0 11 4.925 11 11s-4.925 11-11 11z" fill="#3cc"/></g><g><path d="m507.562 269.539-76.568-56.903c-3.338-2.479-7.788-2.866-11.502-.999-3.715 1.868-6.059 5.67-6.059 9.828v17.618h-26.867v-136.818c0-4.301-2.506-8.207-6.416-9.999l-182.284-83.562c-2.91-1.334-6.258-1.334-9.168 0l-182.282 83.562c-3.91 1.792-6.416 5.699-6.416 9.999v311.881c0 6.075 4.925 11 11 11h364.565c6.075 0 11-4.925 11-11v-96.492h26.867v17.618c0 4.158 2.344 7.96 6.059 9.828 1.562.785 3.254 1.172 4.939 1.172 2.322 0 4.629-.734 6.563-2.171l76.568-56.904c2.792-2.075 4.438-5.35 4.438-8.829s-1.645-6.754-4.437-8.829zm-202.645 133.607h-31.35v-119.725c0-6.075-4.925-11-11-11h-138.57c-6.075 0-11 4.925-11 11v119.726h-31.35v-203.93h223.27zm-53.35 0h-116.57v-108.725h116.57zm112.998 0h-37.647v-214.93c0-6.075-4.925-11-11-11h-245.271c-6.075 0-11 4.925-11 11v214.93h-37.647v-293.823l171.282-78.52 171.283 78.521zm70.867-89.754v-6.738c0-6.075-4.925-11-11-11h-37.867v-34.571h37.867c6.075 0 11-4.925 11-11v-6.738l47.127 35.023z"/><path d="m464.743 455.28c-4.291-4.3-11.255-4.308-15.556-.017-3.224 3.217-4.036 7.937-2.431 11.91h-242.473v-9.228c0-6.075-4.925-11-11-11s-11 4.925-11 11v20.228c0 6.075 4.925 11 11 11h253.473c-1.604 3.973-.793 8.692 2.431 11.909 2.147 2.143 4.958 3.214 7.77 3.214 2.819 0 5.638-1.077 7.786-3.23l15.091-15.123c4.285-4.293 4.285-11.245 0-15.539z"/></g></g></g><g/><g/><g/><g/><g/><g/><g/><g/><g/><g/><g/><g/><g/><g/><g/></svg>