<svg id="Layer_1" enable-background="new 0 0 66 66" height="512" viewBox="0 0 66 66" width="512" xmlns="http://www.w3.org/2000/svg"><g><g><g><g><path d="m7.3 43.1v-5c0-2.3 1.9-4.2 4.2-4.2h25.1c2.3 0 4.2 1.9 4.2 4.2v4.9" style="fill:none;stroke:#000;stroke-width:2;stroke-linecap:round;stroke-linejoin:round;stroke-miterlimit:10"/><g><path d="m3 50-.7-1.7c-1-2.4.8-5.1 3.4-5.1 2.5 0 4.7 1.4 5.9 3.5l1.6 3h21.8l1.6-3c1.2-2.2 3.4-3.5 5.9-3.5 2.6 0 4.4 2.7 3.4 5.1l-.8 1.8-1.4 6.8c-.3 1.6-1.7 2.7-3.3 2.7h-32.7c-1.6 0-3-1.1-3.3-2.7z" style="fill:none;stroke:#000;stroke-width:2;stroke-linecap:round;stroke-linejoin:round;stroke-miterlimit:10"/></g></g><g style="fill:none;stroke:#000;stroke-width:2;stroke-linecap:round;stroke-linejoin:round;stroke-miterlimit:10"><g><path d="m14.7 38.1v2.6"/><path d="m13.4 39.4h2.6"/><path d="m21.5 38.1v2.6"/><path d="m20.2 39.4h2.6"/><path d="m28.3 38.1v2.6"/><path d="m27 39.4h2.6"/><path d="m35.1 38.1v2.6"/><path d="m33.8 39.4h2.6"/></g><g><path d="m18.1 43.3v2.6"/><path d="m16.8 44.6h2.6"/><path d="m24.9 43.3v2.6"/><path d="m23.6 44.6h2.6"/><path d="m31.7 43.3v2.6"/><path d="m30.4 44.6h2.6"/></g></g></g><g style="fill:none;stroke:#000;stroke-width:2;stroke-linecap:round;stroke-linejoin:round;stroke-miterlimit:10"><path d="m12.1 63.7h-3.1v-4h4.2v1.6z"/><path d="m36.1 63.7h3v-4h-4.2v1.6z"/></g></g><g style="fill:none;stroke:#000;stroke-width:2;stroke-linecap:round;stroke-linejoin:round;stroke-miterlimit:10"><path d="m59.1 57.7h-9.3c-1.1 0-2 .9-2 2v4.1h13.3v-4.1c.1-1.1-.8-2-2-2z"/><path d="m52 36.3h5v21.3h-5z"/><path d="m50.4 31.8h8.3v4.5h-8.3z"/><path d="m64 31.8h-19l4-13.7h11z"/><path d="m62.1 31.8v4.1"/><path d="m2 2.3h22.3v19.3h-22.3z"/><path d="m6.2 6.5h14v11h-14z"/><path d="m28.2 2.3h15.3v19.3h-15.3z"/><path d="m32 5.8h7.8v12.1h-7.8z"/><path d="m6.2 12.6s2.8-1 4.5 0c2.5 1.4 4.8 0 4.8 0s2.8-1.8 4.7.6"/><path d="m32 13.3s.1-.4.3-1c.7-1.5 2.8-1.6 3.7-.2.4.7 1 1.4 1.9 1.1 1.9-.5 1.9.5 1.9.5"/></g></g></svg>