<?xml version="1.0" encoding="UTF-8"?>
<svg xmlns="http://www.w3.org/2000/svg" id="Layer_3" data-name="Layer 3" viewBox="0 0 64 64" width="512" height="512"><path d="M56,1H8A1,1,0,0,0,7,2V62a1,1,0,0,0,1,1H56a1,1,0,0,0,1-1V2A1,1,0,0,0,56,1ZM15,25V3h4V25Zm6,2v2H13V27Zm0,4v6H13V31Zm-2,8V61H15V39Zm2,0h1a1,1,0,0,0,1-1V26a1,1,0,0,0-1-1H21V3h4V61H21ZM39,5V3h4V5ZM37,5H33V3h4ZM31,5H27V3h4Zm0,29V30h2v4Zm0-6H30a1,1,0,0,0-1,1v6a1,1,0,0,0,1,1h1v1H27V27h4ZM27,59h4v2H27Zm6,0h4v2H33Zm6,0h4v2H39Zm6,0h4v2H45ZM27,57V47H51V57ZM51,45H27V43H51ZM27,41V39h5a1,1,0,0,0,1-1V36h1a1,1,0,0,0,1-1V29a1,1,0,0,0-1-1H33V26a1,1,0,0,0-1-1H27V7H51V41ZM45,5V3h4V5ZM9,3h4V25H12a1,1,0,0,0-1,1V38a1,1,0,0,0,1,1h1V61H9ZM55,61H51V59h1a1,1,0,0,0,1-1V6a1,1,0,0,0-1-1H51V3h4Z"/><path d="M34,15.586v-.35A2.6,2.6,0,0,1,35.447,12.9l-.894-1.79A4.594,4.594,0,0,0,32,15.236v.35a4.382,4.382,0,0,0,1.293,3.121A2.432,2.432,0,0,1,34,20.414v.35a2.6,2.6,0,0,1-1.447,2.341l.894,1.79A4.594,4.594,0,0,0,36,20.764v-.35a4.382,4.382,0,0,0-1.293-3.121A2.432,2.432,0,0,1,34,15.586Z"/><path d="M39,13.586v-.35A2.6,2.6,0,0,1,40.447,10.9l-.894-1.79A4.594,4.594,0,0,0,37,13.236v.35a4.382,4.382,0,0,0,1.293,3.121A2.432,2.432,0,0,1,39,18.414v.35a2.6,2.6,0,0,1-1.447,2.341l.894,1.79A4.594,4.594,0,0,0,41,18.764v-.35a4.382,4.382,0,0,0-1.293-3.121A2.432,2.432,0,0,1,39,13.586Z"/><path d="M44.707,17.293A2.432,2.432,0,0,1,44,15.586v-.35A2.6,2.6,0,0,1,45.447,12.9l-.894-1.79A4.594,4.594,0,0,0,42,15.236v.35a4.382,4.382,0,0,0,1.293,3.121A2.432,2.432,0,0,1,44,20.414v.35a2.6,2.6,0,0,1-1.447,2.341l.894,1.79A4.594,4.594,0,0,0,46,20.764v-.35A4.382,4.382,0,0,0,44.707,17.293Z"/></svg>
