<svg id="Layer_1" viewBox="0 0 64 64" xmlns="http://www.w3.org/2000/svg"><g fill="rgb(0,0,0)"><path d="m49.333 36.927v-8.726c0-1.211-.985-2.196-2.196-2.196h-10.757c-.923-1.163-2.311-1.87-3.799-1.929v-3.379h2.701c1.946 0 3.53-1.583 3.53-3.529v-5.664c0-.272-.22-.492-.492-.492s-.492.22-.492.492v5.664c0 1.403-1.142 2.545-2.546 2.545h-2.701v-8.052c0-.272-.22-.492-.492-.492s-.492.22-.492.492v8.052h-2.703c-1.403 0-2.545-1.142-2.545-2.545v-5.664c0-.272-.22-.492-.492-.492s-.492.22-.492.492v5.664c0 1.946 1.583 3.529 3.529 3.529h2.703v3.391c-1.413.111-2.72.805-3.603 1.917h-11.13c-1.211 0-2.196.985-2.196 2.196v8.708c0 .25.187.46.435.489 1.712.199 3.685.829 6.034 1.928.742.345 1.527.517 2.307.517.861 0 1.715-.21 2.499-.626l.819-.437c1.008-.536 2.08-.905 3.191-1.122v15.449c-.123.003-.24.049-.329.134l-3.223 3.075c-.146.138-.192.352-.117.538.075.187.256.309.456.309h10.524c.201 0 .382-.122.456-.309.075-.186.029-.4-.117-.538l-3.223-3.075c-.089-.085-.206-.132-.329-.134v-15.512c1.396.229 2.72.689 3.934 1.4 1.56.91 3.45.975 5.054.172 1.593-.793 3.894-1.74 5.806-1.749.271 0 .49-.221.49-.492zm-17.34-11.88h.387c.975 0 1.91.347 2.644.957h-5.674c.734-.61 1.668-.957 2.643-.957zm-1.057 12.469c.325-.037.65-.075.986-.082.034 0 .067-.003.1-.003.343-.005.694.024 1.043.051v15.623h-2.13v-15.589zm5.098 18.664h-8.067l2.192-2.091h3.683zm12.315-19.727c-1.984.144-4.193 1.058-5.751 1.834-1.309.654-2.848.601-4.118-.141-1.491-.873-3.127-1.419-4.868-1.621-1.113-.125-2.21-.104-3.239.053-1.424.204-2.795.653-4.075 1.333l-.819.437c-1.22.649-2.652.678-3.927.086-2.253-1.053-4.188-1.695-5.901-1.956v-8.278c0-.668.544-1.212 1.212-1.212h30.273c.668 0 1.212.544 1.212 1.212v8.254z"/><path d="m26.227 9.115h.003c.737 0 1.397-.383 1.765-1.022.367-.639.367-1.401-.003-2.039l-1.343-2.318c-.088-.152-.25-.245-.426-.245-.176 0-.337.094-.426.247l-1.337 2.321c-.367.639-.366 1.401.003 2.039.369.637 1.028 1.017 1.764 1.017zm-.913-2.565.911-1.583.916 1.581c.191.33.191.724 0 1.054-.19.331-.531.529-.913.529h-.002c-.38 0-.721-.197-.912-.526-.191-.331-.191-.725 0-1.055z"/><path d="m31.999 9.115h.003c.737 0 1.397-.383 1.766-1.022.367-.639.367-1.401-.003-2.039l-1.343-2.318c-.088-.152-.25-.245-.426-.245-.176 0-.337.094-.426.247l-1.337 2.321c-.367.639-.366 1.401.003 2.039.369.637 1.028 1.017 1.763 1.017zm-.913-2.565.911-1.583.916 1.581c.191.33.191.724 0 1.054-.19.331-.531.529-.913.529h-.002c-.38 0-.721-.197-.912-.526-.191-.331-.191-.725 0-1.055z"/><path d="m37.771 9.115h.003c.737 0 1.397-.383 1.765-1.022.367-.639.367-1.401-.003-2.039l-1.343-2.318c-.088-.152-.25-.245-.426-.245-.176 0-.337.094-.426.247l-1.337 2.321c-.367.639-.366 1.401.003 2.039.369.637 1.028 1.017 1.764 1.017zm-.913-2.565.911-1.583.916 1.581c.191.33.191.724 0 1.054-.19.331-.531.529-.913.529h-.002c-.38 0-.721-.197-.912-.526-.191-.331-.191-.725 0-1.055z"/><path d="m63 34.431v-14.695c0-.272-.22-.492-.492-.492-1.039 0-2.011.403-2.738 1.134-.731.731-1.134 1.704-1.134 2.738v7.934c0 1.966 1.477 3.576 3.376 3.822v5.926c-1.739-.877-3.985-1.326-6.697-1.334h-.059c-4.674 0-6.94 1.28-8.018 2.356-.906.904-1.123 1.796-1.135 2.102 0 .009-.005.017-.005.027 0 .005.003.009.003.014v2.623c0 .272.22.492.492.492h3.647c-.054.085-.09.183-.082.291.195 2.856.121 10.592-2.53 12.057-.237.132-.324.431-.192.669.089.162.258.254.431.254.081 0 .162-.02.238-.062 3.738-2.067 3.066-12.541 3.036-12.986-.006-.083-.038-.157-.08-.224h3.536c-.048.076-.083.161-.083.258v11.934c0 .272.22.492.492.492s.492-.22.492-.492v-11.934c0-.097-.035-.182-.083-.258h3.293c-.041.067-.072.141-.078.224-.031.445-.703 10.919 3.035 12.986.076.041.158.062.238.062.173 0 .341-.091.431-.254.132-.238.045-.537-.192-.669-2.651-1.466-2.725-9.201-2.529-12.057.007-.108-.028-.206-.082-.291h2.98c.272 0 .492-.22.492-.492v-2.632c0-.007-.004-.012-.004-.019v-9.485c0-.007.004-.012.004-.019zm-3.38-3.38v-7.934c0-.772.301-1.496.847-2.043.425-.428.963-.704 1.549-.803v.191c0 .007-.004.012-.004.019v13.415c-1.357-.235-2.392-1.421-2.392-2.845zm-4.364 9.398h.058c2.804.007 5.052.508 6.699 1.477v1.531h-14.743c.479-.971 2.176-3.008 7.987-3.008zm6.76 5.645h-14.931v-1.648h14.931z"/><path d="m17.897 44.084c-.012-.305-.229-1.198-1.136-2.104-1.078-1.076-3.343-2.356-8.018-2.356h-.059c-2.712.008-4.958.457-6.697 1.334v-5.926c1.899-.246 3.376-1.856 3.376-3.822v-7.934c0-1.033-.403-2.006-1.133-2.737-.728-.732-1.7-1.135-2.739-1.135-.272 0-.492.22-.492.492v14.694c0 .007.004.012.004.019v9.485c0 .007-.004.012-.004.019v2.633c0 .272.22.492.492.492h2.979c-.054.085-.089.182-.082.29.195 2.856.121 10.592-2.529 12.058-.237.132-.324.431-.192.669.089.162.258.254.431.254.081 0 .162-.02.238-.062 3.737-2.068 3.066-12.542 3.035-12.987-.006-.083-.038-.156-.08-.223h3.295c-.048.076-.082.16-.082.257v11.934c0 .272.22.492.492.492s.492-.22.492-.492v-11.934c0-.096-.035-.181-.082-.257h3.533c-.041.066-.073.14-.079.223-.03.445-.703 10.919 3.036 12.987.076.041.158.062.238.062.173 0 .341-.091.431-.254.132-.238.045-.537-.192-.669-2.652-1.467-2.726-9.202-2.53-12.058.007-.108-.028-.205-.082-.29h3.646c.272 0 .492-.22.492-.492v-2.623c0-.005.003-.009.003-.014 0-.009-.005-.017-.005-.026zm-9.21-3.475h.058c5.821 0 7.514 2.044 7.99 3.009h-14.747v-1.532c1.646-.969 3.894-1.47 6.699-1.477zm-5.152-19.375c.545.546.846 1.271.846 2.042v7.934c0 1.424-1.035 2.61-2.392 2.845v-13.414c0-.007-.004-.012-.004-.019v-.192c.586.099 1.124.376 1.55.804zm13.381 25.021h-14.932v-1.649h14.931v1.649z"/></g></svg>