<svg id="Layer_1" viewBox="0 0 64 64" xmlns="http://www.w3.org/2000/svg" data-name="Layer 1"><path d="m61 2h-58c-.552 0-1 .448-1 1v58c0 .552.448 1 1 1h58c.552 0 1-.448 1-1v-58c0-.552-.448-1-1-1zm-57 2h27v56h-27zm56 56h-27v-56h27z"/><path d="m40.427 38.177c.256 0 .512-.098.707-.293l11.129-11.129c.391-.391.391-1.023 0-1.414s-1.023-.391-1.414 0l-11.129 11.129c-.391.391-.391 1.023 0 1.414.195.195.451.293.707.293z"/><path d="m51.624 31.825-5.419 5.419c-.391.391-.391 1.023 0 1.414.195.195.451.293.707.293s.512-.098.707-.293l5.419-5.419c.391-.391.391-1.023 0-1.414s-1.023-.391-1.414 0z"/><path d="m23.505 25.341c-.391-.391-1.023-.391-1.414 0l-11.129 11.129c-.391.391-.391 1.023 0 1.414.195.195.451.293.707.293s.512-.098.707-.293l11.129-11.129c.391-.391.391-1.023 0-1.414z"/><path d="m22.866 31.825-5.419 5.419c-.391.391-.391 1.023 0 1.414.195.195.451.293.707.293s.512-.098.707-.293l5.419-5.419c.391-.391.391-1.023 0-1.414s-1.023-.391-1.414 0z"/></svg>