<svg clip-rule="evenodd" fill-rule="evenodd" stroke-linejoin="round" stroke-miterlimit="2" viewBox="0 0 510 510" xmlns="http://www.w3.org/2000/svg"><path d="m57.072 189.456-4.414-.578c-3.819-.499-6.517-3.991-6.038-7.812l18.049-143.855c.319-2.553 2.033-4.78 4.529-5.698l53.018-19.502c1.098-.403 2.278-.526 3.435-.356l331.802 48.789c2.851.419 5.154 2.542 5.802 5.35.121.524.18 420.542.18 420.542 0 3.448-2.51 6.382-5.916 6.916 0 0-34.283 5.266-34.971 5.166l-367.68-53.637c-3.734-.545-6.364-3.95-5.947-7.7l13.537-121.726-7.492-.984c-3.668-.482-6.328-3.736-6.071-7.427zm20.598-143.407-16.292 129.85 355.18 46.459v-126.459zm338.888 190.428-345.578-45.202-7.661 110.073 353.239 46.429zm32.877-155.84-18.877 12.91v389.761s18.877-2.96 18.877-2.96zm-32.877 402.759v-121.498l-340.216-44.718-12.759 114.724zm21.156-411.704-312.337-45.926-25.538 9.393 322.028 47.371z"/></svg>