<?xml version="1.0" encoding="UTF-8"?>
<svg xmlns="http://www.w3.org/2000/svg" id="Icons" viewBox="0 0 60 60" width="512" height="512"><path d="M57.088,0H47.912a2.893,2.893,0,0,0-2.179,1H41.574A2.9,2.9,0,0,0,39.38,0H29.792a2.893,2.893,0,0,0-2.059.853h0L27.585,1H17.643L14.532.111a2.921,2.921,0,0,0-.8-.111H2.912A2.916,2.916,0,0,0,0,2.912v7.793A2.9,2.9,0,0,0,1,12.9v4.585a2.865,2.865,0,0,0-1,2.171v3.854A2.9,2.9,0,0,0,1,25.7v3.627a2.9,2.9,0,0,0-1,2.2v9.1a2.9,2.9,0,0,0,1,2.186v3.674a2.865,2.865,0,0,0-1,2.171v8.435A2.916,2.916,0,0,0,2.912,60h7.3a2.893,2.893,0,0,0,2.059-.853L12.415,59h7a2.863,2.863,0,0,0,2.2,1H33.705a2.864,2.864,0,0,0,2.173-1h4.111a2.888,2.888,0,0,0,2.193,1H57.088A2.916,2.916,0,0,0,60,57.088V44.449a2.882,2.882,0,0,0-1-2.178V38.68a2.9,2.9,0,0,0,1-2.2V35.023a2.889,2.889,0,0,0-1-2.167V26.8a2.86,2.86,0,0,0,1-2.175v-5.8a2.894,2.894,0,0,0-1-2.192V10.185a2.9,2.9,0,0,0,1-2.169v-5.1A2.916,2.916,0,0,0,57.088,0ZM47.912,2h9.176A.913.913,0,0,1,58,2.912v5.1a.916.916,0,0,1-.382.743l-5.126,3.66a.913.913,0,0,1-1.035.017l-4.051-2.7A.911.911,0,0,1,47,8.977V2.912A.913.913,0,0,1,47.912,2ZM29.792,2H39.38a.909.909,0,0,1,.9.762L40.9,6.47a.907.907,0,0,1-.118.619L38.932,10.17a.919.919,0,0,1-1.071.4L31.067,8.3a.911.911,0,0,1-.526-.456l-2.03-4.06a.911.911,0,0,1,.171-1.053l.465-.465A.906.906,0,0,1,29.792,2ZM2,2.912A.913.913,0,0,1,2.912,2h10.82a.9.9,0,0,1,.25.035l6.067,1.733a.914.914,0,0,1,.509.372L23.3,8.25A.914.914,0,0,1,23.185,9.4l-2.551,2.551a.912.912,0,0,1-.383.229h0l-8.9,2.67a.934.934,0,0,1-.6-.028L2.573,11.552A.908.908,0,0,1,2,10.705Zm.691,21.481A.912.912,0,0,1,2,23.507V19.653a.9.9,0,0,1,.379-.741.914.914,0,0,1,.53-.173.949.949,0,0,1,.291.048L8.933,20.7a.911.911,0,0,1,.526.456l.616,1.232a.912.912,0,0,1-.565,1.284L5.218,24.9a.911.911,0,0,1-.472.009ZM2.624,41.486A.907.907,0,0,1,2,40.622v-9.1a.908.908,0,0,1,.707-.888L13.4,28.166a.914.914,0,0,1,.728.142l8.486,5.939a.917.917,0,0,1,.39.748v3.657a.915.915,0,0,1-.605.86L10.286,43.836a.922.922,0,0,1-.6.007ZM10.208,58h-7.3A.913.913,0,0,1,2,57.088V48.653a.9.9,0,0,1,.379-.741.914.914,0,0,1,.53-.173.949.949,0,0,1,.291.048l6.31,2.1a.883.883,0,0,1,.158.071l4.662,2.664a.912.912,0,0,1,.193,1.437L11.3,57.291l0,0-.438.438A.906.906,0,0,1,10.208,58Zm5.73-2.522a2.914,2.914,0,0,0-.615-4.588l-4.662-2.664a2.853,2.853,0,0,0-.524-.234l-6.3-2.1A2.893,2.893,0,0,0,3,45.754V43.72l6.057,2.019a2.891,2.891,0,0,0,.922.15,2.93,2.93,0,0,0,.979-.169L23.067,41.4A2.918,2.918,0,0,0,25,38.652V34.995a2.918,2.918,0,0,0-1.242-2.386l-8.487-5.94a2.909,2.909,0,0,0-2.325-.452L3,28.512V26.531l1.262.316a2.937,2.937,0,0,0,.7.086,2.907,2.907,0,0,0,.8-.112L10.06,25.6a2.913,2.913,0,0,0,1.8-4.1l-.615-1.231A2.929,2.929,0,0,0,9.565,18.8L3.833,16.891A2.929,2.929,0,0,0,3,16.753V13.877l7.009,2.8a2.949,2.949,0,0,0,1.084.207,2.917,2.917,0,0,0,.834-.121l8.9-2.67a2.924,2.924,0,0,0,1.223-.731L24.6,10.815a2.918,2.918,0,0,0,.363-3.674l-2.74-4.11c-.007-.011-.017-.02-.025-.031h4.247a2.9,2.9,0,0,0,.278,1.68l2.029,4.059A2.929,2.929,0,0,0,30.435,10.2l6.793,2.265a2.95,2.95,0,0,0,.933.153A2.89,2.89,0,0,0,40.646,11.2L42.5,8.118a2.916,2.916,0,0,0,.376-1.976L42.347,3H45V8.977A2.9,2.9,0,0,0,46.3,11.4l4.05,2.7a2.925,2.925,0,0,0,3.308-.054L57,11.657V15.93a2.883,2.883,0,0,0-1.659.564l-.308.231A2.893,2.893,0,0,0,53.9,18.643L53.19,23.6a2.9,2.9,0,0,0,1.384,2.909l1.015.609A2.893,2.893,0,0,0,57,27.528v3.937l-6.03-4.02a2.911,2.911,0,0,0-1.391-.48l-10.892-.838a2.9,2.9,0,0,0-3.049,2.2l-1.346,5.383a2.925,2.925,0,0,0,.767,2.766l5.481,5.481a2.89,2.89,0,0,0,2.051.854,2.947,2.947,0,0,0,.675-.079L57,39.5v2.043a2.923,2.923,0,0,0-.619.083L43.44,44.859a2.922,2.922,0,0,0-1.663,1.133l-3.922,5.49a2.909,2.909,0,0,0-.235,2.995L38.882,57H36.609a2.893,2.893,0,0,0-.376-1.356l-1.961-3.433a2.927,2.927,0,0,0-1.821-1.379l-2.583-.645a2.907,2.907,0,0,0-1.854.148l-6.073,2.6a2.9,2.9,0,0,0-.908.617l-1.476,1.475A2.866,2.866,0,0,0,18.7,57H14.415ZM57.594,34.265a.911.911,0,0,1,.406.758v1.462a.908.908,0,0,1-.7.888L42.808,40.782a.911.911,0,0,1-.854-.242l-5.482-5.481a.916.916,0,0,1-.239-.867l1.346-5.383a.908.908,0,0,1,.883-.691c.024,0,.047,0,.071,0l10.894.838a.911.911,0,0,1,.434.15Zm-1.361-15.94.307-.229h0a.874.874,0,0,1,.536-.187.962.962,0,0,1,.419.1.889.889,0,0,1,.5.815v5.8a.912.912,0,0,1-1.381.782L55.6,24.8a.914.914,0,0,1-.434-.911l.709-4.96A.922.922,0,0,1,56.233,18.325ZM21.616,58a.912.912,0,0,1-.645-1.557l1.478-1.477a.906.906,0,0,1,.283-.193l6.07-2.6a.934.934,0,0,1,.581-.047l2.582.645a.924.924,0,0,1,.572.433l1.96,3.432A.912.912,0,0,1,33.705,58ZM58,57.088a.913.913,0,0,1-.912.912H42.182a.906.906,0,0,1-.816-.5l-1.957-3.914a.911.911,0,0,1,.073-.937l3.923-5.491a.917.917,0,0,1,.521-.355l12.941-3.236A.912.912,0,0,1,58,44.449Z"/><path d="M25.119,23.7a2.9,2.9,0,0,0,1.205-3.578l-.805-2.012a2.912,2.912,0,0,0-3.275-1.774l-5.465,1.094a2.911,2.911,0,0,0-1.759,4.6l.909,1.213a2.929,2.929,0,0,0,1.028.858l2.656,1.328a2.9,2.9,0,0,0,2.8-.108l2.7-1.622Zm-1.03-1.715-2.7,1.623a.908.908,0,0,1-.878.033l-2.657-1.328a.94.94,0,0,1-.322-.269l-.909-1.212a.912.912,0,0,1,.551-1.441l5.465-1.094a.91.91,0,0,1,1.026.556l.8,2.011A.909.909,0,0,1,24.089,21.98Z"/><path d="M29.758,20.94a2.909,2.909,0,0,0,1.717,1.209l4.906,1.227A2.911,2.911,0,0,0,40,20.551V18.3a2.9,2.9,0,0,0-1.831-2.7l-7.628-3.052a2.912,2.912,0,0,0-3.5,4.32ZM28.815,14.6a.914.914,0,0,1,.646-.268.927.927,0,0,1,.338.065l7.628,3.052A.908.908,0,0,1,38,18.3v2.256a.912.912,0,0,1-1.133.886L31.961,20.21a.918.918,0,0,1-.539-.38L28.7,15.75A.914.914,0,0,1,28.815,14.6Z"/><path d="M44.912,24h3.521a2.919,2.919,0,0,0,2.855-2.341l.422-2.111a2.905,2.905,0,0,0-1.411-3.1l-3.778-2.159A2.914,2.914,0,0,0,42.313,15.9h0l-.163.492a2.887,2.887,0,0,0-.15.922v3.777A2.916,2.916,0,0,0,44.912,24ZM44,17.311a.922.922,0,0,1,.047-.29l.164-.493a.914.914,0,0,1,1.318-.5l3.778,2.16a.911.911,0,0,1,.442.97l-.422,2.112a.915.915,0,0,1-.894.733H44.912A.913.913,0,0,1,44,21.088Z"/><path d="M28.912,37A2.916,2.916,0,0,0,26,39.912v2.509a2.894,2.894,0,0,0,.489,1.615L27.8,46.009a2.921,2.921,0,0,0,1.5,1.146l4.07,1.359a2.949,2.949,0,0,0,.922.149A2.908,2.908,0,0,0,36.626,47.5l1.267-1.688A2.9,2.9,0,0,0,37.8,42.2l-3.458-4.148A2.9,2.9,0,0,0,32.1,37Zm7.351,6.478a.91.91,0,0,1,.03,1.131L35.027,46.3a.915.915,0,0,1-1.018.318l-4.071-1.358a.917.917,0,0,1-.47-.359l-1.315-1.973A.906.906,0,0,1,28,42.421V39.912A.913.913,0,0,1,28.912,39H32.1a.906.906,0,0,1,.7.329Z"/><path d="M29.289,33.056A2.921,2.921,0,0,0,31.9,31.445l1.069-2.139A2.911,2.911,0,0,0,31.442,25.3l-2.189-.875a2.926,2.926,0,0,0-2.581.206l-1.686,1.011a2.913,2.913,0,0,0-.194,4.867l2.806,2A2.91,2.91,0,0,0,29.289,33.056ZM25.573,28.1a.9.9,0,0,1,.442-.747l1.686-1.01h0a.912.912,0,0,1,.47-.13.9.9,0,0,1,.338.065l2.19.876a.911.911,0,0,1,.477,1.254l-1.07,2.14a.914.914,0,0,1-1.346.335l-2.805-2A.9.9,0,0,1,25.573,28.1Z"/><path d="M21.087,50.817a2.906,2.906,0,0,0,1.081-.208l1.887-.754A2.913,2.913,0,0,0,25.3,45.4l-.643-.856a2.929,2.929,0,0,0-3.352-.981l-2.554.957a2.913,2.913,0,0,0-.279,5.332l1.31.656A2.912,2.912,0,0,0,21.087,50.817ZM18.866,47.2a.9.9,0,0,1,.591-.807l2.553-.957a.914.914,0,0,1,1.05.308l.643.857A.911.911,0,0,1,23.312,48l-1.886.754a.913.913,0,0,1-.747-.03l-1.31-.656A.9.9,0,0,1,18.866,47.2Z"/></svg>
