<svg id="Layer_1" enable-background="new 0 0 450 450" viewBox="0 0 450 450" xmlns="http://www.w3.org/2000/svg"><g><g><path d="m203.4 232.3c-3.9 0-7.4-1-10.4-3-5.4-3.6-8-9.5-9.2-14-6.4 1.7-11.9 1.2-16.6-1.6-6-3.7-8.6-10.2-9.7-14.8-7 .1-12.3-1.9-15.9-6-3.7-4.4-4.4-10-4.2-14.4-4.6 0-8.5-1.5-11.6-4.3-7.9-7.2-6.1-20.4-5.9-21.9.2-1.2.8-2.2 1.6-3l2.8-2.4 78.6-67.1c1.5-1.3 3.7-1.6 5.5-.7 32.4 16.2 43.5 9.2 45.2 7.9 0-2.9-8.3-12.2-22.9-19.6-2-1-3.1-3.3-2.6-5.5s2.4-3.8 4.6-3.9c6.6-.3 16.8.4 27.6 1.3 11.5.9 24.5 1.8 34.3 1.6 1.8-.1 3.6.9 4.5 2.5l44.6 77.3c1.3 2.3.6 5.3-1.6 6.7l-26.9 17.4c-2 1.3-4.6 1-6.3-.7l-14.8-14.8c-2.2-2.2-5.7-2.2-7.9 0-1 1-1.6 2.4-1.6 3.9s.6 2.9 1.6 3.9c2 1.9 2 5.1 0 7.1-2 1.9-5.1 1.9-7.1 0l-6.5-6.5c-2.2-2.2-5.7-2.2-7.9 0s-2.2 5.7 0 7.9l3.5 3.5c2 1.9 2 5.1 0 7.1-2 1.9-5.1 1.9-7.1 0-1-1-2.5-1.6-3.9-1.6-1.5 0-2.9.6-3.9 1.6-1 1.1-1.6 2.4-1.6 3.9s.6 2.9 1.6 3.9l4.4 4.4c2 1.9 2 5.1 0 7.1-2 1.9-5.1 1.9-7.1 0-2.2-2.2-5.7-2.2-7.9 0-1 1-1.6 2.4-1.6 3.9s.6 2.9 1.6 3.9l.6.6c1.1 1.1 1.6 2.6 1.4 4.1s-1 2.9-2.3 3.7l-27.8 18c-.3.2-.6.4-1 .5-3.3 1.3-6.9 2.1-10.2 2.1zm-15.6-28.8c.9 0 1.8.3 2.6.7 1.4.9 2.3 2.4 2.4 4 .1 2.5 1.4 9.8 5.8 12.7 2.7 1.8 6.6 1.8 11.6 0l22.9-14.8c-2.8-5.8-1.8-12.9 3-17.7 1.9-1.9 4.2-3.2 6.6-3.9-1.6-5.3-.3-11.3 3.9-15.5 2-2 4.5-3.4 7.3-4.1-1.1-5 .3-10.5 4.2-14.4 4.8-4.8 12-5.8 17.9-3 .8-2.1 2-3.9 3.6-5.5 6.1-6.1 16-6.1 22 0l11.9 11.9 19.5-12.6-40.8-70.6c-9.9.1-21.8-.8-32.4-1.6-2.9-.2-5.8-.4-8.6-.6 6.3 5.1 11.2 10.8 12.4 16 .9 4.1-.5 6.9-1.8 8.6-1.4 1.8-14.2 15.6-54.6-3.6l-76 64.9-1.3 1.1c-.2 3.2.2 8.8 2.9 11.3 1.9 1.7 5.1 2.1 9.6 1 1.7-.4 3.6.1 4.8 1.4s1.7 3.2 1.1 4.9c-.6 2.1-1.8 8.9 1.1 12.2 2.4 2.8 7.7 2.7 11.8 2.2 1.4-.2 2.8.2 3.9 1.1s1.7 2.2 1.8 3.6c.1 2.4 1.4 9.4 5.7 11.9 3 1.8 7.4 1.4 13.2-1.2.6-.3 1.3-.4 2-.4z"/></g><g><path d="m143.5 177.6c-1.5 0-3-.7-4-2-1.6-2.2-1.2-5.4 1.1-7l57-42.1c2.2-1.6 5.4-1.2 7 1.1s1.2 5.4-1.1 7l-57 42.1c-.9.6-1.9.9-3 .9z"/></g><g><path d="m161.8 198.4c-1.5 0-3-.7-4-2-1.6-2.2-1.2-5.4 1.1-7l51.1-37.8c2.2-1.6 5.4-1.2 7 1.1s1.2 5.4-1.1 7l-51.1 37.8c-.9.6-1.9.9-3 .9z"/></g><g><path d="m187.8 213.5c-1.5 0-3-.7-4-2-1.6-2.2-1.2-5.4 1.1-7l39.2-29c2.2-1.6 5.4-1.2 7 1.1s1.2 5.4-1.1 7l-39.2 29c-1 .5-2 .9-3 .9z"/></g><g><path d="m127.9 155.6c-1.2 0-2.4-.4-3.4-1.3l-17.2-15.9c-1.7-1.6-2.1-4.1-.9-6.2l42-72.7c1.2-2.1 3.7-3 5.9-2.2 10.5 3.5 30.6 7.8 47.6-3.3 14.1-9.2 44.4 8.2 55.6 20.4 8.9 9.7 6.5 15.9 4.3 18.8-1.4 1.8-14.2 15.6-54.6-3.6l-76 64.9c-1 .7-2.2 1.1-3.3 1.1zm-10.9-21.9 11 10.1 75.1-64.2c1.5-1.3 3.7-1.6 5.5-.7 32.8 16.4 44.1 8.8 45.2 7.9.1-1.9-4.4-8.3-15.6-15.4-14-9-27-11.8-30.9-9.2-18.5 12.1-39.4 9.3-52.3 5.6z"/></g><g><path d="m307.3 185.4c-4.2 0-8.1-1.6-11-4.6l-16.9-16.8c-2.9-2.9-4.5-6.8-4.5-11s1.6-8.1 4.5-11c6.1-6.1 16-6.1 22 0l16.9 16.9c6.1 6.1 6.1 16 0 22-3 2.9-6.9 4.5-11 4.5zm-20.8-36.3c-1 1.1-1.6 2.4-1.6 3.9s.6 2.9 1.6 3.9l16.9 16.9c1 1.1 2.5 1.6 3.9 1.6 1.5 0 2.9-.6 3.9-1.6 2.2-2.2 2.2-5.7 0-7.9l-16.9-16.9c-2.1-2.1-5.7-2.1-7.8.1z"/></g><g><path d="m298.8 206.9c-4.2 0-8.1-1.6-11-4.6l-29.8-29.8c-6.1-6.1-6.1-16 0-22 6.1-6.1 16-6.1 22 0l29.8 29.8c2.9 2.9 4.5 6.9 4.5 11 0 4.2-1.6 8.1-4.5 11-3 2.9-6.9 4.6-11 4.6zm-33.8-49.3c-2.2 2.2-2.2 5.7 0 7.9l29.8 29.8c2.2 2.2 5.7 2.2 7.9 0 1-1 1.6-2.4 1.6-3.9s-.6-2.9-1.6-3.9l-29.8-29.8c-2.2-2.3-5.7-2.3-7.9-.1z"/></g><g><path d="m280.3 218.3c-4 0-8-1.5-11-4.6l-22.8-22.7c-6.1-6.1-6.1-16 0-22 6.1-6.1 16-6.1 22 0l22.8 22.8c6.1 6.1 6.1 16 0 22-3 3-7 4.5-11 4.5zm-22.8-43.9c-1.4 0-2.9.5-3.9 1.6-2.2 2.2-2.2 5.7 0 7.9l22.8 22.8c2.2 2.2 5.7 2.2 7.9 0s2.2-5.7 0-7.9l-22.8-22.8c-1.1-1.1-2.5-1.6-4-1.6z"/></g><g><path d="m260.9 228.8c-4.2 0-8.1-1.6-11-4.6l-13.9-13.8c-6.1-6.1-6.1-16 0-22 2.9-2.9 6.8-4.6 11-4.6s8.1 1.6 11 4.6l13.9 13.9c2.9 2.9 4.5 6.9 4.5 11 0 4.2-1.6 8.1-4.5 11s-6.8 4.5-11 4.5zm-13.9-35c-1.5 0-2.9.6-3.9 1.6-2.2 2.2-2.2 5.7 0 7.9l13.9 13.9c2.2 2.2 5.7 2.2 7.9 0 1-1 1.6-2.4 1.6-3.9s-.6-2.9-1.6-3.9l-13.9-14c-1.1-1-2.5-1.6-4-1.6z"/></g><g><path d="m99.2 159.6c-.8 0-1.7-.2-2.5-.7l-30.9-17.9c-1.2-.7-2-1.8-2.3-3-.3-1.3-.2-2.6.5-3.8l65.7-113.9c1.4-2.4 4.4-3.2 6.8-1.8l30.9 17.8c1.1.7 2 1.8 2.3 3 .3 1.3.2 2.7-.5 3.8l-65.7 113.9c-.9 1.7-2.6 2.6-4.3 2.6zm-24.1-24.7 22.3 12.9 60.7-105.2-22.3-12.8z"/></g><g><path d="m351.3 168.3c-.4 0-.9-.1-1.3-.2-1.3-.3-2.4-1.2-3-2.3l-65.7-113.9c-1.4-2.4-.6-5.4 1.8-6.8l30.9-17.9c1.1-.7 2.5-.8 3.8-.5s2.4 1.2 3 2.3l65.7 113.9c.7 1.1.8 2.5.5 3.8s-1.2 2.4-2.3 3l-30.9 17.9c-.7.5-1.6.7-2.5.7zm-58.9-117.1 60.7 105.2 22.3-12.9-60.7-105.1z"/></g><g><path d="m231.9 133.4c-1.3 0-2.7-.5-3.7-1.6-1.9-2-1.8-5.2.3-7.1 30.3-28 63.3-12.7 64.7-12 2.5 1.2 3.5 4.2 2.4 6.7-1.2 2.5-4.2 3.6-6.6 2.4-1.2-.6-28.5-12.9-53.6 10.4-1.1.7-2.3 1.2-3.5 1.2z"/></g><g><path d="m79.3 343.3c-40.8 0-74.1-33.2-74.1-74.1s33.2-74.1 74.1-74.1 74.1 33.2 74.1 74.1c0 40.8-33.3 74.1-74.1 74.1zm0-138.2c-35.3 0-64.1 28.7-64.1 64.1 0 35.3 28.7 64.1 64.1 64.1s64.1-28.7 64.1-64.1c0-35.3-28.8-64.1-64.1-64.1z"/></g><g><path d="m127.5 323.7c-2.3 0-4.4-1.6-4.9-4-4.4-20.2-22.6-34.9-43.3-34.9s-39 14.7-43.3 34.9c-.6 2.7-3.2 4.4-5.9 3.8s-4.4-3.2-3.8-5.9c5.3-24.8 27.7-42.8 53.1-42.8s47.7 18 53.1 42.8c.6 2.7-1.1 5.4-3.8 5.9-.5.1-.9.2-1.2.2z"/></g><g><path d="m79.3 284.8c-17.6 0-31.9-14.3-31.9-31.9s14.3-31.9 31.9-31.9 31.9 14.3 31.9 31.9-14.3 31.9-31.9 31.9zm0-53.9c-12.1 0-21.9 9.8-21.9 21.9s9.8 21.9 21.9 21.9 21.9-9.8 21.9-21.9-9.8-21.9-21.9-21.9z"/></g><g><path d="m371.2 343.3c-40.8 0-74.1-33.2-74.1-74.1s33.2-74.1 74.1-74.1c40.8 0 74.1 33.2 74.1 74.1 0 40.8-33.2 74.1-74.1 74.1zm0-138.2c-35.3 0-64.1 28.7-64.1 64.1 0 35.3 28.7 64.1 64.1 64.1 35.3 0 64.1-28.7 64.1-64.1 0-35.3-28.7-64.1-64.1-64.1z"/></g><g><path d="m419.4 323.7c-2.3 0-4.4-1.6-4.9-4-4.4-20.2-22.6-34.9-43.3-34.9s-38.9 14.7-43.3 34.9c-.6 2.7-3.2 4.4-5.9 3.8s-4.4-3.2-3.8-5.9c5.4-24.8 27.7-42.8 53.1-42.8s47.7 18 53.1 42.8c.6 2.7-1.1 5.4-3.8 5.9-.5.1-.8.2-1.2.2z"/></g><g><path d="m371.2 284.8c-17.6 0-31.9-14.3-31.9-31.9s14.3-31.9 31.9-31.9 31.9 14.3 31.9 31.9-14.2 31.9-31.9 31.9zm0-53.9c-12.1 0-21.9 9.8-21.9 21.9s9.8 21.9 21.9 21.9 21.9-9.8 21.9-21.9-9.8-21.9-21.9-21.9z"/></g><g><path d="m225.3 433.6c-40.8 0-74.1-33.2-74.1-74.1s33.2-74.1 74.1-74.1 74.1 33.2 74.1 74.1c-.1 40.9-33.3 74.1-74.1 74.1zm0-138.1c-35.3 0-64.1 28.7-64.1 64.1 0 35.3 28.7 64.1 64.1 64.1s64.1-28.7 64.1-64.1c-.1-35.4-28.8-64.1-64.1-64.1z"/></g><g><path d="m273.5 414c-2.3 0-4.4-1.6-4.9-4-4.4-20.2-22.6-34.9-43.3-34.9s-38.9 14.7-43.3 34.9c-.6 2.7-3.2 4.4-5.9 3.8s-4.4-3.2-3.8-5.9c5.4-24.8 27.7-42.8 53.1-42.8s47.7 18 53.1 42.8c.6 2.7-1.1 5.4-3.8 5.9-.6.2-.9.2-1.2.2z"/></g><g><path d="m225.3 375.2c-17.6 0-31.9-14.3-31.9-31.9s14.3-31.9 31.9-31.9 31.9 14.3 31.9 31.9c0 17.5-14.3 31.9-31.9 31.9zm0-53.9c-12.1 0-21.9 9.8-21.9 21.9s9.8 21.9 21.9 21.9 21.9-9.8 21.9-21.9-9.8-21.9-21.9-21.9z"/></g></g></svg>