<svg enable-background="new 0 0 512 512" height="512" viewBox="0 0 512 512" width="512" xmlns="http://www.w3.org/2000/svg"><g id="_x31_8_House_Document"><g><path d="m53.422 308.831 10.464-10.334v161.205h-17.36c-10.097 0-18.301 8.191-18.301 18.298 0 10.116 8.208 18.344 18.301 18.344h330.673c9.845 0 18.301-7.955 18.301-18.344 0-10.091-8.208-18.298-18.301-18.298h-17.366v-34.907l3.624 1.352c13.976 5.232 29.529-1.791 34.777-15.843l105.84-283.775c5.222-13.901-1.772-29.521-15.846-34.785l-199.362-74.403c-14.006-5.171-29.588 1.967-34.757 15.902l-22.612 60.543-.161-.159c-10.708-10.611-28.19-10.622-38.959-.005l-56.513 55.832v-25.715h.681c6.988 0 12.67-5.702 12.67-12.71v-14.89c0-7.011-5.682-12.713-12.67-12.713h-69.061c-6.988 0-12.67 5.702-12.67 12.713v14.888c0 7.008 5.682 12.71 12.67 12.71h.681v92.598l-53.703 53.055c-10.959 10.806-10.986 28.351-.274 39.168 10.81 11.01 28.379 11.007 39.234.273zm331.669 169.168c0 4.472-3.609 7.936-7.893 7.936h-330.672c-4.35 0-7.893-3.56-7.893-7.936 0-4.315 3.513-7.89 7.893-7.89h330.673c4.35 0 7.892 3.54 7.892 7.89zm-173.214-325.656c66.829 66.017 80.21 79.235 137.547 135.875v171.463h-275.13v-171.397c14.07-13.902-50.961 50.353 137.583-135.941zm51.985-115.469c3.176-8.563 12.776-12.954 21.38-9.775l199.341 74.394c8.595 3.213 12.978 12.776 9.742 21.375v.01l-105.84 283.783c-3.224 8.612-12.729 12.969-21.385 9.735l-7.262-2.711v-115.156l10.459 10.322c9.822 9.662 25.363 10.936 36.737 1.788 13.656-10.994 13.26-30.32 2.258-41.255-7.546-7.452-83.434-82.401-94.541-93.37l103.287 38.508c2.704 1.008 5.696-.374 6.693-3.059 1.006-2.691-.361-5.689-3.054-6.693l-124.994-46.601-57.07-56.369zm-198.639 74.154v-14.889c0-1.271 1.016-2.305 2.262-2.305h69.061c1.245 0 2.262 1.034 2.262 2.305v14.888c0 1.271-1.016 2.302-2.262 2.302-25.183 0-44.07 0-69.061 0-1.246.001-2.262-1.031-2.262-2.301zm13.351 94.999v-82.29h46.882v35.998l-5.92 5.849zm-56.798 70.774 177.915-175.77c6.708-6.612 17.62-6.647 24.328-.005 50.111 49.495 119.993 118.52 177.955 175.77 6.711 6.644 6.811 17.717.137 24.458 0 .003-.005.005-.005.008-6.698 6.8-17.691 6.876-24.496.165-217.365-214.8-148.078-146.33-162.058-160.146-2.033-2.002-5.285-2.002-7.318 0-217.411 214.753-148.166 146.354-162.13 160.148-6.576 6.505-17.981 6.467-24.501-.175-6.642-6.7-6.726-17.66.173-24.453z"/><path d="m130.64 405.645c0 13.712 11.155 24.867 24.862 24.867h112.736c13.712 0 24.867-11.155 24.867-24.867v-112.734c0-13.712-11.155-24.867-24.867-24.867h-112.737c-13.706 0-24.862 11.155-24.862 24.867.001 24.877.001 47.044.001 112.734zm10.408 0v-51.162h65.605v65.62h-51.151c-7.969.001-14.454-6.487-14.454-14.458zm127.19 14.459h-51.177v-65.62h65.635v51.162c.001 7.97-6.484 14.458-14.458 14.458zm14.459-127.193v51.164h-65.635v-65.623h51.177c7.973.001 14.458 6.488 14.458 14.459zm-127.196-14.458h51.151v65.623h-65.605v-51.164c.001-7.972 6.486-14.459 14.454-14.459z"/><path d="m292.5 72.932 156.585 58.419c2.697 1.006 5.694-.367 6.693-3.057 1.006-2.694-.361-5.689-3.054-6.696l-156.585-58.419c-2.688-1.004-5.692.363-6.693 3.057-1.007 2.694.36 5.69 3.054 6.696z"/><path d="m433.569 172.935c2.697 1.006 5.694-.367 6.693-3.057 1.006-2.694-.361-5.689-3.054-6.696l-156.585-58.416c-2.694-1.006-5.692.363-6.693 3.057-1.006 2.694.361 5.689 3.054 6.696z"/></g></g></svg>