<svg id="Layer_1" enable-background="new 0 0 52 53" height="512" viewBox="0 0 52 53" width="512" xmlns="http://www.w3.org/2000/svg"><g id="_x36_3"><path d="m45.5510254 31.1647949h-2.7099609v-2.7666016c0-3.5483341 1.9902344-4.9334984 1.9902344-8.3930664 0-3.3299561-2.4591675-6.0889893-5.6552734-6.5759888v-5.7306518c0-.8823242-.7177734-1.6000977-1.5996094-1.6000977h-2.5473633v-1.5673827c0-.8818359-.7177734-1.5996094-1.6000977-1.5996094h-29.9501953c-.8823242 0-1.6000977.7177734-1.6000977 1.5996094v39.9204101c0 .8818359.7177734 1.5996094 1.6000977 1.5996094h2.5473632v2.4174805c0 .8823242.7177734 1.6000977 1.6000977 1.6000977h29.9501953c.8818359 0 1.5996094-.7177734 1.5996094-1.6000977v-2.4233399h5.4003906c1.8994141 0 3.4448242-1.5454102 3.4448242-3.4448242v-1.1655273h1.1000977c.5522461 0 1-.4477539 1-1v-4.699707c0-2.5200196-2.050293-4.5703126-4.5703125-4.5703126zm-10.1118164-4.1000976c1.1768188-.1876831 3.3348999-.4105225 5.4763794-.0258789-.0466309.4145508-.0745239.8570557-.0745239 1.359375v2.7666016h-5.3295898v-2.763672c-.0000001-.4935913-.0273438-.9283447-.0722657-1.3364257zm7.3920898-7.0595703c0 1.9380169-.9105186 3.3309193-1.4857788 5.0792236-2.5241699-.4675903-5.017334-.1959229-6.3322754.0221558-.578125-1.7660923-1.4920044-3.1693668-1.4920044-5.1013794 0-2.5698242 2.0859375-4.6601563 4.6499023-4.6601563 2.5698243 0 4.6601563 2.090332 4.6601563 4.6601563zm-5.6552734-11.9067383v5.3294678c-.7652588.1158447-1.4900513.3557129-2.1469727.710022v-6.0394898zm-33.2973633-3.1669922h29.1503906v10.8564453c-.9414673 1.149353-1.5078125 2.618103-1.5078125 4.2172852 0 3.4520779 1.9902344 4.8462753 1.9902344 8.3959961v2.7636719h-2.7099609c-2.5200195 0-4.5703125 2.050293-4.5703125 4.5703125v4.699707c0 .5522461.4477539 1 1 1h1.1000977v1.1655273c0 .5199585.1243286 1.0082397.3314209 1.4506836-17.7762737 0-20.1801643 0-24.7840576 0v-39.1196289zm33.2973633 43.137207h-29.1499024v-2.0175781c2.9809904-.0005989-10.7972565.0021706 29.1499023-.0058594v2.0234375zm8.8452148-5.4682617c0 .796875-.6479492 1.4448242-1.4448242 1.4448242h-12.8007812c-.7963867 0-1.4443359-.6479492-1.4443359-1.4448242v-1.1655273h15.6899414v1.1655273zm2.1000977-3.1655273h-1.1000977-17.6899414-1.1000977v-3.699707c0-1.4174805 1.152832-2.5703125 2.5703125-2.5703125h14.7495117c1.4174805 0 2.5703125 1.152832 2.5703125 2.5703125v3.699707z"/><path d="m7.8005371 10.2575684h21.3066406c.5522461 0 1-.4477539 1-1s-.4477539-1-1-1h-21.3066406c-.5522461 0-1 .4477539-1 1s.4477539 1 1 1z"/><path d="m7.8005371 14.8737793h21.3066406c.5522461 0 1-.4477539 1-1s-.4477539-1-1-1h-21.3066406c-.5522461 0-1 .4477539-1 1s.4477539 1 1 1z"/><path d="m7.8005371 19.489502h21.3066406c.5522461 0 1-.4477539 1-1s-.4477539-1-1-1h-21.3066406c-.5522461 0-1 .4477539-1 1s.4477539 1 1 1z"/><path d="m15.5661621 29.4431152c-2.0048828 0-3.6362305 1.6313477-3.6362305 3.6362305s1.6313477 3.6362305 3.6362305 3.6362305 3.6362305-1.6313477 3.6362305-3.6362305-1.6313477-3.6362305-3.6362305-3.6362305zm0 5.272461c-.9023438 0-1.6362305-.7338867-1.6362305-1.6362305s.7338867-1.6362305 1.6362305-1.6362305 1.6362305.7338867 1.6362305 1.6362305c0 .9174805-.71875 1.6362305-1.6362305 1.6362305z"/><path d="m15.5661621 24.5495605c-4.703125 0-8.5292969 3.8266602-8.5292969 8.5297852s3.8261719 8.5292969 8.5292969 8.5292969 8.5297852-3.8261719 8.5297852-8.5292969-3.8266602-8.5297852-8.5297852-8.5297852zm0 15.0590821c-3.6000977 0-6.5292969-2.9291992-6.5292969-6.5292969 0-3.6005859 2.9291992-6.5297852 6.5292969-6.5297852 3.6005859 0 6.5297852 2.9291992 6.5297852 6.5297852 0 3.6000977-2.9291993 6.5292969-6.5297852 6.5292969z"/></g></svg>