<svg id="Layer_2" viewBox="0 0 64 64" xmlns="http://www.w3.org/2000/svg" data-name="Layer 2"><path d="m34.53 8.91c-.19-.16-.46-.16-.65 0l-11.27 9.45c-.16.14-.22.36-.15.56s.26.33.48.33h4.01v8.88c0 .28.23.51.51.51h13.51c.28 0 .51-.23.51-.51v-8.88h4.01c.21 0 .4-.13.48-.33.07-.2.01-.43-.15-.56l-11.27-9.45zm-2.14 18.71v-4.32c0-1 .81-1.82 1.82-1.82s1.82.81 1.82 1.82v4.32h-3.63zm8.57-9.38c-.28 0-.51.23-.51.51v8.88h-3.42v-4.32c0-1.56-1.27-2.83-2.83-2.83s-2.83 1.27-2.83 2.83v4.32h-3.42v-8.88c0-.28-.23-.51-.51-.51h-3.12l9.88-8.28 9.88 8.28z"/><path d="m42.23 34.49h-21.49c-1.45 0-2.63 1.18-2.63 2.63s1.18 2.63 2.63 2.63h21.49c1.45 0 2.63-1.18 2.63-2.63s-1.18-2.63-2.63-2.63zm0 4.24h-21.49c-.89 0-1.61-.72-1.61-1.61s.72-1.61 1.61-1.61h21.49c.89 0 1.61.72 1.61 1.61s-.72 1.61-1.61 1.61z"/><path d="m41.62 44.33h-20.89c-1.45 0-2.63 1.18-2.63 2.63s1.18 2.63 2.63 2.63h20.89c1.45 0 2.63-1.18 2.63-2.63s-1.18-2.63-2.63-2.63zm0 4.24h-20.89c-.89 0-1.61-.72-1.61-1.61s.72-1.61 1.61-1.61h20.89c.89 0 1.61.72 1.61 1.61s-.72 1.61-1.61 1.61z"/><path d="m55.93 34.87v-26.1c0-3.45-2.8-6.25-6.25-6.25h-42.37s-.04 0-.06 0c-3.45 0-6.25 2.8-6.25 6.25 0 1.31.41 2.57 1.2 3.65.1.13.25.21.41.21h9.88v42.71c0 .28.23.51.51.51h37.35v5.11c0 .19.1.36.27.45.16.09.37.08.52-.02l4.28-2.84 4.28 2.84c.08.06.18.08.28.08.08 0 .17-.02.24-.06.17-.09.27-.26.27-.45v-12.95c1.59-1.44 2.51-3.47 2.51-5.61 0-4-3.13-7.28-7.07-7.54zm-53.05-23.25c-.56-.86-.86-1.84-.86-2.85 0-2.88 2.34-5.23 5.22-5.23h.03c2.87.02 5.21 2.36 5.21 5.23v.03 2.82zm10.63 43.22v-46.07s0-.03 0-.04c-.01-2.17-1.14-4.08-2.84-5.19h39.02c2.88 0 5.23 2.35 5.23 5.23v26.1c-3.94.26-7.06 3.54-7.06 7.54 0 2.14.91 4.17 2.49 5.61v6.82zm45.97 5.18-3.78-2.5c-.09-.06-.18-.08-.28-.08s-.2.03-.28.08l-3.78 2.5v-11.22s.06.03.09.05c1.18.73 2.56 1.14 3.97 1.14s2.78-.4 3.97-1.13c.03-.02.06-.03.08-.04v11.22zm.18-12.6c-1.19 1-2.69 1.55-4.24 1.55s-3.05-.55-4.22-1.55c-.02-.02-.04-.03-.07-.05-1.44-1.25-2.26-3.05-2.26-4.95 0-3.61 2.94-6.55 6.55-6.55s6.56 2.94 6.56 6.55c0 1.92-.85 3.74-2.33 5z"/></svg>