<?xml version="1.0"?>
<svg xmlns="http://www.w3.org/2000/svg" id="Icons" viewBox="0 0 60 60"><path d="M58,52H52V42.414A27.989,27.989,0,0,0,34.628.8L34.12.525l-.075.14A27.992,27.992,0,1,0,25.1,55.837a5.1,5.1,0,0,0,4.434,4.141c.154.011.32.022.475.022H55a5.006,5.006,0,0,0,5-5V54A2,2,0,0,0,58,52ZM52,37.982V21.5c.217-.583.43-1.177.64-1.775A25.9,25.9,0,0,1,52,37.982ZM51.492,16.87c-.2.609-.4,1.216-.606,1.816A2.972,2.972,0,0,0,49,18H40.649A3.464,3.464,0,0,0,41,16.5,3.5,3.5,0,0,0,37.5,13H31.683a1.2,1.2,0,0,1-1.059-1.771l4.443-8.245A26.112,26.112,0,0,1,51.492,16.87ZM6.783,13H13.66a1.32,1.32,0,0,1,1.1,2.057l-3.065,4.611A4.009,4.009,0,0,0,11,21.93,2.073,2.073,0,0,1,8.93,24H2.308A25.851,25.851,0,0,1,6.783,13ZM4.446,38.964l1.632-2.6a4.962,4.962,0,0,1,1.828-1.726,5.065,5.065,0,0,1,5.009.084l5.252,3.15a5.852,5.852,0,0,1,2.833,5v2.3a3.525,3.525,0,0,1-.768,2.331A5.734,5.734,0,0,0,19,51.11v1.277A26.19,26.19,0,0,1,4.446,38.964ZM25,21V53.819a25.747,25.747,0,0,1-4-.782V51.11a3.726,3.726,0,0,1,.777-2.339A5.491,5.491,0,0,0,23,45.17v-2.3a7.86,7.86,0,0,0-3.806-6.718L13.942,33a7.112,7.112,0,0,0-7-.12A6.957,6.957,0,0,0,4.383,35.3l-.874,1.393A25.775,25.775,0,0,1,2,28c0-.674.034-1.339.085-2H8.93A4.075,4.075,0,0,0,13,21.93a2.02,2.02,0,0,1,.353-1.146l3.068-4.618A3.32,3.32,0,0,0,13.66,11H8.352A25.943,25.943,0,0,1,33.057,2.5L28.863,10.28A3.2,3.2,0,0,0,31.683,15H37.5a1.5,1.5,0,0,1,0,3H28A3,3,0,0,0,25,21Zm8,33v1a3,3,0,0,1-2.99,3c-.106,0-.219-.009-.3-.015A3.12,3.12,0,0,1,27,54.83V21a1,1,0,0,1,1-1H49a1,1,0,0,1,1,1V52H35A2,2,0,0,0,33,54Zm25,1a3,3,0,0,1-3,3H34a4.985,4.985,0,0,0,1-3V54l23,0Z"/><path d="M47,50a1,1,0,0,0,0-2c-9.1,0-11.1-3.43-11.1-3.447a1,1,0,0,0-1.865.205A4.265,4.265,0,0,1,30,48a1,1,0,0,0,0,2,6.32,6.32,0,0,0,5.336-3.133C36.906,48.2,40.269,50,47,50Z"/><path d="M31,41H46a1,1,0,0,0,0-2H31a1,1,0,0,0,0,2Z"/><path d="M31,36H46a1,1,0,0,0,0-2H31a1,1,0,0,0,0,2Z"/><path d="M31,31h9a1,1,0,0,0,0-2H31a1,1,0,0,0,0,2Z"/></svg>
