<svg id="Layer_1" enable-background="new 0 0 511.554 511.554" height="512" viewBox="0 0 511.554 511.554" width="512" xmlns="http://www.w3.org/2000/svg"><g><g><path d="m255.777 163.342c22.237 0 40.329-18.092 40.329-40.33-2.028-53.429-78.639-53.414-80.659.001 0 22.237 18.092 40.329 40.33 40.329zm0-65.659c13.966 0 25.329 11.363 25.329 25.329-1.273 33.557-49.39 33.548-50.659 0 0-13.966 11.363-25.329 25.33-25.329z"/><path d="m255.777 62.867c4.142 0 7.5-3.358 7.5-7.5v-27.593c-.307-9.916-14.696-9.909-15 0v27.593c0 4.142 3.358 7.5 7.5 7.5z"/><path d="m248.277 190.657v27.593c.307 9.916 14.696 9.909 15 0v-27.593c-.308-9.916-14.696-9.909-15 0z"/><path d="m160.538 130.512h27.593c9.916-.307 9.909-14.696 0-15h-27.593c-9.916.308-9.909 14.696 0 15z"/><path d="m315.922 123.012c0 4.142 3.358 7.5 7.5 7.5h27.593c9.916-.307 9.909-14.696 0-15h-27.593c-4.142 0-7.5 3.358-7.5 7.5z"/><path d="m202.641 165.542-9.756 9.756c-2.929 2.929-2.929 7.678 0 10.606 2.929 2.929 7.678 2.929 10.606 0l9.756-9.756c2.929-2.929 2.929-7.678 0-10.606-2.928-2.929-7.677-2.929-10.606 0z"/><path d="m303.609 82.68c1.919 0 3.839-.732 5.303-2.197l9.756-9.756c2.929-2.929 2.929-7.678 0-10.606-2.929-2.929-7.678-2.929-10.606 0l-9.756 9.756c-2.929 2.929-2.929 7.678 0 10.606 1.464 1.465 3.383 2.197 5.303 2.197z"/><path d="m308.062 185.904c2.929 2.929 7.678 2.929 10.606 0 2.929-2.929 2.929-7.678 0-10.606l-9.756-9.756c-2.929-2.929-7.678-2.929-10.606 0-2.929 2.929-2.929 7.678 0 10.606z"/><path d="m202.641 80.484c2.929 2.929 7.678 2.929 10.606 0 2.929-2.929 2.929-7.678 0-10.606l-9.756-9.756c-2.929-2.929-7.678-2.929-10.606 0-2.929 2.929-2.929 7.678 0 10.606z"/><path d="m499.825 405.341c6.467 0 11.729-5.261 11.729-11.729v-25.576c0-6.467-5.261-11.729-11.729-11.729h-7.811c-57.197-25.001-74.57-95.867-76.282-103.486v-42.307c0-4.219-3.483-7.624-7.731-7.497-4.105.123-7.269 3.704-7.269 7.811v145.479h-19.033v-200.409h19.033v19.825c0 4.219 3.483 7.624 7.731 7.497 4.105-.123 7.269-3.704 7.269-7.811v-22.888c0-6.419-5.204-11.623-11.623-11.623h-25.79c-6.418 0-11.62 5.202-11.62 11.62v98.225c-61.986 53.005-160.398 52.522-221.845-1.128v-97.095c0-6.409-5.214-11.623-11.623-11.623h-25.788c-6.409 0-11.623 5.214-11.623 11.623v100.308c-1.696 7.609-18.93 78.417-76.282 103.48h-7.811c-6.466.001-11.727 5.262-11.727 11.729v25.576c0 6.467 5.261 11.729 11.729 11.729h84.093v62.582c-6.989 4.496-13.331 8.277-26.131 8.277-13.297 0-19.623-4.08-26.947-8.803-8.139-5.249-17.362-11.197-35.078-11.197-4.142 0-7.5 3.358-7.5 7.5s3.358 7.5 7.5 7.5c13.298 0 19.624 4.08 26.948 8.803 19.973 14.973 50.262 14.921 70.155-.001 7.325-4.723 13.651-8.803 26.949-8.803s19.624 4.08 26.948 8.803c19.924 14.959 50.28 14.927 70.155 0 7.324-4.723 13.65-8.803 26.947-8.803 13.298 0 19.624 4.08 26.948 8.803 19.974 14.973 50.263 14.921 70.157-.001 7.325-4.723 13.651-8.803 26.95-8.803s19.625 4.08 26.951 8.803c19.926 14.96 50.284 14.926 70.161 0 7.325-4.724 13.652-8.803 26.951-8.803 4.142 0 7.5-3.358 7.5-7.5s-3.358-7.5-7.5-7.5c-17.716 0-26.941 5.949-35.08 11.197-7.326 4.724-13.652 8.803-26.952 8.803-12.795 0-19.138-3.778-26.124-8.271v-62.589h84.095zm-84.093-108.102c.717 1.493 1.465 3.003 2.245 4.527 11.715 22.899 26.833 41.362 44.49 54.543h-46.735zm-74.741-11.873c8.945-4.504 17.542-9.74 25.708-15.658v86.601h-25.708zm-38.857 14.446c8.121-2.035 16.091-4.609 23.857-7.702v64.198h-23.857zm-38.857 5.502c8.029-.292 15.996-1.096 23.857-2.397v53.392h-23.857zm-38.858-2.621c7.858 1.358 15.824 2.227 23.857 2.576v51.04h-23.857zm-38.857-11.124c7.762 3.16 15.731 5.799 23.857 7.899v56.842h-23.857zm-40.708-22.844c8.158 6.024 16.756 11.355 25.708 15.954v71.629h-25.708zm-34.032-112.827h19.033v200.411h-19.033zm-17.245 145.868c.78-1.524 1.527-3.035 2.245-4.527v59.07h-46.735c17.657-13.181 32.775-31.644 44.49-54.543zm36.277 154.474c-7.82.193-13.941 1.564-19.033 3.506v-54.405h19.033zm270.878 3.51c-5.092-1.944-11.212-3.316-19.033-3.51v-50.899h19.033zm-193.365-69.409c-9.916.307-9.909 14.696 0 15h159.333v52.145c-9.695 2.03-16.114 6.145-21.954 9.911-7.325 4.724-13.651 8.803-26.95 8.803s-19.624-4.08-26.949-8.803c-19.924-14.959-50.28-14.927-70.155 0-7.324 4.723-13.65 8.803-26.947 8.803-13.298 0-19.624-4.08-26.948-8.803-5.838-3.764-12.253-7.878-21.941-9.909v-52.147h27.642c9.916-.307 9.909-14.696 0-15h-157.498v-19.033h475.402c.022.001.044.003.067 0h6.085v19.033z"/></g></g></svg>