<svg id="Icons" viewBox="0 0 512 512" xmlns="http://www.w3.org/2000/svg"><path d="m503.9064 180.1484c4.4219 0 8-3.5781 8-8v-41.2578c0-5.7383-3.1641-10.9531-8.2578-13.6055-5.1094-2.6563-11.2031-2.2656-15.9219 1.0313l-60.3682 42.2061c-7.5576-87.9767-81.4649-157.2883-171.3585-157.2883-17.4844 0-34.7266 2.6094-51.25 7.7617-4.2188 1.3125-6.5703 5.7969-5.2578 10.0156 1.3203 4.2188 5.7813 6.5625 10.0234 5.2578 12.4492-3.8804 25.3687-6.0737 38.4844-6.7363v136.505l-58.0391-58.042c-3.125-3.125-8.1875-3.125-11.3125 0s-3.125 8.1875 0 11.3125l58.0401 58.043h-78.7823c-4.4219 0-8 3.5781-8 8s3.5781 8 8 8h254.2033v155.8595h-18.125c.9292-3.3789 1.4922-6.8672 1.4922-10.4453 0-21.7188-17.6719-39.3906-39.3906-39.3906-3.6328 0-7.2422.5-10.7344 1.4766-4.25 1.1953-6.7344 5.6094-5.5391 9.8672s5.6094 6.7344 9.8672 5.5391c2.0859-.5859 4.2344-.8828 6.4063-.8828 12.8984 0 23.3906 10.4922 23.3906 23.3906 0 3.667-.8433 7.2192-2.46 10.4453h-41.8657c-1.6133-3.2197-2.4556-6.773-2.4556-10.4453 0-3.8125.8828-7.4375 2.625-10.7734 2.0391-3.9219.5234-8.75-3.3906-10.7969-3.9375-2.0469-8.75-.5234-10.7969 3.3906-2.9063 5.5703-4.4375 11.8516-4.4375 18.1797 0 3.5786.5625 7.0674 1.4907 10.4453h-42.5923l-37.8203-39.875c-3.0313-3.1953-8.1016-3.3359-11.3125-.2969-3.2031 3.0391-3.3359 8.1016-.2969 11.3125l27.3721 28.8594h-38.8643c-4.4219 0-8 3.5781-8 8s3.5781 8 8 8h197.4376v58.9937c-6.0225-4.3691-13.3228-7.0737-21.25-7.3374-3.1719-16.4297-17.6563-28.875-34.9922-28.875-13.0234 0-24.586 6.9375-30.8047 17.8984-1.5781-.2813-3.1719-.4297-4.7813-.4297-15.3125 0-27.7735 12.4531-27.7735 27.7656 0 4.1953.9922 8.3359 2.9531 12.2969 1.9609 3.9375 6.75 5.5703 10.7266 3.6172 3.9531-1.9688 5.5781-6.7656 3.6172-10.7266-.8594-1.7266-1.2969-3.4766-1.2969-5.1875 0-8.3047 8.9688-14.6719 17.2422-10.3281 2.1094 1.1172 4.6328 1.2266 6.8359.3047 2.2109-.9297 3.8906-2.8047 4.5703-5.1094 2.4922-8.4297 10.0156-14.1016 18.7109-14.1016 10.8281 0 19.6328 8.8125 19.6094 19.6563-.0234.1641-.1328 1.0703-.1406 1.2344-.1875 2.5078.8047 4.9531 2.6953 6.6094 1.875 1.6563 4.4453 2.3281 6.8906 1.8281 14.0313-2.8438 27.1875 8.1172 27.1875 22.0938v10.75l-134.336-.3281c-4.6016-2.2422-7.5078-6.8203-7.5078-11.9844 0-7.3984 6.0156-13.4141 13.4141-13.4141 4.4219 0 8-3.5781 8-8s-3.5781-8-8-8c-16.2188 0-29.4141 13.1953-29.4141 29.4141 0 4.3433 1.0171 8.5313 2.8013 12.3359h-157.1841v-100.9766h71.0157c4.4219 0 8-3.5781 8-8s-3.5781-8-8-8h-71.0157v-47.96l26.7735-36.4932 34.1953 36.9531c2.8281 3.0781 7.5313 3.4141 10.8047.875l21.6172-16.9141 15.5859 16.4375c3.0469 3.2031 8.1094 3.3438 11.3125.2969 3.2031-3.0391 3.3359-8.1016.2969-11.3125l-20.5938-21.711c-2.8281-2.9922-7.4844-3.3125-10.7344-.7969l-21.5469 16.8594-35.7735-38.6641c-1.625-1.7578-3.9375-2.6953-6.3281-2.5547-2.3828.1328-4.5859 1.3281-6 3.25l-19.6094 26.7202v-80.8453h26.4219c4.4219 0 8-3.5781 8-8s-3.5781-8-8-8h-26.1782c1.856-36.0303 16.1817-70.0821 40.02-96.542l15.8535 15.8506c1.5625 1.5625 3.6094 2.3438 5.6563 2.3438s4.0938-.7813 5.6563-2.3438c3.125-3.125 3.125-8.1914 0-11.3125l-15.9014-15.8984c4.6699-4.2212 9.6182-8.1826 14.8311-11.8516 3.6172-2.543 4.4844-7.5352 1.9375-11.1484-2.5391-3.6094-7.5313-4.4766-11.1406-1.9375-41.731 29.3696-68.0611 75.6851-72.4351 125.9903l-60.3384-42.1817c-4.7031-3.293-10.8047-3.6992-15.9063-1.0391-5.1015 2.6524-8.2656 7.8673-8.2656 13.6095v105.2579c0 4.4219 3.5781 8 8 8s8-3.5781 8-8v-104.0196l67.7891 47.3907v279.6755l-67.7891 33.1802v-220.547c0-4.4219-3.5781-8-8-8s-8 3.578-8 7.9998v221.5783c0 5.3281 2.7031 10.1953 7.2266 13.0156 2.4922 1.5625 5.3047 2.3438 8.125 2.3438 2.3047 0 4.6094-.5156 6.7656-1.5703l71.5274-35.0078h324.5158l71.5274 35.0078c2.1563 1.0547 4.4609 1.5703 6.7656 1.5703 2.8203 0 5.6406-.7813 8.1328-2.3438 4.5234-2.8203 7.2266-7.6875 7.2266-13.0156v-289.9299c0-4.4219-3.5781-8-8-8s-8 3.5781-8 8v288.8986l-67.7969-33.1802v-279.6754l67.7969-47.3946v40.0235c0 4.4219 3.5781 8 8 8zm-239.9064-160.5089c37.0044 1.8896 70.5796 16.6563 96.4112 39.9883l-96.4112 96.4112zm107.7232 51.3013c23.3277 25.832 38.0918 59.4068 39.981 96.4107h-136.3917zm106.4488 249.903h-33.2422c-4.4219 0-8 3.5781-8 8v121.2969c0 3.1875 1.8906 6.0625 4.8125 7.3359l33.2422 14.4609c1.0156.4453 2.1016.6641 3.1875.6641 1.5313 0 3.0625-.4453 4.3828-1.3125 2.2578-1.4766 3.6172-3.9922 3.6172-6.6875v-135.7579c0-4.4219-3.5781-8-8-8zm-8 131.5548-17.2422-7.5v-108.0548h17.2422zm16-283.3205c0-2.9063-1.5781-5.5859-4.1172-7-2.5313-1.3906-5.6484-1.3203-8.1172.2109l-33.2422 20.7578c-2.3438 1.4688-3.7656 4.0313-3.7656 6.7891v115.0079c0 4.4219 3.5781 8 8 8h33.2422c4.4219 0 8-3.5781 8-8zm-16 127.7657h-17.2422v-102.5704l17.2422-10.7656zm-444.344 167.7579c0 2.6953 1.3594 5.2109 3.6172 6.6875 1.3203.8672 2.8438 1.3125 4.3828 1.3125 1.0859 0 2.1719-.2188 3.1953-.6641l33.2344-14.4609c2.9141-1.2734 4.8047-4.1484 4.8047-7.3359v-121.2969c0-4.4219-3.5781-8-8-8h-33.2344c-4.4219 0-8 3.5781-8 8v135.7579zm16-127.7579h17.2344v108.0548l-17.2344 7.5zm-8-24h33.2344c4.4219 0 8-3.5781 8-8v-115.0079c0-2.7578-1.4219-5.3203-3.7656-6.7891l-33.2344-20.7578c-2.4609-1.5391-5.5703-1.6094-8.1172-.2109-2.5391 1.4141-4.1172 4.0938-4.1172 7v135.7657c0 4.4219 3.5781 8 8 8zm8-129.336 17.2344 10.7656v102.5704h-17.2344zm253.6349 74.7969c.9707 11.5713 10.5855 20.7188 22.4043 20.7188h24.8125c12.4609 0 22.5938-10.1328 22.5938-22.5938s-10.1328-22.6016-22.5938-22.6016h-22.6514c-.7505-12.0459-10.687-21.6406-22.9111-21.6406h-1.6797c-2.8828-6.2969-9.1328-10.75-16.4297-11.0391-3.4609-8.1719-11.5625-13.9141-20.9766-13.9141-10.9141 0-20.0547 7.7266-22.2578 17.9922-13.2734 1.5-23.625 12.7891-23.625 26.4531 0 14.6797 11.9453 26.625 26.625 26.625h56.6895zm53.8106-1.875c0 3.6328-2.9609 6.5938-6.5938 6.5938h-24.8125c-3.6328 0-6.5938-2.9609-6.5938-6.5938 0-3.6406 2.9609-6.6016 6.5938-6.6016h24.8125c3.6328 0 6.5938 2.9609 6.5938 6.6016zm-121.1251-24.75c0-5.8516 4.7656-10.6172 10.625-10.6172.8203 0 1.7422.1484 2.8906.4766 2.7891.7891 5.7578.0156 7.8047-2.0078 2.0547-2.0313 2.8516-5.0078 2.0938-7.7891-.1953-.7266-.2891-1.2813-.2891-1.7422 0-3.7344 3.0313-6.7656 6.7578-6.7656 3.7344 0 6.7656 3.0313 6.8047 6.0391-.0234.1953-.0781.6641-.0938.8594-.2031 2.9609 1.2578 5.7969 3.7813 7.3516 2.5234 1.5625 5.7031 1.6016 8.2734.0781 2.0391-1.1797 4.2031.2969 4.3359 2.2656-.0078.125-.0078.2422-.0078.3594 0 4.4219 3.5781 8 8 8h7.9922c3.8906 0 7.0547 3.1719 7.0547 7.0625s-3.1641 7.0547-7.0547 7.0547h-58.3438c-5.8594 0-10.625-4.7656-10.625-10.625zm-81.6016 152.6485h-29.625c-4.4219 0-8-3.5781-8-8s3.5781-8 8-8h29.625c4.4219 0 8 3.5781 8 8s-3.5781 8-8 8zm113.6016 0h-45.4844c-4.4219 0-8-3.5781-8-8s3.5781-8 8-8h45.4844c4.4219 0 8 3.5781 8 8s-3.5781 8-8 8zm-85.3281 0c-4.4219 0-8-3.5781-8-8s3.5781-8 8-8h12.1016c4.4219 0 8 3.5781 8 8s-3.5781 8-8 8zm-65.8985 52.7735c0-4.4219 3.5781-8 8-8h40.9844c4.4219 0 8 3.5781 8 8s-3.5781 8-8 8h-40.9844c-4.4219 0-8-3.5781-8-8zm100.5782 0c0 4.4219-3.5781 8-8 8h-8.3125c-4.4219 0-8-3.5781-8-8s3.5781-8 8-8h8.3125c4.4219 0 8 3.5781 8 8zm1.8125-30.3907c0 4.4219-3.5781 8-8 8h-28.2578c-4.4219 0-8-3.5781-8-8s3.5781-8 8-8h28.2578c4.4219 0 8 3.5781 8 8zm-73.8985-8c4.4219 0 8 3.5781 8 8s-3.5781 8-8 8h-11.1094c-4.4219 0-8-3.5781-8-8s3.5781-8 8-8zm104.0391 0c4.4219 0 8 3.5781 8 8s-3.5781 8-8 8h-9.1953c-4.4219 0-8-3.5781-8-8s3.5781-8 8-8z"/></svg>