<?xml version="1.0" encoding="UTF-8"?>
<svg xmlns="http://www.w3.org/2000/svg" id="Line_Expand" data-name="Line Expand" viewBox="0 0 64 64" width="512" height="512"><path d="M9.24,53H6a1,1,0,0,0,0,2H9.24a1,1,0,1,0,0-2Z"/><path d="M27,57H25a1,1,0,0,0,0,2h2a1,1,0,0,0,0-2Z"/><path d="M20.76,44h-6a1,1,0,1,0,0,2h6a1,1,0,1,0,0-2Z"/><path d="M37,57H31a1,1,0,0,0,0,2h6a1,1,0,0,0,0-2Z"/><path d="M13,10A5,5,0,1,0,8,5,5,5,0,0,0,13,10Zm0-8a3,3,0,1,1-3,3A3,3,0,0,1,13,2Z"/><path d="M63,32H60.78V28.41h0a2.5,2.5,0,0,0,1.46-4.53l-8.87-6.34a48.65,48.65,0,0,0-5.6-11.12,1,1,0,0,0-1.64,0,48.53,48.53,0,0,0-5.47,10.74H38.78a1,1,0,0,0-.58.18l-1.86,1.33A38.91,38.91,0,0,0,31.8,10.4,1,1,0,0,0,31,10h0a1,1,0,0,0-.8.4,38,38,0,0,0-2.48,3.9C26.62,11.31,24.77,8,22,8c-2.23,0-4.28,2.33-5.79,6.48C15.35,13,14.28,12,13,12c-1.92,0-3.24,2.12-4.12,4.52l-2-4a1,1,0,0,0-1.79,0l-5,10A1,1,0,0,0,1,24h.88L.11,27.55A1,1,0,0,0,1,29h.88L.11,32.55A1,1,0,0,0,0,33V63a1,1,0,0,0,1,1H63a1,1,0,0,0,1-1V33A1,1,0,0,0,63,32ZM47,8.82a48.49,48.49,0,0,1,4.16,8.34H42.84A48.49,48.49,0,0,1,47,8.82Zm5.24,10.34h0l8.89,6.35a.5.5,0,0,1-.3.9H49.51a2.5,2.5,0,0,0-1-2.53l-6.62-4.72ZM53,32c-1.56,0-2.81,4-3.47,7H46.78V28.41h12V39H56.47C55.81,36,54.56,32,53,32Zm2,10a2,2,0,0,1-4,0,30.83,30.83,0,0,1,2-7.39A30.83,30.83,0,0,1,55,42ZM38.78,19.38l8.57,6.13a.5.5,0,0,1,.12.7.51.51,0,0,1-.7.11L39.36,21a1,1,0,0,0-1.15,0l-7.42,5.28a.5.5,0,1,1-.58-.81Zm0,8.62a4,4,0,0,0-4,4v7h-2V27.36l6-4.29,6,4.29V39h-2V32A4,4,0,0,0,38.78,28Zm2,4v7h-4V32a2,2,0,0,1,4,0ZM31,12.76a37,37,0,0,1,3.65,7.11l-5.6,4a2.5,2.5,0,0,0,1.45,4.53l.28,0V32h-4A15.76,15.76,0,0,1,26,26.38C26,21,29.41,15.17,31,12.76ZM22,10c1.5,0,3.23,2.66,4.44,6.79A23.65,23.65,0,0,0,24,26.38,18.8,18.8,0,0,0,24.71,32H18.78A26.55,26.55,0,0,0,19,28.38a38.92,38.92,0,0,0-1.59-11.06C18.79,12.27,20.7,10,22,10ZM11.9,27.55,10.12,24H11a1,1,0,0,0,.9-1.45L10.17,19.1c1-3.73,2.23-5.1,2.83-5.1,1.58,0,4,6.44,4,14.38A24.29,24.29,0,0,1,16.76,32H11.62l-1.5-3H11A1,1,0,0,0,11.9,27.55ZM6,15.24,9.38,22H2.62ZM4.12,24H7.88l1.5,3H2.62Zm0,5H7.88l1.5,3H2.62ZM62,62H2V39H7a1,1,0,0,0,0-2H2V34H23.3a5.28,5.28,0,0,0-.67,1.21A5,5,0,0,0,24,40.71a54.5,54.5,0,0,1,7.58,8.22c4.08,5.53,9.86,7,14.94,7A31.9,31.9,0,0,0,57.65,53.8L62,52Zm0-12.2L56.87,52c-.16.07-15.74,6.61-23.73-4.22a56.89,56.89,0,0,0-7.85-8.51,3,3,0,0,1,2-5.23h3.48v6a1,1,0,0,0,1,1H49.13A9.88,9.88,0,0,0,49,42a4,4,0,0,0,3,3.86V50a1,1,0,0,0,2,0V45.86A4,4,0,0,0,57,42a9.88,9.88,0,0,0-.13-1h2.91a1,1,0,0,0,1-1V34H62Z"/></svg>
