<svg id="Layer_1" enable-background="new 0 0 512 512" height="512" viewBox="0 0 512 512" width="512" xmlns="http://www.w3.org/2000/svg"><g><path d="m425.421 422.358c2.854-3.003 2.73-7.75-.272-10.603-3.004-2.853-7.752-2.731-10.603.273-8.185 8.617-16.959 16.492-26.276 23.594-26.776-.693-35.34-12.928-44.391-25.86-8.554-12.222-18.248-26.074-42.315-26.074-20.465 0-36.246 6.795-50.171 12.791-16.026 6.901-27.605 11.886-41.009 4.959-9.446-4.882-15.134-21.898-21.154-39.912-9.901-29.622-22.223-66.486-60.719-66.486-23.611 0-25.207 17.094-26.263 28.406-1.47 15.752-2.861 30.66-44.691 31.658-7.113-14.951-12.497-30.686-16.05-46.953 23.036-6.366 39.178-19.461 49.1-39.816h116.204c-1.721 19.198 2.702 44.563 12.756 54.628 8.584 8.593 28.316 13.107 45.903 13.107 5.432 0 10.661-.431 15.29-1.305 14.571-2.752 20.187-9.188 22.332-14.102 6.657-15.252-6.118-36.331-20.922-52.328h192.575c-.244 7.231-.838 14.455-1.777 21.56-.542 4.106 2.347 7.875 6.453 8.418.334.044.664.065.992.065 3.705 0 6.927-2.746 7.426-6.519 1.024-7.753 1.665-15.637 1.914-23.525h14.747c4.143 0 7.5-3.358 7.5-7.5s-3.357-7.5-7.5-7.5h-497c-4.143 0-7.5 3.358-7.5 7.5s3.357 7.5 7.5 7.5h14.046c1.865 59.813 26.016 115.771 68.483 158.281 44.238 44.284 103.058 68.673 165.622 68.673 32.661 0 64.269-6.602 93.944-19.623 28.661-12.575 54.173-30.51 75.826-53.307zm-203.564-154.024h38.751c20.573 17.484 32.116 38.586 28.736 46.327-.705 1.617-4.106 3.992-11.367 5.363-17.392 3.285-41.674-1.532-47.799-7.663-5.734-5.742-10.248-27.31-8.321-44.027zm-185.303 0h36.9c-7.844 12.32-19.133 20.445-34.654 24.992-1.213-8.227-1.966-16.569-2.246-24.992zm219.096 211.954c-58.555 0-113.605-22.826-155.011-64.274-13.983-13.997-25.844-29.552-35.422-46.274 19.12-1.379 32.531-6.198 40.805-14.622 9.21-9.377 10.292-20.967 11.161-30.28 1.162-12.454 1.686-14.799 11.327-14.799 25.766 0 35.137 22.269 46.492 56.241 7.014 20.984 13.639 40.805 28.494 48.482 19.704 10.184 36.279 3.048 53.828-4.507 13.208-5.687 26.866-11.568 44.238-11.568 16.256 0 22.032 8.253 30.026 19.675 7.844 11.209 17.183 24.553 38.191 29.901-8.383 5.119-17.129 9.681-26.213 13.667-27.762 12.181-57.341 18.358-87.916 18.358z"/><path d="m486.733 342.4c-3.001-22.096-21.977-39.179-44.863-39.179-18.557 0-34.816 11.199-41.742 27.706-3.371-1.172-6.94-1.774-10.61-1.774-17.823 0-32.324 14.512-32.324 32.349s14.501 32.349 32.324 32.349h37.961c4.143 0 7.5-3.358 7.5-7.5s-3.357-7.5-7.5-7.5h-37.961c-9.553 0-17.324-7.783-17.324-17.349s7.771-17.349 17.324-17.349c3.869 0 7.527 1.248 10.578 3.609 2.072 1.605 4.835 2.011 7.285 1.068 2.448-.943 4.226-3.097 4.688-5.679 2.583-14.445 15.116-24.93 29.802-24.93 16.694 0 30.276 13.599 30.276 30.315 0 .693-.025 1.413-.074 2.138-.176 2.572.982 5.054 3.066 6.572s4.801 1.861 7.195.904c1.254-.5 2.586-.754 3.957-.754 5.905 0 10.709 4.813 10.709 10.728s-4.804 10.728-10.709 10.728h-24.232c-4.143 0-7.5 3.358-7.5 7.5s3.357 7.5 7.5 7.5h24.232c14.176 0 25.709-11.542 25.709-25.728 0-14.039-11.295-25.487-25.267-25.724z"/><path d="m40.363 497h-32.863c-4.143 0-7.5 3.358-7.5 7.5s3.357 7.5 7.5 7.5h32.863c4.143 0 7.5-3.358 7.5-7.5s-3.357-7.5-7.5-7.5z"/><path d="m143.402 497h-67.876c-4.143 0-7.5 3.358-7.5 7.5s3.357 7.5 7.5 7.5h67.876c4.143 0 7.5-3.358 7.5-7.5s-3.357-7.5-7.5-7.5z"/><path d="m90.382 479.955c4.143 0 7.5-3.358 7.5-7.5s-3.357-7.5-7.5-7.5h-62.874c-4.143 0-7.5 3.358-7.5 7.5s3.357 7.5 7.5 7.5z"/><path d="m415.032 497h-62.875c-4.143 0-7.5 3.358-7.5 7.5s3.357 7.5 7.5 7.5h62.875c4.143 0 7.5-3.358 7.5-7.5s-3.357-7.5-7.5-7.5z"/><path d="m504.5 464.955h-92.886c-4.143 0-7.5 3.358-7.5 7.5s3.357 7.5 7.5 7.5h92.886c4.143 0 7.5-3.358 7.5-7.5s-3.357-7.5-7.5-7.5z"/><path d="m430.177 183.639c-4.143 0-7.5 3.358-7.5 7.5v39.695c0 4.142 3.357 7.5 7.5 7.5s7.5-3.358 7.5-7.5v-39.695c0-4.142-3.358-7.5-7.5-7.5z"/><path d="m256 133.238c-4.143 0-7.5 3.358-7.5 7.5v90.097c0 4.142 3.357 7.5 7.5 7.5s7.5-3.358 7.5-7.5v-90.097c0-4.142-3.357-7.5-7.5-7.5z"/><path d="m81.823 178.191c-4.143 0-7.5 3.358-7.5 7.5v44.708c0 4.142 3.357 7.5 7.5 7.5s7.5-3.358 7.5-7.5v-44.708c0-4.143-3.357-7.5-7.5-7.5z"/><path d="m149.04 101.282c0-4.142-3.357-7.5-7.5-7.5s-7.5 3.358-7.5 7.5v12.591c0 4.142 3.357 7.5 7.5 7.5s7.5-3.358 7.5-7.5z"/><path d="m119.04 101.282c0-4.142-3.357-7.5-7.5-7.5s-7.5 3.358-7.5 7.5v12.591c0 4.142 3.357 7.5 7.5 7.5s7.5-3.358 7.5-7.5z"/><path d="m149.04 149.282c0-4.142-3.357-7.5-7.5-7.5s-7.5 3.358-7.5 7.5v12.591c0 4.142 3.357 7.5 7.5 7.5s7.5-3.358 7.5-7.5z"/><path d="m119.04 149.282c0-4.142-3.357-7.5-7.5-7.5s-7.5 3.358-7.5 7.5v12.591c0 4.142 3.357 7.5 7.5 7.5s7.5-3.358 7.5-7.5z"/><path d="m141.367 189.348c-4.143 0-7.5 3.358-7.5 7.5v33.55c0 4.142 3.357 7.5 7.5 7.5s7.5-3.358 7.5-7.5v-33.55c0-4.142-3.357-7.5-7.5-7.5z"/><path d="m111.367 189.348c-4.143 0-7.5 3.358-7.5 7.5v33.55c0 4.142 3.357 7.5 7.5 7.5s7.5-3.358 7.5-7.5v-33.55c0-4.142-3.357-7.5-7.5-7.5z"/><path d="m323.217 101.282c0-4.142-3.357-7.5-7.5-7.5s-7.5 3.358-7.5 7.5v12.591c0 4.142 3.357 7.5 7.5 7.5s7.5-3.358 7.5-7.5z"/><path d="m293.217 101.282c0-4.142-3.357-7.5-7.5-7.5s-7.5 3.358-7.5 7.5v12.591c0 4.142 3.357 7.5 7.5 7.5s7.5-3.358 7.5-7.5z"/><path d="m323.217 149.282c0-4.142-3.357-7.5-7.5-7.5s-7.5 3.358-7.5 7.5v12.591c0 4.142 3.357 7.5 7.5 7.5s7.5-3.358 7.5-7.5z"/><path d="m293.217 149.282c0-4.142-3.357-7.5-7.5-7.5s-7.5 3.358-7.5 7.5v12.591c0 4.142 3.357 7.5 7.5 7.5s7.5-3.358 7.5-7.5z"/><path d="m315.717 189.348c-4.143 0-7.5 3.358-7.5 7.5v33.55c0 4.142 3.357 7.5 7.5 7.5s7.5-3.358 7.5-7.5v-33.55c0-4.142-3.358-7.5-7.5-7.5z"/><path d="m285.717 189.348c-4.143 0-7.5 3.358-7.5 7.5v33.55c0 4.142 3.357 7.5 7.5 7.5s7.5-3.358 7.5-7.5v-33.55c0-4.142-3.358-7.5-7.5-7.5z"/><path d="m42.078 238.335c4.143 0 7.5-3.358 7.5-7.5v-107.89h24.745v27.912c0 4.142 3.357 7.5 7.5 7.5s7.5-3.358 7.5-7.5v-73.309h74.088v153.287c0 4.142 3.357 7.5 7.5 7.5s7.5-3.358 7.5-7.5v-31.487h47.604c4.143 0 7.5-3.358 7.5-7.5s-3.357-7.5-7.5-7.5h-47.604v-19.2h47.604c4.143 0 7.5-3.358 7.5-7.5s-3.357-7.5-7.5-7.5h-47.604v-19.2h47.604c4.143 0 7.5-3.358 7.5-7.5s-3.357-7.5-7.5-7.5h-47.604v-19.2h47.604c4.143 0 7.5-3.358 7.5-7.5s-3.357-7.5-7.5-7.5h-47.604v-19.2h47.604c4.143 0 7.5-3.358 7.5-7.5s-3.357-7.5-7.5-7.5h-47.604v-18.737l70.089-12.371v89.718c0 4.142 3.357 7.5 7.5 7.5s7.5-3.358 7.5-7.5v-28.61h74.089v153.287c0 4.142 3.357 7.5 7.5 7.5s7.5-3.358 7.5-7.5v-25.487h47.603c4.143 0 7.5-3.358 7.5-7.5s-3.357-7.5-7.5-7.5h-47.603v-19.2h47.603c4.143 0 7.5-3.358 7.5-7.5s-3.357-7.5-7.5-7.5h-47.603v-19.2h47.603c4.143 0 7.5-3.358 7.5-7.5s-3.357-7.5-7.5-7.5h-47.603v-25.759l70.088-16.474v76.862c0 4.142 3.357 7.5 7.5 7.5s7.5-3.358 7.5-7.5v-33.633h24.745v107.89c0 4.142 3.357 7.5 7.5 7.5s7.5-3.358 7.5-7.5v-115.39c0-4.142-3.357-7.5-7.5-7.5h-32.245v-37.696c0-2.291-1.047-4.456-2.843-5.879-1.795-1.422-4.145-1.944-6.373-1.422l-75.872 17.833v-10.732c0-4.142-3.357-7.5-7.5-7.5h-21.872v-18.768c0-4.142-3.357-7.5-7.5-7.5s-7.5 3.358-7.5 7.5v18.768h-44.717v-55.048c0-2.217-.981-4.321-2.68-5.746-1.699-1.425-3.941-2.026-6.124-1.64l-85.089 15.019c-3.584.632-6.196 3.747-6.196 7.386v40.029h-14.371v-18.768c0-4.142-3.357-7.5-7.5-7.5s-7.5 3.358-7.5 7.5v18.768h-52.217c-4.143 0-7.5 3.358-7.5 7.5v37.896h-32.245c-4.143 0-7.5 3.358-7.5 7.5v115.39c0 4.143 3.358 7.501 7.5 7.501z"/></g></svg>