<?xml version="1.0" encoding="iso-8859-1"?>
<!-- Generator: Adobe Illustrator 19.0.0, SVG Export Plug-In . SVG Version: 6.00 Build 0)  -->
<svg version="1.1" id="Capa_1" xmlns="http://www.w3.org/2000/svg" xmlns:xlink="http://www.w3.org/1999/xlink" x="0px" y="0px"
	 viewBox="0 0 512 512" style="enable-background:new 0 0 512 512;" xml:space="preserve">
<g>
	<g>
		<path d="M368,112c-79.392,0-144,64.608-144,144s64.608,144,144,144s144-64.608,144-144S447.392,112,368,112z M368,368
			c-61.76,0-112-50.24-112-112s50.24-112,112-112s112,50.24,112,112S429.76,368,368,368z"/>
	</g>
</g>
<g>
	<g>
		<path d="M192,256c0-43.776,15.904-85.312,44.768-116.896c5.376-5.888,5.6-14.816,0.544-20.96
			c-5.056-6.176-13.92-7.616-20.672-3.488L7.68,242.336C2.912,245.248,0,250.432,0,256s2.912,10.752,7.648,13.664l208.96,127.68
			c2.624,1.568,5.472,2.336,8.352,2.336c4.64,0,9.216-2.016,12.352-5.824c5.056-6.144,4.832-15.072-0.544-20.96
			C207.904,341.312,192,299.776,192,256z M175.328,334.592L46.688,256l128.64-78.592C165.28,201.984,160,228.64,160,256
			S165.28,310.016,175.328,334.592z"/>
	</g>
</g>
<g>
	<g>
		<path d="M418.016,176.128c-8.736-1.088-16.768,5.088-17.888,13.888l-9.44,75.552l-8.384-16.736c-5.44-10.848-23.2-10.848-28.64,0
			l-8.384,16.736l-9.44-75.552c-1.088-8.8-9.344-14.976-17.888-13.888c-8.704,1.088-14.912,9.088-13.824,17.856l16,128
			c0.864,7.008,6.208,12.608,13.184,13.792c6.88,1.248,13.856-2.304,16.992-8.608L368,291.776l17.696,35.36
			C388.448,332.64,394.016,336,400,336c0.864,0,1.792-0.064,2.688-0.224c6.976-1.184,12.32-6.784,13.184-13.792l16-128
			C432.96,185.216,426.752,177.216,418.016,176.128z"/>
	</g>
</g>
<g>
</g>
<g>
</g>
<g>
</g>
<g>
</g>
<g>
</g>
<g>
</g>
<g>
</g>
<g>
</g>
<g>
</g>
<g>
</g>
<g>
</g>
<g>
</g>
<g>
</g>
<g>
</g>
<g>
</g>
</svg>
