<?xml version="1.0" encoding="iso-8859-1"?>
<!-- Generator: Adobe Illustrator 19.0.0, SVG Export Plug-In . SVG Version: 6.00 Build 0)  -->
<svg version="1.1" id="Capa_1" xmlns="http://www.w3.org/2000/svg" xmlns:xlink="http://www.w3.org/1999/xlink" x="0px" y="0px"
	 viewBox="0 0 512 512" style="enable-background:new 0 0 512 512;" xml:space="preserve">
<g>
	<g>
		<path d="M144,112C64.608,112,0,176.608,0,256s64.608,144,144,144s144-64.608,144-144S223.392,112,144,112z M144,368
			c-61.76,0-112-50.24-112-112s50.24-112,112-112s112,50.24,112,112S205.76,368,144,368z"/>
	</g>
</g>
<g>
	<g>
		<path d="M504.352,242.336L295.36,114.656c-6.72-4.128-15.616-2.688-20.672,3.488c-5.056,6.144-4.832,15.072,0.544,20.96
			C304.096,170.688,320,212.224,320,256s-15.904,85.312-44.768,116.896c-5.376,5.888-5.6,14.816-0.544,20.96
			c3.136,3.808,7.712,5.824,12.352,5.824c2.88,0,5.76-0.768,8.352-2.336l208.96-127.68C509.088,266.752,512,261.568,512,256
			S509.088,245.248,504.352,242.336z M336.672,334.592C346.72,310.016,352,283.36,352,256s-5.28-54.016-15.328-78.592L465.312,256
			L336.672,334.592z"/>
	</g>
</g>
<g>
	<g>
		<path d="M176,272c8.832,0,16-7.168,16-16c0-8.832-7.168-16-16-16h-48v-32h48c8.832,0,16-7.168,16-16c0-8.832-7.168-16-16-16h-64
			c-8.832,0-16,7.168-16,16v128c0,8.832,7.168,16,16,16h64c8.832,0,16-7.168,16-16c0-8.832-7.168-16-16-16h-48v-32H176z"/>
	</g>
</g>
<g>
</g>
<g>
</g>
<g>
</g>
<g>
</g>
<g>
</g>
<g>
</g>
<g>
</g>
<g>
</g>
<g>
</g>
<g>
</g>
<g>
</g>
<g>
</g>
<g>
</g>
<g>
</g>
<g>
</g>
</svg>
