<?xml version="1.0"?>
<svg xmlns="http://www.w3.org/2000/svg" id="Line" viewBox="0 0 64 64"><title/><path d="M16.30762,33.84668,30.68848,59.72852a1.50054,1.50054,0,0,0,2.623,0L47.69238,33.84668a1.50383,1.50383,0,0,0-2.38774-1.77337c-6.92482,7.45188-19.68465,7.451-26.60932-.00028A1.504,1.504,0,0,0,16.30762,33.84668ZM32,40.69873a21.43937,21.43937,0,0,0,9.73535-2.30859L32,55.91162,22.26465,38.39014A21.43937,21.43937,0,0,0,32,40.69873Z"/><path d="M32,34.70166A15.61812,15.61812,0,0,0,47.60059,19.10107c-.85666-20.697-30.34767-20.691-31.20121.00012A15.61814,15.61814,0,0,0,32,34.70166ZM32,6.5A12.615,12.615,0,0,1,44.60059,19.10107C43.90842,35.81748,20.089,35.81262,19.39939,19.101A12.615,12.615,0,0,1,32,6.5Z"/><path d="M34.169,24.10889H27.66113a1.5,1.5,0,0,0,0,3H34.169a3.67388,3.67388,0,0,0,3.66992-3.66944V21.27051A3.67388,3.67388,0,0,0,34.169,17.60107h-4.3379a.67059.67059,0,0,1-.66992-.66943V14.76221a.6706.6706,0,0,1,.66992-.66944h6.50782a1.50016,1.50016,0,0,0-.00007-3H29.83105a3.67388,3.67388,0,0,0-3.66992,3.66944v2.16943a3.67387,3.67387,0,0,0,3.66992,3.66943H34.169a.6706.6706,0,0,1,.66992.66944v2.16894A.6706.6706,0,0,1,34.169,24.10889Z"/></svg>
