<svg id="Line" height="512" viewBox="0 0 64 64" width="512" xmlns="http://www.w3.org/2000/svg"><path d="m18.69531 31.92676c6.92442-7.452 19.68488-7.45108 26.60937.00021a1.50023 1.50023 0 0 0 2.38765-1.77367l-14.38081-25.88182a1.51088 1.51088 0 0 0 -2.62255.00006l-14.38086 25.88178a1.50353 1.50353 0 0 0 2.3872 1.77344zm13.30469-23.83838 9.73535 17.52148a21.76136 21.76136 0 0 0 -19.4707.00006z"/><path d="m32 29.29834a15.61854 15.61854 0 0 0 -15.60107 15.60059c.85684 20.69674 30.34815 20.69121 31.20169-.00012a15.61815 15.61815 0 0 0 -15.60062-15.60047zm0 28.20166a12.61536 12.61536 0 0 1 -12.60107-12.60107c.69235-16.71615 24.512-16.71177 25.20168.00009a12.615 12.615 0 0 1 -12.60061 12.60098z"/><path d="m36.33887 36.89111a1.50007 1.50007 0 0 0 -1.5 1.5v8.062l-5.92969-8.894a1.50869 1.50869 0 0 0 -2.748.83211v13.016a1.50015 1.50015 0 0 0 3-.00007v-8.06194l5.92969 8.89405a1.50838 1.50838 0 0 0 2.748-.83211v-13.016a1.50008 1.50008 0 0 0 -1.5-1.50004z"/></svg>