<svg id="Layer_1" enable-background="new 0 0 450 450" height="512" viewBox="0 0 450 450" width="512" xmlns="http://www.w3.org/2000/svg"><g><g><path d="m225.4 246.6c-56.7 0-102.9-46.1-102.9-102.9s46.2-102.9 102.9-102.9 102.9 46.2 102.9 102.9-46.2 102.9-102.9 102.9zm0-195.8c-51.2 0-92.9 41.7-92.9 92.9s41.7 92.9 92.9 92.9 92.9-41.7 92.9-92.9-41.7-92.9-92.9-92.9z"/></g><g><path d="m157.7 219.4c-1.5 0-3.1-.7-4.1-2.1-1.6-2.2-1.1-5.4 1.1-7 21.3-15.4 34-40.3 34-66.6s-12.7-51.2-34-66.6c-2.2-1.6-2.7-4.7-1.1-7 1.6-2.2 4.7-2.7 7-1.1 23.9 17.3 38.2 45.2 38.2 74.7s-14.3 57.4-38.2 74.7c-.9.7-1.9 1-2.9 1z"/></g><g><path d="m293.1 219.4c-1 0-2-.3-2.9-1-23.9-17.3-38.2-45.2-38.2-74.7s14.3-57.4 38.2-74.7c2.2-1.6 5.4-1.1 7 1.1s1.1 5.4-1.1 7c-21.3 15.4-34 40.3-34 66.6s12.7 51.2 34 66.6c2.2 1.6 2.7 4.7 1.1 7-1 1.4-2.6 2.1-4.1 2.1z"/></g><g><path d="m225.4 246.6c-2.8 0-5-2.2-5-5v-195.8c0-2.8 2.2-5 5-5s5 2.2 5 5v195.8c0 2.7-2.3 5-5 5z"/></g><g><path d="m413.9 353.3h-117.9c-2.8 0-5-2.2-5-5s2.2-5 5-5h117.9c12.4 0 22.5-10.1 22.5-22.5v-199c0-12.4-10.1-22.5-22.5-22.5h-104c-2.8 0-5-2.2-5-5s2.2-5 5-5h104c17.9 0 32.5 14.6 32.5 32.5v199c0 17.9-14.6 32.5-32.5 32.5zm-259.2 0h-117.8c-17.9 0-32.5-14.6-32.5-32.5v-199c0-17.9 14.6-32.5 32.5-32.5h104c2.8 0 5 2.2 5 5s-2.2 5-5 5h-104c-12.4 0-22.5 10.1-22.5 22.5v199c0 12.4 10.1 22.5 22.5 22.5h117.9c2.8 0 5 2.2 5 5s-2.3 5-5.1 5z"/></g><g><path d="m401.8 325.8h-101c-2.8 0-5-2.2-5-5s2.2-5 5-5h101.1c.8 0 1.5-.7 1.5-1.5v-186c0-.8-.7-1.5-1.5-1.5h-81.1c-2.8 0-5-2.2-5-5s2.2-5 5-5h81.1c6.4 0 11.5 5.2 11.5 11.5v185.9c0 6.4-5.2 11.6-11.6 11.6zm-251.8 0h-101.1c-6.4 0-11.5-5.2-11.5-11.5v-186c0-6.4 5.2-11.5 11.5-11.5h81.1c2.8 0 5 2.2 5 5s-2.2 5-5 5h-81.1c-.8 0-1.5.7-1.5 1.5v185.9c0 .8.7 1.5 1.5 1.5h101.1c2.8 0 5 2.2 5 5s-2.3 5.1-5 5.1z"/></g><g><path d="m335.3 271.5h-219.9c-10.3 0-18.7-8.4-18.7-18.7s8.4-18.7 18.7-18.7h87.4c2.8 0 5 2.2 5 5s-2.2 5-5 5h-87.4c-4.8 0-8.7 3.9-8.7 8.7s3.9 8.7 8.7 8.7h219.9c4.8 0 8.7-3.9 8.7-8.7s-3.9-8.7-8.7-8.7h-87.4c-2.8 0-5-2.2-5-5s2.2-5 5-5h87.4c10.3 0 18.7 8.4 18.7 18.7.1 10.2-8.3 18.7-18.7 18.7z"/></g><g><path d="m294.8 410.4h-138.9c-1.4 0-2.8-.6-3.7-1.7s-1.4-2.5-1.3-3.9c6.3-58.5-15.6-123.1-22.4-136.1-1.3-2.5-.3-5.5 2.1-6.7 2.5-1.3 5.5-.3 6.7 2.1 6.9 13.2 28.7 77 24 136.3h128c-4.7-59.3 17.1-123 24-136.3 1.3-2.5 4.3-3.4 6.7-2.1 2.5 1.3 3.4 4.3 2.1 6.7-6.8 13-28.7 77.6-22.4 136.1.2 1.4-.3 2.8-1.2 3.9s-2.2 1.7-3.7 1.7z"/></g><g><path d="m300.5 327.1c-1.7 0-3.4-.9-4.3-2.5l-32.1-55.6c-1.4-2.4-.6-5.4 1.8-6.8s5.4-.6 6.8 1.8l32.1 55.6c1.4 2.4.6 5.4-1.8 6.8-.8.4-1.6.7-2.5.7z"/></g><g><path d="m293.7 387.3c-1.7 0-3.4-.9-4.3-2.5l-66.9-115.8c-1.4-2.4-.6-5.4 1.8-6.8s5.4-.6 6.8 1.8l66.9 115.8c1.4 2.4.6 5.4-1.8 6.8-.8.4-1.7.7-2.5.7z"/></g><g><path d="m265.5 410.4c-1.7 0-3.4-.9-4.3-2.5l-80.2-139c-1.4-2.4-.6-5.4 1.8-6.8s5.4-.6 6.8 1.8l80.2 139c1.4 2.4.6 5.4-1.8 6.8-.8.5-1.7.7-2.5.7z"/></g><g><path d="m223.9 410.4c-1.7 0-3.4-.9-4.3-2.5l-80.2-139c-1.4-2.4-.6-5.4 1.8-6.8s5.4-.6 6.8 1.8l80.2 139c1.4 2.4.6 5.4-1.8 6.8-.8.5-1.6.7-2.5.7z"/></g><g><path d="m182.4 410.4c-1.7 0-3.4-.9-4.3-2.5l-26.4-45.7c-1.4-2.4-.6-5.4 1.8-6.8s5.4-.6 6.8 1.8l26.4 45.7c1.4 2.4.6 5.4-1.8 6.8-.8.5-1.7.7-2.5.7z"/></g><g><path d="m268.4 410.4c-.8 0-1.7-.2-2.5-.7-2.4-1.4-3.2-4.4-1.8-6.8l26.4-45.7c1.4-2.4 4.4-3.2 6.8-1.8s3.2 4.4 1.8 6.8l-26.4 45.7c-.9 1.6-2.6 2.5-4.3 2.5z"/></g><g><path d="m226.8 410.4c-.8 0-1.7-.2-2.5-.7-2.4-1.4-3.2-4.4-1.8-6.8l80.2-139c1.4-2.4 4.4-3.2 6.8-1.8s3.2 4.4 1.8 6.8l-80.2 139c-.9 1.6-2.5 2.5-4.3 2.5z"/></g><g><path d="m185.3 410.4c-.8 0-1.7-.2-2.5-.7-2.4-1.4-3.2-4.4-1.8-6.8l80.2-139c1.4-2.4 4.4-3.2 6.8-1.8s3.2 4.4 1.8 6.8l-80.2 139c-.9 1.6-2.6 2.5-4.3 2.5z"/></g><g><path d="m157.1 387.3c-.8 0-1.7-.2-2.5-.7-2.4-1.4-3.2-4.4-1.8-6.8l66.8-115.8c1.4-2.4 4.4-3.2 6.8-1.8s3.2 4.4 1.8 6.8l-66.9 115.8c-.8 1.6-2.5 2.5-4.2 2.5z"/></g><g><path d="m150.2 327.1c-.8 0-1.7-.2-2.5-.7-2.4-1.4-3.2-4.4-1.8-6.8l32.1-55.6c1.4-2.4 4.4-3.2 6.8-1.8s3.2 4.4 1.8 6.8l-32.1 55.6c-.8 1.6-2.5 2.5-4.3 2.5z"/></g></g></svg>