<svg id="Layer_1" enable-background="new 0 0 128 128" viewBox="0 0 128 128" xmlns="http://www.w3.org/2000/svg"><g id="XMLID_549_" fill="none" stroke="#000" stroke-miterlimit="10" stroke-width="3"><g id="art_board_42" stroke-linecap="round"><path id="XMLID_4181_" d="m8 80.4h66.1v5.7h-66.1z" transform="matrix(-1 0 0 -1 82.098 166.618)"/><path id="XMLID_4188_" d="m42.6 86.2h28.6v31.4h-28.6z" transform="matrix(-1 0 0 -1 113.866 203.727)"/><path id="XMLID_4214_" d="m9.4 74.1h21.5v6.3h-21.5z" transform="matrix(-1 0 0 -1 40.331 154.547)"/><path id="XMLID_4215_" d="m21.6 74v-11.1l12-7.1"/><g id="XMLID_4217_"><path id="XMLID_4216_" d="m28.9 46.5h11.4v4.4h-11.4z" transform="matrix(-.687 .727 -.727 -.687 93.855 57.02)"/><path id="XMLID_1701_" d="m37.1 63.6c-.2-.2-.4-.3-.6-.5-3.7-3.5-3.8-9.3-.4-13 3.5-3.7 9.3-3.8 13-.4l.6.6z"/><path id="XMLID_4219_" d="m42.5 60.9c1.4 1.3 3.6 1.2 4.9-.1 1.3-1.4 1.2-3.6-.1-4.9"/></g><path id="XMLID_4218_" d="m10.6 86.2h5.6v31.4h-5.6z" transform="matrix(-1 0 0 -1 26.707 203.727)"/></g><g id="XMLID_2243_"><circle id="XMLID_2242_" cx="73.2" cy="27.4" r="18.2"/><circle id="XMLID_2241_" cx="73.2" cy="27.4" r="3.2"/><path id="XMLID_2240_" d="m73.2 11.3v14.2"/><path id="XMLID_2239_" d="m75.9 27.4h9.8"/></g><g id="art_board_40" stroke-linecap="round"><path id="XMLID_4488_" d="m96.8 101.8v12"/><circle id="XMLID_4482_" cx="97.1" cy="116.7" r="2.1"/><circle id="XMLID_4481_" cx="108.6" cy="116.7" r="2.1"/><circle id="XMLID_4480_" cx="85.7" cy="116.7" r="2.1"/><path id="XMLID_4068_" d="m97.9 101.6h-1.3c-1.3 0-2.3-1-2.3-2.3v-10.5h6v10.5c-.1 1.2-1.1 2.3-2.4 2.3z"/><path id="XMLID_694_" d="m111.1 85.8v.1c0 1.6-1.3 2.9-2.9 2.9h-22c-1.6 0-2.9-1.3-2.9-2.9v-.1c0-1.6 1.3-2.9 2.9-2.9h22c1.6 0 2.9 1.3 2.9 2.9z"/><path id="XMLID_4071_" d="m114.2 69.7c-1.6.1-4 .1-6.3-1.3-5.5-3.5-6.6-13.7-2-18.6 2.5-2.7 6.5-3.8 10.5-3.3 1.1.1 1.7 1.3 1.2 2.3-1.4 2.7-2.7 6.2-3.2 10.5-.3 2.9-.7 6.5.9 10.3.4 1 .5.8 1.8 3.4 2 3.8 2.9 5.8 2.9 7.4 0 .3 0 4.3-3.1 5.9-2.3 1.2-4.8.2-5.3 0"/><path id="XMLID_4073_" d="m85.4 113.9v-3.2c0-1.9 1.7-2.5 3.7-2.5h15.8c2 0 3.7.6 3.7 2.5v3.6"/></g></g></svg>