<svg enable-background="new 0 0 512 512" viewBox="0 0 512 512" xmlns="http://www.w3.org/2000/svg"><g id="_x39_9_Concierge_Bell"><g><path d="m477.793 380.19c-.26-10.12-1.152-20.124-2.745-29.806-.548-3.324-3.671-5.605-7.004-5.024-3.319.548-5.571 3.681-5.024 7.004 1.47 8.949 2.345 18.193 2.613 27.561h-419.261c3.255-112.847 96.065-203.649 209.681-203.649 82.063 0 157.017 48.303 190.949 123.052 1.395 3.062 5.019 4.405 8.071 3.033 3.067-1.395 4.424-5.005 3.033-8.071-35.068-77.247-111.537-127.77-195.978-130.092v-31.311h26.827c10.433 0 18.918-8.485 18.918-18.914v-27.021c0-10.428-8.485-18.914-18.918-18.914h-65.85c-10.433 0-18.918 8.485-18.918 18.914v27.023c0 10.428 8.485 18.914 18.918 18.914h26.832v31.353c-117.61 3.206-212.622 98.301-215.695 215.944-15.828 1.926-28.138 15.419-28.138 31.758 0 17.656 14.366 32.018 32.022 32.018h435.749c17.656 0 32.018-14.361 32.018-32.018.002-16.328-12.288-29.813-28.1-31.754zm-261.415-266.215v-27.023c0-3.709 3.019-6.724 6.728-6.724h65.85c3.709 0 6.728 3.014 6.728 6.724v27.023c0 3.709-3.019 6.724-6.728 6.724h-65.85c-3.709-.001-6.728-3.015-6.728-6.724zm257.499 317.796h-435.749c-10.938 0-19.833-8.895-19.833-19.828s8.895-19.828 19.833-19.828c.49 0 465.106.014 435.749 0 10.933 0 19.828 8.895 19.828 19.828s-8.895 19.828-19.828 19.828z"/></g></g><g id="Layer_1"/></svg>