<svg id="Layer_1" enable-background="new 0 0 468.821 468.821" height="512" viewBox="0 0 468.821 468.821" width="512" xmlns="http://www.w3.org/2000/svg"><g><path d="m409.331.23h-390.662c-2.761 0-5 2.238-5 5v59.928c0 2.762 2.239 5 5 5h365.19v50.189c0 2.762 2.238 5 5 5s5-2.238 5-5v-50.19h15.471c2.762 0 5-2.238 5-5v-59.927c.001-2.762-2.238-5-4.999-5zm-5 59.927h-380.662v-49.927h380.661z"/><path d="m143.05 104.49-17.583-2.564-7.867-15.999c-1.657-3.669-7.316-3.67-8.974 0l-7.867 15.998-17.583 2.564c-3.989.448-5.735 5.809-2.775 8.521l12.734 12.459-3.007 17.596c-.806 3.94 3.768 7.256 7.262 5.265l15.723-8.296 15.723 8.296c4.787 1.902 7.847-2.309 7.262-5.265l-3.007-17.596 12.734-12.459c2.96-2.711 1.215-8.072-2.775-8.52zm-18.825 15.665c-1.173 1.148-1.709 2.799-1.432 4.417l1.74 10.182-9.553-5.04c-1.027-.542-2.707-.542-3.733 0l-9.552 5.04 1.74-10.182c.277-1.618-.259-3.269-1.432-4.417l-7.387-7.228 10.191-1.486c1.63-.238 3.039-1.263 3.766-2.742l4.541-9.235 4.541 9.235c.727 1.479 2.136 2.504 3.766 2.742l10.191 1.486z"/><path d="m244.05 104.49-17.583-2.564-7.867-15.999c-1.657-3.669-7.316-3.67-8.974 0l-7.867 15.998-17.583 2.564c-3.989.448-5.735 5.809-2.775 8.521l12.734 12.459-3.007 17.596c-.806 3.94 3.768 7.256 7.262 5.265l15.723-8.296 15.723 8.296c4.787 1.902 7.847-2.309 7.262-5.265l-3.007-17.596 12.734-12.459c2.96-2.711 1.215-8.072-2.775-8.52zm-18.825 15.665c-1.173 1.148-1.709 2.799-1.432 4.417l1.74 10.182-9.553-5.04c-1.027-.542-2.707-.542-3.733 0l-9.552 5.04 1.74-10.182c.277-1.618-.259-3.269-1.432-4.417l-7.387-7.228 10.191-1.486c1.63-.238 3.039-1.263 3.766-2.742l4.541-9.235 4.541 9.235c.727 1.479 2.136 2.504 3.766 2.742l10.191 1.486z"/><path d="m345.05 104.49-17.583-2.564-7.867-15.999c-1.657-3.669-7.316-3.67-8.974 0l-7.867 15.998-17.583 2.564c-3.989.448-5.735 5.809-2.775 8.521l12.734 12.459-3.007 17.596c-.806 3.94 3.768 7.256 7.262 5.265l15.723-8.296 15.723 8.296c4.787 1.902 7.847-2.309 7.262-5.265l-3.007-17.596 12.734-12.459c2.96-2.711 1.215-8.072-2.775-8.52zm-18.825 15.665c-1.173 1.148-1.709 2.799-1.432 4.417l1.74 10.182-9.553-5.04c-1.027-.542-2.707-.542-3.733 0l-9.552 5.04 1.74-10.182c.277-1.618-.259-3.269-1.432-4.417l-7.387-7.228 10.191-1.486c1.63-.238 3.039-1.263 3.766-2.742l4.541-9.235 4.541 9.235c.727 1.479 2.136 2.504 3.766 2.742l10.191 1.486z"/><path d="m184.009 283.254h-8.647v-24.244h8.647c2.761 0 5-2.238 5-5s-2.239-5-5-5h-13.647c-2.761 0-5 2.238-5 5v34.244c0 2.762 2.239 5 5 5h13.647c2.761 0 5-2.238 5-5s-2.238-5-5-5z"/><path d="m290.106 162.034h-76.106-132.211c-2.761 0-5 2.238-5 5v203.194h-32.648v-250.676c0-2.762-2.239-5-5-5s-5 2.238-5 5v250.677h-29.141c-2.761 0-5 2.238-5 5s2.239 5 5 5h253.068.226c2.762 0 5-2.238 5-5s-2.238-5-5-5h-.226-39.068v-198.195h71.106c2.762 0 5-2.238 5-5s-2.238-5-5-5zm-203.317 208.195v-198.195h122.211v198.194h-122.211z"/><path d="m244.362 283.254c-2.762 0-5 2.238-5 5s2.238 5 5 5h13.647c2.762 0 5-2.238 5-5v-34.244c0-2.762-2.238-5-5-5h-13.647c-2.762 0-5 2.238-5 5s2.238 5 5 5h8.647v24.244z"/><circle cx="39.141" cy="94.637" r="6.5"/><path d="m430.49 406.572c-2.762 0-5 2.238-5 5v51.058c0 2.762 2.238 5 5 5s5-2.238 5-5v-51.058c0-2.762-2.239-5-5-5z"/><path d="m406.811 387.941c-2.956 0-5.352 2.405-5.352 5.372s2.396 5.372 5.352 5.372 5.352-2.405 5.352-5.372-2.396-5.372-5.352-5.372z"/><path d="m406.811 413.982c-2.956 0-5.352 2.405-5.352 5.372s2.396 5.372 5.352 5.372 5.352-2.405 5.352-5.372-2.396-5.372-5.352-5.372z"/><ellipse cx="406.811" cy="445.394" rx="5.352" ry="5.372"/><path d="m317.51 406.572c-2.762 0-5 2.238-5 5v51.058c0 2.762 2.238 5 5 5s5-2.238 5-5v-51.058c0-2.762-2.238-5-5-5z"/><path d="m428.121 336.329-23.659-9.371v-15.217c12.656-9.36 20.881-24.385 20.881-41.299v-7.563c11.914-1.138 21.264-11.197 21.264-23.399 0-7.078-3.148-13.659-8.538-18.102v-20.271c5.114-4.918 7.807-10.515 7.807-16.303-3.015-27.773-44.586-34.644-71.874-35.021-27.243.36-68.898 7.266-71.875 35.021 0 6.293 3.158 12.309 9.145 17.519v18.018c-6.157 4.377-9.876 11.46-9.876 19.139 0 12.202 9.349 22.261 21.263 23.399v7.563c0 16.914 8.225 31.939 20.881 41.299v15.304l-23.584 9.308c-24.771 9.775-40.775 33.351-40.775 60.061v67.177c0 2.762 2.238 5 5 5s5-2.238 5-5v-67.177c0-22.577 13.521-42.501 34.446-50.759l23.608-9.316 34.06 42.654v84.486c0 2.762 2.238 5 5 5s5-2.238 5-5v-86.237c0-1.134-.386-2.234-1.093-3.12l-9.904-12.403 20.671-25.39 23.473 9.297c20.886 8.272 34.382 28.187 34.382 50.734v67.23c0 2.762 2.238 5 5 5s5-2.238 5-5v-67.23c-.003-26.674-15.979-50.239-40.703-60.031zm-106.851-115.684v-15.683h106.798v15.683zm104.072 32.142v-13.179c3.056-2.403 5.992-5.038 8.792-7.892 1.585 2.24 2.472 4.932 2.472 7.765 0 6.68-4.881 12.228-11.264 13.306zm-51.342-93.004c36.463 0 61.874 13.187 61.874 25.021 0 4.214-3.181 7.831-5.904 10.156h-111.938c-2.935-2.506-5.906-6.056-5.906-10.156-.001-11.834 25.411-25.021 61.874-25.021zm-51.343 93.004c-6.382-1.078-11.263-6.626-11.263-13.306 0-3.175 1.11-6.171 3.052-8.542 2.619 2.731 5.36 5.267 8.211 7.598zm7.776-20.859c-.544-.424-1.092-.843-1.627-1.284h91.728c-13.297 10.929-29.226 16.836-45.868 16.836-15.904 0-31.151-5.41-44.079-15.432-.054-.037-.1-.083-.154-.12zm64.028 96.551-20.443 25.11-20.48-25.39v-10.68c12.393 5.64 28.53 5.64 40.924 0v10.96zm-20.461-16.694c-22.797 0-41.344-18.546-41.344-41.343v-24.832c12.77 7.748 27.121 11.87 42.008 11.87 14.372 0 28.246-3.84 40.678-11.074v24.036c0 22.798-18.546 41.343-41.342 41.343z"/></g></svg>