<svg id="Capa_1" enable-background="new 0 0 512 512" height="512" viewBox="0 0 512 512" width="512" xmlns="http://www.w3.org/2000/svg"><g><g><path d="m491.261 248.609c-17.414-.006-454.41-.006-470.521 0-11.436 0-20.74 9.304-20.74 20.739v121.165c0 22.798 18.548 41.346 41.346 41.346h24.886l-10.678 34.287c-3.017 9.225 11.508 13.826 14.322 4.461l13.699-43.987c1.614-4.65-2.266-9.919-7.184-9.761h-35.045c-14.528 0-26.346-11.819-26.346-26.346v-121.165c0-3.165 2.574-5.739 5.739-5.739h33.344c3.165 0 5.739 2.574 5.739 5.739v95.188c0 4.143 3.357 7.5 7.5 7.5h377.355c4.143 0 7.5-3.357 7.5-7.5v-95.188c0-3.165 2.574-5.739 5.739-5.739h33.344c3.165 0 5.739 2.574 5.739 5.739v121.165c0 14.527-11.818 26.346-26.346 26.346h-35.057c-.014 0-.028 0-.042 0h-324.065c-4.143 0-7.5 3.357-7.5 7.5s3.357 7.5 7.5 7.5h318.567l12.068 38.748c2.815 9.369 17.34 4.758 14.322-4.461l-10.678-34.287h24.886c22.798 0 41.346-18.548 41.346-41.346v-121.165c0-11.435-9.304-20.739-20.739-20.739zm-265.496 14.996h60.471v93.432h-60.471zm-15 93.432h-60.472v-93.432h60.472zm90.47-93.432h60.472v93.432h-60.472zm-227.239 0h61.297v93.432h-60.471v-87.688c0-1.995-.298-3.918-.826-5.744zm363.182 93.432h-60.471v-93.432h61.297c-.528 1.826-.826 3.749-.826 5.743z"/><path d="m160.692 190.799h190.615c9.554 0 17.326-7.772 17.326-17.326v-119.893c0-9.554-7.772-17.326-17.326-17.326h-30.884c-4.143 0-7.5 3.357-7.5 7.5s3.357 7.5 7.5 7.5h30.884c1.282 0 2.326 1.044 2.326 2.326v119.894c0 1.282-1.044 2.326-2.326 2.326h-190.615c-1.282 0-2.326-1.044-2.326-2.326v-119.894c0-1.282 1.044-2.326 2.326-2.326h124.658c4.143 0 7.5-3.357 7.5-7.5s-3.357-7.5-7.5-7.5h-124.658c-9.554 0-17.326 7.772-17.326 17.326v119.894c0 9.553 7.773 17.325 17.326 17.325z"/><path d="m170.366 70.753v85.546c-.065 4.023 3.471 7.578 7.5 7.5h156.268c4.143 0 7.5-3.357 7.5-7.5v-85.546c0-4.143-3.357-7.5-7.5-7.5h-156.268c-4.142 0-7.5 3.358-7.5 7.5zm62.055 44.121 32.728 33.926h-68.483zm94.213 33.925h-40.643l-42.688-44.25 27.713-26.296h55.618zm-77.41-70.546-21.167 20.084c-.22.17-.435.35-.639.548-.177.17-.341.348-.497.531l-41.554 39.428v-60.591z"/><path d="m409.52 146.28h27.106c7.336 0 13.305-5.969 13.305-13.305v-38.897c0-7.336-5.969-13.305-13.305-13.305h-27.106c-7.336 0-13.305 5.969-13.305 13.305v38.897c0 7.336 5.969 13.305 13.305 13.305zm1.695-50.507h23.716v35.507h-23.716z"/><path d="m75.374 146.28h27.106c7.336 0 13.305-5.969 13.305-13.305v-38.897c0-7.336-5.969-13.305-13.305-13.305h-27.106c-7.336 0-13.305 5.969-13.305 13.305v38.897c0 7.336 5.969 13.305 13.305 13.305zm1.695-50.507h23.716v35.507h-23.716z"/></g></g></svg>