<?xml version="1.0"?>
<svg xmlns="http://www.w3.org/2000/svg" viewBox="0 0 64 64" width="512" height="512"><g id="Layer_7" data-name="Layer 7"><path d="M63,0H1A1,1,0,0,0,0,1V41a1,1,0,0,0,1,1H2a3.006,3.006,0,0,0,2.761-1.825l.946.946A2.978,2.978,0,0,0,7.828,42H9a1,1,0,0,0,1-1V35a8.963,8.963,0,0,0-.06-1H54.06A8.963,8.963,0,0,0,54,35v6a1,1,0,0,0,1,1h1.172a2.978,2.978,0,0,0,2.121-.879l.946-.946A3.006,3.006,0,0,0,62,42h1a1,1,0,0,0,1-1V1A1,1,0,0,0,63,0ZM58,2V5a1,1,0,0,0,2,0V2h2V25.934a7.681,7.681,0,0,1-6.616-6.987L54.08,2ZM2,2H4V5A1,1,0,0,0,6,5V2H9.92l-1.3,16.947A7.681,7.681,0,0,1,2,25.934ZM8,40H7.828a1.009,1.009,0,0,1-.707-.293L4.707,37.293A1,1,0,0,0,3,38v1a1,1,0,0,1-1,1V28.071A6.987,6.987,0,0,1,8,35Zm1.478-8a9.053,9.053,0,0,0-2.113-3.37,9.1,9.1,0,0,0-2.185-1.6A9.676,9.676,0,0,0,10.61,19.1L11.926,2H52.074L53.39,19.1a9.673,9.673,0,0,0,5.431,7.928,9.155,9.155,0,0,0-2.191,1.607A9.031,9.031,0,0,0,54.522,32ZM62,40a1,1,0,0,1-1-1V38a1,1,0,0,0-1.707-.707l-2.414,2.414a1.009,1.009,0,0,1-.707.293H56V35a6.987,6.987,0,0,1,6-6.929Z"/><path d="M5,12a1,1,0,0,0-1,1v3.02a19.006,19.006,0,0,1-.369,3.726L3.02,22.8A1,1,0,0,0,3.8,23.98.955.955,0,0,0,4,24a1,1,0,0,0,.979-.8l.612-3.058A21.064,21.064,0,0,0,6,16.02V13A1,1,0,0,0,5,12Z"/><path d="M4,31a1,1,0,0,0-1,1v2a1,1,0,0,0,2,0V32A1,1,0,0,0,4,31Z"/><path d="M60,36a1,1,0,0,0,1-1V33a1,1,0,0,0-2,0v2A1,1,0,0,0,60,36Z"/><path d="M56,48H54V47a5.006,5.006,0,0,0-5-5H43a4.982,4.982,0,0,0-4,2.031A4.982,4.982,0,0,0,35,42H29a4.982,4.982,0,0,0-4,2.031A4.982,4.982,0,0,0,21,42H15a5.006,5.006,0,0,0-5,5v1H8a5.006,5.006,0,0,0-5,5V63a1,1,0,0,0,1,1H60a1,1,0,0,0,1-1V53A5.006,5.006,0,0,0,56,48ZM43,44h6a3,3,0,0,1,3,3v1H50a4.982,4.982,0,0,0-4,2.031A4.982,4.982,0,0,0,42,48H40V47A3,3,0,0,1,43,44ZM29,44h6a3,3,0,0,1,3,3v1H36a4.982,4.982,0,0,0-4,2.031A4.982,4.982,0,0,0,28,48H26V47A3,3,0,0,1,29,44ZM12,47a3,3,0,0,1,3-3h6a3,3,0,0,1,3,3v1H22a4.982,4.982,0,0,0-4,2.031A4.982,4.982,0,0,0,14,48H12ZM5,53a3,3,0,0,1,3-3h6a3,3,0,0,1,3,3v9H5Zm14,0a3,3,0,0,1,3-3h6a3,3,0,0,1,3,3v9H19Zm14,0a3,3,0,0,1,3-3h6a3,3,0,0,1,3,3v9H33Zm26,9H47V53a3,3,0,0,1,3-3h6a3,3,0,0,1,3,3Z"/><path d="M40.161,11.134A1,1,0,0,0,39.8,12.5a9.006,9.006,0,1,1-2.4-2.7,1,1,0,1,0,1.2-1.6,11,11,0,1,0,2.925,3.3A1,1,0,0,0,40.161,11.134Z"/><path d="M28.53,11.152A1,1,0,0,0,27,12V22a1,1,0,0,0,1.53.848l8-5a1,1,0,0,0,0-1.7ZM29,20.2V13.8L34.113,17Z"/><path d="M59.02,23.2A1,1,0,0,0,60,24a.955.955,0,0,0,.2-.02A1,1,0,0,0,60.98,22.8l-.611-3.058A19.006,19.006,0,0,1,60,16.02V13a1,1,0,0,0-2,0v3.02a21.064,21.064,0,0,0,.408,4.118Z"/></g></svg>
