<svg id="Capa_1" enable-background="new 0 0 512 512" height="512" viewBox="0 0 512 512" width="512" xmlns="http://www.w3.org/2000/svg"><g><path d="m451.201 81.426c-35.121-35.119-86.604-48.145-138.902-35.524-10.166-26.797-36.094-45.902-66.411-45.902-12.116 0-24.083 3.11-34.609 8.993-3.616 2.021-4.909 6.59-2.888 10.206 2.021 3.615 6.59 4.908 10.206 2.887 4.998-2.794 10.412-4.787 16.017-5.936 1.132 17.072 8.384 33.297 20.61 45.524 12.234 12.234 28.462 19.492 45.532 20.618-4.487 21.851-21.74 39.102-43.592 43.586-1.125-17.066-8.378-33.294-20.614-45.529-12.234-12.234-28.456-19.487-45.521-20.614 1.148-5.604 3.142-11.019 5.936-16.016 2.021-3.616.728-8.185-2.888-10.206-3.614-2.021-8.185-.729-10.206 2.887-5.883 10.526-8.993 22.493-8.993 34.609 0 21.943 10.008 41.589 25.694 54.625-11.072 16.877-19.154 35.07-24.041 54.187-2.042 7.986-15.765 86.813-23.764 133.089-4.235 24.488-15.283 46.872-32.027 65.045-3.089-1.746-6.583-2.69-10.228-2.69-5.579 0-10.822 2.175-14.755 6.117l-10.77 10.76c-2.93 2.927-2.933 7.676-.005 10.606 2.927 2.931 7.676 2.932 10.606.005l10.778-10.768c1.107-1.109 2.58-1.72 4.146-1.721 1.567 0 3.04.611 4.153 1.727l25.969 25.959c1.108 1.108 1.718 2.583 1.718 4.152s-.61 3.044-1.718 4.152l-69.024 69.025c-1.107 1.109-2.58 1.72-4.146 1.721-1.567 0-3.04-.611-4.153-1.727l-25.963-25.953c-2.291-2.295-2.291-6.029-.005-8.319l33.69-33.69c2.929-2.929 2.929-7.677 0-10.606s-7.678-2.929-10.606 0l-33.695 33.695c-8.123 8.138-8.123 21.379.006 29.523l25.964 25.954c3.942 3.949 9.185 6.124 14.764 6.124s10.822-2.175 14.758-6.119l69.02-69.019c3.941-3.941 6.112-9.183 6.112-14.758 0-3.624-.931-7.1-2.656-10.176 17.954-16.362 39.954-27.211 64.008-31.473 83.85-14.847 128.97-23.043 134.099-24.359 31.446-8.04 60.682-24.91 84.545-48.783 21.179-21.178 37.046-46.944 45.887-74.512 1.265-3.944-.907-8.167-4.852-9.432-3.941-1.264-8.167.906-9.432 4.851-8.116 25.306-22.713 48.988-42.213 68.488-21.962 21.972-48.813 37.482-77.658 44.857-2.686.688-23.533 4.738-132.995 24.12-26.836 4.755-51.383 16.852-71.42 35.091l-12.786-12.782c18.652-20.294 30.947-45.24 35.666-72.527 13.347-77.223 22.138-126.542 23.515-131.929 4.467-17.474 11.861-34.124 21.995-49.592 5.357 2.806 11.112 4.943 17.159 6.311-16.16 23.32-25.365 50.194-26.151 76.908-.926 31.49 9.929 60.196 30.567 80.828 19.941 19.946 46.957 30.629 76.936 30.628 3.492 0 7.025-.145 10.59-.437 33.716-2.762 66.399-18.399 92.031-44.03 53.319-53.319 59.528-133.868 13.84-179.556-27.779-27.779-69.613-37.268-111.542-26 .266-2.494.41-5.023.41-7.586 0-3.601-.274-7.138-.794-10.596 47.069-11.259 93.192.321 124.489 31.619 26.474 26.475 38.946 63.234 35.116 103.506-.392 4.124 2.634 7.784 6.757 8.176.241.023.481.034.719.034 3.822 0 7.089-2.908 7.458-6.79 4.197-44.161-10.179-86.271-39.443-115.536zm-201.627-66.291c27.952 1.826 50.365 24.24 52.19 52.193-13.462-.885-26.28-6.606-35.933-16.259-9.65-9.65-15.37-22.458-16.257-35.934zm57.661 91.569 13.487 13.487-29.943 29.943-14.818-14.818c13.098-6.15 24.015-16.184 31.274-28.612zm131.074 109.86-15.275-15.275 20.635-20.635c.114 11.819-1.69 23.954-5.36 35.91zm-219.248 1.04c.311-10.577 2.119-21.197 5.297-31.571l15.262 15.262-20.595 20.595c-.014-1.421-.006-2.849.036-4.286zm40.971-77.003 20.141 20.141-29.947 29.947-20.055-20.055c4.526-10.041 10.367-19.69 17.412-28.658 4.25-.1 8.413-.556 12.449-1.375zm30.747 30.747 29.946 29.946-29.947 29.947-29.946-29.946zm-40.553 40.554 29.946 29.946-39.998 39.998c-9.633-11.487-16.154-25.386-19.194-40.698zm40.552 40.552 29.938 29.938-29.286 29.286c-15.28-3.019-29.127-9.525-40.658-19.219zm10.607-10.606 29.947-29.947 29.938 29.938-29.947 29.947zm40.554-40.554 29.943-29.943 29.938 29.938-29.943 29.943zm29.938 51.152 26.263 26.263c-10.999 9.934-23.212 17.942-36.127 23.767l-20.082-20.082zm10.607-10.607 29.943-29.943 20.066 20.066c-5.744 12.728-13.682 24.985-23.747 36.139zm29.943-51.157-29.938-29.938 40.005-40.005c9.869 11.747 16.236 25.686 19.211 40.665zm-40.545-40.545-29.946-29.946 29.247-29.247c15.176 3.02 29.111 9.479 40.698 19.194zm-10.606 10.607-29.943 29.943-29.946-29.946 29.943-29.943zm-171.263-86.048c13.467.882 26.275 6.604 35.93 16.26s15.377 22.462 16.26 35.929c-27.951-1.826-50.364-24.238-52.19-52.189zm130.922 238.536c-3.447.282-6.854.401-10.217.373l20.605-20.605 15.282 15.282c-8.403 2.566-17.002 4.24-25.67 4.95zm30.998-224.251-20.603 20.603-15.26-15.259c12.086-3.707 24.181-5.461 35.863-5.344z"/><path d="m222.072 310.554c-6.723-6.723-12.643-14.27-17.598-22.431-1.614-2.66-4.702-4.046-7.766-3.485-3.061.562-5.457 2.956-6.021 6.017l-9.732 52.779c-.448 2.427.327 4.918 2.072 6.663 1.419 1.419 3.333 2.197 5.303 2.197.452 0 .907-.041 1.36-.124l53.032-9.779c3.07-.566 5.468-2.975 6.021-6.047s-.854-6.166-3.535-7.767c-8.43-5.039-16.215-11.103-23.136-18.023zm-24.39 24.889 4.527-24.552c2.908 3.582 5.998 7.011 9.256 10.269 3.439 3.44 7.068 6.691 10.865 9.738z"/></g></svg>