<svg id="Layer_1" enable-background="new 0 0 512 512" viewBox="0 0 512 512" xmlns="http://www.w3.org/2000/svg"><path d="m50.7 342h84.7c3.1 0 5.5-2.5 5.5-5.5v-42.5c0-3.1-2.5-5.5-5.5-5.5h-84.7c-3.1 0-5.5 2.5-5.5 5.5v42.5c0 3 2.4 5.5 5.5 5.5zm5.6-42.5h73.6v31.4h-73.6zm-5.6 108.6h25.7c3.1 0 5.5-2.5 5.5-5.5v-42.5c0-3.1-2.5-5.5-5.5-5.5h-25.7c-3.1 0-5.5 2.5-5.5 5.5v42.5c0 3 2.4 5.5 5.5 5.5zm5.6-42.4h14.6v31.3h-14.6zm79.1 0h-39.3c-7.3 0-7.2-11.1 0-11.1h39.3c7.2 0 7.2 11 0 11.1zm-35.1 5.7c7.6-.1 7.7 13.9 0 13.9-7.6 0-7.7-14 0-13.9zm15.5 0c7.6-.1 7.7 13.9 0 13.9-7.6 0-7.8-14 0-13.9zm15.4 0c7.6-.1 7.7 13.9 0 13.9-7.6 0-7.7-14 0-13.9zm-30.9 30.6c-7.6.1-7.7-13.9 0-13.9 7.6 0 7.7 14 0 13.9zm15.5 0c-7.6.1-7.7-13.9 0-13.9 7.5 0 7.7 14 0 13.9zm15.4 0c-7.6.1-7.7-13.9 0-13.9 7.6 0 7.7 14 0 13.9zm370.3-126.2c5.2 0 9.5-4.3 9.5-9.5v-22.1c0-5.2-4.3-9.5-9.5-9.5h-165.1c-5.2 0-9.5 4.3-9.5 9.5v22.1c0 5.2 4.3 9.5 9.5 9.5h5.5v13.2c-17.3 3.4-30.6 22.4-30.6 45.2v48c-13.1 5.9-22 21.6-22 39.7.3 8.4-1.7 22.7 4.4 29.5 10.4 13.8 29.3 3.5 28.7-13.6v-46.9h.3 4.1v11.7c0 3.1 2.5 5.5 5.5 5.5h9.5v65.4h-66.5v-191.3h19.2c7 0 12.6-5.7 12.6-12.6v-91.7c0-7-5.7-12.6-12.6-12.6h-19.2v-68.6h199.7c3.1 0 5.5-2.5 5.5-5.5v-15.4h22.8c3.1 0 5.5-2.5 5.5-5.5v-37.4c0-3.1-2.5-5.5-5.5-5.5h-494.7c-3.1 0-5.5 2.5-5.5 5.5v37.3c0 3.1 2.5 5.5 5.5 5.5h22.8v15.4c0 3.1 2.5 5.5 5.5 5.5h199.6v68.4h-19.2c-7 0-12.6 5.7-12.6 12.6v91.7c0 7 5.7 12.6 12.6 12.6h19.2v191.3h-66.5v-65.4h9.5c3.1 0 5.5-2.5 5.5-5.5v-11.7h4.2.3v46.9c-.5 17.1 18.3 27.4 28.7 13.6 6.1-6.7 4.1-21.1 4.4-29.5 0-18.1-8.9-33.8-22-39.7v-48c0-22.9-13.3-41.8-30.6-45.2v-13.2h5.5c5.2 0 9.5-4.3 9.5-9.5v-22.1c0-5.2-4.3-9.5-9.5-9.5h-165c-5.2 0-9.5 4.3-9.5 9.5v22.1c0 5.2 4.3 9.5 9.5 9.5h5.5v197.7h-9.5c-7.1.1-7.5 11 0 11.1h498.9c7.1-.1 7.5-11 0-11.1h-9.4v-197.4zm-190.1 162c-.8 12.9-10.9 10.6-10.9 0v-15.8c0-11.1 4.3-21.2 10.9-26.7zm-110.8-42.5c6.6 5.5 10.9 15.5 10.9 26.7v15.8c0 3.7-1.7 8.6-5.5 9-2.6 0-5.5-3.8-5.5-9v-42.5zm-26.6-10v11.8h-4v-23.4h4zm15.5-51.1v45.5h-4.5v-11.7c0-3.1-2.5-5.5-5.5-5.5h-9.5v-62.1c11.2 3.5 19.5 17.4 19.5 33.8zm-177.4-69.5v-18.9h161.9v18.9zm146.8 208.8h-131.8v-21.1h131.8zm0-179.6v147.4h-131.8v-165.5h131.8zm-144.7-229.2v-26.2h483.7v26.2zm28.3 20.9v-9.8h427v9.8c-113.3 0-313.7 0-427 0zm221.8 11.1v68.4h-16.7v-68.4zm-46.9 174.4c-.9 0-1.5-.7-1.5-1.5v-91.7c0-.9.7-1.5 1.5-1.5h77.2c.9 0 1.5.7 1.5 1.5v91.7c0 .8-.7 1.5-1.5 1.5zm46.9 202.4h-16.7v-191.3h16.7zm77.7-76.5h-4c0-5.9 0-17.6 0-23.4h4zm0-34.5h-9.5c-3.1 0-5.5 2.5-5.5 5.5v11.7h-4.4v-45.5c0-16.5 8.4-30.3 19.5-33.8v62.1zm142.9 111h-131.8v-21.1h131.8zm0-32.2h-131.8c0-8.9 0-163.5 0-165.5h131.8zm-146.9-176.6v-18.9h161.9v18.9zm38.6 77.3h84.7c3.1 0 5.5-2.5 5.5-5.5v-42.5c0-3.1-2.5-5.5-5.5-5.5h-84.7c-3.1 0-5.5 2.5-5.5 5.5v42.5c0 3 2.4 5.5 5.5 5.5zm5.6-42.5h73.6v31.4h-73.6zm79.1 55.1h-25.7c-3.1 0-5.5 2.5-5.5 5.5v42.5c0 3.1 2.5 5.5 5.5 5.5h25.7c3.1 0 5.5-2.5 5.5-5.5v-42.5c0-3-2.4-5.5-5.5-5.5zm-5.6 42.4h-14.6v-31.4h14.6zm-39.8-31.3h-39.3c-7.3 0-7.2-11.1 0-11.1h39.3c7.2 0 7.2 11 0 11.1zm-4.2 5.7c7.6-.1 7.7 13.9 0 13.9-7.6 0-7.7-14 0-13.9zm-15.5 0c7.6-.1 7.7 13.9 0 13.9-7.5 0-7.7-14 0-13.9zm-15.4 0c7.6-.1 7.7 13.9 0 13.9-7.6 0-7.7-14 0-13.9zm30.9 30.6c-7.6.1-7.7-13.9 0-13.9 7.6 0 7.7 14 0 13.9zm-15.5 0c-7.6.1-7.7-13.9 0-13.9 7.6 0 7.8 14 0 13.9zm-15.4 0c-7.6.1-7.7-13.9 0-13.9 7.6 0 7.7 14 0 13.9zm-103.2-200.8h-43.2c-3.1 0-5.5-2.5-5.5-5.5s2.5-5.5 5.5-5.5h43.2c7.3-.1 7.3 11 0 11zm0 28h-43.2c-3.1 0-5.5-2.5-5.5-5.5 0-3.1 2.5-5.5 5.5-5.5h43.2c7.3 0 7.3 11 0 11zm0 28.1h-43.2c-3.1 0-5.5-2.5-5.5-5.5 0-3.1 2.5-5.5 5.5-5.5h43.2c7.3-.1 7.3 10.9 0 11z"/></svg>