<svg id="Layer_2" enable-background="new 0 0 512 512" viewBox="0 0 512 512" xmlns="http://www.w3.org/2000/svg"><g style="fill:none;stroke:#474747;stroke-width:15;stroke-linecap:round;stroke-linejoin:round;stroke-miterlimit:10"><g><circle cx="125.82" cy="115.596" r="25.558"/><path d="m123.29 286.926c9.787-42.933 38.351-82.749 66.393-116.7 12.259-14.842 19.625-33.875 19.625-54.63 0-47.415-38.437-85.852-85.851-85.852-47.269-.001-85.568 38.056-85.852 85.324-.126 20.966 7.265 40.201 19.634 55.171 27.742 33.573 56.372 74.224 66.051 116.687z"/></g><path d="m183.145 248.164h233.216l76.558 232.499h-475.748l66.391-201.624"/><path d="m60.849 364.413h389.065"/><path d="m255.381 248.164v230.795"/><path d="m143.844 478.959 17.799-113.546 93.738-71.555h176.026"/></g></svg>