<svg id="Capa_1" enable-background="new 0 0 512.002 512.002" height="512" viewBox="0 0 512.002 512.002" width="512" xmlns="http://www.w3.org/2000/svg"><g><path d="m502.001 129.006h-78.331l-1.025-2.506c25.167-13.542 42.712-37.722 47.664-66.381.473-2.731-.21-5.536-1.885-7.744-1.674-2.209-4.19-3.623-6.947-3.906-5.556-.57-11.134-.641-16.684-.21-1.792-15.872-8.979-30.775-20.562-42.122-3.064-3.003-7.702-3.715-11.523-1.773-6.212 3.152-11.828 7.142-16.781 11.911-8.659-6.342-18.045-11.558-28.006-15.554-5.01-2.009-10.715.321-12.884 5.269-4.306 9.831-7.348 20.129-9.08 30.722-6.877.067-13.678 1.157-20.319 3.261-4.088 1.295-6.896 5.053-6.979 9.34-.313 16.211 5.003 31.88 14.847 44.46-4.26 3.581-8.191 7.539-11.756 11.84-1.768 2.134-2.571 4.906-2.219 7.655.354 2.749 1.832 5.228 4.082 6.846 4.833 3.474 9.916 6.433 15.172 8.894h-90.987c8.723-34.882-1.894-71.991-28.511-97.05-22.003-20.714-56.708-19.732-77.514 2.131-.036.037-.074.068-.109.105-.017.019-.033.038-.051.057-.016.018-.034.033-.05.051-.031.033-.057.07-.088.104-8.177 8.791-12.482 20.227-12.12 32.239.365 12.106 5.423 23.347 14.242 31.649.003.003.007.006.01.009 6.415 6.034 14.606 9.025 22.77 9.025 8.789 0 17.548-3.469 24.019-10.342 3.786-4.021 3.595-10.35-.426-14.136-4.022-3.787-10.352-3.595-14.136.427-4.925 5.229-13.233 5.436-18.525.456-.001-.001-.001-.001-.002-.002-4.93-4.641-7.756-10.923-7.96-17.69-.203-6.742 2.223-13.16 6.83-18.082 6.401-6.771 15.051-10.655 24.367-10.936 9.341-.286 18.231 3.092 25.035 9.497 22.532 21.213 30.725 53.217 21.433 82.487h-217.011c-5.523 0-10 4.478-10 10s4.477 10 10 10h137.301l-17.766 30.771c-25.001-10.978-53.527-10.027-78.084 3.005-2.448 1.299-4.247 3.556-4.968 6.231-.721 2.676-.299 5.531 1.165 7.884 2.759 4.436 5.893 8.607 9.37 12.479-10.845 10.681-17.834 24.809-19.625 40.161-.497 4.26 1.778 8.361 5.654 10.196 5.944 2.814 12.165 4.718 18.582 5.693.303 10.166 1.857 20.222 4.644 30.007 1.479 5.193 6.818 8.28 12.054 6.959 9.867-2.479 19.353-6.161 28.308-10.981 4.053 5.069 8.812 9.505 14.221 13.245 1.714 1.186 3.702 1.775 5.688 1.775 2.102 0 4.201-.661 5.97-1.978 12.401-9.227 21.142-22.344 24.968-37.075 1.721.363 3.455.656 5.194.917-.118 1.616-.198 3.242-.198 4.887 0 26.206 15.216 48.917 37.272 59.786-3.53 8.242-5.376 17.148-5.376 26.226 0 34.385 26.189 62.767 59.668 66.252-2.01 6.422-3.055 13.148-3.055 19.94 0 36.731 29.884 66.615 66.615 66.615s66.615-29.884 66.615-66.615c0-6.807-1.041-13.526-3.05-19.94 33.478-3.487 59.666-31.867 59.666-66.252 0-9.302-1.923-18.16-5.381-26.209 22.415-11.043 37.278-34.193 37.278-59.802 0-36.731-29.884-66.615-66.615-66.615-16.502 0-32.161 6.058-44.279 16.863-9.489-8.446-21.396-14.226-34.543-16.15-1.904-23.331-13.226-44.03-30.166-58.274h204.874c5.522 0 10-4.478 10-10s-4.479-10.002-10.001-10.002zm-349.186 116.332c-2.935-1.036-6.185-.646-8.793 1.052-2.607 1.7-4.274 4.517-4.51 7.62-.843 11.115-5.558 21.476-13.196 29.359-3.141-3.025-5.843-6.479-8.074-10.323-1.372-2.363-3.65-4.062-6.306-4.702-.774-.187-1.56-.278-2.343-.278-1.903 0-3.785.544-5.413 1.591-6.619 4.261-13.643 7.73-20.975 10.368-1.382-7.669-1.889-15.487-1.509-23.35.132-2.729-.858-5.393-2.741-7.372-1.882-1.98-4.493-3.104-7.225-3.11-4.446-.01-8.788-.624-12.978-1.831 3.008-10.556 9.624-19.819 18.828-26.107 2.57-1.756 4.176-4.607 4.344-7.716s-1.12-6.117-3.485-8.141c-2.401-2.054-4.653-4.262-6.742-6.609 15.624-5.197 32.457-4.682 47.753 1.457l-10.61 18.377c-2.762 4.783-1.123 10.898 3.66 13.66 1.575.909 3.294 1.342 4.991 1.342 3.456 0 6.817-1.794 8.669-5.002l10.611-18.378c12.965 10.177 21.829 24.499 25.137 40.628-3.077-.637-6.114-1.483-9.093-2.535zm29.662 27.844c0-25.704 20.912-46.615 46.615-46.615 11.769 0 22.923 4.408 31.469 12.246-6.072 10.041-9.573 21.803-9.573 34.369s3.5 24.328 9.573 34.369c-8.548 7.837-19.706 12.246-31.469 12.246-25.703.001-46.615-20.91-46.615-46.615zm78.512 132.627c-25.704 0-46.616-20.911-46.616-46.615 0-7.029 1.575-13.908 4.58-20.167 3.307.507 6.693.771 10.139.771 16.495 0 32.157-6.061 44.277-16.865 8.177 7.279 18.153 12.568 29.169 15.125 3.317 6.515 5.065 13.75 5.065 21.136 0 25.704-20.911 46.615-46.614 46.615zm56.613 86.193c-25.704 0-46.615-20.911-46.615-46.615 0-7.452 1.797-14.778 5.183-21.343 17.429-4.08 32.245-15.011 41.434-29.799 9.191 14.792 24.011 25.724 41.446 29.802 3.385 6.567 5.168 13.875 5.168 21.34 0 25.704-20.911 46.615-46.616 46.615zm88.513-265.435c25.704 0 46.615 20.911 46.615 46.615 0 18.625-11.226 35.392-27.945 42.719-10.796-12.591-26.189-21.128-43.561-22.952 1.945-6.248 2.994-12.887 2.994-19.767 0-12.566-3.501-24.329-9.574-34.37 8.549-7.837 19.702-12.245 31.471-12.245zm-34.911 86.114c1.004-.064 2.011-.103 3.015-.103 25.704 0 46.615 20.911 46.615 46.615s-20.911 46.615-46.615 46.615-46.615-20.911-46.615-46.615c0-7.383 1.747-14.62 5.064-21.135 15.682-3.64 29.259-12.821 38.536-25.377zm-6.985-39.499c0 25.704-20.911 46.615-46.615 46.615-25.703 0-46.614-20.911-46.614-46.615s20.911-46.615 46.614-46.615c25.704 0 46.615 20.911 46.615 46.615zm-56.982-65.804c-12.879 2.021-24.539 7.751-33.865 16.052-12.118-10.805-27.776-16.863-44.279-16.863-20.626 0-39.091 9.424-51.32 24.191-6.011-16.283-16.669-30.52-30.916-40.983l23.539-40.77h71.944c33.658.001 61.442 25.614 64.897 58.373zm107.776-99.54-7.311-17.876c-2.091-5.112-7.929-7.563-13.041-5.471-5.112 2.091-7.562 7.93-5.471 13.041l7.311 17.877c-17.209 4.458-35.292 2.538-51.161-5.442 2.667-2.328 5.506-4.464 8.499-6.393 2.617-1.686 4.3-4.493 4.552-7.595.253-3.103-.954-6.146-3.264-8.231-8.848-7.994-14.481-18.807-16.04-30.453 4.702-.731 9.486-.776 14.293-.135 2.706.365 5.447-.398 7.578-2.105 2.133-1.708 3.474-4.214 3.711-6.936.735-8.422 2.429-16.664 5.051-24.611 7.439 3.833 14.423 8.526 20.849 14.02 2.076 1.774 4.788 2.627 7.508 2.348 2.718-.276 5.204-1.651 6.882-3.808 2.979-3.828 6.425-7.147 10.292-9.921 7.049 9.402 10.606 21.063 9.895 32.967-.186 3.107 1.086 6.124 3.44 8.16s5.527 2.859 8.57 2.229c3.486-.723 7.008-1.188 10.543-1.396-5.728 16.812-17.285 30.853-32.686 39.731z"/></g></svg>