<svg id="Layer_1" enable-background="new 0 0 64 64" viewBox="0 0 64 64" xmlns="http://www.w3.org/2000/svg"><path d="m13 13c-2.7568359 0-5 2.2431641-5 5s2.2431641 5 5 5 5-2.2431641 5-5-2.2431641-5-5-5zm0 8c-1.6542969 0-3-1.3457031-3-3s1.3457031-3 3-3 3 1.3457031 3 3-1.3457031 3-3 3zm48.4589844-3.8881836-28.9995117-15c-.2880859-.1494141-.6308594-.1494141-.9189453 0l-12.7129517 6.5757446c-1.6921387-1.0628051-3.6860962-1.687561-5.8275757-1.687561-6.0654297 0-11 4.9345703-11 11v12c0 .5522461.4477539 1 1 1h6.6543579c1.4287109 1.5531616 2.5236816 2.5985718 2.6576538 2.7255859.1928711.1831055.4404297.2744141.6879883.2744141s.4951172-.0913086.6879883-.2744141c.1339721-.1270141 1.2289429-1.1724243 2.6576538-2.7255859h4.6543579v19.8117676c-.9066772.5263672-1.6618652 1.2815552-2.1882324 2.1882324h-15.8117676c-.5522461 0-1 .4477539-1 1s.4477539 1 1 1h15.090332c-.0550537.3259888-.090332.6586304-.090332 1s.0352783.6740112.090332 1h-15.090332c-.5522461 0-1 .4477539-1 1s.4477539 1 1 1h15.8117676c1.0393677 1.7904053 2.9730835 3 5.1882324 3s4.1488647-1.2095947 5.1882324-3h8.8117676c1.6542969 0 3-1.3457031 3-3 0-.8831787-.390686-1.6702271-1-2.2197266v-6.7802734c0-1.6542969-1.3457031-3-3-3h-1-.2558594l-2.1445313-7.1494141c-.5117187-1.7050781-2.0517577-2.8505859-3.8315429-2.8505859h-6.7680664v-4c0-.5522461-.4477539-1-1-1h-3.888855c.2735596-.3236084.5496826-.6576538.8256836-1h36.0631714v12h-3-4-4c-.5527344 0-1 .4477539-1 1v10 10c0 .5522461.4472656 1 1 1h12 5c.5527344 0 1-.4477539 1-1v-43c0-.3740234-.2089844-.7163086-.5410156-.8881836zm-37.4589844 42.8881836c-2.2055664 0-4-1.7944336-4-4s1.7944336-4 4-4 4 1.7944336 4 4-1.7944336 4-4 4zm14-3h-8.090332c.0550537-.3259888.090332-.6586304.090332-1s-.0352783-.6740112-.090332-1h1.090332 7c.5517578 0 1 .4487305 1 1s-.4482422 1-1 1zm-4.3441162-13h-5.6558838v-4h4.4559326zm-3.8878174-8c.8901367 0 1.659668.5727539 1.9155273 1.425293l.1724244.574707h-4.8560181c-.5522461 0-1 .4477539-1 1v6c0 .5522461.4477539 1 1 1h8 1 1c.5517578 0 1 .4487305 1 1v6h-7-1.8117676c-1.0393677-1.7904053-2.9730835-3-5.1882324-3-.3413696 0-.6740112.0352783-1 .090332v-14.090332zm-25.7680664-7v-5.3325806c1.1085205 1.8666382 2.5316772 3.7271119 3.888855 5.3325806zm9 2.6049805c-3.034668-3.0175782-9-9.7460938-9-13.6049805 0-4.9624023 4.0375977-9 9-9s9 4.0375977 9 9c0 1.394043-.7857056 3.1653442-1.9251709 5h-.0748291v.1240234c-2.0137329 3.2020874-5.0875854 6.5783692-7 8.4809571zm7.4636841-5.6049805c.2373657-.3301392.4685059-.6640625.6933594-1h33.8429565v1zm30.5363159 16v1.7260742l-.1708984-.2539063c-.1855469-.2753906-.4960938-.4409179-.8291016-.4409179s-.6435547.1655273-.8291016.440918l-.1708984.2539062v-1.7260742zm-6 0h2v5c0 .4399414.2871094.828125.7080078.956543.4199219.1254883.875-.0327148 1.1210938-.3974609l1.1708984-1.737793 1.1708984 1.737793c.1894532.2807617.5029297.4409179.8291016.4409179.0976563 0 .1953125-.0141602.2919922-.043457.4208984-.128418.7080078-.5166016.7080078-.956543v-5h2v8h-3-4-3zm4 10h2v1.7260742l-.1708984-.2539063c-.1855469-.2753906-.4960938-.4409179-.8291016-.4409179s-.6435547.1655273-.8291016.440918l-.1708984.2539062zm-4 0h2v5c0 .4399414.2871094.828125.7080078.956543.4199219.1259766.875-.0327148 1.1210938-.3974609l1.1708984-1.737793 1.1708984 1.737793c.1894532.2807617.5029297.4409179.8291016.4409179.0976563 0 .1953125-.0141602.2919922-.043457.4208984-.128418.7080078-.5166016.7080078-.956543v-5h2v8h-10zm15 8h-3v-9-10-17c0-.5522461-.4472656-1-1-1h-33.6176147c.9692382-1.758728 1.6176147-3.4956055 1.6176147-5 0-3.1324463-1.3228149-5.9561768-3.4310913-7.9614868l11.4310913-5.9125366 28 14.4824219zm-33-45c0 2.7568359 2.2431641 5 5 5s5-2.2431641 5-5-2.2431641-5-5-5-5 2.2431641-5 5zm8 0c0 1.6542969-1.3457031 3-3 3s-3-1.3457031-3-3 1.3457031-3 3-3 3 1.3457031 3 3zm-11 38c-1.6542969 0-3 1.3457031-3 3s1.3457031 3 3 3 3-1.3457031 3-3-1.3457031-3-3-3zm0 4c-.5512695 0-1-.4487305-1-1s.4487305-1 1-1 1 .4487305 1 1-.4487305 1-1 1zm-22-9c0-.5522461.4477539-1 1-1h9c.5522461 0 1 .4477539 1 1s-.4477539 1-1 1h-9c-.5522461 0-1-.4477539-1-1zm0-5c0-.5522461.4477539-1 1-1h8c.5522461 0 1 .4477539 1 1s-.4477539 1-1 1h-8c-.5522461 0-1-.4477539-1-1zm0-5c0-.5522461.4477539-1 1-1h7c.5522461 0 1 .4477539 1 1s-.4477539 1-1 1h-7c-.5522461 0-1-.4477539-1-1z"/></svg>