<svg id="Capa_1" enable-background="new 0 0 511 511" height="512" viewBox="0 0 511 511" width="512" xmlns="http://www.w3.org/2000/svg"><g><path d="m423.727 293.12c31.63-7.372 55.273-35.778 55.273-69.62v-7.5h-7.5c-22.958 0-43.409 10.889-56.5 27.76v-20.26h-15v52.26c-13.091-16.871-33.542-27.76-56.5-27.76h-7.5v7.5c0 8.603 1.528 16.854 4.326 24.5h-53.326v-49h72v-143h-72v-32h-63v32h-72v143h72v49h-57.5v15h57.5v48h63v-48h60.94c11.515 17.304 30.354 29.331 52.06 31.604v16.896h15v-37.893l70.394 70.393h-459.788l81-81h44.894v-15h-51.106l-100.394 100.394v74.606h384.5v-15h-369.5v-49h481v49h-96.5v15h111.5v-74.606zm-184.727-222.12h33v17h-33zm33 257h-33v-97h33zm-105-112v-81h64.5v-15h-64.5v-17h177v81h-32.5v15h32.5v17zm184.575 47.575c24.703 3.552 44.298 23.146 47.85 47.85-24.703-3.552-44.298-23.147-47.85-47.85zm111.85-32c-3.552 24.703-23.146 44.298-47.85 47.85 3.552-24.703 23.147-44.298 47.85-47.85z"/><path d="m263 408h15v15h-15z"/><path d="m233 408h15v15h-15z"/></g></svg>