<?xml version="1.0" encoding="UTF-8"?>
<svg xmlns="http://www.w3.org/2000/svg" viewBox="0 0 512 512" width="512" height="512"><g id="Out_line" data-name="Out line"><path d="M480,400V216A120.13373,120.13373,0,0,0,360,96H152A120.13373,120.13373,0,0,0,32,216V400H16v16H496V400Zm-32-72h-8v-8a16.01833,16.01833,0,0,1,16-16h8v8A16.01833,16.01833,0,0,1,448,328ZM96,328H88v-8a16.01833,16.01833,0,0,1,16-16h8v8A16.01833,16.01833,0,0,1,96,328Zm16-80v40h-8a31.925,31.925,0,0,0-24,10.86816A31.925,31.925,0,0,0,56,288H48V224H256v64h-8a31.925,31.925,0,0,0-24,10.86816A31.925,31.925,0,0,0,200,288h-8V248a7.9979,7.9979,0,0,0-8-8H120A7.9979,7.9979,0,0,0,112,248Zm96-119.60986A104.13272,104.13272,0,0,1,255.7,208H208ZM192,312v-8h8a16.01833,16.01833,0,0,1,16,16v8h-8A16.01833,16.01833,0,0,1,192,312Zm40,8a16.01833,16.01833,0,0,1,16-16h8v8a16.01833,16.01833,0,0,1-16,16h-8Zm40-96h88v64h-8a31.92423,31.92423,0,0,0-24,10.86816A31.92423,31.92423,0,0,0,304,288H288a8.00039,8.00039,0,0,0-8,8v16a31.79447,31.79447,0,0,0,4.30518,16H272Zm24,88v-8h8a16.01833,16.01833,0,0,1,16,16v8h-8A16.01833,16.01833,0,0,1,296,312Zm40,8a16.01833,16.01833,0,0,1,16-16h8v8a16.01833,16.01833,0,0,1-16,16h-8Zm40-96h88v64h-8a31.92423,31.92423,0,0,0-24,10.86816A31.92423,31.92423,0,0,0,408,288H392a8.00039,8.00039,0,0,0-8,8v16a31.79447,31.79447,0,0,0,4.30518,16H376Zm24,88v-8h8a16.01833,16.01833,0,0,1,16,16v8h-8A16.01833,16.01833,0,0,1,400,312ZM360,112a104.13539,104.13539,0,0,1,103.7002,96H375.73a120.11807,120.11807,0,0,0-59.91992-96Zm-104,0a104.13539,104.13539,0,0,1,103.7002,96H271.73a120.11807,120.11807,0,0,0-59.91992-96Zm-104,0a103.46839,103.46839,0,0,1,40,8v88H112V120A103.46839,103.46839,0,0,1,152,112ZM96,128.39014V208H48.30005A104.13272,104.13272,0,0,1,96,128.39014ZM48,304h8a16.01833,16.01833,0,0,1,16,16v8H64a16.01833,16.01833,0,0,1-16-16Zm0,96V344h64v56Zm80,0V256h48V400Zm64-56h64v56H192Zm80,0h88v56H272Zm104,0h88v56H376Z"/></g></svg>
