<svg id="Capa_1" enable-background="new 0 0 512.001 512.001" height="512" viewBox="0 0 512.001 512.001" width="512" xmlns="http://www.w3.org/2000/svg"><g><path d="m60.001 384.098c21.568-.736 48.601 5.015 78.168 16.641 33.645 13.231 52.872 2.511 71.466-7.854 14.083-7.852 28.646-15.97 51.781-15.97 25.558 0 40.382 7.429 54.717 14.612 13.39 6.71 27.234 13.647 48.03 13.647 25.023 0 40.458 5.542 54.075 10.433 6.396 2.296 12.436 4.465 18.667 5.707.495.099.987.146 1.474.146 3.504 0 6.637-2.468 7.348-6.035.81-4.063-1.827-8.012-5.89-8.821-5.141-1.024-10.418-2.919-16.529-5.114-10.92-3.921-23.921-8.587-42.165-10.467v-80.412c1.74-.593 3.501-1.143 5.282-1.648 6.738-1.911 12.346-6.193 16.039-11.763 5.902 5.204 13.174 8.752 21.125 10.153 2.545.449 5.092.669 7.616.669 12.111 0 23.702-5.069 32.04-14.272 3.401-3.756 4.327-9.004 2.418-13.694-3.947-9.703-11.092-17.447-20.156-22.13 4.055-10.234 4.21-21.69.145-32.306-1.812-4.731-6.244-8.059-11.293-8.477-15.404-1.272-30.12 5.329-39.386 17.664-4.326 5.759-7.094 12.433-8.263 19.368-1.804-.523-3.666-.867-5.567-1.026v-65.047c1.743-.594 3.499-1.16 5.282-1.666 10.692-3.033 18.566-12.016 20.393-22.683 2.521-1.127 4.96-2.505 7.283-4.131 12.274-8.594 19.16-22.672 18.421-37.656-.249-5.062-3.304-9.429-7.974-11.397-3.487-1.469-7.169-2.454-10.917-2.974.841-7.06-.003-14.331-2.651-21.247-1.812-4.731-6.245-8.059-11.293-8.477-6.34-.527-12.653.314-18.545 2.387v-29.785c0-14.416-11.729-26.145-26.145-26.145-10.855 0-20.184 6.651-24.131 16.092-11.418-6.298-24.996-7.316-37.417-2.558-4.733 1.81-8.062 6.243-8.479 11.294-1.276 15.396 5.327 30.119 17.663 39.384 4.361 3.277 9.263 5.692 14.424 7.181-1.504 2.061-2.975 4.155-4.375 6.312-5.642 8.695-6.103 19.354-1.233 28.513 3.752 7.056 10.004 11.981 17.404 13.975v17.62c-5.759 2.122-10.918 5.353-15.245 9.452-7.811-5.449-17.313-8.24-26.981-7.761-5.061.249-9.428 3.305-11.396 7.974-5.828 13.82-4.172 29.407 4.431 41.692 6.991 9.985 17.654 16.442 29.607 18.071.028.036.054.074.083.11-2.331 7.557-1.355 15.768 2.884 22.773 3.813 6.303 9.751 10.717 16.619 12.586v17.453c-11.77-7.22-26.129-8.62-39.211-3.608-4.731 1.812-8.059 6.244-8.477 11.293-1.275 15.396 5.327 30.12 17.664 39.386 5.643 4.239 12.163 6.994 18.949 8.203-7.911 10.644-13.213 20.961-16.545 28.702-10.641-3.783-23.311-6.554-39.82-6.554-27.034 0-44.063 9.492-59.086 17.868-12.106 6.749-21.999 12.26-35.086 12.185v-81.358c1.74-.593 3.501-1.143 5.282-1.648 6.738-1.911 12.346-6.193 16.039-11.763 5.902 5.204 13.174 8.752 21.125 10.153 2.545.449 5.092.669 7.616.669 12.111 0 23.701-5.069 32.037-14.271 3.401-3.754 4.329-9.001 2.421-13.696-3.948-9.703-11.092-17.447-20.156-22.13 4.055-10.234 4.21-21.689.146-32.306-1.812-4.731-6.245-8.059-11.294-8.477-15.405-1.272-30.12 5.329-39.385 17.664-4.326 5.759-7.094 12.433-8.263 19.368-1.804-.523-3.666-.867-5.567-1.026v-65.047c1.743-.594 3.499-1.16 5.282-1.666 10.692-3.033 18.566-12.016 20.393-22.683 2.521-1.127 4.96-2.505 7.283-4.131 12.274-8.594 19.16-22.672 18.421-37.656-.249-5.063-3.305-9.43-7.974-11.397-3.487-1.469-7.169-2.454-10.916-2.974.841-7.059-.003-14.33-2.651-21.244-1.81-4.733-6.243-8.062-11.293-8.479-6.339-.524-12.652.316-18.545 2.389v-29.784c0-14.416-11.729-26.145-26.145-26.145-10.855 0-20.184 6.651-24.131 16.091-11.419-6.299-24.996-7.315-37.416-2.558-4.731 1.809-8.06 6.241-8.48 11.294-1.274 15.396 5.328 30.12 17.663 39.385 4.362 3.276 9.264 5.691 14.425 7.18-1.504 2.061-2.975 4.155-4.375 6.312-5.642 8.695-6.104 19.354-1.233 28.513 3.752 7.056 10.004 11.981 17.403 13.975v17.62c-5.759 2.122-10.918 5.353-15.245 9.453-7.815-5.448-17.325-8.235-26.98-7.761-5.061.249-9.428 3.305-11.396 7.974-5.828 13.82-4.172 29.407 4.431 41.692 6.991 9.985 17.654 16.442 29.607 18.071.028.036.054.073.082.109-2.332 7.558-1.355 15.77 2.883 22.775 3.813 6.302 9.752 10.716 16.619 12.585v17.453c-11.77-7.22-26.127-8.62-39.21-3.608-4.729 1.811-8.058 6.242-8.478 11.293-1.274 15.397 5.328 30.121 17.664 39.386 5.644 4.239 12.164 6.994 18.95 8.203-8.744 11.764-14.297 23.129-17.532 31.055-9.544-1.404-18.553-1.997-26.862-1.714-4.14.143-7.381 3.613-7.238 7.753.14 4.141 3.633 7.425 7.751 7.239zm306.141 6.09c-.656-.007-1.312-.014-1.979-.014-7.769 0-14.296-1.14-20.309-2.977v-50.658c3.252-1.84 5.49-5.069 6.056-8.803 5.097-4.078 10.518-7.636 16.232-10.657zm60.051-97.608c-5.431-.958-10.372-3.454-14.32-7.11 9.932-1.811 19.117-6.963 25.825-14.689 5.986 2.827 10.779 7.664 13.581 13.794-6.56 6.648-15.842 9.635-25.086 8.005zm-19.226-48.767c5.928-7.894 15.214-12.246 25.053-11.794 3.177 9.297 1.582 19.441-4.353 27.343-5.966 7.943-15.233 12.262-25.057 11.811-3.185-9.312-1.604-19.424 4.357-27.36zm-19.928 27.1c.534 2.535 1.273 5.039 2.261 7.477.662 1.634 1.652 3.068 2.877 4.242-.461 5.545-4.38 10.348-9.846 11.9-.398.113-.792.237-1.188.354v-26.621c2.153.386 4.166 1.29 5.896 2.648zm-20.897 29.497c-6.173 2.757-12.082 6.025-17.693 9.801-1.074-3.704-2.617-7.262-4.595-10.573v-73.563c5.204-5.21 9.15-11.683 11.277-18.924.663-2.257 1.122-4.536 1.424-6.819 3.092-2.095 6.287-4.024 9.587-5.768zm16.188-128.404c-.399.113-.79.247-1.188.365v-5.665c2.662.513 5.346.781 8.025.789-1.725 2.113-4.08 3.728-6.837 4.511zm-1.188-26.262c4.003.734 7.416 3.264 9.357 6.711-3.126.136-6.283-.261-9.357-1.183zm36.432-21.809c.064 9.34-4.39 18.016-12.077 23.398-.188.132-.383.248-.573.375-1.749-4.095-4.424-7.683-7.774-10.507 2.905-2.329 5.54-5.04 7.841-8.103 1.644-2.19 3.056-4.498 4.254-6.887 2.84.159 5.659.735 8.329 1.724zm-20.226-31.187c3.177 9.299 1.581 19.442-4.353 27.343-3.136 4.174-7.207 7.364-11.854 9.38v-32.76c4.894-2.827 10.516-4.219 16.207-3.963zm-42.35-53.419c6.146 0 11.145 4.999 11.145 11.145v127.428c-3.64 1.626-7.186 3.431-10.633 5.412-1.739-6.658-5.019-12.933-9.767-18.302-.575-.649-1.21-1.228-1.888-1.742v-112.797c-.001-6.145 4.998-11.144 11.143-11.144zm-55.15 12.166c9.3-3.178 19.443-1.583 27.343 4.353.57.429 1.124.882 1.663 1.351v25.29c-6.18-.1-12.139-2.129-17.212-5.941-7.893-5.93-12.251-15.229-11.794-25.053zm24.846 72.007c-2.273-4.275-2.059-9.249.573-13.306 1.151-1.774 2.357-3.5 3.587-5.201v23.21c-1.701-1.177-3.131-2.768-4.16-4.703zm10.529 52.289c6.237 7.593 8.302 17.651 5.516 27.132-2.756 9.382-10.079 16.854-19.322 19.848-6.248-7.601-8.314-17.624-5.517-27.146h.001c2.782-9.472 9.962-16.814 19.322-19.834zm-43.274 29.103c-5.388-7.695-6.608-17.369-3.351-26.114.054 0 .108-.001.162-.001 5.671 0 11.2 1.707 15.851 4.828-1.258 2.465-2.302 5.067-3.102 7.788-2.087 7.103-2.296 14.533-.83 21.611-3.399-2.023-6.383-4.76-8.73-8.112zm33.119 41.793c-1.661-2.746-2.233-5.873-1.753-8.878.088-.021.177-.028.264-.051 1.805-.471 3.563-1.06 5.274-1.747v14.714c-1.489-1.035-2.783-2.382-3.785-4.038zm-29.023 47.828c9.3-3.179 19.442-1.583 27.343 4.353 7.942 5.966 12.28 15.235 11.811 25.057-9.313 3.185-19.425 1.604-27.359-4.356-7.895-5.93-12.251-15.229-11.795-25.054zm32.809 55.496v31.075c-1.978-.957-11.11-5.528-13.793-6.805 2.842-6.591 7.273-15.261 13.793-24.27zm-176.61 39.672c-2.71-.76-5.557-1.713-8.586-2.904-4.624-1.818-9.19-3.484-13.703-5.03v-45.212c3.253-1.839 5.49-5.069 6.057-8.802 5.097-4.078 10.518-7.636 16.232-10.657zm60.051-97.103c-5.432-.958-10.373-3.454-14.321-7.11 9.932-1.811 19.117-6.963 25.826-14.689 5.987 2.827 10.78 7.665 13.581 13.793-6.559 6.65-15.846 9.635-25.086 8.006zm-19.227-48.767c5.929-7.894 15.229-12.249 25.053-11.794 3.176 9.298 1.581 19.442-4.353 27.343-5.966 7.943-15.236 12.262-25.057 11.811-3.185-9.312-1.604-19.424 4.357-27.36zm-19.928 27.1c.534 2.535 1.273 5.039 2.261 7.477.662 1.634 1.652 3.068 2.877 4.242-.461 5.545-4.38 10.348-9.846 11.9-.398.113-.792.237-1.188.354v-26.621c2.153.386 4.167 1.29 5.896 2.648zm-20.896 29.497c-6.173 2.757-12.082 6.025-17.693 9.801-1.074-3.704-2.618-7.263-4.596-10.574v-73.562c5.204-5.21 9.15-11.683 11.278-18.924.663-2.257 1.122-4.536 1.424-6.819 3.092-2.095 6.287-4.025 9.587-5.768zm16.188-128.404c-.4.113-.79.247-1.188.365v-5.666c2.662.513 5.346.781 8.025.789-1.725 2.114-4.08 3.729-6.837 4.512zm-1.188-26.262c4.003.734 7.416 3.264 9.357 6.711-3.126.136-6.283-.261-9.357-1.184zm36.431-21.809c.064 9.339-4.39 18.016-12.077 23.398-.188.132-.383.248-.573.375-1.749-4.095-4.424-7.683-7.774-10.507 2.905-2.329 5.54-5.04 7.84-8.103 1.645-2.19 3.057-4.498 4.255-6.887 2.84.159 5.66.735 8.329 1.724zm-20.226-31.187c3.177 9.298 1.582 19.441-4.353 27.343-3.135 4.174-7.206 7.364-11.853 9.38v-32.761c4.892-2.826 10.513-4.218 16.206-3.962zm-42.35-53.419c6.146 0 11.145 4.999 11.145 11.145v127.429c-3.64 1.626-7.186 3.432-10.633 5.412-1.739-6.658-5.019-12.933-9.767-18.301-.575-.65-1.211-1.229-1.889-1.745v-112.796c0-6.145 4.999-11.144 11.144-11.144zm-55.15 12.167c9.298-3.18 19.443-1.584 27.344 4.352.57.428 1.123.882 1.662 1.35v25.291c-6.178-.1-12.139-2.131-17.212-5.942-7.894-5.929-12.25-15.23-11.794-25.051zm24.847 72.007c-2.273-4.275-2.06-9.25.573-13.307 1.151-1.774 2.357-3.499 3.586-5.199v23.208c-1.701-1.177-3.131-2.768-4.159-4.702zm10.528 52.288c6.237 7.593 8.303 17.651 5.518 27.132-2.802 9.531-9.96 16.845-19.321 19.85-6.25-7.602-8.316-17.625-5.519-27.148h-.001c2.783-9.472 9.964-16.815 19.323-19.834zm-43.274 29.103c-5.388-7.695-6.608-17.369-3.351-26.114.054 0 .108-.001.163-.001 5.67 0 11.2 1.707 15.849 4.828-1.258 2.465-2.302 5.067-3.102 7.788h-.001c-2.086 7.103-2.295 14.533-.828 21.611-3.399-2.023-6.383-4.76-8.73-8.112zm33.12 41.793c-1.661-2.746-2.234-5.872-1.754-8.877.088-.021.177-.028.265-.051 1.804-.471 3.563-1.06 5.273-1.746v14.713c-1.489-1.036-2.783-2.383-3.784-4.039zm-29.025 47.829c9.295-3.18 19.442-1.584 27.343 4.351 7.819 5.874 12.247 15.353 11.809 25.059-9.311 3.184-19.421 1.604-27.357-4.357-7.894-5.93-12.251-15.23-11.795-25.053zm32.81 55.495v27.029c-4.59-1.298-9.09-2.422-13.509-3.408 2.849-6.506 7.197-14.9 13.509-23.621z"/><path d="m463.531 414.913c0 4.143 3.357 7.5 7.5 7.5h33.47c4.143 0 7.5-3.357 7.5-7.5s-3.357-7.5-7.5-7.5h-33.47c-4.143 0-7.5 3.357-7.5 7.5z"/><path d="m2.925 405.826c1.363 1.05 2.974 1.558 4.57 1.558 2.248 0 4.471-1.006 5.948-2.924 4.648-6.036 10.637-10.795 17.798-14.144 3.752-1.755 5.371-6.219 3.616-9.972-1.755-3.752-6.218-5.369-9.972-3.616-9.353 4.374-17.201 10.625-23.327 18.579-2.527 3.282-1.916 7.991 1.367 10.519z"/><path d="m504.501 472.672h-497c-4.143 0-7.5 3.357-7.5 7.5s3.357 7.5 7.5 7.5h497c4.143 0 7.5-3.357 7.5-7.5s-3.358-7.5-7.5-7.5z"/><path d="m242.352 409.097c-4.143 0-7.5 3.357-7.5 7.5s3.357 7.5 7.5 7.5h9.666c4.143 0 7.5-3.357 7.5-7.5s-3.357-7.5-7.5-7.5z"/><path d="m285.027 423.652c-4.143 0-7.5 3.357-7.5 7.5s3.357 7.5 7.5 7.5h15.858c4.143 0 7.5-3.357 7.5-7.5s-3.357-7.5-7.5-7.5z"/><path d="m74.358 414.453c-4.143 0-7.5 3.357-7.5 7.5s3.357 7.5 7.5 7.5h10.203c4.143 0 7.5-3.357 7.5-7.5s-3.357-7.5-7.5-7.5z"/><path d="m391.132 438.786c-4.143 0-7.5 3.357-7.5 7.5s3.357 7.5 7.5 7.5h15.811c4.143 0 7.5-3.357 7.5-7.5s-3.357-7.5-7.5-7.5z"/><path d="m114.161 438.786c-4.143 0-7.5 3.357-7.5 7.5s3.357 7.5 7.5 7.5h25.907c4.143 0 7.5-3.357 7.5-7.5s-3.357-7.5-7.5-7.5z"/></g></svg>