<svg id="Layer_1" viewBox="0 0 64 64" xmlns="http://www.w3.org/2000/svg" data-name="Layer 1"><path d="m60 48.16c0-2.32-1.51-4.37-3.72-5.06l-1.28-.4v-8.29l2.24-2.24c2.87-2.87 3.19-7.44.75-10.68-.61-.81-1.4-1.45-2.37-1.76-2.12-.68-4.26.02-5.53 1.65-2.52 3.24-2.23 7.88.67 10.78l2.24 2.24v7.66l-9-2.81v-34c0-.4-.24-.76-.6-.92-7.35-3.11-15.45-3.11-22.8 0-.37.15-.6.52-.6.92v25.98s-11.09-6.65-11.09-6.65c-.96-.68-2.21-.77-3.26-.23-1.02.53-1.66 1.56-1.66 2.69v32.96h-1c-.55 0-1 .45-1 1 0 .55.45 1 1 1h58.01c.55 0 1-.45 1-1 0-.55-.45-1-1-1h-1zm-7.82-17.4c-2.16-2.16-2.4-5.6-.58-8.04.41-.55.99-.99 1.66-1.15 1.19-.29 2.36.13 3.07 1.05 1.9 2.45 1.69 5.95-.51 8.14l-.82.82v-4.59c0-.55-.45-1-1-1-.55 0-1 .45-1 1v4.59zm3.51 14.25c1.39.43 2.32 1.7 2.32 3.15v11.84h-14v-18.64zm-22.68.99h4v14h-4zm-2 14h-4v-14h4zm7-16h-12c-.55 0-1 .45-1 1v15h-3v-18.17l6.12-1.11c2.57-.47 5.18-.47 7.75 0l6.12 1.11v18.17h-3v-15c0-.55-.45-1-1-1zm-16.01-30.17 5-.91v6.97l-5 .91zm0 19 5-.91v6.97l-5 .91zm20-2.03-5-.91v-7.97l5 .91zm-7-1.22c-2-.26-4-.26-6 0v-7.97c2-.26 4-.26 6 0zm-6 2.02c2-.28 4-.28 6 0v6.99c-2-.26-4-.26-6 0zm8 .33 5 .91v6.97l-5-.91zm5-11.12-5-.91v-6.97l5 .91zm-7-1.21c-2-.24-4-.24-6 0v-6.98c2-.26 4-.26 6 0zm-13 3.24 5-.91v7.97l-5 .91zm20-11.03-5-.91v-6.42c1.69.32 3.36.8 5 1.45zm-7-7.62v6.42c-2-.24-4-.24-6 0v-6.43c2-.22 4-.22 6 0zm-8 .3v6.42l-5 .91v-5.9c1.64-.65 3.31-1.13 5-1.45zm-21 34.51h8c.55 0 1-.45 1-1 0-.55-.45-1-1-1h-8v-2h4c.55 0 1-.45 1-1 0-.55-.45-1-1-1h-4v-5.96c0-.56.4-.82.57-.91.39-.2.83-.17 1.24.12l12.18 7.31v26.43h-13.99v-21z"/><path d="m47 58h8c.55 0 1-.45 1-1v-10c0-.55-.45-1-1-1h-8c-.55 0-1 .45-1 1v10c0 .55.45 1 1 1zm1-2v-3h6v3zm6-8v3h-6v-3z"/><path d="m17 41h-8c-.55 0-1 .45-1 1v15c0 .55.45 1 1 1h8c.55 0 1-.45 1-1v-15c0-.55-.45-1-1-1zm-1 2v3h-6v-3zm0 5v3h-6v-3zm-6 8v-3h6v3z"/></svg>