<svg id="Layer_1" viewBox="0 0 512 512" xmlns="http://www.w3.org/2000/svg" data-name="Layer 1"><path d="m163.145 302.862c0-4.418 3.582-8 8-8h13.055c9.788 0 18.054 6.355 20.568 15.815l22.219 83.599h84.12l21.1-58.521h-108.559c-4.418 0-8-3.582-8-8s3.582-8 8-8h110.71c4.725 0 9.161 2.301 11.867 6.154s3.365 8.806 1.763 13.249l-23.735 65.832c-1.144 3.172-4.153 5.286-7.525 5.286h-98.842c-2.003 0-3.694 1.692-3.694 3.695s1.691 3.694 3.694 3.694h91.108c4.418 0 8 3.582 8 8s-3.582 8-8 8h-91.108c-10.859 0-19.694-8.835-19.694-19.694 0-8.356 5.239-15.495 12.598-18.351l-21.484-80.833c-.634-2.384-2.638-3.925-5.105-3.925h-13.055c-4.418 0-8-3.582-8-8zm126.224 134.739c-7.693 0-13.929 6.236-13.929 13.929s6.237 13.93 13.929 13.93 13.929-6.237 13.929-13.93-6.237-13.929-13.929-13.929zm-51.343 0c-7.693 0-13.93 6.236-13.93 13.929s6.237 13.93 13.93 13.93 13.929-6.237 13.929-13.93-6.236-13.929-13.929-13.929zm177.584-56.911h-16v26.631h16zm0 55.685h-16v26.631h16zm42.418 0h-16v26.631h16zm-42.418-111.369h-16v26.631h16zm42.418 0h-16v26.631h16zm0 55.685h-16v26.631h16zm-37.209-113.47v-87.744c0-4.418 3.582-8 8-8 3.159 0 5.883 1.836 7.183 4.495h64.999c3.091 0 5.905 1.781 7.229 4.574 1.323 2.793.92 6.1-1.038 8.492l-14.776 18.06 14.776 18.06c1.958 2.393 2.361 5.699 1.038 8.492-1.324 2.793-4.139 4.574-7.229 4.574h-64.182v28.997c0 4.418-3.582 8-8 8s-8-3.582-8-8zm16-44.997h47.3l-8.231-10.06c-2.411-2.947-2.411-7.186 0-10.133l8.231-10.06h-47.3v30.252zm-432.01 2.935 14.776-18.061-14.776-18.061c-1.958-2.392-2.361-5.698-1.038-8.491 1.324-2.793 4.139-4.574 7.229-4.574h64.999c1.3-2.659 4.024-4.495 7.183-4.495 4.418 0 8 3.582 8 8v87.744c0 4.418-3.582 8-8 8s-8-3.582-8-8v-28.997h-64.182c-3.091 0-5.905-1.781-7.229-4.574-1.323-2.793-.92-6.1 1.038-8.491zm31.304-12.995-8.23 10.061h47.3v-30.252h-47.301l8.23 10.061c2.411 2.946 2.411 7.185 0 10.131zm472.888 288.848c0 4.418-3.582 8-8 8h-490.001c-4.418 0-8-3.582-8-8s3.582-8 8-8h4.12v-206.009c0-4.418 3.582-8 8-8h112.124v-57.587c0-4.418 3.582-8 8-8h12.871v-71.485c0-2.924 1.596-5.615 4.16-7.019 29.176-15.96 62.276-24.396 95.725-24.396s66.549 8.437 95.725 24.396c2.565 1.403 4.161 4.095 4.161 7.019v71.485h12.871c4.418 0 8 3.582 8 8v57.587h112.123c4.418 0 8 3.582 8 8v206.009h4.12c4.418 0 8 3.582 8 8zm-373.756-206.009h-104.125v198.009h104.124v-198.009zm36.871-81.587h167.771v-66.673c-25.796-13.247-54.693-20.228-83.886-20.228s-58.09 6.98-83.885 20.228zm188.642 16h-209.513v263.596h209.513v-263.597zm120.123 65.587h-104.123v198.009h104.123zm-170.38-134.653v29.731c0 4.418-3.582 8-8 8h-93c-4.418 0-8-3.582-8-8v-29.731c0-4.418 3.582-8 8-8h93c4.418 0 8 3.582 8 8zm-16 8h-77v13.731h77zm-46.499-70.459v-86.902c0-4.418 3.582-8 8-8 3.424 0 6.338 2.156 7.479 5.181h75.706c3.091 0 5.905 1.781 7.229 4.574 1.323 2.793.92 6.1-1.038 8.491l-17.66 21.586 17.66 21.586c1.958 2.392 2.361 5.698 1.038 8.491-1.324 2.793-4.139 4.574-7.229 4.574h-75.185v20.417c0 4.418-3.582 8-8 8s-8-3.582-8-8zm16-36.417h58.303l-11.115-13.586c-2.411-2.946-2.411-7.185 0-10.131l11.115-13.586h-58.303zm-194.028 374.901h-16v26.631h16zm42.417-111.369h-16v26.631h16zm0 55.685h-16v26.631h16zm0 55.685h-16v26.631h16zm-42.417-55.685h-16v26.631h16zm0-55.685h-16v26.631h16z"/></svg>