<svg id="Layer_1" enable-background="new 0 0 491.5 491.5" height="512" viewBox="0 0 491.5 491.5" width="512" xmlns="http://www.w3.org/2000/svg"><g id="Layer_x0020_1"><g id="_309712424" clip-rule="evenodd" fill-rule="evenodd"><path id="_309713840" d="m79.5 318.7h332.5v-15.5h-332.5zm337.3 9.4h-342c-2.6 0-4.7-2.1-4.7-4.7v-25c0-2.6 2.1-4.7 4.7-4.7h342c2.6 0 4.7 2.1 4.7 4.7v25c0 2.6-2.1 4.7-4.7 4.7z"/><path id="_309713888" d="m90.6 303.2c-2.6 0-4.7-2.1-4.7-4.7v-154.7c0-2.6 2.1-4.7 4.7-4.7s4.7 2.1 4.7 4.7v154.7c.1 2.5-2.1 4.7-4.7 4.7zm310.3 0c-2.6 0-4.7-2.1-4.7-4.7v-154.7c0-2.6 2.1-4.7 4.7-4.7s4.7 2.1 4.7 4.7v154.7c0 2.5-2.1 4.7-4.7 4.7z"/><path id="_309714056" d="m411.9 125.5c-.7 0-1.5-.2-2.2-.5l-164-86-164 86c-2.3 1.2-5.2.3-6.4-2s-.3-5.2 2-6.4l166.2-87.2c1.4-.7 3-.7 4.4 0l166.2 87.2c2.3 1.2 3.2 4.1 2 6.4-.8 1.5-2.4 2.5-4.2 2.5z"/><path id="_309713648" d="m84.3 139h322.9v-13.6h-322.9zm327.6 9.5h-332.3c-2.6 0-4.7-2.1-4.7-4.7v-23.1c0-2.6 2.1-4.7 4.7-4.7h332.4c2.6 0 4.7 2.1 4.7 4.7v23.1c0 2.6-2.1 4.7-4.8 4.7z"/><path id="_309712640" d="m291.4 303.2c-2.6 0-4.7-2.1-4.7-4.7v-113.5h-81.8v113.4c0 2.6-2.1 4.7-4.7 4.7s-4.7-2.1-4.7-4.7v-118.2c0-2.6 2.1-4.7 4.7-4.7h91.3c2.6 0 4.7 2.1 4.7 4.7v118.2c-.1 2.6-2.2 4.8-4.8 4.8z"/><path id="_309712928" d="m324.2 242h43.8v-57h-43.8zm48.6 9.5h-53.3c-2.6 0-4.7-2.1-4.7-4.7v-66.5c0-2.6 2.1-4.7 4.7-4.7h53.3c2.6 0 4.7 2.1 4.7 4.7v66.5c0 2.6-2.1 4.7-4.7 4.7z"/><path id="_309713096" d="m372.8 230.4h-53.3c-2.6 0-4.7-2.1-4.7-4.7s2.1-4.7 4.7-4.7h53.3c2.6 0 4.7 2.1 4.7 4.7s-2.1 4.7-4.7 4.7z"/><path id="_309712904" d="m123.5 242h43.8v-57h-43.8zm48.5 9.5h-53.3c-2.6 0-4.7-2.1-4.7-4.7v-66.5c0-2.6 2.1-4.7 4.7-4.7h53.3c2.6 0 4.7 2.1 4.7 4.7v66.5c.1 2.6-2.1 4.7-4.7 4.7z"/><path id="_309712808" d="m172 230.4h-53.3c-2.6 0-4.7-2.1-4.7-4.7s2.1-4.7 4.7-4.7h53.3c2.6 0 4.7 2.1 4.7 4.7.1 2.6-2.1 4.7-4.7 4.7z"/><path id="_309712784" d="m245.8 303.2c-2.6 0-4.7-2.1-4.7-4.7v-118.2c0-2.6 2.1-4.7 4.7-4.7s4.7 2.1 4.7 4.7v118.2c0 2.5-2.1 4.7-4.7 4.7z"/><path id="_309713288" d="m399 385.9c-2.6 0-4.7-2.1-4.7-4.7v-57.8c0-2.6 2.1-4.7 4.7-4.7s4.7 2.1 4.7 4.7v57.8c0 2.6-2.1 4.7-4.7 4.7zm-26.7.3c-2.6 0-4.7-2.1-4.7-4.7v-58.1c0-2.6 2.1-4.7 4.7-4.7s4.7 2.1 4.7 4.7v58.1c.1 2.6-2 4.7-4.7 4.7z"/><path id="_309713120" d="m305.7 386c-2.6 0-4.7-2.1-4.7-4.7v-57.9c0-2.6 2.1-4.7 4.7-4.7s4.7 2.1 4.7 4.7v57.9c.1 2.6-2.1 4.7-4.7 4.7zm-26.6.1c-2.6 0-4.7-2.1-4.7-4.7v-58c0-2.6 2.1-4.7 4.7-4.7s4.7 2.1 4.7 4.7v58c0 2.6-2.1 4.7-4.7 4.7z"/><path id="_309712568" d="m185.8 386c-2.6 0-4.7-2.1-4.7-4.7v-57.9c0-2.6 2.1-4.7 4.7-4.7s4.7 2.1 4.7 4.7v57.9c0 2.6-2.1 4.7-4.7 4.7zm26.7.1c-2.6 0-4.7-2.1-4.7-4.7v-58c0-2.6 2.1-4.7 4.7-4.7s4.7 2.1 4.7 4.7v58c0 2.6-2.1 4.7-4.7 4.7z"/><path id="_309712976" d="m92.5 385.9c-2.6 0-4.7-2.1-4.7-4.7v-57.8c0-2.6 2.1-4.7 4.7-4.7s4.7 2.1 4.7 4.7v57.8c.1 2.6-2 4.7-4.7 4.7zm26.7.3c-2.6 0-4.7-2.1-4.7-4.7v-58.1c0-2.6 2.1-4.7 4.7-4.7s4.7 2.1 4.7 4.7v58.1c0 2.6-2.1 4.7-4.7 4.7z"/><path id="_309713264" d="m64.7 453.2h362.1v-74.3c-5.5.7-11.2 2.4-17.1 4.1-7.9 2.4-16.1 4.8-24.6 4.8-8.4 0-16.6-2.5-24.6-4.8-7.6-2.3-14.8-4.4-21.9-4.4-7 0-14.2 2.2-21.9 4.4-7.9 2.4-16.1 4.8-24.6 4.8-8.4 0-16.6-2.5-24.6-4.8-7.6-2.3-14.8-4.4-21.9-4.4-7 0-14.2 2.2-21.9 4.4-7.9 2.4-16.1 4.8-24.6 4.8-8.4 0-16.6-2.5-24.6-4.8-7.6-2.3-14.8-4.4-21.9-4.4-7 0-14.2 2.2-21.9 4.4-7.9 2.4-16.1 4.8-24.6 4.8-8.4 0-16.6-2.5-24.6-4.8-5.9-1.8-11.6-3.5-17.1-4.1zm366.8 9.5h-371.5c-2.6 0-4.7-2.1-4.7-4.7v-84.1c0-2.6 2.1-4.7 4.7-4.7 8.4 0 16.6 2.5 24.6 4.8 7.6 2.3 14.8 4.4 21.9 4.4 7 0 14.2-2.2 21.9-4.4 7.9-2.4 16.1-4.8 24.6-4.8 8.4 0 16.6 2.5 24.6 4.8 7.6 2.3 14.8 4.4 21.9 4.4 7 0 14.2-2.2 21.9-4.4 7.9-2.4 16.1-4.8 24.6-4.8 8.4 0 16.6 2.5 24.6 4.8 7.6 2.3 14.8 4.4 21.9 4.4 7 0 14.2-2.2 21.9-4.4 7.9-2.4 16.1-4.8 24.6-4.8 8.4 0 16.6 2.5 24.6 4.8 7.6 2.3 14.8 4.4 21.9 4.4 7 0 14.2-2.2 21.9-4.4 7.9-2.4 16.1-4.8 24.6-4.8 2.6 0 4.7 2.1 4.7 4.7v84.1c-.4 2.6-2.6 4.7-5.2 4.7z"/><path id="_309712232" d="m385.1 422.2c-8.4 0-16.6-2.5-24.6-4.8-7.6-2.3-14.8-4.4-21.9-4.4-7 0-14.2 2.2-21.9 4.4-7.9 2.4-16.1 4.8-24.6 4.8-8.4 0-16.6-2.5-24.6-4.8-7.6-2.3-14.8-4.4-21.9-4.4-7 0-14.2 2.2-21.9 4.4-7.9 2.4-16.1 4.8-24.6 4.8-8.4 0-16.6-2.5-24.6-4.8-7.6-2.3-14.8-4.4-21.9-4.4-7 0-14.2 2.2-21.9 4.4-7.9 2.4-16.1 4.8-24.6 4.8-8.4 0-16.6-2.5-24.6-4.8-7.3-2.3-14.5-4.4-21.5-4.4-2.6 0-4.7-2.1-4.7-4.7s2.1-4.7 4.7-4.7c8.4 0 16.6 2.5 24.6 4.8 7.6 2.3 14.8 4.4 21.9 4.4 7 0 14.2-2.2 21.9-4.4 7.9-2.4 16.1-4.8 24.6-4.8 8.4 0 16.6 2.5 24.6 4.8 7.6 2.3 14.8 4.4 21.9 4.4 7 0 14.2-2.2 21.9-4.4 7.9-2.4 16.1-4.8 24.6-4.8 8.4 0 16.6 2.5 24.6 4.8 7.6 2.3 14.8 4.4 21.9 4.4s14.2-2.2 21.9-4.4c7.9-2.4 16.1-4.8 24.6-4.8 8.4 0 16.6 2.5 24.6 4.8 7.6 2.3 14.8 4.4 21.9 4.4 7 0 14.2-2.2 21.9-4.4 7.9-2.4 16.1-4.8 24.6-4.8 2.6 0 4.7 2.1 4.7 4.7s-2.1 4.7-4.7 4.7c-7 0-14.2 2.2-21.9 4.4-8.4 2.4-16.6 4.8-25 4.8z"/></g></g></svg>