<svg height="512" viewBox="0 0 120 120" width="512" xmlns="http://www.w3.org/2000/svg"><g><path d="m76 76.68a2.32 2.32 0 0 0 0-2.31l-2.75-4.61a2.27 2.27 0 0 0 .43-3.05l-4.74-6.9a2.31 2.31 0 0 0 -3.79 0l-4.74 6.9a2.27 2.27 0 0 0 .44 3.05l-2.85 4.61a2.29 2.29 0 0 0 2 3.47h5.48v4a1.5 1.5 0 0 0 3 0v-4h5.52a2.31 2.31 0 0 0 2-1.16zm-9-14.33 3.4 5h-6.82zm-5.75 12.49 2.45-4.1a.89.89 0 0 1 .77-.43h5a.89.89 0 0 1 .77.43l2.45 4.1z"/><path d="m91.12 61.28a2.26 2.26 0 0 0 .44-3.05l-4.74-6.9a2.32 2.32 0 0 0 -3.79 0l-4.74 6.9a2.26 2.26 0 0 0 .44 3.05l-2.73 4.61a2.28 2.28 0 0 0 0 2.31 2.3 2.3 0 0 0 2 1.17h5.48v4a1.5 1.5 0 0 0 3 0v-4h5.42a2.31 2.31 0 0 0 2-3.48zm-6.2-7.41 3.41 5h-6.81zm-5.74 12.5 2.46-4.11a.88.88 0 0 1 .76-.43h5a.9.9 0 0 1 .77.43l2.45 4.11z"/><path d="m38.27 70.29c-11.33.19-15.59 13.37-8.38 21.5a29.11 29.11 0 0 1 5 7.38l1.19 2.72a2.35 2.35 0 0 0 4.28 0l1.19-2.71a28.72 28.72 0 0 1 5-7.39c7.27-8.1 3.04-21.28-8.28-21.5zm8.82 13.63c-.26 3-2.62 5.94-4.66 8.22a27 27 0 0 0 -4.17 7.16 31.18 31.18 0 0 0 -6.06-9.43c-5.55-6.18-2.75-16.35 6-16.58a9.05 9.05 0 0 1 8.89 10.63z"/><path d="m38.26 77.12c-7.66.24-7.65 11.34 0 11.58 7.65-.24 7.65-11.34 0-11.58zm0 8.58a2.79 2.79 0 0 1 0-5.58 2.79 2.79 0 0 1 0 5.58z"/><path d="m60.05 87a1.5 1.5 0 0 0 -2.62 1.45l1 1.75a1.5 1.5 0 0 0 2.57-1.49z"/><path d="m52.48 71.21a1.5 1.5 0 0 0 1.88-1l.58-1.92a1.5 1.5 0 0 0 -1-1.87 1.51 1.51 0 0 0 -1.88 1l-.58 1.91a1.5 1.5 0 0 0 1 1.88z"/><path d="m54.51 93.84-1.68 1.09a1.5 1.5 0 0 0 1.62 2.52l1.68-1.08a1.5 1.5 0 0 0 -1.62-2.53z"/><path d="m45.26 99.79-1.68 1.09a1.5 1.5 0 0 0 1.62 2.52l1.68-1.08a1.5 1.5 0 0 0 -1.62-2.53z"/><path d="m54.38 81.31a1.51 1.51 0 0 0 1.32-2.23l-1-1.75a1.5 1.5 0 0 0 -2.63 1.46c.6.85 1.04 2.58 2.31 2.52z"/><path d="m58.16 57.78a1.5 1.5 0 0 0 -2.87-.87l-.59 1.91a1.5 1.5 0 0 0 2.87.88z"/><path d="m64.11 54.52a12.08 12.08 0 0 0 2.42-.91 1.5 1.5 0 0 0 -1.17-2.76l-1.84.79a1.5 1.5 0 0 0 .59 2.88z"/><path d="m74.23 50.21a11.75 11.75 0 0 0 2.43-.9 1.5 1.5 0 0 0 -1.18-2.76l-1.84.78a1.51 1.51 0 0 0 .59 2.88z"/><path d="m86 87.32a2.26 2.26 0 0 0 .43-3l-4.74-6.9a2.32 2.32 0 0 0 -3.79 0l-4.74 6.9a2.27 2.27 0 0 0 .44 3l-2.75 4.61a2.3 2.3 0 0 0 2 3.48h5.48v4a1.5 1.5 0 0 0 3 0v-4h5.48a2.3 2.3 0 0 0 2-3.48zm-6.2-7.41 3.41 5h-6.79zm-5.74 12.5 2.45-4.1a.91.91 0 0 1 .77-.44h5a.89.89 0 0 1 .77.44l2.45 4.1z"/><path d="m80.78 29.05c7.65-.25 7.65-11.34 0-11.58-7.66.24-7.65 11.33 0 11.58zm0-8.58a2.79 2.79 0 0 1 0 5.58 2.79 2.79 0 0 1 0-5.58z"/><path d="m110 13.34a8.23 8.23 0 0 0 -5.83-2.42h-6.49a1.5 1.5 0 0 0 -1.5 1.5v8.52h-3.58a12 12 0 0 0 -11.81-10.31 12 12 0 0 0 -11.79 10.31h-9.34l-5.41-9.14a2.52 2.52 0 0 0 -4.18-.19l-6 8.3-4-3.52a2.51 2.51 0 0 0 -3.71.48l-2.76 4.07h-9.78v-8.52a1.5 1.5 0 0 0 -1.5-1.5h-6.48a8.31 8.31 0 0 0 -8.25 8.25s0 80.7 0 80.75a9.52 9.52 0 0 0 9.51 9.5l85.82-.07a9.51 9.51 0 0 0 9.49-9.5s0-80.68 0-80.69a8.19 8.19 0 0 0 -2.41-5.82zm-10.81.58h3.39v10.69a1.5 1.5 0 1 0 3 0v-10.47a5.23 5.23 0 0 1 3.84 5v74.34a8.18 8.18 0 0 0 -5.25-1.89h-5zm-18.42-.29a9.06 9.06 0 0 1 8.85 10.63c-.26 3-2.62 5.94-4.66 8.22a27.17 27.17 0 0 0 -4.17 7.16 26.74 26.74 0 0 0 -4.19-7.16c-2-2.28-4.39-5.28-4.65-8.21a9.06 9.06 0 0 1 8.81-10.64zm-42.25 5.37 4.84 4.23a1.51 1.51 0 0 0 2.2-.25l6.5-9 10.67 18.02h-5.73l-6.71-8.32a2.52 2.52 0 0 0 -4.09.28l-4.14 6.9-2.24-2.94a2.51 2.51 0 0 0 -4 .06l-2.82 4.02h-3.27zm8.55 22.86 3.59-5.65 5.94 8h-7.78zm8.85-3.6-3.41-4.6a2.36 2.36 0 0 0 -3.87.14l-2 3.09-2.64-3.44 4.39-7.32 9.8 12.15zm-13.1 2.91 3.9 5.25h-7.23zm-12.18-.77 7.23-10.13 5.62 7.39a2.12 2.12 0 0 0 -2.54.86l-1.19 1.88zm-20-21.25a5.29 5.29 0 0 1 5.25-5.25h5v77.69h-3.4v-10.68a1.5 1.5 0 0 0 -3 0v10.81a8.23 8.23 0 0 0 -3.83 1.76zm98.82 80.69a6.5 6.5 0 0 1 -6.49 6.5l-85.82.07c-7.4 0-9.33-11.24-1.26-11.84h6.48a1.5 1.5 0 0 0 1.5-1.5v-69.13h7.75l-4.85 7.18a2.51 2.51 0 0 0 2.02 3.88h2l-3.19 4.46a2.52 2.52 0 0 0 2 4h8.18l-1.38 2.17a2.52 2.52 0 0 0 2.11 3.85h9.13a2.49 2.49 0 0 0 2.47-2.21h7.41a2.52 2.52 0 0 0 2-4l-1.45-2h1.13a2.51 2.51 0 0 0 1.94-4.07l-1.69-2.2h4.15a2.5 2.5 0 0 0 2.16-3.77l-4.32-7.3h7.45a14.72 14.72 0 0 0 3.52 8.2 28.76 28.76 0 0 1 5 7.38l1.19 2.71a2.33 2.33 0 0 0 4.28 0l1.19-2.72a28.5 28.5 0 0 1 5-7.38 14.7 14.7 0 0 0 3.51-8.2h3.52v69.17a1.5 1.5 0 0 0 1.5 1.5h6.48a5.3 5.3 0 0 1 5.27 5.39.29.29 0 0 1 .06-.12z"/><path d="m15.92 77a1.5 1.5 0 0 0 1.5-1.5v-1.69a1.5 1.5 0 0 0 -3 0v1.69a1.5 1.5 0 0 0 1.5 1.5z"/><path d="m105.58 31.71v-1.71a1.5 1.5 0 0 0 -3 0v1.69a1.5 1.5 0 0 0 3 .02z"/></g></svg>