<svg id="Layer_1" enable-background="new 0 0 512 512" viewBox="0 0 512 512" xmlns="http://www.w3.org/2000/svg"><path d="m345.39 447.54c0-3.11-.72-6.1-2.05-8.8l13.18-5.84c1.11 1.85 2.66 3.42 4.56 4.58 2.14 1.3 4.55 1.97 6.99 1.97 1.07 0 2.14-.13 3.2-.39l22.07-5.37c3.49-.85 6.44-3.01 8.32-6.09 1.87-3.08 2.44-6.7 1.59-10.19l-24.53-100.77c-.85-3.49-3.01-6.44-6.09-8.32s-6.7-2.44-10.19-1.59l-22.07 5.37c-7.22 1.76-11.66 9.06-9.91 16.28l1.38 5.69-10.59 4.1c-1.73.67-3.3.58-4.95-.27l-40.45-20.98c-11.68-6.06-25.69-3.79-34.86 5.66l-3.58 3.68h-55.55c.51-6.47-3.72-12.57-10.23-14.15l-22.07-5.37c-3.49-.85-7.11-.29-10.19 1.59-3.08 1.87-5.24 4.83-6.09 8.32l-24.53 100.77c-.85 3.49-.29 7.11 1.59 10.19s4.83 5.24 8.32 6.09l22.07 5.37c1.06.26 2.13.39 3.2.39 2.44 0 4.84-.67 6.99-1.97 3.08-1.87 5.24-4.83 6.09-8.32l.7-2.89 64.4 64.4c3.89 3.89 8.99 5.83 14.1 5.83s10.21-1.94 14.1-5.83c2-2 3.47-4.32 4.44-6.79l5.04 5.04c3.75 3.76 8.76 5.82 14.1 5.82s10.35-2.07 14.1-5.82c2-2 3.47-4.32 4.44-6.79l.72.72c3.89 3.89 8.99 5.83 14.1 5.83s10.21-1.94 14.1-5.83c4.24-4.24 6.15-9.92 5.77-15.47 4.71-.38 9.09-2.38 12.45-5.74 3.76-3.77 5.82-8.78 5.82-14.11zm-2.18-123.77 22.07-5.37c.11-.03.22-.04.34-.04.66 0 1.28.46 1.44 1.12l24.53 100.77c.12.51-.06.91-.18 1.11s-.4.55-.9.67l-22.07 5.37c-.77.18-1.59-.31-1.78-1.08l-24.53-100.77c-.2-.77.3-1.59 1.08-1.78zm-93.61 7.17c5.53-5.7 13.67-7.02 20.73-3.36l40.45 20.98c4.72 2.45 9.84 2.73 14.81.81l9.12-3.53 18.37 75.46-17.78 7.87-57.33-57.33c-6.61-6.61-16.62-8.14-24.91-3.8-3.47 1.82-6.84 3.92-10.09 5.95-13.56 8.47-23.69 14.8-38.47 3.4zm-106.04 96.47-22.07-5.37c-.5-.12-.78-.47-.9-.67s-.3-.61-.18-1.11l24.53-100.77c.16-.67.78-1.12 1.45-1.12.11 0 .22.01.34.04l22.07 5.37c.78.19 1.27 1.01 1.08 1.78l-24.53 100.77c-.19.77-1.01 1.27-1.79 1.08zm187.52 25.74c-3.1 3.1-8.13 3.1-11.23 0l-43.93-43.93c-2.34-2.34-6.14-2.34-8.48 0s-2.34 6.14 0 8.48l45.43 45.43c3.1 3.1 3.1 8.14 0 11.23s-8.13 3.1-11.23 0l-13.64-13.63c-.01-.01-.01-.01-.02-.02 0 0-.01 0-.01-.01l-34.05-34.05c-2.34-2.34-6.14-2.34-8.48 0s-2.34 6.14 0 8.48l34.06 34.06c3.09 3.1 3.09 8.13 0 11.23-1.49 1.49-3.48 2.31-5.62 2.31-2.13 0-4.13-.82-5.62-2.31l-36.33-36.33c-2.34-2.34-6.14-2.34-8.48 0s-2.34 6.14 0 8.48l18.37 18.37c3.1 3.1 3.1 8.13 0 11.23s-8.13 3.1-11.23 0l-69.56-69.56 18.1-74.36h46.64l-34.28 35.32c-1.11 1.15-1.72 2.69-1.69 4.29s.7 3.12 1.85 4.22c24.11 23.06 42.73 11.42 57.7 2.07 3.2-2 6.22-3.89 9.3-5.5 3.66-1.92 7.92-1.27 10.85 1.66l61.59 61.59c1.49 1.49 2.31 3.48 2.31 5.62s-.83 4.14-2.32 5.63zm165.92-292.52v329.87c0 3.31-2.69 6-6 6h-117.2-25.41c-3.31 0-6-2.69-6-6s2.69-6 6-6h19.41v-18.87c0-3.31 2.69-6 6-6s6 2.69 6 6v18.87h105.2v-317.87h-105.2v114.02c0 3.31-2.69 6-6 6s-6-2.69-6-6v-192.34l-223.8-59.02v251.4c0 3.31-2.69 6-6 6s-6-2.69-6-6v-183.61h-105v387.42h105v-18.9c0-3.31 2.69-6 6-6s6 2.69 6 6v18.9h40.33c3.31 0 6 2.69 6 6s-2.69 6-6 6h-46.33-117c-3.31 0-6-2.69-6-6v-399.42c0-3.31 2.69-6 6-6h111v-63.58c0-1.86.86-3.62 2.34-4.75s3.39-1.52 5.19-1.05l235.79 62.18c2.63.7 4.47 3.08 4.47 5.8v70.94h111.21c3.31.01 6 2.7 6 6.01zm-390.64 2.77c0 3.31-2.69 6-6 6h-41.72c-3.31 0-6-2.69-6-6s2.69-6 6-6h41.72c3.31 0 6 2.69 6 6zm0 84.92c0 3.31-2.69 6-6 6h-41.72c-3.31 0-6-2.69-6-6s2.69-6 6-6h41.72c3.31 0 6 2.69 6 6zm-6 90.93h-41.72c-3.31 0-6-2.69-6-6s2.69-6 6-6h41.72c3.31 0 6 2.69 6 6s-2.69 6-6 6zm-18.5 72.92c3.31 0 6 2.69 6 6s-2.69 6-6 6h-23.22c-3.31 0-6-2.69-6-6s2.69-6 6-6zm327.85-171.53c0-3.31 2.69-6 6-6h33.38c3.31 0 6 2.69 6 6s-2.69 6-6 6h-33.38c-3.32 0-6-2.69-6-6zm0 84.92c0-3.31 2.69-6 6-6h33.38c3.31 0 6 2.69 6 6s-2.69 6-6 6h-33.38c-3.32 0-6-2.68-6-6zm45.38 84.93c0 3.31-2.69 6-6 6h-20.17c-3.31 0-6-2.69-6-6s2.69-6 6-6h20.17c3.31 0 6 2.68 6 6zm-240.76-104.81c-3.31 0-6-2.69-6-6v-152.51c0-3.31 2.69-6 6-6s6 2.69 6 6v152.51c0 3.32-2.69 6-6 6zm83.14-1.49c-3.31 0-6-2.69-6-6v-151.02c0-3.31 2.69-6 6-6s6 2.69 6 6v151.02c0 3.32-2.68 6-6 6z"/></svg>