<svg clip-rule="evenodd" fill-rule="evenodd" height="173.397mm" image-rendering="optimizeQuality" shape-rendering="geometricPrecision" text-rendering="geometricPrecision" viewBox="0 0 173.397 173.397" width="173.397mm" xmlns="http://www.w3.org/2000/svg"><g id="Layer_x0020_1"><g id="_312276216"><path id="_312277752" d="m35.5355 124.94c-.9229 0-1.6712-.7476-1.6712-1.6705v-60.7825c0-.9228.7483-1.6708 1.6712-1.6708.9229-.0001 1.6711.7482 1.6711 1.6711v60.7819c0 .9227-.7482 1.6714-1.6711 1.6708zm102.326 0c-.9229 0-1.6712-.7476-1.6712-1.6705l.0001-60.7825c0-.9228.7482-1.6708 1.6711-1.6708.9229-.0001 1.671.7482 1.671 1.6711v60.7819c0 .9227-.7481 1.6714-1.671 1.6708z"/><path id="_312277608" d="m86.6987 25.755c.3297 0 .6597.0979.9445.293l53.7718 36.8478 4.3152-5.0641-56.4278-38.6676c-.0317-.0219-.0627-.0445-.0926-.0683-.684-.5419-1.5777-.8401-2.5156-.8401-.7889-.0002-1.5367.209-2.1724.6062-.0415.0343-.085.068-.1299.0987l-56.7247 38.8711 4.3153 5.0641 53.7714-36.8479c.2848-.195.6148-.2924.9448-.2929zm55.0115 41.041c-.3269 0-.6563-.0954-.9439-.2926l-54.0676-37.0512-54.0678 37.0508c-.7057.4834-1.6617.3566-2.2165-.2941l-6.4952-7.6221c-.3074-.361-.4471-.8342-.3847-1.3039.0624-.4695.3213-.8905.712-1.1583l58.0945-39.8102c.0491-.0431.1003-.0829.1543-.1199 1.2233-.8381 2.675-1.281 4.1989-1.281 1.6666-.0004 3.2767.5408 4.5419 1.524l57.9148 39.6865c.3907.268.6493.6897.7119 1.1589.0624.4697-.0775.9435-.3846 1.3042l-6.4956 7.6214c-.3284.3854-.798.5878-1.2724.5875z"/><path id="_312277104" d="m103.375 124.941c-.9226 0-1.6712-.7484-1.6712-1.6713v-44.8201h-30.0099v44.8198c0 .9227-.7483 1.6718-1.6712 1.6718-.9229-.0002-1.671-.7486-1.671-1.6715v-46.4918c0-.9227.7481-1.6703 1.671-1.6703l33.3523-.0004c.9229 0 1.671.7485 1.671 1.6714v46.4908c0 .9227-.7481 1.6718-1.671 1.6716z"/><path id="_312277008" d="m45.4211 105.297h14.7159v-20.2244h-14.7159zm16.3869 3.3415h-18.058c-.9229 0-1.6711-.7476-1.6711-1.6704v-23.5664c0-.9235.7482-1.6711 1.671-1.6711l18.0581-.0005c.9229 0 1.6711.7487 1.6711 1.6716l.0001 23.5661c0 .9227-.7483 1.6712-1.6712 1.6707z"/><path id="_312276768" d="m113.261 105.297h14.7159v-20.2244h-14.7159zm16.3869 3.3415h-18.0577c-.9229 0-1.6711-.7476-1.6711-1.6704v-23.5664c0-.9235.7481-1.6711 1.6711-1.6711l18.0577-.0005c.923 0 1.671.7487 1.671 1.6716l.0001 23.5661c0 .9227-.7482 1.6712-1.6711 1.6707z"/><path id="_312276984" d="m61.808 99.3968h-18.0579c-.9229 0-1.6712-.7478-1.6712-1.6707 0-.9236.7483-1.6711 1.6712-1.6711l18.0579-.0006c.9229 0 1.6711.7488 1.6711 1.6717.0001.9226-.7482 1.671-1.6711 1.6707z"/><path id="_312276912" d="m129.647 99.3968h-18.0581c-.9229 0-1.671-.7478-1.671-1.6707 0-.9236.7481-1.6711 1.671-1.6711l18.0581-.0006c.923 0 1.671.7488 1.671 1.6717.0001.9226-.7481 1.671-1.671 1.6707z"/><path id="_312276864" d="m71.6936 63.0932h30.0103v-8.0556h-30.0103zm31.6811 3.3417h-33.3523c-.9229 0-1.671-.7475-1.671-1.6704v-11.3985c0-.9227.7481-1.6704 1.671-1.6704l33.3523-.0004c.9229 0 1.671.7483 1.671 1.6711v11.3978c0 .9227-.7481 1.6715-1.671 1.6708z"/><path id="_312276600" d="m37.2065 159.896h98.9845v-34.9555h-98.9845zm100.655 3.3416h-102.327c-.9228 0-1.6711-.7475-1.6711-1.6705v-38.2974c0-.9227.7483-1.6708 1.6711-1.6708l102.327-.0001c.9229 0 1.6714.7484 1.6714 1.6712v38.2967c0 .9228-.7485 1.6716-1.6714 1.6709z"/><path id="_312276528" d="m118.974 39.1425c-.923 0-1.6712-.7481-1.6712-1.6709v-18.1148c0-.9227.7482-1.6708 1.6711-1.6708.923 0 1.6711.7482 1.6711 1.671v18.114c0 .9227-.7482 1.6715-1.671 1.6715zm14.9547 10.2474c-.9229 0-1.6712-.7475-1.6712-1.6704l.0001-28.3627c0-.9227.7481-1.6708 1.671-1.6708.923 0 1.6711.7482 1.6711 1.671v28.3621c0 .9227-.7481 1.6715-1.671 1.6708z"/><path id="_312276504" d="m116.214 17.686h20.4749v-4.1845h-20.4749zm22.1459 3.3416h-23.8166c-.9228 0-1.671-.7477-1.671-1.6706l.0001-7.5263c0-.9228.748-1.6708 1.6709-1.6708h23.8166c.923 0 1.6711.748 1.6711 1.671l.0001 7.5259c0 .9227-.7482 1.6712-1.6712 1.6708z"/><path id="_312276936" d="m78.3009 103.819c-.923 0-1.6711-.7478-1.6711-1.6708v-4.2479c0-.9227.7481-1.6709 1.6711-1.6709.9229 0 1.671.7483 1.671 1.6712l.0001 4.2476c0 .9228-.7482 1.6711-1.6711 1.6708z"/><path id="_312276432" d="m75.609 163.237c-.9229 0-1.671-.7475-1.671-1.6705v-5.0261h-5.0265c-.9229 0-1.6711-.7484-1.6711-1.671l.0001-5.0271h-5.0262c-.9226 0-1.6707-.7475-1.6707-1.6704v-5.0262h-5.0265c-.9229 0-1.671-.748-1.671-1.671v-5.0264h-18.3108c-.9228 0-1.671-.7478-1.671-1.6707 0-.9236.7482-1.6712 1.671-1.6712l19.9818-.0005c.9229 0 1.6711.7487 1.6711 1.6717l.0001 5.0257h5.026c.9229 0 1.6711.7485 1.6711 1.6714v5.0259h5.0261c.9229 0 1.6715.7484 1.6715 1.6713v5.0261h5.026c.9226 0 1.6708.7484 1.6708 1.6714v6.6967c0 .9228-.7482 1.6716-1.6708 1.6709z"/></g></g></svg>