<svg id="Layer_1_copy" height="512" viewBox="0 0 512 512" width="512" xmlns="http://www.w3.org/2000/svg" data-name="Layer 1 copy"><path d="m480 472h-56v-376a8 8 0 0 0 -6.431-7.845l-320-64a8 8 0 0 0 -9.569 7.845v440h-56a8 8 0 0 0 0 16h448a8 8 0 0 0 0-16zm-72-168h-304v-112h304zm0-201.441v73.441h-304v-134.242zm-304 217.441h304v152h-304z"/><path d="m256 360a20 20 0 1 0 20 20 20.023 20.023 0 0 0 -20-20zm0 24a4 4 0 1 1 4-4 4 4 0 0 1 -4 4z"/><path d="m256 336c-26.467 0-48 20.251-48 45.143 0 20.423 28.334 60.139 35.348 68.875a16.371 16.371 0 0 0 25.3 0c7.018-8.736 35.352-48.452 35.352-68.875 0-24.892-21.533-45.143-48-45.143zm.222 103.959a.875.875 0 0 1 -.4.043c-12.667-15.782-31.822-47.307-31.822-58.859 0-16.069 14.355-29.143 32-29.143s32 13.074 32 29.143c0 11.552-19.155 43.077-31.778 58.816z"/></svg>