<svg id="&#x421;&#x43B;&#x43E;&#x439;_1" enable-background="new 0 0 160 160" viewBox="0 0 160 160" xmlns="http://www.w3.org/2000/svg"><g fill="rgb(0,0,0)"><path d="m18 64h8v74c0 1.104.896 2 2 2s2-.896 2-2v-74h110v74c0 1.104.896 2 2 2s2-.896 2-2v-116c0-1.104-.896-2-2-2h-72-25c-1.104 0-2 .896-2 2s.896 2 2 2h23v14h-50c-1.104 0-2 .896-2 2v22c0 1.104.896 2 2 2zm54-40h68v36h-68zm-16 18h12v18h-12zm-19 0h15v18h-15zm-17 0h13v18h-5-8z"/><path d="m102 28h-24c-1.104 0-2 .896-2 2v24c0 1.104.896 2 2 2h24c1.104 0 2-.896 2-2v-24c0-1.104-.896-2-2-2zm-2 24h-20v-20h20z"/><path d="m134 28h-24c-1.104 0-2 .896-2 2v24c0 1.104.896 2 2 2h24c1.104 0 2-.896 2-2v-24c0-1.104-.896-2-2-2zm-2 24h-20v-20h20z"/><path d="m57 74c0-1.104-.896-2-2-2h-14c-1.104 0-2 .896-2 2v20c0 1.104.896 2 2 2h14c1.104 0 2-.896 2-2zm-4 18h-10v-16h10z"/><path d="m94 74c0-1.104-.896-2-2-2h-14c-1.104 0-2 .896-2 2v20c0 1.104.896 2 2 2h14c1.104 0 2-.896 2-2zm-4 18h-10v-16h10z"/><path d="m131 74c0-1.104-.896-2-2-2h-14c-1.104 0-2 .896-2 2v20c0 1.104.896 2 2 2h14c1.104 0 2-.896 2-2zm-4 18h-10v-16h10z"/><path d="m55 106h-14c-1.104 0-2 .896-2 2v20c0 1.104.896 2 2 2h14c1.104 0 2-.896 2-2v-20c0-1.104-.896-2-2-2zm-2 20h-10v-16h10z"/><path d="m92 106h-14c-1.104 0-2 .896-2 2v20c0 1.104.896 2 2 2h14c1.104 0 2-.896 2-2v-20c0-1.104-.896-2-2-2zm-2 20h-10v-16h10z"/><path d="m129 106h-14c-1.104 0-2 .896-2 2v20c0 1.104.896 2 2 2h14c1.104 0 2-.896 2-2v-20c0-1.104-.896-2-2-2zm-2 20h-10v-16h10z"/></g></svg>