<svg id="Layer_5" enable-background="new 0 0 64 64" height="512" viewBox="0 0 64 64" width="512" xmlns="http://www.w3.org/2000/svg"><g><path d="m24.858 37h-1.201c-3.381 0-6.559-1.316-8.95-3.707l-.707-.707-.707.707c-2.391 2.391-5.569 3.707-8.95 3.707h-1.201l-.13.848c-.082.534-2.012 13.11-2.012 16.152 0 2.197 3.577 5.042 10.632 8.459.741.359 1.537.541 2.368.541s1.627-.182 2.368-.541c7.055-3.417 10.632-6.262 10.632-8.459 0-3.042-1.93-15.618-2.012-16.152zm-9.362 23.659c-.934.452-2.059.452-2.992 0-6.973-3.377-9.504-5.832-9.504-6.659 0-2.456 1.422-12.093 1.861-15.009 3.398-.117 6.594-1.387 9.139-3.621 2.544 2.234 5.741 3.504 9.139 3.621.439 2.916 1.861 12.552 1.861 15.009 0 .827-2.531 3.282-9.504 6.659z"/><path d="m10 53.586-2.293-2.293-1.414 1.414 3.707 3.707 11.707-11.707-1.414-1.414z"/><path d="m21 8.92c0-2.162-1.758-3.92-3.92-3.92h-.16c-2.162 0-3.92 1.758-3.92 3.92v1.08h2v-1.08c0-1.059.861-1.92 1.92-1.92h.16c1.059 0 1.92.861 1.92 1.92 0 .458-.164.902-.462 1.25l-5.538 6.46v2.37h8v-2h-5.683l4.739-5.529c.609-.71.944-1.616.944-2.551z"/><path d="m33 15v-2h-2v-8h-2.515l-5.485 7.68v2.32h6v4h2v-4zm-4-2h-3.771l3.771-5.279z"/><path d="m46 41c2.206 0 4-1.794 4-4h-2c0 1.103-.897 2-2 2s-2-.897-2-2h-2c0 2.206 1.794 4 4 4z"/><path d="m57.574 46.952-7.574-1.747v-1.262c1.992-1.179 3.372-3.276 3.83-5.942h.17c2.206 0 4-1.794 4-4v-7.611c.627-.705 2-2.464 2-4.389 0-.734-.008-2.434-11-6.361v-11.64c0-1.654-1.346-3-3-3h-34c-1.654 0-3 1.346-3 3v16c0 1.654 1.346 3 3 3h9.586l4.293 4.293c.456.456 1.062.707 1.707.707 1.331 0 2.414-1.083 2.414-2.414v-2.586h2.127c.348 1.518 1.357 2.809 1.873 3.389v7.611c0 2.206 1.794 4 4 4h.17c.458 2.666 1.838 4.764 3.83 5.942v1.262l-7.574 1.748c-3.195.738-5.426 3.543-5.426 6.821v9.227h34v-9.227c0-3.278-2.231-6.083-5.426-6.821zm-7.142.405-.305 4.664-2.746-2.196 2.028-2.704zm-4.678 8.643h.491l1.429 5h-3.349zm.569-2h-.646l-.746-1.864 1.069-.856 1.069.855zm-8.901-23.942c-.513.075-.991.247-1.422.498v-1.76c.448.455.921.876 1.422 1.262zm-.386-3.058h17.927c-2.272 2.525-5.508 4-8.964 4s-6.69-1.475-8.963-4zm18.964 1.797v1.76c-.431-.251-.908-.423-1.422-.498.501-.387.974-.808 1.422-1.262zm-2 7.203v-4c1.103 0 2 .897 2 2s-.897 2-2 2zm3.998-13.9c-.051 1.066-.895 2.267-1.437 2.9h-21.122c-.542-.633-1.386-1.834-1.437-2.9.431-.643 3.47-2.405 10.357-4.822 1.05-.368 2.23-.368 3.281 0 6.887 2.417 9.926 4.179 10.358 4.822zm-20.998-9.1h6v2.639c-2.54.907-4.498 1.697-6 2.382zm-9 8v4.586c0 .338-.468.531-.707.293l-4.879-4.879h-10.414c-.551 0-1-.449-1-1v-16c0-.551.449-1 1-1h34c.551 0 1 .449 1 1v11.085c-.663-.095-1.337-.095-2 0v-10.085h-2v6h-6v-6h-2v14.011c-1.562.851-2.312 1.498-2.67 1.989zm8 13c0-1.103.897-2 2-2v4c-1.103 0-2-.897-2-2zm4 2v-4.366c1.85.872 3.886 1.366 6 1.366s4.15-.494 6-1.366v4.366c0 4.252-2.355 7-6 7s-6-2.748-6-7zm6 9c.702 0 1.367-.091 2-.249v.916l-2 2.667-2-2.667v-.916c.633.158 1.298.249 2 .249zm-3.409 2.121 2.028 2.704-2.746 2.196-.305-4.664zm-11.591 6.652c0-2.342 1.594-4.345 3.876-4.872l4.717-1.089.534 8.166 3.172-2.538.645 1.613-1.698 5.947h-5.246v-6h-2v6h-4zm30 7.227h-4v-6h-2v6h-5.246l-1.699-5.946.645-1.613 3.172 2.538.534-8.166 4.717 1.089c2.283.526 3.877 2.529 3.877 4.871z"/><circle cx="49" cy="34" r="1"/><circle cx="43" cy="34" r="1"/><path d="m43 21c0 1.654 1.346 3 3 3s3-1.346 3-3-1.346-3-3-3-3 1.346-3 3zm4 0c0 .551-.449 1-1 1s-1-.449-1-1 .449-1 1-1 1 .449 1 1z"/></g></svg>