<?xml version="1.0"?>
<svg xmlns="http://www.w3.org/2000/svg" viewBox="0 0 64 64"><g id="line_cp"><path d="M13,39H8a1,1,0,0,1-1-1V16a1,1,0,0,1,1-1H30a1,1,0,0,1,.867.5,1,1,0,0,0,1.731-1A3.013,3.013,0,0,0,30,13H8a3,3,0,0,0-3,3V38a3,3,0,0,0,3,3h5a1,1,0,0,0,0-2Z"/><path d="M57,8H55.249a4.95,4.95,0,0,0-.62.039L42.38,9.57A4.994,4.994,0,0,0,38.049,14H35.9A5.009,5.009,0,0,0,31,10H7a5.006,5.006,0,0,0-5,5V39a5.006,5.006,0,0,0,5,5h7.893a3.011,3.011,0,0,0,.4.783,2.961,2.961,0,0,0,1.417,1.029l-2.67,8.9A1,1,0,0,0,15,56h5a1,1,0,0,0,.958-.713l2.788-9.3a2.982,2.982,0,0,0,2.686-1.878L26.477,44H31a5.009,5.009,0,0,0,4.9-4h2.15a4.994,4.994,0,0,0,4.331,4.43l12.249,1.531a4.95,4.95,0,0,0,.62.039H57a5.006,5.006,0,0,0,5-5V13A5.006,5.006,0,0,0,57,8ZM36,18V16h2v2ZM4,39V15a3,3,0,0,1,3-3H31a3,3,0,0,1,3,3v3H31.863a12.935,12.935,0,0,0-12.425,9.177L14.877,42H7A3,3,0,0,1,4,39ZM19.256,54H16.344l2.4-8h2.912Zm4.39-10H17.708a1,1,0,0,1-.956-1.294l4.6-14.941A10.945,10.945,0,0,1,31.863,20H48a1,1,0,0,1,1,1V33a1,1,0,0,1-1,1H34.417a8.958,8.958,0,0,0-8.357,5.657l-1.486,3.714A.994.994,0,0,1,23.646,44ZM56.2,21.077a22.246,22.246,0,0,1,0,11.846A4.411,4.411,0,0,1,52,36a3.168,3.168,0,0,1-2-.783A3,3,0,0,0,50.816,34H52a3,3,0,0,0,3-3V23a3,3,0,0,0-3-3H50.816A3,3,0,0,0,50,18.783,3.168,3.168,0,0,1,52,18,4.411,4.411,0,0,1,56.2,21.077ZM52,22a1,1,0,0,1,1,1v8a1,1,0,0,1-1,1H51V22ZM47.946,36A5.441,5.441,0,0,0,52,38a6.39,6.39,0,0,0,1.919-.306A5.142,5.142,0,0,1,50,40c-1.871,0-3.677-1.475-5-4ZM52,16a5.441,5.441,0,0,0-4.054,2H45c1.324-2.525,3.13-4,5-4a5.142,5.142,0,0,1,3.919,2.306A6.39,6.39,0,0,0,52,16ZM38,38H36V36h2Zm-7,4H27.277l.64-1.6A6.95,6.95,0,0,1,31,36.9V38a1,1,0,0,1-1,1,1,1,0,0,0,0,2,3,3,0,0,0,3-3V36.16a7.028,7.028,0,0,1,1-.129V39A3,3,0,0,1,31,42Zm29-1a3,3,0,0,1-3,3H55.249a3.083,3.083,0,0,1-.372-.023L42.628,42.446A3,3,0,0,1,40,39.469V36h2.774c1.679,3.769,4.346,6,7.226,6,5.047,0,9-6.589,9-15s-3.953-15-9-15c-2.88,0-5.547,2.231-7.226,6H40V14.531a3,3,0,0,1,2.628-2.977l12.248-1.531A3.112,3.112,0,0,1,55.249,10H57a3,3,0,0,1,3,3Z"/><path d="M35,28h2l-1.8,2.4a1,1,0,1,0,1.6,1.2l3-4A1,1,0,0,0,39,26H37l1.8-2.4a1,1,0,0,0-1.6-1.2l-3,4A1,1,0,0,0,35,28Z"/></g></svg>
