<svg id="Layer_1" enable-background="new 0 0 96 96" height="512" viewBox="0 0 96 96" width="512" xmlns="http://www.w3.org/2000/svg"><path d="m95 0h-74.7c-.6 0-1 .4-1 1v87.9h-3.7c-.6 0-1 .4-1 1v5.1c0 .6.4 1 1 1h79.4c.6 0 1-.4 1-1v-94c0-.6-.4-1-1-1zm-73.7 14.6c0-1.3 1-2.3 2.3-2.3h39.5c1.3 0 2.3 1 2.3 2.3v69.1h-44.1zm44.1-3.6c-.7-.4-1.5-.7-2.3-.7h-5.5v-8.3h7.8zm-9.8-.7h-7.8v-8.3h7.8zm-9.8 0h-7.8v-8.3h7.8zm-9.8 0h-7.8v-8.3h7.8zm31.4-8.3h7.8v92h-7.8zm9.9 0h7.8v92h-7.8zm-56 0h4.8v8.3c-2.4 0-3.5-.2-4.8.7zm0 83.7h44.1v3.2h-44.1zm-4.7 8.3v-3.1h48.8v3.1zm77.4 0h-6.9v-92h6.9z"/><path d="m61.5 80.4c.6 0 1-.4 1-1v-62.8c0-.6-.4-1-1-1h-35.5c-.6 0-1 .4-1 1v62.8c0 .6.4 1 1 1zm-34.5-2v-27h33.5v27zm33.5-29h-33.5v-2.8h33.5zm-33.5-31.8h33.5v27h-33.5z"/><path d="m56 54.3c-1.7 0-3 1.3-3 3v1.6c0 2.6 3.1 4 5 2.3 1.2-1.1 1-2.3 1-3.8 0-1.7-1.3-3.1-3-3.1zm1 4.6c0 .6-.4 1-1 1s-1-.4-1-1v-1.6c0-.6.4-1 1-1s1 .4 1 1z"/><path d="m37.6 31.9c.6 0 .3.1 6.5-6.1.4-.4.4-1 0-1.4s-1-.4-1.4 0c-.6.6 2.1-2.1-5.8 5.8-.7.6-.2 1.7.7 1.7z"/><path d="m38.3 35.3c-.4.4-.5 1-.1 1.4.4.5 1.1.5 1.5 0l9.5-9.5c.4-.4.3-1.1-.1-1.4s-.9-.3-1.3 0z"/><path d="m43.5 36.8c-.6.6-.2 1.7.7 1.7.6 0 .2.2 6.5-6.1.4-.4.4-1 0-1.4-.2-.2-.9-.6-1.4 0z"/><path d="m38.3 64.9 5.7-5.7c.4-.4.4-1 0-1.4s-1-.4-1.4 0c-5.1 5.1-3.8 3.8-5.8 5.8-.4.4-.4 1 0 1.4.5.4 1.2.4 1.5-.1z"/><path d="m49.2 60.7c.4-.4.4-1 0-1.4s-1-.4-1.4 0l-9.5 9.4c-.4.3-.5 1-.1 1.4.4.5 1.1.5 1.5.1z"/><path d="m49.2 64.4-5.8 5.8c-.4.4-.4 1 0 1.4s1 .4 1.4 0l5.8-5.8c.4-.4.4-1 0-1.4s-1-.4-1.4 0z"/><path d="m14.8 66.7v-47.5c-.1-3-2.7-5.4-5.7-5.2-2.8.1-5.1 2.4-5.2 5.2v47.5c-4.2 3-5.1 8.9-2.1 13 3 4.2 8.9 5.1 13 2.1 5.1-3.7 5.2-11.4 0-15.1zm-.6 13c-3.1 2.6-7.7 2.2-10.3-.9s-2.2-7.7.9-10.3c.6-.5 1.1-.6 1.1-1.3v-48c.1-1.9 1.7-3.4 3.7-3.3 1.8.1 3.2 1.5 3.3 3.3v48c0 .3.2.7.5.8 4 2.6 4.5 8.5.8 11.7z"/><path d="m10.3 61h1.2c.6 0 1-.4 1-1s-.4-1-1-1h-1.2v-7.6h1.2c.6 0 1-.4 1-1s-.4-1-1-1h-1.2v-7.6h1.2c.6 0 1-.4 1-1s-.4-1-1-1h-1.2v-7.6h1.2c.6 0 1-.4 1-1s-.4-1-1-1h-1.2v-10c0-.6-.4-1-1-1s-1 .4-1 1v10h-1.1c-.6 0-1 .4-1 1s.4 1 1 1h1.2v7.6h-1.2c-.6 0-1 .4-1 1s.4 1 1 1h1.2v7.6h-1.2c-.6 0-1 .4-1 1s.4 1 1 1h1.2v7.6h-1.2c-.6 0-1 .4-1 1s.4 1 1 1h1.2v8.4c-2.7.6-4.5 3.2-3.9 5.9s3.2 4.5 5.9 3.9 4.5-3.2 3.9-5.9c-.4-2-1.9-3.5-3.9-3.9-.1.1-.1-.8-.1-8.4zm-1 16.3c-1.7 0-3-1.3-3-3s1.3-3 3-3 3 1.3 3 3-1.3 3-3 3z"/></svg>