<svg height="512" viewBox="0 0 96 96" width="512" xmlns="http://www.w3.org/2000/svg"><g id="Playground"><path d="m75.42 49.71a9.28 9.28 0 1 0 -9.27-9.28 9.29 9.29 0 0 0 9.27 9.28zm0-16.56a7.28 7.28 0 1 1 -7.27 7.28 7.29 7.29 0 0 1 7.27-7.28z"/><path d="m95.71 26.38-19.29-19.29v-2.78a1 1 0 0 0 -2 0v2.79l-19.28 19.28a1 1 0 0 0 .71 1.71h2.59v14.05h-12a1 1 0 0 0 0 2h1.32v7.91a14.37 14.37 0 0 0 -8.76 6.67l-1.24 2.15v-17.73a1 1 0 0 0 -1-1h-5.68a1 1 0 0 0 -1 1v1.29h-22.4v-1.29a1 1 0 0 0 -1-1h-5.68a1 1 0 0 0 -1 1v48.55a1 1 0 0 0 1 1h20.27a14.29 14.29 0 0 0 8.81-3v2a1 1 0 0 0 1 1h5.69a1 1 0 0 0 .94-.67 4.08 4.08 0 0 0 2.26.67h27.53a1 1 0 0 0 1-1v-13.11a1 1 0 0 0 -1-1h-2.56v-17.24h4.83v31.35a1 1 0 0 0 2 0v-1.89h7.31v1.89a1 1 0 0 0 2 0v-31.35h4.82v31.35a1 1 0 0 0 1 1h4.51a1 1 0 0 0 1-1v-63.6h2.59a1 1 0 0 0 .71-1.71zm-40.32 17.76h3v7.44h-3zm-5.62 0h3.62v7.44a27.86 27.86 0 0 0 -3.62.1zm-17.69 0h3.69v20.19l-3.69 6.39zm-24.4 2.29h22.4v2.57h-22.4zm18.46 28.69h-.81v-24.12h4.75v23.2l-2.94 5.09v-3.17a1 1 0 0 0 -1-1zm-1 2v2.27h-12.51v-2.27zm-10.7-2v-24.12h8.89v24.12zm-6.76-24.12h4.76v24.12h-.81a1 1 0 0 0 -1 1v4.27a1 1 0 0 0 1 1h14.27a5.44 5.44 0 0 1 -4.61 2.54h-1.75a3.38 3.38 0 0 0 -2.54 1.15l-1.53 1.74a1.28 1.28 0 0 1 -1 .43h-6.79zm-4.49 39.69h-1.19v-46.55h3.68v43.11a2.72 2.72 0 0 0 -2.49 3.44zm32.58 0h-3.69v-3c1.15-1.31 1.56-2.18 3.69-5.87zm0-18.47v5.63c-4.17 7.22-4.35 7.73-5.69 9.11a12.3 12.3 0 0 1 -8.81 3.73c-15.9 0-15.49 0-15.59 0a.72.72 0 0 1 0-1.42h8.84a3.26 3.26 0 0 0 2.48-1.13l1.5-1.74a1.37 1.37 0 0 1 1-.47h1.75a7.5 7.5 0 0 0 6.47-3.73l13-22.48a12.32 12.32 0 0 1 10.64-6.14h7.06v4.76h-7.06a7.5 7.5 0 0 0 -6.48 3.74l-3.43 5.92h-1.45a4.21 4.21 0 0 0 -4.23 4.22zm22.67-11.88v7.66h-14.68l2.85-4.93a5.51 5.51 0 0 1 4.75-2.74zm4.5 30.35h-22.94a2.2 2.2 0 0 1 -2.2-2.2v-16.27a2.2 2.2 0 0 1 2.2-2.22h23zm0-22.68h-2.5v-7.67h2.5zm3.56 11.57v11.11h-1.56v-11.11zm12.58 8.22h-7.31v-3.11h7.31zm0-5.11h-7.31v-3.11h7.31zm0-5.11h-7.31v-3.12h7.31zm0-5.12h-7.31v-3.11h7.31zm0-5.11h-7.31v-3.11h7.31zm0-5.11h-7.31v-1.9h7.31zm11.33 28.45h-2.51v-30.35h2.51zm0-32.35h-30v-3.57h30zm0-5.57h-30v-24.68h30zm-32.15-26.68 17.16-17.16 17.17 17.16z"/><path d="m50.36 73.44a6.92 6.92 0 1 0 6.91 6.91 6.92 6.92 0 0 0 -6.91-6.91zm0 11.83a4.92 4.92 0 1 1 4.91-4.92 4.93 4.93 0 0 1 -4.91 4.92z"/><path d="m60.2 74a1 1 0 1 0 -1-1 1 1 0 0 0 1 1z"/><path d="m40.45 74a1 1 0 0 0 1.15-1 1 1 0 0 0 -1-1 1 1 0 0 0 -1 1 1 1 0 0 0 .85 1z"/><path d="m60.2 87.11a1 1 0 1 0 1 1 1 1 0 0 0 -1-1z"/><path d="m40.61 87.11a1 1 0 1 0 1 1 1 1 0 0 0 -1-1z"/></g></svg>