<svg id="Layer_2" enable-background="new 0 0 512 512" viewBox="0 0 512 512" xmlns="http://www.w3.org/2000/svg"><g style="fill:none;stroke:#474747;stroke-linecap:round;stroke-linejoin:round;stroke-miterlimit:10;stroke-width:14"><g><ellipse cx="256.409" cy="341.757" rx="124.856" ry="19.393"/><path d="m381.265 341.757v100.651c0 10.71-55.9 19.393-124.856 19.393s-124.856-8.682-124.856-19.393v-100.651"/><path d="m409.696 435.47c13.849 5.607 21.732 12.055 21.732 18.914 0 21.628-78.359 39.16-175.019 39.16s-175.019-17.532-175.019-39.16c0-7.385 9.137-14.293 25.02-20.188"/><path d="m409.694 395.341c54.619 13.96 89.5 35.224 89.5 59.043"/><path d="m13.623 454.384c0-24.293 36.285-45.929 92.788-59.869"/><path d="m212.99 300.517v-67.457c0-24.056 8.904-56.261 24.997-74.142l18.421-21.468 17.763 20.342c16.5 17.967 25.656 50.472 25.656 74.866v67.86"/><path d="m113.829 322.364v-98.828c0-27.452 6.799-53.933 19.087-74.338l14.066-23.358 13.563 22.072c12.599 20.503 19.59 47.327 19.59 75.165v77.44"/><path d="m15.409 445.115.616-230.11c.22-30.408 7.231-59.692 19.681-82.205l14.252-25.771 13.386 24.547c12.434 22.802 19.21 52.565 18.988 83.4l-.62 185.803"/><path d="m398.775 322.364v-98.828c0-27.452-6.799-53.933-19.087-74.338l-14.066-23.358-13.563 22.072c-12.599 20.503-19.59 47.327-19.59 75.165v77.44"/><path d="m497.194 445.115-.616-230.11c-.22-30.408-7.231-59.692-19.681-82.205l-14.252-25.771-13.386 24.547c-12.434 22.802-19.21 52.565-18.988 83.4l.62 185.803"/></g><path d="m13.623 52.305s100.321 54.723 242.786 54.723 240.786-54.723 240.786-54.723"/><path d="m13.623 17.013s100.321 54.723 242.786 54.723 240.786-54.723 240.786-54.723"/></g></svg>