<svg id="Layer_1" enable-background="new 0 0 64 64" height="64" viewBox="0 0 64 64" width="64" xmlns="http://www.w3.org/2000/svg"><g fill="#010101"><path d="m63.183 29.401c-.094-.846-.521-1.604-1.205-2.135l-6.648-5.154v-13.509c0-.535-.434-.969-.969-.969h-8.184c-.535 0-.969.434-.969.969v5.665l-12.617-9.78c-.352-.272-.838-.271-1.188.001l-8.814 6.832c-.041-.858-.215-1.697-.537-2.473l2.33-1.346c.463-.268.621-.86.354-1.324-.268-.465-.861-.623-1.324-.355l-2.332 1.348c-.393-.511-.85-.971-1.363-1.367l1.346-2.33c.268-.463.109-1.057-.355-1.324-.463-.27-1.057-.109-1.324.355l-1.346 2.325c-.596-.247-1.223-.415-1.867-.499v-2.686c0-.536-.434-.97-.969-.97-.537 0-.971.434-.971.97v2.687c-.645.086-1.271.256-1.865.503l-1.344-2.329c-.27-.465-.863-.625-1.326-.355-.463.266-.621.86-.353 1.323l1.346 2.332c-.51.391-.969.848-1.367 1.363l-2.33-1.346c-.464-.267-1.057-.109-1.325.356-.268.464-.109 1.056.355 1.324l2.326 1.344c-.248.594-.416 1.222-.5 1.867h-2.687c-.535 0-.969.434-.969.97s.434.97.969.97h2.688c.084.646.252 1.275.498 1.867l-2.324 1.343c-.465.269-.623.86-.355 1.325.18.311.506.484.842.484.164 0 .33-.041.482-.129l2.327-1.344c.59.768 1.326 1.416 2.164 1.896.479.281.99.492 1.516.657l-10.986 8.517c-.684.536-1.107 1.298-1.197 2.149-.09.838.162 1.662.709 2.318l.211.252c1.117 1.343 3.15 1.562 4.531.488l1.584-1.229v31.777c0 .403.246.748.596.895.116.052.245.08.382.08h46.346c.535 0 .969-.434.969-.97 0-.002-.002-.004-.002-.007v-31.784l1.594 1.234c.594.467 1.309.693 2.016.693.939 0 1.869-.398 2.494-1.16l.24-.275c.544-.662.79-1.488.697-2.33zm-16.036-19.828h6.242v11.036l-6.242-4.839zm-34.689 6.848c-.83-.479-1.521-1.17-2.004-2.008-.477-.811-.729-1.753-.729-2.724 0-.003 0-.004 0-.006s0-.003 0-.005c.002-.971.252-1.912.732-2.729.977-1.689 2.787-2.74 4.736-2.744.004 0 .004.002.008.002.002 0 .004-.002.008-.002.975.001 1.891.246 2.721.729.004.002.006.006.008.008.004.001.006.002.01.003.83.489 1.52 1.181 1.996 2.012.477.812.729 1.755.729 2.729 0 .42-.059.833-.152 1.239l-5.459 4.23c-.915-.023-1.811-.269-2.604-.734zm41.744 45.64h-44.412v-32.316l22.207-17.213 22.205 17.205zm6.805-31.583-.242.275c-.441.539-1.279.627-1.838.191l-26.336-20.404c-.35-.271-.838-.271-1.188 0l-26.326 20.404c-.566.441-1.396.352-1.854-.197l-.211-.252c-.207-.249-.303-.559-.27-.873.035-.324.201-.617.461-.824l28.796-22.316 28.789 22.315c.266.207.432.496.467.818.037.318-.059.631-.248.863z"/><path d="m36.499 1.946c.018-.004 1.842-.122 2.787.789.42.403.607.972.576 1.736-.021.475.305.894.768.991.068.015.135.021.201.021.393 0 .754-.238.902-.616.277-.712.678-1.154 1.221-1.356 1.029-.379 2.428.16 2.877.4.473.254 1.059.08 1.314-.392.254-.471.078-1.06-.393-1.314-.096-.052-2.395-1.275-4.459-.517-.357.131-.686.313-.982.543-.18-.331-.406-.631-.68-.893-1.584-1.525-4.18-1.336-4.289-1.327-.533.044-.932.511-.889 1.045s.509.922 1.046.89z"/><path d="m27.517 24.173c0 2.472 2.012 4.483 4.482 4.483 2.473 0 4.484-2.012 4.484-4.483 0-2.473-2.012-4.484-4.484-4.484-2.471-.001-4.482 2.011-4.482 4.484zm4.482-2.545c1.404 0 2.545 1.142 2.545 2.545 0 1.402-1.141 2.544-2.545 2.544-1.402 0-2.543-1.142-2.543-2.544 0-1.403 1.141-2.545 2.543-2.545z"/><path d="m21.886 32.442c-.186.096-4.592 2.395-5.588 6.968-.596 2.736.334 5.696 2.484 7.917.713.734 1.553 1.952 1.518 3.58-.043 1.931-1.264 4.047-3.635 6.29-.389.368-.404.981-.037 1.371.191.202.447.303.705.303.238 0 .479-.088.666-.265 2.76-2.613 4.186-5.189 4.24-7.656.049-2.298-1.094-3.973-2.063-4.973-1.701-1.754-2.441-4.055-1.984-6.154.797-3.663 4.541-5.636 4.578-5.654.477-.244.664-.828.422-1.305-.244-.476-.828-.664-1.306-.422z"/><path d="m30.079 32.442c-.188.096-4.594 2.395-5.59 6.968-.594 2.736.334 5.696 2.486 7.917.711.734 1.553 1.952 1.518 3.581-.043 1.93-1.266 4.046-3.635 6.289-.389.368-.406.981-.037 1.371.189.202.447.303.703.303.24 0 .48-.088.668-.265 2.758-2.613 4.186-5.189 4.238-7.656.051-2.298-1.094-3.973-2.063-4.973-1.699-1.754-2.439-4.055-1.984-6.154.799-3.663 4.543-5.636 4.58-5.654.475-.244.664-.828.42-1.305s-.827-.664-1.304-.422z"/><path d="m32.683 39.41c-.596 2.736.334 5.696 2.484 7.917.713.734 1.553 1.952 1.518 3.58-.041 1.931-1.264 4.047-3.633 6.29-.389.368-.406.981-.039 1.371.191.202.447.303.705.303.24 0 .479-.088.666-.265 2.76-2.613 4.188-5.189 4.24-7.656.049-2.298-1.094-3.973-2.063-4.973-1.699-1.754-2.441-4.055-1.984-6.154.799-3.663 4.541-5.636 4.578-5.654.477-.244.664-.828.422-1.305-.244-.477-.83-.664-1.305-.422-.187.096-4.593 2.395-5.589 6.968z"/><path d="m44.878 50.908c-.043 1.93-1.266 4.046-3.635 6.289-.389.368-.406.981-.037 1.371.191.202.447.303.703.303.24 0 .48-.088.668-.265 2.76-2.613 4.186-5.189 4.238-7.656.051-2.298-1.094-3.973-2.063-4.973-1.699-1.754-2.439-4.055-1.982-6.154.797-3.663 4.541-5.636 4.578-5.654.477-.244.664-.828.42-1.305-.242-.477-.828-.664-1.305-.422-.186.096-4.594 2.395-5.59 6.968-.594 2.736.334 5.696 2.486 7.917.712.735 1.554 1.952 1.519 3.581z"/></g></svg>