<svg height="512pt" viewBox="0 0 512 512" width="512pt" xmlns="http://www.w3.org/2000/svg"><path d="m461.21875 441.476562h-28.433594c-7.324218 0-13.28125 5.957032-13.28125 13.28125v18.4375c0 7.324219 5.957032 13.28125 13.28125 13.28125h28.433594c7.324219 0 13.285156-5.957031 13.285156-13.28125v-18.4375c0-7.324218-5.960937-13.28125-13.285156-13.28125zm-1.714844 30h-25v-15h25zm0 0"/><path d="m494.5 417h-27.503906v-31.269531c0-4.144531-3.355469-7.5-7.5-7.5-4.140625 0-7.5 3.355469-7.5 7.5v31.269531h-125.609375v-67.542969h22.382812c7.847657 0 14.230469-6.382812 14.230469-14.230469v-15.855468c15.632812-1.160156 28-14.253906 28-30.179688v-228.46875c0-16.691406-13.578125-30.265625-30.265625-30.265625h-330.46875c-16.6875 0-30.265625 13.574219-30.265625 30.265625v35.054688c0 4.140625 3.359375 7.5 7.5 7.5s7.5-3.359375 7.5-7.5v-35.054688c0-8.417968 6.847656-15.265625 15.265625-15.265625h330.46875c8.417969 0 15.265625 6.847657 15.265625 15.265625v228.46875c0 8.417969-6.847656 15.265625-15.265625 15.265625h-34.347656v-17.519531c0-4.140625-3.359375-7.5-7.5-7.5-4.144531 0-7.5 3.359375-7.5 7.5v17.519531h-281.121094c-8.417969 0-15.265625-6.847656-15.265625-15.265625v-161.324218c0-4.140626-3.359375-7.5-7.5-7.5s-7.5 3.359374-7.5 7.5v161.324218c0 15.925782 12.367188 29.019532 28 30.179688v15.855468c0 7.847657 6.382812 14.230469 14.230469 14.230469h269.152343v67.542969h-27.578124c-9.648438 0-17.5 7.851562-17.5 17.5v60c0 9.648438 7.851562 17.5 17.5 17.5h210.695312c9.648438 0 17.5-7.851562 17.5-17.5v-60c0-9.648438-7.851562-17.5-17.5-17.5zm-146.5-97.542969v15h-21.613281v-15zm-305 15v-15h268.386719v15zm454 160.042969c0 1.378906-1.121094 2.5-2.5 2.5h-210.695312c-1.378907 0-2.5-1.121094-2.5-2.5v-60c0-1.378906 1.121093-2.5 2.5-2.5h175.09375c.195312.015625.398437.023438.597656.023438.203125 0 .402344-.007813.601562-.023438h34.402344c1.378906 0 2.5 1.121094 2.5 2.5zm0 0"/><path d="m372.496094 457h-70.136719c-4.140625 0-7.5 3.359375-7.5 7.5s3.359375 7.5 7.5 7.5h70.136719c4.144531 0 7.5-3.359375 7.5-7.5s-3.355469-7.5-7.5-7.5zm0 0"/><path d="m459.496094 360.578125c4.144531 0 7.5-3.359375 7.5-7.5v-345.578125c0-4.140625-3.355469-7.5-7.5-7.5-4.140625 0-7.5 3.359375-7.5 7.5v345.578125c0 4.140625 3.359375 7.5 7.5 7.5zm0 0"/><path d="m333.695312 130.523438c13.785157 0 25-10.992188 25-24.5 0-13.511719-11.214843-24.5-25-24.5-13.785156 0-25 10.988281-25 24.5 0 13.507812 11.214844 24.5 25 24.5zm0-34c5.515626 0 10 4.261718 10 9.5 0 5.238281-4.484374 9.5-10 9.5-5.511718 0-10-4.261719-10-9.5 0-5.238282 4.488282-9.5 10-9.5zm0 0"/><path d="m333.695312 200.195312c13.785157 0 25-10.988281 25-24.5 0-13.507812-11.214843-24.5-25-24.5-13.785156 0-25 10.992188-25 24.5 0 13.511719 11.214844 24.5 25 24.5zm0-34c5.515626 0 10 4.265626 10 9.5 0 5.238282-4.484374 9.5-10 9.5-5.511718 0-10-4.261718-10-9.5 0-5.234374 4.488282-9.5 10-9.5zm0 0"/><path d="m264.238281 271.871094h-8.238281c-4.140625 0-7.5 3.359375-7.5 7.5s3.359375 7.5 7.5 7.5h8.238281c15.566407 0 28.234375-12.667969 28.234375-28.234375v-165.878907c0-15.570312-12.667968-28.234374-28.234375-28.234374h-201.820312c-15.570313 0-28.234375 12.664062-28.234375 28.234374v165.878907c0 15.566406 12.664062 28.234375 28.234375 28.234375h161.171875c4.140625 0 7.5-3.359375 7.5-7.5s-3.359375-7.5-7.5-7.5h-161.171875c-7.296875 0-13.234375-5.9375-13.234375-13.234375v-165.878907c0-7.296874 5.9375-13.234374 13.234375-13.234374h201.820312c7.296875 0 13.234375 5.9375 13.234375 13.234374v165.878907c0 7.296875-5.9375 13.234375-13.234375 13.234375zm0 0"/><path d="m306.195312 247.5625c0 7.324219 5.960938 13.28125 13.285157 13.28125h28.433593c7.324219 0 13.28125-5.957031 13.28125-13.28125v-18.433594c0-7.324218-5.957031-13.285156-13.28125-13.285156h-28.433593c-7.324219 0-13.285157 5.960938-13.285157 13.285156zm15-16.71875h25v15h-25zm0 0"/></svg>