<svg id="Capa_1" enable-background="new 0 0 512 512" height="512" viewBox="0 0 512 512" width="512" xmlns="http://www.w3.org/2000/svg"><g><g><path d="m280.771 115.611h16.516v33.032h-16.516z"/><path d="m231.223 107.353c0-4.558 3.7-8.258 8.258-8.258s8.258 3.7 8.258 8.258v8.258h16.516v-8.258c0-13.659-11.115-24.774-24.774-24.774s-24.774 11.115-24.774 24.774v8.258h16.516z"/><path d="m330.318 107.353c0-4.558 3.7-8.258 8.258-8.258s8.258 3.7 8.258 8.258v8.258h16.516v-8.258c0-13.659-11.115-24.774-24.774-24.774s-24.774 11.115-24.774 24.774v8.258h16.516z"/><path d="m261.835 162.739-11.677-11.677-24.774 24.774 11.677 11.677 6.681-6.681c12.486 11.181 28.391 17.358 45.286 17.358 16.896 0 32.801-6.177 45.287-17.358l6.681 6.681 11.677-11.677-24.774-24.774-11.677 11.677 6.416 6.416c-9.348 8.076-21.132 12.519-33.61 12.519s-24.262-4.443-33.61-12.519z"/><path d="m90.838 165.159c-13.659 0-24.774 11.115-24.774 24.774s11.115 24.774 24.774 24.774 24.774-11.115 24.774-24.774-11.115-24.774-24.774-24.774zm0 33.031c-4.558 0-8.258-3.7-8.258-8.258s3.7-8.258 8.258-8.258 8.258 3.7 8.258 8.258-3.699 8.258-8.258 8.258z"/><path d="m511.357 415.589c-1.486-6.449-5.392-11.933-11-15.442-3.947-2.469-8.481-3.774-13.138-3.774-8.613 0-16.466 4.36-21.008 11.66-5.723 9.142-12.577 17.259-20.281 24.303v-44.163c0-6.35-1.065-12.445-2.965-18.167l25.847-56.848c15.178-2.973 26.665-16.351 26.665-32.388 0-18.217-14.815-33.032-33.032-33.032s-33.032 14.815-33.032 33.032c0 6.111 1.775 11.759 4.682 16.673l-34.114 34.114c-1.305-.273-2.634-.446-3.964-.636-.818-8.96-3.526-17.655-8.175-25.41l-26.434-44.056c-5.178-8.621-12.387-15.649-20.727-20.802 30.274-12.742 52.207-41.438 55.295-75.502h8.663c22.767 0 41.29-18.523 41.29-41.29s-18.523-41.29-41.29-41.29h-8.679c-4.186-46.22-43.114-82.571-90.415-82.571h-33.032c-47.301 0-86.229 36.351-90.416 82.579h-8.679c-13.436 0-25.278 6.549-32.817 16.516h-26.153c-3.328-15.038-14.179-27.581-29.25-32.602l-9.563-3.196-4.501 35.988c-16.912.95-32.842 9.307-43.057 22.932l-14.204 18.944 21.941 21.941-21.71 19.002c-8.968 7.845-14.105 19.175-14.105 31.075v9.786c0 22.767 18.523 41.29 41.29 41.29h43.313l4.682 16.384c6.516 22.767 9.81 46.327 9.81 70.011 0 24.138-3.592 47.929-10.306 71.002-3.6-4.253-6.953-8.77-9.967-13.593-4.55-7.317-12.403-11.677-21.016-11.677-4.649 0-9.191 1.305-13.13 3.774-5.615 3.51-9.521 8.993-11.008 15.442-1.486 6.441-.372 13.089 3.138 18.704 30.407 48.655 82.812 77.698 140.197 77.698l191.022-.008c57.376 0 109.789-29.051 140.195-77.699 3.51-5.616 4.624-12.263 3.138-18.704zm-48.912-151.335c9.109 0 16.516 7.407 16.516 16.516 0 9.108-7.407 16.516-16.516 16.516-9.108 0-16.516-7.407-16.516-16.516s7.408-16.516 16.516-16.516zm-16.673 44.865c1.759 1.04 3.6 1.916 5.541 2.61l-18.25 40.142c-4.492-5.558-10-10.24-16.219-13.824zm-50.472 38.449c19.348 3.435 34.114 20.29 34.114 40.604v56.732c-10.38 6.499-21.776 11.297-33.808 14.212-3.551-27.441-19.563-51.108-42.058-65.271 21.256-6.358 37.565-24.187 41.752-46.277zm-290.126-71.456-3.477-12.164c17.515-1.561 32.619-13.18 38.259-30.108l-15.657-5.227c-3.823 11.437-14.484 19.125-26.541 19.125h-31.693v-2.287c0-23.709-9.943-46.476-27.359-62.925l38.721-33.882h35.171c9.034 0 17.358 4.922 21.71 12.833l56.526 102.778h-9.158c-18.217 0-33.032 14.815-33.032 33.032s14.815 33.032 33.032 33.032h54.37c-3.064 5.541-4.823 11.834-4.823 18.465v31.496c-42.115 3.881-76.402 37.037-81.803 78.847-17.507-4.253-33.676-12.494-47.326-24.113 8.935-27.268 13.518-55.609 13.518-84.363 0-25.231-3.518-50.31-10.438-74.539zm76.923-110.953c3.997 44.048 39.539 79.037 83.81 82.241l-21.066 16.854h-35.171l-57.971-105.421c6.326 3.939 13.725 6.326 21.718 6.326zm16.094 148.642v-33.031h16.516v33.032h-16.516zm-16.515 0c-9.109 0-16.516-7.407-16.516-16.516s7.407-16.516 16.516-16.516zm53.453 102.25 6.301-3.155h39.341v8.258c0 4.558-3.7 8.258-8.258 8.258h-34.237c-3.881 0-7.052-3.171-7.052-7.052-.001-2.692 1.494-5.111 3.905-6.309zm-3.906-19.167v2.651l-3.485 1.742c-8.043 4.022-13.031 12.098-13.031 21.083 0 12.998 10.57 23.568 23.568 23.568h34.237c13.659 0 24.774-11.115 24.774-24.774v-24.774h8.258c37.706 0 69.358 28.746 73.785 65.461-3.733.363-7.498.603-11.305.603l-191.031.008c-3.807 0-7.573-.239-11.305-.603 4.104-33.997 31.562-61.133 65.535-64.965zm148.205-66.567c.281 2.007.438 4.03.438 6.07 0 23.981-19.497 43.478-43.478 43.478h-6.07v-8.258c0-22.767 18.523-41.29 41.29-41.29zm-5.888-16.516h-1.932c-31.867 0-57.806 25.938-57.806 57.806v8.258h-16.516v-10.562c0-11.908-6.623-22.618-17.276-27.953l-3.807-1.899-7.391 14.773 3.807 1.899c5.029 2.51 8.151 7.564 8.151 13.18v27.078h-33.032v-47.599c0-7.713 4.121-14.583 10.686-18.465h2.502c9.34 0 18.498-3.221 25.798-9.051l32.239-25.79-10.322-12.907-32.239 25.79c-4.385 3.518-9.876 5.442-15.475 5.442h-29.704v-33.031h13.097l14.096 14.096 11.677-11.677-9.992-9.992 19.291-15.434c8.085-6.458 18.225-10.025 28.581-10.025h.025c15.987 0 31.017 8.514 39.242 22.222zm55.874-189.932c0 13.659-11.115 24.774-24.774 24.774h-8.258v-12.098l21.099-14.063-9.158-13.741-11.941 7.961v-17.607h8.258c13.658 0 24.774 11.115 24.774 24.774zm-231.223-33.032c0-32.734 21.297-60.547 50.753-70.424l-16.846 33.701 14.773 7.391 22.404-44.816c1.082-.058 2.147-.173 3.237-.173h8.258v49.548h16.516v-49.548h8.258c1.09 0 2.155.116 3.237.165l22.404 44.816 14.773-7.391-16.846-33.701c29.456 9.885 50.753 37.697 50.753 70.432v66.063c0 40.984-33.337 74.321-74.321 74.321h-33.032c-40.984 0-74.321-33.337-74.321-74.321zm-24.773 8.258h8.258v17.606l-11.933-7.961-9.158 13.741 21.091 14.063v12.098h-8.258c-13.659 0-24.774-11.115-24.774-24.774s11.115-24.773 24.774-24.773zm-38.375 39.762c-5.756-3.741-12.412-6.004-19.431-6.524v-16.722h17.35c-.545 2.667-.834 5.434-.834 8.258 0 5.302 1.09 10.331 2.915 14.988zm-45.774-51.463c6.111 5.202 9.827 12.907 9.827 21.297v23.436h-15.417zm-53.594 52.215 5.615-7.482c6.697-8.919 16.813-14.716 27.763-16.153l-2.535 20.257-18.25 15.971zm-19.158 83.355v-9.786c0-7.143 3.08-13.939 8.456-18.646l1.206-1.049c14.691 13.147 23.37 32.115 23.37 51.967v2.287h-8.258c-13.659.001-24.774-11.114-24.774-24.773zm477.705 202.567c-27.375 43.8-74.553 69.945-126.198 69.945l-191.031.008c-51.645 0-98.823-26.145-126.189-69.945-1.173-1.875-1.544-4.079-1.04-6.235.504-2.188 1.775-3.964 3.675-5.153 1.313-.818 2.824-1.255 4.368-1.255 2.866 0 5.483 1.453 7.011 3.906 24.336 38.928 66.27 62.166 112.184 62.166l191.022-.008c45.914 0 87.848-23.238 112.192-62.182 2.337-3.749 7.63-4.98 11.371-2.626 1.891 1.189 3.171 2.965 3.667 5.153.504 2.147.132 4.36-1.032 6.226z"/></g></g></svg>