<?xml version="1.0" encoding="UTF-8"?>
<svg xmlns="http://www.w3.org/2000/svg" id="Layer_1" data-name="Layer 1" viewBox="0 0 512 512" width="512" height="512"><path d="M209.405,481.885l13.253.006h0a6,6,0,0,0,0-12l-13.253-.006h0a6,6,0,0,0,0,12Z"/><path d="M119.492,481.847l68.265.029h0a6,6,0,0,0,0-12l-68.265-.029h0a6,6,0,0,0,0,12Z"/><path d="M58.7,239.22c2.1,3.064,3.621,5.279,4.146,10.666s-.54,7.853-2.013,11.265a30.969,30.969,0,0,0-2.937,17.181,6,6,0,0,0,5.964,5.419q.293,0,.588-.028a6,6,0,0,0,5.391-6.553c-.524-5.387.54-7.853,2.013-11.265a33.121,33.121,0,0,0-3.255-33.473c-2.1-3.065-3.621-5.279-4.146-10.667s.54-7.851,2.013-11.264A30.956,30.956,0,0,0,69.4,193.323a6,6,0,1,0-11.943,1.161c.524,5.387-.54,7.851-2.013,11.263A33.122,33.122,0,0,0,58.7,239.22Z"/><path d="M92.581,199.132c2.1,3.065,3.621,5.28,4.146,10.666s-.54,7.853-2.013,11.265a30.979,30.979,0,0,0-2.938,17.182,6,6,0,0,0,5.965,5.42q.293,0,.588-.029a6,6,0,0,0,5.391-6.553c-.525-5.387.54-7.853,2.012-11.266a33.116,33.116,0,0,0-3.254-33.472c-2.1-3.065-3.622-5.28-4.146-10.667s.54-7.852,2.012-11.263a30.969,30.969,0,0,0,2.938-17.179A6,6,0,1,0,91.339,154.4c.523,5.386-.54,7.851-2.013,11.263a33.12,33.12,0,0,0,3.255,33.472Z"/><path d="M332.932,197.317a29.6,29.6,0,0,0,6.2,15.926c2.065,2.925,3.558,5.039,4.057,10.167s-.559,7.489-2.022,10.758a29.606,29.606,0,0,0-3.013,16.821,6,6,0,0,0,5.965,5.42,5.816,5.816,0,0,0,.588-.029,6,6,0,0,0,5.391-6.552c-.5-5.127.558-7.489,2.021-10.757a31.566,31.566,0,0,0-3.183-32.749c-2.066-2.925-3.558-5.039-4.057-10.166s.559-7.488,2.021-10.756a29.585,29.585,0,0,0,3.013-16.82,6,6,0,1,0-11.943,1.161c.5,5.126-.559,7.488-2.022,10.756A29.593,29.593,0,0,0,332.932,197.317Z"/><path d="M365.755,158.484a29.617,29.617,0,0,0,6.2,15.926c2.066,2.925,3.558,5.039,4.057,10.167s-.559,7.489-2.022,10.757a29.6,29.6,0,0,0-3.012,16.822,6,6,0,0,0,5.964,5.42,5.816,5.816,0,0,0,.588-.029A6,6,0,0,0,382.918,211c-.5-5.128.559-7.489,2.021-10.758a31.562,31.562,0,0,0-3.184-32.748c-2.066-2.926-3.558-5.04-4.057-10.167s.559-7.487,2.023-10.755a29.6,29.6,0,0,0,3.012-16.82,6,6,0,1,0-11.943,1.161c.5,5.126-.559,7.487-2.022,10.755A29.587,29.587,0,0,0,365.755,158.484Z"/><path d="M466.542,13.564a23.816,23.816,0,0,0-18.577-2.8l-155.2,40.014A77.713,77.713,0,0,1,237.6,45.016c-16.634-8.59-36.582-10.54-56.164-5.492-39.2,10.108-64.095,45.6-55.486,79.12,4.221,16.431,15.7,29.877,32.325,37.863a72.8,72.8,0,0,0,11.252,4.283l.489,42.864a6,6,0,0,0,6,5.932h.069a6,6,0,0,0,5.932-6.067l-.459-40.275a80.574,80.574,0,0,0,9.806.6,85.471,85.471,0,0,0,21.317-2.736c.124-.032.244-.071.368-.1v11.1a6,6,0,0,0,12,0V156.9a77.175,77.175,0,0,0,34.165-27.753,77.85,77.85,0,0,1,45.536-31.726L459.536,57.511c12.62-3.254,20.656-16.073,17.914-28.578A23.894,23.894,0,0,0,466.542,13.564ZM213.052,148.529c-1.112.344-2.232.668-3.364.96a71.61,71.61,0,0,1-28.266,1.621l-.081-7.118a62.255,62.255,0,0,0,9.965.808,68.268,68.268,0,0,0,17.02-2.192c1.61-.415,3.181-.891,4.726-1.409Zm6-40.525a6,6,0,0,0-6,6v14.4a57.53,57.53,0,0,1-7.722,2.587,53.4,53.4,0,0,1-24.128.789l-.142-12.493a6,6,0,0,0-6-5.931h-.07a6,6,0,0,0-5.931,6.068l.089,7.861c-6.731-3.871-11.286-9.458-12.983-16.066C151.854,94.429,166.9,75.989,189.7,70.11a56.362,56.362,0,0,1,14.04-1.818,46.37,46.37,0,0,1,18.184,3.546c8.912,3.8,14.927,10.21,16.94,18.044,2.881,11.211-2.882,23.155-13.816,31.607V114A6,6,0,0,0,219.052,108ZM456.54,45.891,301.757,85.8a89.859,89.859,0,0,0-52.51,36.668,65.044,65.044,0,0,1-24.2,21.142v-7.785c19.255-11.055,30.158-30.551,25.439-48.924-2.962-11.53-11.433-20.8-23.855-26.1-11.876-5.067-26.058-5.887-39.928-2.31C157.5,66.02,138.586,91.012,144.543,114.2c2.961,11.53,11.434,20.8,23.854,26.1.3.127.6.235.905.357l.085,7.481a60.037,60.037,0,0,1-5.912-2.446c-13.376-6.425-22.574-17.09-25.9-30.032-6.965-27.116,14.056-56.057,46.86-64.514a72.927,72.927,0,0,1,18.174-2.315A64.474,64.474,0,0,1,232.1,55.678a89.7,89.7,0,0,0,63.66,6.721l155.2-40.014A12.046,12.046,0,0,1,465.729,31.5,12.409,12.409,0,0,1,456.54,45.891Z"/><path d="M225.052,198.906v-11.4a6,6,0,0,0-12,0v11.4a6,6,0,0,0,12,0Z"/><path d="M204.705,210.305V174.261a6,6,0,0,0-12,0v36.044a6,6,0,0,0,12,0Z"/><path d="M82.288,502H364.482a48.289,48.289,0,0,0,48.289-48.288V352.6a19.071,19.071,0,0,0-12.188-17.754l1.919-28.374a11.486,11.486,0,0,0-4.033-9.581,12,12,0,0,0-10.1-2.467l-25.715,5.034-9.223-22.238a16.406,16.406,0,0,0-19.239-9.695l-29.061,7.26,4.6-11.163a16.976,16.976,0,0,0-.826-14.949,16.358,16.358,0,0,0-12.757-8.17l-72.387-6.724a22.691,22.691,0,0,0-17.793,6.182l-41.736,2.286a20.03,20.03,0,0,0-18.579,16.206l-4.42,22.756a25.383,25.383,0,0,0-26.443,5.345l-49.37,46.992H53.054A19.054,19.054,0,0,0,34,352.6v8.993a6,6,0,0,0,12,0V352.6a7.054,7.054,0,0,1,7.054-7.054H93.088V448.156H46V413.59a6,6,0,0,0-12,0v40.122A48.288,48.288,0,0,0,82.288,502ZM393.717,345.543a7.062,7.062,0,0,1,7.054,7.054v95.559H351.466V345.543Zm-3.227-39.311-1.847,27.311H376.789l-9.448-22.779ZM337.1,279.165a4.476,4.476,0,0,1,5.247,2.65L363.8,333.543H250.123V304.429a4.512,4.512,0,0,1,3.418-4.39Zm2.37,66.378V448.156H289.083V345.543Zm-62.383,0V448.156H227.751V345.543ZM213.337,249.62a10.732,10.732,0,0,1,9.309-3.9l72.386,6.723a4.525,4.525,0,0,1,3.748,6.235L290.661,278.4l-40.029,10a16.5,16.5,0,0,0-12.509,16.033v29.114H200.03l-31.407-29.351Zm2.414,95.923V448.156H166.419V345.543Zm-58.324-84.8a8.04,8.04,0,0,1,7.455-6.511l30.538-1.673-35.583,43.427L152,288.66ZM82.82,333.543l40.238-38.3a13.366,13.366,0,0,1,18.325-.084l41.072,38.383Zm71.6,12V448.156H105.088V345.543ZM400.186,460.156A36.34,36.34,0,0,1,364.482,490H82.288a36.34,36.34,0,0,1-35.7-29.844Z"/></svg>
