<svg id="&#x421;&#x43B;&#x43E;&#x439;_1" enable-background="new 0 0 4000 4000" viewBox="0 0 4000 4000" xmlns="http://www.w3.org/2000/svg"><g fill="rgb(0,0,0)"><path d="m2117.797 1449.899c-23.68 18.758-27.672 53.156-8.914 76.836 107.652 135.899 164.555 299.524 164.555 473.266s-56.902 337.367-164.555 473.266c-18.758 23.68-14.766 58.078 8.914 76.836 10.062 7.984 22.039 11.812 33.934 11.812 16.133 0 32.102-7.109 42.902-20.727 123.102-155.422 188.18-342.562 188.18-541.187s-65.078-385.766-188.18-541.188c-18.758-23.653-53.156-27.672-76.836-8.914z"/><path d="m1925.078 2356.727c9.57 6.727 20.535 9.953 31.391 9.953 17.199 0 34.152-8.094 44.789-23.27 70.711-100.625 108.117-219.379 108.117-343.438s-37.379-242.812-108.117-343.437c-17.363-24.719-51.488-30.68-76.207-13.289-24.691 17.363-30.652 51.461-13.289 76.18 57.722 82.14 88.238 179.156 88.238 280.574s-30.516 198.434-88.238 280.547c-17.336 24.719-11.403 58.816 13.316 76.18z"/><path d="m2546.875 1717.812v564.375l-262.09 340.703c-7.355 9.57-11.348 21.273-11.348 33.359v1039.062c0 30.188 24.5 54.688 54.688 54.688s54.688-24.5 54.688-54.688v-1020.467l262.09-340.703c7.355-9.57 11.348-21.273 11.348-33.359v-601.562c0-12.059-3.992-23.789-11.348-33.359l-262.09-340.703v-1020.47c0-30.188-24.5-54.688-54.688-54.688s-54.688 24.5-54.688 54.688v1039.062c0 12.059 3.992 23.789 11.348 33.359z"/><path d="m2558.223 2715.914c-7.355 9.57-11.348 21.273-11.348 33.359v946.039c0 30.188 24.5 54.688 54.688 54.688s54.688-24.5 54.688-54.688v-927.445l262.09-340.703c7.355-9.57 11.347-21.273 11.347-33.359v-787.582c0-12.059-3.992-23.789-11.347-33.359l-262.09-340.73v-927.446c0-30.188-24.5-54.688-54.688-54.688s-54.688 24.5-54.688 54.688v946.066c0 12.059 3.992 23.789 11.348 33.359l262.09 340.703v750.367z"/><path d="m3449.219 1425.781c30.188 0 54.688-24.5 54.688-54.688v-218.75c0-30.187-24.5-54.688-54.688-54.688s-54.688 24.5-54.688 54.688v218.75c0 30.188 24.5 54.688 54.688 54.688z"/><path d="m3066.406 1425.781c30.188 0 54.688-24.5 54.688-54.688v-218.75c0-30.187-24.5-54.688-54.688-54.688s-54.688 24.5-54.688 54.688v218.75c.001 30.188 24.501 54.688 54.688 54.688z"/><path d="m3257.812 933.594c30.188 0 54.688-24.5 54.688-54.688v-218.75c0-30.188-24.5-54.688-54.688-54.688s-54.688 24.5-54.688 54.688v218.75c.001 30.188 24.501 54.688 54.688 54.688z"/><path d="m2875 933.594c30.188 0 54.688-24.5 54.688-54.688v-218.75c0-30.188-24.5-54.688-54.688-54.688s-54.688 24.5-54.688 54.688v218.75c0 30.188 24.5 54.688 54.688 54.688z"/><path d="m3585.938 660.156v218.75c0 30.188 24.5 54.688 54.688 54.688s54.688-24.5 54.688-54.688v-218.75c0-30.188-24.5-54.688-54.688-54.688s-54.688 24.501-54.688 54.688z"/><path d="m3203.125 1863.281c0 30.187 24.5 54.688 54.688 54.688s54.688-24.5 54.688-54.688v-218.75c0-30.187-24.5-54.688-54.688-54.688s-54.688 24.5-54.688 54.688z"/><path d="m3640.625 1917.969c30.188 0 54.688-24.5 54.688-54.688v-218.75c0-30.187-24.5-54.688-54.688-54.688s-54.688 24.5-54.688 54.688v218.75c.001 30.188 24.501 54.688 54.688 54.688z"/><path d="m3394.531 2847.656c0 30.188 24.5 54.688 54.688 54.688s54.688-24.5 54.688-54.688v-218.75c0-30.188-24.5-54.688-54.688-54.688s-54.688 24.5-54.688 54.688z"/><path d="m3011.719 2847.656c0 30.188 24.5 54.688 54.688 54.688s54.688-24.5 54.688-54.688v-218.75c0-30.188-24.5-54.688-54.688-54.688s-54.688 24.5-54.688 54.688z"/><path d="m3203.125 3339.844c0 30.188 24.5 54.688 54.688 54.688s54.688-24.5 54.688-54.688v-218.75c0-30.188-24.5-54.688-54.688-54.688s-54.688 24.5-54.688 54.688z"/><path d="m2929.688 3339.844v-218.75c0-30.188-24.5-54.688-54.688-54.688s-54.688 24.5-54.688 54.688v218.75c0 30.188 24.5 54.688 54.688 54.688s54.688-24.501 54.688-54.688z"/><path d="m3585.938 3339.844c0 30.188 24.5 54.688 54.688 54.688s54.688-24.5 54.688-54.688v-218.75c0-30.188-24.5-54.688-54.688-54.688s-54.688 24.5-54.688 54.688z"/><path d="m3203.125 2355.469c0 30.188 24.5 54.688 54.688 54.688s54.688-24.5 54.688-54.688v-218.75c0-30.188-24.5-54.688-54.688-54.688s-54.688 24.5-54.688 54.688z"/><path d="m3585.938 2355.469c0 30.188 24.5 54.688 54.688 54.688s54.688-24.5 54.688-54.688v-218.75c0-30.188-24.5-54.688-54.688-54.688s-54.688 24.5-54.688 54.688z"/><path d="m523.438 2656.25h422.352l371.41 222.851c25.949 15.559 54.605 23.379 83.289 23.379 27.344 0 54.742-7.109 79.844-21.328 51.434-29.121 82.168-81.812 82.168-140.957v-417.02c154.93-26.168 273.438-160.918 273.438-323.176s-118.508-296.98-273.438-323.148v-417.047c0-59.145-30.734-111.808-82.168-140.957-51.461-29.121-112.438-28.355-163.133 2.051l-371.41 222.852h-422.352c-120.613 0-218.75 98.137-218.75 218.75v875c0 120.613 98.136 218.75 218.75 218.75zm1203.124-656.25c0 101.719-69.863 187.168-164.062 211.559v-422.981c94.172 24.363 164.062 109.731 164.062 211.422zm-353.089-785.312c23.734-14.246 44.953-5.195 52.992-.656 7.984 4.539 26.66 18.074 26.66 45.774v1480.418c0 27.672-18.676 41.234-26.688 45.773s-29.258 13.563-52.992-.656l-357.82-214.73v-1141.22zm-959.411 347.812c0-60.32 49.055-109.375 109.375-109.375h382.813v1093.75h-382.812c-60.32 0-109.375-49.055-109.375-109.375v-875z"/></g></svg>