<svg id="Line" height="512" viewBox="0 0 512 512" width="512" xmlns="http://www.w3.org/2000/svg"><path d="m288 368h16v16h-16z"/><path d="m88 416h16v-24h8v24h16v-24h80v24h16v-24h8v24h16v-24h8v-16h-8v-24h-16v24h-8v-24h-16v24h-80v-24h-16v24h-8v-24h-16v24h-8v16h8z"/><path d="m108.281 272h3.719v56h16v-56h32v80h16v-80h32v56h16v-56h3.719l13.625 20.438 13.312-8.876-16-24a8 8 0 0 0 -6.656-3.562h-8v-56a8 8 0 0 0 -8-8h-96a8 8 0 0 0 -8 8v56h-8a8 8 0 0 0 -6.656 3.562l-16 24 13.312 8.876zm67.719-16v-16h32v16zm-48-48h80v16h-80zm0 32h32v16h-32z"/><path d="m504 96a8 8 0 0 0 8-8v-32a8 8 0 0 0 -8-8h-40a8 8 0 0 0 -6.06-7.761l-25.94-6.485v-7.754a18.021 18.021 0 0 0 -18-18h-22a8 8 0 0 0 -8-8h-38a18.021 18.021 0 0 0 -18 18v30h-144v-30a18.021 18.021 0 0 0 -18-18h-38a8 8 0 0 0 -8 8h-22a18.021 18.021 0 0 0 -18 18v7.754l-25.94 6.485a8 8 0 0 0 -6.06 7.761h-40a8 8 0 0 0 -8 8v32a8 8 0 0 0 8 8h8v64h16v-64h16a8 8 0 0 0 6.06 7.761l25.94 6.485v7.754a18.021 18.021 0 0 0 18 18h22a8 8 0 0 0 8 8h38a18.021 18.021 0 0 0 18-18v-30h144v30a18.021 18.021 0 0 0 18 18h38a8 8 0 0 0 8-8h22a18.021 18.021 0 0 0 18-18v-7.754l25.94-6.485a8 8 0 0 0 6.06-7.761h16v368h-16v-296a8 8 0 0 0 -8-8h-400a8 8 0 0 0 -8 8v296h-16v-288h-16v288.024h-8a8 8 0 0 0 -8 8v32.567a8 8 0 0 0 8 8h392v-16h-384v-16.567h480v16.567h-80v16h88a8 8 0 0 0 8-8v-32.567a8 8 0 0 0 -8-8h-8v-368.024zm-112 168a16 16 0 1 1 -16 16 16.019 16.019 0 0 1 16-16zm-80 0a16 16 0 1 1 -16 16 16.019 16.019 0 0 1 16-16zm-248-88h240v73.012a32 32 0 1 0 16 0v-73.012h64v73.012a32 32 0 1 0 16 0v-73.012h48v288h-16v-58a38.067 38.067 0 0 0 -28.649-36.835l12.077-30.194-14.856-5.942-13.988 34.971h-66.584v16h74a22.025 22.025 0 0 1 22 22v26h-106a38.061 38.061 0 0 0 -37.526 32h-35.53l-13.789-27.578a8 8 0 0 0 -7.155-4.422h-96a8 8 0 0 0 -7.155 4.422l-13.789 27.578h-35.056zm52.944 288 8-16h86.112l8 16zm299.056 0h-127.168a22.039 22.039 0 0 1 21.168-16h106zm-400-384v-16h32v16zm48 9.754v-35.508l16-4v43.508zm34 30.246a2 2 0 0 1 -2-2v-92a2 2 0 0 1 2-2h22v96zm70 6a2 2 0 0 1 -2 2h-30v-112h30a2 2 0 0 1 2 2zm16-46v-16h144v16zm162 48a2 2 0 0 1 -2-2v-108a2 2 0 0 1 2-2h30v112zm70-10a2 2 0 0 1 -2 2h-22v-96h22a2 2 0 0 1 2 2zm32-28.246-16 4v-43.508l16 4zm16-25.754h32v16h-32z"/></svg>