<svg id="Capa_1" enable-background="new 0 0 512 512" height="512" viewBox="0 0 512 512" width="512" xmlns="http://www.w3.org/2000/svg"><g><path d="m249.831 158.549c-5.246 7.941-32.392 47.833-32.392 66.387 0 21.263 17.299 38.562 38.562 38.562s38.562-17.299 38.562-38.562c0-18.554-27.057-58.506-32.392-66.387-3.754-5.549-9.004-5.049-12.34 0zm29.733 66.388c0 12.992-10.57 23.562-23.562 23.562s-23.562-10.57-23.562-23.562c0-8.587 12.305-31.021 23.562-48.574 11.258 17.552 23.562 39.986 23.562 48.574z"/><path d="m473.438 465.936h-7.916v-62.356c0-4.142-3.357-7.5-7.5-7.5s-7.5 3.358-7.5 7.5v62.356h-16.3v-132.347c0-12.6-10.25-22.85-22.85-22.85h-23.631v-16.3h23.631c21.587 0 39.149 17.563 39.149 39.15v37.3c0 4.142 3.357 7.5 7.5 7.5s7.5-3.358 7.5-7.5v-37.3c0-29.858-24.291-54.15-54.149-54.15h-23.631v-72.07c0-4.142-3.357-7.5-7.5-7.5s-7.5 3.358-7.5 7.5l-.109 103.25h-100.29c-4.143 0-7.5 3.358-7.5 7.5s3.357 7.5 7.5 7.5h89.794l-109.25 109.25h-86.968l-47.121-47.121h36.518v23.562c0 4.142 3.357 7.5 7.5 7.5s7.5-3.358 7.5-7.5v-85.692h69.347c4.143 0 7.5-3.358 7.5-7.5s-3.357-7.5-7.5-7.5h-69.347v-217.96h178.927c12.958 0 23.5 10.542 23.5 23.5v58.52c0 4.142 3.357 7.5 7.5 7.5s7.5-3.358 7.5-7.5v-58.52c0-21.229-17.271-38.5-38.5-38.5h-23.615v-8.096c0-21.229-17.271-38.5-38.5-38.5h-23.635v-23.562c0-4.142-3.357-7.5-7.5-7.5h-93.167c-4.143 0-7.5 3.358-7.5 7.5v23.562h-23.635c-21.229 0-38.5 17.271-38.5 38.5v8.096h-23.628c-21.229 0-38.5 17.271-38.5 38.5v388.342c0 4.142 3.357 7.5 7.5 7.5h31.07c3.9 0 7.15-2.99 7.474-6.877l10.606-127.247 5.489 5.489v27.946c0 4.142 3.357 7.5 7.5 7.5s7.5-3.358 7.5-7.5v-12.946l47.115 47.115v27.955c0 4.142 3.357 7.5 7.5 7.5h93.177c4.143 0 7.5-3.358 7.5-7.5v-27.959l67.619-67.62 10.607 127.266c.323 3.887 3.573 6.877 7.474 6.877h31.061c4.143 0 7.5-3.358 7.5-7.5v-178.76h23.62c4.328 0 7.85 3.521 7.85 7.85v132.346h-7.908c-4.143 0-7.5 3.358-7.5 7.5v31.062c0 4.142 3.357 7.5 7.5 7.5h62.124c4.143 0 7.5-3.358 7.5-7.5v-31.062c-.002-4.142-3.359-7.499-7.502-7.499zm-416.77-140.317h36.532v36.532zm51.532-124.244h47.115v47.125h-47.115zm47.115-15h-47.115v-47.125h47.115zm-47.115 186.374v-47.125h47.115v47.125zm0-62.13v-47.12h47.115v47.12zm47.115-186.369h-47.115v-31.592h47.115zm15.01-109.25h78.167v16.062h-78.167zm-62.135 54.563c0-12.958 10.542-23.5 23.5-23.5h155.437c12.958 0 23.5 10.542 23.5 23.5v8.093h-202.437zm-38.628 23.095h23.638v217.961h-47.138v-194.46c0-12.958 10.542-23.501 23.5-23.501zm-6.832 404.342h-16.668v-160.774l27.757 27.757zm185.762-31.064h-78.177v-16.062h78.177zm107.602 31.064-11.089-133.036 27.748-27.748v160.784zm109.844-.002h-47.124v-16.062h47.124z"/></g></svg>