<svg id="Capa_1" enable-background="new 0 0 512 512" height="512" viewBox="0 0 512 512" width="512" xmlns="http://www.w3.org/2000/svg"><g><path d="m150.989 223.288c0 4.139-3.373 7.512-7.512 7.512s-7.512-3.373-7.512-7.512v-148.537h-45.581v39.034c0 4.138-3.373 7.512-7.512 7.512h-70.669c-4.138 0-7.512-3.374-7.512-7.512 0-4.139 3.374-7.512 7.512-7.512h63.157v-39.034c0-4.139 3.373-7.484 7.512-7.484h53.094v-28.97c0-8.476 3.459-16.186 9.043-21.742 5.584-5.585 13.265-9.043 21.741-9.043s16.157 3.458 21.742 9.043c5.556 5.556 9.014 13.266 9.014 21.742v13.323h30.672v-14.712c0-4.167 3.373-7.512 7.512-7.512h135.44c4.139 0 7.512 3.345 7.512 7.512v14.712h30.673v-13.323c0-8.476 3.458-16.186 9.042-21.742 5.555-5.585 13.266-9.043 21.713-9.043 8.475 0 16.186 3.458 21.741 9.043 5.584 5.556 9.043 13.266 9.043 21.742v24.265c0 4.139-3.374 7.483-7.513 7.483s-7.483-3.345-7.483-7.483v-24.265c0-4.337-1.785-8.277-4.648-11.14s-6.804-4.649-11.14-4.649c-4.31 0-8.25 1.786-11.112 4.649-2.863 2.863-4.649 6.803-4.649 11.14v20.835 31.238 191.17h31.55v-185.019c0-4.138 3.345-7.483 7.483-7.483s7.513 3.345 7.513 7.483v185.02h28.971c4.139 0 7.483 3.373 7.483 7.512v222.976c0 4.138-3.345 7.483-7.483 7.483-130.935 0-261.868 0-392.83 0-4.139 0-7.483-3.346-7.483-7.483 0-74.326 0-148.651 0-222.976 0-4.139 3.345-7.512 7.483-7.512h28.971v-16.753c0-4.139 3.373-7.512 7.512-7.512s7.512 3.373 7.512 7.512v16.753h31.521v-191.171-31.238-20.835c0-4.337-1.758-8.277-4.62-11.14-2.863-2.863-6.804-4.649-11.141-4.649s-8.276 1.786-11.14 4.649c-2.863 2.863-4.621 6.803-4.621 11.14v36.455 156.048zm153.981-48.757c1.105-8.787 4.139-16.753 8.447-22.932 4.45-6.378 10.262-10.971 16.895-12.955v-26.05h-94.622c-4.139 0-7.512-3.345-7.512-7.484v-14.74h-30.672v183.659h211.809v-183.659h-30.673v14.74c0 4.139-3.373 7.484-7.512 7.484h-25.823v26.05c6.604 1.984 12.416 6.577 16.866 12.955 4.309 6.179 7.342 14.145 8.447 22.932h8.078c4.905 0 8.448 4.621 7.286 9.298l-10.319 66.275c-.566 3.657-3.713 6.378-7.398 6.378h-60.944c-3.969 0-7.228-3.09-7.484-7.001l-10.318-66.304c-.709-4.535 2.807-8.646 7.37-8.646zm50.513 0c-.935-5.612-2.892-10.545-5.557-14.372-3.288-4.706-7.597-7.626-12.132-7.626-4.536 0-8.845 2.92-12.132 7.626-2.665 3.827-4.621 8.759-5.557 14.372zm14.485 14.995c-21.458 0-42.888 0-64.346 0l8.106 51.932h48.161zm-24.661-152.647v60.719h18.34v-14.74-31.238-14.74h-18.34zm-14.996 60.719v-60.719h-16.271v60.719zm-47.538-60.719v60.719h16.271v-60.719zm-14.995 60.719v-60.719h-24.577v60.719zm-70.272-38.495v16.271h30.672v-16.271zm211.809 16.271v-16.271h-30.673v16.271zm82.999 362.3h-115.94v59.33h115.94zm-130.935 0h-115.938v59.33h115.938zm-130.934 0c-38.637 0-77.302 0-115.938 0v59.33h115.938zm196.415-14.995v-59.33h-115.937v59.33zm-130.934-59.329h-115.938v59.33h115.938zm80.448-74.326v59.33h115.94v-59.33c-38.638 0-77.274 0-115.94 0zm-130.933 0v59.33h115.938v-59.33zm246.873 74.326h-50.458v59.33h50.458zm-327.35 0h-50.457v59.33h50.457zm-50.457-74.326v59.33h115.938v-59.33c-38.636 0-77.301 0-115.938 0z"/></g></svg>