<svg id="Line" enable-background="new 0 0 128 128" height="512" viewBox="0 0 128 128" width="512" xmlns="http://www.w3.org/2000/svg"><g><path d="m77.733 78.98c.07 0 .141 0 .21-.001 10.062-.064 20.549-4.904 28.77-13.279 8.629-8.792 13.471-19.745 13.284-30.053-.139-7.656-3.013-14.355-8.311-19.374-13.353-12.65-34.128-10.535-49.4 5.027-15.655 15.955-17.754 36.734-4.991 49.41 5.452 5.413 12.514 8.27 20.438 8.27zm-21.616-12.683 1.883-1.883 5.086 5.086-1.935 1.935c-.849-.66-1.668-1.371-2.447-2.144-.955-.949-1.81-1.953-2.587-2.994zm46.387-49.215-5.004 5.004-5.086-5.086 4.849-4.849zm-3.27-5.824c2.186.66 4.293 1.595 6.287 2.807l-1.602 1.602zm-33.32 58.242 5.086-5.086 5.086 5.086-5.086 5.086zm3.381 6.209c-2.307-.727-4.487-1.755-6.502-3.087l1.708-1.708zm-4.295-31.295 5.086 5.086-5.586 5.586-5.086-5.086zm-7 4.172-5.086-5.086 5.586-5.586 5.086 5.086zm59.501-17.673c.296 1.538.467 3.129.497 4.771.038 2.095-.158 4.221-.55 6.35l-5.534-5.534zm-1.415 12.587-5.086 5.086-5.586-5.586 5.086-5.086zm-12.086-1.914-5.086-5.086 5.086-5.086 5.086 5.086zm-31.086 7.914 5.086-5.086 5.086 5.086-5.086 5.086zm3.672 6.5-5.586 5.586-5.086-5.086 5.586-5.586zm2.828-13 5.086-5.086 5.086 5.086-5.086 5.086zm5.086 7.914 5.086 5.086-5.086 5.086-5.086-5.086zm1.414-1.414 5.086-5.086 5.086 5.086-5.086 5.086zm6.5-6.5 5.086-5.086 5.086 5.086-5.086 5.086zm5.086-7.914-5.086-5.086 5.086-5.086 5.086 5.086zm-1.414 1.414-5.086 5.086-5.086-5.086 5.086-5.086zm-11.586-1.414-5.086-5.086 5.086-5.086 5.086 5.086zm-1.414 1.414-5.086 5.086-5.086-5.086 5.086-5.086zm-6.5 6.5-5.086 5.086-5.086-5.086 5.086-5.086zm-13.5 13.5-5.086 5.086-5.086-5.086 5.086-5.086zm1.414 1.414 5.086 5.086-5.086 5.086-5.086-5.086zm7.914 5.086 5.586-5.586 5.086 5.086-5.586 5.586zm12.086.914 5.586 5.586-5.586 5.586-5.586-5.586zm7 7 2.054 2.054c-2.226 1.131-4.506 2.039-6.808 2.7zm1.414-1.414 5.086-5.086 3.41 3.41c-1.928 1.573-3.942 2.965-6.018 4.154zm-1.414-1.414-5.586-5.586 5.086-5.086 5.586 5.586zm.914-12.086 5.086-5.086 5.586 5.586-5.086 5.086zm6.5-6.5 5.086-5.086 5.586 5.586-5.086 5.086zm12.086 1.914 2.237 2.237c-1.15 2.104-2.497 4.161-4.029 6.143l-3.294-3.294zm1.414-1.414 4.09-4.09c-.598 1.976-1.368 3.941-2.306 5.875zm3.483-20.311-5.397 5.397-5.086-5.086 5.243-5.243zm-3.825-6.347 1.634-1.634c1.248 1.829 2.231 3.818 2.94 5.938zm-8.072 5.244-5.086-5.086 5.046-5.046 5.24 4.932zm-7.914-5.086-5.086 5.086-5.086-5.086 5.086-5.086zm-11.586-1.414-5.086-5.086 5.086-5.086 5.086 5.086zm-6.5-6.5-1.914-1.914c2.05-.997 4.127-1.799 6.212-2.384zm-1.414 1.414-5.086 5.086-3.368-3.368c1.975-1.573 4.013-2.932 6.092-4.08zm1.414 1.414 5.086 5.086-5.086 5.086-5.086-5.086zm-1.414 11.586-5.086 5.086-5.086-5.086 5.086-5.086zm-6.5 6.5-5.086 5.086-5.086-5.086 5.086-5.086zm-11.586-1.414-2.413-2.413c1.178-2.05 2.557-4.069 4.135-6.036l3.364 3.363zm-1.414 1.414-4.698 4.698c.666-2.238 1.567-4.479 2.701-6.695zm-5.583 8.417 5.083 5.083-5.086 5.086-.124-.124-.03.03c-.524-3.241-.465-6.635.157-10.075zm5.083 18.083-1.625 1.625c-1.19-1.892-2.105-3.906-2.758-6.007zm21.345 13.979c-1.685.011-3.327-.123-4.924-.387l-.593-.592 5.086-5.086 5.593 5.593c-1.725.298-3.45.462-5.162.472zm27.355-12.68c-.762.777-1.55 1.511-2.35 2.223l-3.522-3.522 5.086-5.086 3.447 3.447c-.842 1.002-1.725 1.985-2.661 2.938zm7.21-44.209-1.88 1.88-5.24-4.932 1.853-1.853c1.068.762 2.098 1.606 3.084 2.54.788.748 1.512 1.54 2.183 2.365zm-21.485-10.034c1.479 0 2.943.116 4.385.336l.411.387-4.807 4.807-5.086-5.086.018-.018c1.703-.28 3.4-.426 5.079-.426zm-27.297 12.644c.937-.955 1.898-1.85 2.874-2.698l3.498 3.498-5.086 5.086-3.489-3.489c.702-.809 1.431-1.61 2.203-2.397z"/><path d="m103 87c-11.028 0-20 8.972-20 20s8.972 20 20 20 20-8.972 20-20-8.972-20-20-20zm0 38c-9.925 0-18-8.075-18-18s8.075-18 18-18 18 8.075 18 18-8.075 18-18 18z"/><path d="m113.356 97.224c-2.893 2.435-6.571 3.776-10.356 3.776-3.786 0-7.463-1.341-10.356-3.776-.422-.355-1.054-.301-1.409.121-.355.423-.301 1.053.121 1.409 3.253 2.738 7.388 4.246 11.644 4.246s8.391-1.508 11.644-4.246c.422-.356.477-.986.121-1.409s-.988-.477-1.409-.121z"/><path d="m103 110.989c-4.256 0-8.392 1.508-11.645 4.246-.422.356-.477.986-.121 1.409.355.422.986.476 1.409.121 2.893-2.435 6.571-3.776 10.356-3.776s7.463 1.341 10.356 3.776c.188.158.416.235.644.235.285 0 .568-.121.766-.356.355-.423.301-1.053-.121-1.409-3.253-2.738-7.388-4.246-11.644-4.246z"/><path d="m78.351 86.064c11.378-.166 23.333-5.322 33.379-15.284 9.717-9.637 15.283-22.147 15.271-34.324-.009-9.817-3.571-18.521-10.299-25.167-6.83-6.748-16.041-10.401-26.057-10.269-12.063.152-24.25 5.715-33.436 15.261-11.504 11.956-16.567 26.569-14.847 39.487-.831 4.891-2.901 13.93-7.592 21.647l-.036-.036c-1.262-1.471-2.786-2.281-4.407-2.345-1.747-.05-3.475.717-5.033 2.27-1.521 1.516-2.293 3.103-2.295 4.716-.001 1.624.779 3.229 2.319 4.769l1.588 1.588-24.588 22.891c-.029.028-.058.057-.083.088-1.657 1.969-1.652 5.379.058 7.351l7.029 7.028c.916.844 2.24 1.268 3.594 1.268 1.325 0 2.679-.406 3.705-1.219.03-.024.059-.049.086-.077l23.766-23.766 1.796 1.796c.039.039.08.074.125.106 1.133.812 2.336 1.15 3.502 1.15 1.925 0 3.748-.923 4.981-2.167 1.965-1.982 3.015-5.247 1.05-8.168 10.319-6.56 23.149-8.256 26.424-8.594zm-31.052 3.876c4.29-2.981 9.428-5.378 15.315-7.117 2.505 1.147 5.117 1.982 7.798 2.522-5.687 1.239-13.287 3.564-19.875 7.833zm5.004-14.223c2.402 2.337 5.013 4.265 7.774 5.808-5.407 1.779-10.174 4.123-14.214 6.98l-4.937-4.936c2.679-3.928 4.89-8.52 6.582-13.696 1.348 2.08 2.941 4.04 4.795 5.844zm6.348-58.05c8.817-9.163 20.488-14.501 32.02-14.647.158-.002.316-.003.474-.003 9.252 0 17.813 3.433 24.152 9.695 6.339 6.263 9.695 14.475 9.704 23.747.011 11.646-5.339 23.638-14.68 32.902-9.594 9.515-20.981 14.471-31.807 14.683-.009.001-.017-.004-.025-.003-.01.001-.024.002-.035.003-9.127.164-17.852-3.041-24.757-9.761-14.579-14.189-12.45-38.528 4.954-56.616zm-15.261 43.103c.667 2.354 1.586 4.623 2.749 6.783-1.652 5.555-3.89 10.447-6.653 14.576l-3.262-3.261c3.76-6.036 5.942-12.881 7.166-18.098zm-28.053 63.479c-1.299.99-3.588 1.003-4.63.044l-6.951-6.947c-.998-1.153-1.005-3.441-.026-4.659l24.593-22.896 10.737 10.736zm34.12-22.832c-1.436 1.447-3.788 2.26-5.834.844l-16.89-16.887c-1.151-1.151-1.734-2.279-1.733-3.353.001-1.063.575-2.173 1.707-3.301 1.153-1.15 2.376-1.726 3.542-1.688 1.066.042 2.064.596 3.019 1.705l16.942 16.942c1.516 2.144.547 4.426-.753 5.738z"/></g></svg>