<svg id="Layer_2" enable-background="new 0 0 500 500" viewBox="0 0 500 500" xmlns="http://www.w3.org/2000/svg"><g style="fill:none;stroke:#474747;stroke-linecap:round;stroke-linejoin:round;stroke-miterlimit:10;stroke-width:15"><g><ellipse cx="398.891" cy="152.639" rx="28.461" ry="28.461" transform="matrix(.952 -.308 .308 .952 -27.616 130.17)"/><path d="m465.528 154.583-30.797 49.526-107.469-49.377c-7.574-3.244-16.386-.807-21.217 5.867l-37.331 51.573c-5.708 7.886-3.943 18.905 3.943 24.613 7.886 5.707 18.905 3.943 24.613-3.943l29.068-40.158 24.011 10.284-30.412 56.165c-6.501 12.005-4.189 26.514 4.9 35.925l5.6 4.566c.122.078.24.16.363.237l-.026.039 53.247 43.423c.504.411.927.883 1.271 1.396l1.98 1.63 46.252 63.347c3.451 4.728 8.813 7.234 14.25 7.234 3.605 0 7.244-1.103 10.379-3.392 7.862-5.74 9.582-16.767 3.842-24.629l-47.565-65.146c-.872-1.195-1.892-2.275-3.033-3.215l-35.144-28.929 8.28-14.353c.609-1.055 1.096-2.147 1.466-3.26l22.547-43.491 25.9 12.74c2.5 1.23 5.153 1.813 7.768 1.813 6.3 0 12.378-3.389 15.548-9.303l8.739-12.418"/><path d="m330.799 299.861-15.958 24.178-44.53-29.644c-7.725-5.925-18.789-4.465-24.713 3.258-5.924 7.724-4.466 18.788 3.258 24.713l60.48 41.878c3.103 2.38 6.88 3.64 10.728 3.64 1.147 0 2.3-.112 3.443-.339 4.979-.992 9.287-4.082 11.824-8.479l22.615-34.719"/></g><g><path d="m78.955 441s-54.633-12.803-54.633-72.655c0-55.217 58.373-73.188 70.339-115.072s-11.009-78.581-11.009-78.581 50.648 16.504 67.102 68.858-30.479 58.826-11.967 87.506c12.467 19.314 53.632 1.153 43.946-38.802 0 0 75.066 86.568-8.475 148.745"/><path d="m107.792 441s-28.075-20.612-4.492-39.571c14.201-11.417 15.074-23.849 6.09-39.571 28.723 5.188 66.344 42.247 30.969 79.143"/></g><path d="m190.5 260v-231.5h276v443h-433.5"/></g></svg>