<svg id="_x33_0" enable-background="new 0 0 64 64" height="512" viewBox="0 0 64 64" width="512" xmlns="http://www.w3.org/2000/svg"><g><path d="m5 5h2v2h-2z"/><path d="m9 5h2v2h-2z"/><path d="m13 5h2v2h-2z"/><path d="m3 11h4.586l3.293 3.293c.456.456 1.062.707 1.707.707 1.331 0 2.414-1.083 2.414-2.414v-1.586h2c1.103 0 2-.897 2-2v-6c0-1.103-.897-2-2-2h-14c-1.103 0-2 .897-2 2v6c0 1.103.897 2 2 2zm0-8h14l.001 6h-4.001v3.586c0 .338-.468.531-.707.293l-3.879-3.879h-5.414z"/><path d="m57 5h2v2h-2z"/><path d="m53 5h2v2h-2z"/><path d="m39 5h12v2h-12z"/><path d="m61 1h-34c-1.103 0-2 .897-2 2v6c0 1.103.897 2 2 2h4.586l3.293 3.293c.456.456 1.062.707 1.707.707 1.331 0 2.414-1.083 2.414-2.414v-1.586h8v1.586c0 1.331 1.083 2.414 2.414 2.414.645 0 1.251-.251 1.707-.707l3.293-3.293h6.586c1.103 0 2-.897 2-2v-6c0-1.103-.897-2-2-2zm-7.414 8-3.879 3.879c-.238.238-.707.045-.707-.293v-3.586h-12v3.586c0 .338-.469.531-.707.293l-3.879-3.879h-5.414v-6h34l.001 6z"/><path d="m30 5h7v2h-7z"/><path d="m61 56c0-1.545-1.178-2.806-2.681-2.968-.663-1.409-1.756-2.54-3.101-3.239 1.081-.917 1.782-2.268 1.782-3.793 0-2.757-2.243-5-5-5s-5 2.243-5 5c0 1.525.701 2.876 1.781 3.794-1.344.698-2.438 1.829-3.101 3.239-1.502.161-2.68 1.422-2.68 2.967v5h-2v-5c0-1.545-1.178-2.806-2.681-2.968-.663-1.409-1.756-2.54-3.101-3.239 1.081-.917 1.782-2.268 1.782-3.793 0-2.757-2.243-5-5-5s-5 2.243-5 5c0 1.525.701 2.876 1.781 3.794-1.344.698-2.438 1.829-3.101 3.239-1.502.161-2.68 1.422-2.68 2.967v5h-2v-5c0-1.545-1.178-2.806-2.681-2.968-.663-1.409-1.756-2.54-3.101-3.239 1.081-.917 1.782-2.268 1.782-3.793 0-2.757-2.243-5-5-5s-5 2.243-5 5c0 1.525.701 2.876 1.781 3.794-1.344.698-2.438 1.829-3.101 3.239-1.502.161-2.68 1.422-2.68 2.967v5h-2v2h62v-2h-2zm-12-10c0-1.654 1.346-3 3-3s3 1.346 3 3-1.346 3-3 3-3-1.346-3-3zm3 5c1.599 0 3.07.766 3.998 2h-7.996c.928-1.234 2.399-2 3.998-2zm-7 5c0-.551.449-1 1-1h12c.551 0 1 .449 1 1v5h-14zm-16-10c0-1.654 1.346-3 3-3s3 1.346 3 3-1.346 3-3 3-3-1.346-3-3zm3 5c1.599 0 3.07.766 3.998 2h-7.996c.928-1.234 2.399-2 3.998-2zm-7 5c0-.551.449-1 1-1h12c.551 0 1 .449 1 1v5h-14zm-16-10c0-1.654 1.346-3 3-3s3 1.346 3 3-1.346 3-3 3-3-1.346-3-3zm3 5c1.599 0 3.07.766 3.998 2h-7.996c.928-1.234 2.399-2 3.998-2zm-7 5c0-.551.449-1 1-1h12c.551 0 1 .449 1 1v5h-14z"/><path d="m61 31v-5c0-1.654-1.346-3-3-3h-1.101c.066-.323.101-.658.101-1 0-2.757-2.243-5-5-5s-5 2.243-5 5c0 .342.035.677.101 1h-1.101c-1.654 0-3 1.346-3 3v5h-2v-5c0-1.654-1.346-3-3-3h-1.101c.066-.323.101-.658.101-1 0-2.757-2.243-5-5-5s-5 2.243-5 5c0 .342.035.677.101 1h-1.101c-1.654 0-3 1.346-3 3v5h-2v-5c0-1.654-1.346-3-3-3h-1.101c.066-.323.101-.658.101-1 0-2.757-2.243-5-5-5s-5 2.243-5 5c0 .342.035.677.101 1h-1.101c-1.654 0-3 1.346-3 3v5c-1.103 0-2 .897-2 2v20h2v-20h58v20h2v-20c0-1.103-.897-2-2-2zm-3-6c.551 0 1 .449 1 1v5h-.08c-.327-2.269-1.74-4.188-3.699-5.208.279-.237.532-.499.753-.792zm-1.101 6h-9.798c.465-2.279 2.484-4 4.899-4s4.434 1.721 4.899 4zm-4.899-12c1.654 0 3 1.346 3 3s-1.346 3-3 3-3-1.346-3-3 1.346-3 3-3zm-7 7c0-.551.449-1 1-1h2.026c.221.292.474.555.753.792-1.959 1.021-3.372 2.94-3.699 5.208h-.08zm-7-1c.551 0 1 .449 1 1v5h-.08c-.327-2.269-1.74-4.188-3.699-5.208.279-.237.532-.499.753-.792zm-1.101 6h-9.798c.465-2.279 2.484-4 4.899-4s4.434 1.721 4.899 4zm-4.899-12c1.654 0 3 1.346 3 3s-1.346 3-3 3-3-1.346-3-3 1.346-3 3-3zm-7 7c0-.551.449-1 1-1h2.026c.221.292.474.555.753.792-1.959 1.021-3.372 2.94-3.699 5.208h-.08zm-7-1c.551 0 1 .449 1 1v5h-.08c-.327-2.269-1.74-4.188-3.699-5.208.279-.237.532-.499.753-.792zm-1.101 6h-9.798c.465-2.279 2.484-4 4.899-4s4.434 1.721 4.899 4zm-4.899-12c1.654 0 3 1.346 3 3s-1.346 3-3 3-3-1.346-3-3 1.346-3 3-3zm-7 7c0-.551.449-1 1-1h2.026c.221.292.474.555.753.792-1.959 1.021-3.372 2.939-3.699 5.208h-.08z"/></g></svg>