<svg id="Layer_1" enable-background="new 0 0 492 492" viewBox="0 0 492 492" xmlns="http://www.w3.org/2000/svg"><g><g><path d="m379.83 323.96h-267.14c-3.18 0-5.76-2.58-5.76-5.76v-172.96c0-3.18 2.58-5.76 5.76-5.76h267.15c3.18 0 5.76 2.58 5.76 5.76v172.96c-.01 3.18-2.58 5.76-5.77 5.76zm-261.38-11.52h255.63v-161.44h-255.63z"/></g><g><path d="m400.03 151h-75.44c-1.75 0-3.41-.8-4.5-2.17l-56.69-71.04c-1.38-1.73-1.65-4.1-.69-6.09s2.98-3.26 5.19-3.26h67.57c1.62 0 3.17.68 4.26 1.89l64.55 71.05c1.53 1.69 1.93 4.12 1 6.2-.91 2.08-2.97 3.42-5.25 3.42zm-72.67-11.52h59.65l-54.09-59.53h-53.06zm-159.43 11.52h-75.44c-2.28 0-4.34-1.34-5.27-3.43-.92-2.08-.53-4.52 1-6.2l64.56-71.05c1.09-1.2 2.64-1.89 4.26-1.89h67.57c2.21 0 4.23 1.27 5.19 3.26s.69 4.36-.69 6.09l-56.68 71.05c-1.09 1.38-2.74 2.17-4.5 2.17zm-62.42-11.52h59.65l47.49-59.53h-53.05z"/></g><g><path d="m324.59 151h-156.66c-2.21 0-4.23-1.27-5.19-3.26s-.69-4.36.69-6.09l78.33-98.17c1.09-1.37 2.75-2.17 4.5-2.17s3.41.8 4.5 2.17l78.33 98.17c1.38 1.73 1.65 4.1.69 6.09-.96 2-2.98 3.26-5.19 3.26zm-144.69-11.52h132.72l-66.36-83.17z"/></g><g><path d="m246.26 130.68c-13.41 0-24.31-10.91-24.31-24.31 0-13.41 10.91-24.31 24.31-24.31 13.41 0 24.31 10.91 24.31 24.31s-10.9 24.31-24.31 24.31zm0-37.11c-7.05 0-12.79 5.74-12.79 12.79s5.74 12.79 12.79 12.79 12.79-5.74 12.79-12.79-5.74-12.79-12.79-12.79z"/></g><g><path d="m400.4 347.72h-308.28c-3.18 0-5.76-2.58-5.76-5.76v-23.76c0-3.18 2.58-5.76 5.76-5.76h308.28c3.18 0 5.76 2.58 5.76 5.76v23.76c0 3.18-2.58 5.76-5.76 5.76zm-302.52-11.52h296.75v-12.24h-296.75z"/></g><g><path d="m275.33 323.96h-58.15c-3.18 0-5.76-2.58-5.76-5.76v-78.1c0-11.19 9.1-20.3 20.3-20.3h29.08c11.19 0 20.3 9.1 20.3 20.3v78.1c-.01 3.18-2.58 5.76-5.77 5.76zm-52.39-11.52h46.63v-72.34c0-4.84-3.94-8.78-8.78-8.78h-29.08c-4.84 0-8.78 3.94-8.78 8.78v72.34z"/></g><g><path d="m192.34 277h-60.13c-3.18 0-5.76-2.58-5.76-5.76v-48.67c0-3.18 2.58-5.76 5.76-5.76h60.13c3.18 0 5.76 2.58 5.76 5.76v48.67c0 3.18-2.58 5.76-5.76 5.76zm-54.37-11.52h48.61v-37.15h-48.61z"/></g><g><path d="m162.28 277c-3.18 0-5.76-2.58-5.76-5.76v-48.67c0-3.18 2.58-5.76 5.76-5.76s5.76 2.58 5.76 5.76v48.67c0 3.18-2.58 5.76-5.76 5.76z"/></g><g><path d="m359.66 278.71h-60.13c-3.18 0-5.76-2.58-5.76-5.76v-48.67c0-3.18 2.58-5.76 5.76-5.76h60.13c3.18 0 5.76 2.58 5.76 5.76v48.67c0 3.18-2.58 5.76-5.76 5.76zm-54.37-11.52h48.61v-37.15h-48.61z"/></g><g><path d="m329.6 278.71c-3.18 0-5.76-2.58-5.76-5.76v-48.67c0-3.18 2.58-5.76 5.76-5.76s5.76 2.58 5.76 5.76v48.67c0 3.18-2.58 5.76-5.76 5.76z"/></g><g><path d="m192.34 255.67h-60.13c-3.18 0-5.76-2.58-5.76-5.76s2.58-5.76 5.76-5.76h60.13c3.18 0 5.76 2.58 5.76 5.76s-2.58 5.76-5.76 5.76z"/></g><g><path d="m359.66 257.38h-60.13c-3.18 0-5.76-2.58-5.76-5.76s2.58-5.76 5.76-5.76h60.13c3.18 0 5.76 2.58 5.76 5.76s-2.58 5.76-5.76 5.76z"/></g><g><path d="m443.28 347.72h-394.04c-3.18 0-5.76-2.58-5.76-5.76s2.58-5.76 5.76-5.76h394.04c3.18 0 5.76 2.58 5.76 5.76s-2.58 5.76-5.76 5.76z"/></g><g><path d="m200.11 390.6c-18.58 0-35.2-3.46-51.52-6.86-30.01-6.25-58.35-12.15-97.59 3.21-2.96 1.16-6.3-.3-7.46-3.27-1.16-2.96.3-6.3 3.26-7.46 42.43-16.6 73.8-10.07 104.14-3.75 28.86 6.01 56.11 11.68 93.5-.84 40.34-13.51 70.42-7.25 99.51-1.19 30.01 6.25 58.35 12.15 97.59-3.21 2.97-1.16 6.3.3 7.46 3.27s-.3 6.3-3.27 7.46c-42.43 16.6-73.8 10.07-104.14 3.75-28.86-6.01-56.11-11.68-93.5.84-17.71 5.93-33.45 8.05-47.98 8.05z"/></g><g><path d="m200.11 421.39c-18.58 0-35.2-3.46-51.52-6.86-30.01-6.25-58.35-12.15-97.59 3.21-2.96 1.16-6.3-.3-7.46-3.27-1.16-2.96.3-6.3 3.26-7.46 42.43-16.6 73.8-10.07 104.14-3.75 28.86 6.01 56.11 11.68 93.5-.84 40.34-13.51 70.42-7.25 99.51-1.19 30.01 6.25 58.35 12.15 97.59-3.21 2.97-1.16 6.3.3 7.46 3.27s-.3 6.3-3.27 7.46c-42.43 16.6-73.8 10.07-104.14 3.75-28.86-6.01-56.11-11.68-93.5.84-17.71 5.93-33.45 8.05-47.98 8.05z"/></g><g><path d="m200.11 452.17c-18.58 0-35.2-3.46-51.52-6.86-30.01-6.25-58.35-12.15-97.59 3.21-2.96 1.16-6.3-.3-7.46-3.27-1.16-2.96.3-6.3 3.26-7.46 42.43-16.6 73.8-10.07 104.14-3.75 28.86 6.01 56.11 11.68 93.5-.84 40.34-13.51 70.42-7.25 99.51-1.19 30.01 6.25 58.35 12.15 97.59-3.2 2.97-1.16 6.3.3 7.46 3.27s-.3 6.3-3.27 7.46c-42.43 16.6-73.8 10.07-104.14 3.75-28.86-6.01-56.11-11.68-93.5.84-17.71 5.92-33.45 8.04-47.98 8.04z"/></g><g><path d="m434.5 324.75c-18.48 0-33.51-15.03-33.51-33.51 0-8.9 3.6-17.45 9.81-23.69-1.11-2.86-1.68-5.91-1.68-9.03 0-13.78 11.21-24.99 24.99-24.99s24.99 11.21 24.99 24.99c0 2.9-.5 5.76-1.47 8.45 6.58 6.28 10.39 15.04 10.39 24.26 0 18.48-15.03 33.52-33.52 33.52zm-.39-79.7c-7.43 0-13.47 6.04-13.47 13.47 0 2.6.74 5.13 2.15 7.3 1.65 2.55 1.04 5.94-1.4 7.75-5.64 4.2-8.88 10.64-8.88 17.66 0 12.13 9.87 22 22 22s22-9.87 22-22c0-7.13-3.48-13.85-9.31-17.97-2.48-1.75-3.17-5.13-1.58-7.71 1.29-2.11 1.98-4.54 1.98-7.03-.02-7.43-6.06-13.47-13.49-13.47z"/></g><g><path d="m434.5 347.72c-3.18 0-5.76-2.58-5.76-5.76v-62.82c0-3.18 2.58-5.76 5.76-5.76s5.76 2.58 5.76 5.76v62.82c0 3.18-2.57 5.76-5.76 5.76z"/></g><g><path d="m434.51 296.95c-1.52 0-3.04-.6-4.17-1.79-2.19-2.31-2.1-5.95.2-8.14l10.61-10.09c2.31-2.19 5.95-2.1 8.14.2 2.19 2.31 2.1 5.95-.2 8.14l-10.61 10.09c-1.12 1.07-2.55 1.59-3.97 1.59z"/></g><g><path d="m434.5 309.09c-1.43 0-2.85-.53-3.97-1.59l-10.61-10.09c-2.3-2.19-2.4-5.84-.2-8.14 2.19-2.3 5.84-2.4 8.14-.2l10.61 10.09c2.3 2.19 2.4 5.84.2 8.14-1.12 1.2-2.64 1.79-4.17 1.79z"/></g><g><path d="m58.02 324.75c-18.48 0-33.51-15.03-33.51-33.51 0-8.9 3.6-17.45 9.81-23.69-1.11-2.86-1.68-5.91-1.68-9.03 0-13.78 11.21-24.99 24.99-24.99s24.99 11.21 24.99 24.99c0 2.9-.5 5.76-1.47 8.45 6.58 6.28 10.39 15.04 10.39 24.26-.01 18.48-15.04 33.52-33.52 33.52zm-.4-79.7c-7.43 0-13.47 6.04-13.47 13.47 0 2.6.74 5.13 2.15 7.3 1.65 2.55 1.04 5.94-1.4 7.75-5.64 4.2-8.88 10.64-8.88 17.66 0 12.13 9.87 22 22 22s22-9.87 22-22c0-7.13-3.48-13.85-9.31-17.97-2.48-1.75-3.17-5.13-1.58-7.71 1.29-2.11 1.98-4.54 1.98-7.03-.02-7.43-6.06-13.47-13.49-13.47z"/></g><g><path d="m58.02 347.72c-3.18 0-5.76-2.58-5.76-5.76v-62.82c0-3.18 2.58-5.76 5.76-5.76s5.76 2.58 5.76 5.76v62.82c-.01 3.18-2.58 5.76-5.76 5.76z"/></g><g><path d="m58.02 296.95c-1.52 0-3.04-.6-4.17-1.79-2.19-2.31-2.1-5.95.2-8.14l10.61-10.09c2.31-2.19 5.95-2.1 8.14.2 2.19 2.31 2.1 5.95-.2 8.14l-10.61 10.09c-1.12 1.07-2.55 1.59-3.97 1.59z"/></g><g><path d="m58.01 309.09c-1.43 0-2.85-.53-3.97-1.59l-10.61-10.09c-2.3-2.19-2.4-5.84-.2-8.14 2.19-2.3 5.84-2.39 8.14-.2l10.61 10.09c2.3 2.19 2.4 5.84.2 8.14-1.12 1.2-2.64 1.79-4.17 1.79z"/></g></g></svg>