<svg id="Layer_1" enable-background="new 0 0 512 512" height="512" viewBox="0 0 512 512" width="512" xmlns="http://www.w3.org/2000/svg"><path d="m223.118 292.028h-48.047v-48.075c0-3.867-3.135-7.002-7.002-7.002h-44.73c-3.867 0-7.002 3.135-7.002 7.002v48.075h-48.075c-3.867 0-7.002 3.135-7.002 7.002v44.73c0 3.867 3.135 7.002 7.002 7.002h48.075v48.047c0 3.867 3.135 7.002 7.002 7.002h44.73c3.867 0 7.002-3.135 7.002-7.002v-48.047h48.047c3.867 0 7.002-3.135 7.002-7.002v-44.73c0-3.867-3.135-7.002-7.002-7.002zm-7.002 44.731h-48.047c-3.867 0-7.002 3.135-7.002 7.002v48.047h-30.727v-48.047c0-3.867-3.135-7.002-7.002-7.002h-48.074v-30.727h48.075c3.867 0 7.002-3.135 7.002-7.002v-48.075h30.727v48.075c0 3.867 3.135 7.002 7.002 7.002h48.047v30.727zm242.249 67.663h-126.715l21.634-37.464c14.768-25.613 5.95-58.487-19.655-73.282-.001 0-.002-.001-.003-.001-13.297-7.676-28.552-8.97-42.221-4.864v-94.067c0-2.138-.978-4.159-2.653-5.487l-56.251-44.584v-63.46c12.675-.835 22.734-11.408 22.734-24.29v-32.287c0-13.41-10.924-24.321-24.351-24.321h-170.362c-13.426 0-24.35 10.911-24.35 24.321v32.287c0 12.873 10.044 23.438 22.705 24.288v63.462l-56.223 44.584c-1.675 1.328-2.651 3.349-2.651 5.486v251.377c0 34.84 28.345 63.185 63.185 63.185h165.005c7.101 0 14.049-1.188 20.676-3.504 13.146-1.751 25.517-8.348 34.314-18.995 9.697 15.262 26.602 24.88 45.242 24.88h129.94c29.572 0 53.632-24.06 53.632-53.632s-24.059-53.632-53.632-53.632zm-151.459-103.912c6.71 0 13.505 1.705 19.72 5.292 18.923 10.937 25.44 35.233 14.529 54.158l-28.979 50.182-68.659-39.63 28.977-50.178c7.343-12.709 20.702-19.824 34.412-19.824zm-46.538 12.82-64.797 112.21h-181.564v-208.317h263.395v78.102c-6.802 4.449-12.697 10.5-17.034 18.005zm-41.871-211.733h-145.615v-20.325h145.615zm-168.32-44.674v-32.287c0-5.689 4.641-10.317 10.346-10.317h170.362c5.705 0 10.347 4.628 10.347 10.317v32.287c0 5.705-4.642 10.346-10.347 10.346h-170.363c-5.705 0-10.345-4.641-10.345-10.346zm20.053 96.62c1.675-1.328 2.651-3.349 2.651-5.486v-32.456h145.615v32.456c0 2.138.978 4.159 2.653 5.487l56.251 44.584v5.091h-263.393v-5.092zm-56.223 292.577v-6.576h175.851c-5.161 20.526 2.289 42.668 19.489 55.757h-146.159c-27.119 0-49.181-22.063-49.181-49.181zm208.019 40.85c-18.91-10.917-25.415-35.201-14.501-54.13l28.99-50.202 68.659 39.63-28.988 50.198c-10.939 18.932-35.233 25.437-54.16 14.504zm69.845-13.662 31.693-54.882h62.83v79.256h-57.969c-16.064 0-30.391-9.676-36.554-24.374zm166.494 24.374h-57.968v-79.256h57.968c21.852 0 39.628 17.776 39.628 39.628s-17.776 39.628-39.628 39.628zm-385.483-444.132h-14.004v-25.512h14.004zm31.947 0h-14.004v-25.512h14.004zm31.918 0h-14.004v-25.512h14.004zm31.918 0h-14.004v-25.512h14.004zm31.918 0h-14.004v-25.512h14.004zm31.918 0h-14.004v-25.512h14.004z"/></svg>