<?xml version="1.0" encoding="UTF-8"?>
<svg xmlns="http://www.w3.org/2000/svg" id="Line_Expand" data-name="Line Expand" viewBox="0 0 64 64" width="512" height="512"><path d="M31,58H43a1,1,0,0,0,1-1V41a1,1,0,0,0-1-1H31a1,1,0,0,0-1,1V57A1,1,0,0,0,31,58Zm1-16H42v4H32Zm0,6H42v8H32Z"/><path d="M63,10a1,1,0,0,0,1-1V1a1,1,0,0,0-1-1H27a1,1,0,0,0-1,1V9a1,1,0,0,0,1,1h1v2.06A8.26,8.26,0,0,0,27,12H21V10a1,1,0,0,0-1-1H19V5a1,1,0,0,0-2,0V9H16a1,1,0,0,0-1,1v2H9a9,9,0,1,0,7.83,13.43h2.34A9.05,9.05,0,0,0,27,30a8.26,8.26,0,0,0,1-.06V36H27a1,1,0,0,0-1,1V63a1,1,0,0,0,1,1H63a1,1,0,0,0,1-1V37a1,1,0,0,0-1-1H62V10ZM17,11h2v1H17ZM27,28a7,7,0,0,1-6.32-4,1,1,0,0,0-.9-.57H16.22a1,1,0,0,0-.9.57A7,7,0,1,1,9,14H27a7,7,0,0,1,0,14Zm13-9.17,3,2a1,1,0,1,0,1.1-1.66L41.5,17.46V16h7v1.46L46,19.17a1,1,0,0,0,1.1,1.66l3-2A1,1,0,0,0,50.5,18V15a1,1,0,0,0-1-1H46V10H60V29a4.92,4.92,0,0,0-3-1,5,5,0,0,0-4.91,4.13,4.87,4.87,0,0,0-4.88,1.65A7,7,0,0,0,35.5,32.69,4.88,4.88,0,0,0,30,33V29.47a9,9,0,0,0,0-16.94V10H44v4H40.5a1,1,0,0,0-1,1v3A1,1,0,0,0,40,18.83ZM60,33a3,3,0,0,1-3,3,2.78,2.78,0,0,1-1.19-.29A5,5,0,0,0,54,33v0a3,3,0,0,1,6,0Zm-6.18,3H48.18a3,3,0,0,1,5.64,0ZM45.9,36h-8A5,5,0,0,0,37,34a5,5,0,0,1,8.91,2ZM35.82,36H30.18a3,3,0,0,1,5.64,0ZM62,62H28V38H62ZM28,8V2H62V8Z"/><circle cx="24" cy="21" r="1"/><circle cx="30" cy="21" r="1"/><circle cx="27" cy="18" r="1"/><circle cx="27" cy="24" r="1"/><path d="M12,20H10V18a1,1,0,0,0-2,0v2H6a1,1,0,0,0,0,2H8v2a1,1,0,0,0,2,0V22h2a1,1,0,0,0,0-2Z"/><path d="M22,56H21V53a1,1,0,0,0-1-1H14l3-7.1A5,5,0,1,0,11,40a4.92,4.92,0,0,0,.79,2.67L7.84,52H3a1,1,0,0,0-1,1v3H1a1,1,0,0,0-1,1v6a1,1,0,0,0,1,1H22a1,1,0,0,0,1-1V57A1,1,0,0,0,22,56ZM16,37a3,3,0,1,1-3,3A3,3,0,0,1,16,37Zm-2.69,7.2a5,5,0,0,0,1.55.66l-3,7.14H10ZM4,54H19v2H4Zm17,8H2V58H21Z"/><path d="M47.5,4h-5a1,1,0,0,0,0,2h5a1,1,0,0,0,0-2Z"/><path d="M49,50a3,3,0,0,0,3-3V43a3,3,0,0,0-6,0v4A3,3,0,0,0,49,50Zm-1-7a1,1,0,0,1,2,0v4a1,1,0,0,1-2,0Z"/><path d="M57,50a3,3,0,0,0,3-3V43a3,3,0,0,0-6,0v4A3,3,0,0,0,57,50Zm-1-7a1,1,0,0,1,2,0v4a1,1,0,0,1-2,0Z"/></svg>
