<svg id="Layer_2" enable-background="new 0 0 512 512" viewBox="0 0 512 512" xmlns="http://www.w3.org/2000/svg"><g style="fill:none;stroke:#474747;stroke-linecap:round;stroke-linejoin:round;stroke-miterlimit:10;stroke-width:15"><g><path d="m359.511 306.62-322.5-47.589v-235h322.5z"/><path d="m359.511 489.62-322.5-67.589v-163l322.5 47.589z"/><path d="m479.011 458.62-119.5 31v-183l119.5-19z"/><path d="m479.011 287.62-119.5 19v-282.589h119.5z"/><path d="m37.011 259.031 82-17v-218"/><path d="m322.011 268.031 157 20"/><path d="m119.011 242.031 61.509 7.86"/></g><path d="m251.487 161.738c-12.972 0-23.488-10.516-23.488-23.488v-10.529c0-12.972 10.516-23.488 23.488-23.488 12.972 0 23.488 10.516 23.488 23.488v10.529c-.001 12.972-10.517 23.488-23.488 23.488z"/><path d="m204.511 240.031v-26.569c0-24.541 19.894-44.435 44.435-44.435h9.131c24.541 0 44.435 19.894 44.435 44.435v27.817c0 13.855-10.885 25.265-24.725 25.918l-43.485 1.25c-7.537.899-14.152-5.02-14.094-12.61.048-6.248 4.666-11.517 10.853-12.383l45.95-1.423v-23"/><path d="m229.011 219.031v23"/></g></svg>