<svg height="512" viewBox="0 0 96 96" width="512" xmlns="http://www.w3.org/2000/svg"><g id="Fire_Truck" data-name="Fire Truck"><path d="m10.94 52.1h13.65a3.31 3.31 0 0 0 3.31-3.31v-14.7a3.31 3.31 0 0 0 -3.31-3.31h-13.65a3.32 3.32 0 0 0 -3.32 3.31v14.7a3.32 3.32 0 0 0 3.32 3.31zm-1.32-18a1.3 1.3 0 0 1 1.32-1.31h13.65a1.3 1.3 0 0 1 1.31 1.31v14.7a1.31 1.31 0 0 1 -1.31 1.31h-13.65a1.31 1.31 0 0 1 -1.32-1.31z"/><path d="m13.2 41h9.13a1.47 1.47 0 0 0 1.48-1.48v-3.52a1.49 1.49 0 0 0 -1.48-1.5h-9.13a1.49 1.49 0 0 0 -1.48 1.5v3.52a1.47 1.47 0 0 0 1.48 1.48zm.52-4.5h8.09v2.5h-8.09z"/><path d="m25.15 63.1a4.47 4.47 0 1 0 4.47 4.48 4.48 4.48 0 0 0 -4.47-4.48zm0 6.94a2.47 2.47 0 1 1 2.47-2.46 2.48 2.48 0 0 1 -2.47 2.42z"/><path d="m77.3 63.1a4.47 4.47 0 1 0 4.47 4.48 4.48 4.48 0 0 0 -4.47-4.48zm0 6.94a2.47 2.47 0 1 1 2.47-2.46 2.47 2.47 0 0 1 -2.47 2.42z"/><path d="m93.76 63.1h-1.76c-1-20.47-.76-19.31-1.31-20.38l-6.26-12a3.91 3.91 0 0 0 -3.43-2.08h-6.8l-1-2.66a2.87 2.87 0 0 0 -2.66-1.8h-4.38a2.86 2.86 0 0 0 -2.85 2.82v1.6c-3.51 0-4.1-.13-5.11.44a3.35 3.35 0 0 0 -.3-.67 1 1 0 0 0 0-2h-7.83v-6h7.87a1 1 0 0 0 0-2h-55.5a1 1 0 0 0 0 2h7.87v6h-7.87a1 1 0 0 0 0 2h1.78a4 4 0 0 0 -.52 1.95v23.8a3.48 3.48 0 0 0 -1.95 3.12v5.88a2.25 2.25 0 0 0 -1.75 2.23v2.87a2.24 2.24 0 0 0 2.24 2.24h6.2a2.24 2.24 0 0 0 2.2-1.88h4.53a10 10 0 0 0 20 0h2.83a3.68 3.68 0 0 0 3.21 1.88h17.87a3.68 3.68 0 0 0 3.2-1.88h5a10 10 0 0 0 19.61 1.78c.43.13.18.1 6.83.1a2.24 2.24 0 0 0 2.28-2.24v-2.87a2.24 2.24 0 0 0 -2.24-2.25zm.24 5.12a.24.24 0 0 1 -.24.24h-6.2a.23.23 0 0 1 -.23-.24v-2.87a.24.24 0 0 1 .23-.25h6.2a.25.25 0 0 1 .24.25zm-4.3-11.83h-1.7a.23.23 0 0 1 -.21-.21c-.27-6-.28-5.53-.2-5.64s0-.07 1.83-.07c.03.24.01 0 .28 5.92zm-24.39-29.39a.86.86 0 0 1 .85-.86h4.32a.85.85 0 0 1 .79.54l.73 1.96h-6.69zm-5.4 3.6h21.09a1.93 1.93 0 0 1 1.71 1c6.8 13 6.45 12.16 6.47 12.79l.19 4h-1.61a2.22 2.22 0 0 0 -2.21 2.32l.25 5.49a2.22 2.22 0 0 0 2.2 2.19h1.8l.2 4.71c-2.51 0-2.92-.09-3.6.31a10 10 0 0 0 -19.1 3.17h-4.56a3.67 3.67 0 0 0 -3.66-3.48h-.66v-31a1.49 1.49 0 0 1 1.49-1.46zm-.91 37.86h-17.77a1.68 1.68 0 1 1 0-3.36h17.85a1.63 1.63 0 0 1 1.42.82 1.67 1.67 0 0 1 -1.5 2.54zm-33.85-10.92a10.07 10.07 0 0 0 -10 9h-4.5v-1.19a2.24 2.24 0 0 0 -2.21-2.25h-4.69v-5.82a1.46 1.46 0 0 1 1.46-1.46h28.33v1.57a1 1 0 0 0 2 0v-1.57h20.88v7.28h-15.19a3.69 3.69 0 0 0 -3.67 3.48h-2.43a10.07 10.07 0 0 0 -9.98-9.04zm22.92-31.13h-7.44v-6h7.44zm-9.44 0h-7.44v-6h7.44zm-9.44 0h-7.44v-6h7.44zm-9.44 0h-7.44v-6h7.44zm34.76 2a2 2 0 0 1 1.91 1.95v23.46h-20.88v-6.48a9.71 9.71 0 1 0 -2-5.91v12.39h-27.84v-23.46a2 2 0 0 1 1.91-1.95zm-19 13a7.71 7.71 0 1 1 7.71 7.72 7.71 7.71 0 0 1 -7.68-7.7zm-33.3 27a.24.24 0 0 1 -.21-.19v-2.87a.25.25 0 0 1 .24-.25h6.2a.24.24 0 0 1 .23.25v2.87a.23.23 0 0 1 -.23.24zm22.94 7.19a8 8 0 1 1 8-8 8 8 0 0 1 -8 8zm52.15 0a8 8 0 1 1 8-8 8 8 0 0 1 -8 8z"/><path d="m62.26 50.35h4.1a1.89 1.89 0 0 0 1.89-1.88v-14.06a1.89 1.89 0 0 0 -1.89-1.88h-4.1a1.88 1.88 0 0 0 -1.88 1.88v14.06a1.88 1.88 0 0 0 1.88 1.88zm.12-2v-2.63h3.87v2.63zm0-13.82h3.87v9.19h-3.87z"/><path d="m70.93 55a1 1 0 0 0 1-1v-8.3h11.48a2.71 2.71 0 0 0 2.4-4l-4.09-7.84a2.62 2.62 0 0 0 -2.31-1.39h-7.22a2.26 2.26 0 0 0 -2.26 2.26v19.27a1 1 0 0 0 1 1zm1-20.18a.26.26 0 0 1 .26-.26h7.22a.63.63 0 0 1 .54.32l4.05 7.8a.71.71 0 0 1 -.63 1h-11.18a.26.26 0 0 1 -.26-.26z"/><path d="m75.64 48.35h-1.21a1 1 0 0 0 0 2h1.21a1 1 0 0 0 0-2z"/><path d="m43.25 45.73a4.29 4.29 0 1 0 -4.25-4.3 4.3 4.3 0 0 0 4.25 4.3zm0-6.58a2.29 2.29 0 1 1 -2.25 2.28 2.29 2.29 0 0 1 2.25-2.28z"/></g></svg>