<?xml version="1.0" encoding="iso-8859-1"?>
<!-- Generator: Adobe Illustrator 19.0.0, SVG Export Plug-In . SVG Version: 6.00 Build 0)  -->
<svg version="1.1" id="Capa_1" xmlns="http://www.w3.org/2000/svg" xmlns:xlink="http://www.w3.org/1999/xlink" x="0px" y="0px"
	 viewBox="0 0 512 512" style="enable-background:new 0 0 512 512;" xml:space="preserve">
<g>
	<g>
		<g>
			<path d="M501.333,392c0-3.435-1.664-6.656-4.437-8.661L416,325.184v-75.008l3.648,3.2c2.027,1.749,4.523,2.624,7.019,2.624
				c2.965,0,5.909-1.237,8.021-3.648c3.883-4.437,3.435-11.157-1.003-15.061L266.667,91.157V64h32
				c5.888,0,10.667-4.779,10.667-10.667s-4.779-10.667-10.667-10.667h-32v-32C266.667,4.779,261.888,0,256,0
				c-5.888,0-10.667,4.779-10.667,10.667v32h-32c-5.888,0-10.667,4.779-10.667,10.667S207.445,64,213.333,64h32v27.157
				L78.315,237.291c-4.437,3.883-4.885,10.624-1.003,15.061c3.883,4.437,10.624,4.885,15.061,1.003L96,250.176v75.008
				l-80.896,58.155c-2.773,2.005-4.437,5.227-4.437,8.661v106.667c0,0.469,0.213,0.875,0.277,1.344
				c-0.064,0.448-0.277,0.853-0.277,1.323c0,5.888,4.779,10.667,10.667,10.667h469.333c5.888,0,10.667-4.779,10.667-10.667
				c0-0.469-0.213-0.875-0.277-1.344c0.064-0.448,0.277-0.853,0.277-1.323V392z M96,490.667H32v-93.205l64-45.995V490.667z
				 M305.792,490.667h-0.021H202.667v-76.437c0-28.437,23.125-51.563,51.563-51.563c28.437,0,51.563,23.125,51.563,51.563V490.667z
				 M394.667,490.667h-67.563v-76.437c0-40.192-32.704-72.896-72.896-72.896c-40.171,0-72.875,32.704-72.875,72.896v76.437h-64
				V231.509L256,110.187l138.667,121.323V490.667z M480,490.667h-64v-139.2l64,45.995V490.667z"/>
			<path d="M202.667,245.333c0,29.397,23.936,53.333,53.333,53.333s53.333-23.936,53.333-53.333S285.397,192,256,192
				S202.667,215.936,202.667,245.333z M288,245.333c0,17.643-14.357,32-32,32c-17.643,0-32-14.357-32-32c0-17.643,14.357-32,32-32
				C273.643,213.333,288,227.691,288,245.333z"/>
		</g>
	</g>
</g>
<g>
</g>
<g>
</g>
<g>
</g>
<g>
</g>
<g>
</g>
<g>
</g>
<g>
</g>
<g>
</g>
<g>
</g>
<g>
</g>
<g>
</g>
<g>
</g>
<g>
</g>
<g>
</g>
<g>
</g>
</svg>
