<svg id="Layer_1" height="512" viewBox="0 0 64 64" width="512" xmlns="http://www.w3.org/2000/svg" data-name="Layer 1"><path d="m62.88965 54.457a1.00247 1.00247 0 0 0 .05224-.79346l-10-28a1.00062 1.00062 0 0 0 -1.21679-.625l-2.076.59314-3.4531-12.08568.09064-.05725a3.59732 3.59732 0 0 0 1.48777-4.27975 3.52927 3.52927 0 0 0 -4.93066-1.8755l-1.73645.94665 1.111-1.63122a3.04676 3.04676 0 0 0 -5.0474-3.40528l-2.1489 2.92676a1.03378 1.03378 0 0 1 -.19922.20313l-11.10501 8.50246.001.00134-3.51855.20715 4.62548-4.42334a3.50586 3.50586 0 0 0 -.97949-5.88427 3.52988 3.52988 0 0 0 -3.25586.31689c-9.27685 6.646-9.27685 6.646-9.31689 6.68652-4.38721 4.146-6.38965 9.45215-8.15625 14.13379l-2.03421 4.68699 1.834.79786 2.01856-4.63916.05273-.13916c1.6836-4.46192 3.59131-9.51661 7.61084-13.34131.75049-.53809 9.11182-6.52784 9.11084-6.52881a1.51033 1.51033 0 0 1 1.37842-.12305 1.47645 1.47645 0 0 1 .915 1.14649 1.50114 1.50114 0 0 1 -.52686 1.41162l-6.23239 5.95845a1.19993 1.19993 0 0 0 .89986 2.065l10.90039-.646a3.75847 3.75847 0 0 0 1.80811-.415l9.12067-4.97205a2.9884 2.9884 0 0 1 2.01083 2.66548l-12.275 7.75574a4.36658 4.36658 0 0 1 -.94287.45654l-6.35547 2.1792c-2.16992.74365-7.33252 2.82813-8.40722 6.10254-.01026.03223-.01953.06494-.02686.09814l-.95358 4.35254 1.95361.42823.94287-4.29932c.68506-1.96045 4.12891-3.75781 7.13965-4.79053l4.61261-1.5816-.52228 2.61133-1.00781-.144a1.00283 1.00283 0 0 0 -1.103.71485l-8 28a1.00015 1.00015 0 0 0 .79688 1.26123l11.34257 1.89045-.17468 2.03778a1.00011 1.00011 0 0 0 .99658 1.08545h18a1.00011 1.00011 0 0 0 .99658-1.08545l-.18066-2.10773 13.459-3.84539a.99932.99932 0 0 0 .61473-.50443zm-15.16358-28.27585-1.66583.476-.06366-.74255a1.00049 1.00049 0 0 0 -.99658-.9146h-1v-10.06653l.43408-.27423zm-11.72607-1.18115v-5.012l6-3.7909v8.8029zm-6.082-10.61963a1.90369 1.90369 0 0 1 -.90283.18506l-1.73535.10217 8.75927-6.70617a3.0241 3.0241 0 0 0 .59375-.606l2.15036-2.92818a1.0439 1.0439 0 0 1 1.24024-.34864 1.02908 1.02908 0 0 1 .59863.64453 1.01478 1.01478 0 0 1 -.081.83692l-3.28309 4.81872zm12.11517-4.32745 1.74518-.95136a1.53017 1.53017 0 0 1 2.13135.83008 1.61115 1.61115 0 0 1 -.69824 1.87061l-1.40723.8891a4.98646 4.98646 0 0 0 -1.77109-2.63843zm-12.16517 13.70593a6.291 6.291 0 0 0 .91571-.47516l3.21629-2.0321v3.74841h-1a1.00049 1.00049 0 0 0 -.99658.91455l-.1637 1.90973-2.70752-.38678zm-10.599 31.4389 7.45313-26.08447 4.94653.70654-2.31927 27.058zm11.82036 4.80225 2.82864-33h10.164l2.82861 33zm17.55255-3.22339-2.40766-28.08923 5.13929-1.46814 9.32568 26.1123z"/><path d="m40 29h-2v24.434l-4.515 2.709 1.03 1.714 4.485-2.691 4.485 2.691 1.03-1.714-4.515-2.709z"/></svg>