<svg id="Capa_1" enable-background="new 0 0 512 512" height="512" viewBox="0 0 512 512" width="512" xmlns="http://www.w3.org/2000/svg"><g><path d="m363.746 444.851c4.139 0 7.483 3.344 7.483 7.482 0 4.168-3.345 7.512-7.483 7.512-116.25 0-232.5 0-348.75 0v14.118h482.009v-14.118h-99.299c-4.139 0-7.483-3.344-7.483-7.512 0-4.139 3.345-7.482 7.483-7.482h73.446v-227.256h-130.452c-6.265 13.237-17.008 26.419-32.825 38.183-12.898 9.553-29.255 18.198-49.409 25.2-1.53.538-3.231.595-4.903.027-20.155-7.001-36.511-15.675-49.409-25.228-15.846-11.764-26.589-24.945-32.826-38.183h-49.55c-4.138 0-7.512-3.346-7.512-7.485 0-4.138 3.374-7.512 7.512-7.512h44.335c-2.693-11.877-2.041-24.179 2.693-35.461h-153.81v35.461h72.794c4.167 0 7.512 3.374 7.512 7.512 0 4.14-3.345 7.485-7.512 7.485h-46.942v227.256h178.415v-85.977c0-4.139 3.373-7.512 7.512-7.512h58.48c4.139 0 7.483 3.373 7.483 7.512v85.977h71.008zm-129.488 0h43.484v-78.493h-43.484zm163.59-93.489h46.828c4.139 0 7.512 3.373 7.512 7.512v46.83c0 4.138-3.373 7.512-7.512 7.512h-46.828c-4.139 0-7.512-3.374-7.512-7.512v-46.83c0-4.139 3.373-7.512 7.512-7.512zm39.344 14.995h-31.861v31.862h31.861zm-289.052-14.995h46.83c4.167 0 7.512 3.373 7.512 7.512v46.83c0 4.138-3.345 7.512-7.512 7.512h-46.83c-4.139 0-7.512-3.374-7.512-7.512v-46.83c0-4.139 3.373-7.512 7.512-7.512zm39.346 14.995h-31.833v31.862h31.833zm129.545-14.995h46.828c4.139 0 7.512 3.373 7.512 7.512v46.83c0 4.138-3.373 7.512-7.512 7.512h-46.828c-4.139 0-7.513-3.374-7.513-7.512v-46.83c.001-4.139 3.375-7.512 7.513-7.512zm39.345 14.995h-31.833v31.862h31.833zm-289.052-14.995h46.857c4.139 0 7.483 3.373 7.483 7.512v46.83c0 4.138-3.345 7.512-7.483 7.512h-46.857c-4.139 0-7.484-3.374-7.484-7.512v-46.83c0-4.139 3.345-7.512 7.484-7.512zm39.345 14.995h-31.833v31.862h31.833zm291.179-95.811h46.828c4.139 0 7.512 3.373 7.512 7.512v46.829c0 4.139-3.373 7.512-7.512 7.512h-46.828c-4.139 0-7.512-3.373-7.512-7.512v-46.829c0-4.139 3.373-7.512 7.512-7.512zm39.344 15.023h-31.861v31.834h31.861zm-289.052-15.023h46.83c4.167 0 7.512 3.373 7.512 7.512v46.829c0 4.139-3.345 7.512-7.512 7.512h-46.83c-4.139 0-7.512-3.373-7.512-7.512v-46.829c0-4.139 3.373-7.512 7.512-7.512zm39.346 15.023h-31.833v31.834h31.833zm129.545-15.023h46.828c4.139 0 7.512 3.373 7.512 7.512v46.829c0 4.139-3.373 7.512-7.512 7.512h-46.828c-4.139 0-7.513-3.373-7.513-7.512v-46.829c.001-4.139 3.375-7.512 7.513-7.512zm39.345 15.023h-31.833v31.834h31.833zm-289.052-15.023h46.857c4.139 0 7.483 3.373 7.483 7.512v46.829c0 4.139-3.345 7.512-7.483 7.512h-46.857c-4.139 0-7.484-3.373-7.484-7.512v-46.829c0-4.139 3.345-7.512 7.484-7.512zm39.345 15.023h-31.833v31.834h31.833zm155.964-158.94 12.189 22.649 25.371 4.593c4.054.736 6.774 4.62 6.038 8.674-.256 1.445-.936 2.777-1.928 3.854l-17.859 18.652 3.458 25.568c.566 4.111-2.324 7.881-6.406 8.42-1.445.198-2.92-.028-4.252-.68l-23.244-11.197-23.245 11.198c-3.713 1.813-8.192.255-9.978-3.487-.708-1.445-.907-3.006-.652-4.479l3.43-25.342-17.83-18.652c-2.863-3.005-2.749-7.738.255-10.573 1.191-1.162 2.693-1.814 4.195-2.012l25.002-4.536 12.246-22.734c1.956-3.629 6.491-5.018 10.119-3.062 1.391.737 2.439 1.842 3.091 3.146zm.709 32.911-7.342-13.663-7.342 13.663c-1.049 1.928-2.92 3.373-5.273 3.798l-15.25 2.778 10.744 11.226c1.502 1.587 2.324 3.798 1.984 6.15l-2.069 15.364c4.648-2.239 9.298-4.479 13.946-6.718 1.984-.964 4.394-1.049 6.52 0l13.975 6.718-2.069-15.194c-.34-2.238.284-4.592 1.956-6.32l10.743-11.226-14.797-2.692c-2.353-.284-4.508-1.673-5.726-3.884zm66.955 15.591c-4.903-14.146-14.939-17.462-16.129-37.162-.822-13.494 5.329-24.124 10.091-30.219l-21.968-23.357c-22.48 10.658-38.353 3.203-46.291-2.75-7.938 5.953-23.811 13.408-46.262 2.75l-21.969 23.357c4.847 6.236 11.141 17.178 10.007 31.068-1.559 19.275-11.254 22.451-16.044 36.312-9.383 27.014 11.027 53.547 31.323 68.628 11.253 8.333 25.455 15.959 42.945 22.252 17.49-6.293 31.72-13.919 42.975-22.252 20.296-15.08 40.676-41.614 31.322-68.627zm15.619 27.467h151.089v-35.461h-153.782c4.706 11.282 5.358 23.584 2.693 35.461zm-11.594-50.456h88.3v-35.492h-86.372c-4.649 5.869-11.905 18.909-1.928 35.492zm4.734-50.487h36.964v-36.992l-41.272-9.099c-4.024-.907-6.576-4.876-5.697-8.901.907-4.054 4.904-6.577 8.93-5.698l46.517 10.263c3.686.481 6.52 3.628 6.52 7.455v42.973h39.119c4.138 0 7.482 3.345 7.482 7.483v43.003h66.899c4.139 0 7.483 3.345 7.483 7.483v50.484c0 4.14-3.345 7.485-7.483 7.485h-18.369v227.256h18.369c4.139 0 7.483 3.344 7.483 7.482v29.142c0 4.139-3.345 7.483-7.483 7.483h-497.006c-4.139 0-7.512-3.345-7.512-7.483v-29.142c0-4.139 3.374-7.482 7.512-7.482h18.34v-227.255h-18.34c-4.139 0-7.512-3.346-7.512-7.485v-50.484c0-4.139 3.374-7.483 7.512-7.483h66.87v-43.003c0-4.139 3.374-7.483 7.512-7.483h39.09v-42.974c0-3.43 2.41-6.519 5.896-7.313l127.39-28.121c1.049-.255 2.212-.283 3.345-.028l47.17 10.432c4.025.879 6.576 4.876 5.698 8.901-.907 4.025-4.876 6.577-8.93 5.67l-45.553-10.038-120.02 26.477v36.992h36.992l29.651-31.549c2.325-2.58 6.18-3.261 9.298-1.475 24.35 14.088 37.22-.539 38.212-1.729 2.947-3.714 8.645-3.799 11.678-.086.029.057 12.927 16.47 38.213 1.843 2.947-1.729 6.831-1.275 9.269 1.332zm-163.306 14.995h-86.373v35.491h88.329c9.95-16.582 2.721-29.622-1.956-35.491z"/></g></svg>