<?xml version="1.0"?>
<svg xmlns="http://www.w3.org/2000/svg" data-name="Layer 1" id="Layer_1" viewBox="0 0 128 128"><title/><path d="M123,35.27588V26a2,2,0,0,0-.65479-1.48L112,15.1153V6a2,2,0,0,0-4,0v9.1153L97.65479,24.52A2,2,0,0,0,97,26v9.27588l-4.53662,5.44385A2.00082,2.00082,0,0,0,92,42V67.167H81V16a2.0001,2.0001,0,0,0-2-2H73V8a2.0001,2.0001,0,0,0-2-2H65V2a2,2,0,0,0-4,0V6H55a2.0001,2.0001,0,0,0-2,2v6H47a2.0001,2.0001,0,0,0-2,2V38H32V24a2.0001,2.0001,0,0,0-2-2H27.3125V19.875a2,2,0,0,0-4,0V22H18a2.0001,2.0001,0,0,0-2,2v6H6a2.0001,2.0001,0,0,0-2,2V98H2a2,2,0,0,0,0,4H126a2.0001,2.0001,0,0,0,2-2V42a2.00082,2.00082,0,0,0-.46338-1.28027ZM20,26h8v4H20ZM15,72V98H8V66h8a2,2,0,0,0,0-4H8V58h8a2,2,0,0,0,0-4H8V50h8a2,2,0,0,0,0-4H8V42h8a2,2,0,0,0,0-4H8V34H28V70H17A2.0001,2.0001,0,0,0,15,72ZM45,98H19V74H45Zm0-28H32V42H45ZM57,10H69v4H57ZM77,98H49V18H77Zm15,0H81V71.167H92Zm16,0H96V42.72412l4.53662-5.44385A2.00082,2.00082,0,0,0,101,36V26.88477l7-6.36353Zm16,0H112V20.52124l7,6.36353V36a2.00082,2.00082,0,0,0,.46338,1.28027L124,42.72412Z"/><path d="M55,26h4a2,2,0,0,0,0-4H55a2,2,0,0,0,0,4Z"/><path d="M55,34h4a2,2,0,0,0,0-4H55a2,2,0,0,0,0,4Z"/><path d="M55,42h4a2,2,0,0,0,0-4H55a2,2,0,0,0,0,4Z"/><path d="M55,50h4a2,2,0,0,0,0-4H55a2,2,0,0,0,0,4Z"/><path d="M55,58h4a2,2,0,0,0,0-4H55a2,2,0,0,0,0,4Z"/><path d="M67,26h4a2,2,0,0,0,0-4H67a2,2,0,0,0,0,4Z"/><path d="M67,34h4a2,2,0,0,0,0-4H67a2,2,0,0,0,0,4Z"/><path d="M67,42h4a2,2,0,0,0,0-4H67a2,2,0,0,0,0,4Z"/><path d="M67,50h4a2,2,0,0,0,0-4H67a2,2,0,0,0,0,4Z"/><path d="M67,58h4a2,2,0,0,0,0-4H67a2,2,0,0,0,0,4Z"/><path d="M55,66h4a2,2,0,0,0,0-4H55a2,2,0,0,0,0,4Z"/><path d="M55,74h4a2,2,0,0,0,0-4H55a2,2,0,0,0,0,4Z"/><path d="M55,82h4a2,2,0,0,0,0-4H55a2,2,0,0,0,0,4Z"/><path d="M55,90h4a2,2,0,0,0,0-4H55a2,2,0,0,0,0,4Z"/><path d="M67,66h4a2,2,0,0,0,0-4H67a2,2,0,0,0,0,4Z"/><path d="M67,74h4a2,2,0,0,0,0-4H67a2,2,0,0,0,0,4Z"/><path d="M67,82h4a2,2,0,0,0,0-4H67a2,2,0,0,0,0,4Z"/><path d="M67,90h4a2,2,0,0,0,0-4H67a2,2,0,0,0,0,4Z"/><path d="M26,84H38a2,2,0,0,0,0-4H26a2,2,0,0,0,0,4Z"/><path d="M26,92H38a2,2,0,0,0,0-4H26a2,2,0,0,0,0,4Z"/><path d="M126,108H2a2,2,0,0,0,0,4H126a2,2,0,0,0,0-4Z"/><path d="M2,120H8a2,2,0,0,0,0-4H2a2,2,0,0,0,0,4Z"/><path d="M57.77783,120a2,2,0,1,0,0-4H45.333a2,2,0,0,0,0,4Z"/><path d="M32.88867,120a2,2,0,1,0,0-4H20.44434a2,2,0,0,0,0,4Z"/><path d="M107.55566,120a2,2,0,0,0,0-4H95.11084a2,2,0,1,0,0,4Z"/><path d="M82.6665,120a2,2,0,1,0,0-4H70.22217a2,2,0,1,0,0,4Z"/><path d="M126,116h-6a2,2,0,0,0,0,4h6a2,2,0,0,0,0-4Z"/><path d="M126,124H2a2,2,0,0,0,0,4H126a2,2,0,0,0,0-4Z"/><path d="M100,47v4a2,2,0,0,0,4,0V47a2,2,0,0,0-4,0Z"/><path d="M118,45a2.0001,2.0001,0,0,0-2,2v4a2,2,0,0,0,4,0V47A2.0001,2.0001,0,0,0,118,45Z"/><path d="M102,57a2.0001,2.0001,0,0,0-2,2v4a2,2,0,0,0,4,0V59A2.0001,2.0001,0,0,0,102,57Z"/><path d="M118,57a2.0001,2.0001,0,0,0-2,2v4a2,2,0,0,0,4,0V59A2.0001,2.0001,0,0,0,118,57Z"/><path d="M102,69a2.0001,2.0001,0,0,0-2,2v4a2,2,0,0,0,4,0V71A2.0001,2.0001,0,0,0,102,69Z"/><path d="M118,69a2.0001,2.0001,0,0,0-2,2v4a2,2,0,0,0,4,0V71A2.0001,2.0001,0,0,0,118,69Z"/><path d="M102,81a2.0001,2.0001,0,0,0-2,2v4a2,2,0,0,0,4,0V83A2.0001,2.0001,0,0,0,102,81Z"/><path d="M118,81a2.0001,2.0001,0,0,0-2,2v4a2,2,0,0,0,4,0V83A2.0001,2.0001,0,0,0,118,81Z"/></svg>
