<svg id="Capa_1" enable-background="new 0 0 512 512" height="512" viewBox="0 0 512 512" width="512" xmlns="http://www.w3.org/2000/svg"><g><path d="m495.508 444.21c-3.993-1.116-8.128 1.213-9.244 5.201-7.832 27.987-33.612 47.533-62.693 47.533h-50.272c-35.905 0-65.116-29.211-65.116-65.116s29.211-65.116 65.116-65.116c7.752 0 15.335 1.348 22.539 4.007 1.675.618 3.517.62 5.193 0 7.205-2.659 14.788-4.007 22.54-4.007 30.452 0 57.215 21.576 63.635 51.304.876 4.048 4.861 6.624 8.914 5.748 4.049-.874 6.622-4.865 5.748-8.914-3.806-17.62-13.629-33.638-27.66-45.101-7.926-6.475-17.014-11.325-26.69-14.357 1.474-2.941 2.71-5.979 3.681-9.121 4.689-15.184 2.094-28.302.128-34.774-1.068-3.511-4.249-5.913-7.914-5.979-3.674-.091-6.924 2.217-8.119 5.683-3.165 9.182-8.429 16.717-14.477 22.855-.617-5.352-1.863-10.447-3.708-15.284v-48.825c0-4.143-3.357-7.5-7.5-7.5s-7.5 3.357-7.5 7.5v26.5c-4.732-4.421-9.333-7.316-12.489-9.001-3.235-1.729-7.182-1.179-9.821 1.364-2.64 2.545-3.333 6.47-1.724 9.768 7.354 15.095 6.823 31.15 4.02 44.248-10.047-7.219-19.895-17.474-24.772-31.624-1.195-3.468-4.491-5.739-8.124-5.683-3.667.068-6.847 2.475-7.911 5.983-1.964 6.469-4.56 19.587.13 34.771 1.104 3.576 2.542 7.021 4.293 10.339-30.625 11.268-52.528 40.733-52.528 75.219 0 .172.012.341.013.513h-160.542v-214.87h269.454v17.471c0 4.143 3.357 7.5 7.5 7.5s7.5-3.357 7.5-7.5v-19.963c0-5.092-3.063-9.475-7.439-11.424l35.811-169.465c.597-2.816-.101-5.714-1.913-7.951-1.813-2.236-4.504-3.52-7.384-3.52h-26.067c-4.466 0-8.377 3.171-9.298 7.538l-7.449 35.251v-55.908c0-5.24-4.263-9.503-9.503-9.503h-26.156c-5.24 0-9.503 4.263-9.503 9.503v55.906l-7.448-35.246c-.922-4.37-4.832-7.541-9.298-7.541h-26.068c-2.88 0-5.57 1.283-7.384 3.52-1.812 2.237-2.51 5.135-1.914 7.948l10.867 51.423c-.78-.338-1.563-.671-2.365-.964-.342-8.591-3.217-16.918-8.351-23.957-11.946-16.383-32.986-22.172-51.22-14.935-6.825-8.547-16.46-14.15-27.334-15.853-11.521-1.805-23.055.987-32.476 7.858-5.749 4.193-10.164 9.541-13.178 15.492-4.483-3.583-9.618-6.404-15.272-8.249-5.585-1.822-11.49-2.359-17.301-1.669l.939-31.184c.124-4.14-3.131-7.598-7.271-7.723-4.186-.115-7.598 3.131-7.723 7.271l-.687 22.824-6.215-17.085c-1.415-3.893-5.72-5.907-9.611-4.484-3.893 1.416-5.9 5.719-4.484 9.611l5.059 13.906-9.515-11.332c-2.663-3.171-7.394-3.586-10.566-.922-3.172 2.663-3.585 7.394-.922 10.566l11.689 13.925-20.11-10.817c-3.65-1.96-8.195-.595-10.158 3.053-1.962 3.647-.595 8.195 3.053 10.158l27.474 14.778c-3.502 4.687-5.989 10.068-7.205 15.817-3.129 14.808.696 29.909 10.494 41.432l27.144 31.922c-.051 3.969.453 7.964 1.506 11.893-1.274.027-2.542.103-3.802.228-4.035.4-7.256 3.621-7.657 7.66-.942 9.526.958 19.381 5.238 28.419-4.925 1.681-8.481 6.344-8.481 11.83v93.263c-9.574 1.043-19.073 3.672-28.093 7.971-14.495 6.911-30.234 9.016-45.515 6.099l-7.622-1.457c-3.714-.713-7.519.461-10.189 3.131-2.672 2.671-3.844 6.479-3.135 10.192l1.457 7.622c2.92 15.281.812 31.021-6.098 45.515-15.887 33.329-9.082 73.2 16.933 99.217 16.981 16.979 39.276 25.465 61.581 25.465 8.279 0 16.556-1.182 24.562-3.529 2.247 2.146 5.282 3.474 8.626 3.474h293.409c35.781 0 67.501-24.052 77.139-58.49 1.117-3.99-1.212-8.129-5.201-9.245zm-57.462-107.13c-.292 1.552-.68 3.144-1.18 4.764-1.112 3.601-2.703 7.048-4.73 10.349-2.837-.307-5.695-.481-8.565-.481-.019 0-.038.001-.057.001 5.137-4.116 10.135-8.96 14.532-14.633zm-39.727-22.156c.889 1.303 1.74 2.701 2.531 4.199 5.146 9.741 6.614 21.373 4.448 34.695-2.312.54-4.603 1.173-6.864 1.92-1.297-.429-2.606-.811-3.921-1.171 3.256-11.036 5.658-25.009 3.806-39.643zm-29.079 36.891c-2.859.143-5.677.443-8.45.88-2.179-3.452-3.873-7.067-5.042-10.851-.5-1.62-.888-3.212-1.18-4.764 4.437 5.723 9.486 10.597 14.672 14.735zm-251.586 142.161c-24.568 7.32-52.292 1.314-71.654-18.05-20.821-20.82-26.765-52.374-15.241-79.395 2.858 20.118 14.834 42.695 33.387 61.249 15.914 15.913 34.768 27.221 53.088 31.841.141.036.28.065.42.1zm0-61.373c-3.899-3.51-7.991-7.352-12.263-11.554-2.953-2.903-7.701-2.867-10.606.087-2.904 2.952-2.866 7.701.087 10.606 7.654 7.53 15.373 14.524 22.782 20.673v21.771c-14.09-4.315-29.508-13.621-42.9-27.014-21.625-21.624-33.406-49.742-28.65-68.379.585-2.292 1-4.66 1.263-7.086 5.369 11.685 16.411 25.736 23.2 33.83 2.661 3.173 7.392 3.588 10.566.926 3.173-2.662 3.588-7.393.926-10.566-12.178-14.519-20.617-27.377-22.574-34.396-.609-2.183-1.521-4.512-2.646-6.906 2.396 1.124 4.723 2.036 6.906 2.646 8.731 2.435 29.088 16.041 53.909 40.29zm0-55.664c-16.701-15.131-32.46-26.614-43.74-31.813 2.439-.263 4.819-.679 7.123-1.267 10.228-2.61 23.315-.219 36.616 6.029v27.051zm0-43.321c-6.4-2.494-12.755-4.232-18.882-5.102 6.12-2.61 12.474-4.308 18.882-5.156zm162.521-131.144h-51.606c6.293-11.067 18.184-18.553 31.801-18.553 9.349 0 17.876 3.539 24.346 9.333-1.808 2.894-3.327 5.983-4.541 9.22zm-53.6-35.629c.457-1.705.803-3.422 1.055-5.144l25.648 7.726c-5.426.75-10.586 2.338-15.34 4.645-.666-3.723-3.748-6.621-7.562-7-.002 0-.004-.001-.005-.001-1.257-.124-2.523-.199-3.796-.226zm42.905 2.893c4.583-14.964 18.514-25.882 34.96-25.882 5.575 0 10.858 1.263 15.59 3.504l4.589 21.715c-11.533.858-22.02 5.521-30.207 12.741-6.921-6.103-15.48-10.383-24.932-12.078zm145.092-132.116h14.831l-34.836 164.852h-14.831zm-51.365-22.622h15.162v121.394l-7.581 35.874-7.581-35.876zm-2.927 187.474h-63.603c6.293-11.067 18.185-18.553 31.801-18.553 13.617 0 25.509 7.485 31.802 18.553zm-33.277-164.852 29.502 139.61c-4.922-3.2-10.418-5.585-16.301-6.958l-28.032-132.652zm-132.949 12.16c6.185-4.512 13.756-6.345 21.318-5.158 7.562 1.184 14.211 5.242 18.721 11.426.648.89 1.251 1.833 1.841 2.882.991 1.763 2.653 3.051 4.608 3.571 1.954.52 4.037.228 5.774-.809 12.773-7.628 29.029-4.305 37.81 7.735 4.201 5.761 6.098 12.834 5.341 19.916-.409 3.837 2.158 7.358 5.937 8.141 6.337 1.313 11.992 4.713 16.125 9.643l4.892 23.15c-3.847-.92-7.855-1.423-11.981-1.423-4.981 0-9.795.721-14.354 2.045l.291-16.161c.074-4.141-3.223-7.559-7.364-7.634-.046-.001-.092-.001-.138-.001-4.079 0-7.422 3.27-7.496 7.365l-.427 23.686c-1.585 1.11-3.109 2.302-4.558 3.58l-4.797-6.579.956-53.085c.074-4.142-3.223-7.559-7.364-7.634-4.115-.033-7.559 3.223-7.634 7.364l-.599 33.278-20.992-28.785c-2.44-3.349-7.134-4.083-10.479-1.641-3.347 2.44-4.081 7.132-1.641 10.479l20.991 28.785-31.868-9.6c-3.967-1.194-8.15 1.052-9.345 5.019-1.194 3.966 1.053 8.149 5.019 9.345l50.836 15.313 6.98 9.572c-.403.659-.791 1.328-1.165 2.006l-28.5-8.585c-1.596-.481-3.227-.396-4.687.128-1.408-1.781-3.505-2.993-5.902-3.221-5.448-.509-10.997.062-16.403 1.661-2.432-13.26-9.079-25.006-18.915-33.071-.581-.477-1.21-.864-1.87-1.164 1.585-2.993 3.713-5.762 6.408-8.135 1.519-1.336 2.433-3.229 2.534-5.25.103-2.021-.616-3.997-1.992-5.479-.821-.886-1.534-1.746-2.181-2.633-9.309-12.769-6.496-30.731 6.27-40.042zm-14.589 78.271c6.15 7.013 9.926 16.719 10.326 26.977.115 2.937 1.696 5.571 4.229 7.048 2.534 1.477 5.606 1.555 8.224.206 3.447-1.778 7.041-2.907 10.616-3.353-.48 3.784-1.716 7.614-3.639 11.178-1.56 2.887-1.312 6.46.628 9.104 1.941 2.642 5.277 3.947 8.491 3.321 1.628-.315 3.251-.525 4.859-.627-.068 1.083-.193 2.168-.357 3.252-4.665 4.952-8.357 10.828-10.783 17.315h-25.095v-22.438c0-4.143-3.357-7.5-7.5-7.5s-7.5 3.357-7.5 7.5v22.438h-29.038c-4.233-6.344-6.751-13.489-7.199-20.567 1.608.102 3.231.311 4.858.626 3.222.626 6.552-.678 8.492-3.32 1.941-2.644 2.188-6.217.631-9.099-1.924-3.566-3.16-7.397-3.64-11.182 3.576.445 7.17 1.574 10.616 3.353 2.614 1.347 5.688 1.271 8.223-.207 2.533-1.477 4.114-4.111 4.229-7.049.404-10.257 4.178-19.963 10.329-26.976zm-64.332-14.74c-6.766-7.957-9.407-18.386-7.246-28.613 1.509-7.139 6.173-13.426 12.795-17.249l10.096-5.829c6.622-3.823 14.397-4.719 21.336-2.456 6.103 1.992 11.361 5.595 15.326 10.353-.748 9.428 1.536 19.137 7.107 27.535-6.072 7.38-9.394 16.34-9.833 25.482-4.739 6.678-8.028 14.536-9.584 23.019-4.65-1.374-9.412-1.981-14.115-1.804zm17.521 383.631v-49.604h162.049c4.009 20.343 15.743 37.933 32.008 49.604z"/></g></svg>