<svg id="HOTEL" enable-background="new 0 0 32 32" height="512" viewBox="0 0 32 32" width="512" xmlns="http://www.w3.org/2000/svg"><g><path d="m11.5 16c-.276 0-.5.224-.5.5v10.5h-7.5c-.276 0-.5.224-.5.5s.224.5.5.5h7.5v1h-1.5c-.276 0-.5.224-.5.5s.224.5.5.5h9c.276 0 .5-.224.5-.5s-.224-.5-.5-.5h-1.5v-4h7v4h-.5c-.276 0-.5.224-.5.5s.224.5.5.5h4c.276 0 .5-.224.5-.5s-.224-.5-.5-.5h-.5v-4h1.5c.276 0 .5-.224.5-.5v-2c0-.276-.224-.5-.5-.5h-.592c.056-.157.092-.324.092-.5 0-.827-.673-1.5-1.5-1.5h-9.5v-3.5c0-.276-.224-.5-.5-.5h-.5v-12.574l4.209-.298c-.13.264-.209.558-.209.872 0 1.103.897 2 2 2 .366 0 .705-.106 1-.278v4.411l-4.506 2.688c-.237.141-.315.448-.174.686.094.157.26.244.43.244.088 0 .176-.023.256-.071l4.47-2.666 2.901 2.061c.088.063.189.092.29.092.156 0 .311-.073.407-.21.16-.225.107-.537-.117-.697l-2.957-2.102s0-6.118 0-6.158c0-1.103-.897-2-2-2-.009 0-.017.003-.026.003-.003 0-.006-.001-.009-.001l-14 1c-.004 0-.008.003-.012.003-1.08.026-1.953.908-1.953 1.995v11.167l-2.653.857c-.207.067-.347.259-.347.476v8c0 .276.224.5.5.5h6c.276 0 .5-.224.5-.5v-8c0-.213-.136-.403-.337-.473l-2.663-.916v-9.389c.295.172.634.278 1 .278 1.103 0 2-.897 2-2 0-.413-.126-.798-.342-1.117l2.342-.166v12.283zm.5 13v-12h4v12zm14 0h-1v-4h1zm2-5h-1.5-2-7.5v-1h.068 9.432 1.5zm-1.5-3c.275 0 .5.224.5.5s-.225.5-.5.5h-9.432-.068v-1zm-3.5-17c0 .551-.448 1-1 1s-1-.449-1-1c0-.549.444-.994.992-.998l.011-.001c.551.002.997.449.997.999zm-14 18.014c-.023-.004-.043-.014-.067-.014h-4.678c-.095 0-.179.034-.255.08v-2.16c.076.046.16.08.255.08h4.678c.024 0 .044-.01.067-.014zm-5 2.986v-2.08c.076.046.16.08.255.08h4.678c.024 0 .044-.01.067-.014v2.014zm5-5.986c-.023-.004-.043-.014-.067-.014h-4.678c-.095 0-.179.034-.255.08v-1.216l2.59-.837 2.41.83zm-1-13.014c-.552 0-1-.449-1-1s.448-1 1-1 1 .449 1 1-.448 1-1 1zm5-2.355 2-.147v12.502h-2z"/></g></svg>