<svg viewBox="0 0 512 512" xmlns="http://www.w3.org/2000/svg"><g id="line"><path d="m90.9082 378.6035a9.55389 9.55389 0 0 0 -12.84765 4.123v.001a9.53833 9.53833 0 1 0 12.84765-4.124z"/><path d="m115.22266 394.2661a9.54228 9.54228 0 1 0 12.00781 6.17724 9.54615 9.54615 0 0 0 -12.00781-6.17724z"/><path d="m249.1123 244.8784a8.00119 8.00119 0 0 0 12.165.19629c2.36133-2.67627 57.95411-65.89648 68.36426-96.39844 12.03613-35.2666 9.749-64.085-6.79785-85.65478-18.85543-24.58106-51.77144-32.01367-68.09957-30.91747-30.83594 2.0625-53.332 13.33935-66.8623 33.51709-15.68067 23.38379-15.49024 55.41553-8.34571 76.78711 10.15039 30.36034 67.1543 99.54003 69.57617 102.4702zm-47.9414-170.34619c10.625-15.8457 29.00976-24.74951 54.64158-26.46387 16.42182-1.10039 41.40885 7.83826 54.33693 24.69141 13.08594 17.05908 14.54883 40.86231 4.34961 70.74854-6.90625 20.23535-40.666 62.31591-59.02929 83.835-18.80762-23.40577-53.93164-69.58692-60.75977-90.00782-4.40527-13.17826-8.00196-41.23539 6.46094-62.80326z"/><path d="m453.63452 309.0703c-158.081-70.4457-129.30664-57.46728-158.27514-70.9375a7.99979 7.99979 0 1 0 -6.7461 14.50781l6.15045 2.85986-38.69787 19.88062-40.33441-20.72144 6.25683-2.9331a7.99979 7.99979 0 1 0 -6.79-14.48731l-157.0518 71.92876a8.04753 8.04753 0 0 0 -4.67871 7.27784v56.73877a8 8 0 0 0 16 0v-43.63531l176.34668 90.59509v38.751l-93.75-48.162a7.99966 7.99966 0 1 0 -7.31054 14.23145l105.40527 54.15039a8.07912 8.07912 0 0 0 7.24609.0332l196.71778-98.81494a8.0002 8.0002 0 0 0 4.40918-7.14892v-56.73878a8.06983 8.06983 0 0 0 -4.89771-7.37549zm-199.77905 97.21728-45.472-23.36035 47.80872-24.56091 45.91028 23.68591zm-108.79553-55.89184 47.94287-24.62989 45.72019 23.58789-47.84588 24.57984zm168.15234-86.38574 49.07019 21.86744-42.89282 22.03526-45.81757-23.5382zm-57.14642 29.35816 45.81756 23.53808-45.67535 23.46485-45.72028-23.58789zm63.71771 79.80249-46.10632-23.78687 45.7124-23.48388 46.71875 24.001zm64.02783-32.16235-46.9154-24.10207 44.13549-22.6737 50.81714 22.64587zm-145.25177-56.63368-45.541 23.396-43.77851-22.586 48.1366-21.96692zm-107.83655 9.26013 44.81055 23.11853-47.98 24.649-47.74992-24.53071zm131.09137 165.39368v-38.83356l180.71778-90.77787v38.83349z"/><path d="m256 147.89061a33.396 33.396 0 1 0 -33.39551-33.396 33.4338 33.4338 0 0 0 33.39551 33.396zm0-50.792a17.396 17.396 0 1 1 -17.39551 17.396 17.41546 17.41546 0 0 1 17.39551-17.39599z"/></g></svg>