<svg clip-rule="evenodd" fill-rule="evenodd" height="512" image-rendering="optimizeQuality" shape-rendering="geometricPrecision" text-rendering="geometricPrecision" viewBox="0 0 1707 1707" width="512" xmlns="http://www.w3.org/2000/svg"><g id="Layer_x0020_1"><path d="m1296 526h-886c-11 0-20 9-20 20v1105h-130v-1373h1187v1373h-131v-1105c0-11-9-20-20-20zm-782-288h-274c-11 0-20 9-20 20v1413c0 11 9 20 20 20h1227c11 0 20-9 20-20v-1413c0-11-9-20-20-20h-274v-202c0-11-9-20-20-20h-639c-11 0-20 9-20 20zm639 0h-599v-182h599zm-723 328h403v1085h-403zm443 1085v-1085h403v1085z"/><path d="m801 932c0-27-40-27-40 0v354c0 26 40 26 40 0z"/><path d="m906 932v354c0 26 40 26 40 0v-354c0-27-40-27-40 0z"/><path d="m1329 871c59 59 46 59 105 0 18-19-10-47-28-28l-24 24-25-24c-18-19-46 9-28 28z"/><path d="m1382 951c-73 0-73 110 0 110 72 0 72-110 0-110zm0 70c-29 0-10-45 10-25 9 9 3 25-10 25z"/><path d="m1382 1203c72 0 72-109 0-109-73 0-73 109 0 109zm0-40c-29 0-10-45 10-25 9 9 3 25-10 25z"/><path d="m996 232c9-4 57-56 68-66 18-19-10-47-29-29l-28 29v-87c0-26-40-26-40 0v87l-28-29c-19-18-47 10-29 29 11 10 59 62 68 66 5 3 13 3 18 0z"/><path d="m740 214v-86l28 28c19 19 47-10 28-28-91-91-62-91-153 0-19 18 10 47 28 28l29-28v86c0 26 40 26 40 0z"/><path d="m324 1203c72 0 72-109 0-109s-72 109 0 109zm0-40c-28 0-9-45 11-25 9 9 2 25-11 25z"/><path d="m324 1061c72 0 72-110 0-110s-72 110 0 110zm0-40c-28 0-9-45 11-25 9 9 2 25-11 25z"/><path d="m324 885c16 16 34 42 52 24 8-8 8-20 0-28-59-59-45-59-104 0-19 18 9 47 28 28z"/><path d="m531 341h644v123h-644zm-40 143c0 11 9 20 20 20h684c11 0 20-9 20-20v-163c0-12-9-20-20-20h-684c-11 0-20 8-20 20z"/></g></svg>