<svg enable-background="new 0 0 64 64" viewBox="0 0 64 64" xmlns="http://www.w3.org/2000/svg"><g id="Layer_1"/><g id="Layer_2"><g><path d="m61.6376953 26.2293701-29-24c-.3701172-.3056641-.9052734-.3056641-1.2753906 0l-29 24c-.324707.269043-.4458008.7124023-.3032227 1.109375.1430664.3964844.519043.6611328.940918.6611328h7v33c0 .5522461.4477539 1 1 1h42c.5522461 0 1-.4477539 1-1v-33h7c.421875 0 .7978516-.2646484.940918-.6611328.1425781-.3969726.0214843-.840332-.3032227-1.109375zm-8.6376953-.2294922c-.5522461 0-1 .4477539-1 1v33h-40v-33c0-.5522461-.4477539-1-1-1h-5.2231445l26.2231445-21.7021484 26.2231445 21.7021484z"/><path d="m32 20.9998779c-3.3085938 0-6 2.6914063-6 6 0 1.875.8969727 3.6694336 2.3955078 4.7963867.7962036.6043701 1.7163086.9849854 2.6976929 1.1316528l-.7238159 1.7127075c-.142334-.0637817-.2849731-.1260376-.4250488-.2081299-.4785156-.2871094-1.0449219-.4326172-1.6845703-.4326172h-2.159668c-.9912109 0-1.9462891.4760742-2.5600586 1.2797852l-5.3398438 7.1201172c-.0478516.0639648-.0878906.1328125-.1191406.2060547l-2.3989258 5.5976563c-.5439453 1.2583008-.1083984 2.722168 1.0273438 3.4746094.465332.3154297 1.012207.4819336 1.5805664.4819336 1.0854492 0 2.0576172-.6044922 2.534668-1.5727539l2.0292969-4.0595703 1.40625-1.875.359436 3.5932007-2.3731079 5.6152954c-.0804443.1902466-.1396484.3842773-.178772.5793457-.0390625.1951294-.0580444.3912964-.0579834.5859375.0005493 1.1679077.6873169 2.2799072 1.828064 2.7629395.3764648.159668.7734375.2397461 1.1704102.2397461.3808594 0 .762207-.0737305 1.1259766-.2211914.7426758-.3007813 1.3237305-.8730469 1.6357422-1.6108398l1.3521118-3.1972656h7.4779663c1.3129883 0 2.402832-.984375 2.5351563-2.2905273l.6049805-6.0561523 1.4057617 1.8745117 2.0268555 4.0541992c.4794922.9736328 1.4516602 1.578125 2.5371094 1.578125.5664063 0 1.1113281-.1655273 1.5756836-.4790039 1.1416016-.7583008 1.5756836-2.2202148 1.0332031-3.4750977l-2.3999023-5.6000977c-.03125-.0732422-.0712891-.1420898-.1191406-.2060547l-5.3447266-7.1269531c-.6088867-.796875-1.5639648-1.2729492-2.5551758-1.2729492h-.7427368l5.585022-13.206543c.241333-.5718384.2914429-1.1774292.1793823-1.7450562-.1867065-.9459839-.8237915-1.786499-1.7765503-2.1890259-.7397461-.3129883-1.5561523-.3193359-2.2988281-.0166016-.7431641.3017578-1.324707.8745117-1.637207 1.6137695l-1.5918579 3.7667847c-1.0321048-.7845459-2.2877811-1.2233277-3.6171268-1.2233277zm-7.7998047 20.3999024-3 4c-.0361328.0483398-.0678711.0991211-.0947266.152832l-2.0722656 4.1455078c-.2133789.4316406-.800293.5957031-1.2109375.3183594-.3354492-.2226563-.4633789-.6513672-.3032227-1.0224609l2.3530273-5.4902344 5.2626953-7.0170898c.2324219-.3046875.59375-.4868164.965332-.4868164h2.159668c.1870117 0 .4526367.0253906.6640625.1523438.2182617.1279297.4389648.2416992.6621094.3398438l-3.3408203 7.9067383-.25-2.4985352c-.0410156-.4101563-.3295898-.7529297-.7265625-.8637695-.395996-.1113283-.8208007.0336912-1.0683593.3632811zm14.6601563-4.9199219 5.2675781 7.0239258 2.3540039 5.4926758c.1591797.3686523.03125.7973633-.3041992 1.0200195-.0029297.0019531-.0058594.003418-.0083008.0053711-.3867188.262207-.9882813.1113281-1.2050781-.3291016l-2.0698242-4.1401367c-.0268555-.0537109-.0585938-.1044922-.0947266-.152832l-3-4c-.2470703-.3295898-.6728516-.4726563-1.0683594-.3632813-.3969727.1108398-.6855469.4541016-.7265625.8637695l-.8598633 8.6083984c-.0283203.2802734-.2626953.4912109-.5449219.4912109h-6.6313476l6.3481445-15h1.5830078c.3715821.0000001.7329102.182129.9604493.4799806zm-9.2592774-6.2792969c-1.0024414-.7539062-1.6010742-1.9506836-1.6010742-3.2006836 0-2.2055664 1.7944336-4 4-4 1.0592041 0 2.0545044.4129028 2.8034058 1.1487427l-2.8948975 6.8500977c-.8461304-.0184327-1.6413574-.2926636-2.3074341-.7981568zm9.4501953-10.9658203c.1044922-.246582.2988281-.4384766.5473633-.5390625.121582-.0493164.2490234-.0742188.3769531-.0742188.1323242 0 .2646484.0263672.3901367.0795898h.0004883c.5092773.215332.7485352.8051758.5332031 1.3144531l-14.9711913 35.4023439c-.1040039.2460938-.2973633.4365234-.5449219.5366211-.2470703.1005859-.5185547.0976563-.7646484-.0063477-.5068359-.2143555-.7441406-.8012695-.5302734-1.3081055l2.4720459-5.8493042c.0003052-.0006714.0007935-.0010986.0010986-.00177l1.7511597-4.1445313 5.1902466-12.281189c.0022583-.0050659.0061035-.0090942.0083008-.0142212l3.3798828-8c.0010986-.0026245.0010986-.0054932.0021973-.0081177z"/></g></g></svg>