<svg id="Icons" height="512" viewBox="0 0 60 60" width="512" xmlns="http://www.w3.org/2000/svg"><path d="m58.725 29.734-17-6.611a2.031 2.031 0 0 0 -.593-.123l8.285-8.285a2 2 0 0 0 0-2.824l-11.311-11.323a2 2 0 0 0 -2.823 0l-4.959 4.96-.551-.468a4.2 4.2 0 0 0 -4.466-.736 42.11 42.11 0 0 1 -11.562 2.492 2.919 2.919 0 0 0 -2.745-1.831h-9a2 2 0 0 0 -2 2v15a2 2 0 0 0 2 2h7.466a3 3 0 0 0 2.9-2.251c.409.3.806.581 1.225.841a2 2 0 0 0 .474 2.039l7.935 7.929v2.445a2 2 0 0 0 2 2v11.28a1.993 1.993 0 0 0 -1 1.721v2.279a1.993 1.993 0 0 0 -1 1.722v4a2 2 0 0 0 2 2h34a2 2 0 0 0 2-2v-4a1.993 1.993 0 0 0 -1-1.722v-2.279a1.993 1.993 0 0 0 -1-1.721v-11.28a2 2 0 0 0 2-2v-3.388a1.989 1.989 0 0 0 -1.275-1.866zm-12.843-14.313a3.007 3.007 0 0 1 0-4.243l2.118 2.122zm-9.189-13.438 2.122 2.123a3.006 3.006 0 0 1 -4.242 0zm-10.607 4.185a2.223 2.223 0 0 1 2.374.4l6.478 5.477a1.744 1.744 0 0 1 .068 2.46 1.772 1.772 0 0 1 -2.392.017s-3.271-2.822-3.914-3.393a3 3 0 0 0 -4.11.131l-9.74 9.74a20.767 20.767 0 0 1 -2.18-1.541l1.254-10.651a44.355 44.355 0 0 0 12.162-2.64zm8.484 14.912a4 4 0 0 1 -5.657-5.655 3.811 3.811 0 0 1 .908-.655c.842.723 1.467 1.251 1.469 1.251a3.715 3.715 0 0 0 4.088.6 4 4 0 0 1 -.808 4.459zm-25.1.907h-7.47v-15h9a1 1 0 0 1 .993 1.113l-1.53 13a1 1 0 0 1 -.997.887zm8.13-.907a3 3 0 0 1 0 4.242l-2.123-2.122zm5.675 8.653a1.99 1.99 0 0 0 -.732.524l-3.529-3.522a5.009 5.009 0 0 0 0-7.069l6.992-6.992a1 1 0 0 1 1.368-.051c.283.253.574.511.865.768a6 6 0 1 0 8.685 1.889 3.75 3.75 0 0 0 .554-2.1 3.7 3.7 0 0 0 -1.234-2.643l-4.39-3.708 1.3-1.3a5.006 5.006 0 0 0 7.071 0l4.24 4.243a5.009 5.009 0 0 0 0 7.071l-7.621 7.622zm4.725 7.255v11h-2v-11zm29 15h-4v-2h4zm-5-3.722a1.993 1.993 0 0 0 -1 1.721v2h-6v-2a1.993 1.993 0 0 0 -1-1.721v-11.278h8zm-13 1.723h4v2h-4zm3-2h-2v-11h2zm-4 .279a1.993 1.993 0 0 0 -1 1.721v2h-6v-2a1.993 1.993 0 0 0 -1-1.721v-11.28h8zm-13 1.721h4v2h-4zm33 8h-34v-4h34zm-2-10h-2v-11h2zm-32-13v-3.389l17-6.611 17 6.611v3.389z"/><path d="m43 29.987h-4a1 1 0 0 0 0 2h4a1 1 0 0 0 0-2z"/></svg>