<svg height="512" viewBox="0 0 64 64" width="512" xmlns="http://www.w3.org/2000/svg"><g id="_24-decorate" data-name="24-decorate"><path d="m7 57h-6a1 1 0 0 1 -1-1v-12a1 1 0 0 1 1-1h6a1 1 0 0 1 1 1v12a1 1 0 0 1 -1 1zm-5-2h4v-10h-4z"/><path d="m37 57h-6a1 1 0 0 1 -1-1v-12a1 1 0 0 1 1-1h6a1 1 0 0 1 1 1v12a1 1 0 0 1 -1 1zm-5-2h4v-10h-4z"/><path d="m31 57h-24a1 1 0 0 1 -1-1v-4a1 1 0 0 1 1-1h24a1 1 0 0 1 1 1v4a1 1 0 0 1 -1 1zm-23-2h22v-2h-22z"/><path d="m31 53h-24a1 1 0 0 1 -1-1v-4a1 1 0 0 1 1-1h24a1 1 0 0 1 1 1v4a1 1 0 0 1 -1 1zm-23-2h22v-2h-22z"/><path d="m35 44h-2v-7a1 1 0 0 0 -1-1h-26a1 1 0 0 0 -1 1v7h-2v-7a3 3 0 0 1 3-3h26a3 3 0 0 1 3 3z"/><path d="m7 61h-3a1 1 0 0 1 -1-1v-4h2v3h1.5l2.7-3.6 1.6 1.2-3 4a1 1 0 0 1 -.8.4z"/><path d="m34 61h-3a1 1 0 0 1 -.8-.4l-3-4 1.6-1.2 2.7 3.6h1.5v-3h2v4a1 1 0 0 1 -1 1z"/><path d="m13 37h2v9h-2z"/><path d="m23 37h2v9h-2z"/><path d="m61 53h-21v-2h21a1 1 0 0 0 1-1v-42a1 1 0 0 0 -1-1h-32a1 1 0 0 0 -1 1v25h-2v-25a3 3 0 0 1 3-3h32a3 3 0 0 1 3 3v42a3 3 0 0 1 -3 3z"/><path d="m44 6h2v34h-2z"/><path d="m37 39h26v2h-26z"/><path d="m40 45h23v2h-23z"/><path d="m51 28h-2a1 1 0 0 1 -1-1v-8a1 1 0 0 1 1-1h2a3 3 0 0 1 3 3v4a3 3 0 0 1 -3 3zm-1-2h1a1 1 0 0 0 1-1v-4a1 1 0 0 0 -1-1h-1z"/><path d="m41 28h-2a3 3 0 0 1 -3-3v-4a3 3 0 0 1 3-3h2a1 1 0 0 1 1 1v8a1 1 0 0 1 -1 1zm-2-8a1 1 0 0 0 -1 1v4a1 1 0 0 0 1 1h1v-6z"/><path d="m22 31h-18a1 1 0 0 1 -1-1v-20a1 1 0 0 1 1-1h18a1 1 0 0 1 1 1v20a1 1 0 0 1 -1 1zm-17-2h16v-18h-16z"/><path d="m19 28h-12a1 1 0 0 1 -1-1v-14a1 1 0 0 1 1-1h12a1 1 0 0 1 1 1v14a1 1 0 0 1 -1 1zm-11-2h10v-12h-10z"/><path d="m1 59h52v2h-52z"/><path d="m55 59h2v2h-2z"/><path d="m12 13h2v14h-2z"/><path d="m7 19h12v2h-12z"/></g></svg>