<svg id="Layer_1" enable-background="new 0 0 64 64" height="64" viewBox="0 0 64 64" width="64" xmlns="http://www.w3.org/2000/svg"><g fill="#010101"><path d="m61.434 40.412-5.056-3.783v-7.816c0-.535-.434-.971-.97-.971h-5.315c-.536 0-.97.436-.97.971v2.387l-5.332-3.988c-.344-.258-.815-.26-1.158-.002l-17.794 13.2c-.336.25-.474.686-.343 1.084.132.396.503.664.921.664h2.356v20.869c0 .535.434.969.97.969h10.157c.007 0 .012.004.019.004s.012-.004.019-.004h8.396c.007 0 .012.004.019.004.006 0 .012-.004.019-.004h10.158c.536 0 .97-.434.97-.969v-20.869h2.354c.417 0 .788-.266.92-.662s-.005-.834-.34-1.084zm-10.371-10.631h3.375v5.396l-3.375-2.525zm-4.679 32.276h-6.495v-10.037h6.495zm10.177 0h-8.238v-11.008c0-.535-.434-.969-.969-.969h-8.435c-.535 0-.97.434-.97.969v11.008h-8.237v-19.899h26.849zm-28.21-21.838 14.858-11.023 14.73 11.023z"/><path d="m12.015 14.203c3.916 0 7.102-3.186 7.102-7.102s-3.186-7.101-7.102-7.101c-3.915 0-7.101 3.186-7.101 7.102s3.186 7.101 7.101 7.101zm0-12.264c2.846 0 5.162 2.314 5.162 5.162 0 2.846-2.316 5.162-5.162 5.162-2.847 0-5.163-2.316-5.163-5.162.001-2.847 2.316-5.162 5.163-5.162z"/><path d="m32.984 22.535c.868-.674 1.302-1.705 1.19-2.826-.168-1.707-1.692-3.045-3.469-3.045h-14.364c-.004 0-.007.002-.011.004-.07 0-.137.023-.205.041-.185.043-.353.123-.48.254-.001.002-.003.002-.004.004l-3.552 3.738-3.459-3.639c-.023-.031-.053-.059-.081-.086-.014-.016-.026-.031-.042-.045-.079-.074-.169-.135-.269-.18-.02-.008-.04-.016-.06-.023-.107-.039-.221-.068-.342-.068-.118 0-.23.029-.337.068-.031.012-.06.027-.089.041-.042.021-.084.039-.122.066-2.945.643-5.112 3.15-5.112 6.016v17.135c0 .537.434.971.97.971h1.916v11.445c0 1.043.422 2.063 1.165 2.805.756.744 1.752 1.154 2.802 1.154 1.199 0 2.261-.547 2.987-1.393.727.846 1.789 1.393 2.988 1.393 2.182 0 3.958-1.775 3.958-3.959v-11.455h1.918c.536 0 .97-.434.97-.969v-14.781c0-.969.788-1.756 1.756-1.756h6.228c1.312 0 2.371-.306 3.15-.91zm-13.073 2.666v13.811h-1.923c-.536 0-.97.434-.97.971 0 .008.004.014.004.021v12.402c0 1.113-.905 2.02-2.019 2.02-1.112 0-2.017-.904-2.019-2.016 0-.002 0-.002 0-.004v-12.052c0-.535-.434-.969-.97-.969s-.97.434-.97.969v7.332c0 .002-.001.004-.001.006l.001 4.715v.004c-.001 1.111-.906 2.016-2.018 2.016-.539 0-1.051-.213-1.437-.592-.375-.375-.591-.896-.591-1.428v-12.417c0-.535-.434-.969-.97-.969h-1.912v-16.166c0-1.916 1.465-3.59 3.467-4.082l3.73 3.93c.003.004.007.004.009.008.003.002.004.008.008.01l.075.076c.182.182.429.283.686.283h.013c.261-.004.51-.111.69-.303l3.966-4.174h13.945c.792 0 1.468.568 1.539 1.295.046.465-.105.838-.449 1.104-.424.33-1.103.504-1.961.504h-6.228c-2.038 0-3.695 1.656-3.695 3.695z"/></g></svg>