<svg clip-rule="evenodd" fill-rule="evenodd" stroke-linejoin="round" stroke-miterlimit="2" viewBox="0 0 510 510" xmlns="http://www.w3.org/2000/svg"><g id="Artboard491"><path d="m495 503h-480c-4.418 0-8-3.582-8-8v-428.174c0-4.418 3.582-8 8-8h52.728v-43.826c0-4.418 3.581-8 8-8h276.854c2.103 0 4.144.829 5.66 2.345l53.516 53.56c1.514 1.515 2.341 3.554 2.341 5.655v21.399c22.044 3.795 38.825 23.013 38.825 46.138 0 16.079-8.101 30.254-20.44 38.687v78.505c0 2.022-.766 3.968-2.143 5.449l-16.242 17.461v12.422c21.54 9.785 36.568 31.515 36.568 56.635 0 21.381-10.886 40.305-27.409 51.499 42.809 13.538 74.784 51.421 79.697 97.395.241 2.257-.488 4.51-2.005 6.198s-3.68 2.652-5.95 2.652zm-211.145-428.174h-260.855v412.174h252.051c7.318-42.725 38.164-77.419 78.722-90.247-16.514-11.194-27.401-30.117-27.401-51.497 0-13.067 4.067-25.216 10.999-35.244v-181.669h-45.516c-4.419 0-8-3.582-8-8zm60.727-51.826h-260.854v35.826h208.127c2.101 0 4.141.828 5.657 2.343l53.516 53.517c1.515 1.515 2.343 3.555 2.343 5.657v173.69c10.003-6.895 22.111-10.938 35.134-10.938 3.262 0 6.466.253 9.594.741v-7.649l-16.241-17.447c-1.378-1.481-2.144-3.428-2.144-5.451v-6.831c0-2.258.955-4.412 2.629-5.929l4.552-4.123-4.552-4.124c-1.675-1.517-2.63-3.672-2.629-5.932 0-2.259.957-4.413 2.632-5.929l4.545-4.112-4.548-4.12c-1.674-1.516-2.629-3.67-2.629-5.929v-31.476c-12.339-8.433-20.441-22.607-20.441-38.687 0-23.121 16.775-42.338 38.826-46.137v-13.4h-45.517c-4.418 0-8-3.582-8-8zm42.214 37.56-26.214-26.235v26.235zm19.303 44.718c-17.024.004-30.826 13.805-30.826 30.819 0 11.751 6.575 21.954 16.238 27.164 2.589 1.396 4.203 4.1 4.203 7.041v32.411l8.468 7.671c1.674 1.517 2.629 3.672 2.628 5.932 0 2.259-.957 4.413-2.632 5.929l-4.544 4.112 4.548 4.12c1.674 1.516 2.628 3.67 2.628 5.929 0 2.258-.954 4.412-2.628 5.928l-8.468 7.672v.136l10.389 11.161 10.381-11.16v-79.841c0-2.941 1.614-5.645 4.203-7.041 9.662-5.21 16.237-15.413 16.237-27.164 0-17.016-13.803-30.819-30.819-30.819zm-17.594 286.14c25.443 0 46.162-20.744 46.162-46.162s-20.719-46.161-46.162-46.161c-25.416 0-46.133 20.744-46.133 46.161s20.717 46.162 46.133 46.162zm-97.182 95.582h194.37c-9.058-45.386-49.121-79.582-97.188-79.582-48.041 0-88.101 34.197-97.182 79.582zm8.532-400.86v26.203h26.202zm117.785 40.575c0 6.367-5.168 11.535-11.535 11.535-6.38 0-11.548-5.168-11.548-11.535 0-6.38 5.168-11.548 11.548-11.548 6.367 0 11.535 5.168 11.535 11.548zm-363.757 257.884h53.411c8.238 0 14.969 6.731 14.969 14.969v53.411c0 8.238-6.731 14.969-14.969 14.969h-53.411c-8.238 0-14.969-6.731-14.969-14.969v-53.411c0-8.238 6.731-14.969 14.969-14.969zm1.031 16v51.349h51.349v-51.349zm5.805 29.957c-3.125-3.119-3.13-8.188-.011-11.314 3.119-3.125 8.188-3.13 11.314-.011 0 0 5.428 5.418 5.428 5.418l11.112-13.742c2.777-3.433 7.818-3.967 11.251-1.191 3.434 2.777 3.967 7.818 1.191 11.251l-16.697 20.649c-1.425 1.763-3.532 2.838-5.795 2.959-2.264.12-4.472-.725-6.077-2.326zm86.846-12.713c-4.416 0-8-3.585-8-8s3.584-8 8-8h95.973c4.415 0 8 3.585 8 8s-3.585 8-8 8zm0-93.724c-4.416 0-8-3.584-8-8 0-4.415 3.584-8 8-8h95.973c4.415 0 8 3.585 8 8 0 4.416-3.585 8-8 8zm0 126.585c-4.416 0-8-3.585-8-8 0-4.416 3.584-8 8-8h122.305c4.415 0 8 3.584 8 8 0 4.415-3.585 8-8 8zm-93.682-159.829h53.411c8.238 0 14.969 6.731 14.969 14.969v53.411c0 8.238-6.731 14.969-14.969 14.969h-53.411c-8.238 0-14.969-6.731-14.969-14.969v-53.411c0-8.238 6.731-14.969 14.969-14.969zm1.031 16v51.349h51.349v-51.349zm5.805 29.957c-3.125-3.119-3.13-8.188-.011-11.313 3.119-3.126 8.188-3.131 11.314-.012 0 0 5.428 5.418 5.428 5.418l11.112-13.742c2.777-3.433 7.818-3.967 11.251-1.19 3.434 2.776 3.967 7.817 1.191 11.25l-16.697 20.649c-1.425 1.763-3.532 2.838-5.795 2.959-2.264.121-4.472-.725-6.077-2.326zm86.846 20.148c-4.416 0-8-3.585-8-8 0-4.416 3.584-8 8-8h152.305c4.415 0 8 3.584 8 8 0 4.415-3.585 8-8 8zm-30.309-178.1-19.8-.767c-3.323-.128-6.22-2.299-7.276-5.452s-.052-6.631 2.522-8.735l82.42-67.377c2.946-2.409 7.181-2.409 10.127 0l82.42 67.377c2.574 2.104 3.579 5.582 2.522 8.735-1.056 3.153-3.953 5.324-7.276 5.452l-19.8.767v88.702c0 4.419-3.582 8-8 8h-109.859c-4.418 0-8-3.581-8-8zm109.859-4.247-46.929-38.364-46.93 38.364v84.949h18.289v-57.473c0-4.419 3.582-8 8-8h41.281c4.418 0 8 3.581 8 8v57.473h18.289zm-59.57 84.949h25.281v-49.473h-25.281zm17.704-139.84 52.986 43.315 2.952-.114s-61.001-49.868-61.001-49.868l-61.002 49.868 2.952.114 52.986-43.315c2.946-2.408 7.181-2.408 10.127 0z"/></g></svg>