<?xml version="1.0"?>
<svg xmlns="http://www.w3.org/2000/svg" id="Icons" viewBox="0 0 60 60"><path d="M30,0A30,30,0,1,0,60,30,30.034,30.034,0,0,0,30,0Zm0,58A28,28,0,1,1,58,30,28.032,28.032,0,0,1,30,58Z"/><path d="M47.529,13.877,13.878,47.528a2.014,2.014,0,0,0-.587,1.546,1.969,1.969,0,0,0,.752,1.435A25.917,25.917,0,0,0,30.026,56c.712,0,1.428-.029,2.144-.087A25.982,25.982,0,0,0,50.509,14.043a1.969,1.969,0,0,0-1.435-.752A2.014,2.014,0,0,0,47.529,13.877ZM44,39a9.006,9.006,0,0,1-8.321,8.966c.09-.074.184-.139.272-.216a1,1,0,0,0-1.322-1.5,6.652,6.652,0,0,1-2.548,1.42l-.015.008a.17.17,0,0,0-.022,0,6.751,6.751,0,0,1-4.062.007c-.009,0-.018,0-.028,0l-.009,0a6.806,6.806,0,0,1-2.574-1.431,1,1,0,0,0-1.322,1.5c.086.076.18.14.269.213a8.984,8.984,0,0,1-5.565-2.484l9-9.013A4.908,4.908,0,0,0,29,36.887v5.929A3,3,0,0,1,27,40a1,1,0,0,0-2,0,5.009,5.009,0,0,0,4,4.9V45a1,1,0,0,0,2,0v-.1A5,5,0,0,0,30,35a2.982,2.982,0,0,1-.688-.089l3.6-3.6A2.955,2.955,0,0,1,33,32a1,1,0,0,0,2,0,4.93,4.93,0,0,0-.536-2.246l3.015-3.018C40.6,29.437,44,33.614,44,39ZM33,40a3,3,0,0,1-2,2.816V37.184A3,3,0,0,1,33,40Zm20.918-7.991a24.141,24.141,0,0,1-21.91,21.909,23.9,23.9,0,0,1-16.717-4.975l2.05-2.051A10.986,10.986,0,0,0,25,50a12.6,12.6,0,0,0,2.686-.311,8.791,8.791,0,0,0,4.7-.019A10.949,10.949,0,0,0,46,39c0-6.07-3.687-10.695-7.1-13.68L48.933,15.273A23.962,23.962,0,0,1,53.918,32.009Z"/><path d="M34.888,23.706,46.122,12.472a2.014,2.014,0,0,0,.587-1.546,1.969,1.969,0,0,0-.752-1.435A25.982,25.982,0,0,0,9.491,45.957a1.969,1.969,0,0,0,1.435.752c.041,0,.082,0,.122,0a2.013,2.013,0,0,0,1.423-.59L34.885,23.708ZM16.053,39.737C16.032,39.492,16,39.248,16,39c0-8.549,8.805-14.132,10.269-15h5.507ZM25,22a1,1,0,0,1-1-1,.977.977,0,0,1,.307-.713A.959.959,0,0,1,25,20H35a.985.985,0,0,1,.58.193L33.775,22Zm1.076-7.709a.9.9,0,0,1,.076-.863A.962.962,0,0,1,26.97,13H29v1.487a1,1,0,0,0,2,0V12l0-2h2.8a.638.638,0,0,1,.61.822L32.258,18H27.665ZM11.067,44.727A23.983,23.983,0,0,1,27.991,6.082Q28.984,6,29.973,6a23.958,23.958,0,0,1,14.74,5.046l0,.009h0L37,18.776A2.99,2.99,0,0,0,35,18h-.654l1.979-6.6A2.637,2.637,0,0,0,33.8,8H31a2,2,0,0,0-2,2l0,1H26.969a2.975,2.975,0,0,0-2.488,1.331,2.91,2.91,0,0,0-.243,2.75L25.49,18H25a3.015,3.015,0,0,0-3,3,3,3,0,0,0,1.364,2.509C20.022,25.9,14,31.266,14,39a10.776,10.776,0,0,0,.313,2.478Z"/></svg>
