<svg id="Layer_1" enable-background="new 0 0 512 512" viewBox="0 0 512 512" xmlns="http://www.w3.org/2000/svg"><path d="m492.172 346.837c-10.146-16.691-23.006-30.826-36.852-40.683 1.833-2.821 2.909-6.177 2.909-9.784 0-6.799-3.787-12.727-9.36-15.796l18.479-37.285c1.385-2.794.75-6.167-1.554-8.268-2.305-2.101-5.723-2.418-8.376-.783-13.38 8.252-15.744 6.449-20.925 2.497-3.45-2.632-7.895-6.007-14.927-7.418v-25.446l25.544 16.855c1.164.768 2.505 1.156 3.849 1.156 1.136 0 2.275-.277 3.312-.835 2.264-1.218 3.676-3.582 3.676-6.153v-55.448c0-2.348-1.179-4.539-3.139-5.832l-110.869-73.158-110.868-73.129c-2.333-1.54-5.361-1.54-7.695 0l-110.869 73.13-110.868 73.158c-1.96 1.293-3.139 3.484-3.139 5.832v55.448c0 2.571 1.412 4.934 3.676 6.153 2.265 1.219 5.014 1.096 7.16-.321l25.573-16.874v218.747c0 3.859 3.129 6.988 6.987 6.988h177.08c-.004.179-.014.357-.014.537v11.458c0 5.911 2.319 11.286 6.09 15.276-3.771 3.991-6.09 9.367-6.09 15.277v11.429c0 12.276 9.987 22.264 22.264 22.264h105.324c8.5 0 15.9-4.789 19.65-11.809 14.174 7.742 30.023 11.809 46.379 11.809 53.443 0 96.921-43.466 96.921-96.893 0-19.541-6.864-41.595-19.328-62.099zm-103.225-46.422c-2.231 0-4.045-1.814-4.045-4.045 0-2.193 1.852-4.046 4.045-4.046h49.741c.006 0 .012.001.017.001s.009-.001.014-.001h1.49c2.193 0 4.045 1.853 4.045 4.046 0 2.231-1.814 4.045-4.045 4.045zm57.578-46.582-12.15 24.515h-39.592l-12.15-24.515c7.97 1.202 13.154-1.903 18.507-5.987 3.827-2.921 6.851-5.227 13.439-5.227 6.587 0 9.611 2.306 13.438 5.227 5.354 4.085 10.545 7.191 18.508 5.987zm-432.05-90.625 107.728-71.085 107.021-70.591 107.019 70.59 107.729 71.086v38.704l-25.344-16.724c-.123-.087-.249-.169-.377-.249l-185.179-122.191c-1.168-.771-2.508-1.156-3.849-1.156s-2.682.386-3.849 1.156l-210.9 139.164v-38.704zm36.409 31.422 178.339-117.678 178.367 117.698v34.668c-7.033 1.412-11.478 4.786-14.928 7.418-5.181 3.952-7.546 5.755-20.924-2.497-2.656-1.638-6.071-1.319-8.376.783-2.304 2.1-2.938 5.473-1.554 8.268l18.479 37.285c-5.574 3.069-9.361 8.997-9.361 15.797 0 3.605 1.075 6.959 2.906 9.779-4.191 2.994-8.308 6.41-12.295 10.164.023-.715.055-1.429.055-2.15 0-32.968-24.406-60.337-56.099-65.006v-28.18c0-3.859-3.129-6.988-6.988-6.988h-138.535c-3.859 0-6.987 3.129-6.987 6.988v194.634h-102.099zm244.99 171.247c-28.515 0-51.713-23.199-51.713-51.714 0-28.531 23.198-51.741 51.713-51.741 28.531 0 51.742 23.21 51.742 51.741 0 28.516-23.211 51.714-51.742 51.714zm-60.936 75.704v-11.458c0-4.57 3.719-8.288 8.289-8.288h105.323c4.571 0 8.289 3.718 8.289 8.288v11.458c0 4.57-3.718 8.288-8.289 8.288h-105.323c-4.571 0-8.289-3.718-8.289-8.288zm121.901-41.982c0 4.555-3.718 8.261-8.289 8.261h-105.323c-4.57 0-8.289-3.705-8.289-8.261v-11.458c0-4.57 3.719-8.288 8.289-8.288h105.323c4.571 0 8.289 3.718 8.289 8.288zm-189.882 16.012v-187.646h124.56v20.642c-34.195 2.253-61.332 30.786-61.332 65.556 0 20.98 9.898 39.679 25.255 51.714h-12.214c-12.277 0-22.264 9.988-22.264 22.264v11.458c0 5.901 2.318 11.268 6.086 15.253-.234.248-.462.5-.684.759zm181.593 76.241h-105.323c-4.57 0-8.289-3.718-8.289-8.288v-11.429c0-4.571 3.719-8.289 8.289-8.289h105.323c4.571 0 8.289 3.718 8.289 8.289v10.979.01.44c0 4.57-3.718 8.288-8.289 8.288zm66.029 0c-15.589 0-30.64-4.306-43.764-12.475v-7.243c0-5.911-2.319-11.286-6.09-15.277 3.771-3.99 6.09-9.366 6.09-15.276v-11.458c0-5.908-2.318-11.282-6.086-15.272 3.769-3.985 6.086-9.352 6.086-15.253v-11.458c0-12.276-9.988-22.264-22.265-22.264h-12.224c5.765-4.516 10.757-9.968 14.747-16.132.714-.481 1.352-1.103 1.867-1.858 9.704-14.246 21.675-26.092 33.927-33.627.684.079 1.376.13 2.081.13h51.262c.701 0 1.39-.05 2.07-.128 30.656 18.782 55.245 60.648 55.245 94.672-.001 45.723-37.21 82.919-82.946 82.919zm-16.593-113.577c-1.317 1.502-2.071 3.691-2.071 6.005 0 1.41.396 8.444 8.225 8.444h2.829 15.22 2.829c14.574 0 22.201 11.279 22.201 22.42 0 5.738-1.966 11.142-5.536 15.216-4.071 4.646-9.99 7.205-16.665 7.205h-3.451v10.353c0 3.859-3.129 6.988-6.988 6.988s-6.988-3.129-6.988-6.988v-10.353h-18.643c-3.859 0-6.988-3.129-6.988-6.988s3.129-6.988 6.988-6.988h36.07c2.665 0 4.736-.821 6.154-2.439 1.317-1.503 2.071-3.691 2.071-6.006 0-1.409-.396-8.444-8.225-8.444h-2.829-15.22-2.829c-14.574 0-22.201-11.279-22.201-22.42 0-5.738 1.966-11.141 5.536-15.215 4.071-4.646 9.99-7.205 16.665-7.205h3.451v-10.353c0-3.859 3.129-6.988 6.988-6.988s6.988 3.129 6.988 6.988v10.353h18.671c3.859 0 6.988 3.129 6.988 6.988s-3.129 6.988-6.988 6.988h-36.098c-2.665 0-4.736.821-6.154 2.439zm-77.549-53.545c0 4.463-1.541 8.678-4.337 11.869-3.212 3.666-7.853 5.685-13.069 5.685h-.17v4.895c0 3.859-3.128 6.988-6.988 6.988s-6.988-3.129-6.988-6.988v-4.895h-10.579c-3.859 0-6.988-3.129-6.988-6.988s3.129-6.988 6.988-6.988h24.725c2.835 0 3.43-1.945 3.43-3.578s-.595-3.579-3.43-3.579h-1.952-10.411-1.951c-9.923 0-17.406-7.553-17.406-17.568 0-4.466 1.539-8.683 4.334-11.877 3.212-3.67 7.854-5.692 13.072-5.692h.169v-4.894c0-3.859 3.129-6.988 6.988-6.988s6.988 3.129 6.988 6.988v4.894h10.58c3.859 0 6.988 3.129 6.988 6.988s-3.129 6.988-6.988 6.988h-24.725c-2.835 0-3.431 1.953-3.431 3.592s.595 3.592 3.431 3.592h1.951 10.411 1.952c9.923.001 17.406 7.548 17.406 17.556z"/></svg>