<svg viewBox="0 0 64 64" xmlns="http://www.w3.org/2000/svg"><g id="multi_parcel_auction-land-seperate-star-auction-reserve" data-name="multi parcel auction-land-seperate-star-auction-reserve"><path d="m31.178 14.148h-8.792l.014-11.157a1.005 1.005 0 0 0 -1-1.008h-17.839a1 1 0 0 0 -1 1.006v23.037l.082 3.7a1.007 1.007 0 0 0 1.006.983h27.529a1 1 0 0 0 1.006-1v-14.556a1 1 0 0 0 -1.006-1.005zm-1.005 14.552h-25.547l-.06-2.7v-22h15.824l-.016 11.157a1 1 0 0 0 1.005 1.007h8.794z"/><path d="m60.439 32.7h-10.95a1 1 0 0 0 -1 .976l-.16 5.5-14.629.348a1 1 0 0 0 -.98 1.005v20.443a1 1 0 0 0 1 1h23.043l3.7-.08a1.006 1.006 0 0 0 .983-1.006v-27.186a1 1 0 0 0 -1.007-1zm-1.005 27.208-2.7.059h-22v-18.456l14.593-.353a1.007 1.007 0 0 0 .981-.976l.16-5.477h8.968z"/><path d="m4.7 32.208h-2.016v28.892a1 1 0 0 0 1.006 1h26.951v-2.01h-25.941z"/><path d="m59.321 30.634h2.01v-27.619a1 1 0 0 0 -1.005-1.005h-35.81v2.01h34.805z"/><path d="m10.632 43.765h2.01v2.01h-2.01z"/><path d="m6.611 43.765h2.01v2.01h-2.01z"/><path d="m14.653 43.765h2.01v2.01h-2.01z"/><path d="m22.694 43.765h2.01v2.01h-2.01z"/><path d="m18.673 43.765h2.01v2.01h-2.01z"/><path d="m26.715 43.765h2.01v2.01h-2.01z"/><path d="m38.212 22.122h2.01v2.01h-2.01z"/><path d="m38.212 18.101h2.01v2.01h-2.01z"/><path d="m38.212 34.184h2.01v2.01h-2.01z"/><path d="m38.212 30.163h2.01v2.01h-2.01z"/><path d="m38.212 26.142h2.01v2.01h-2.01z"/><path d="m38.212 14.08h2.01v2.01h-2.01z"/><path d="m38.212 6.039h2.01v2.01h-2.01z"/><path d="m38.212 10.059h2.01v2.01h-2.01z"/><path d="m18.878 15.414-3.528-.455-1.623-3.159a1 1 0 0 0 -1.8.028l-1.527 3.208-3.51.564a1 1 0 0 0 -.53 1.722l2.584 2.444-.544 3.517a1.006 1.006 0 0 0 1.474 1.037l3.126-1.705 3.173 1.605a1 1 0 0 0 1.441-1.082l-.656-3.5 2.508-2.522a1.006 1.006 0 0 0 -.584-1.706zm-3.722 3.186a1 1 0 0 0 -.275.894l.378 2.013-1.828-.924a1.01 1.01 0 0 0 -.935.014l-1.8.982.315-2.024a1 1 0 0 0 -.3-.885l-1.491-1.407 2.022-.326a1 1 0 0 0 .748-.562l.878-1.85.935 1.823a1.015 1.015 0 0 0 .766.538l2.031.262z"/><path d="m48.312 43.741a1.035 1.035 0 0 0 -.91-.547 1 1 0 0 0 -.892.575l-1.525 3.214-3.51.566a1 1 0 0 0 -.53 1.723l2.584 2.443-.545 3.514a1.005 1.005 0 0 0 1.475 1.037l3.122-1.7 3.173 1.605a1 1 0 0 0 1.446-1.087l-.656-3.5 2.508-2.521a1.005 1.005 0 0 0 -.585-1.706l-3.527-.456zm1.429 6.805a1 1 0 0 0 -.275.894l.378 2.014-1.828-.925a1.013 1.013 0 0 0 -.935.015l-1.8.981.319-2.025a1 1 0 0 0 -.3-.884l-1.489-1.408 2.022-.326a1 1 0 0 0 .748-.561l.878-1.851.935 1.822a1.007 1.007 0 0 0 .766.539l2.031.262z"/></g></svg>