<?xml version="1.0" encoding="UTF-8"?>
<svg xmlns="http://www.w3.org/2000/svg" id="Layer_1" data-name="Layer 1" viewBox="0 0 64 64" width="512" height="512"><path d="M38,61H26a1,1,0,0,1-1-1V54a1,1,0,0,1,1-1H38a1,1,0,0,1,1,1v6A1,1,0,0,1,38,61ZM27,59H37V55H27Z"/><path d="M12,21H8a1,1,0,0,1-1-1V16a1,1,0,0,1,1-1h4a1,1,0,0,1,1,1v4A1,1,0,0,1,12,21ZM9,19h2V17H9Z"/><path d="M20,21H16a1,1,0,0,1-1-1V16a1,1,0,0,1,1-1h4a1,1,0,0,1,1,1v4A1,1,0,0,1,20,21Zm-3-2h2V17H17Z"/><path d="M12,13H8a1,1,0,0,1-1-1V8A1,1,0,0,1,8,7h4a1,1,0,0,1,1,1v4A1,1,0,0,1,12,13ZM9,11h2V9H9Z"/><path d="M20,13H16a1,1,0,0,1-1-1V8a1,1,0,0,1,1-1h4a1,1,0,0,1,1,1v4A1,1,0,0,1,20,13Zm-3-2h2V9H17Z"/><path d="M12,37H8a1,1,0,0,1-1-1V32a1,1,0,0,1,1-1h4a1,1,0,0,1,1,1v4A1,1,0,0,1,12,37ZM9,35h2V33H9Z"/><path d="M20,37H16a1,1,0,0,1-1-1V32a1,1,0,0,1,1-1h4a1,1,0,0,1,1,1v4A1,1,0,0,1,20,37Zm-3-2h2V33H17Z"/><path d="M12,45H8a1,1,0,0,1-1-1V40a1,1,0,0,1,1-1h4a1,1,0,0,1,1,1v4A1,1,0,0,1,12,45ZM9,43h2V41H9Z"/><path d="M20,45H16a1,1,0,0,1-1-1V40a1,1,0,0,1,1-1h4a1,1,0,0,1,1,1v4A1,1,0,0,1,20,45Zm-3-2h2V41H17Z"/><path d="M28,45H24a1,1,0,0,1-1-1V40a1,1,0,0,1,1-1h4a1,1,0,0,1,1,1v4A1,1,0,0,1,28,45Zm-3-2h2V41H25Z"/><path d="M12,29H8a1,1,0,0,1-1-1V24a1,1,0,0,1,1-1h4a1,1,0,0,1,1,1v4A1,1,0,0,1,12,29ZM9,27h2V25H9Z"/><path d="M20,29H16a1,1,0,0,1-1-1V24a1,1,0,0,1,1-1h4a1,1,0,0,1,1,1v4A1,1,0,0,1,20,29Zm-3-2h2V25H17Z"/><path d="M32,49H4a1,1,0,0,1-1-1V4A1,1,0,0,1,4,3H24a1,1,0,0,1,1,1V36h5a1,1,0,0,1,1,.82l2,11a1,1,0,0,1-.21.82A1,1,0,0,1,32,49ZM5,47H30.8l-1.63-9H24a1,1,0,0,1-1-1V5H5Z"/><path d="M48,21H44a1,1,0,0,1-1-1V16a1,1,0,0,1,1-1h4a1,1,0,0,1,1,1v4A1,1,0,0,1,48,21Zm-3-2h2V17H45Z"/><path d="M56,21H52a1,1,0,0,1-1-1V16a1,1,0,0,1,1-1h4a1,1,0,0,1,1,1v4A1,1,0,0,1,56,21Zm-3-2h2V17H53Z"/><path d="M48,13H44a1,1,0,0,1-1-1V8a1,1,0,0,1,1-1h4a1,1,0,0,1,1,1v4A1,1,0,0,1,48,13Zm-3-2h2V9H45Z"/><path d="M56,13H52a1,1,0,0,1-1-1V8a1,1,0,0,1,1-1h4a1,1,0,0,1,1,1v4A1,1,0,0,1,56,13Zm-3-2h2V9H53Z"/><path d="M48,37H44a1,1,0,0,1-1-1V32a1,1,0,0,1,1-1h4a1,1,0,0,1,1,1v4A1,1,0,0,1,48,37Zm-3-2h2V33H45Z"/><path d="M56,37H52a1,1,0,0,1-1-1V32a1,1,0,0,1,1-1h4a1,1,0,0,1,1,1v4A1,1,0,0,1,56,37Zm-3-2h2V33H53Z"/><path d="M48,45H44a1,1,0,0,1-1-1V40a1,1,0,0,1,1-1h4a1,1,0,0,1,1,1v4A1,1,0,0,1,48,45Zm-3-2h2V41H45Z"/><path d="M40,45H36a1,1,0,0,1-1-1V40a1,1,0,0,1,1-1h4a1,1,0,0,1,1,1v4A1,1,0,0,1,40,45Zm-3-2h2V41H37Z"/><path d="M56,45H52a1,1,0,0,1-1-1V40a1,1,0,0,1,1-1h4a1,1,0,0,1,1,1v4A1,1,0,0,1,56,45Zm-3-2h2V41H53Z"/><path d="M48,29H44a1,1,0,0,1-1-1V24a1,1,0,0,1,1-1h4a1,1,0,0,1,1,1v4A1,1,0,0,1,48,29Zm-3-2h2V25H45Z"/><path d="M56,29H52a1,1,0,0,1-1-1V24a1,1,0,0,1,1-1h4a1,1,0,0,1,1,1v4A1,1,0,0,1,56,29Zm-3-2h2V25H53Z"/><path d="M60,49H32a1,1,0,0,1-.77-.36,1,1,0,0,1-.21-.82l2-11A1,1,0,0,1,34,36h5V4a1,1,0,0,1,1-1H60a1,1,0,0,1,1,1V48A1,1,0,0,1,60,49ZM33.2,47H59V5H41V37a1,1,0,0,1-1,1H34.83Z"/><path d="M60,61H4a1,1,0,0,1-1-1V48a1,1,0,0,1,1-1H60a1,1,0,0,1,1,1V60A1,1,0,0,1,60,61ZM5,59H59V49H5Z"/></svg>
