<svg id="Layer_5" enable-background="new 0 0 64 64" height="512" viewBox="0 0 64 64" width="512" xmlns="http://www.w3.org/2000/svg"><g><path d="m51 47h2v2h-2z"/><path d="m47 47h2v2h-2z"/><path d="m43 47h2v2h-2z"/><path d="m43 51h2v2h-2z"/><path d="m47 51h2v2h-2z"/><path d="m51 51h2v2h-2z"/><path d="m59 31v-11.414l-9-9-9 9v8.632l-4-3.555-5.328 4.736c-.517-.422-1.077-.779-1.672-1.075v-15.324c0-6.617-5.383-12-12-12s-12 5.383-12 12v15.304c-3.02 1.488-5 4.561-5 8.06v10.636c0 2.206 1.794 4 4 4h2v6h14 2 4v6h36v-32zm2 4h-10v-2h10zm-10 26h-6v-4h6zm-8-6v6h-2v-16h14v16h-2v-6zm10-12h-10v-2h10zm-2-12v-10h6v10zm4.586-12h-11.172l5.586-5.586zm-12.586 2h6v10 1 7h-2v-5.449l-4-3.555zm.37 12h-12.74l6.37-5.662zm-25.37-30c5.514 0 10 4.486 10 10v14.589l-5.226-1.206c-.456-.105-.774-.505-.774-.974v-.845c2.505-2.331 4-5.629 4-9.181v-2.383h-1c-2.312 0-4.486-.9-6.121-2.534l-.879-.882-.878.881c-1.636 1.635-3.81 2.535-6.122 2.535h-1v2.384c0 3.552 1.495 6.85 4 9.181v.845c0 .469-.318.869-.775.974l-5.225 1.205v-14.589c0-5.514 4.486-10 10-10zm3 36v4h-12v-4zm-3.3-2-1.459-4h3.52l-1.461 4zm2.789-6h-4.979l-1.081-2.963c.766-.414 1.313-1.136 1.496-1.994.532.33 1.093.624 1.68.876l.395.169.394-.169c.588-.252 1.148-.546 1.68-.876.183.858.73 1.58 1.496 1.994zm-2.489-6.098c-3.659-1.747-6-5.438-6-9.519v-.43c2.227-.206 4.31-1.099 6-2.574 1.69 1.476 3.773 2.368 6 2.574v.43c0 4.082-2.341 7.772-6 9.519zm-15 22.098v-10.636c0-3.279 2.231-6.084 5.426-6.82l4.08-.942 3.065 8.398h-8.571v8h14c1.103 0 2 .897 2 2s-.897 2-2 2h-16c-1.103 0-2-.897-2-2zm6 8v-4h12v4zm14 0v-4.556c1.19-.694 2-1.97 2-3.444 0-1.478-.805-2.771-2-3.463v-6.537h-2.571l3.064-8.398 4.081.942c.941.217 1.818.628 2.587 1.197l-3.161 2.81v21.449zm6-20h16v4h-4v4h-2v18h-10zm28 26v-18h-2v-4h-4v-2h10v24z"/><path d="m53 23h2v2h-2z"/><path d="m53 27h2v2h-2z"/><path d="m45 27h2v2h-2z"/><path d="m45 23h2v2h-2z"/><path d="m35 37h2v2h-2z"/><path d="m31 37h2v2h-2z"/><path d="m31 41h2v2h-2z"/><path d="m35 41h2v2h-2z"/><path d="m31 45h2v2h-2z"/><path d="m35 45h2v2h-2z"/><path d="m31 49h2v2h-2z"/><path d="m35 49h2v2h-2z"/><path d="m31 53h2v2h-2z"/><path d="m35 53h2v2h-2z"/><path d="m31 57h2v2h-2z"/><path d="m35 57h2v2h-2z"/></g></svg>