<?xml version="1.0" encoding="iso-8859-1"?>
<!-- Generator: Adobe Illustrator 19.0.0, SVG Export Plug-In . SVG Version: 6.00 Build 0)  -->
<svg version="1.1" id="Capa_1" xmlns="http://www.w3.org/2000/svg" xmlns:xlink="http://www.w3.org/1999/xlink" x="0px" y="0px"
	 viewBox="0 0 512 512" style="enable-background:new 0 0 512 512;" xml:space="preserve">
<g>
	<g>
		<path d="M185.808,190.846l-55.801-23.22c-5.8-2.413-12.193-2.423-18.001-0.029c-5.808,2.396-10.336,6.909-12.749,12.709
			l-12.574,42.731l90.351,37.598l21.096-38.295l0.357-0.74C203.47,209.624,197.782,195.829,185.808,190.846z M184.703,215.485
			l-14.35,26.05l-65.413-27.222l8.366-28.538c0.896-1.932,2.462-3.432,4.442-4.248c2.087-0.861,4.385-0.857,6.469,0.011
			l55.801,23.22c2.084,0.867,3.707,2.494,4.567,4.582C185.403,211.319,185.441,213.488,184.703,215.485z"/>
	</g>
</g>
<g>
	<g>
		<path d="M59.51,293.464l-11.673,28.053c-3.479,8.36-3.495,17.575-0.042,25.948c3.451,8.371,9.956,14.898,18.317,18.377
			l24.112,10.033c4.199,1.748,8.61,2.621,13.024,2.621c4.377,0,8.755-0.859,12.923-2.578c8.371-3.452,14.899-9.957,18.377-18.317
			l11.674-28.054L59.51,293.464z M120.637,351.812c-1.933,4.645-5.559,8.26-10.21,10.177c-4.652,1.917-9.771,1.91-14.415-0.024
			l-24.113-10.034c-4.645-1.933-8.259-5.558-10.176-10.209c-1.917-4.653-1.909-9.772,0.025-14.415l5.885-14.143l58.889,24.505
			L120.637,351.812z"/>
	</g>
</g>
<g>
	<g>
		<path d="M242.233,151.576c-0.576-1.396-1.214-2.752-1.883-4.089c-0.569-1.134-1.164-2.249-1.798-3.338
			c-6.575-11.31-16.597-20.131-28.883-25.244l-45.443-18.909c-0.95-0.396-1.907-0.764-2.869-1.109
			c-0.115-0.041-0.229-0.074-0.344-0.115c-0.859-0.302-1.721-0.59-2.588-0.852c-0.002-0.001-0.005-0.001-0.007-0.002
			c-13.247-4.008-27.352-3.344-40.32,2.002c-12.945,5.337-23.403,14.784-29.979,26.933c-0.014,0.026-0.029,0.05-0.043,0.076
			c-0.415,0.769-0.809,1.553-1.191,2.342c-0.066,0.137-0.14,0.269-0.206,0.407c-0.438,0.921-0.857,1.855-1.252,2.805l-6.929,16.65
			l-15.794,56.259L3.786,346.979c-5.027,12.081-5.049,25.397-0.061,37.495c4.988,12.097,14.388,21.529,26.47,26.557l53.286,22.174
			c6.132,2.551,12.494,3.76,18.757,3.76c19.204-0.001,37.468-11.363,45.294-30.169l58.919-141.587l28.779-50.856l6.928-16.649
			C248.342,182.84,248.369,166.459,242.233,151.576z M103.286,130.823c0.269-0.411,0.545-0.815,0.827-1.214
			c0.058-0.082,0.115-0.165,0.174-0.247c10.032-14.046,27.39-21.198,44.405-18.282c0.063,0.011,0.127,0.022,0.19,0.033
			c0.516,0.09,1.033,0.19,1.549,0.299c0.017,0.004,0.034,0.008,0.051,0.011c-10.169,15.57-29.06,23.366-47.249,19.48
			C103.252,130.878,103.269,130.85,103.286,130.823z M221.668,207.723l-28.779,50.855l-59.268,142.428
			c-3.482,8.366-10.012,14.875-18.389,18.329c-8.376,3.454-17.598,3.44-25.963-0.042l-53.286-22.174
			c-8.365-3.481-14.874-10.012-18.329-18.388c-3.453-8.377-3.438-17.598,0.042-25.963L76.966,210.34l15.794-56.258l3.872-9.305
			c5.283,1.46,10.635,2.181,15.933,2.181c21.22,0,41.499-11.28,52.387-30.34l32.422,13.491
			c-7.307,26.439,4.347,54.704,28.165,68.311L221.668,207.723z M231.734,174.972c-0.005,0.485-0.018,0.971-0.038,1.456
			c-0.008,0.192-0.014,0.383-0.024,0.574c-0.036,0.661-0.084,1.322-0.15,1.982c-0.006,0.064-0.016,0.128-0.023,0.192
			c-0.062,0.598-0.138,1.194-0.225,1.789c-0.03,0.205-0.063,0.41-0.096,0.615c-0.075,0.473-0.159,0.944-0.249,1.416
			c-0.04,0.207-0.078,0.413-0.122,0.62c-0.024,0.115-0.053,0.229-0.078,0.344c-15.571-10.168-23.359-29.061-19.482-47.248
			c0.059,0.038,0.121,0.074,0.179,0.114c0.828,0.543,1.635,1.113,2.421,1.708c0.163,0.123,0.32,0.251,0.481,0.377
			c0.684,0.532,1.351,1.082,2.002,1.651c0.138,0.121,0.279,0.237,0.416,0.36c0.729,0.655,1.435,1.336,2.119,2.037
			c0.157,0.161,0.309,0.326,0.464,0.489c0.603,0.637,1.189,1.29,1.755,1.962c0.095,0.114,0.196,0.223,0.29,0.337
			c0.626,0.759,1.222,1.544,1.799,2.346c0.138,0.192,0.272,0.387,0.408,0.582c0.527,0.759,1.038,1.533,1.52,2.326
			c0.048,0.078,0.099,0.155,0.148,0.234c0.514,0.858,0.993,1.742,1.453,2.639c0.111,0.216,0.219,0.434,0.326,0.652
			c0.451,0.915,0.884,1.842,1.277,2.794c0.26,0.632,0.501,1.268,0.732,1.906c0.069,0.192,0.135,0.386,0.202,0.579
			c0.161,0.464,0.314,0.929,0.459,1.395c0.063,0.204,0.128,0.408,0.188,0.612c0.16,0.54,0.309,1.083,0.448,1.626
			c0.028,0.109,0.059,0.217,0.086,0.326c0.162,0.651,0.305,1.304,0.438,1.958c0.035,0.174,0.064,0.348,0.097,0.522
			c0.093,0.492,0.179,0.985,0.255,1.48c0.032,0.21,0.063,0.42,0.093,0.63c0.071,0.505,0.133,1.013,0.186,1.519
			c0.017,0.162,0.038,0.322,0.053,0.484c0.062,0.661,0.111,1.322,0.144,1.984c0.007,0.137,0.008,0.274,0.014,0.411
			c0.021,0.53,0.034,1.061,0.036,1.591C231.738,174.55,231.736,174.761,231.734,174.972z"/>
	</g>
</g>
<g>
	<g>
		<path d="M450.992,190.846l-55.801-23.22c-5.801-2.413-12.193-2.423-18.001-0.029c-5.808,2.396-10.336,6.909-12.749,12.709
			l-12.574,42.731l90.351,37.598l21.096-38.295l0.357-0.74C468.654,209.624,462.966,195.829,450.992,190.846z M449.887,215.485
			l-14.35,26.05l-65.413-27.222l8.366-28.538c0.896-1.932,2.462-3.432,4.442-4.248c2.087-0.861,4.385-0.857,6.469,0.011
			l55.801,23.22c2.084,0.867,3.707,2.494,4.567,4.582C450.587,211.319,450.625,213.488,449.887,215.485z"/>
	</g>
</g>
<g>
	<g>
		<path d="M324.694,293.464l-11.673,28.053c-3.479,8.36-3.495,17.575-0.042,25.948c3.451,8.371,9.956,14.898,18.317,18.377
			l24.112,10.033c4.199,1.748,8.61,2.621,13.024,2.621c4.377,0,8.755-0.859,12.923-2.578c8.371-3.452,14.899-9.957,18.377-18.317
			l11.674-28.054L324.694,293.464z M385.821,351.812c-1.933,4.645-5.559,8.26-10.21,10.177c-4.652,1.917-9.77,1.91-14.415-0.024
			l-24.113-10.034c-4.645-1.933-8.259-5.558-10.176-10.209c-1.917-4.653-1.909-9.772,0.025-14.415l5.885-14.143l58.889,24.505
			L385.821,351.812z"/>
	</g>
</g>
<g>
	<g>
		<path d="M507.417,151.576c-0.576-1.396-1.214-2.752-1.883-4.089c-0.569-1.134-1.164-2.249-1.798-3.338
			c-6.575-11.31-16.597-20.131-28.883-25.244L429.41,99.995c-0.95-0.396-1.907-0.764-2.869-1.109
			c-0.115-0.041-0.23-0.074-0.344-0.115c-0.859-0.302-1.72-0.59-2.587-0.852c-0.004-0.001-0.007-0.002-0.011-0.003
			c-13.246-4.007-27.35-3.343-40.316,2.003c-12.945,5.337-23.404,14.784-29.979,26.933c-0.014,0.026-0.029,0.05-0.043,0.076
			c-0.415,0.769-0.809,1.553-1.191,2.342c-0.066,0.137-0.14,0.269-0.206,0.407c-0.438,0.921-0.857,1.855-1.252,2.805l-6.929,16.65
			l-15.795,56.259l-58.918,141.586c-5.027,12.081-5.049,25.397-0.061,37.495c4.988,12.097,14.388,21.529,26.47,26.557l53.286,22.174
			c6.132,2.551,12.494,3.76,18.757,3.76c19.204-0.001,37.468-11.363,45.294-30.169l58.919-141.587l28.779-50.855l6.928-16.649
			C513.526,182.84,513.553,166.459,507.417,151.576z M368.47,130.823c0.269-0.411,0.545-0.815,0.827-1.214
			c0.058-0.082,0.115-0.165,0.174-0.247c10.032-14.046,27.39-21.198,44.405-18.282c0.063,0.011,0.127,0.022,0.19,0.033
			c0.516,0.09,1.033,0.19,1.549,0.299c0.017,0.004,0.034,0.008,0.051,0.011c-10.169,15.57-29.06,23.366-47.249,19.48
			C368.436,130.878,368.453,130.85,368.47,130.823z M486.852,207.724l-28.779,50.855l-59.268,142.427
			c-3.482,8.366-10.012,14.875-18.389,18.329c-8.376,3.454-17.598,3.44-25.963-0.042l-53.286-22.174
			c-8.365-3.481-14.874-10.012-18.329-18.388c-3.453-8.377-3.438-17.598,0.042-25.963L342.15,210.34l15.794-56.258l3.872-9.305
			c5.283,1.46,10.635,2.181,15.933,2.181c21.22,0,41.499-11.28,52.387-30.34l32.422,13.491
			c-7.307,26.439,4.347,54.704,28.165,68.311L486.852,207.724z M496.915,174.973c-0.005,0.485-0.018,0.971-0.038,1.456
			c-0.008,0.192-0.014,0.383-0.024,0.574c-0.036,0.661-0.084,1.322-0.15,1.982c-0.006,0.064-0.016,0.128-0.023,0.192
			c-0.062,0.598-0.138,1.194-0.225,1.789c-0.03,0.205-0.063,0.41-0.096,0.615c-0.075,0.473-0.159,0.944-0.249,1.416
			c-0.04,0.207-0.078,0.413-0.122,0.62c-0.024,0.115-0.053,0.229-0.078,0.344c-15.57-10.169-23.358-29.061-19.481-47.248
			c0.059,0.038,0.121,0.074,0.179,0.114c0.828,0.543,1.635,1.113,2.421,1.708c0.163,0.123,0.32,0.251,0.481,0.377
			c0.684,0.532,1.351,1.082,2.002,1.651c0.138,0.121,0.279,0.237,0.416,0.36c0.729,0.655,1.435,1.336,2.119,2.037
			c0.157,0.161,0.309,0.325,0.464,0.489c0.603,0.637,1.189,1.29,1.755,1.962c0.095,0.114,0.196,0.223,0.29,0.338
			c0.626,0.759,1.222,1.544,1.799,2.345c0.138,0.192,0.272,0.387,0.408,0.582c0.527,0.759,1.038,1.533,1.52,2.326
			c0.048,0.078,0.099,0.155,0.148,0.234c0.514,0.858,0.993,1.742,1.453,2.639c0.11,0.216,0.219,0.434,0.326,0.652
			c0.451,0.915,0.884,1.842,1.277,2.794c0.26,0.632,0.501,1.268,0.732,1.906c0.069,0.192,0.135,0.386,0.202,0.579
			c0.161,0.464,0.314,0.929,0.459,1.395c0.063,0.204,0.128,0.408,0.188,0.612c0.16,0.54,0.309,1.083,0.448,1.626
			c0.028,0.108,0.059,0.217,0.086,0.325c0.162,0.651,0.305,1.304,0.438,1.958c0.035,0.174,0.064,0.348,0.097,0.522
			c0.093,0.492,0.179,0.985,0.255,1.48c0.032,0.21,0.063,0.42,0.093,0.63c0.071,0.505,0.133,1.013,0.186,1.519
			c0.017,0.162,0.038,0.322,0.053,0.484c0.062,0.661,0.11,1.322,0.144,1.984c0.007,0.137,0.008,0.274,0.014,0.411
			c0.021,0.53,0.034,1.061,0.036,1.591C496.919,174.551,496.917,174.762,496.915,174.973z"/>
	</g>
</g>
<g>
	<g>
		
			<rect x="331.817" y="32.077" transform="matrix(0.3611 -0.9325 0.9325 0.3611 179.8702 341.7587)" width="15.067" height="15.067"/>
	</g>
</g>
<g>
	<g>
		
			<rect x="342.696" y="3.974" transform="matrix(0.3611 -0.9325 0.9325 0.3611 213.0277 333.9487)" width="15.067" height="15.067"/>
	</g>
</g>
<g>
	<g>
		
			<rect x="153.439" y="492.959" transform="matrix(0.3611 -0.9325 0.9325 0.3611 -363.8778 469.8703)" width="15.067" height="15.067"/>
	</g>
</g>
<g>
	<g>
		
			<rect x="164.318" y="464.845" transform="matrix(0.3611 -0.9325 0.9325 0.3611 -330.7098 462.054)" width="15.067" height="15.067"/>
	</g>
</g>
<g>
	<g>
		
			<rect x="46.159" y="248.435" transform="matrix(0.361 -0.9326 0.9326 0.361 -75.3775 401.9326)" width="418.884" height="15.068"/>
	</g>
</g>
<g>
	<g>
		
			<rect x="32.376" y="364.641" transform="matrix(0.3842 -0.9232 0.9232 0.3842 -321.8138 267.8803)" width="15.067" height="21.093"/>
	</g>
</g>
<g>
	<g>
		
			<rect x="95.44" y="390.916" transform="matrix(0.3842 -0.9233 0.9233 0.3842 -307.2413 342.2989)" width="15.068" height="21.095"/>
	</g>
</g>
<g>
	<g>
		
			<rect x="297.545" y="364.635" transform="matrix(0.3842 -0.9232 0.9232 0.3842 -158.5215 512.6917)" width="15.067" height="21.093"/>
	</g>
</g>
<g>
	<g>
		
			<rect x="360.626" y="390.925" transform="matrix(0.3842 -0.9233 0.9233 0.3842 -143.9431 587.1411)" width="15.068" height="21.095"/>
	</g>
</g>
<g>
</g>
<g>
</g>
<g>
</g>
<g>
</g>
<g>
</g>
<g>
</g>
<g>
</g>
<g>
</g>
<g>
</g>
<g>
</g>
<g>
</g>
<g>
</g>
<g>
</g>
<g>
</g>
<g>
</g>
</svg>
