<svg height="512" viewBox="0 0 64 64" width="512" xmlns="http://www.w3.org/2000/svg"><g id="id_card-building-file" data-name="id card-building-file"><path d="m7 20h2v2h-2z"/><path d="m11 20h2v2h-2z"/><path d="m7 24h2v2h-2z"/><path d="m11 24h2v2h-2z"/><path d="m7 28h2v2h-2z"/><path d="m11 28h2v2h-2z"/><path d="m7 32h2v2h-2z"/><path d="m11 32h2v2h-2z"/><path d="m51 20h2v2h-2z"/><path d="m55 20h2v2h-2z"/><path d="m19 10h2v2h-2z"/><path d="m23 10h2v2h-2z"/><path d="m19 14h2v2h-2z"/><path d="m23 14h2v2h-2z"/><path d="m19 18h2v2h-2z"/><path d="m23 18h2v2h-2z"/><path d="m27 10h2v2h-2z"/><path d="m31 10h2v2h-2z"/><path d="m27 14h2v2h-2z"/><path d="m31 14h2v2h-2z"/><path d="m27 18h2v2h-2z"/><path d="m35 10h2v2h-2z"/><path d="m39 10h2v2h-2z"/><path d="m35 14h2v2h-2z"/><path d="m39 14h2v2h-2z"/><path d="m35 18h2v2h-2z"/><path d="m39 18h2v2h-2z"/><path d="m43 10h2v2h-2z"/><path d="m43 14h2v2h-2z"/><path d="m43 18h2v2h-2z"/><path d="m31 18h2v2h-2z"/><path d="m61.71 29.29-.71-.7v-11.59a1 1 0 0 0 -1-1h-7v-9a1 1 0 0 0 -1-1h-4v-3a1 1 0 0 0 -1-1h-30a1 1 0 0 0 -1 1v3h-4a1 1 0 0 0 -1 1v9h-7a1 1 0 0 0 -1 1v39a1 1 0 0 0 -1 1v4a1 1 0 0 0 1 1h58a1 1 0 0 0 1-1v-31a1.033 1.033 0 0 0 -.29-.71zm-2.71-11.29v8.59l-3.29-3.3a1.033 1.033 0 0 0 -.71-.29h-6v-5zm-.41 11h-2.59v-2.59zm-40.59-25h28v2h-28zm-5 4h38v8h-3a1 1 0 0 0 -1 1v6h-16a1 1 0 0 0 -1 1v12h-3v-3a1 1 0 0 0 -1-1h-6a1 1 0 0 0 -1 1v3h-2v-19a1 1 0 0 0 -1-1h-3zm9 32h2a3.01 3.01 0 0 0 2.82-2h11.18v18h-30v-18h11.18a3.01 3.01 0 0 0 2.82 2zm-1-3v-3h4v3a1 1 0 0 1 -1 1h-2a1 1 0 0 1 -1-1zm-16-19h10v18h-8a1 1 0 0 0 -1 1v19h-1zm25 42h-26v-2h26zm30 0h-28v-2h7a1 1 0 0 0 1-1v-2h17v-2h-17v-3h17v-2h-17v-3h17v-2h-17v-3h17v-2h-17v-1a1 1 0 0 0 -1-1h-7v-11h22v5a1 1 0 0 0 1 1h5z"/><path d="m35 28h10v2h-10z"/><path d="m35 33h22v2h-22z"/><path d="m22 41h-12a1 1 0 0 0 -1 1v12a1 1 0 0 0 1 1h12a1 1 0 0 0 1-1v-12a1 1 0 0 0 -1-1zm-4 12h-4v-1a2 2 0 0 1 4 0zm-3-6a1 1 0 1 1 1 1 1 1 0 0 1 -1-1zm6 6h-1v-1a3.986 3.986 0 0 0 -1.62-3.2 2.968 2.968 0 0 0 .62-1.8 3 3 0 0 0 -6 0 2.968 2.968 0 0 0 .62 1.8 3.986 3.986 0 0 0 -1.62 3.2v1h-1v-10h10z"/><path d="m25 44h11v2h-11z"/><path d="m25 48h5v2h-5z"/><path d="m32 48h4v2h-4z"/><path d="m22 35h2v2h-2z"/></g></svg>