<svg id="Capa_1" enable-background="new 0 0 512 512" height="512" viewBox="0 0 512 512" width="512" xmlns="http://www.w3.org/2000/svg"><g><g><path d="m511.968 190.818c-.905-50.598-21.111-98.177-56.897-133.975-75.785-75.79-199.101-75.791-274.89.001-68.352 68.375-75.049 175.428-20.09 251.382l-13.2 13.202c-4.054-3.429-9.136-5.297-14.505-5.297-6.014 0-11.665 2.344-15.907 6.594l-39.667 39.675c-2.93 2.931-2.93 7.681 0 10.612 2.929 2.929 7.679 2.929 10.608 0l13.18-13.183 51.543 51.553-56.701 56.712-51.541-51.551 20.403-20.401c2.93-2.929 2.93-7.68.001-10.611-2.93-2.93-7.679-2.931-10.609-.001l-38.757 38.753c-19.924 19.111-19.919 53.512-.002 72.627 19.08 20.058 53.605 20.135 72.761.15l101.535-101.556c8.219-7.882 8.788-21.891 1.302-30.422l13.208-13.21c66.842 49.75 165.475 48.787 231.327-2.621 3.298-2.507 3.94-7.215 1.433-10.513-2.507-3.299-7.214-3.94-10.512-1.433-70.955 53.941-172.071 47.006-235.203-16.128-69.928-69.951-69.928-183.771-.001-253.721 69.939-69.943 183.736-69.94 253.673-.001 68.462 68.485 70.576 177.739 4.813 248.725-2.816 3.039-2.635 7.787.404 10.603 3.04 2.818 7.785 2.635 10.601-.404 34.236-36.954 52.592-85.096 51.69-135.561zm-486.42 295.48c-13.991-13.638-14.102-37.878 0-51.404l7.744-7.743 51.543 51.553-7.744 7.745c-18.685 15.154-37.045 13.982-51.543-.151zm153.084-101.41-15.879 15.882-51.543-51.553 15.883-15.886c2.788-2.912 7.811-2.904 10.601.005l40.938 40.944c2.909 2.795 2.916 7.816 0 10.608zm13.222-42.345-11.868 11.871-22.428-22.432 11.865-11.867c6.79 8.001 14.408 15.625 22.431 22.428z"/><path d="m199.633 92.93c-3.27-2.544-7.983-1.953-10.526 1.318-48.95 62.959-44.796 152.276 8.849 210.578 63.841 70.063 176.375 70.077 240.234.032 58.907-63.96 57.344-163.938-4.692-225.986-57.329-59.492-158.61-63.739-220.658-9.347-3.164 2.676-3.56 7.41-.885 10.574 2.673 3.161 7.407 3.56 10.571.885 58.298-49.301 146.307-45.568 200.363 8.499 53.943 53.953 57.534 139.488 10.775 197.646-17.3-24.828-46.406-39.184-77.005-38.089v-17.342c19.279-12.852 31.086-34.697 31.086-58.027v-41.447c0-38.42-31.251-69.676-69.663-69.676-37.444-.779-70.428 32.237-69.654 69.676v41.447c0 23.33 11.807 45.176 31.086 58.027v17.342c-30.598-1.095-59.701 13.259-77.002 38.085-42.475-52.871-43.946-129.153-1.563-183.667 2.544-3.27 1.954-7.984-1.316-10.528zm76.151 171.116h11.232c4.143 0 7.501-3.359 7.501-7.503v-29.011c0-2.679-1.428-5.155-3.747-6.496-16.863-9.75-27.339-27.898-27.339-47.365v-41.447c0-29.082 28.427-54.67 54.651-54.67 30.14 0 54.66 24.525 54.66 54.67v41.447c0 19.467-10.476 37.615-27.339 47.365-2.319 1.34-3.747 3.817-3.747 6.496v29.011c0 4.144 3.359 7.503 7.501 7.503 29.185-2.381 58.645 9.232 74.181 34.637-57.82 58.392-152.684 58.392-210.505 0 13.619-21.493 37.272-34.637 62.951-34.637z"/><path d="m318.094 124.16c12.889-.02 23.695 10.229 24.348 23.087 1.015 13.579-10.76 26.002-24.355 25.702-4.143 0-7.501 3.359-7.501 7.503v33.354c0 4.144 3.358 7.503 7.501 7.503s7.501-3.359 7.501-7.503v-26.556c18.751-3.278 33.23-21.654 31.836-40.78-1.063-20.505-17.987-36.892-38.529-37.306-21.862-.655-40.369 17.563-40.201 39.392 0 4.144 3.359 7.503 7.501 7.503 4.143 0 7.502-3.359 7.502-7.503-.112-13.346 11.066-24.497 24.397-24.396z"/></g><path d="m317.628 251.52c-4.143 0-7.501-3.359-7.501-7.503s3.358-7.503 7.501-7.503 7.501 3.359 7.501 7.503-3.358 7.503-7.501 7.503z"/></g></svg>