<svg enable-background="new 0 0 512 512" height="512" viewBox="0 0 512 512" width="512" xmlns="http://www.w3.org/2000/svg"><g id="_x38_00_x2C__Exchange_x2C__Replace_x2C__Transfer_x2C__User"><g><path d="m196.985 336.006h-.985c-3.492 0-6.73 1.821-8.544 4.805-6.519 10.72-21.114 32.333-30.672 46.352-9.076-15.581-23.608-39.346-32.751-48.301-1.869-1.83-4.381-2.855-6.997-2.855-1.282.262-39.726-2.984-67.434 29.929-15.22 18.076-23.602 42.961-23.602 70.07v39.994c0 5.522 4.477 10 10 10h241.034c5.522 0 10-4.478 10-10v-39.994c0-27.133-8.284-52.006-23.327-70.036-16.555-19.844-39.643-30.19-66.722-29.964zm70.049 129.994h-21.034v-30c0-5.522-4.477-10-10-10s-10 4.478-10 10v30h-140v-30c0-5.522-4.477-10-10-10s-10 4.478-10 10v30h-20v-29.994c0-45.984 27.271-78.431 66.682-79.949 10.248 12.258 28.041 42.984 34.567 54.783 3.583 6.478 12.756 6.965 16.982.839 1.114-1.614 25.226-36.584 37.272-55.593 38.768 1.859 65.531 34.197 65.531 79.92z"/><path d="m156 326c33.084 0 60-26.916 60-60s-26.916-60-60-60-60 26.916-60 60 26.916 60 60 60zm0-100c22.056 0 40 17.944 40 40s-17.944 40-40 40-40-17.944-40-40 17.944-40 40-40z"/><path d="m395.951 156.005h-.985c-3.491 0-6.73 1.821-8.544 4.805-6.52 10.72-21.114 32.333-30.672 46.352-9.076-15.581-23.609-39.346-32.753-48.301-1.869-1.831-4.381-2.855-6.997-2.855-1.254.255-39.703-3.006-67.432 29.928-15.22 18.078-23.603 42.964-23.603 70.073v39.993c0 5.522 4.477 10 10 10h241.035c5.522 0 10-4.478 10-10v-39.994c0-55.606-34.457-100.505-90.049-100.001zm70.049 129.995h-21.034v-30c0-5.523-4.478-10-10-10s-10 4.477-10 10v30h-140v-30c0-5.523-4.478-10-10-10s-10 4.477-10 10v30h-20v-29.994c0-45.985 27.27-78.431 66.682-79.95 10.248 12.257 28.041 42.984 34.567 54.784 3.586 6.483 12.767 6.951 16.983.839 1.113-1.614 25.226-36.584 37.272-55.594 38.769 1.859 65.53 34.198 65.53 79.921z"/><path d="m354.966 146c33.084 0 60-26.916 60-60s-26.916-60-60-60-60 26.916-60 60 26.916 60 60 60zm0-100c22.056 0 40 17.944 40 40s-17.944 40-40 40-40-17.944-40-40 17.944-40 40-40z"/><path d="m425.088 326.889c-5.032-2.274-10.956-.043-13.233 4.989-15.709 34.724-43.653 61.706-79.775 77.508l3.408-10.224c1.746-5.239-1.086-10.902-6.325-12.649-5.239-1.746-10.902 1.087-12.649 6.325-10.441 31.363-10.376 30.727-10.484 32.552-.041.634-.025.525-.015.926.023.643.018.512.075.94.483 3.849 3.142 7.029 6.749 8.231 29.451 9.817 27.113 9.038 30 10 5.229 1.743 10.898-1.076 12.649-6.325 1.746-5.239-1.086-10.902-6.325-12.649l-3.707-1.235c38.08-18.056 67.621-47.577 84.622-85.155 2.275-5.033.041-10.957-4.99-13.234z"/><path d="m140.307 184.222c4.559 3.156 10.783 1.994 13.915-2.529 23.199-33.504 56.055-57.053 92.224-66.671l-5.004 9.107c-2.66 4.84-.893 10.92 3.948 13.58 4.84 2.659 10.919.893 13.58-3.948 15.973-29.1 15.755-28.404 16.179-30.19.114-.47.09-.319.175-.906.076-.535.064-.393.09-.928.033-.629.018-.594.002-.964-.015-.29-.042-.662-.048-.712-.369-3.023-2.045-5.576-4.367-7.131-.643-.433-4.673-2.594-28.462-15.692-4.84-2.66-10.92-.892-13.58 3.947-2.66 4.84-.893 10.92 3.947 13.58l3.96 2.177c-38.967 11.525-74.115 37.303-99.086 73.367-3.146 4.539-2.013 10.769 2.527 13.913z"/></g></g></svg>