<?xml version="1.0" encoding="UTF-8"?>
<svg xmlns="http://www.w3.org/2000/svg" viewBox="0 0 64 64" width="512" height="512"><g id="_11-brick_wall" data-name="11-brick wall"><path d="M63,22H47.926l6.5-3.1a1,1,0,0,0,.044-1.783L47,13.1V10.414l1.223-1.223c.079.049.146.112.231.154h0a2.993,2.993,0,0,0,3.129-.271l4.468-3.3A3,3,0,0,0,55.536.633a2.989,2.989,0,0,0-3.114.3L48,4.254a2.985,2.985,0,0,0-1.19,2.674,3.027,3.027,0,0,0,.154.7L45.293,9.293A1,1,0,0,0,45,10v2.018l-3.526-1.9a1,1,0,0,0-1.379.454L34.718,22H1a1,1,0,0,0-1,1V63a1,1,0,0,0,1,1H63a1,1,0,0,0,1-1V23A1,1,0,0,0,63,22ZM49.2,5.854l4.428-3.321a1.016,1.016,0,0,1,1.082-.08,1.005,1.005,0,0,1,.158,1.713L50.4,7.465a1,1,0,0,1-1.2-1.611ZM30.427,37.984A3.383,3.383,0,0,1,28,34.723c0-.243-.029-.482-.043-.723H32v4.456ZM34,34H50v8H37.489a5.364,5.364,0,0,0-3.341-2.9L34,39.056Zm28,0v8H52V34ZM46,44v6.714A28.112,28.112,0,0,0,42.638,48.7l-2.756-1.378A3.386,3.386,0,0,1,38,44.277c0-.094-.018-.184-.022-.277Zm2,0H62v8H48ZM62,32H44V24H62ZM41.456,12.381,45,14.289v1.3l-1.707,1.707a1,1,0,1,0,1.414,1.414l2-2A1,1,0,0,0,47,16v-.634l4.789,2.579L35.1,25.894ZM32.294,28.708a1,1,0,0,0,1.136.2L42,24.822V32H27.687a12.5,12.5,0,0,0-4.665-7.233L22,24H33.777L32.1,27.574A1,1,0,0,0,32.294,28.708ZM2,24H18.667l3.155,2.366A10.5,10.5,0,0,1,26,34.723,5.373,5.373,0,0,0,29.852,39.9l3.721,1.116A3.383,3.383,0,0,1,36,44.277a5.378,5.378,0,0,0,2.988,4.835l2.756,1.378A26.509,26.509,0,0,1,53.387,62H2ZM55.618,62a28.448,28.448,0,0,0-5.653-8H62v8Z"/><path d="M39,51a1,1,0,0,0-1,1v3a1,1,0,0,1-2,0V51.5a2.5,2.5,0,0,0-5,0V52a1,1,0,0,1-2,0V48a1,1,0,0,0-2,0v4a3,3,0,0,0,6,0v-.5a.5.5,0,0,1,1,0V55a3,3,0,0,0,6,0V52A1,1,0,0,0,39,51Z"/><path d="M28,46a1,1,0,0,0,1-1V44a1,1,0,0,0-2,0v1A1,1,0,0,0,28,46Z"/></g></svg>
