<svg id="Layer_1" enable-background="new 0 0 1000 1000" viewBox="0 0 1000 1000" xmlns="http://www.w3.org/2000/svg" xmlns:serif="http://www.serif.com/"><g clip-rule="evenodd" fill-rule="evenodd"><path d="m828.7 531.2c19.1 0 36.3-11.6 43.5-29.4s2.8-38-11-51.3c-82-78.8-232.9-224-307-295.2-30.2-29.1-78.1-29.1-108.3 0-74.1 71.2-225 216.4-307 295.2-13.8 13.3-18.1 33.6-11 51.3s24.3 29.4 43.5 29.4h16.2v265.6c0 43.1 35 78.1 78.1 78.1h468.8c43.1 0 78.1-35 78.1-78.1v-265.6zm0-31.2h-31.8c-8.6 0-15.6 7-15.6 15.6v281.2c0 25.9-21 46.9-46.9 46.9h-468.8c-25.9 0-46.9-21-46.9-46.9v-281.2c0-8.6-7-15.6-15.6-15.6h-31.8c-6.4 0-12.1-3.9-14.5-9.8s-.9-12.7 3.7-17.1l307-295.2c18.1-17.5 46.8-17.5 65 0 74.1 71.2 225.1 216.4 307 295.2 4.6 4.4 6 11.2 3.7 17.1-2.4 5.9-8.2 9.8-14.5 9.8z"/><path d="m500 375c-112.1 0-203.1 91-203.1 203.1s91 203.1 203.1 203.1 203.1-91 203.1-203.1-91-203.1-203.1-203.1zm0 31.2c94.9 0 171.9 77 171.9 171.9s-77 171.9-171.9 171.9-171.9-77-171.9-171.9 77-171.9 171.9-171.9z"/><path d="m453.1 531.2c0-25.9 21-46.9 46.9-46.9s46.9 21 46.9 46.9-21 46.9-46.9 46.9c-8.6 0-15.6 7-15.6 15.6v31.3c0 8.6 7 15.6 15.6 15.6s15.6-7 15.6-15.6v-17.2c35.6-7.2 62.5-38.8 62.5-76.6 0-43.1-35-78.1-78.1-78.1s-78.1 35-78.1 78.1c0 8.6 7 15.6 15.6 15.6s15.6-6.9 15.6-15.6z"/><circle cx="500" cy="687.5" r="15.6"/></g></svg>