<svg id="Layer_1" enable-background="new 0 0 53 53" height="512" viewBox="0 0 53 53" width="512" xmlns="http://www.w3.org/2000/svg"><g id="_x31_08"><path d="m11.7680302 2.5678771c-11.6627806 6.7764251-1.3908034.8081743-5.7988282 3.3696286-.1603298.0929914-.2484732.330122-.2490234.4306641l-.0673828 24.0458984c-.0009766.1791992.0947266.3447266.25.4345703l3.640625 2.1020527c.2402344.1376953.5458984.0571289.6826172-.1831055.1386719-.2392578.0566406-.5449219-.1826172-.6831055l-3.3896484-1.9570332.0644531-22.8928221 15.3291626 8.8500366c.9386101 4.0410137.1677494.7225132 1.2209473 5.2543945.011776.0446186.0945148.1877975.104187.1989136.4129963.7158031 3.3082142 2.731842 6.1679688 11.8790302.0439453.1459961.1533203.2641602.2949219.3203125.0103149.0039673.0213623.0026855.0317993.0059814.0020142.0006714.0032959.0026245.0053101.0032959 3.7134228 1.1915627 7.0165424 2.7055702 9.7304707 5.5496826l-.0273438 9.8389893-21.5556661-12.4453125c-.2382813-.137207-.5449219-.0561523-.6826172.1831055-.1386719.2392578-.0566406.5449219.1826172.6831055l22.3037128 12.8769531c.1542435.0888367.3447189.0893555.4990234.0004883.0005493-.0003052.0007324-.0009766.0012817-.0012817 2.1419525-1.2449799 6.0231781-3.5008812 5.7985229-3.3703003.1542969-.0888672.2480469-.2529297.2490234-.4306641l.03125-10.909668c.0005608-.0943336-.0849838-.2898293-.1347656-.3427734-1.2558594-1.3457031-2.6796875-2.4697266-4.3525391-3.4360371-.1167603-.0673828-.2459106-.1292114-.3654175-.1951904l.0042725-1.4932861 5.0427856 2.911623c.2403145.1379585.5463638.0553322.6826172-.1831055.1386719-.2392578.0566406-.5449219-.1826172-.6831055l-5.5395508-3.1984272.0114746-4.0569458 5.0280762 2.902832c.2413826.1385727.5466232.0541573.6826172-.1831055.1386719-.2392578.0566406-.5449219-.1826172-.6831055l-5.5247803-3.1896362.0238037-8.4011841c.0009766-.2763672-.2226563-.5004883-.4990234-.5014648h-.0009766c-.2753906 0-.4990234.2231445-.5.4985352l-.0221558 7.8276978-3.1246948-1.8039551.0238037-8.4006958c.0009766-.2763672-.2226563-.5004883-.4990234-.5014648h-.0009766c-.2753906 0-.4990234.2231445-.5.4985352l-.0221558 7.8272095-6.5484028-3.7805786-1.1364746-4.8752441c-.0279236-.1190395-.172163-.2869101-.2324219-.3217773l-16.2646481-9.3901367c-.1552734-.0898438-.3476562-.0888672-.5009765.0009766zm17.3691406 20.5170896 4.8016987 2.7723999c.3029785.7338257.5825195 1.479126.812561 2.2417603l.4815674 1.5670166c-.1002579.0582275-5.2417507 3.0443249-4.9136372 2.8537617-1.3623924-4.2816353-2.5361748-7.3760777-5.7925415-11.1810322l4.921875-2.8510742c1.3394775 1.5219116 2.6128559 3.4782104 3.7896748 5.8102417l-3.6011982-2.0792847c-.2382813-.137207-.5449219-.0566406-.6826172.1831055-.1386719.2392577-.0566406.5449218.1826172.6831054zm7.0943623 6.4273071-.5240479-1.7046509c-.1182251-.3922119-.2653198-.7752686-.40271-1.1615601l1.1281128.6513062-.0064697 2.2816162c-.0666504-.0220947-.1273804-.0446777-.1948852-.0667114zm4.3446044 19.6168842.0270386-9.7513428c.1428032-.0829849 5.113636-2.9715309 4.7966919-2.7873535l-.0273438 9.7513428zm4.5229493-13.5202637-4.9052734 2.8505859c-2.5004044-2.5650215-5.5696869-4.1361694-8.9599628-5.3129883.101263-.0587654 4.9529591-2.8742828 4.6523457-2.699831.1889038.0615845.3551025.1245728.5372314.1864624l-.0079346 2.809267c-.0009766.2763672.2226563.5004883.4990234.5014648h.0009766c.2753906 0 .4990234-.2231445.5-.4985352l.006958-2.4655781c1.1716919.4321899 2.1931152.8831177 3.1259155 1.3652973l-.0098267 3.4777222c-.0009766.2763672.2226563.5004883.4990234.5014648h.0009766c.2753906 0 .4990234-.2231445.5-.4985352l.0083008-2.9353027c1.336914.7863162 2.5081787 1.6782229 3.5522461 2.7185061zm-4.5474854-4.3877582c-.9352417-.4576416-1.9696655-.885437-3.1260986-1.3001099l.0057983-2.0471802 3.1246338 1.8041382zm.019104-6.7531128-.0114746 4.0569458-3.1246948-1.8041382.0114746-4.0567627zm-4.1345215 1.6763306-1.7157593-.9906006c-.1676636-.390625-.3273926-.7855835-.513916-1.1654663-.9465942-1.8932495-1.9597168-3.5397339-3.0200214-4.9381104l5.2611713 3.0374756zm-9.993349-9.8328247 2.380249 1.3742065-4.7373657 2.7523804c-.0231876-.1000328-1.0943813-4.7214317-1.0266724-4.4293213l4.8867188-2.8442383.7697144 3.3041382-1.772644-1.0233765c-.2382813-.1362305-.5449219-.0556641-.6826172.1831055-.138672.2392578-.0566408.5449219.1826171.6831055zm.8425903-3.920044c-1.5353107.892313-5.0259285 2.9210367-4.8012695 2.7904663-.3658886-.2112455-2.53829-1.4654818-15.2659302-8.8137817l4.8017578-2.7905271z"/><path d="m12.5990849 33.5600662c-.2382813-.1367188-.5449219-.0561523-.6826172.1831055-.1386719.2392578-.0566406.5449219.1826172.6831055l2.6005859 1.5014648c.2403164.1379585.5463648.0553322.6826172-.1831055.1386719-.2392578.0566406-.5449219-.1826172-.6831055z"/></g></svg>