<svg id="Layer_1" enable-background="new 0 0 512 512" height="512" viewBox="0 0 512 512" width="512" xmlns="http://www.w3.org/2000/svg"><path d="m475.846 201.255h-158.42v-39.132l17.333 12.43c5.234 3.75 11.375 5.71 17.688 5.71 1.671 0 3.354-.137 5.036-.415 8.034-1.328 15.07-5.705 19.813-12.325 9.789-13.666 6.637-32.748-7.026-42.536l-153.313-109.942c-10.685-7.972-25.136-8.111-35.986-.338l-153.782 110.277c-13.666 9.789-16.82 28.872-7.03 42.538 4.742 6.62 11.778 10.998 19.813 12.325 8.031 1.326 16.105-.553 22.725-5.295.001 0 .002-.001.003-.002l17.33-12.428v125.569c0 15.704 12.776 28.479 28.48 28.479h20.487v121.292c0 11.965 9.734 21.699 21.699 21.699h52.415v36.839c0 2.5 1.334 4.812 3.499 6.062 2.168 1.25 4.834 1.25 7 .001l31.329-18.081 31.329 18.081c1.083.625 2.291.937 3.499.937 1.209 0 2.418-.313 3.501-.938 2.165-1.25 3.499-3.562 3.499-6.062v-36.838h189.077c11.965 0 21.699-9.734 21.699-21.699v-214.509c.002-11.965-9.732-21.699-21.697-21.699zm-421.301-38.084c-3.58 2.564-7.943 3.581-12.29 2.863-4.345-.718-8.15-3.085-10.715-6.665-2.564-3.58-3.581-7.945-2.863-12.29.719-4.345 3.085-8.15 6.668-10.717l153.781-110.277c5.881-4.212 13.714-4.13 19.495.207.04.03.08.06.121.089l153.372 109.984c7.39 5.294 9.095 15.614 3.801 23.004-2.564 3.58-6.37 5.947-10.715 6.665-4.343.717-8.709-.299-12.286-2.861l-140.107-100.471c-1.219-.875-2.649-1.312-4.079-1.312s-2.86.437-4.079 1.312zm53.966 139c-7.984 0-14.48-6.496-14.48-14.479v-135.609l104.697-75.079 104.698 75.079v49.172h-152.729c-11.965 0-21.699 9.734-21.699 21.699v79.217zm66.019 81.835c-1.224-.134-2.459-.208-3.705-.208h-1.289v-107.179h1.289c18.492 0 33.537-15.045 33.537-33.537v-1.29h217.819v1.29c0 18.492 15.045 33.537 33.537 33.537h1.289v107.179h-1.289c-18.492 0-33.537 15.045-33.537 33.537v1.29h-112.209c3.671-8.546 5.711-17.951 5.711-27.827 0-39.008-31.735-70.743-70.743-70.743-36.716 0-66.98 28.118-70.41 63.951zm70.41-49.951c31.288 0 56.743 25.455 56.743 56.743s-25.455 56.743-56.743 56.743-56.743-25.455-56.743-56.743 25.455-56.743 56.743-56.743zm3.499 135.782c-2.166-1.249-4.832-1.249-6.998 0l-24.329 14.041v-28.049c8.546 3.671 17.952 5.712 27.828 5.712s19.282-2.041 27.828-5.712v28.049zm235.106-32.374c0 4.245-3.454 7.699-7.699 7.699h-185.696c4.421-3.683 8.384-7.896 11.798-12.538h127.234c3.866 0 7-3.134 7-7v-8.29c0-10.773 8.765-19.537 19.537-19.537h8.289c3.866 0 7-3.134 7-7v-121.178c0-3.866-3.134-7-7-7h-8.289c-10.772 0-19.537-8.764-19.537-19.537v-8.29c0-3.866-3.134-7-7-7h-231.82c-3.866 0-7 3.134-7 7v8.29c0 10.773-8.765 19.537-19.537 19.537h-8.289c-3.866 0-7 3.134-7 7v121.179c0 3.866 3.134 7 7 7h8.289c1.274 0 2.528.128 3.756.367 1.958 18.833 11.336 35.491 25.15 46.998h-49.034c-4.245 0-7.699-3.454-7.699-7.699v-214.51c0-4.245 3.454-7.699 7.699-7.699h325.148c4.245 0 7.699 3.454 7.699 7.699v214.509zm-238.605-3.312c23.905 0 43.354-19.448 43.354-43.354s-19.448-43.354-43.354-43.354-43.354 19.448-43.354 43.354 19.449 43.354 43.354 43.354zm0-72.707c16.186 0 29.354 13.168 29.354 29.354s-13.168 29.354-29.354 29.354-29.354-13.168-29.354-29.354 13.169-29.354 29.354-29.354zm-29.339-86.416c0-3.866 3.134-7 7-7h181.343c3.866 0 7 3.134 7 7s-3.134 7-7 7h-181.343c-3.867 0-7-3.133-7-7zm195.342 37.324c0 3.866-3.134 7-7 7h-76.377c-3.866 0-7-3.134-7-7s3.134-7 7-7h76.377c3.867 0 7 3.133 7 7zm0 37.323c0 3.866-3.134 7-7 7h-76.377c-3.866 0-7-3.134-7-7s3.134-7 7-7h76.377c3.867 0 7 3.134 7 7z"/></svg>