<svg enable-background="new 0 0 100 100" viewBox="0 0 100 100" xmlns="http://www.w3.org/2000/svg"><g id="concept"/><g id="_x33_D_model"/><g id="programming"/><g id="cube"/><g id="vector"/><g id="layer"/><g id="blueprint"/><g id="prototype"/><g id="process"/><g id="_x33_D_modeling"/><g id="coding"/><g id="_x33_D_concept"><g><path d="m87 9c-.6 0-1 .4-1 1v7h-72v-7c0-.6-.4-1-1-1-5 0-9 4-9 9v56c0 5 4 9 9 9h74c5 0 9-4 9-9v-56c0-5-4-9-9-9zm-81 9c0-3.5 2.6-6.4 6-6.9v54c-2.4.3-4.5 1.5-6 3.3zm81 63h-74c-3.9 0-7-3.1-7-7s3.1-7 7-7c.6 0 1-.4 1-1v-47h72v47c0 .6.4 1 1 1 3.9 0 7 3.1 7 7s-3.1 7-7 7zm1-15.9v-54c3.4.5 6 3.4 6 6.9v50.4c-1.5-1.8-3.6-3.1-6-3.3z"/><path d="m38.9 56.5c-.3-.7-1.4-.7-1.8 0l-10 19c-.2.3-.2.7 0 1s.5.5.9.5h20c.4 0 .7-.2.9-.5s.2-.7 0-1zm-9.2 18.5 8.3-15.9 8.3 15.9z"/><path d="m26 45.9v.1c0 .3.2.6.5.8h.1l11 5c.1.2.3.2.4.2s.3 0 .4-.1l11-5h.1c.3-.2.5-.5.5-.8v-.1-.1c0-.1 0-.2-.1-.3l-11-22s0-.1-.1-.1c0-.1-.1-.1-.1-.2 0 0-.1-.1-.2-.1 0 0-.1-.1-.1-.1s0 0-.1 0-.1 0-.2-.1c-.1 0-.1 0-.2 0s-.1 0-.2 0-.1 0-.2.1c0 0 0 0-.1 0 0 0-.1.1-.1.1-.1 0-.1.1-.2.1 0 0-.1.1-.1.2 0 0-.1.1-.1.1l-11 22c0 .1 0 .2-.1.3zm13-17.7 8.6 17.3-8.6 3.9zm-2 21.2-8.6-3.9 8.6-17.3z"/><path d="m19 54c0-4.8 1.8-9.4 5-12.8v1.8c0 .6.4 1 1 1s1-.4 1-1v-4c0-.5-.3-.9-.8-1l-4-1c-.5-.1-1.1.2-1.2.7s.2 1.1.7 1.2l2.1.5c-3.7 4-5.8 9.2-5.8 14.6 0 6.7 3.1 12.8 8.4 16.8.2.1.4.2.6.2.3 0 .6-.1.8-.4.3-.4.2-1.1-.2-1.4-4.8-3.6-7.6-9.2-7.6-15.2z"/><path d="m55.2 39c.5-.1.9-.7.7-1.2-.1-.5-.7-.9-1.2-.7l-4 1c-.4.1-.8.5-.8 1v4c0 .6.4 1 1 1s1-.4 1-1v-1.8c3.2 3.5 5 8 5 12.8 0 6-2.8 11.6-7.6 15.2-.4.3-.5 1-.2 1.4.2.3.5.4.8.4.2 0 .4-.1.6-.2 5.3-4 8.4-10.1 8.4-16.8 0-5.4-2.1-10.6-5.8-14.5z"/><path d="m63 39h17c.6 0 1-.4 1-1s-.4-1-1-1h-17c-.6 0-1 .4-1 1s.4 1 1 1z"/><path d="m82 31h-19c-.6 0-1 .4-1 1s.4 1 1 1h19c.6 0 1-.4 1-1s-.4-1-1-1z"/><path d="m82 43h-19c-.6 0-1 .4-1 1s.4 1 1 1h19c.6 0 1-.4 1-1s-.4-1-1-1z"/><path d="m63 51h14c.6 0 1-.4 1-1s-.4-1-1-1h-14c-.6 0-1 .4-1 1s.4 1 1 1z"/><path d="m82 55h-19c-.6 0-1 .4-1 1s.4 1 1 1h19c.6 0 1-.4 1-1s-.4-1-1-1z"/><path d="m63 63h18c.6 0 1-.4 1-1s-.4-1-1-1h-18c-.6 0-1 .4-1 1s.4 1 1 1z"/><path d="m82 67h-19c-.6 0-1 .4-1 1s.4 1 1 1h19c.6 0 1-.4 1-1s-.4-1-1-1z"/></g></g><g id="sketch_book"/><g id="manual_book"/><g id="_x33_D_print"/><g id="Plier"/><g id="measure"/><g id="results"/><g id="pantone"/><g id="setting"/></svg>