<svg id="Layer_1" enable-background="new 0 0 53 53" viewBox="0 0 53 53" xmlns="http://www.w3.org/2000/svg"><g><g><path d="m50.5650024 28.2873077v20.7600098c0 .7600098-.6199951 1.3800049-1.3900146 1.3800049h-3c.7700195 0 1.3900146-.6199951 1.3900146-1.3800049v-20.7600098c0-1.2299805-1.4899902-1.8399658-2.3599854-.9699707l-.0900269.0899658v-12.0999755c0-1.9199829-1.5599976-3.460022-3.460022-3.460022h3c1.9000244 0 3.460022 1.5400391 3.460022 3.460022v12.0999756l.0900269-.0899658c.8699952-.8699952 2.3599854-.2600098 2.3599854.9699706z"/><path d="m49.1748047 50.9272461h-3c-.2763672 0-.5-.2236328-.5-.5s.2236328-.5.5-.5c.4912109 0 .890625-.3945313.890625-.8798828v-20.7602539c0-.3662109-.2021484-.668457-.5410156-.8085938-.3408203-.1411133-.703125-.0693359-.9658203.1923828l-.0898438.0898438c-.1435547.1430664-.359375.1870117-.5449219.1083984-.1865234-.0771484-.3085938-.2597656-.3085938-.4619141v-12.1000976c0-1.6323242-1.328125-2.9599609-2.9599609-2.9599609-.2763672 0-.5-.2236328-.5-.5s.2236328-.5.5-.5h3c2.1835938 0 3.9599609 1.7763672 3.9599609 3.9599609v11.1865234c.4130859-.1323242.8652344-.1152344 1.2919922.0610352.7148438.2958984 1.1582031.9594727 1.1582031 1.7324219v20.7602539c.0000001 1.0366211-.8476562 1.8798828-1.8906249 1.8798828zm-1.3291016-1h1.3291016c.4912109 0 .890625-.3945313.890625-.8798828v-20.7602539c0-.3662109-.2021484-.668457-.5410156-.8085938-.3417969-.1411133-.703125-.0693359-.9658203.1923828l-.0898438.0898438c-.1171875.1166992-.2841797.168457-.4414063.1386719.0253906.125.0380859.2548828.0380859.3876953v20.7602539c.0000001.3178711-.080078.6171875-.2197265.8798828zm-1.671875-23.5209961c.2441406 0 .4931641.0488281.7333984.1484375.28125.1166992.5214844.2900391.7080078.5053711v-11.7529297c0-1.6323242-1.328125-2.9599609-2.9599609-2.9599609h-.3720703c.8164063.7260742 1.3320313 1.7836914 1.3320313 2.9599609v11.1865234c.180664-.0581054.368164-.0874023.5585937-.0874023z"/></g><g><path d="m29.3847656 43.637207h-21.9199218c-3.0058594 0-5.4863281-2.4414063-5.5302734-5.4423828 0-.0205078.0009766-.1206055.0029297-.140625l.0712891-.605957c.0332031-.2749023.2890625-.46875.5556641-.4375.2734375.0327148.4697266.2817383.4365234.5556641l-.0693359.5942383c.0390625 2.4770508 2.0712891 4.4765625 4.5332031 4.4765625h21.9199219c.2763672 0 .5.2236328.5.5s-.223633.4999999-.5000002.4999999z"/></g><g><path d="m26.0751953 12.347168h-16.1201172c-.2763672 0-.5-.2236328-.5-.5s.2236328-.5.5-.5h16.1201172c.2763672 0 .5.2236328.5.5s-.2236328.5-.5.5z"/></g><g><path d="m45.1152344 27.9072266c-.2763672 0-.5-.2236328-.5-.5v-12.1000977c0-1.6323242-1.328125-2.9599609-2.9599609-2.9599609h-7.8300781c-.2763672 0-.5-.2236328-.5-.5s.2236328-.5.5-.5h7.8300781c2.1835938 0 3.9599609 1.7763672 3.9599609 3.9599609v12.1000977c0 .2763672-.2236328.5-.5.5z"/></g><g><path d="m2.4394531 38.7929688c-.2763672 0-.5-.2236328-.5-.5v-27.34375c0-2.9448242 2.3994141-5.340332 5.3496094-5.340332h.6679688c1.375 0 2.4941406 1.1230469 2.4941406 2.5039063v23.3266602c0 1.3808594-1.1191406 2.5039063-2.4941406 2.5039063h-.6679688c-2.3984375 0-4.3496094 1.9511719-4.3496094 4.3496094 0 .2763669-.2236328.4999998-.5.4999998zm4.8496094-32.1840821c-2.3984375 0-4.3496094 1.9472656-4.3496094 4.340332v24.2324219c.9716797-1.3544922 2.5595703-2.2382813 4.3496094-2.2382813h.6679688c.8242188 0 1.4941406-.6748047 1.4941406-1.5039063v-23.32666c0-.8291016-.6699219-1.5039063-1.4941406-1.5039063z"/></g><g><g><g><g><path d="m26.7978516 27.4077148c-.0683594 0-.1376953-.0136719-.203125-.043457l-6.4121094-2.8588867c-.1230469-.0546875-.21875-.1557617-.265625-.2817383-.046875-.1254883-.0410156-.2646484.015625-.3862305l9.6005859-20.5786133c.2158203-.484375.6123047-.8613281 1.1123047-1.0532227.5009766-.1923828 1.0488281-.1762695 1.5390625.0429688l3.6513672 1.6279297c1.0136719.4521484 1.4697266 1.6435547 1.0185547 2.65625-.0019531.0024414-.0029297.0053711-.0039063.0078125l-9.5996094 20.5786133c-.0849609.1816407-.2646484.2885742-.4531249.2885742zm-5.7441407-3.6083984 5.4990234 2.4516602 9.3896484-20.1289063c.2285156-.5170898.0039063-1.1015625-.5136719-1.3325195l-3.6503906-1.6279297c-.2480469-.1098633-.5224609-.1191406-.7744141-.0224609-.2509766.0961914-.4501953.2861328-.5605469.5341797zm15.34375-17.4702148h.0097656z"/></g><g><path d="m33.5351563 12.9472656c-.0683594 0-.1376953-.0136719-.203125-.043457l-6.2802734-2.7998047c-.1220703-.0537109-.2167969-.1538086-.2636719-.277832-.0478516-.1240234-.0439453-.2617188.0107422-.3828125l1.0097656-2.2602539c.1123047-.2514648.4082031-.3647461.6601563-.2524414l6.3203125 2.8203125c.2519531.1123047.3652344.4082031.2529297.6601563-.1132813.2529297-.4091797.3666992-.6611328.2529297l-5.8632813-2.6166992-.6025391 1.347168 5.8232422 2.5961914c.2529297.1123047.3662109.4077148.2539063.6601563-.0830079.186035-.2656251.2963865-.4570313.2963865z"/></g><g><path d="m34.5849609 10.6972656c-.0683594 0-.1367188-.0136719-.203125-.0429688l-6.3203125-2.8100586c-.1210938-.0541992-.2158203-.1538086-.2636719-.277832-.0478515-.1235351-.0439452-.2612304.0097657-.3823242l1.7402344-3.909668c.2412109-.5444336.703125-.9521484 1.2666016-1.1171875.4472656-.1342773.9404297-.1030273 1.3828125.0932617.2529297.1113281.3671875.4067383.2548828.6591797-.1113281.2539063-.4111328.3662109-.6591797.2548828-.2246094-.0986328-.4707031-.1157227-.6923828-.0488281-.2900391.0849609-.5146484.284668-.6386719.5644531l-1.5371094 3.453125 5.8632813 2.6069336c.2519531.1123047.3662109.4077148.2539063.6601563-.0830079.1865235-.2656251.296875-.4570314.296875z"/></g><g><path d="m21.5703125 31.6577148c-.2158203 0-.4326172-.0449219-.640625-.1362305-.5703125-.2509766-.9316406-.7949219-.9414063-1.4199219l-.1064453-6.0351563c-.0029297-.1704102.0810547-.3305664.2226563-.425293.1435547-.0942383.3222656-.1098633.4794922-.0410156l6.4238281 2.8320313c.1552734.0688477.265625.2124023.2919922.3813477.0263672.168457-.0361328.3388672-.1640625.4516602l-4.5224609 3.9912109c-.296875.2641602-.6669922.4013672-1.0429688.4013672zm-.6748047-6.8271484.0927734 5.2548828c.0039063.2329102.1318359.4277344.34375.5205078.2128906.0942383.4433594.0576172.6171875-.097168l3.9384766-3.4775391z"/></g></g></g><g><path d="m23.6181641 25.9658203c-.0722656 0-.1455078-.015625-.2148438-.0483398-.2490234-.1186523-.3554688-.4169922-.2363281-.6665039l6.8388672-14.3857422c.1181641-.2490234.4179688-.3540039.6660156-.2368164.2490234.1186523.3554688.4169922.2363281.6665039l-6.8388672 14.3857422c-.0849609.1796875-.2646484.2851562-.4511718.2851562z"/></g><g><path d="m21.5703125 31.6577148c-.2158203 0-.4326172-.0449219-.640625-.1362305-.5703125-.2509766-.9316406-.7949219-.9414063-1.4199219l-.0283203-1.7094727c-.0039063-.2407227.1640625-.4501953.4003906-.4985352.6962891-.1416016 1.4052734-.0625 2.0537109.2270508.6679688.2978516 1.2070313.7817383 1.5576172 1.3989258.1171875.2050781.0742188.4638672-.1025391.6206055l-1.2558594 1.1162109c-.2968748.2641603-.666992.4013673-1.0429686.4013673zm-.6025391-2.8310546.0205078 1.2587891c.0039063.2329102.1318359.4277344.34375.5205078.2128906.0942383.4433594.0576172.6171875-.097168l.9267578-.8232422c-.2294922-.2758789-.5253906-.4980469-.8701172-.6518555-.3310546-.1479492-.6845702-.2163086-1.0380859-.2070312z"/></g></g><g><path d="m36.5478516 31.6567383h-21.7792969c-.2763672 0-.5-.2236328-.5-.5s.2236328-.5.5-.5h21.7792969c.2763672 0 .5.2236328.5.5s-.2236328.5-.5.5z"/></g><g><path d="m46.1787109 50.9272461h-20.7480468c-.7734375 0-1.4384766-.4423828-1.7363281-1.1547852-.2988281-.715332-.1455078-1.5029297.4003906-2.0561523l20.7607422-20.7495117c.5429688-.5512695 1.3300781-.7109375 2.0478516-.4155273.7197266.2949219 1.1660156.9614258 1.1660156 1.7382813v20.7583008c-.0000001 1.0361327-.8476563 1.8793944-1.8906251 1.8793944zm.0009766-23.5209961c-.2265625 0-.4423828.0908203-.6152344.265625l-20.7607422 20.7490234c-.2587891.2626953-.3300781.6245117-.1875.9658203.1416016.3383789.4462891.5405273.8144531.5405273h20.7480469c.4912109 0 .890625-.3945313.890625-.8793945v-20.7583007c0-.3691406-.2041016-.6733398-.5458984-.8134766-.1142578-.046875-.2304687-.0698242-.34375-.0698242z"/></g><g><path d="m42.5683594 45.9272461h-8.4033203c-.2021484 0-.3847656-.1220703-.4619141-.3085938-.0771484-.1870117-.0341797-.4018555.1083984-.5449219l8.4033203-8.3994141c.1435547-.1435547.359375-.1860352.5449219-.1083984.1865234.0776367.3085938.2597656.3085938.4619141v8.3994141c0 .2763672-.2236328.5-.5.5zm-7.1962891-1h6.6962891v-6.6928711z"/></g><g><g><path d="m47.5693359 31.168457h-1.8222656c-.2763672 0-.5-.2236328-.5-.5s.2236328-.5.5-.5h1.8222656c.2763672 0 .5.2236328.5.5s-.2236328.5-.5.5z"/></g><g><path d="m47.5693359 35.168457h-.9111328c-.2763672 0-.5-.2236328-.5-.5s.2236328-.5.5-.5h.9111328c.2763672 0 .5.2236328.5.5s-.2236328.5-.5.5z"/></g><g><path d="m47.5693359 39.168457h-1.8222656c-.2763672 0-.5-.2236328-.5-.5s.2236328-.5.5-.5h1.8222656c.2763672 0 .5.2236328.5.5s-.2236328.5-.5.5z"/></g><g><path d="m47.5693359 43.168457h-.9111328c-.2763672 0-.5-.2236328-.5-.5s.2236328-.5.5-.5h.9111328c.2763672 0 .5.2236328.5.5s-.2236328.5-.5.5z"/></g><g><path d="m47.5693359 47.168457h-1.8222656c-.2763672 0-.5-.2236328-.5-.5s.2236328-.5.5-.5h1.8222656c.2763672 0 .5.2236328.5.5s-.2236328.5-.5.5z"/></g></g></g></svg>