<svg id="Слой_1" enable-background="new 0 0 300 300" height="512" viewBox="0 0 300 300" width="512" xmlns="http://www.w3.org/2000/svg"><g><path d="m85.482 256.656v-22.481c0-.917-.553-1.744-1.401-2.095-.848-.35-1.823-.155-2.471.494l-22.427 22.481c-.647.649-.84 1.624-.489 2.47s1.178 1.398 2.094 1.398h22.427c1.252 0 2.267-1.015 2.267-2.267zm-4.533-2.266h-14.697l14.698-14.733v14.733z"/><path d="m88.876 283.885c4.371 0 7.927-3.561 7.927-7.939v-5.675h5.656c4.37 0 7.926-3.562 7.926-7.941 0-4.378-3.555-7.94-7.926-7.94h-5.656v-30.639c0-4.377-3.556-7.937-7.927-7.937h-2.847c-2.423 0-4.698.944-6.406 2.657l-34.511 34.593c-1.707 1.716-2.647 3.993-2.647 6.412v2.855c0 4.379 3.555 7.941 7.926 7.941h30.559v5.675c-.001 4.377 3.555 7.938 7.926 7.938zm-38.486-18.147c-1.871 0-3.392-1.529-3.392-3.408v-2.855c0-1.212.472-2.354 1.326-3.213l34.509-34.591c.852-.854 1.988-1.325 3.196-1.325h2.847c1.872 0 3.394 1.527 3.394 3.404v32.905c0 1.252 1.015 2.267 2.267 2.267h7.923c1.871 0 3.392 1.528 3.392 3.407s-1.521 3.408-3.392 3.408h-7.923c-1.252 0-2.267 1.015-2.267 2.267v7.941c0 1.878-1.522 3.406-3.394 3.406-1.871 0-3.393-1.528-3.393-3.406v-7.941c0-1.252-1.015-2.267-2.267-2.267h-32.826z"/><path d="m145.471 292.967h-132.436l-.113-65.815h32.94c1.252 0 2.267-1.015 2.267-2.267v-28.19l27.164-13.854 27.164 13.854v28.19c0 1.252 1.015 2.267 2.267 2.267h35.088v27.235c0 1.252 1.015 2.267 2.267 2.267s2.267-1.015 2.267-2.267v-27.235h1.129c1.252 0 2.267-1.015 2.267-2.267s-1.015-2.267-2.267-2.267h-38.483v-23.612l5.759 2.937c.33.168.681.248 1.028.248.826 0 1.621-.453 2.021-1.238.568-1.115.126-2.481-.989-3.049l-38.486-19.628c-.646-.33-1.414-.33-2.059 0l-38.486 19.628c-1.115.568-1.558 1.934-.989 3.049.567 1.114 1.931 1.555 3.049.989l5.759-2.937v23.612h-38.487c-1.252 0-2.267 1.015-2.267 2.267s1.015 2.267 2.267 2.267h3.277l.113 65.815h-3.39c-1.252 0-2.267 1.015-2.267 2.267s1.015 2.267 2.267 2.267h5.66.004 134.695c1.252 0 2.267-1.015 2.267-2.267s-1.015-2.266-2.267-2.266z"/><path d="m285.822 252.12h-122.238c-.079 0-.145.037-.221.045-.153.015-.297.044-.446.09-.148.047-.283.105-.416.179-.068.038-.145.045-.211.091l-29.43 20.423c-.61.423-.974 1.119-.974 1.862s.364 1.439.974 1.862l29.43 20.423c.086.06.183.087.274.133.077.039.147.081.228.111.257.096.521.16.788.16h.002.001 122.238c6.249 0 11.333-5.084 11.333-11.333v-22.714c0-6.248-5.083-11.332-11.332-11.332zm-124.505 6.598v32.184l-23.189-16.092zm4.534-2.065h106.397v36.314h-106.397zm126.77 29.514c0 3.749-3.051 6.8-6.8 6.8h-9.042v-36.314h9.042c3.749 0 6.8 3.051 6.8 6.8z"/><path d="m263.193 265.737h-88.29c-1.252 0-2.267 1.015-2.267 2.267s1.015 2.267 2.267 2.267h88.29c1.252 0 2.267-1.015 2.267-2.267s-1.016-2.267-2.267-2.267z"/><path d="m263.193 279.352h-88.29c-1.252 0-2.267 1.015-2.267 2.267s1.015 2.267 2.267 2.267h88.29c1.252 0 2.267-1.015 2.267-2.267-.001-1.252-1.016-2.267-2.267-2.267z"/><path d="m29.406 159.764c-.857-.915-2.289-.961-3.204-.106-.914.855-.961 2.289-.106 3.204l9.056 9.679c.429.457 1.028.718 1.655.718s1.227-.26 1.655-.719l9.054-9.678c.856-.915.808-2.349-.106-3.204s-2.349-.808-3.204.107l-5.134 5.487v-107.089l5.134 5.486c.447.477 1.05.718 1.655.718.556 0 1.111-.202 1.549-.612.914-.855.961-2.29.106-3.204l-9.056-9.678c-.008-.008-.019-.01-.027-.018-.412-.429-.986-.7-1.627-.7-.64 0-1.213.271-1.626.698-.009.009-.022.012-.03.021l-9.054 9.678c-.855.915-.808 2.349.106 3.204.915.855 2.348.81 3.204-.106l5.134-5.487v107.087z"/><path d="m125.099 208.998h95.081c1.252 0 2.267-1.015 2.267-2.267l.002-154.311c0-1.252-1.015-2.267-2.267-2.267h-.002-153.943c-1.252 0-2.267 1.015-2.267 2.267v116.3c0 1.252 1.015 2.267 2.267 2.267s2.267-1.015 2.267-2.267v-59.569h15.844c1.252 0 2.267-1.015 2.267-2.267s-1.015-2.267-2.267-2.267h-15.845v-49.93h52.064v49.931h-15.844c-1.252 0-2.267 1.015-2.267 2.267s1.015 2.267 2.267 2.267h18.111 38.483v15.887c0 1.252 1.015 2.267 2.267 2.267s2.267-1.015 2.267-2.267v-15.887h15.844c1.252 0 2.267-1.015 2.267-2.267s-1.015-2.267-2.267-2.267h-18.111-38.484v-49.931h92.813v49.931h-15.842c-1.252 0-2.267 1.015-2.267 2.267s1.015 2.267 2.267 2.267h15.842v95.314h-52.063v-59.004c0-1.252-1.015-2.267-2.267-2.267s-2.267 1.015-2.267 2.267v59.004h-36.217c-1.252 0-2.267 1.015-2.267 2.267s1.015 2.265 2.267 2.265z"/><path d="m163.583 81.92h6.791c3.747 0 6.796-3.054 6.796-6.806v-2.269c0-3.753-3.049-6.805-6.796-6.805h-6.791c-3.746 0-6.794 3.053-6.794 6.805 0 1.252 1.015 2.267 2.267 2.267s2.267-1.015 2.267-2.267c0-1.253 1.014-2.272 2.261-2.272h6.791c1.248 0 2.263 1.02 2.263 2.272v2.269c0 1.254-1.015 2.273-2.263 2.273h-6.791c-3.746 0-6.794 3.053-6.794 6.805v6.805c0 1.252 1.015 2.267 2.267 2.267h15.847c1.252 0 2.267-1.015 2.267-2.267s-1.015-2.267-2.267-2.267h-13.581v-4.539c-.001-1.251 1.013-2.271 2.26-2.271z"/><path d="m116.041 163.618h-6.791c-1.247 0-2.261-1.02-2.261-2.272s-1.015-2.267-2.267-2.267-2.267 1.015-2.267 2.267c0 3.753 3.048 6.805 6.794 6.805h6.791c3.747 0 6.796-3.053 6.796-6.805v-2.269c0-1.741-.657-3.333-1.735-4.537 1.079-1.205 1.735-2.797 1.735-4.539v-2.268c0-3.753-3.049-6.805-6.796-6.805h-6.791c-3.746 0-6.794 3.053-6.794 6.805 0 1.252 1.015 2.267 2.267 2.267s2.267-1.015 2.267-2.267c0-1.253 1.014-2.272 2.261-2.272h6.791c1.248 0 2.263 1.02 2.263 2.272v2.267c0 1.253-1.015 2.272-2.263 2.272h-6.791c-1.252 0-2.267 1.015-2.267 2.267s1.015 2.267 2.267 2.267h6.791c1.248 0 2.263 1.019 2.263 2.27v2.269c-.001 1.253-1.016 2.273-2.263 2.273z"/><path d="m88.876 88.731c-1.252 0-2.267 1.015-2.267 2.267s1.015 2.267 2.267 2.267h13.584c1.252 0 2.267-1.015 2.267-2.267s-1.015-2.267-2.267-2.267h-4.526v-20.426c0-.937-.608-1.838-1.482-2.174-1.593-.613-2.024-.777-11.52 9.733-.839.929-.767 2.362.162 3.201.93.839 2.364.768 3.201-.162 1.676-1.853 3.547-3.87 5.106-5.498v15.327h-4.525z"/><path d="m198.409 141.098c-.846-.351-1.824-.155-2.471.494l-15.848 15.883c-.647.649-.84 1.624-.489 2.47s1.178 1.398 2.094 1.398h13.582v4.543c0 1.252 1.015 2.267 2.267 2.267s2.267-1.015 2.267-2.267v-4.543h4.524c1.252 0 2.267-1.015 2.267-2.267s-1.015-2.267-2.267-2.267h-4.524v-13.617c-.002-.916-.554-1.743-1.402-2.094zm-3.133 15.712h-8.118l8.118-8.137z"/><path d="m275.645 2.5h-19.243c-1.252 0-2.267 1.015-2.267 2.267v22.695h-239.969c-6.242 0-11.321 5.09-11.321 11.345v173.031c0 1.252 1.015 2.267 2.267 2.267s2.267-1.015 2.267-2.267v-173.031c0-3.757 3.045-6.812 6.788-6.812h239.969v165.661c0 1.252 1.015 2.267 2.267 2.267h19.243c9.361 0 16.976 7.637 16.976 17.023v2.269c0 9.386-7.615 17.022-16.976 17.022h-123.38c-1.252 0-2.267 1.015-2.267 2.267s1.015 2.267 2.267 2.267h123.38c11.86 0 21.509-9.67 21.509-21.555v-195.162c-.001-11.885-9.65-21.554-21.51-21.554zm16.976 201.222c-3.939-5.068-10.084-8.333-16.976-8.333h-16.977v-188.356h16.977c9.361 0 16.976 7.636 16.976 17.021z"/></g></svg>