<svg clip-rule="evenodd" fill-rule="evenodd" height="512" image-rendering="optimizeQuality" shape-rendering="geometricPrecision" text-rendering="geometricPrecision" viewBox="0 0 1707 1707" width="512" xmlns="http://www.w3.org/2000/svg"><g id="Layer_x0020_1"><g id="_293639640"><g><g id="_293636472"><path d="m25 1238c-7 0-13-2-20-8-8-11-6-26 5-32l156-125 1311-1027c4-3 9-5 15-5h191c13 0 24 11 24 24s-11 23-24 23h-182l-1305 1024-156 124c-7 0-11 2-15 2z"/></g><g id="_293639328"><path d="m1670 1668-1534-3c-13 0-23-10-23-23v-260c0-13 10-23 23-23h279v-170c0-13 11-24 24-24h281v-182c0-13 10-23 23-23h273v-168c0-13 11-23 23-23h286v-178c0-13 10-24 23-24h322c13 0 24 11 24 24v1053c0 6-2 13-7 17-4 4-10 7-17 7zm-1510-48 1487 2v-1006h-277v178c0 13-11 24-24 24h-285v167c0 13-11 24-24 24h-270v182c0 13-11 24-24 24h-281v169c0 13-10 24-23 24h-279z"/></g><g id="_293639784"><path d="m267 1406c-13 0-24-11-24-24v-360c0-13 11-24 24-24s24 11 24 24v360c0 15-11 24-24 24z"/></g><g id="_293639400"><path d="m1492 616c-13 0-23-10-23-23v-530c0-13 10-24 23-24s24 11 24 24v530c0 13-11 23-24 23z"/></g><g id="_293639448"><path d="m904 1425c-6 0-13-2-17-8-8-9-8-24 2-33l494-444c8-8 23-8 32 2 8 9 8 24-2 33l-494 444c-4 4-10 6-15 6z"/></g><g id="_293639568"><path d="m1145 1451c-7 0-13-2-18-9-8-8-8-23 3-32l276-247c9-8 24-8 32 2 9 9 9 24-2 33l-276 246c-3 5-9 7-15 7z"/></g></g></g></g></svg>