<svg id="Слой_1" enable-background="new 0 0 300 300" height="512" viewBox="0 0 300 300" width="512" xmlns="http://www.w3.org/2000/svg"><g><path d="m18.698 79.651c2.537 0 4.874-.851 6.764-2.268l.013 108.925c0 1.253 1.015 2.267 2.267 2.267 1.253 0 2.267-1.015 2.267-2.267l-.009-70.348h239.962l.002 11.35c0 1.253 1.015 2.267 2.267 2.267 1.253 0 2.267-1.015 2.267-2.267l-.008-49.965c1.899 1.441 4.255 2.307 6.814 2.307 6.243 0 11.323-5.089 11.323-11.343v-11.505c0-4.936-3.151-9.275-7.843-10.796l-131.305-42.495c-2.277-.735-4.683-.735-6.96 0l-64.431 20.853v-15.06c0-3.753-3.048-6.806-6.794-6.806h-24.904c-3.746 0-6.794 3.054-6.794 6.806v27.516l-28.382 9.186c-4.689 1.52-7.84 5.859-7.84 10.796v11.504c.001 6.255 5.08 11.343 11.324 11.343zm11.301 31.776.02-50.575c0-.047-.024-.085-.027-.131v-.235l120.008-39.681 119.952 39.681.008 50.941zm18.13-102.121c0-1.253 1.014-2.273 2.261-2.273h24.904c1.247 0 2.261 1.02 2.261 2.273v16.526l-29.425 9.523v-26.049zm-36.221 47.498c0-2.965 1.891-5.571 4.704-6.482l131.303-42.496c1.362-.441 2.806-.441 4.169 0l131.302 42.495c2.815.912 4.707 3.517 4.707 6.482v11.504c0 3.756-3.046 6.81-6.79 6.81-3.743 0-6.788-3.055-6.788-6.81l-.029-9.46c0-.978-.626-1.845-1.555-2.152l-122.219-40.429c-.461-.153-.962-.153-1.423 0l-122.275 40.431c-.929.306-1.555 1.174-1.555 2.152l.001 9.711c-.135 3.637-3.105 6.559-6.762 6.559-3.745 0-6.791-3.055-6.791-6.81v-11.505z"/><path d="m229.237 195.386c0-1.252-1.015-2.267-2.267-2.267h-162.996c-1.252 0-2.267 1.015-2.267 2.267s1.015 2.267 2.267 2.267h162.996c1.252-.001 2.267-1.016 2.267-2.267z"/><path d="m290.353 272.543h-15.839v-13.612l13.763-.006c2.928-.001 5.606-1.496 7.165-3.998 1.583-2.542 1.74-5.668.419-8.36l-11.761-23.946h.65c3.19 0 6.06-1.655 7.676-4.427 1.636-2.804 1.658-6.165.04-9.024l-14.783-25.137h.838c3.08 0 5.857-1.598 7.428-4.275 1.596-2.719 1.63-5.986.093-8.738l-18.042-32.314c-1.6-2.866-4.501-4.577-7.759-4.578-.001 0-.001 0-.002 0-3.258 0-6.16 1.712-7.761 4.578l-18.078 32.382c-1.529 2.739-1.493 5.988.094 8.694 1.563 2.662 4.325 4.251 7.388 4.251h.915l-14.803 25.17c-1.598 2.825-1.575 6.186.061 8.991 1.616 2.771 4.486 4.426 7.676 4.426h.453l-13.009 23.639c-1.528 2.659-1.524 5.833.012 8.487 1.519 2.624 4.226 4.19 7.241 4.19h16.913v13.606h-208.267v-18.161h14.713c9.362 0 16.98-7.633 16.98-17.016 0-7.372-4.664-13.988-11.318-16.387v-10.843c0-9.383-7.618-17.016-16.982-17.016h-11.318c-9.363 0-16.982 7.633-16.982 17.016v10.843c-6.655 2.399-11.32 9.016-11.32 16.387 0 9.383 7.618 17.016 16.982 17.016h14.712v18.161h-24.894c-3.75 0-6.8 3.051-6.8 6.801v11.357c0 3.75 3.05 6.8 6.8 6.8h280.706c3.75 0 6.8-3.05 6.8-6.8v-11.356c0-3.75-3.05-6.801-6.8-6.801zm-270.524-22.695c-6.864 0-12.449-5.6-12.449-12.483 0-5.923 4.027-11.178 9.576-12.496 1.022-.242 1.743-1.155 1.743-2.206v-12.528c0-6.883 5.584-12.483 12.449-12.483h11.319c6.864 0 12.449 5.6 12.449 12.483v12.528c0 1.05.721 1.963 1.743 2.206 5.548 1.316 9.574 6.572 9.574 12.496 0 6.883-5.583 12.483-12.447 12.483h-14.712v-10.409l10.658-10.682c.883-.886.882-2.321-.004-3.206-.887-.882-2.322-.882-3.206.004l-7.448 7.466v-17.212c0-1.252-1.015-2.266-2.267-2.266s-2.267 1.015-2.267 2.266v17.213l-7.447-7.467c-.883-.886-2.319-.886-3.206-.004-.886.884-.887 2.32-.004 3.206l10.657 10.684v10.408h-14.711zm207.284 2.628c-.717-1.238-.719-2.717.015-3.994l14.878-27.035c.387-.702.373-1.556-.034-2.246-.408-.69-1.149-1.113-1.951-1.113h-4.288c-1.56 0-2.965-.814-3.76-2.177-.815-1.396-.826-3.069-.05-4.442l16.793-28.553c.412-.701.418-1.57.014-2.274-.403-.706-1.154-1.142-1.967-1.142h-4.878c-1.46 0-2.728-.734-3.479-2.013-.766-1.304-.782-2.87-.046-4.188l18.078-32.382c.789-1.413 2.211-2.256 3.804-2.256h.001c1.592.001 3.013.843 3.802 2.256l18.042 32.314c.745 1.333.728 2.916-.045 4.234-.76 1.294-2.042 2.036-3.518 2.036h-4.801c-.813 0-1.564.436-1.967 1.141-.404.706-.399 1.574.014 2.275l16.773 28.519c.796 1.406.784 3.078-.029 4.475-.795 1.363-2.201 2.177-3.76 2.177h-4.289c-.782 0-1.51.403-1.924 1.068s-.455 1.495-.111 2.198l13.364 27.211c.627 1.278.554 2.76-.197 3.967-.737 1.182-1.947 1.86-3.319 1.861l-15.997.003c-.011 0-.02-.006-.031-.006h-22.639c-.019 0-.035.01-.054.011l-19.126.004c-1.381-.001-2.62-.721-3.318-1.929zm24.762 6.461h8.051.001l10.053-.004v13.61h-18.106v-13.606zm40.745 31.763c0 1.25-1.017 2.267-2.267 2.267h-280.706c-1.25 0-2.267-1.017-2.267-2.267v-11.356c0-1.251 1.017-2.268 2.267-2.268h280.706c1.25 0 2.267 1.018 2.267 2.268z"/><path d="m117.116 263.46c4.328 0 7.984-3.429 7.984-7.487v-41.752c0-4.198-3.295-7.488-7.501-7.488-2.013 0-3.851.751-5.311 2.17l-16.628 16.14c-1.456 1.412-2.258 3.293-2.258 5.3-.001 2.019.808 3.914 2.275 5.336 2.985 2.894 7.318 2.897 10.358-.052l3.098-3.203v23.548c0 4.059 3.655 7.488 7.983 7.488zm-14.288-31.035c-1.232 1.195-2.762 1.195-3.996 0-.579-.561-.897-1.3-.897-2.08 0-.769.312-1.495.88-2.046l16.63-16.143c.608-.59 1.332-.889 2.154-.889 1.692 0 2.968 1.27 2.968 2.955v41.752c0 1.546-1.645 2.954-3.451 2.954s-3.45-1.408-3.45-2.954v-29.154c0-.924-.56-1.755-1.416-2.102-.276-.111-.563-.165-.849-.165-.604 0-1.195.24-1.63.691z"/><path d="m165.848 233.96c1.252 0 2.267-1.015 2.267-2.266v-2.269c0-6.255-5.08-11.343-11.324-11.343h-9.056c-6.242 0-11.321 5.089-11.321 11.343v2.269c0 6.255 5.079 11.342 11.321 11.342h9.056c3.745 0 6.791 3.056 6.791 6.812v2.267c0 3.757-3.046 6.812-6.791 6.812h-9.056c-3.743 0-6.788-3.056-6.788-6.812v-2.267c0-1.252-1.015-2.266-2.267-2.266s-2.267 1.015-2.267 2.266v2.267c0 6.256 5.079 11.345 11.321 11.345h9.056c6.244 0 11.324-5.09 11.324-11.345v-2.267c0-6.256-5.08-11.345-11.324-11.345h-9.056c-3.743 0-6.788-3.055-6.788-6.809v-2.269c0-3.756 3.045-6.81 6.788-6.81h9.056c3.745 0 6.791 3.055 6.791 6.81v2.269c.001 1.251 1.016 2.266 2.267 2.266z"/><path d="m188.486 263.46c1.252 0 2.267-1.015 2.267-2.266v-38.58h11.315c1.252 0 2.267-1.015 2.267-2.266 0-1.252-1.015-2.267-2.267-2.267h-27.165c-1.252 0-2.267 1.015-2.267 2.267s1.015 2.266 2.267 2.266h11.317v38.58c-.001 1.251 1.014 2.266 2.266 2.266z"/><path d="m145.475 181.771v-33.346l23.011 34.601c.428.643 1.144 1.011 1.888 1.011.218 0 .439-.031.656-.097.956-.289 1.611-1.17 1.611-2.169v-40.847c0-1.252-1.015-2.267-2.266-2.267-1.252 0-2.267 1.015-2.267 2.267v33.346l-23.011-34.601c-.554-.83-1.586-1.206-2.543-.914-.956.289-1.611 1.17-1.611 2.169v40.847c0 1.252 1.015 2.266 2.267 2.266 1.25 0 2.265-1.015 2.265-2.266z"/><path d="m193.013 184.037c8.74 0 15.85-7.125 15.85-15.883v-13.616c0-8.758-7.11-15.882-15.85-15.882h-13.583c-1.252 0-2.267 1.015-2.267 2.267v40.848c0 1.252 1.015 2.266 2.267 2.266zm-11.317-40.848h11.317c6.24 0 11.317 5.092 11.317 11.349v13.616c0 6.259-5.077 11.35-11.317 11.35h-11.317z"/><path d="m116.043 145.464h-4.527c-9.989 0-18.114 8.143-18.114 18.153v12.482c0 4.378 3.555 7.939 7.926 7.939h24.577c4.205 0 7.812-3.131 8.21-7.128.224-2.244-.509-4.483-2.012-6.143-1.5-1.658-3.641-2.608-5.874-2.608h-16.977v-2.272c0-2.504 2.031-4.541 4.527-4.541h4.527c8.738 0 15.848-7.124 15.848-15.882v-9.077c0-6.256-5.079-11.344-11.321-11.344h-21.181c-4.205 0-7.812 3.132-8.212 7.13-.224 2.242.509 4.479 2.011 6.14 1.501 1.658 3.643 2.609 5.876 2.609h14.715c1.247 0 2.261 1.02 2.261 2.272.001 1.251-1.013 2.27-2.26 2.27zm0-9.076h-14.715c-.969 0-1.862-.397-2.514-1.118-.655-.722-.961-1.663-.862-2.646.171-1.71 1.796-3.049 3.701-3.049h21.181c3.743 0 6.788 3.056 6.788 6.811v9.077c0 6.258-5.076 11.349-11.315 11.349h-4.527c-4.996 0-9.06 4.071-9.06 9.074v4.539c0 1.252 1.015 2.266 2.267 2.266h19.243c.969 0 1.861.397 2.513 1.117.655.722.961 1.664.862 2.65-.17 1.708-1.794 3.046-3.699 3.046h-24.577c-1.871 0-3.393-1.528-3.393-3.406v-12.482c0-7.51 6.093-13.62 13.581-13.62h4.527c3.746 0 6.794-3.052 6.794-6.803-.001-3.753-3.049-6.805-6.795-6.805z"/><path d="m118.306 43.349h-14.713c-4.371 0-7.927 3.561-7.927 7.938 0 4.378 3.556 7.939 7.927 7.939h11.318c1.871 0 3.392 1.529 3.392 3.409 0 1.878-1.521 3.406-3.392 3.406h-7.922c-3.746 0-6.794 3.053-6.794 6.804 0 3.753 3.048 6.805 6.794 6.805h7.922c1.871 0 3.392 1.528 3.392 3.406 0 1.879-1.521 3.407-3.392 3.407h-11.318c-4.371 0-7.927 3.56-7.927 7.937 0 4.379 3.556 7.942 7.927 7.942h14.713c8.74 0 15.85-7.124 15.85-15.882v-4.54c0-3.707-1.785-7.005-4.539-9.076 2.754-2.071 4.539-5.369 4.539-9.077v-4.54c0-8.754-7.11-15.878-15.85-15.878zm11.317 20.42c0 3.756-3.046 6.81-6.79 6.81-1.252 0-2.267 1.015-2.267 2.267s1.015 2.267 2.267 2.267c3.744 0 6.79 3.055 6.79 6.809v4.54c0 6.258-5.077 11.349-11.317 11.349h-14.713c-1.872 0-3.394-1.529-3.394-3.409 0-1.877 1.522-3.404 3.394-3.404h11.318c4.37 0 7.925-3.562 7.925-7.94s-3.555-7.939-7.925-7.939h-7.922c-1.247 0-2.261-1.02-2.261-2.272s1.014-2.271 2.261-2.271h7.922c4.37 0 7.925-3.561 7.925-7.939 0-4.379-3.555-7.942-7.925-7.942h-11.318c-1.872 0-3.394-1.528-3.394-3.406s1.522-3.405 3.394-3.405h14.713c6.24 0 11.317 5.091 11.317 11.347z"/><path d="m193.013 56.964h-13.583c-1.252 0-2.267 1.015-2.267 2.267v40.846c0 1.252 1.015 2.267 2.267 2.267h13.583c8.74 0 15.85-7.124 15.85-15.881v-13.619c0-8.757-7.11-15.88-15.85-15.88zm11.317 29.498c0 6.258-5.077 11.348-11.317 11.348h-11.317v-36.313h11.317c6.24 0 11.317 5.091 11.317 11.347z"/><path d="m168.079 79.653c2.762-2.068 4.561-5.357 4.561-9.065v-2.29c0-6.249-5.084-11.333-11.333-11.333h-18.099c-1.252 0-2.267 1.015-2.267 2.267v20.422 20.423c0 1.252 1.015 2.267 2.267 2.267s2.266-1.015 2.266-2.267v-18.157h15.832.006c.002 0 .004.001.007.001 3.743 0 6.788 3.055 6.788 6.809v11.346c0 1.252 1.015 2.267 2.267 2.267s2.267-1.015 2.267-2.267v-11.346c0-3.714-1.799-7.007-4.562-9.077zm-22.604-18.155h15.832c3.749 0 6.8 3.051 6.8 6.8v2.29c0 3.749-3.051 6.8-6.8 6.8h-15.832z"/></g></svg>