<svg id="Capa_1" enable-background="new 0 0 556.825 556.825" height="512" viewBox="0 0 556.825 556.825" width="512" xmlns="http://www.w3.org/2000/svg"><path d="m550.019 149.372h-88.975c-3.756.001-6.8 3.047-6.8 6.803.001 3.755 3.045 6.799 6.8 6.8h82.174v374.104h-68.773v-26.897h35.077c3.756 0 6.801-3.045 6.801-6.801v-153.72c0-3.756-3.045-6.801-6.801-6.801h-156.29v-26.896h156.285c3.756 0 6.801-3.045 6.801-6.801v-112.486c0-3.756-3.045-6.801-6.801-6.801h-103.386c-3.756.001-6.8 3.047-6.8 6.803.001 3.755 3.045 6.799 6.8 6.8h96.584v98.874h-156.284c-3.756 0-6.801 3.045-6.801 6.801v40.504c0 3.756 3.045 6.801 6.801 6.801h156.284v140.116h-27.807c-2.665-44.222-39.277-78.737-83.579-78.793h-51.188c-3.756.001-6.801 3.046-6.801 6.802v71.991h-106.925v-34.433c0-3.756-3.045-6.802-6.801-6.802h-40.504c-3.756.001-6.801 3.046-6.801 6.802v34.433h-118.202v-293.092h118.202v179.478c0 3.756 3.045 6.801 6.801 6.801h40.504c3.756 0 6.801-3.045 6.801-6.801v-26.498h40.835c3.756 0 6.801-3.045 6.801-6.801v-40.504c0-3.756-3.045-6.801-6.801-6.801h-40.835v-98.874h11.682c3.756.001 6.802-3.043 6.803-6.8s-3.043-6.802-6.8-6.803c-.001 0-.002 0-.003 0h-18.48c-3.756 0-6.801 3.045-6.801 6.801v112.48c0 3.756 3.045 6.801 6.801 6.801h40.835v26.899h-40.839c-3.756 0-6.801 3.045-6.801 6.801v26.498h-26.902v-179.483c0-3.756-3.045-6.801-6.801-6.801h-131.803c-3.756 0-6.801 3.045-6.801 6.801v306.699c0 3.756 3.045 6.801 6.801 6.801h131.804c3.756 0 6.801-3.045 6.801-6.801v-34.433h26.902v34.433c0 3.756 3.045 6.801 6.801 6.801h120.533c3.756 0 6.801-3.045 6.801-6.801v-71.986h26.9v105.69h-360.246v-374.105h268.616c3.756-.001 6.8-3.047 6.8-6.803-.001-3.755-3.045-6.799-6.8-6.8h-275.417c-3.756 0-6.801 3.045-6.801 6.801v387.707c0 3.756 3.045 6.801 6.801 6.801h373.839c3.756 0 6.802-3.045 6.802-6.801v-112.491h3.884c38.359.044 69.581 30.867 70.118 69.223-.392.869-.596 1.811-.598 2.764v40.504c0 3.756 3.045 6.801 6.801 6.801h82.375c3.756 0 6.801-3.045 6.801-6.801v-387.706c0-3.756-3.045-6.801-6.801-6.801 0-.001-.001-.001-.003-.001z"/><path d="m523.416 6.603c-9.602-1.538-19.421.828-27.268 6.57l-24.13 17.563-153.705 111.853c-.046.033-.081.078-.126.112-.277.211-.538.443-.779.693-.038.04-.082.075-.118.118-.263.292-.499.608-.706.942-.054.086-.101.175-.153.264-.154.27-.29.551-.406.839-.038.094-.08.185-.118.281-.016.047-.04.091-.057.138l-14.347 43.806-18.027.092c-3.756.01-6.793 3.063-6.784 6.819.01 3.756 3.063 6.793 6.819 6.783h.035l22.927-.118 50.967-.206h.029c.328.001.656-.022.981-.069.118-.016.225-.049.339-.073.213-.042.425-.086.631-.148.128-.039.252-.091.378-.138.191-.071.38-.144.563-.235.118-.058.235-.124.359-.189.187-.102.367-.213.544-.333.061-.041.126-.069.186-.118l153.694-111.848 24.13-17.563c16.366-11.911 19.977-34.833 8.066-51.199-5.719-7.859-14.326-13.123-23.927-14.636zm-182.032 156.118-9.56-13.136 142.695-103.848 9.559 13.135zm-16.737.117 19.479 26.766-28.286.118zm34.3 24.013-9.559-13.133 142.697-103.848 9.559 13.134zm181.53-140.459c-.935 6.043-4.249 11.461-9.202 15.047l-18.635 13.561-27.122-37.267 18.634-13.566c10.291-7.489 24.704-5.217 32.193 5.074 3.614 4.936 5.102 11.112 4.132 17.151z"/></svg>