<?xml version="1.0" encoding="UTF-8"?>
<svg xmlns="http://www.w3.org/2000/svg" id="Layer_3" data-name="Layer 3" viewBox="0 0 64 64" width="512" height="512"><path d="M62,53H54V26.427A5.028,5.028,0,0,0,56.34,27a3.66,3.66,0,0,0,2.179-6.6L56,18.533V7h1a1,1,0,0,0,1-1V2a1,1,0,0,0-1-1H45a1,1,0,0,0-1,1V6a1,1,0,0,0,1,1h1v4.126L32.6,1.2a1,1,0,0,0-1.19,0L5.481,20.4A3.66,3.66,0,0,0,7.66,27,5.028,5.028,0,0,0,10,26.427V32.34a3.462,3.462,0,0,0-1.954,2.677l-.822-.47A4.162,4.162,0,0,0,1,38.16v8.169a4.636,4.636,0,0,0,6.584,4.242A9.878,9.878,0,0,0,7.047,53H2a1,1,0,0,0-1,1v4a1,1,0,0,0,1,1H8.416a9.981,9.981,0,0,0,3.436,3.478l.633.379A.992.992,0,0,0,13,63a1,1,0,0,0,.985-.826L16,50.753l2.016,11.421a1,1,0,0,0,1.5.683l.634-.379A9.987,9.987,0,0,0,23.584,59H62a1,1,0,0,0,1-1V54A1,1,0,0,0,62,53ZM49,53V34a1,1,0,0,0-1-1H36a1,1,0,0,0-1,1V53H24.953a9.88,9.88,0,0,0-.538-2.429A4.637,4.637,0,0,0,31,46.329V38.16a4.161,4.161,0,0,0-6.225-3.612l-.821.469a3.462,3.462,0,0,0-6.532-1.1L16,36.764l-1.422-2.845A3.449,3.449,0,0,0,12,32.042V25.026L32,10.242,52,25.026V53Zm-2,0H37V35H47ZM14,44V40h4v4Zm3.618-6,1.593-3.187A1.472,1.472,0,0,1,22,35.472v.662L18.735,38ZM29,44H20V39.58l5.766-3.3A2.161,2.161,0,0,1,29,38.16Zm0,2v.329a2.671,2.671,0,0,1-4.381,2.052L21.762,46ZM46,3H56V5H46Zm2,4h6V17.052l-6-4.445ZM7.66,25a1.66,1.66,0,0,1-.988-2.994L32,3.245,57.328,22.006A1.66,1.66,0,0,1,56.34,25a3.047,3.047,0,0,1-1.823-.6L32.594,8.194a1,1,0,0,0-1.188,0L9.483,24.4A3.047,3.047,0,0,1,7.66,25ZM10,35.472a1.472,1.472,0,0,1,2.789-.659L14.382,38H13.265L10,36.134ZM5.161,36a2.178,2.178,0,0,1,1.072.284L12,39.58V44H3V38.16A2.163,2.163,0,0,1,5.161,36Zm.51,13A2.674,2.674,0,0,1,3,46.329V46h7.238L7.381,48.381A2.676,2.676,0,0,1,5.671,49ZM3,57V55H7.072a9.966,9.966,0,0,0,.445,2Zm9.273,3.358a7.995,7.995,0,0,1-2.585-9.7l1.131-2.542L13.362,46h1.446Zm7.454,0L17.192,46h1.446l2.543,2.12,1.13,2.542A7.948,7.948,0,0,1,23,53.908,8.042,8.042,0,0,1,19.727,60.359ZM61,57H24.483a9.966,9.966,0,0,0,.445-2H61Z"/><path d="M37,17H27a1,1,0,0,0-1,1V28a1,1,0,0,0,1,1H37a1,1,0,0,0,1-1V18A1,1,0,0,0,37,17Zm-1,5H33V19h3Zm-5-3v3H28V19Zm-3,5h3v3H28Zm5,3V24h3v3Z"/></svg>
